<?xml version="1.0" encoding="utf-8"?>
<!-- Generator: Adobe Illustrator 21.1.0, SVG Export Plug-In . SVG Version: 6.00 Build 0)  -->
<svg version="1.1" id="圖層_1" xmlns="http://www.w3.org/2000/svg" xmlns:xlink="http://www.w3.org/1999/xlink" x="0px" y="0px"
	 viewBox="0 0 434.1 58.6" style="enable-background:new 0 0 434.1 58.6;" xml:space="preserve">
<g>
	<g>
		<path d="M56.3,10.4c0.5,0,0.9,0.2,1.2,0.5c0.3,0.3,0.5,0.7,0.5,1.2v3.4c0,0.5-0.2,0.9-0.5,1.2c-0.3,0.3-0.7,0.5-1.2,0.5h-0.7
			c-0.2,0-0.2,0.1-0.2,0.2v27.8c0,2-0.2,3.4-0.7,4.5c-0.4,1-1.2,1.8-2.4,2.4c-1.8,0.8-4.7,1.3-8.5,1.3c-0.5,0-0.9-0.2-1.3-0.5
			c-0.4-0.3-0.6-0.7-0.7-1.2c-0.3-1.3-0.8-2.6-1.3-4c-0.2-0.4-0.1-0.7,0.1-1c0.2-0.3,0.5-0.5,0.9-0.5c1.5,0.1,3.3,0.1,5.4,0.1
			c0.5,0,0.8-0.1,1-0.2c0.2-0.2,0.3-0.5,0.3-0.9V17.5c0-0.1-0.1-0.2-0.2-0.2H29.3c-0.5,0-0.9-0.2-1.2-0.5c-0.3-0.3-0.5-0.7-0.5-1.2
			v-4.9c0,0,0,0,0,0c0,0,0,0,0,0c-0.8,1.9-1.8,4-2.9,6.3c-0.1,0.1-0.1,0.3-0.1,0.4v34.1c0,0.4-0.2,0.8-0.5,1.2
			c-0.3,0.3-0.7,0.5-1.2,0.5h-3.8c-0.5,0-0.9-0.2-1.2-0.5c-0.3-0.3-0.5-0.7-0.5-1.2v-23c0-0.1,0-0.1-0.1-0.1c0,0-0.1,0-0.1,0
			c-0.5,0.7-1.1,1.3-1.5,1.8c-0.3,0.3-0.6,0.4-1,0.3c-0.4-0.1-0.7-0.3-0.8-0.7c-0.7-1.5-1.4-3-2.2-4.5c-0.2-0.4-0.3-0.7-0.3-1.2
			c0-0.1,0-0.2,0-0.3c0.1-0.5,0.3-0.9,0.6-1.3c3.7-4.1,6.8-9,9.1-14.8c0.2-0.4,0.5-0.8,0.9-1c0.3-0.1,0.5-0.2,0.8-0.2
			c0.2,0,0.4,0,0.5,0.1L26.8,8c0.4,0.1,0.8,0.4,1,0.8c0.2,0.4,0.2,0.9,0,1.3l0,0.1c0,0.1,0,0.2,0.1,0.2H56.3z M44.8,38.4
			c0,0.5-0.2,0.9-0.5,1.2c-0.3,0.3-0.7,0.5-1.2,0.5h-8.4c-0.1,0-0.2,0.1-0.2,0.2v1.2c0,0.5-0.2,0.9-0.5,1.2
			c-0.3,0.3-0.7,0.5-1.2,0.5h-3.3c-0.5,0-0.9-0.2-1.2-0.5c-0.3-0.3-0.5-0.7-0.5-1.2V23.4c0-0.4,0.2-0.8,0.5-1.2
			c0.3-0.3,0.7-0.5,1.2-0.5h13.6c0.5,0,0.9,0.2,1.2,0.5c0.3,0.3,0.5,0.7,0.5,1.2V38.4z M38.2,28c0-0.1-0.1-0.2-0.2-0.2h-3.3
			c-0.1,0-0.2,0.1-0.2,0.2v5.8c0,0.2,0.1,0.2,0.2,0.2H38c0.2,0,0.2-0.1,0.2-0.2V28z"/>
		<path d="M76.6,9.4c0.4,0,0.8,0.2,1.2,0.5c0.3,0.3,0.5,0.7,0.5,1.2v31.1c0,0.5-0.2,0.9-0.5,1.2c-0.3,0.3-0.7,0.5-1.2,0.5h-7.8
			c-0.1,0-0.2,0.1-0.2,0.2v2.6c0,0.5-0.2,0.9-0.5,1.2s-0.7,0.5-1.2,0.5h-3.2c-0.5,0-0.9-0.2-1.2-0.5c-0.3-0.3-0.5-0.7-0.5-1.2V11.1
			c0-0.4,0.2-0.8,0.5-1.2c0.3-0.3,0.7-0.5,1.2-0.5H76.6z M71.7,15.9c0-0.1-0.1-0.2-0.2-0.2h-2.6c-0.1,0-0.2,0.1-0.2,0.2v7
			c0,0.2,0.1,0.2,0.2,0.2h2.6c0.1,0,0.2-0.1,0.2-0.2V15.9z M68.7,37.3c0,0.2,0.1,0.2,0.2,0.2h2.6c0.1,0,0.2-0.1,0.2-0.2v-7.7
			c0-0.1-0.1-0.2-0.2-0.2h-2.6c-0.1,0-0.2,0.1-0.2,0.2V37.3z M107.2,25.3c0,0.5-0.2,0.9-0.5,1.2c-0.3,0.3-0.7,0.5-1.2,0.5H103
			c-0.2,0-0.2,0.1-0.2,0.2v3c0,0.1,0.1,0.2,0.2,0.2h2.3c0.4,0,0.8,0.2,1.2,0.5c0.3,0.3,0.5,0.7,0.5,1.2V35c0,0.4-0.2,0.8-0.5,1.2
			c-0.3,0.3-0.7,0.5-1.2,0.5H103c-0.2,0-0.2,0.1-0.2,0.2V46c0,1.7-0.2,3-0.6,3.9c-0.4,0.9-1.1,1.7-2.2,2.2c-1.5,0.7-3.8,1.1-6.8,1.2
			h0c-0.4,0-0.9-0.2-1.3-0.5c-0.4-0.3-0.6-0.7-0.7-1.2c-0.3-1.1-0.7-2.2-1.2-3.5c-0.1-0.4-0.1-0.7,0.1-1c0.2-0.3,0.5-0.5,0.9-0.5
			c1.1,0,2.3,0,3.8,0c0.4,0,0.7-0.1,0.8-0.2c0.1-0.1,0.2-0.3,0.2-0.6v-9c0-0.2-0.1-0.2-0.2-0.2H80.9c-0.5,0-0.9-0.2-1.2-0.5
			c-0.3-0.3-0.5-0.7-0.5-1.2v-2.8c0-0.5,0.2-0.9,0.5-1.2c0.3-0.3,0.7-0.5,1.2-0.5h14.6c0.2,0,0.2-0.1,0.2-0.2v-3
			c0-0.2-0.1-0.2-0.2-0.2H80.9c-0.5,0-0.9-0.2-1.2-0.5c-0.3-0.3-0.5-0.7-0.5-1.2v-2.8c0-0.5,0.2-0.9,0.5-1.2
			c0.3-0.3,0.7-0.5,1.2-0.5h8.5c0.2,0,0.2-0.1,0.2-0.2v-2.8c0-0.1-0.1-0.2-0.2-0.2h-7.1c-0.5,0-0.9-0.2-1.2-0.5
			c-0.3-0.3-0.5-0.7-0.5-1.2v-2.7c0-0.4,0.2-0.8,0.5-1.2c0.3-0.3,0.7-0.5,1.2-0.5h7.1c0.2,0,0.2-0.1,0.2-0.2v-3
			c0-0.5,0.2-0.9,0.5-1.2c0.3-0.3,0.7-0.5,1.2-0.5H95c0.4,0,0.8,0.2,1.2,0.5c0.3,0.3,0.5,0.7,0.5,1.2v3c0,0.2,0.1,0.2,0.2,0.2h7.5
			c0.5,0,0.9,0.2,1.2,0.5c0.3,0.3,0.5,0.7,0.5,1.2v2.7c0,0.5-0.2,0.9-0.5,1.2c-0.3,0.3-0.7,0.5-1.2,0.5h-7.5c-0.2,0-0.2,0.1-0.2,0.2
			v2.8c0,0.1,0.1,0.2,0.2,0.2h8.6c0.5,0,0.9,0.2,1.2,0.5c0.3,0.3,0.5,0.7,0.5,1.2V25.3z M91.3,43c0.3,0.4,0.3,0.9,0.2,1.3
			c-0.1,0.5-0.4,0.8-0.8,1.1l-3.2,1.8c-0.4,0.2-0.8,0.3-1.3,0.1c-0.4-0.1-0.7-0.4-1-0.8c-0.8-1.6-2-3.4-3.5-5.2
			c-0.3-0.4-0.4-0.7-0.3-1.2c0.1-0.4,0.3-0.8,0.7-1l2.7-1.5c0.4-0.3,0.9-0.3,1.4-0.3c0.5,0.1,0.9,0.3,1.2,0.7
			C89.1,39.8,90.4,41.5,91.3,43z"/>
		<path d="M155,10.4c0.5,0,0.9,0.2,1.2,0.5c0.3,0.3,0.5,0.7,0.5,1.2v3.4c0,0.5-0.2,0.9-0.5,1.2c-0.3,0.3-0.7,0.5-1.2,0.5h-0.7
			c-0.2,0-0.2,0.1-0.2,0.2v27.8c0,2-0.2,3.4-0.7,4.5c-0.4,1-1.2,1.8-2.4,2.4c-1.8,0.8-4.7,1.3-8.5,1.3c-0.5,0-0.9-0.2-1.3-0.5
			c-0.4-0.3-0.6-0.7-0.7-1.2c-0.3-1.3-0.8-2.6-1.3-4c-0.2-0.4-0.1-0.7,0.1-1c0.2-0.3,0.5-0.5,0.9-0.5c1.5,0.1,3.3,0.1,5.4,0.1
			c0.5,0,0.8-0.1,1-0.2c0.2-0.2,0.3-0.5,0.3-0.9V17.5c0-0.1-0.1-0.2-0.2-0.2h-18.7c-0.5,0-0.9-0.2-1.2-0.5c-0.3-0.3-0.5-0.7-0.5-1.2
			v-4.9c0,0,0,0,0,0c0,0,0,0,0,0c-0.8,1.9-1.8,4-2.9,6.3c-0.1,0.1-0.1,0.3-0.1,0.4v34.1c0,0.4-0.2,0.8-0.5,1.2
			c-0.3,0.3-0.7,0.5-1.2,0.5h-3.8c-0.5,0-0.9-0.2-1.2-0.5c-0.3-0.3-0.5-0.7-0.5-1.2v-23c0-0.1,0-0.1-0.1-0.1c0,0-0.1,0-0.1,0
			c-0.5,0.7-1.1,1.3-1.5,1.8c-0.3,0.3-0.6,0.4-1,0.3c-0.4-0.1-0.7-0.3-0.8-0.7c-0.7-1.5-1.4-3-2.2-4.5c-0.2-0.4-0.3-0.7-0.3-1.2
			c0-0.1,0-0.2,0-0.3c0.1-0.5,0.3-0.9,0.6-1.3c3.7-4.1,6.8-9,9.1-14.8c0.2-0.4,0.5-0.8,0.9-1c0.3-0.1,0.5-0.2,0.8-0.2
			c0.2,0,0.4,0,0.5,0.1l3.5,1.2c0.4,0.1,0.8,0.4,1,0.8c0.2,0.4,0.2,0.9,0,1.3l0,0.1c0,0.1,0,0.2,0.1,0.2H155z M143.4,38.4
			c0,0.5-0.2,0.9-0.5,1.2c-0.3,0.3-0.7,0.5-1.2,0.5h-8.4c-0.1,0-0.2,0.1-0.2,0.2v1.2c0,0.5-0.2,0.9-0.5,1.2
			c-0.3,0.3-0.7,0.5-1.2,0.5H128c-0.5,0-0.9-0.2-1.2-0.5c-0.3-0.3-0.5-0.7-0.5-1.2V23.4c0-0.4,0.2-0.8,0.5-1.2
			c0.3-0.3,0.7-0.5,1.2-0.5h13.6c0.5,0,0.9,0.2,1.2,0.5c0.3,0.3,0.5,0.7,0.5,1.2V38.4z M136.8,28c0-0.1-0.1-0.2-0.2-0.2h-3.3
			c-0.1,0-0.2,0.1-0.2,0.2v5.8c0,0.2,0.1,0.2,0.2,0.2h3.3c0.2,0,0.2-0.1,0.2-0.2V28z"/>
		<path d="M171.5,34.4c0,0.1,0.1,0.2,0.2,0.1l2.2-0.9c0.4-0.2,0.8-0.1,1.2,0c0.4,0.2,0.6,0.5,0.7,1l0.8,3c0.1,0.5,0.1,1-0.1,1.4
			c-0.2,0.5-0.5,0.8-1,1c-3.9,2-8.1,4-12.6,6.1c-0.4,0.2-0.8,0.2-1.3,0c-0.4-0.2-0.7-0.5-0.9-0.9l-1.6-4c-0.1-0.2-0.1-0.4-0.1-0.6
			c0-0.2,0-0.4,0.1-0.7c0.2-0.4,0.5-0.7,1-0.9c0.5-0.2,1.2-0.5,2.2-0.9c1-0.4,1.7-0.7,2.1-0.8c0.1,0,0.2-0.1,0.2-0.3V24.7
			c0-0.2-0.1-0.2-0.2-0.2h-3.5c-0.4,0-0.8-0.2-1.2-0.5c-0.3-0.3-0.5-0.7-0.5-1.2v-3.4c0-0.4,0.2-0.8,0.5-1.2
			c0.3-0.3,0.7-0.5,1.2-0.5h3.5c0.1,0,0.2-0.1,0.2-0.2V8.9c0-0.4,0.2-0.8,0.5-1.2c0.3-0.3,0.7-0.5,1.2-0.5h3.2
			c0.5,0,0.9,0.2,1.2,0.5c0.3,0.3,0.5,0.7,0.5,1.2v8.5c0,0.2,0.1,0.2,0.2,0.2h2.6c0.5,0,0.9,0.2,1.2,0.5c0.3,0.3,0.5,0.7,0.5,1.2
			v3.4c0,0.5-0.2,0.8-0.5,1.2c-0.3,0.3-0.7,0.5-1.2,0.5h-2.6c-0.1,0-0.2,0.1-0.2,0.2V34.4z M188.5,46.1h8.3c1.1,0,1.9-0.3,2.3-0.8
			c0.4-0.5,0.8-1.6,1-3.3c0-0.4,0.2-0.7,0.6-0.8c0.4-0.2,0.7-0.2,1.1,0c1,0.5,2,0.9,3.1,1.3c0.5,0.2,0.9,0.4,1.2,0.8
			c0.2,0.3,0.3,0.7,0.3,1c0,0.1,0,0.2,0,0.3c-0.5,2.9-1.4,5-2.7,6.1c-1.3,1.2-3.3,1.7-6.1,1.7h-9.6c-3.7,0-6.2-0.7-7.5-2
			c-1.3-1.3-1.9-3.9-1.9-7.7v-11c0-0.1-0.1-0.2-0.2-0.1l-0.2,0.1c-0.4,0.2-0.8,0.2-1.3,0c-0.4-0.2-0.7-0.5-0.9-0.9l-1.3-3.1
			c-0.1-0.2-0.1-0.4-0.1-0.7c0-0.2,0-0.4,0.1-0.6c0.2-0.4,0.5-0.8,0.9-1l2.9-1.2c0.1-0.1,0.2-0.2,0.2-0.3V13.1
			c0-0.4,0.2-0.8,0.5-1.2c0.3-0.3,0.7-0.5,1.2-0.5h3.4c0.5,0,0.9,0.2,1.2,0.5c0.3,0.3,0.5,0.7,0.5,1.2V21c0,0.2,0.1,0.2,0.2,0.1
			l2.3-1c0.2-0.1,0.2-0.2,0.2-0.3V8.2c0-0.5,0.2-0.9,0.5-1.2c0.3-0.3,0.7-0.5,1.2-0.5h3.3c0.5,0,0.9,0.2,1.2,0.5
			c0.3,0.3,0.5,0.7,0.5,1.2v8.7c0,0.2,0.1,0.2,0.2,0.1l2.3-1l1.1-0.7l0,0c0.5-0.3,1-0.5,1.5-0.5c0.4,0,0.7,0,1,0.1l2.6,1
			c0.3,0.1,0.5,0.3,0.6,0.5c0.1,0.3,0.2,0.5,0.1,0.8c0,0.1,0,0.2,0,0.3c0,8.8-0.1,14.3-0.3,16.6c-0.1,2.3-0.9,3.8-2.5,4.6
			c-0.9,0.5-2.1,0.8-3.7,0.9c-0.5,0-0.9-0.1-1.3-0.4c-0.4-0.3-0.6-0.7-0.7-1.3c-0.3-1.7-0.6-3-1.1-3.9c0,0-0.1,0-0.1,0c0,0,0,0,0,0
			v5.8c0,0.5-0.2,0.9-0.5,1.2c-0.3,0.3-0.7,0.5-1.2,0.5h-3.3c-0.5,0-0.9-0.2-1.2-0.5c-0.3-0.3-0.5-0.7-0.5-1.2V27.5
			c0-0.1-0.1-0.2-0.2-0.1l-2.3,1c-0.1,0.1-0.2,0.2-0.2,0.3v14c0,1.5,0.2,2.4,0.6,2.8C186.1,45.9,187,46.1,188.5,46.1z M197.3,23.4
			c0-0.1-0.1-0.2-0.2-0.1l-2.4,1.1c-0.1,0.1-0.2,0.2-0.2,0.3v8.8c0,0.2,0.1,0.2,0.2,0.2c0.4,0,1,0,1.6,0c0.3,0,0.4-0.1,0.6-0.2
			c0.1-0.1,0.2-0.4,0.2-0.7C197.3,32.5,197.3,29.3,197.3,23.4z"/>
		<path d="M249.5,9.2c0.2,0,0.4,0,0.5,0c0.4,0,0.8,0.1,1.2,0.3l2.9,1.8c0.4,0.3,0.8,0.6,0.9,1.1c0.1,0.2,0.1,0.5,0.1,0.7
			c0,0.2,0,0.4-0.1,0.7c-1.7,5-3.2,9.3-4.6,12.8c-0.1,0.1,0,0.3,0,0.4c2.7,3.3,4,7,4,11.1c0,3.9-1,6.6-2.9,7.9
			c-1,0.7-2.2,1.2-3.6,1.3c-0.7,0.1-1.5,0.1-2.4,0.1c-0.4,0-0.9-0.1-1.2-0.5c-0.4-0.4-0.6-0.8-0.7-1.3c-0.3-1.8-0.8-3.4-1.4-4.7
			c0,0,0,0,0,0c0,0,0,0,0,0.1v10.5c0,0.4-0.2,0.8-0.5,1.2c-0.3,0.3-0.7,0.5-1.2,0.5H237c-0.5,0-0.9-0.2-1.2-0.5
			c-0.3-0.3-0.5-0.7-0.5-1.2V13.3c0,0,0,0,0,0c0,0,0,0,0,0c-1.1,2.7-2.3,5.1-3.5,7.1c-0.1,0.1,0,0.2,0.1,0.2h0.5
			c0.4,0,0.8,0.2,1.2,0.5c0.3,0.3,0.5,0.7,0.5,1.2V25c0,0.5-0.2,0.9-0.5,1.2c-0.3,0.3-0.7,0.5-1.2,0.5h-4.6c-0.1,0-0.2,0.1-0.3,0.2
			c-0.6,0.8-1.4,1.7-2.2,2.6c0,0,0,0.1,0,0.1c0,0,0,0.1,0.1,0.1h5.7c0.5,0,0.9,0.2,1.2,0.5c0.3,0.3,0.5,0.7,0.5,1.2v19.5
			c0,0.5-0.2,0.9-0.5,1.2c-0.3,0.3-0.7,0.5-1.2,0.5h-3.6c-0.4,0-0.8-0.1-1.1-0.4c-0.3-0.3-0.4-0.6-0.4-1.1c0-0.1-0.1-0.2-0.2-0.2
			h-5.8c-0.2,0-0.2,0.1-0.2,0.2v0.4c0,0.4-0.2,0.8-0.5,1.2c-0.3,0.3-0.7,0.5-1.2,0.5h-3.1c-0.4,0-0.8-0.2-1.2-0.5
			c-0.3-0.3-0.5-0.7-0.5-1.2V39.6c0-0.1-0.1-0.2-0.2-0.1c-0.4,0.2-0.8,0.3-1.2,0.1c-0.4-0.1-0.8-0.4-1-0.8c-0.6-1.1-1.3-2.2-2.1-3.2
			c-0.2-0.3-0.3-0.5-0.3-0.8c0-0.1,0-0.2,0-0.3c0.1-0.4,0.3-0.7,0.7-0.9c3.4-1.8,6.6-4,9.5-6.8c0,0,0,0,0-0.1c0,0,0-0.1-0.1-0.1
			h-7.9c-0.4,0-0.8-0.2-1.2-0.5c-0.3-0.3-0.5-0.7-0.5-1.2v-2.7c0-0.5,0.2-0.9,0.5-1.2c0.3-0.3,0.7-0.5,1.2-0.5h6
			c0.2,0,0.2-0.1,0.2-0.2v-2.6c0-0.1-0.1-0.2-0.2-0.2h-3.9c-0.5,0-0.8-0.2-1.2-0.5c-0.3-0.3-0.5-0.7-0.5-1.2v-2.7
			c0-0.4,0.2-0.8,0.5-1.2c0.3-0.3,0.7-0.5,1.2-0.5h3.9c0.2,0,0.2-0.1,0.2-0.2V8.6c0-0.5,0.2-0.9,0.5-1.2c0.3-0.3,0.7-0.5,1.2-0.5
			h3.2c0.5,0,0.9,0.2,1.2,0.5c0.3,0.3,0.5,0.7,0.5,1.2v2.6c0,0.2,0.1,0.2,0.2,0.2h2.6c0.4,0,0.8,0.2,1.2,0.5
			c0.3,0.3,0.5,0.7,0.5,1.2v0.3c0,0,0,0.1,0,0.1c0,0,0,0,0,0c0.4-1,0.9-2,1.2-2.9c0.2-0.4,0.5-0.8,0.9-1c0.4-0.2,0.9-0.3,1.3-0.1
			l3.8,1.1c0.1,0,0.1,0,0.1-0.1c0-0.3,0.1-0.5,0.3-0.8c0.2-0.2,0.5-0.3,0.8-0.3h12.9C249.4,9.2,249.5,9.2,249.5,9.2z M225.6,37.5
			c0.1,0,0.2-0.1,0.2-0.2v-1.7c0-0.1-0.1-0.2-0.2-0.2h-5.8c-0.2,0-0.2,0.1-0.2,0.2v1.7c0,0.2,0.1,0.2,0.2,0.2H225.6z M219.6,45
			c0,0.1,0.1,0.2,0.2,0.2h5.8c0.1,0,0.2-0.1,0.2-0.2v-2c0-0.2-0.1-0.2-0.2-0.2h-5.8c-0.2,0-0.2,0.1-0.2,0.2V45z M223.4,20.3
			c0,0.1,0.1,0.2,0.2,0.2h0.1c0.1,0,0.2-0.1,0.3-0.2c0.7-1.1,1.3-2,1.7-2.6c0.1-0.1,0-0.2-0.1-0.2h-2.1c-0.1,0-0.2,0.1-0.2,0.2V20.3
			z M242.5,15.9c-0.2,0-0.2,0.1-0.2,0.2v24.2c0,0.1,0.1,0.2,0.2,0.2c0.6,0.1,1.3,0.1,2.2,0.1c0.8,0,1.5-0.1,1.9-0.4
			c0.8-0.4,1.2-1.4,1.2-3.1c0-2.9-1-5.6-3.1-8.2c-0.5-0.6-0.7-1.3-0.7-2c0-0.3,0-0.6,0.1-1c0.9-2.7,1.8-6,2.8-9.9
			c0-0.2,0-0.2-0.1-0.2H242.5z"/>
		<path d="M283.4,21.7c0-0.1-0.1-0.2-0.2-0.1l-4.8,1.9c-0.4,0.2-0.8,0.1-1.2-0.1c-0.4-0.2-0.7-0.5-0.8-0.9c-0.1-0.2-0.1-0.4-0.2-0.6
			c0-0.1-0.1-0.2-0.3-0.2c-4.5,0.3-9.9,0.7-16,1.1c-0.5,0-0.9-0.1-1.2-0.4c-0.4-0.3-0.6-0.7-0.6-1.2l-0.3-3.3c0-0.5,0.1-0.9,0.4-1.3
			c0.3-0.4,0.7-0.5,1.2-0.5c0.6,0,1.3-0.1,1.9-0.1c0.1,0,0.2-0.1,0.3-0.2c1.1-2.5,1.9-5.1,2.6-7.9c0.1-0.5,0.4-0.9,0.8-1.1
			c0.3-0.2,0.6-0.2,0.9-0.2c0.1,0,0.3,0,0.4,0l4.1,0.9c0.4,0.1,0.8,0.3,1,0.7c0.2,0.4,0.2,0.8,0.1,1.2c-0.9,2.3-1.8,4.3-2.6,6.2
			c-0.1,0.1,0,0.2,0.1,0.2l4.2-0.2c0.1,0,0.2-0.1,0.1-0.2c-0.4-0.8-0.7-1.4-0.9-1.8c-0.2-0.4-0.3-0.8-0.1-1.2
			c0.2-0.4,0.4-0.7,0.9-0.9l2.9-1.1c0.5-0.2,1-0.2,1.4,0c0.5,0.2,0.8,0.5,1.1,0.9c2.3,3.9,3.9,7.2,4.6,9.9c0,0,0,0,0,0c0,0,0,0,0,0
			v-0.3V8.4c0-0.5,0.2-0.9,0.5-1.2c0.3-0.3,0.7-0.5,1.2-0.5h3.7c0.5,0,0.9,0.2,1.2,0.5c0.3,0.3,0.5,0.7,0.5,1.2v4.3
			c0,0.2,0.1,0.2,0.2,0.1c2.1-0.9,4-1.9,5.7-2.8c0.4-0.3,0.9-0.3,1.4-0.3c0.5,0.1,0.9,0.3,1.2,0.7l2.3,2.6c0.3,0.3,0.4,0.7,0.3,1.1
			c-0.1,0.4-0.3,0.7-0.7,0.9c-3,1.3-6.3,2.6-10.2,3.7c-0.1,0.1-0.2,0.2-0.2,0.3v1.5c0,0.9,0.1,1.5,0.3,1.7c0.2,0.2,0.7,0.3,1.5,0.3
			h4c0.6,0,1.1-0.2,1.3-0.6c0.2-0.4,0.4-1.2,0.5-2.5c0-0.4,0.2-0.6,0.6-0.8c0.3-0.2,0.7-0.2,1,0c1,0.5,2,0.9,3.2,1.3
			c0.5,0.2,0.9,0.4,1.1,0.8c0.3,0.4,0.4,0.8,0.3,1.3c-0.4,2.6-1.2,4.3-2.3,5.3c-1.1,1-2.8,1.4-5,1.4h-5.8c-3,0-5.1-0.5-6.2-1.6
			C284.1,26.4,283.5,24.5,283.4,21.7z M278.3,24.4c0.5,0,0.9,0.2,1.2,0.5c0.3,0.3,0.5,0.7,0.5,1.2v20.2c0,1.5-0.2,2.7-0.5,3.6
			c-0.4,0.9-1,1.6-1.9,2.1c-1.2,0.7-3,1.1-5.4,1.2c-0.5,0-0.9-0.2-1.3-0.5c-0.4-0.3-0.7-0.7-0.8-1.2c-0.3-1-0.7-2.1-1.1-3.1
			c-0.2-0.4-0.1-0.7,0.1-1c0.2-0.3,0.5-0.5,0.9-0.5c0.4,0,0.7,0,1,0c0.5,0,0.9,0,1.2,0c0.3,0,0.5,0,0.6-0.1c0.1-0.1,0.2-0.3,0.2-0.6
			v-1.7c0-0.1-0.1-0.2-0.2-0.2h-5.2c-0.2,0-0.2,0.1-0.2,0.2v7.1c0,0.4-0.2,0.8-0.5,1.2c-0.3,0.3-0.7,0.5-1.2,0.5h-3.2
			c-0.5,0-0.9-0.2-1.2-0.5c-0.3-0.3-0.5-0.7-0.5-1.2V26.2c0-0.5,0.2-0.9,0.5-1.2c0.3-0.3,0.7-0.5,1.2-0.5H278.3z M272.9,30.5
			c0-0.2-0.1-0.2-0.2-0.2h-5.2c-0.2,0-0.2,0.1-0.2,0.2v1.2c0,0.2,0.1,0.2,0.2,0.2h5.2c0.2,0,0.2-0.1,0.2-0.2V30.5z M267.2,38.9
			c0,0.1,0.1,0.2,0.2,0.2h5.2c0.2,0,0.2-0.1,0.2-0.2v-1.5c0-0.2-0.1-0.2-0.2-0.2h-5.2c-0.2,0-0.2,0.1-0.2,0.2V38.9z M292.5,46.8h4.2
			c0.6,0,1.1-0.2,1.4-0.7c0.3-0.5,0.5-1.5,0.6-3.2c0-0.4,0.2-0.7,0.6-0.8c0.3-0.2,0.7-0.2,1,0c0.9,0.5,2,0.9,3.2,1.3
			c0.4,0.2,0.8,0.4,1.1,0.8c0.2,0.3,0.3,0.7,0.3,1.1c0,0.1,0,0.2,0,0.3c-0.4,2.9-1.2,4.8-2.3,5.9c-1.1,1.1-2.8,1.6-5.2,1.6h-6
			c-3.1,0-5.3-0.6-6.3-1.7c-1.1-1.2-1.6-3.3-1.6-6.5V31.5c0-0.4,0.2-0.8,0.5-1.2c0.3-0.3,0.7-0.5,1.2-0.5h3.7c0.5,0,0.9,0.2,1.2,0.5
			c0.3,0.3,0.5,0.7,0.5,1.2v3.9c0,0.2,0.1,0.2,0.2,0.1c2.1-1,4.2-2,6.1-3.2c0.4-0.3,0.9-0.4,1.4-0.3c0.5,0.1,0.9,0.3,1.2,0.6
			l2.4,2.7c0.3,0.3,0.4,0.7,0.3,1.1c-0.1,0.4-0.3,0.7-0.7,0.9c-3,1.5-6.6,2.9-10.7,4.2c-0.1,0.1-0.2,0.2-0.2,0.3v2.7
			c0,0.9,0.1,1.5,0.3,1.7C291.1,46.7,291.6,46.8,292.5,46.8z"/>
		<path d="M348.9,24.1c0,0.1,0.1,0.2,0.2,0.2h1.7c0.5,0,0.9,0.2,1.2,0.5c0.3,0.3,0.5,0.7,0.5,1.2v7.4c0,0.5-0.2,0.9-0.5,1.2
			c-0.3,0.3-0.7,0.5-1.2,0.5h-3.7c-0.5,0-0.9-0.2-1.2-0.5c-0.3-0.3-0.5-0.7-0.5-1.2v-3.8c0-0.1-0.1-0.2-0.2-0.2h-29.7
			c-0.1,0-0.2,0.1-0.2,0.2v3.8c0,0.5-0.2,0.9-0.5,1.2c-0.3,0.3-0.7,0.5-1.2,0.5h-3.3c-0.5,0-0.9-0.2-1.2-0.5
			c-0.3-0.3-0.5-0.7-0.5-1.2V26c0-0.5,0.2-0.9,0.5-1.2c0.3-0.3,0.7-0.5,1.2-0.5h1.8c0.1,0,0.2-0.1,0.2-0.2l-0.8-13.7
			c0-0.4,0.1-0.8,0.4-1.1c0.3-0.3,0.7-0.4,1.2-0.3l1.6,0.3c0.1,0,0.3,0,0.4,0c1.5-0.5,3.1-1.1,4.9-1.9c0.3-0.1,0.6-0.2,1-0.2
			c0.2,0,0.3,0,0.5,0c0.5,0.1,0.9,0.4,1.3,0.8l1,1.2c0.3,0.4,0.4,0.7,0.3,1.2c-0.1,0.4-0.3,0.7-0.7,0.9c-1.4,0.6-3,1.1-4.8,1.6
			c-0.1,0.1-0.2,0.2-0.2,0.3l0,0.1c0,0.2,0.1,0.2,0.2,0.2h4.2c0.4,0,0.8,0.2,1.2,0.5c0.3,0.3,0.5,0.7,0.5,1.2V16
			c0,0.5-0.2,0.9-0.5,1.2c-0.3,0.3-0.7,0.5-1.2,0.5h-4c-0.2,0-0.2,0.1-0.2,0.2l0,0.7c0,0.2,0.1,0.2,0.2,0.2h4c0.4,0,0.8,0.2,1.2,0.5
			c0.3,0.3,0.5,0.7,0.5,1.1c0,0.1,0.1,0.2,0.2,0.1c0.8-0.4,1.5-0.8,2.1-1.2c0,0,0-0.1,0-0.1c0,0,0-0.1-0.1-0.1
			c-0.1,0-0.2-0.1-0.3-0.2c-0.2-0.1-0.3-0.2-0.4-0.2c-0.4-0.2-0.5-0.5-0.6-0.9c0-0.4,0.1-0.7,0.4-1l0.6-0.5c0.5-0.4,1.1-0.6,1.6-0.6
			c0.4,0,0.8,0.1,1.2,0.3c0.4,0.2,0.7,0.3,1,0.5c0.1,0.1,0.2,0,0.3,0c0.1-0.1,0.2-0.1,0.3-0.2c0.6-0.6,1.3-1,2-1
			c0.3,0,0.5,0,0.8,0.1l1.3,0.3c0.4,0.1,0.6,0.4,0.8,0.8c0.1,0.4,0.1,0.8-0.2,1.1c-0.3,0.4-0.7,0.8-1.1,1.2c-0.1,0.1-0.1,0.2,0,0.3
			c0.3,0.2,0.6,0.4,0.9,0.7c0.4,0.3,0.5,0.6,0.5,1.1c0,0.5-0.2,0.8-0.5,1.1l-0.9,0.7c-0.4,0.3-0.8,0.5-1.3,0.5
			c-0.5,0-0.9-0.2-1.3-0.5c-0.3-0.2-0.6-0.4-0.9-0.7c-0.1-0.1-0.2-0.1-0.3,0c-1,0.7-2.2,1.4-3.4,2.1c0,0.1,0,0.1,0,0.1h14.5
			c0.2,0,0.2-0.1,0.2-0.2l0.1-0.7c0-0.1,0-0.2-0.2-0.2h-3.3c-0.5,0-0.9-0.2-1.2-0.5c-0.3-0.3-0.5-0.7-0.5-1.2v-0.9
			c0-0.5,0.2-0.9,0.5-1.2c0.3-0.3,0.7-0.5,1.2-0.5h3.7c0.2,0,0.2-0.1,0.2-0.2l0-0.7c0-0.1-0.1-0.2-0.2-0.2h-3.6
			c-0.5,0-0.9-0.2-1.2-0.5c-0.3-0.3-0.5-0.7-0.5-1.2v-0.9c0-0.4,0.2-0.8,0.5-1.2c0.3-0.3,0.7-0.5,1.2-0.5h3.9c0.1,0,0.2-0.1,0.2-0.2
			l0-0.7c0-0.2-0.1-0.2-0.2-0.2h-4.2c-0.5,0-0.9-0.2-1.2-0.5c-0.3-0.3-0.5-0.7-0.5-1.2V9.7c0-0.5,0.2-0.9,0.5-1.2
			c0.3-0.3,0.7-0.5,1.2-0.5h9.7c0.5,0,0.9,0.2,1.2,0.5c0.3,0.3,0.5,0.7,0.4,1.2C349.6,15.2,349.3,20,348.9,24.1z M337.9,30.7
			c0.2,0,0.4,0,0.6,0c0.6,0,1.2,0.2,1.7,0.7l1.7,1.6c0.3,0.3,0.5,0.7,0.5,1.1c0,0.5-0.2,0.8-0.6,1.1c-1.7,1.3-3.5,2.5-5.4,3.8
			c0,0,0,0,0,0c0,0,0,0,0,0h13.9c0.5,0,0.9,0.2,1.2,0.5c0.3,0.3,0.5,0.7,0.5,1.2v2.2c0,0.4-0.2,0.8-0.5,1.2
			c-0.3,0.3-0.7,0.5-1.2,0.5h-16.2c-0.1,0-0.2,0.1-0.2,0.2v2.1c0,1.6-0.2,2.8-0.7,3.6c-0.4,0.8-1.2,1.5-2.3,1.9
			c-1.5,0.6-3.8,0.9-7,0.9h0c-0.5,0-0.9-0.1-1.3-0.4c-0.4-0.3-0.7-0.7-0.8-1.2c-0.3-0.9-0.6-1.9-1.1-2.8c-0.1-0.4-0.1-0.7,0.1-1
			c0.2-0.3,0.5-0.5,0.8-0.4c1.2,0,2.6,0,4.1,0c0.4,0,0.7-0.1,0.8-0.2c0.1-0.1,0.2-0.3,0.2-0.6v-1.8c0-0.2-0.1-0.2-0.2-0.2h-16
			c-0.5,0-0.9-0.2-1.2-0.5c-0.3-0.3-0.5-0.7-0.5-1.2v-2.2c0-0.5,0.2-0.9,0.5-1.2c0.3-0.3,0.7-0.5,1.2-0.5h16c0.1,0,0.2-0.1,0.2-0.2
			v0c0-0.5,0.2-0.9,0.5-1.2c0.3-0.3,0.7-0.5,1.2-0.5h1.4c0.2,0,0.3,0,0.4-0.1c0.6-0.4,1-0.8,1.4-1.1c0,0,0-0.1,0-0.1c0,0,0,0-0.1,0
			h-12.5c-0.4,0-0.8-0.2-1.2-0.5c-0.3-0.3-0.5-0.7-0.5-1.2v-1.5c0-0.5,0.2-0.9,0.5-1.2c0.3-0.3,0.7-0.5,1.2-0.5h18.2
			C337.7,30.7,337.8,30.7,337.9,30.7z M319,23.2c-0.2,0-0.2,0.1-0.2,0.2l0,0.7c0,0.1,0.1,0.2,0.2,0.2h7.5c0,0,0.1,0,0.1,0
			c0,0,0-0.1,0-0.1c-1-0.9-1.7-1.5-2.1-1.9c-0.1-0.1-0.1-0.1-0.1,0c0,0.3-0.1,0.5-0.3,0.7c-0.2,0.2-0.4,0.3-0.6,0.3H319z
			 M334.8,11.2c0.4,0.3,0.5,0.7,0.6,1.1c0,0.4-0.2,0.8-0.5,1.1l-0.8,0.6c-0.4,0.3-0.8,0.5-1.3,0.5c-0.5,0-0.9-0.1-1.3-0.4
			c-0.2-0.1-0.4-0.3-0.7-0.5c-0.1-0.1-0.3-0.1-0.4,0c-0.6,0.4-1.3,0.8-1.9,1.2c-0.4,0.3-0.9,0.3-1.4,0.3c-0.5-0.1-0.9-0.3-1.3-0.7
			c-0.4-0.3-0.7-0.6-1.1-0.9c-0.3-0.3-0.4-0.6-0.4-0.9c0-0.4,0.2-0.6,0.6-0.8c0.6-0.3,1.1-0.6,1.6-0.9c0.1,0,0.1-0.1,0.1-0.1
			c0,0,0-0.1-0.1-0.1c-0.1-0.1-0.3-0.2-0.6-0.3c-0.4-0.2-0.5-0.5-0.6-0.9c0-0.4,0.1-0.7,0.4-1l0.5-0.4c0.5-0.4,1.1-0.6,1.6-0.6
			c0.4,0,0.8,0.1,1.2,0.3c0.2,0.1,0.5,0.3,0.9,0.5c0.1,0.1,0.2,0,0.3,0c0.1-0.1,0.1-0.1,0.2-0.2c0.6-0.6,1.3-0.9,2-0.9
			c0.3,0,0.5,0,0.8,0.1l1.2,0.3c0.4,0.1,0.6,0.4,0.8,0.8c0.1,0.4,0.1,0.7-0.2,1.1c-0.3,0.4-0.7,0.7-1.1,1.1c-0.1,0.1-0.1,0.2,0,0.3
			C334.4,10.9,334.6,11.1,334.8,11.2z"/>
		<path d="M377.9,28c-0.1,0.1,0,0.2,0.1,0.2l4,0.5c0.4,0.1,0.7,0.3,0.9,0.6c0.2,0.4,0.2,0.7,0,1.1c-0.3,0.6-0.7,1.2-1,1.7
			c-0.1,0.1,0,0.2,0.1,0.2h13.4c0.5,0,0.9,0.2,1.2,0.5c0.3,0.3,0.5,0.7,0.5,1.2v17.6c0,0.5-0.2,0.9-0.5,1.2
			c-0.3,0.3-0.7,0.5-1.2,0.5h-4.3c-0.4,0-0.8-0.1-1.1-0.4c-0.3-0.3-0.4-0.6-0.4-1.1c0-0.1-0.1-0.1-0.2-0.1h-19.2
			c-0.1,0-0.2,0-0.2,0.1c0,0.4-0.1,0.8-0.4,1.1c-0.3,0.3-0.6,0.4-1.1,0.4h-3.9c-0.5,0-0.8-0.2-1.2-0.5c-0.3-0.3-0.5-0.7-0.5-1.2
			V34.1c0-0.5,0.2-0.9,0.5-1.2c0.3-0.3,0.7-0.5,1.2-0.5h9.7c0.2,0,0.3-0.1,0.3-0.2c0.1-0.4,0.4-1,0.7-2.1c0,0,0-0.1,0-0.1
			c0,0-0.1,0-0.1,0c-1,0.3-2.4,0.5-4.4,0.5c-0.5,0-0.9-0.2-1.3-0.5c-0.4-0.3-0.6-0.7-0.8-1.2c-0.3-0.8-0.6-1.7-1.1-2.7
			c-0.1-0.1-0.2-0.2-0.3-0.1c-2.2,1-4.5,1.9-6.9,2.9c-0.5,0.2-0.9,0.2-1.3,0c-0.4-0.2-0.7-0.5-0.9-0.9l-1.1-2.6
			c-0.1-0.2-0.1-0.4-0.1-0.6s0-0.4,0.1-0.6c0.2-0.4,0.5-0.7,1-0.8c1.7-0.5,3.9-1.2,6.4-2c0.2,0,0.2-0.1,0-0.2
			c-0.9-0.9-2.4-1.9-4.3-3.1c-0.4-0.3-0.6-0.6-0.7-1c-0.1-0.4,0-0.8,0.3-1.2l1.3-1.6c0.1-0.1,0.1-0.2-0.1-0.2h-1.4
			c-0.5,0-0.9-0.2-1.2-0.5c-0.3-0.3-0.5-0.7-0.5-1.2v-2.1c0-0.5,0.2-0.9,0.5-1.2c0.3-0.3,0.7-0.5,1.2-0.5h17.1
			c0.5,0,0.9,0.2,1.2,0.5c0.3,0.3,0.5,0.7,0.5,1.2v14.6C378.4,26.3,378.2,27.3,377.9,28z M369.8,23.4c0.1,0.4,0,0.8-0.2,1.2
			c-0.2,0.4-0.5,0.7-0.9,0.8v0.1h2.4c0.5,0,0.7-0.2,0.7-0.7V14.2c0-0.2-0.1-0.2-0.2-0.2h-7.5c0,0,0,0,0,0.1c1.1,0.6,2,1.2,2.8,1.7
			c0.4,0.3,0.6,0.6,0.7,1.1c0.1,0.5,0,0.9-0.3,1.3l-2.1,2.7c0,0,0,0.1,0,0.1c0,0,0,0,0.1,0l2.3-0.8c0.4-0.1,0.9-0.1,1.3,0.1
			c0.4,0.2,0.6,0.6,0.7,1L369.8,23.4z M389.5,39.4c0.2,0,0.2-0.1,0.2-0.2v-1.3c0-0.1-0.1-0.2-0.2-0.2h-19.1c-0.2,0-0.2,0.1-0.2,0.2
			v1.3c0,0.2,0.1,0.2,0.2,0.2H389.5z M370.2,46.2c0,0.2,0.1,0.2,0.2,0.2h19.1c0.2,0,0.2-0.1,0.2-0.2v-1.3c0-0.2-0.1-0.2-0.2-0.2
			h-19.1c-0.2,0-0.2,0.1-0.2,0.2V46.2z M399.2,8.5c0.5,0,0.9,0.2,1.2,0.5c0.3,0.3,0.5,0.7,0.5,1.2v14.4c0,1.4-0.2,2.5-0.5,3.3
			c-0.4,0.8-1,1.4-1.9,1.8c-1.3,0.5-3.2,0.8-5.9,0.8c-0.5,0-0.9-0.2-1.3-0.5c-0.4-0.3-0.7-0.7-0.8-1.2c-0.4-1.2-0.8-2.3-1.2-3.2
			c-0.1-0.1-0.2-0.2-0.3-0.1c-0.7,0.3-1.8,0.7-3.1,1.2c-1.3,0.5-2.3,0.8-2.7,1c-0.5,0.2-0.9,0.1-1.3,0c-0.4-0.2-0.7-0.5-0.9-0.9
			l-1-2.2c-0.1-0.2-0.1-0.4-0.1-0.6c0-0.2,0-0.4,0.1-0.7c0.2-0.4,0.5-0.6,1-0.8c1.9-0.5,3.8-1.2,5.9-1.9c0.1,0,0.1-0.1,0.1-0.1
			c0,0,0-0.1,0-0.1c-1-0.8-2.3-1.7-3.9-2.6c-0.4-0.2-0.6-0.6-0.7-1c-0.1-0.4,0-0.8,0.3-1.2l1.2-1.5c0.1-0.1,0.1-0.2-0.1-0.2h-1.1
			c-0.5,0-0.9-0.2-1.2-0.5c-0.3-0.3-0.5-0.7-0.5-1.2v-2.1c0-0.5,0.2-0.9,0.5-1.2c0.3-0.3,0.7-0.5,1.2-0.5H399.2z M390.9,19.3
			c0.4-0.2,0.8-0.1,1.2,0.1c0.4,0.2,0.6,0.6,0.7,1l0.3,1.7c0.1,0.5,0.1,0.9-0.2,1.4c-0.2,0.4-0.6,0.7-1,0.9l-2.1,0.8c0,0,0,0,0,0.1
			c1,0,2.1,0,3.5,0c0.3,0,0.5-0.1,0.6-0.2c0.1-0.1,0.2-0.3,0.2-0.6V14.2c0-0.2-0.1-0.2-0.2-0.2h-6.9c0,0,0,0,0,0.1
			c1.1,0.6,2,1.1,2.7,1.6c0.4,0.3,0.6,0.6,0.7,1.1c0.1,0.5,0,0.9-0.3,1.3l-1.3,1.7c0,0,0,0.1,0,0.1c0,0,0.1,0,0.1,0
			C389.3,19.8,389.9,19.6,390.9,19.3z"/>
		<path d="M420.6,47.7c-1,1-2.3,1.5-3.8,1.5c-1.5,0-2.8-0.5-3.8-1.5c-1-1-1.5-2.3-1.5-3.9c0-1.5,0.5-2.8,1.5-3.9
			c1-1,2.3-1.6,3.8-1.6c1.5,0,2.8,0.5,3.8,1.6c1,1,1.5,2.3,1.5,3.9C422.1,45.4,421.6,46.7,420.6,47.7z M415.6,35.3
			c-0.5,0-0.9-0.2-1.3-0.5c-0.4-0.3-0.5-0.7-0.6-1.2l-1.1-15.2l-0.2-6.1c0-0.5,0.2-0.9,0.5-1.2c0.3-0.3,0.7-0.5,1.2-0.5h5.4
			c0.4,0,0.8,0.2,1.2,0.5c0.3,0.3,0.5,0.7,0.5,1.2l-0.2,6.1l-1.1,15.2c0,0.5-0.2,0.9-0.6,1.2c-0.4,0.3-0.8,0.5-1.3,0.5H415.6z"/>
	</g>
</g>
</svg>
