<?xml version="1.0" encoding="utf-8"?>
<!-- Generator: Adobe Illustrator 21.1.0, SVG Export Plug-In . SVG Version: 6.00 Build 0)  -->
<svg version="1.1" id="圖層_1" xmlns="http://www.w3.org/2000/svg" xmlns:xlink="http://www.w3.org/1999/xlink" x="0px" y="0px"
	 viewBox="0 0 1142.9 150.9" style="enable-background:new 0 0 1142.9 150.9;" xml:space="preserve">
<g>
	<g>
		<path d="M64,22.7c0.4,0,0.8,0.2,1.2,0.5c0.3,0.3,0.5,0.7,0.5,1.2v21.3c0,0.2,0.1,0.3,0.2,0.4c2.5,2.1,5.2,3.8,7.9,5.2
			c0.4,0.2,0.6,0.6,0.6,1.1c0,0.3-0.1,0.5-0.3,0.8c-1,1.1-2,2.4-3,3.7c-0.3,0.4-0.7,0.7-1.1,0.8c-0.5,0.1-0.9,0-1.3-0.2
			c-1-0.6-1.9-1.2-2.7-1.8c-0.1-0.1-0.2,0-0.2,0.1v11.8c0,0.4-0.2,0.8-0.5,1.2c-0.3,0.3-0.7,0.5-1.2,0.5h-4.1
			c-0.5,0-0.9-0.2-1.2-0.5c-0.3-0.3-0.5-0.7-0.5-1.2V48.9c0-0.2-0.1-0.3-0.2-0.4c-1.8-2.1-3.5-4.3-5.1-6.7c0,0,0,0-0.1,0
			c0,0-0.1,0-0.1,0.1C49.3,54,43.6,62.8,35.5,68c-0.4,0.3-0.9,0.4-1.3,0.3c-0.5-0.1-0.9-0.3-1.2-0.7c-1.1-1.2-2.1-2.2-3.2-3.1
			c-0.3-0.2-0.5-0.5-0.4-0.9c0-0.4,0.2-0.7,0.5-0.9c4.5-2.6,8.2-6.2,11.1-10.8c0.1-0.1,0-0.2,0-0.3c-1.5-1.4-3.4-2.9-5.9-4.6
			c-0.1-0.1-0.2-0.1-0.3,0c-0.3,0.4-0.6,0.7-0.8,1c-0.3,0.4-0.7,0.5-1.2,0.6c-0.5,0-0.9-0.1-1.3-0.4c-1.1-0.9-2.2-1.7-3.3-2.6
			c-0.4-0.3-0.6-0.7-0.6-1.2c0-0.4,0.1-0.7,0.4-1c2.2-2.3,4.1-5.1,5.8-8.4c1.7-3.3,3-7,4-10.9c0.1-0.4,0.4-0.8,0.8-1.1
			c0.4-0.3,0.8-0.3,1.3-0.2l3.8,0.8c0.4,0.1,0.8,0.3,1,0.7c0.2,0.4,0.3,0.8,0.2,1.3c-0.4,1.4-0.8,2.6-1.2,3.8
			c-0.1,0.1,0,0.2,0.1,0.2h5.2c0.1,0,0.2,0,0.3,0c0.3,0,0.6,0,0.8,0c0.4,0,0.9,0.1,1.3,0.2l2,0.7c0.5,0.2,0.9,0.4,1.1,0.9
			c0.3,0.4,0.3,0.9,0.2,1.4c-0.2,1-0.3,1.8-0.4,2.6c0,0.1,0,0.1,0,0.1c0,0,0.1,0,0.1,0h0c0.4-0.2,0.9-0.2,1.4,0
			c0.5,0.2,0.8,0.5,1.1,0.9c0.3,0.5,0.6,1,1,1.5c0,0,0,0,0.1,0c0,0,0.1,0,0.1-0.1V24.4c0-0.5,0.2-0.9,0.5-1.2
			c0.3-0.3,0.7-0.5,1.2-0.5H64z M47,36.6c0-0.2,0-0.2-0.1-0.2h-5.5c-0.2,0-0.3,0.1-0.3,0.2c-0.8,1.7-1.6,3.3-2.4,4.7
			c-0.1,0.1,0,0.2,0.1,0.3c2.2,1.4,4.1,2.6,5.4,3.7c0.1,0.1,0.2,0.1,0.2-0.1C45.5,42.3,46.3,39.5,47,36.6z"/>
		<path d="M123.7,36.4c0,0.4-0.2,0.8-0.5,1.2c-0.3,0.3-0.7,0.5-1.2,0.5h-0.9c-0.2,0-0.3,0.1-0.3,0.2c-0.9,7-2.5,12.8-4.8,17.3
			c-0.1,0.1-0.1,0.2,0,0.3c1.9,2.7,4.2,4.8,6.7,6.5c0.4,0.2,0.6,0.5,0.6,1c0,0.4-0.1,0.8-0.4,1.1c-1,1.1-2,2.3-2.8,3.6
			c-0.3,0.4-0.6,0.7-1.1,0.8c-0.5,0.1-0.9,0-1.3-0.2c-2.3-1.6-4.4-3.6-6.2-6.1c-0.1-0.1-0.2-0.1-0.3,0c-2.2,2.5-4.9,4.6-8.2,6.4
			c-0.4,0.2-0.8,0.3-1.3,0.1c-0.4-0.1-0.8-0.4-1-0.8c-0.7-1.3-1.4-2.5-2.3-3.7c-0.2-0.4-0.3-0.7-0.2-1.2c0.1-0.4,0.3-0.7,0.7-0.9
			c3.5-1.7,6.3-3.9,8.4-6.7c0.1-0.1,0.1-0.2,0-0.4c-1-2.3-1.9-4.9-2.7-7.8c0,0,0-0.1,0-0.1c0,0-0.1,0-0.1,0
			c-0.2,0.3-0.3,0.5-0.5,0.8c-0.3,0.4-0.6,0.6-1.1,0.6c-0.4,0-0.8-0.1-1.2-0.5c-0.7-0.7-1.5-1.4-2.3-2.1c-0.1-0.1-0.2-0.1-0.3,0
			c-1.9,2.3-4,4.5-6.4,6.5c-0.1,0.1-0.2,0.2-0.2,0.4c0,0.1,0.1,0.2,0.2,0.2c0.5,0,1.5-0.1,3-0.2c1.5-0.1,2.6-0.2,3.4-0.2
			c0.4,0,0.8,0.1,1.2,0.4c0.3,0.3,0.5,0.7,0.5,1.2v2.6c0,0.5-0.2,0.9-0.5,1.3c-0.3,0.4-0.7,0.5-1.2,0.6c-1.3,0.1-3.5,0.3-6.4,0.5
			c-0.2,0-0.2,0.1-0.2,0.2v3.2c0,1.5-0.2,2.7-0.5,3.6c-0.3,0.8-1,1.5-2,1.9c-1.3,0.6-3.2,0.9-5.8,1h0c-0.4,0-0.9-0.1-1.3-0.4
			c-0.4-0.3-0.6-0.7-0.8-1.2c-0.2-0.9-0.5-1.9-0.9-2.8c-0.2-0.4-0.1-0.7,0.1-1.1c0.2-0.3,0.5-0.5,0.9-0.5c0.8,0,1.7,0,2.7,0
			c0.3,0,0.5,0,0.6-0.1c0.1-0.1,0.2-0.3,0.2-0.5v-2.5c0-0.1-0.1-0.2-0.2-0.2l-6.9,0.5c-0.5,0.1-0.9-0.1-1.3-0.4
			c-0.4-0.3-0.6-0.7-0.6-1.2l-0.3-2.9c0-0.4,0.1-0.9,0.4-1.2c0.3-0.4,0.7-0.5,1.1-0.6c0.5,0,1.6-0.1,3.4-0.2
			c1.8-0.1,3.2-0.2,4.2-0.2c0.1,0,0.2-0.1,0.2-0.2V52c0-0.4,0.2-0.8,0.5-1.2c0.3-0.3,0.7-0.5,1.2-0.5h0.1c0.1,0,0.2,0,0.3-0.1
			c0.5-0.4,1-0.9,1.5-1.5c0,0,0-0.1,0-0.1c0,0,0,0-0.1,0h-2c-0.1,0-0.3,0-0.4,0.1c-1.6,1.3-3.4,2.6-5.2,3.7
			c-0.4,0.3-0.9,0.3-1.3,0.2c-0.5-0.1-0.9-0.3-1.2-0.7c-0.8-1-1.6-1.9-2.5-2.9c-0.3-0.3-0.4-0.7-0.3-1.1c0.1-0.4,0.3-0.7,0.7-0.9
			c1.2-0.7,2.4-1.4,3.6-2.2c0.1-0.1,0.1-0.2,0.1-0.3c0-0.4,0.1-0.7,0.4-1c0.3-0.3,0.6-0.5,1.1-0.5h0.6c0.2,0,0.3,0,0.4-0.1
			c0.8-0.6,1.4-1.2,1.9-1.5c0,0,0-0.1,0-0.1c0,0-0.1,0-0.1,0h-6.7c-0.5,0-0.8-0.2-1.2-0.5c-0.3-0.3-0.5-0.7-0.5-1.2v-2.7
			c0-0.5,0.2-0.9,0.5-1.2c0.3-0.3,0.7-0.5,1.2-0.5h4.7c0.2,0,0.2-0.1,0.2-0.2v-2c0-0.2-0.1-0.2-0.2-0.2h-3.1c-0.5,0-0.9-0.2-1.2-0.5
			c-0.3-0.3-0.5-0.7-0.5-1.2v-2.6c0-0.5,0.2-0.9,0.5-1.2c0.3-0.3,0.7-0.5,1.2-0.5h3.1c0.2,0,0.2-0.1,0.2-0.2v-2.2
			c0-0.5,0.2-0.9,0.5-1.2c0.3-0.3,0.7-0.5,1.2-0.5h3.2c0.4,0,0.8,0.2,1.2,0.5c0.3,0.3,0.5,0.7,0.5,1.2v2.2c0,0.1,0.1,0.2,0.2,0.2
			h2.2c0.4,0,0.8,0.2,1.2,0.5c0.3,0.3,0.5,0.7,0.5,1.2V30c0,0,0,0,0,0c0,0,0,0,0,0c0.8-1.4,1.5-2.9,2.2-4.6c0.2-0.4,0.5-0.8,0.9-1
			c0.4-0.2,0.9-0.2,1.4-0.1l3.3,0.9c0.4,0.1,0.7,0.4,0.9,0.8c0.2,0.4,0.2,0.8,0,1.3c-1.1,2.7-2.4,5.2-3.9,7.7
			c-0.1,0.1,0,0.2,0.1,0.2h0.1c0.5,0,0.9,0.2,1.2,0.5c0.3,0.3,0.5,0.7,0.5,1.2v1.3c0,0,0,0,0,0c1.8-3.9,3.1-8.5,3.9-13.9
			c0.1-0.5,0.3-0.9,0.7-1.1c0.4-0.3,0.8-0.4,1.3-0.3l3.9,0.6c0.5,0.1,0.9,0.3,1.1,0.7c0.3,0.4,0.4,0.8,0.3,1.3c-0.4,2-0.8,4-1.3,5.9
			c0,0.2,0,0.2,0.2,0.2H122c0.5,0,0.9,0.2,1.2,0.5c0.3,0.3,0.5,0.7,0.5,1.2V36.4z M90.6,32.6c-0.2,0-0.2,0.1-0.2,0.2v2
			c0,0.2,0.1,0.2,0.2,0.2h0.5c0.2,0,0.3-0.1,0.3-0.2c0.5-0.7,1-1.4,1.5-2.1c0.1-0.1,0-0.2-0.1-0.2H90.6z M94.7,43c0.1,0,0.2,0,0.3,0
			c0.2-0.1,0.4-0.1,0.7-0.1c0.5,0,1,0.2,1.4,0.5l0.7,0.5c0.1,0.1,0.2,0.1,0.3,0c0.6-0.8,1.2-1.7,1.7-2.6c0.1-0.1,0.1-0.1-0.1-0.1
			h-4.5c-0.2,0-0.3,0-0.3,0.1c-0.6,0.7-1,1.2-1.3,1.5c0,0,0,0.1,0,0.1c0,0,0,0,0.1,0H94.7z M113.5,38.3c0-0.2-0.1-0.2-0.2-0.2h-3.5
			c-0.1,0-0.2,0.1-0.2,0.2c0.6,3.2,1.3,6.1,2.1,8.5c0,0,0,0,0.1,0c0,0,0.1,0,0.1,0C112.6,44.2,113.1,41.4,113.5,38.3z"/>
		<path d="M135.3,57.3c0.5-0.6,1.1-0.9,1.8-0.9c0.3,0,0.6,0.1,1,0.2l4.3,1.6c0.4,0.1,0.6,0.4,0.7,0.8c0.1,0.4,0,0.8-0.3,1.1
			c-2.6,2.9-5.6,5.5-9.1,7.9c-0.4,0.3-0.9,0.4-1.4,0.4c-0.5,0-0.9-0.2-1.3-0.5c-1.3-1.1-2.5-2-3.8-2.9c-0.3-0.2-0.4-0.5-0.4-0.8
			c0-0.4,0.2-0.7,0.5-0.9C130.4,61.5,133.1,59.5,135.3,57.3z M172.4,51.5c0.2,0.3,0.3,0.6,0.3,1c0,0.1,0,0.2,0,0.3
			c-0.1,0.5-0.3,0.8-0.7,1.1l-3.6,2.4c-0.4,0.3-0.8,0.3-1.3,0.2c-0.5-0.1-0.8-0.3-1.1-0.7c-0.4-0.5-0.8-1-1.2-1.6
			c-0.1-0.1-0.2-0.1-0.3-0.1c-2.3,0.1-5.9,0.3-10.9,0.5c-0.1,0-0.2,0.1-0.2,0.2v13c0,0.4-0.2,0.8-0.5,1.2c-0.3,0.3-0.7,0.5-1.2,0.5
			h-4.2c-0.5,0-0.9-0.2-1.2-0.5c-0.3-0.3-0.5-0.7-0.5-1.2V55c0-0.2-0.1-0.2-0.2-0.2c-5.1,0.2-10.5,0.4-16.1,0.5
			c-0.5,0-0.9-0.1-1.3-0.4c-0.4-0.3-0.6-0.7-0.6-1.2l-0.4-3.8c0-0.4,0.1-0.8,0.4-1.2c0.3-0.3,0.7-0.5,1.1-0.6c3.4,0,6.2-0.1,8.2-0.1
			c0.2,0,0.3,0,0.4-0.1c0.6-0.4,1.5-1,2.5-1.7c0.1-0.1,0.1-0.2,0-0.3c-2.2-2-4.8-3.9-7.8-5.9c-0.4-0.3-0.6-0.6-0.6-1
			c0-0.4,0.1-0.8,0.4-1.1l2.5-2.3c0.4-0.3,0.8-0.5,1.3-0.6c0.5-0.1,1,0,1.4,0.3c0.1,0.1,0.2,0.1,0.2,0.2c0.1,0.1,0.2,0,0.3,0
			c1-1,1.9-2,2.9-3.1c0,0,0-0.1,0-0.1c0,0-0.1-0.1-0.1-0.1c-3.2,0.1-6.1,0.2-8.6,0.2c-0.5,0-0.9-0.2-1.3-0.5
			c-0.4-0.3-0.6-0.7-0.7-1.2c-0.2-1-0.5-2-0.8-3.1c-0.1-0.4-0.1-0.7,0.1-1.1c0.2-0.3,0.5-0.5,1-0.6c13.4-0.3,24.2-1.2,32.5-2.7
			c0.2,0,0.4,0,0.6,0c0.9,0,1.6,0.4,2.2,1.1l2.8,3.4c0.3,0.3,0.3,0.7,0.2,1c-0.1,0.4-0.4,0.6-0.8,0.7c-4.9,0.9-10.4,1.7-16.7,2.2
			c-0.1,0-0.2,0.1-0.3,0.2c-2.3,2.6-4.8,5.1-7.4,7.5c-0.1,0.1-0.1,0.2,0,0.2c0.7,0.5,1.6,1.2,2.5,1.9c0.1,0.1,0.2,0.1,0.3,0
			c3.4-2.9,6.4-5.8,8.9-8.5c0.4-0.4,0.8-0.6,1.3-0.7c0.5-0.1,1,0,1.4,0.2l4,2.1c0.4,0.2,0.6,0.5,0.7,0.9c0.1,0.4-0.1,0.8-0.4,1.1
			c-4,3.9-8.5,7.7-13.3,11.3c0,0,0,0.1,0,0.1c0,0,0,0,0.1,0l10-0.2c0,0,0.1,0,0.1-0.1c0,0,0-0.1,0-0.1c-0.4-0.4-0.8-0.7-1.2-1.2
			c-0.3-0.3-0.5-0.7-0.4-1.1c0-0.4,0.2-0.8,0.6-1l3-1.9c0.4-0.3,0.9-0.4,1.4-0.4c0.5,0,1,0.2,1.3,0.6C167.3,46,170.3,49,172.4,51.5z
			 M156.2,60.8c-0.4-0.3-0.5-0.6-0.5-1c0-0.4,0.2-0.7,0.5-0.9l3.2-2.2c0.5-0.3,1-0.5,1.5-0.5c0.4,0,0.9,0.1,1.4,0.4
			c3.7,2.3,6.6,4.5,8.8,6.4c0.3,0.3,0.5,0.6,0.5,1c0,0.5-0.2,0.9-0.6,1.2l-3.8,2.7c-0.4,0.2-0.7,0.3-1.1,0.3c-0.1,0-0.1,0-0.2,0
			c-0.5,0-0.9-0.2-1.3-0.6C162.6,65.5,159.8,63.2,156.2,60.8z"/>
		<path d="M215,44.4c0.2,0,0.5,0,0.7,0c0.4,0,0.9,0.1,1.3,0.3l2.3,1.1c0.4,0.2,0.8,0.6,0.9,1c0.1,0.2,0.1,0.4,0.1,0.6
			c0,0.2,0,0.5-0.1,0.7c-1.5,3.2-3.4,6.1-5.6,8.5c-2.3,2.4-4.9,4.5-8,6.1c-3,1.6-6.2,2.9-9.6,4c-3.4,1-7.2,1.8-11.4,2.5
			c-0.1,0-0.2,0-0.3,0c-0.4,0-0.7-0.1-1-0.3c-0.4-0.3-0.7-0.6-0.9-1.1c-0.5-1.2-1-2.4-1.6-3.5c-0.2-0.3-0.2-0.7,0-1
			c0.2-0.4,0.4-0.6,0.8-0.6c6.5-0.7,11.8-1.9,16.1-3.6c0.1-0.1,0.1-0.1,0-0.2c-1.6-1.3-3.5-2.7-5.7-4.1c-0.1-0.1-0.3-0.1-0.4,0
			c-1.5,0.7-3,1.4-4.6,2c-0.5,0.2-0.9,0.2-1.4,0c-0.5-0.2-0.8-0.4-1.1-0.9c-0.7-1.1-1.5-2-2.3-2.9c-0.3-0.3-0.3-0.6-0.2-1
			c0.1-0.4,0.3-0.6,0.7-0.7c6.5-2.1,11.7-4.8,15.7-8.2c0,0,0,0,0,0c-5,2.7-11,4.7-18,6.2c-0.4,0.1-0.9,0-1.3-0.2
			c-0.4-0.2-0.8-0.6-1-1c-0.5-1.1-1.1-2.2-1.6-3.1c-0.1-0.2-0.1-0.4-0.1-0.6c0-0.2,0-0.3,0.1-0.5c0.1-0.4,0.4-0.6,0.8-0.6
			c4.9-0.8,9.4-2.1,13.5-3.7c0.1,0,0.1,0,0.1-0.1c0,0,0-0.1,0-0.1c-1.3-1.1-3-2.1-4.9-3.2c-0.1-0.1-0.3-0.1-0.4,0
			c-1.2,0.6-2.3,1.1-3.2,1.4c-0.5,0.2-1,0.2-1.4,0c-0.5-0.1-0.8-0.4-1.1-0.8c-0.8-1-1.6-1.9-2.5-2.7c-0.3-0.3-0.4-0.6-0.3-0.9
			c0.1-0.4,0.3-0.6,0.6-0.7c6.5-2.2,11.6-5.1,15.2-8.8c0.6-0.7,1.4-1,2.2-1c0.2,0,0.4,0,0.7,0.1l4.4,1c0.4,0.1,0.6,0.3,0.7,0.6
			c0.1,0.4,0,0.7-0.2,0.9c-0.3,0.3-0.4,0.4-0.5,0.6c0,0,0,0.1,0,0.1c0,0,0,0,0.1,0h7.9c0.1,0,0.2,0,0.3,0c0.2,0,0.4,0,0.6,0
			c0.4,0,0.9,0.1,1.3,0.3l2.3,1.3c0.4,0.2,0.7,0.6,0.8,1c0.1,0.5,0.1,0.9-0.2,1.3c-2.3,3.8-5.4,7.1-9.3,9.9c0,0,0,0.1,0,0.1
			c0,0,0,0.1,0.1,0.1l4.3,1c0.4,0.1,0.6,0.3,0.7,0.6c0.1,0.4,0,0.7-0.2,1c-0.5,0.6-1.1,1.2-1.6,1.7c0,0,0,0.1,0,0.1c0,0,0,0,0.1,0
			h6.6C214.8,44.4,214.9,44.4,215,44.4z M204,32C204,31.9,204,31.9,204,32c0-0.1,0-0.1,0-0.1H194c-0.1,0-0.3,0-0.4,0.1
			c-0.2,0.1-0.5,0.3-0.8,0.5c-0.1,0-0.1,0.1-0.1,0.1c0,0,0,0.1,0.1,0.1c2.3,1.3,4.1,2.4,5.4,3.4c0.1,0.1,0.3,0.1,0.4,0
			C200.7,34.8,202.5,33.4,204,32z M210.6,50.5c0.1-0.1,0.1-0.2-0.1-0.2h-9.7c-0.1,0-0.3,0-0.4,0.1c-0.3,0.2-0.7,0.4-1.1,0.7
			c0,0,0,0.1,0,0.1c0,0,0,0.1,0,0.1c2.7,1.6,4.7,3,5.9,4c0.1,0.1,0.2,0.1,0.3,0C207.6,54,209.3,52.3,210.6,50.5z"/>
		<path d="M269.4,52.4c0.4,0,0.8,0.2,1.2,0.5c0.3,0.3,0.5,0.7,0.5,1.2v3.5c0,0.5-0.2,0.9-0.5,1.2c-0.3,0.3-0.7,0.5-1.2,0.5h-14.4
			c-0.2,0-0.2,0.1-0.2,0.2v8.2c0,0.4-0.2,0.8-0.5,1.2c-0.3,0.3-0.7,0.5-1.2,0.5h-4c-0.5,0-0.9-0.2-1.2-0.5c-0.3-0.3-0.5-0.7-0.5-1.2
			v-8.2c0-0.2-0.1-0.2-0.2-0.2H227c-0.5,0-0.8-0.2-1.2-0.5c-0.3-0.3-0.5-0.7-0.5-1.2v-3.5c0-0.5,0.2-0.9,0.5-1.2
			c0.3-0.3,0.7-0.5,1.2-0.5h5.7c0.2,0,0.2-0.1,0.2-0.2V41.5c0,0,0-0.1-0.1-0.1c0,0-0.1,0-0.1,0c-0.2,0.2-0.4,0.4-0.5,0.5
			c-0.3,0.4-0.7,0.6-1.2,0.6c-0.5,0-0.9-0.1-1.3-0.5c-1.2-0.9-2.3-1.8-3.5-2.6c-0.4-0.3-0.5-0.6-0.6-1c0-0.4,0.1-0.8,0.4-1.1
			c3.4-3.5,6.1-7.9,8.1-13.4c0.2-0.4,0.4-0.8,0.9-1c0.3-0.2,0.6-0.2,0.9-0.2c0.2,0,0.3,0,0.5,0l4,1.1c0.4,0.1,0.8,0.3,1,0.7
			c0.2,0.4,0.2,0.8,0.1,1.3c-0.2,0.6-0.4,1.1-0.7,1.6c0,0.1,0,0.2,0.1,0.2h25.2c0.5,0,0.9,0.2,1.2,0.5c0.3,0.3,0.5,0.7,0.5,1.2v3.5
			c0,0.5-0.2,0.9-0.5,1.2c-0.3,0.3-0.7,0.5-1.2,0.5h-11.5c-0.2,0-0.2,0.1-0.2,0.2v4.6c0,0.2,0.1,0.2,0.2,0.2h10.4
			c0.4,0,0.8,0.2,1.2,0.5c0.3,0.3,0.5,0.7,0.5,1.2v3.3c0,0.5-0.2,0.8-0.5,1.2c-0.3,0.3-0.7,0.5-1.2,0.5h-10.4
			c-0.2,0-0.2,0.1-0.2,0.2v5.7c0,0.1,0.1,0.2,0.2,0.2H269.4z M247.3,34.8c0-0.2-0.1-0.2-0.2-0.2h-9.3c-0.1,0-0.2,0.1-0.3,0.2
			c-0.9,1.5-1.9,3.1-3.1,4.7c-0.1,0.1-0.1,0.2,0.1,0.2h12.6c0.2,0,0.2-0.1,0.2-0.2V34.8z M240.2,52.2c0,0.1,0.1,0.2,0.2,0.2h6.7
			c0.2,0,0.2-0.1,0.2-0.2v-5.7c0-0.2-0.1-0.2-0.2-0.2h-6.7c-0.2,0-0.2,0.1-0.2,0.2V52.2z"/>
		<path d="M293.7,58.7c0.1,0.5,0,0.9-0.2,1.3c-0.3,0.4-0.6,0.7-1.1,0.9l-2,0.7c-0.4,0.1-0.8,0.1-1.2-0.2c-0.4-0.2-0.6-0.6-0.7-1
			c-0.3-2-0.8-4-1.5-5.9h0v13.2c0,0.4-0.2,0.8-0.5,1.2c-0.3,0.3-0.7,0.5-1.2,0.5h-2.7c-0.5,0-0.8-0.2-1.2-0.5
			c-0.3-0.3-0.5-0.7-0.5-1.2V54.6h0c-0.4,3.7-1.1,6.9-2,9.6c-0.1,0.4-0.4,0.7-0.8,0.9c-0.4,0.2-0.8,0.1-1.2-0.1
			c-0.6-0.3-1.3-0.6-2.1-1c-0.4-0.2-0.7-0.5-0.9-0.9c-0.1-0.3-0.1-0.5-0.1-0.8c0-0.2,0-0.4,0.1-0.6c0.6-2.1,1.1-4.8,1.4-8.1
			c0.1-0.4,0.3-0.8,0.6-1.1c0.4-0.3,0.8-0.4,1.2-0.3l3.6,0.6c0.2,0,0.2-0.1,0.2-0.2v-2.8c0-0.1-0.1-0.2-0.2-0.2l-4.5,0.4
			c-0.5,0-0.9-0.1-1.3-0.4c-0.4-0.3-0.6-0.7-0.6-1.1l-0.3-2.7c-0.1-0.4,0-0.9,0.3-1.2c0.3-0.4,0.7-0.5,1.2-0.6l1.8-0.1
			c0.1,0,0.2-0.1,0.3-0.2c0.1-0.1,0.3-0.4,0.7-0.9c0.3-0.5,0.6-0.8,0.7-1.1c0.1-0.1,0.1-0.2,0-0.3c-1-1.6-2.3-3.3-4.1-5.3
			c-0.3-0.4-0.5-0.8-0.5-1.3c0-0.5,0.1-1,0.4-1.4l1.8-2.6c0.2-0.2,0.4-0.4,0.7-0.4c0.3,0,0.5,0.1,0.7,0.3c0.1,0,0.2,0,0.2,0
			c1-2.2,1.8-4.3,2.6-6.5c0.2-0.4,0.4-0.8,0.9-1c0.2-0.1,0.5-0.2,0.7-0.2c0.2,0,0.4,0,0.6,0.1l2.9,1c0.4,0.2,0.7,0.4,0.9,0.9
			c0.2,0.4,0.1,0.8,0,1.2c-2,3.8-3.5,6.6-4.7,8.4c-0.1,0.1-0.1,0.2,0,0.3c0.2,0.2,0.4,0.5,0.7,0.8c0,0.1,0.1,0.1,0.1,0.1
			c0,0,0.1,0,0.1-0.1c1.2-2,2.3-3.9,3.2-5.7c0.2-0.4,0.6-0.7,1-0.9c0.4-0.2,0.9-0.1,1.3,0l2.6,1.2c0.4,0.2,0.7,0.5,0.8,0.9
			c0.1,0.4,0.1,0.8-0.2,1.2c-1.8,2.7-3.5,5.2-5.3,7.5c0,0,0,0.1,0,0.1c0,0,0,0,0.1,0l2.2-0.9c0.4-0.2,0.9-0.2,1.3,0
			c0.4,0.2,0.8,0.5,1,0.9c1.4,2.7,2.4,5.2,3,7.5c0.1,0.5,0.1,0.9-0.1,1.4c-0.2,0.4-0.6,0.8-1,1l-2.2,1c-0.4,0.2-0.8,0.2-1.2,0
			c-0.4-0.2-0.6-0.5-0.7-0.9c0-0.1-0.1-0.2-0.1-0.4c0-0.2-0.1-0.3-0.1-0.3c0-0.2-0.1-0.2-0.3-0.2l-1.1,0.1c-0.1,0-0.2,0.1-0.2,0.2
			V53c0,0.1,0.1,0.2,0.2,0.1l2.7-0.9c0.5-0.1,0.9-0.1,1.4,0.1c0.4,0.2,0.7,0.5,0.9,1C292.8,55.2,293.3,57,293.7,58.7z M283.9,43.3
			C283.8,43.4,283.8,43.4,283.9,43.3c0,0.1,0.1,0.1,0.1,0.1l2.3-0.1c0.2,0,0.2-0.1,0.1-0.2c-0.5-1.1-0.8-1.7-0.8-1.7
			c0,0-0.1-0.1-0.1-0.1c0,0-0.1,0-0.1,0C284.7,42.2,284.2,42.9,283.9,43.3z M309.9,61.6c0,0.2,0.1,0.2,0.2,0.2h9.1
			c0.5,0,0.9,0.2,1.2,0.5c0.3,0.3,0.5,0.7,0.5,1.2v2.8c0,0.5-0.2,0.9-0.5,1.2c-0.3,0.3-0.7,0.5-1.2,0.5h-25.7
			c-0.5,0-0.9-0.2-1.2-0.5c-0.3-0.3-0.5-0.7-0.5-1.2v-2.8c0-0.5,0.2-0.9,0.5-1.2c0.3-0.3,0.7-0.5,1.2-0.5h8.8c0.2,0,0.2-0.1,0.2-0.2
			v-5c0-0.1-0.1-0.2-0.2-0.2h-6c-0.5,0-0.9-0.2-1.2-0.5c-0.3-0.3-0.5-0.7-0.5-1.2v-2.8c0-0.4,0.2-0.8,0.5-1.2
			c0.3-0.3,0.7-0.5,1.2-0.5H317c0.5,0,0.9,0.2,1.2,0.5c0.3,0.3,0.5,0.7,0.5,1.2v2.8c0,0.5-0.2,0.9-0.5,1.2c-0.3,0.3-0.7,0.5-1.2,0.5
			h-6.9c-0.2,0-0.2,0.1-0.2,0.2V61.6z M296.1,33c0.2-0.4,0.6-0.8,1-1c0.4-0.2,0.9-0.3,1.4-0.1l2.6,0.6c0.4,0.1,0.7,0.3,0.9,0.7
			c0.2,0.4,0.2,0.8-0.1,1.1c-1.1,1.9-2.3,3.9-3.7,5.9c-0.1,0.1-0.1,0.3,0,0.4c1.5,2,2.7,3.9,3.8,5.8c0.2,0.4,0.3,0.8,0.1,1.3
			c-0.2,0.4-0.5,0.7-0.9,0.9l-2.5,1c-0.5,0.2-0.9,0.1-1.3,0c-0.4-0.2-0.7-0.5-1-0.9c-0.9-2-2.2-4.2-3.8-6.6c-0.3-0.5-0.5-1-0.5-1.4
			c0-0.4,0.1-0.9,0.4-1.4C294.1,36.8,295.2,34.8,296.1,33z M318.3,24.9c0.5,0,0.9,0.2,1.2,0.5c0.3,0.3,0.5,0.7,0.5,1.2v2.8
			c0,0.5-0.2,0.9-0.5,1.2c-0.3,0.3-0.7,0.5-1.2,0.5h-23.9c-0.5,0-0.9-0.2-1.2-0.5c-0.3-0.3-0.5-0.7-0.5-1.2v-2.8
			c0-0.5,0.2-0.9,0.5-1.2c0.3-0.3,0.7-0.5,1.2-0.5H318.3z M310.6,46.2c0.3,0.4,0.3,0.8,0.1,1.2c-0.2,0.4-0.5,0.7-0.9,0.9l-2.3,1
			c-0.5,0.2-0.9,0.2-1.3,0c-0.4-0.2-0.8-0.5-1-0.9c-1.1-2.1-2.6-4.4-4.3-6.7c-0.3-0.4-0.5-0.8-0.5-1.3c0-0.5,0.1-1,0.4-1.4
			c1.4-2.1,2.6-4.1,3.6-6c0.2-0.4,0.6-0.8,1-1c0.4-0.2,0.9-0.3,1.4-0.1l2.6,0.6c0.4,0.1,0.7,0.3,0.9,0.7c0.2,0.4,0.1,0.8-0.1,1.1
			c-1.1,1.8-2.4,3.8-3.8,5.8c-0.1,0.1-0.1,0.3,0,0.4C308.1,42.5,309.5,44.4,310.6,46.2z M319.5,46.2c0.3,0.4,0.3,0.8,0.2,1.2
			c-0.1,0.4-0.4,0.7-0.8,0.9l-2.4,1.1c-0.4,0.2-0.9,0.2-1.3,0c-0.4-0.2-0.8-0.4-1-0.9c-1.2-2.1-2.8-4.3-4.7-6.8
			c-0.3-0.4-0.5-0.8-0.5-1.3c0-0.5,0.1-1,0.4-1.4c1.4-2.2,2.7-4.2,3.7-6c0.3-0.4,0.6-0.7,1.1-1c0.4-0.2,0.9-0.3,1.4-0.1l2.6,0.6
			c0.4,0.1,0.7,0.3,0.9,0.7c0.2,0.4,0.1,0.8-0.1,1.1c-0.9,1.4-2.2,3.4-3.9,5.8c-0.1,0.1-0.1,0.3,0,0.4
			C316.7,42.4,318.2,44.3,319.5,46.2z"/>
		<path d="M327.1,65.2c-0.2,0.4-0.5,0.7-1,0.9c-0.5,0.1-0.9,0.1-1.3-0.1l-0.4-0.2c-0.4-0.2-0.7-0.5-0.8-1c-0.1-0.2-0.1-0.4-0.1-0.6
			c0-0.2,0-0.5,0.1-0.7c0.7-1.9,1.2-4.5,1.4-7.8c0-0.4,0.2-0.8,0.6-1.1c0.4-0.3,0.7-0.4,1.2-0.3l0.3,0.1c0.5,0.1,0.9,0.3,1.2,0.7
			c0.3,0.4,0.4,0.8,0.4,1.3C328.4,60.2,327.9,63.2,327.1,65.2z M359.9,55.8c0.1-0.5,0.3-0.9,0.6-1.2c0.4-0.3,0.8-0.4,1.3-0.4
			l2.5,0.1c0.4,0,0.8,0.2,1.2,0.6c0.3,0.4,0.4,0.8,0.4,1.2c-0.2,1.3-0.4,2.4-0.6,3.4c0,0.2,0,0.3,0.1,0.4c1.7,1.8,3.1,3.4,4.1,4.8
			c0.2,0.3,0.3,0.6,0.3,1c0,0.1,0,0.2,0,0.3c-0.1,0.5-0.3,0.9-0.7,1.2l-1.7,1.3c-0.4,0.3-0.8,0.3-1.3,0.3c-0.5-0.1-0.8-0.3-1.1-0.7
			c-0.5-0.7-1.1-1.6-1.9-2.5c-0.1-0.1-0.2-0.1-0.3,0c-0.7,1.2-1.6,2.2-2.6,3.1c-0.4,0.3-0.8,0.5-1.3,0.4c-0.5,0-0.9-0.3-1.2-0.6
			c-0.7-0.8-1.5-1.5-2.2-2.1c-0.1-0.1-0.2-0.1-0.3,0l-0.8,0.9c-0.3,0.3-0.6,0.4-1.1,0.4c-0.4,0-0.8-0.2-1-0.6
			c-0.4-0.6-0.9-1.2-1.4-1.8c-0.1-0.1-0.2-0.1-0.2,0c-0.8,1.3-1.7,2.5-2.8,3.5c-0.4,0.3-0.8,0.4-1.3,0.4c-0.5-0.1-0.9-0.3-1.2-0.6
			c-0.9-1-1.8-1.8-2.6-2.5c-0.1-0.1-0.2-0.1-0.2,0.1c-0.1,0.6-0.3,1.1-0.6,1.5c-0.7,1-1.7,1.7-3,1.9c-0.6,0.1-1.4,0.2-2.5,0.2
			c0,0-0.1,0-0.1,0c-0.4,0-0.8-0.2-1.2-0.5c-0.4-0.3-0.6-0.7-0.7-1.2c-0.1-0.7-0.3-1.3-0.5-2c-0.1-0.4-0.1-0.7,0.1-1
			c0.2-0.3,0.5-0.4,0.9-0.4c0.2,0,0.5,0,0.8,0c0.5,0,0.9-0.2,1.2-0.6c0.2-0.4,0.4-1.5,0.5-3.4c0,0,0-0.1,0-0.1c0,0-0.1,0-0.1,0
			c-0.3,0.1-0.6,0.1-0.8-0.1c-0.2-0.2-0.4-0.4-0.4-0.7c-0.3-1.3-0.6-2.6-1.1-4c-0.1-0.3-0.1-0.6,0.1-1c0.2-0.3,0.4-0.5,0.7-0.6
			c0.4-0.1,0.7-0.1,1,0.1c0.3,0.2,0.6,0.4,0.7,0.7c0,0,0,0.1,0,0.1c0,0,0.1,0,0.1,0l0-2.6c0-0.1-0.1-0.2-0.2-0.2H327
			c-0.5,0-0.9-0.2-1.2-0.5c-0.3-0.3-0.5-0.7-0.5-1.2V26c0-0.5,0.2-0.9,0.5-1.2c0.3-0.3,0.7-0.5,1.2-0.5h14.3c0.4,0,0.8,0.2,1.2,0.5
			c0.3,0.3,0.5,0.7,0.5,1.2V28c0,0.5-0.2,0.9-0.5,1.2c-0.3,0.3-0.7,0.5-1.2,0.5h-2.7c-0.1,0-0.2,0.1-0.2,0.2v1.8
			c0,0.1,0.1,0.2,0.2,0.2h1.8c0.5,0,0.9,0.2,1.2,0.5c0.3,0.3,0.5,0.7,0.5,1.2v1.7c0,0.5-0.2,0.9-0.5,1.2c-0.3,0.3-0.7,0.5-1.2,0.5
			h-1.8c-0.1,0-0.2,0.1-0.2,0.2v1.7c0,0.2,0.1,0.2,0.2,0.2h2c0.5,0,0.9,0.2,1.2,0.5c0.3,0.3,0.5,0.7,0.5,1.2v1.8
			c0,0.5-0.2,0.8-0.5,1.2c-0.3,0.3-0.7,0.5-1.2,0.5h-2c-0.1,0-0.2,0.1-0.2,0.2v1.8c0,0.1,0.1,0.2,0.2,0.2h3.3c0.5,0,0.9,0.2,1.2,0.5
			c0.3,0.3,0.5,0.7,0.5,1.2c0,0.2,0,0.3,0,0.4c-0.1,8.7-0.4,14.1-0.7,16.2c0,0,0,0.1,0,0.1c0,0,0.1,0,0.1,0c2.6-1.9,4.2-5,4.7-9.4
			c0-0.5,0.2-0.9,0.6-1.2c0.4-0.3,0.8-0.4,1.3-0.4l2.4,0.1c0.4,0,0.8,0.2,1.1,0.6c0.3,0.4,0.4,0.8,0.4,1.2c-0.1,1-0.3,2-0.5,2.9
			c0,0.1,0,0.3,0.1,0.4c1.8,2,3,3.4,3.6,4.2c0.1,0.1,0.2,0.1,0.3,0C358.5,61.8,359.5,59.2,359.9,55.8z M329,56.3
			c0-0.4,0.1-0.7,0.3-1.1c0.3-0.3,0.6-0.5,1-0.5c0.4,0,0.7,0.1,1.1,0.3c0.3,0.2,0.5,0.6,0.5,1c0.1,1.5,0.2,3.1,0.2,4.8
			c0,0.5,0,0.9,0,1.4c0,0.4-0.2,0.8-0.5,1.1c-0.3,0.3-0.7,0.5-1.1,0.6c-0.4,0.1-0.7,0-1-0.3c-0.3-0.3-0.4-0.6-0.4-1
			c0-0.8,0-1.5,0-2.3C329.1,59,329.1,57.7,329,56.3z M333.1,30c0-0.1-0.1-0.2-0.2-0.2h-1.8c-0.2,0-0.2,0.1-0.2,0.2v1.8
			c0,0.1,0.1,0.2,0.2,0.2h1.8c0.1,0,0.2-0.1,0.2-0.2V30z M332.9,39.3c0.1,0,0.2-0.1,0.2-0.2v-1.7c0-0.1-0.1-0.2-0.2-0.2h-1.8
			c-0.2,0-0.2,0.1-0.2,0.2v1.7c0,0.2,0.1,0.2,0.2,0.2H332.9z M331.1,44.5c-0.2,0-0.2,0.1-0.2,0.2v1.8c0,0.1,0.1,0.2,0.2,0.2h1.8
			c0.1,0,0.2-0.1,0.2-0.2v-1.8c0-0.2-0.1-0.2-0.2-0.2H331.1z M332.3,56c-0.1-0.4,0-0.7,0.2-1c0.2-0.3,0.5-0.5,0.9-0.6
			c0.4,0,0.7,0.1,1.1,0.3c0.3,0.2,0.5,0.5,0.6,0.9c0.4,1.8,0.7,3.6,0.8,5.2c0,0.4-0.1,0.8-0.3,1.1c-0.3,0.3-0.6,0.5-1,0.6
			c-0.4,0.1-0.7,0-1-0.3c-0.3-0.2-0.4-0.6-0.5-0.9C332.8,59.6,332.6,57.9,332.3,56z M352,39.4c-0.5,0-0.9-0.2-1.2-0.5
			c-0.3-0.3-0.5-0.7-0.5-1.2v-1.4c0-0.1,0-0.1-0.1-0.1c0,0-0.1,0-0.1,0c-1,0.9-2,1.6-3,2.3c-0.4,0.3-0.8,0.3-1.2,0.2
			c-0.4-0.1-0.7-0.4-0.9-0.8c-0.5-1.1-1-2.1-1.6-3c-0.2-0.4-0.3-0.8-0.2-1.2c0.1-0.4,0.4-0.8,0.7-1c1.6-1,3.1-2.2,4.6-3.8
			c1.5-1.5,2.7-3.1,3.7-4.7c0.6-1,1.5-1.4,2.6-1.4h2.9c1.1,0,2,0.5,2.6,1.4c2.7,3.7,5.7,6.5,8.9,8.2c0.4,0.2,0.7,0.5,0.8,0.9
			c0.1,0.2,0.1,0.3,0.1,0.4c0,0.3-0.1,0.5-0.2,0.8c-0.6,1-1.3,2.1-1.9,3.4c-0.2,0.4-0.5,0.7-0.9,0.8c-0.4,0.1-0.8,0.1-1.2-0.2
			c-0.9-0.6-1.8-1.2-2.7-2c-0.1-0.1-0.1-0.1-0.1,0.1v1.2c0,0.5-0.2,0.9-0.5,1.2c-0.3,0.3-0.7,0.5-1.2,0.5H352z M346.6,53.6
			c-0.5,0-0.9-0.2-1.2-0.5c-0.3-0.3-0.5-0.7-0.5-1.2v-9.1c0-0.5,0.2-0.9,0.5-1.2c0.3-0.3,0.7-0.5,1.2-0.5h7.7c0.5,0,0.9,0.2,1.2,0.5
			c0.3,0.3,0.5,0.7,0.5,1.2v9.1c0,0.5-0.2,0.9-0.5,1.2c-0.3,0.3-0.7,0.5-1.2,0.5H346.6z M349.6,45.4c-0.2,0-0.2,0.1-0.2,0.2v3.3
			c0,0.1,0.1,0.2,0.2,0.2h1.4c0.1,0,0.2-0.1,0.2-0.2v-3.3c0-0.1-0.1-0.2-0.2-0.2H349.6z M352.4,34.1
			C352.4,34.1,352.3,34.2,352.4,34.1c0,0.1,0,0.1,0,0.1h8.1c0.1,0,0.1,0,0.1,0c0,0,0-0.1,0-0.1c-1.6-1.7-3-3.4-4-5.1
			c0,0-0.1,0-0.1,0c0,0-0.1,0-0.1,0C355.3,30.7,354,32.4,352.4,34.1z M359,53.6c-0.5,0-0.9-0.2-1.2-0.5c-0.3-0.3-0.5-0.7-0.5-1.2
			v-9.1c0-0.5,0.2-0.9,0.5-1.2c0.3-0.3,0.7-0.5,1.2-0.5h8c0.5,0,0.9,0.2,1.2,0.5c0.3,0.3,0.5,0.7,0.5,1.2v9.1c0,0.5-0.2,0.9-0.5,1.2
			c-0.3,0.3-0.7,0.5-1.2,0.5H359z M362.1,45.4c-0.2,0-0.2,0.1-0.2,0.2v3.3c0,0.1,0.1,0.2,0.2,0.2h1.7c0.1,0,0.2-0.1,0.2-0.2v-3.3
			c0-0.1-0.1-0.2-0.2-0.2H362.1z"/>
		<path d="M411.6,58.8c-0.1-0.1-0.3-0.1-0.4-0.1l-3.9,0.1c0,0,0,0,0,0.1c3.9,2,7,3.7,9.5,5.3c0.4,0.2,0.5,0.5,0.5,1
			c0,0.4-0.2,0.8-0.5,1l-2.8,2c-0.4,0.3-0.9,0.4-1.4,0.4c-0.5,0-1-0.2-1.4-0.5c-2.2-1.6-4.8-3.3-8.1-5.1c-0.4-0.2-0.5-0.5-0.6-0.9
			c0-0.4,0.1-0.7,0.5-0.9l3.4-2.4c0,0,0-0.1,0-0.1c0,0,0,0,0,0l-6.6,0.2c-0.1,0-0.2,0.1-0.2,0.2v8.5c0,0.4-0.2,0.8-0.5,1.2
			c-0.3,0.3-0.7,0.5-1.2,0.5h-3.7c-0.5,0-0.9-0.2-1.2-0.5c-0.3-0.3-0.5-0.7-0.5-1.2v-8.3c0-0.2-0.1-0.2-0.2-0.2l-7.5,0.1
			c0,0,0,0,0,0c0,0,0,0,0,0l4.3,1.7c0.4,0.1,0.6,0.4,0.7,0.8c0.1,0.4,0,0.7-0.3,1c-2.5,2.1-5.6,4.1-9.2,5.8c-0.5,0.2-1,0.2-1.5,0.1
			c-0.5-0.1-0.9-0.3-1.3-0.7c-1-0.9-1.8-1.7-2.6-2.5c-0.2-0.2-0.3-0.4-0.3-0.7c0-0.5,0.2-0.8,0.6-0.9c3.8-1.3,6.7-2.8,8.9-4.6
			c0,0,0,0,0-0.1c0,0,0-0.1-0.1-0.1c-2.8,0.1-5.3,0.1-7.5,0.1c-0.5,0-0.9-0.2-1.2-0.5c-0.3-0.3-0.5-0.7-0.6-1.2l0-2.2
			c0-0.4,0.1-0.8,0.4-1.2c0.3-0.3,0.7-0.5,1.2-0.5c2.9,0,5.3,0,7.4,0c0.1,0,0.3,0,0.4-0.1c0.6-0.3,1.2-0.6,1.6-0.8
			c0,0,0.1,0,0.1-0.1c0,0,0-0.1-0.1-0.1c-1.9-1.4-4-2.9-6.5-4.4c-0.4-0.2-0.5-0.5-0.6-0.9c0-0.4,0.1-0.7,0.4-1l2.3-1.7
			c0.5-0.4,1-0.6,1.6-0.6c0.4,0,0.9,0.1,1.3,0.3c0.3,0.2,0.6,0.3,0.9,0.5c0.1,0.1,0.2,0.1,0.3,0c0.6-0.5,1.6-1.2,2.8-2.3
			c0,0,0-0.1,0-0.1c0,0,0,0-0.1,0h-8.7c-0.5,0-0.8-0.2-1.2-0.5c-0.3-0.3-0.5-0.7-0.5-1.2V25.7c0-0.5,0.2-0.9,0.5-1.2
			c0.3-0.3,0.7-0.5,1.2-0.5h33.9c0.4,0,0.8,0.2,1.2,0.5c0.3,0.3,0.5,0.7,0.5,1.2v15.4c0,0.5-0.2,0.9-0.5,1.2
			c-0.3,0.3-0.7,0.5-1.2,0.5h-16.3v0c0.1,0.1,0.2,0.2,0.2,0.3c0,0.1,0,0.2-0.2,0.3c-2.2,1.7-4.5,3.2-6.8,4.6c-0.1,0-0.1,0-0.1,0.1
			c0,0.1,0,0.1,0.1,0.1c0.7,0.5,1.3,0.9,1.6,1.2c0.1,0.1,0.3,0.1,0.4,0c3.3-1.9,6.2-3.8,8.6-5.6c0.5-0.4,1-0.6,1.5-0.6
			c0.4,0,0.9,0.1,1.3,0.4l3.1,1.7c0.3,0.2,0.5,0.5,0.5,0.9c0,0.4-0.1,0.7-0.5,0.9c-3.8,2.4-7.6,4.6-11.5,6.6c0,0,0,0,0,0
			c0,0,0,0,0,0l9.9-0.1c0,0,0.1,0,0.1,0c0,0,0-0.1,0-0.1c-0.3-0.2-0.6-0.5-1.1-0.8c-0.4-0.2-0.5-0.5-0.5-0.9c0-0.4,0.2-0.7,0.6-0.9
			l2.2-1.3c0.5-0.3,1-0.5,1.4-0.5c0.5,0,1,0.2,1.5,0.5c3.4,2.3,6.2,4.4,8.3,6.4c0.3,0.3,0.4,0.6,0.4,0.9c0,0.5-0.2,0.9-0.7,1.2
			l-2.7,1.7c-0.4,0.3-0.9,0.4-1.3,0.3c-0.5-0.1-0.9-0.3-1.3-0.6C411.9,59.2,411.8,59,411.6,58.8z M384.5,29.3
			c-0.2,0-0.2,0.1-0.2,0.2v1.2c0,0.2,0.1,0.2,0.2,0.2h7.7c0.1,0,0.2-0.1,0.2-0.2v-1.2c0-0.1-0.1-0.2-0.2-0.2H384.5z M384.5,35.8
			c-0.2,0-0.2,0.1-0.2,0.2v1.2c0,0.2,0.1,0.2,0.2,0.2h7.7c0.1,0,0.2-0.1,0.2-0.2V36c0-0.1-0.1-0.2-0.2-0.2H384.5z M407.6,30.9
			c0.2,0,0.2-0.1,0.2-0.2v-1.2c0-0.1-0.1-0.2-0.2-0.2h-8.1c-0.1,0-0.2,0.1-0.2,0.2v1.2c0,0.2,0.1,0.2,0.2,0.2H407.6z M407.6,37.5
			c0.2,0,0.2-0.1,0.2-0.2V36c0-0.1-0.1-0.2-0.2-0.2h-8.1c-0.1,0-0.2,0.1-0.2,0.2v1.2c0,0.2,0.1,0.2,0.2,0.2H407.6z"/>
		<path d="M440.3,48c0.4,0.4,0.5,0.8,0.6,1.3c0,0.5-0.1,1-0.4,1.3l-2,2.8c-0.2,0.3-0.5,0.5-0.9,0.4c-0.4,0-0.7-0.2-0.8-0.6
			c-0.2-0.4-0.5-0.9-0.8-1.4c0,0,0,0,0,0c0,0,0,0,0,0v15.8c0,0.4-0.2,0.8-0.5,1.2c-0.3,0.3-0.7,0.5-1.2,0.5h-3.6
			c-0.5,0-0.8-0.2-1.2-0.5c-0.3-0.3-0.5-0.7-0.5-1.2V54.9c0,0,0-0.1,0-0.1c0,0,0,0,0,0c-1,2.2-2,4.1-3,5.7c-0.2,0.3-0.5,0.4-0.8,0.4
			c-0.4,0-0.6-0.2-0.7-0.6c-0.5-1.2-1.1-2.4-1.8-3.8c-0.2-0.4-0.3-0.8-0.3-1.3c0-0.5,0.2-1.1,0.5-1.6c2.2-3,4.1-6.6,5.7-10.9
			c0.1-0.1,0-0.2-0.1-0.2h-3.7c-0.5,0-0.8-0.2-1.2-0.5c-0.3-0.3-0.5-0.7-0.5-1.2v-3.3c0-0.4,0.2-0.8,0.5-1.2
			c0.3-0.3,0.7-0.5,1.2-0.5h4.2c0.2,0,0.2-0.1,0.2-0.2v-4c0-0.1-0.1-0.2-0.2-0.2c-1.1,0.2-2.1,0.3-3.1,0.4c-0.5,0.1-0.9,0-1.3-0.3
			c-0.4-0.3-0.7-0.7-0.8-1.1c-0.2-0.7-0.5-1.5-0.8-2.3c-0.2-0.4-0.1-0.8,0.1-1.2c0.2-0.4,0.5-0.6,0.9-0.7c4.4-0.7,8.2-1.6,11.5-2.8
			c0.5-0.2,1-0.2,1.5,0c0.5,0.1,0.9,0.4,1.2,0.8l2.5,2.9c0.3,0.3,0.3,0.7,0.2,1.1c-0.1,0.4-0.4,0.7-0.8,0.8c-1.2,0.4-2.4,0.7-3.8,1
			c-0.2,0-0.2,0.1-0.2,0.3v5.3c0,0.2,0.1,0.2,0.2,0.2h3.8c0.1,0,0.1,0,0.1-0.1c0-0.2,0.1-0.4,0.2-0.5c0.1-0.1,0.3-0.2,0.6-0.2h9.7
			c0.2,0,0.2-0.1,0.2-0.2v-0.7c0-0.2-0.1-0.2-0.2-0.2H444c-0.5,0-0.9-0.2-1.2-0.5c-0.3-0.3-0.5-0.7-0.5-1.2v-0.6
			c0-0.5,0.2-0.9,0.5-1.2c0.3-0.3,0.7-0.5,1.2-0.5h6.5c0.2,0,0.2-0.1,0.2-0.2V29c0-0.1-0.1-0.2-0.2-0.2h-7.2c-0.5,0-0.9-0.2-1.2-0.5
			c-0.3-0.3-0.5-0.7-0.5-1.2v-0.8c0-0.5,0.2-0.9,0.5-1.2c0.3-0.3,0.7-0.5,1.2-0.5h7.2c0.2,0,0.2-0.1,0.2-0.2v-0.1
			c0-0.5,0.2-0.9,0.5-1.2c0.3-0.3,0.7-0.5,1.2-0.5h3.8c0.4,0,0.8,0.2,1.2,0.5c0.3,0.3,0.5,0.7,0.5,1.2v0.1c0,0.1,0.1,0.2,0.2,0.2
			h7.8c0.5,0,0.9,0.2,1.2,0.5c0.3,0.3,0.5,0.7,0.5,1.2v0.8c0,0.5-0.2,0.9-0.5,1.2c-0.3,0.3-0.7,0.5-1.2,0.5H458
			c-0.2,0-0.2,0.1-0.2,0.2v0.8c0,0.1,0.1,0.2,0.2,0.2h6.7c0.4,0,0.8,0.2,1.2,0.5c0.3,0.3,0.5,0.7,0.5,1.2v0.6c0,0.4-0.2,0.8-0.5,1.2
			c-0.3,0.3-0.7,0.5-1.2,0.5H458c-0.2,0-0.2,0.1-0.2,0.2v0.7c0,0.2,0.1,0.2,0.2,0.2h8.7c0.4,0,0.8,0.2,1.2,0.5
			c0.3,0.3,0.5,0.7,0.5,1.2v0.9c0,0.5-0.2,0.9-0.5,1.2c-0.3,0.3-0.7,0.5-1.2,0.5h-26.2c-0.1,0-0.2,0.1-0.2,0.2v1.3
			c0,0.4-0.2,0.8-0.5,1.2c-0.3,0.3-0.7,0.5-1.2,0.5H436c-0.2,0-0.2,0.1-0.2,0.2v0.3c0,0.2,0.1,0.3,0.2,0.4
			C437.1,44.6,438.5,46.1,440.3,48z M466.2,59.7c0,0.5-0.2,0.9-0.5,1.2c-0.3,0.3-0.7,0.5-1.2,0.5H462c0,0.1,0,0.1,0,0.1
			c2.3,1.4,4.2,2.6,5.9,3.7c0.3,0.2,0.5,0.5,0.5,0.8c0,0.4-0.2,0.7-0.6,0.9l-3.2,1.7c-0.4,0.2-0.8,0.3-1.3,0.3
			c-0.5,0-1.1-0.2-1.6-0.6c-1.7-1.3-3.4-2.6-5.2-3.8c-0.3-0.2-0.5-0.5-0.5-1c0-0.4,0.2-0.7,0.5-1l1.6-1.2c0,0,0-0.1,0-0.1
			c0,0,0,0-0.1,0h-7.5c0,0-0.1,0-0.1,0c0,0,0,0.1,0,0.1l1.7,1.2c0.4,0.3,0.5,0.6,0.5,1c0,0.4-0.2,0.7-0.5,1c-2.6,1.7-5.6,3.2-9,4.5
			c-0.3,0.1-0.6,0.1-0.9,0.1c-0.7,0-1.3-0.3-1.8-0.9c-0.6-0.6-1.3-1.3-2-2c-0.2-0.2-0.3-0.4-0.3-0.7c0-0.1,0-0.1,0-0.2
			c0.1-0.4,0.3-0.6,0.7-0.7c2.4-0.9,4.7-1.9,7-3.2c0,0,0-0.1,0-0.1c0,0,0,0,0,0h-1.4c-0.4,0-0.8-0.2-1.2-0.5
			c-0.3-0.3-0.5-0.7-0.5-1.2V42.3c0-0.5,0.2-0.9,0.5-1.2c0.3-0.3,0.7-0.5,1.2-0.5h19.9c0.4,0,0.8,0.2,1.2,0.5
			c0.3,0.3,0.5,0.7,0.5,1.2V59.7z M449.5,44.8c-0.1,0-0.2,0.1-0.2,0.2v1c0,0.1,0.1,0.2,0.2,0.2h9.7c0.2,0,0.2-0.1,0.2-0.2v-1
			c0-0.2-0.1-0.2-0.2-0.2H449.5z M449.5,50.2c-0.1,0-0.2,0.1-0.2,0.2v1.1c0,0.2,0.1,0.2,0.2,0.2h9.7c0.2,0,0.2-0.1,0.2-0.2v-1.1
			c0-0.1-0.1-0.2-0.2-0.2H449.5z M449.5,55.7c-0.1,0-0.2,0.1-0.2,0.2v1.1c0,0.1,0.1,0.2,0.2,0.2h9.7c0.2,0,0.2-0.1,0.2-0.2v-1.1
			c0-0.1-0.1-0.2-0.2-0.2H449.5z"/>
		<path d="M485.2,62.7c0.1-0.1,0-0.2-0.1-0.2h-0.1c-1.4,0-2.6-0.4-3.7-1.3c-1-0.9-1.6-2.1-1.6-3.6c0-1.4,0.5-2.6,1.6-3.5
			c1-0.9,2.3-1.4,3.9-1.4c1.9,0,3.4,0.7,4.4,2c1,1.3,1.5,3.1,1.5,5.4c0,2.6-0.8,5-2.3,7.1c-1.5,2.1-3.7,3.7-6.5,4.7
			c-0.2,0.1-0.4,0.1-0.6,0.1c-0.3,0-0.5-0.1-0.8-0.2c-0.4-0.2-0.7-0.5-0.9-1l-0.6-1.5c-0.1-0.2-0.1-0.4-0.1-0.5c0-0.3,0-0.5,0.1-0.7
			c0.2-0.4,0.5-0.7,1-0.9c1.3-0.5,2.4-1.2,3.2-1.9C484.5,64.4,485,63.6,485.2,62.7z"/>
		<path d="M567.4,36.4c0,0.4-0.2,0.8-0.5,1.2c-0.3,0.3-0.7,0.5-1.2,0.5h-0.6c-0.2,0-0.2,0.1-0.2,0.2c-0.8,7.4-2.3,13.3-4.4,17.9
			c-0.1,0.1-0.1,0.3,0,0.4c0.8,1.3,1.7,2.5,2.6,3.5c0.9,1.1,2,2,3.2,2.8c0.3,0.3,0.5,0.6,0.6,1c0,0.4-0.1,0.8-0.4,1.1
			c-0.9,1-1.7,2-2.5,3.1c-0.3,0.4-0.6,0.6-1.1,0.7c-0.5,0.1-0.9,0-1.2-0.2c-2-1.5-3.7-3.4-5.2-5.5c-0.1-0.1-0.2-0.1-0.3,0
			c-1.9,2.2-4,4.1-6.4,5.7c-0.4,0.2-0.8,0.3-1.2,0.1c-0.4-0.1-0.8-0.4-1-0.8c-0.5-0.9-1.2-1.9-1.8-2.8c-0.1-0.1-0.1-0.1-0.2,0
			l-2.5,2.5c-0.4,0.4-0.8,0.6-1.3,0.6c-0.5,0-0.9-0.1-1.3-0.4c-1.1-0.7-2.3-1.3-3.6-2c-0.1-0.1-0.2-0.1-0.3,0
			c-2.5,1.4-6,2.5-10.6,3.3c-0.1,0-0.2,0-0.3,0c-0.4,0-0.7-0.1-1-0.3c-0.4-0.3-0.7-0.6-0.8-1.1c-0.3-0.8-0.6-1.5-1.1-2.3
			c-0.2-0.4-0.2-0.7,0-1c0.2-0.3,0.5-0.5,0.8-0.6c2.6-0.3,4.8-0.6,6.5-1.2c0,0,0,0,0,0c0,0,0-0.1,0-0.1l-1-0.4h0
			c-0.1,0.2-0.2,0.2-0.3,0.2l-3.9-0.9c-0.4-0.1-0.6-0.3-0.8-0.7c-0.1-0.4-0.1-0.7,0.1-1.1c0.4-0.7,0.9-1.5,1.5-2.4
			c0.1-0.1,0-0.2-0.1-0.2l-3,0c-0.5,0-0.9-0.2-1.2-0.5c-0.3-0.3-0.5-0.7-0.6-1.2l0-1.7c0-0.4,0.2-0.8,0.5-1.2
			c0.3-0.3,0.7-0.5,1.2-0.5c2.3,0,4.3,0,6.1,0c0.2,0,0.3-0.1,0.3-0.2l0.5-1c0.1-0.1,0-0.2-0.1-0.2h-4.9c-0.5,0-0.9-0.2-1.2-0.5
			c-0.3-0.3-0.5-0.7-0.5-1.2v-6.3c0-0.5,0.2-0.9,0.5-1.2c0.3-0.3,0.7-0.5,1.2-0.5h6.5c0.2,0,0.2-0.1,0.2-0.2v-0.7
			c0-0.1-0.1-0.2-0.2-0.2h-5.6c-0.5,0-0.9-0.2-1.2-0.5c-0.3-0.3-0.5-0.7-0.5-1.2V35c0-0.2-0.1-0.2-0.2-0.2h-1.1
			c-0.5,0-0.9-0.2-1.2-0.5c-0.3-0.3-0.5-0.7-0.5-1.2v-1.5c0-0.5,0.2-0.9,0.5-1.2c0.3-0.3,0.7-0.5,1.2-0.5h1.1c0.1,0,0.2-0.1,0.2-0.2
			v-3.2c0-0.5,0.2-0.9,0.5-1.2c0.3-0.3,0.7-0.5,1.2-0.5h5.6c0.2,0,0.2-0.1,0.2-0.2v-0.2c0-0.5,0.2-0.9,0.5-1.2
			c0.3-0.3,0.7-0.5,1.2-0.5h2.6c0.5,0,0.9,0.2,1.2,0.5c0.3,0.3,0.5,0.7,0.5,1.2v0.2c0,0.2,0.1,0.2,0.2,0.2h6.1
			c0.5,0,0.9,0.2,1.2,0.5c0.3,0.3,0.5,0.7,0.5,1.2v3.2c0,0.1,0.1,0.2,0.2,0.2h1.2c0.4,0,0.8,0.2,1.2,0.5c0.3,0.3,0.5,0.7,0.5,1.2
			v1.5c0,0.5-0.2,0.9-0.5,1.2c-0.3,0.3-0.7,0.5-1.2,0.5h-1.2c-0.1,0-0.2,0.1-0.2,0.2v3.2c0,0.5-0.2,0.9-0.5,1.2
			c-0.3,0.3-0.7,0.5-1.2,0.5h-6.1c-0.1,0-0.2,0.1-0.2,0.2v0.7c0,0.2,0.1,0.2,0.2,0.2h7.8c0.3,0,0.5,0.1,0.7,0.3
			c0.2,0.2,0.3,0.4,0.3,0.6h0c2.2-4.4,3.7-10.3,4.6-17.8c0.1-0.5,0.3-0.9,0.7-1.2c0.4-0.3,0.8-0.4,1.3-0.3l3.4,0.5
			c0.4,0.1,0.8,0.3,1.1,0.7c0.3,0.4,0.4,0.8,0.3,1.3c-0.3,2.1-0.6,4.1-1.1,6.1c0,0.2,0,0.2,0.2,0.2h9c0.5,0,0.9,0.2,1.2,0.5
			c0.3,0.3,0.5,0.7,0.5,1.2V36.4z M528.8,45.3c-0.2,0-0.2,0.1-0.2,0.2v1c0,0.1,0.1,0.2,0.2,0.2h2.2c0.2,0,0.2-0.1,0.2-0.2v-1
			c0-0.1-0.1-0.2-0.2-0.2H528.8z M531.2,29.2c0-0.1-0.1-0.2-0.2-0.2h-1.3c-0.1,0-0.2,0.1-0.2,0.2V30c0,0.1,0.1,0.2,0.2,0.2h1.3
			c0.2,0,0.2-0.1,0.2-0.2V29.2z M529.4,35.4c0,0.2,0.1,0.2,0.2,0.2h1.3c0.2,0,0.2-0.1,0.2-0.2v-0.7c0-0.2-0.1-0.2-0.2-0.2h-1.3
			c-0.1,0-0.2,0.1-0.2,0.2V35.4z M532.7,57.2c-0.2,0-0.3,0.1-0.3,0.2l-0.3,0.5c-0.1,0.1,0,0.2,0.1,0.2c2,0.8,3.1,1.2,3.6,1.4
			c0.1,0,0.2,0,0.3-0.1c0.5-0.6,0.9-1.3,1.3-2.1c0.1-0.1,0-0.2-0.1-0.2L532.7,57.2z M548.1,55.2c0,0.5-0.2,0.9-0.5,1.2
			c-0.4,0.3-0.8,0.5-1.3,0.5l-2.3,0c-0.1,0-0.2,0.1-0.2,0.2c-0.6,1.8-1.3,3.4-2.3,4.6c-0.1,0.1,0,0.2,0.1,0.3c1.1,0.5,2.1,1,3,1.5
			c0.1,0.1,0.2,0.1,0.3,0c3.3-1.7,5.9-4.1,7.9-7.1c0.1-0.1,0.1-0.3,0-0.4c-0.8-2.1-1.6-4.5-2.4-7.4c0-0.1,0-0.1,0-0.1
			c0,0-0.1,0-0.1,0c-0.1,0.2-0.3,0.4-0.4,0.7c-0.2,0.4-0.6,0.5-1,0.6c-0.4,0-0.8-0.2-1.1-0.5c-0.5-0.6-1.1-1.2-1.7-1.8
			c0,0-0.1,0-0.1,0c0,0,0,0,0,0.1v1.4c0,0.5-0.2,0.8-0.5,1.2c-0.3,0.3-0.7,0.5-1.2,0.5h-9v0c0.2,0,0.3,0.1,0.3,0.2
			c0.1,0.1,0,0.3,0,0.4l-0.3,0.5c0,0.1,0,0.1,0.1,0.1c1.3,0,3.2-0.1,5.7-0.1c2.5,0,4.3-0.1,5.3-0.1c0.4,0,0.8,0.2,1.2,0.5
			c0.3,0.3,0.5,0.7,0.5,1.2L548.1,55.2z M539.1,29.2c0-0.1-0.1-0.2-0.2-0.2h-1.4c-0.1,0-0.2,0.1-0.2,0.2V30c0,0.1,0.1,0.2,0.2,0.2
			h1.4c0.2,0,0.2-0.1,0.2-0.2V29.2z M537.2,35.4c0,0.2,0.1,0.2,0.2,0.2h1.4c0.2,0,0.2-0.1,0.2-0.2v-0.7c0-0.2-0.1-0.2-0.2-0.2h-1.4
			c-0.1,0-0.2,0.1-0.2,0.2V35.4z M540,45.5c0-0.1-0.1-0.2-0.2-0.2h-2.4c-0.1,0-0.2,0.1-0.2,0.2v1c0,0.1,0.1,0.2,0.2,0.2h2.4
			c0.1,0,0.2-0.1,0.2-0.2V45.5z M558.3,38.3c0-0.1-0.1-0.2-0.2-0.2h-3.1c-0.1,0-0.1,0-0.1,0.1c0,0.1,0,0.1,0,0.2
			c0.5,3.5,1.1,6.5,1.8,9c0,0,0,0,0,0c0,0,0,0,0,0C557.5,44.5,558,41.5,558.3,38.3z"/>
		<path d="M611.5,46.3c0.5,0,0.9,0.2,1.2,0.5c0.3,0.3,0.5,0.7,0.5,1.2v19.6c0,0.4-0.2,0.8-0.5,1.2c-0.3,0.3-0.7,0.5-1.2,0.5h-4
			c-0.5,0-0.9-0.2-1.2-0.5c-0.3-0.3-0.5-0.7-0.5-1.2c0-0.2-0.1-0.2-0.2-0.2h-14.4c-0.1,0-0.2,0.1-0.2,0.2c0,0.4-0.2,0.8-0.5,1.2
			c-0.3,0.3-0.7,0.5-1.2,0.5h-3.8c-0.5,0-0.9-0.2-1.2-0.5c-0.3-0.3-0.5-0.7-0.5-1.2V56.4c0-0.1-0.1-0.2-0.2-0.1
			c-2.5,1.3-5.2,2.6-8.3,3.8c-0.4,0.2-0.9,0.2-1.3,0c-0.5-0.2-0.8-0.5-1.1-0.9c-0.7-1.3-1.5-2.5-2.3-3.6c-0.2-0.2-0.3-0.5-0.3-0.7
			c0-0.1,0-0.2,0-0.3c0.1-0.4,0.4-0.6,0.7-0.8c5.5-1.8,10.4-4.2,14.9-7.4c0.1-0.1,0.1-0.2,0-0.3c-1.3-1.4-3.4-3.3-6.3-5.7
			c-0.1-0.1-0.2-0.1-0.3,0c-1.1,0.8-2.2,1.5-3.4,2.3c-0.4,0.3-0.9,0.3-1.3,0.2c-0.4-0.1-0.8-0.4-1.1-0.7c-0.8-1.1-1.8-2.2-2.8-3.1
			c-0.3-0.2-0.4-0.5-0.4-0.9c0-0.5,0.2-0.8,0.6-1.1c6.1-3.5,10.8-7.9,14.1-13.3c0.3-0.4,0.6-0.7,1.1-1c0.3-0.2,0.7-0.2,1-0.2
			c0.1,0,0.3,0,0.4,0l4.7,0.9c0.4,0.1,0.7,0.3,0.9,0.7c0.2,0.4,0.2,0.7-0.1,1.1c-0.4,0.6-0.8,1.2-1.3,1.9c-0.1,0.1-0.1,0.2,0.1,0.2
			h9.3c0.1,0,0.2,0,0.3,0c0.3-0.1,0.5-0.1,0.8-0.1c0.4,0,0.8,0.1,1.3,0.3l2.5,1.3c0.4,0.3,0.8,0.6,0.9,1.1c0.2,0.4,0.2,0.9,0,1.3
			c-2.2,5.6-5.5,10.6-9.7,15c0,0,0,0.1,0,0.1c0,0,0,0,0.1,0H611.5z M597.5,33.9c0.1-0.1,0-0.2-0.1-0.2h-10.5c-0.1,0-0.2,0-0.3,0.1
			c-0.4,0.4-0.9,0.9-1.5,1.5c-0.1,0.1-0.1,0.2,0,0.2c2.8,2.1,5.1,3.9,6.7,5.4c0.1,0.1,0.2,0.1,0.3,0C594.2,38.8,596,36.4,597.5,33.9
			z M591,60.8c0,0.1,0.1,0.2,0.2,0.2h14.4c0.1,0,0.2-0.1,0.2-0.2V53c0-0.2-0.1-0.2-0.2-0.2h-14.4c-0.1,0-0.2,0.1-0.2,0.2V60.8z"/>
		<path d="M666,36.4c0,0.4-0.2,0.8-0.5,1.2c-0.3,0.3-0.7,0.5-1.2,0.5h-0.9c-0.2,0-0.3,0.1-0.3,0.2c-0.9,7-2.5,12.8-4.8,17.3
			c-0.1,0.1-0.1,0.2,0,0.3c1.9,2.7,4.2,4.8,6.7,6.5c0.4,0.2,0.6,0.5,0.6,1c0,0.4-0.1,0.8-0.4,1.1c-1,1.1-2,2.3-2.8,3.6
			c-0.3,0.4-0.6,0.7-1.1,0.8c-0.5,0.1-0.9,0-1.3-0.2c-2.3-1.6-4.4-3.6-6.2-6.1c-0.1-0.1-0.2-0.1-0.3,0c-2.2,2.5-4.9,4.6-8.2,6.4
			c-0.4,0.2-0.8,0.3-1.3,0.1c-0.4-0.1-0.8-0.4-1-0.8c-0.7-1.3-1.4-2.5-2.3-3.7c-0.2-0.4-0.3-0.7-0.2-1.2c0.1-0.4,0.3-0.7,0.7-0.9
			c3.5-1.7,6.3-3.9,8.4-6.7c0.1-0.1,0.1-0.2,0-0.4c-1-2.3-1.9-4.9-2.7-7.8c0,0,0-0.1,0-0.1c0,0-0.1,0-0.1,0
			c-0.2,0.3-0.3,0.5-0.5,0.8c-0.3,0.4-0.6,0.6-1.1,0.6c-0.5,0-0.8-0.1-1.2-0.5c-0.7-0.7-1.5-1.4-2.3-2.1c-0.1-0.1-0.2-0.1-0.3,0
			c-1.9,2.3-4,4.5-6.4,6.5c-0.1,0.1-0.2,0.2-0.2,0.4c0,0.1,0.1,0.2,0.2,0.2c0.5,0,1.5-0.1,3-0.2c1.5-0.1,2.6-0.2,3.4-0.2
			c0.4,0,0.8,0.1,1.2,0.4c0.3,0.3,0.5,0.7,0.5,1.2v2.6c0,0.5-0.2,0.9-0.5,1.3c-0.3,0.4-0.7,0.5-1.2,0.6c-1.3,0.1-3.5,0.3-6.4,0.5
			c-0.2,0-0.2,0.1-0.2,0.2v3.2c0,1.5-0.2,2.7-0.5,3.6c-0.3,0.8-1,1.5-2,1.9c-1.3,0.6-3.2,0.9-5.8,1h0c-0.4,0-0.9-0.1-1.3-0.4
			c-0.4-0.3-0.6-0.7-0.8-1.2c-0.2-0.9-0.5-1.9-0.9-2.8c-0.2-0.4-0.1-0.7,0.1-1.1c0.2-0.3,0.5-0.5,0.9-0.5c0.8,0,1.7,0,2.7,0
			c0.3,0,0.5,0,0.7-0.1c0.1-0.1,0.2-0.3,0.2-0.5v-2.5c0-0.1-0.1-0.2-0.2-0.2l-6.9,0.5c-0.5,0.1-0.9-0.1-1.3-0.4
			c-0.4-0.3-0.6-0.7-0.6-1.2l-0.3-2.9c0-0.4,0.1-0.9,0.4-1.2c0.3-0.4,0.7-0.5,1.1-0.6c0.5,0,1.6-0.1,3.4-0.2
			c1.8-0.1,3.2-0.2,4.2-0.2c0.1,0,0.2-0.1,0.2-0.2V52c0-0.4,0.2-0.8,0.5-1.2c0.3-0.3,0.7-0.5,1.2-0.5h0.1c0.1,0,0.2,0,0.3-0.1
			c0.5-0.4,1-0.9,1.5-1.5c0,0,0-0.1,0-0.1c0,0,0,0-0.1,0h-2c-0.1,0-0.3,0-0.4,0.1c-1.6,1.3-3.4,2.6-5.2,3.7
			c-0.4,0.3-0.9,0.3-1.3,0.2c-0.5-0.1-0.9-0.3-1.2-0.7c-0.8-1-1.6-1.9-2.5-2.9c-0.3-0.3-0.4-0.7-0.3-1.1c0.1-0.4,0.3-0.7,0.7-0.9
			c1.2-0.7,2.4-1.4,3.6-2.2c0.1-0.1,0.1-0.2,0.1-0.3c0-0.4,0.1-0.7,0.4-1c0.3-0.3,0.6-0.5,1.1-0.5h0.6c0.2,0,0.3,0,0.4-0.1
			c0.8-0.6,1.4-1.2,1.9-1.5c0,0,0-0.1,0-0.1c0,0-0.1,0-0.1,0h-6.7c-0.4,0-0.8-0.2-1.2-0.5c-0.3-0.3-0.5-0.7-0.5-1.2v-2.7
			c0-0.5,0.2-0.9,0.5-1.2c0.3-0.3,0.7-0.5,1.2-0.5h4.7c0.2,0,0.2-0.1,0.2-0.2v-2c0-0.2-0.1-0.2-0.2-0.2h-3.1c-0.5,0-0.9-0.2-1.2-0.5
			c-0.3-0.3-0.5-0.7-0.5-1.2v-2.6c0-0.5,0.2-0.9,0.5-1.2c0.3-0.3,0.7-0.5,1.2-0.5h3.1c0.2,0,0.2-0.1,0.2-0.2v-2.2
			c0-0.5,0.2-0.9,0.5-1.2c0.3-0.3,0.7-0.5,1.2-0.5h3.2c0.4,0,0.8,0.2,1.2,0.5c0.3,0.3,0.5,0.7,0.5,1.2v2.2c0,0.1,0.1,0.2,0.2,0.2
			h2.2c0.4,0,0.8,0.2,1.2,0.5c0.3,0.3,0.5,0.7,0.5,1.2V30c0,0,0,0,0,0c0,0,0,0,0,0c0.8-1.4,1.5-2.9,2.2-4.6c0.2-0.4,0.5-0.8,0.9-1
			c0.4-0.2,0.9-0.2,1.4-0.1l3.3,0.9c0.4,0.1,0.7,0.4,0.9,0.8c0.2,0.4,0.2,0.8,0,1.3c-1.1,2.7-2.4,5.2-3.9,7.7
			c-0.1,0.1,0,0.2,0.1,0.2h0.1c0.5,0,0.9,0.2,1.2,0.5c0.3,0.3,0.5,0.7,0.5,1.2v1.3c0,0,0,0,0,0c1.8-3.9,3.1-8.5,3.9-13.9
			c0.1-0.5,0.3-0.9,0.7-1.1c0.4-0.3,0.8-0.4,1.3-0.3l3.9,0.6c0.5,0.1,0.9,0.3,1.1,0.7c0.3,0.4,0.4,0.8,0.3,1.3c-0.4,2-0.8,4-1.3,5.9
			c0,0.2,0,0.2,0.2,0.2h10.5c0.5,0,0.9,0.2,1.2,0.5c0.3,0.3,0.5,0.7,0.5,1.2V36.4z M632.9,32.6c-0.2,0-0.2,0.1-0.2,0.2v2
			c0,0.2,0.1,0.2,0.2,0.2h0.5c0.2,0,0.3-0.1,0.3-0.2c0.5-0.7,1-1.4,1.5-2.1c0.1-0.1,0-0.2-0.1-0.2H632.9z M637,43c0.1,0,0.2,0,0.3,0
			c0.2-0.1,0.4-0.1,0.7-0.1c0.5,0,1,0.2,1.4,0.5L640,44c0.1,0.1,0.2,0.1,0.3,0c0.6-0.8,1.2-1.7,1.7-2.6c0.1-0.1,0.1-0.1-0.1-0.1
			h-4.5c-0.2,0-0.3,0-0.3,0.1c-0.6,0.7-1,1.2-1.3,1.5c0,0,0,0.1,0,0.1c0,0,0,0,0.1,0H637z M655.9,38.3c0-0.2-0.1-0.2-0.2-0.2h-3.5
			c-0.1,0-0.2,0.1-0.2,0.2c0.6,3.2,1.3,6.1,2.1,8.5c0,0,0,0,0.1,0c0,0,0.1,0,0.1,0C654.9,44.2,655.5,41.4,655.9,38.3z"/>
		<path d="M677.1,45.5c-0.1,0-0.2,0.1-0.2,0.2v2c0,0.2,0.1,0.2,0.2,0.2h8.4c0.5,0,0.9,0.2,1.2,0.5c0.3,0.3,0.5,0.7,0.5,1.2v13.1
			c0,0.5-0.2,0.9-0.5,1.2c-0.3,0.3-0.7,0.5-1.2,0.5h-8.4c-0.1,0-0.2,0.1-0.2,0.2v1.1c0,0.5-0.2,0.9-0.5,1.2
			c-0.3,0.3-0.7,0.5-1.2,0.5h-2.9c-0.5,0-0.9-0.2-1.2-0.5c-0.3-0.3-0.5-0.7-0.5-1.2V31.5c0-0.5,0.2-0.9,0.5-1.2
			c0.3-0.3,0.7-0.5,1.2-0.5h2.2c0.2,0,0.3-0.1,0.3-0.2c0.4-2,0.7-3.8,0.8-5.4c0.1-0.5,0.3-0.9,0.6-1.2c0.3-0.3,0.7-0.4,1.1-0.4
			c0.1,0,0.1,0,0.2,0L682,23c0.4,0,0.7,0.2,1,0.6c0.2,0.4,0.3,0.7,0.1,1.1c-0.6,1.6-1.2,3.2-1.9,4.9c0,0.1,0,0.2,0.1,0.2h3.8
			c0.5,0,0.9,0.2,1.2,0.5c0.3,0.3,0.5,0.7,0.5,1.2v12.2c0,0.5-0.2,0.9-0.5,1.2c-0.3,0.3-0.7,0.5-1.2,0.5H677.1z M680.3,39.5
			c0.1,0,0.2-0.1,0.2-0.2V36c0-0.1-0.1-0.2-0.2-0.2h-3.1c-0.1,0-0.2,0.1-0.2,0.2v3.3c0,0.2,0.1,0.2,0.2,0.2H680.3z M681,54.1
			c0-0.1-0.1-0.2-0.2-0.2h-3.6c-0.1,0-0.2,0.1-0.2,0.2v4.2c0,0.1,0.1,0.2,0.2,0.2h3.6c0.2,0,0.2-0.1,0.2-0.2V54.1z M714.9,29.4
			c0,0.5-0.2,0.9-0.5,1.2c-0.3,0.3-0.7,0.5-1.2,0.5H705c-0.2,0-0.2,0.1-0.2,0.2v3.1c0,0.1,0.1,0.2,0.2,0.2h7c0.5,0,0.9,0.2,1.2,0.5
			c0.3,0.3,0.5,0.7,0.5,1.2v19.3c0,1.4-0.1,2.5-0.4,3.4c-0.3,0.9-0.8,1.5-1.5,2c-1,0.6-2.3,1-4,1.1c-0.4,0-0.9-0.1-1.2-0.4
			c-0.4-0.3-0.6-0.7-0.7-1.2c-0.3-1.1-0.6-2.2-1-3.3c-0.1,0-0.1,0-0.1,0v10.4c0,0.4-0.2,0.8-0.5,1.2c-0.3,0.3-0.7,0.5-1.2,0.5h-3.3
			c-0.5,0-0.8-0.2-1.2-0.5c-0.3-0.3-0.5-0.7-0.5-1.2V41.2c0-0.2-0.1-0.2-0.2-0.2H696c-0.1,0-0.2,0.1-0.2,0.2v18.7
			c0,0.5-0.2,0.9-0.5,1.2c-0.3,0.3-0.7,0.5-1.2,0.5h-3c-0.5,0-0.8-0.2-1.2-0.5c-0.3-0.3-0.5-0.7-0.5-1.2V36.4c0-0.5,0.2-0.9,0.5-1.2
			c0.3-0.3,0.7-0.5,1.2-0.5h6.7c0.2,0,0.2-0.1,0.2-0.2v-3.1c0-0.1-0.1-0.2-0.2-0.2h-8.3c-0.5,0-0.8-0.2-1.2-0.5
			c-0.3-0.3-0.5-0.7-0.5-1.2v-3c0-0.5,0.2-0.9,0.5-1.2c0.3-0.3,0.7-0.5,1.2-0.5h23.7c0.4,0,0.8,0.2,1.2,0.5c0.3,0.3,0.5,0.7,0.5,1.2
			V29.4z M707.1,41.2c0-0.2-0.1-0.2-0.2-0.2H705c-0.2,0-0.2,0.1-0.2,0.2v14.6c0,0.2,0.1,0.2,0.2,0.2c0.4,0,1,0,1.6,0
			c0.4,0,0.5-0.2,0.5-0.6V41.2z"/>
		<path d="M752.9,38.2c0,0.1,0.1,0.2,0.2,0.2h9.5c0.4,0,0.8,0.2,1.2,0.5c0.3,0.3,0.5,0.7,0.5,1.2v1.6c0,0.5-0.2,0.9-0.5,1.2
			c-0.3,0.3-0.7,0.5-1.2,0.5h-25.3c-0.5,0-0.9-0.2-1.2-0.5c-0.3-0.3-0.5-0.7-0.5-1.2v-1.6c0-0.5,0.2-0.9,0.5-1.2
			c0.3-0.3,0.7-0.5,1.2-0.5h8.6c0.1,0,0.2-0.1,0.2-0.2v-1.1c0-0.2-0.1-0.2-0.2-0.2h-6.1c-0.5,0-0.9-0.2-1.2-0.5
			c-0.3-0.3-0.5-0.7-0.5-1.2V34c0-0.5,0.2-0.9,0.5-1.2c0.3-0.3,0.7-0.5,1.2-0.5h6.1c0.1,0,0.2-0.1,0.2-0.2v-0.9
			c0-0.1-0.1-0.2-0.2-0.2h-7.3c-0.4,0-0.8-0.2-1.2-0.5c-0.3-0.3-0.5-0.7-0.5-1.2v-2.5c0,0,0,0,0,0c0,0,0,0,0,0
			c-1.7,5.7-2.7,8.9-2.9,9.5c-0.2,0.5-0.5,0.8-0.9,1.1c-0.4,0.2-0.9,0.3-1.3,0.1l-1.3-0.3c-0.1,0-0.2,0-0.2,0.1v1.5
			c0,0.1,0.1,0.2,0.2,0.2h2.4c0.5,0,0.9,0.2,1.2,0.5c0.3,0.3,0.5,0.7,0.5,1.2v3.2c0,0.5-0.2,0.9-0.5,1.2c-0.3,0.3-0.7,0.5-1.2,0.5
			h-2.4c-0.1,0-0.1,0-0.1,0.1v0.1c0.2-0.1,0.3-0.1,0.4,0c1.2,1.3,2.9,3.5,5.3,6.6c0.3,0.4,0.5,0.9,0.5,1.4c0,0.5-0.2,0.9-0.5,1.3
			l-2.3,2.9c-0.2,0.3-0.5,0.4-0.9,0.3c-0.4-0.1-0.6-0.3-0.8-0.6c-0.5-1.1-1-2.3-1.6-3.5c0,0-0.1,0-0.1,0v13.2c0,0.4-0.2,0.8-0.5,1.2
			s-0.7,0.5-1.2,0.5h-2.9c-0.5,0-0.9-0.2-1.2-0.5c-0.3-0.3-0.5-0.7-0.5-1.2V57.4c0,0,0,0,0,0c0,0,0,0,0,0c-0.9,2.2-1.8,4.1-2.6,5.7
			c-0.2,0.3-0.4,0.4-0.8,0.4c-0.3,0-0.5-0.2-0.7-0.6c-0.4-1.3-1.1-2.7-1.9-4.3c-0.2-0.4-0.3-0.8-0.3-1.3c0-0.5,0.2-1.1,0.5-1.6
			c1.8-2.6,3.4-5.8,4.8-9.8c0-0.1,0-0.2-0.1-0.2h-3c-0.4,0-0.8-0.2-1.2-0.5c-0.3-0.3-0.5-0.7-0.5-1.2v-3.2c0-0.5,0.2-0.9,0.5-1.2
			c0.3-0.3,0.7-0.5,1.2-0.5h3.9c0.2,0,0.2-0.1,0.2-0.2v-1.4c0-0.1-0.1-0.2-0.2-0.1l-2.4,0.6c-0.4,0.1-0.8,0-1.2-0.3
			c-0.4-0.3-0.5-0.6-0.6-1c-0.2-2.6-0.7-5.3-1.4-8.1c-0.1-0.4-0.1-0.9,0.2-1.3c0.2-0.4,0.6-0.7,1-0.8l1.3-0.3c0.5-0.1,0.9,0,1.3,0.2
			c0.4,0.2,0.7,0.6,0.9,1.1c0.4,1.4,0.7,3,1.1,4.6h0v-7.3c0-0.5,0.2-0.9,0.5-1.2c0.3-0.3,0.7-0.5,1.2-0.5h2.9c0.5,0,0.9,0.2,1.2,0.5
			c0.3,0.3,0.5,0.7,0.5,1.2v7.9h0c0.4-1.9,0.7-3.7,0.9-5.4c0.1-0.4,0.3-0.8,0.6-1.1c0.4-0.3,0.8-0.4,1.2-0.3l3.8,0.7c0,0,0,0,0,0
			c0-0.2,0.1-0.3,0.3-0.3h8.6c0.1,0,0.2-0.1,0.2-0.2v-1.4c0-0.5,0.2-0.9,0.5-1.2c0.3-0.3,0.7-0.5,1.2-0.5h3.3c0.5,0,0.9,0.2,1.2,0.5
			c0.3,0.3,0.5,0.7,0.5,1.2v1.4c0,0.1,0.1,0.2,0.2,0.2h8.2c0.5,0,0.9,0.2,1.2,0.5c0.3,0.3,0.5,0.7,0.5,1.2v1.5
			c0,0.5-0.2,0.9-0.5,1.2c-0.3,0.3-0.7,0.5-1.2,0.5h-8.2c-0.1,0-0.2,0.1-0.2,0.2v0.9c0,0.1,0.1,0.2,0.2,0.2h7.2
			c0.4,0,0.8,0.2,1.2,0.5c0.3,0.3,0.5,0.7,0.5,1.2v1.3c0,0.5-0.2,0.9-0.5,1.2c-0.3,0.3-0.7,0.5-1.2,0.5h-7.2c-0.1,0-0.2,0.1-0.2,0.2
			V38.2z M760,44.9c0.5,0,0.9,0.2,1.2,0.5c0.3,0.3,0.5,0.7,0.5,1.2v16.6c0,1.5-0.2,2.6-0.5,3.4c-0.4,0.8-1,1.4-1.9,1.9
			c-1.3,0.6-3.2,0.9-5.9,0.9c-0.5,0-0.9-0.1-1.3-0.4c-0.4-0.3-0.6-0.7-0.8-1.2c-0.2-0.8-0.5-1.6-0.8-2.4c-0.1-0.4-0.1-0.7,0.1-1
			c0.2-0.3,0.5-0.5,0.9-0.5c0.7,0,1.6,0,2.6,0c0.3,0,0.5-0.1,0.7-0.2c0.1-0.1,0.2-0.3,0.2-0.6v-0.7c0-0.1-0.1-0.2-0.2-0.2h-10.1
			c-0.1,0-0.2,0.1-0.2,0.2v5.3c0,0.5-0.2,0.9-0.5,1.2c-0.3,0.3-0.7,0.5-1.2,0.5h-3.1c-0.5,0-0.9-0.2-1.2-0.5
			c-0.3-0.3-0.5-0.7-0.5-1.2V46.7c0-0.5,0.2-0.9,0.5-1.2c0.3-0.3,0.7-0.5,1.2-0.5H760z M755,50.1c0-0.1-0.1-0.2-0.2-0.2h-10.1
			c-0.1,0-0.2,0.1-0.2,0.2v1.2c0,0.2,0.1,0.2,0.2,0.2h10.1c0.2,0,0.2-0.1,0.2-0.2V50.1z M744.5,57.5c0,0.2,0.1,0.2,0.2,0.2h10.1
			c0.2,0,0.2-0.1,0.2-0.2v-1.2c0-0.1-0.1-0.2-0.2-0.2h-10.1c-0.1,0-0.2,0.1-0.2,0.2V57.5z"/>
		<path d="M771,40.7c0.1-0.4,0.3-0.8,0.7-1.1c0.4-0.3,0.8-0.4,1.2-0.3l3.7,0.8c0.5,0.1,0.9,0.3,1.2,0.7c0.3,0.4,0.4,0.8,0.3,1.3
			c-0.4,3.6-0.9,6.7-1.5,9.5c-0.6,2.5-1.4,4.8-2.4,6.6c-0.2,0.4-0.6,0.7-1,0.8c-0.5,0.1-0.9,0.1-1.3-0.2l-3.8-2.1
			c-0.4-0.3-0.7-0.6-0.8-1.1c-0.1-0.2-0.1-0.3-0.1-0.4c0-0.3,0.1-0.6,0.2-0.9C769.1,51,770.3,46.5,771,40.7z M780.4,37.5
			c0-0.5,0.2-0.9,0.5-1.2c0.3-0.3,0.7-0.5,1.2-0.5h4.1c0.4,0,0.8,0.2,1.2,0.5c0.3,0.3,0.5,0.7,0.5,1.2v21.2c0,1.2,0.1,2,0.4,2.3
			c0.3,0.3,0.9,0.5,2,0.5h5.4c1.1,0,1.8-0.5,2.1-1.6c0.3-0.9,0.5-2.7,0.7-5.4c0-0.4,0.2-0.7,0.5-0.8c0.3-0.2,0.6-0.1,1,0
			c1.1,0.6,2.3,1.2,3.6,1.6c0.5,0.2,0.9,0.4,1.2,0.9c0.2,0.3,0.3,0.7,0.3,1.1c0,3.3-0.8,6-2.3,8.1c-1.2,1.7-3.4,2.6-6.5,2.6h-7.1
			c-3.4,0-5.8-0.7-7-2c-1.2-1.3-1.8-3.7-1.8-7.3V37.5z M782,27.8c-0.4-0.2-0.6-0.5-0.7-0.9c-0.1-0.4,0-0.8,0.3-1.1l2.5-2.9
			c0.3-0.4,0.7-0.6,1.3-0.8c0.2-0.1,0.4-0.1,0.6-0.1c0.3,0,0.6,0.1,0.9,0.2c2.3,0.9,4.6,2,7.1,3.4c2.4,1.3,4.5,2.6,6.3,3.8
			c0.4,0.3,0.6,0.7,0.7,1.1c0.1,0.5,0,0.9-0.3,1.2l-2.7,3.6c-0.3,0.4-0.6,0.6-1.1,0.6c-0.5,0-0.9-0.1-1.2-0.4
			c-1.7-1.3-3.7-2.7-6-4.1C786.8,30.1,784.4,28.9,782,27.8z M800.3,41.6c-0.3-0.4-0.3-0.8-0.2-1.2c0.1-0.4,0.4-0.8,0.8-1l3.5-1.8
			c0.4-0.2,0.9-0.3,1.4-0.2c0.5,0.1,0.9,0.4,1.2,0.8c1.6,2.2,3.1,4.7,4.4,7.4c1.3,2.6,2.3,4.9,2.9,7.1c0.1,0.2,0.1,0.4,0.1,0.6
			c0,0.3-0.1,0.5-0.2,0.8c-0.2,0.4-0.6,0.8-1,1l-4.2,2.1c-0.4,0.2-0.8,0.2-1.2,0c-0.4-0.2-0.6-0.5-0.8-0.9c-0.5-2.1-1.4-4.5-2.6-7.1
			C803.1,46.5,801.8,43.9,800.3,41.6z"/>
		<path d="M857.8,54.7C857.8,54.7,857.7,54.7,857.8,54.7c-0.1,0.1-0.1,0.1,0,0.1l1.9,1.4c0.3,0.3,0.5,0.6,0.5,1c0,0.4-0.2,0.7-0.5,1
			c-1.7,1.1-3.6,2.1-5.6,3c0,0,0,0.1,0,0.1c0,0,0,0.1,0,0.1c2.2,1,4.8,1.7,7.6,2.2c0.4,0.1,0.6,0.3,0.7,0.6c0,0.1,0,0.2,0,0.3
			c0,0.2-0.1,0.4-0.2,0.6c-0.7,0.9-1.3,1.8-1.9,2.9c-0.3,0.4-0.6,0.8-1.1,1c-0.3,0.1-0.6,0.2-1,0.2c-0.1,0-0.3,0-0.4,0
			c-6.1-1.3-10.8-3.8-14.1-7.5c0,0-0.1,0-0.1,0c0,0,0,0,0,0.1l0.1,2.8c0,0.5-0.1,0.9-0.4,1.3c-0.3,0.4-0.7,0.6-1.2,0.6
			c-2.1,0.3-5,0.7-8.8,1.2c-3.8,0.5-6.4,0.8-7.8,1c-0.5,0.1-0.9,0-1.3-0.3c-0.4-0.3-0.6-0.6-0.7-1.1l-0.4-2.4
			c-0.1-0.4,0-0.9,0.3-1.2c0.3-0.4,0.7-0.6,1.1-0.6c1.3-0.1,2.2-0.2,2.9-0.3c0.2,0,0.2-0.1,0.2-0.2v-1.1c0-0.2-0.1-0.2-0.2-0.2
			c-1.7,0.5-3.5,0.9-5.4,1.3c-0.2,0-0.4,0-0.5,0c-0.8,0-1.5-0.4-2.1-1.2c-0.5-0.8-1.1-1.6-1.7-2.3c-0.2-0.3-0.3-0.6-0.1-0.9
			c0.1-0.3,0.4-0.5,0.7-0.6c4.4-0.6,8.2-1.5,11.4-2.6c0,0,0-0.1,0-0.1h-10.5c-0.5,0-0.9-0.2-1.2-0.5c-0.3-0.3-0.5-0.7-0.5-1.2v-2.2
			c0-0.5,0.2-0.9,0.5-1.2c0.3-0.3,0.7-0.5,1.2-0.5H836c0.1,0,0.2-0.1,0.2-0.2v-1.6c0-0.1,0-0.2-0.1-0.2c-0.8,0-1.4-0.4-1.7-1.3
			c-0.2-0.4-0.3-0.8-0.5-1.2c-0.2-0.4-0.1-0.7,0.1-1c0.2-0.3,0.5-0.5,0.9-0.5c0.2,0,0.4,0,0.6,0c0.4,0,0.5-0.2,0.5-0.5v-1
			c0-0.1-0.1-0.2-0.2-0.2h-2.4c-0.1,0-0.2,0.1-0.2,0.2v5c0,0.4-0.2,0.8-0.5,1.2c-0.3,0.3-0.7,0.5-1.2,0.5h-2.6
			c-0.5,0-0.8-0.2-1.2-0.5c-0.3-0.3-0.5-0.7-0.5-1.2v-5c0-0.1-0.1-0.2-0.2-0.2h-2.2c-0.1,0-0.2,0.1-0.2,0.2v3.9
			c0,0.5-0.2,0.9-0.5,1.2s-0.7,0.5-1.2,0.5h-1.9c-0.5,0-0.8-0.2-1.2-0.5c-0.3-0.3-0.5-0.7-0.5-1.2V39c0-0.5,0.2-0.9,0.5-1.2
			c0.3-0.3,0.7-0.5,1.2-0.5h6c0.2,0,0.2-0.1,0.2-0.2v-0.8c0-0.2-0.1-0.2-0.2-0.2h-7.8c-0.5,0-0.9-0.2-1.2-0.5
			c-0.3-0.3-0.5-0.7-0.5-1.2V33c0-0.4,0.2-0.8,0.5-1.2c0.3-0.3,0.7-0.5,1.2-0.5h0.9c0,0,0.1,0,0.1,0c0,0,0-0.1,0-0.1
			c-0.5-0.3-1-0.6-1.6-0.9c-0.4-0.2-0.6-0.6-0.7-1c-0.1-0.4,0-0.8,0.3-1.2c0.8-1.2,1.5-2.5,2.1-3.9c0.2-0.4,0.5-0.8,0.9-1
			c0.4-0.2,0.9-0.3,1.3-0.2l2,0.5c0.4,0.1,0.7,0.3,0.9,0.7c0.2,0.4,0.2,0.8,0.1,1.2c-0.1,0.1,0,0.2,0.1,0.2h1.4
			c0.2,0,0.2-0.1,0.2-0.2v-1.1c0-0.5,0.2-0.9,0.5-1.2c0.3-0.3,0.7-0.5,1.2-0.5h2.6c0.5,0,0.9,0.2,1.2,0.5c0.3,0.3,0.5,0.7,0.5,1.2
			v1.1c0,0.2,0.1,0.2,0.2,0.2h5.9c0.5,0,0.9,0.2,1.2,0.5c0.3,0.3,0.5,0.7,0.5,1.2v1.1c0,0.4-0.2,0.8-0.5,1.2
			c-0.3,0.3-0.7,0.5-1.2,0.5h-5.9c-0.1,0-0.2,0.1-0.2,0.2v0.9c0,0.2,0.1,0.2,0.2,0.2h7c0.4,0,0.8,0.2,1.2,0.5
			c0.3,0.3,0.5,0.7,0.5,1.2v1.3c0,0.4-0.2,0.8-0.5,1.2c-0.3,0.3-0.7,0.5-1.2,0.5h-7c-0.1,0-0.2,0.1-0.2,0.2V37
			c0,0.2,0.1,0.2,0.2,0.2h6.5c0.5,0,0.9,0.2,1.2,0.5c0.3,0.3,0.5,0.7,0.5,1.2v3.7c0,1.1-0.1,2-0.4,2.5c-0.3,0.6-0.7,1-1.4,1.3
			c0,0-0.1,0.1-0.2,0.1c0,0-0.1,0-0.1,0c0,0,0,0,0,0.1h2.2c0.5,0,0.9,0.2,1.2,0.5c0.3,0.3,0.5,0.7,0.5,1.2v0.5
			c0,0.1,0.1,0.2,0.2,0.2h16.9c0.5,0,0.9,0.2,1.2,0.5c0.3,0.3,0.5,0.7,0.5,1.2V53c0,0.4-0.2,0.8-0.5,1.2c-0.3,0.3-0.7,0.5-1.2,0.5
			H857.8z M822.2,31.2c-0.1,0.1-0.1,0.2,0.1,0.2h4.5c0.2,0,0.2-0.1,0.2-0.2v-0.9c0-0.2-0.1-0.2-0.2-0.2h-3.7c-0.1,0-0.2,0.1-0.3,0.2
			C822.6,30.6,822.4,30.9,822.2,31.2z M834.6,58.3c-0.1,0.1-0.2,0.2-0.2,0.3v3c0,0.2,0.1,0.2,0.2,0.2c2.8-0.3,5.5-0.6,8-1
			c0.1,0,0.2-0.1,0.1-0.2c-1.2-1.5-2.3-3.2-3.2-5.1c-0.1-0.1-0.2-0.1-0.3,0C837.8,56.6,836.3,57.5,834.6,58.3z M848.5,24.6
			c0.4,0,0.8,0.2,1.2,0.5c0.3,0.3,0.5,0.7,0.5,1.2v13c0,0.5-0.2,0.9-0.5,1.2c-0.3,0.3-0.7,0.5-1.2,0.5h-3c-0.5,0-0.8-0.2-1.2-0.5
			c-0.3-0.3-0.5-0.7-0.5-1.2v-13c0-0.5,0.2-0.9,0.5-1.2c0.3-0.3,0.7-0.5,1.2-0.5H848.5z M854.2,54.8
			C854.2,54.8,854.2,54.7,854.2,54.8c0-0.1,0-0.1,0-0.1H846c-0.1,0-0.2,0.1-0.1,0.2c0.8,1.1,1.7,2.2,2.7,3.1c0.1,0.1,0.2,0.1,0.3,0
			C850.7,57.1,852.5,56,854.2,54.8z M858.9,22.9c0.4,0,0.8,0.2,1.2,0.5c0.3,0.3,0.5,0.7,0.5,1.2v17.6c0,1.5-0.2,2.6-0.5,3.4
			c-0.4,0.8-1,1.4-2,1.8c-1.3,0.6-3.3,0.9-6.2,0.9c-0.5,0-1-0.2-1.3-0.5c-0.4-0.3-0.7-0.7-0.8-1.2c-0.2-0.8-0.5-1.6-0.9-2.4
			c-0.2-0.4-0.1-0.7,0.1-1c0.2-0.3,0.5-0.5,0.9-0.4c0.7,0,1.3,0,1.8,0c0.6,0,1.1,0,1.4,0c0.4,0,0.6-0.1,0.7-0.2
			c0.1-0.1,0.2-0.3,0.2-0.6V24.6c0-0.5,0.2-0.9,0.5-1.2c0.3-0.3,0.7-0.5,1.2-0.5H858.9z"/>
		<path d="M875.3,24.4c0.2-0.4,0.5-0.8,0.9-1c0.3-0.1,0.5-0.1,0.8-0.1c0.2,0,0.4,0,0.5,0l3.7,1.2c0.4,0.1,0.8,0.4,1,0.8
			c0.2,0.4,0.2,0.9,0,1.3c-1.1,2.8-2.4,5.5-3.8,8.2c-0.1,0.2-0.1,0.3-0.1,0.4v32.5c0,0.4-0.2,0.8-0.5,1.2c-0.3,0.3-0.7,0.5-1.2,0.5
			h-3.8c-0.5,0-0.9-0.2-1.2-0.5c-0.3-0.3-0.5-0.7-0.5-1.2V46.3c0,0,0-0.1,0-0.1c0,0-0.1,0-0.1,0c-0.2,0.3-0.5,0.6-0.8,0.9
			c-0.3,0.3-0.6,0.4-1,0.3c-0.4-0.1-0.7-0.3-0.8-0.7c-0.7-1.7-1.5-3.3-2.3-4.7c-0.2-0.4-0.3-0.7-0.3-1.2c0-0.1,0-0.2,0-0.2
			c0-0.5,0.2-1,0.6-1.3C870.1,35.3,873,30.3,875.3,24.4z M912.7,35.6c0,0.5-0.2,0.9-0.5,1.2c-0.3,0.3-0.7,0.5-1.2,0.5h-11.5
			c-0.1,0-0.2,0.1-0.2,0.2v3.7c0,0.2,0.1,0.2,0.2,0.2h10.1c0.5,0,0.9,0.2,1.2,0.5c0.3,0.3,0.5,0.7,0.5,1.2v3.1
			c0,0.5-0.2,0.9-0.5,1.2c-0.3,0.3-0.7,0.5-1.2,0.5h-10.1c-0.1,0-0.2,0.1-0.2,0.2v4c0,0.2,0.1,0.2,0.2,0.2h10.8
			c0.4,0,0.8,0.2,1.2,0.5c0.3,0.3,0.5,0.7,0.5,1.2v3.3c0,0.4-0.2,0.8-0.5,1.2c-0.3,0.3-0.7,0.5-1.2,0.5h-10.8
			c-0.1,0-0.2,0.1-0.2,0.2v8.5c0,0.4-0.2,0.8-0.5,1.2c-0.3,0.3-0.7,0.5-1.2,0.5h-3.9c-0.5,0-0.9-0.2-1.2-0.5
			c-0.3-0.3-0.5-0.7-0.5-1.2V37.5c0-0.1-0.1-0.2-0.2-0.2h-0.5c-0.1,0-0.2,0.1-0.3,0.2c-1.7,3-3.4,5.5-5.1,7.7
			c-0.3,0.4-0.7,0.5-1.1,0.5c-0.5,0-0.8-0.2-1.1-0.5c-0.9-0.9-1.9-1.8-2.9-2.7c-0.4-0.3-0.6-0.7-0.6-1.3c0-0.4,0.1-0.8,0.4-1.1
			c3.6-4.1,6.5-9.3,8.6-15.6c0.2-0.4,0.4-0.8,0.9-1c0.3-0.2,0.6-0.2,0.9-0.2c0.2,0,0.3,0,0.5,0.1l3.6,0.9c0.4,0.1,0.8,0.4,1,0.8
			c0.2,0.4,0.3,0.8,0.1,1.3c-0.5,1.3-1,2.6-1.6,3.9c0,0.1,0,0.2,0.1,0.2H911c0.5,0,0.9,0.2,1.2,0.5c0.3,0.3,0.5,0.7,0.5,1.2V35.6z"
			/>
		<path d="M929.9,63.8c-1,1-2.3,1.5-3.8,1.5c-1.5,0-2.8-0.5-3.8-1.5c-1-1-1.5-2.3-1.5-3.9c0-1.5,0.5-2.8,1.5-3.9
			c1-1,2.3-1.6,3.8-1.6c1.5,0,2.8,0.5,3.8,1.6c1,1,1.5,2.3,1.5,3.9C931.5,61.5,931,62.8,929.9,63.8z M925,51.4
			c-0.5,0-0.9-0.2-1.3-0.5c-0.4-0.3-0.5-0.7-0.6-1.2L922,34.5l-0.2-6.1c0-0.5,0.2-0.9,0.5-1.2c0.3-0.3,0.7-0.5,1.2-0.5h5.4
			c0.4,0,0.8,0.2,1.2,0.5c0.3,0.3,0.5,0.7,0.5,1.2l-0.2,6.1l-1.1,15.2c0,0.5-0.2,0.9-0.6,1.2c-0.4,0.3-0.8,0.5-1.3,0.5H925z"/>
		<path d="M45.7,108.3c0.4-0.2,0.8-0.1,1.2,0.1c0.4,0.2,0.6,0.5,0.7,1l0.9,3.7c0.1,0.5,0,0.9-0.2,1.4c-0.2,0.4-0.5,0.8-1,1
			c-4.4,1.9-9.7,4.2-16.1,6.8c-0.5,0.2-0.9,0.1-1.3,0c-0.4-0.2-0.7-0.5-0.8-0.9l-1.4-4.4c0-0.2,0-0.4,0-0.5c0-0.3,0.1-0.5,0.2-0.8
			c0.2-0.4,0.5-0.7,1-0.9c1.6-0.5,3.2-1.1,4.7-1.6c0.2,0,0.2-0.1,0.2-0.3l-1-26c0-0.5,0.1-0.9,0.4-1.3c0.3-0.4,0.7-0.5,1.2-0.5
			l4.1-0.2c0,0,0.1,0,0.1,0c0.4,0,0.8,0.2,1.2,0.5c0.4,0.3,0.5,0.7,0.5,1.2l0.9,23.5c0,0.1,0.1,0.2,0.2,0.1
			C42.4,109.6,43.9,109.1,45.7,108.3z M74,121.1c0.2,0.4,0.3,0.7,0.3,1.1c0,0.6-0.2,1.1-0.6,1.5l-3.7,3.6c-0.3,0.3-0.7,0.4-1.1,0.4
			c-0.4-0.1-0.7-0.3-1-0.6c-1.5-2.4-3.9-5.6-7.3-9.6c-0.1-0.1-0.2-0.1-0.3,0c-3.2,4.3-7.3,7.7-12.3,10.4c-0.3,0.1-0.6,0.2-0.9,0.2
			c-0.2,0-0.4,0-0.5,0c-0.4-0.1-0.8-0.4-1.2-0.8c-1-1.3-2.2-2.6-3.5-3.9c-0.2-0.2-0.3-0.5-0.3-0.8c0-0.5,0.2-0.9,0.7-1.1
			c3.3-1.4,6.1-3.2,8.5-5.4c2.4-2.1,4.3-4.7,5.9-7.7c1.5-3,2.7-6.2,3.6-9.8c0.9-3.5,1.5-7.6,1.9-12.3c0.1-0.4,0.3-0.8,0.6-1.2
			c0.3-0.3,0.7-0.4,1.1-0.4c0,0,0.1,0,0.1,0l4.6,0.4c0.5,0,0.9,0.2,1.2,0.6c0.3,0.4,0.4,0.8,0.4,1.3c-1.1,9.4-2.9,17-5.6,23
			c0,0.1,0,0.3,0.1,0.4C69.4,115.4,72.4,119,74,121.1z M56.9,97.8c0.2,0.4,0.3,0.9,0.1,1.3c-0.2,0.5-0.4,0.8-0.9,1l-4,2.2
			c-0.4,0.2-0.8,0.3-1.2,0.1c-0.4-0.2-0.7-0.4-0.9-0.9c-1.3-3-3.2-6.2-5.6-9.5c-0.3-0.4-0.3-0.7-0.2-1.2c0.1-0.4,0.3-0.7,0.7-0.9
			l3.6-1.7c0.5-0.2,1-0.3,1.5-0.2c0.5,0.1,0.9,0.3,1.2,0.7C53.3,91.7,55.3,94.7,56.9,97.8z"/>
		<path d="M78.2,117.2c0-0.5,0.2-0.9,0.5-1.2c0.3-0.3,0.7-0.5,1.2-0.5h40.7c0.5,0,0.9,0.2,1.2,0.5c0.3,0.3,0.5,0.7,0.5,1.2v4.9
			c0,0.5-0.2,0.8-0.5,1.2c-0.3,0.3-0.7,0.5-1.2,0.5H80c-0.5,0-0.9-0.2-1.2-0.5s-0.5-0.7-0.5-1.2V117.2z M82.3,89
			c0-0.5,0.2-0.9,0.5-1.2c0.3-0.3,0.7-0.5,1.2-0.5h32.6c0.4,0,0.8,0.2,1.2,0.5s0.5,0.7,0.5,1.2v4.5c0,0.4-0.2,0.8-0.5,1.2
			c-0.3,0.3-0.7,0.5-1.2,0.5H84c-0.5,0-0.8-0.2-1.2-0.5c-0.3-0.3-0.5-0.7-0.5-1.2V89z"/>
		<path d="M170.8,98c0.4,0,0.8,0.2,1.2,0.5c0.3,0.3,0.5,0.7,0.5,1.2v4.1c0,0.5-0.2,0.8-0.5,1.2c-0.3,0.3-0.7,0.5-1.2,0.5h-16.9
			c-0.1,0-0.2,0.1-0.2,0.2v19.9c0,0.5-0.2,0.9-0.5,1.2c-0.3,0.3-0.7,0.5-1.2,0.5h-4.4c-0.5,0-0.9-0.2-1.2-0.5
			c-0.3-0.3-0.5-0.7-0.5-1.2v-19.9c0-0.2-0.1-0.2-0.2-0.2h-16.7c-0.5,0-0.9-0.2-1.2-0.5c-0.3-0.3-0.5-0.7-0.5-1.2v-4.1
			c0-0.4,0.2-0.8,0.5-1.2c0.3-0.3,0.7-0.5,1.2-0.5h16.7c0.1,0,0.2-0.1,0.2-0.2V82.3c0-0.4,0.2-0.8,0.5-1.2c0.3-0.3,0.7-0.5,1.2-0.5
			h4.4c0.5,0,0.9,0.2,1.2,0.5c0.3,0.3,0.5,0.7,0.5,1.2v15.5c0,0.2,0.1,0.2,0.2,0.2H170.8z"/>
		<path d="M177.8,87.7c0-0.5,0.2-0.9,0.5-1.2c0.3-0.3,0.7-0.5,1.2-0.5h39c0.5,0,0.9,0.2,1.2,0.5c0.3,0.3,0.5,0.7,0.5,1.2V125
			c0,0.5-0.2,0.9-0.5,1.2c-0.3,0.3-0.7,0.5-1.2,0.5h-4.2c-0.5,0-0.9-0.2-1.2-0.5c-0.3-0.3-0.5-0.7-0.5-1.2v-0.7
			c0-0.2-0.1-0.2-0.2-0.2h-27.1c-0.2,0-0.2,0.1-0.2,0.2v1.1c0,0.5-0.2,0.9-0.5,1.2c-0.3,0.3-0.7,0.5-1.2,0.5h-3.9
			c-0.4,0-0.8-0.2-1.2-0.5c-0.3-0.3-0.5-0.7-0.5-1.2V87.7z M185,117c0,0.2,0.1,0.2,0.2,0.2h27.1c0.2,0,0.2-0.1,0.2-0.2v-7
			c0-0.2-0.1-0.2-0.2-0.1c-0.2,0.2-0.5,0.3-0.7,0.4c-0.8,0.4-1.8,0.6-3.1,0.6h-3.1c-1.7,0-3-0.5-4-1.5c-0.5-0.5-0.9-1.2-1.1-2
			c-0.2-0.8-0.3-2.1-0.3-3.8V93.1c0-0.1-0.1-0.2-0.2-0.2h-2.6c-0.2,0-0.2,0.1-0.2,0.2c-0.2,4.6-0.8,8.4-1.7,11.6
			c-0.9,3.1-2.6,5.8-4.9,7.9c-0.3,0.3-0.7,0.4-1.1,0.4c-0.4-0.1-0.8-0.3-1-0.7c-0.9-1.3-1.9-2.5-2.9-3.4c0,0-0.1,0-0.1,0
			c0,0-0.1,0-0.1,0.1V117z M190,93.1c0-0.1-0.1-0.2-0.2-0.2h-4.5c-0.2,0-0.2,0.1-0.2,0.2v14.6c0,0,0,0.1,0.1,0.1c0,0,0.1,0,0.1,0
			c1.8-1.6,3-3.5,3.6-5.8C189.5,99.6,189.9,96.7,190,93.1z M212.4,102.2c0.1,0,0.2,0,0.2-0.1v-9c0-0.1-0.1-0.2-0.2-0.2h-5.2
			c-0.1,0-0.2,0.1-0.2,0.2v10.5c0,0.5,0,0.8,0,0.9c0,0.2,0.1,0.3,0.2,0.4c0.1,0.1,0.2,0.1,0.3,0.1h0.7c0.2,0,0.4,0,0.6-0.1
			c0.2-0.1,0.3-0.5,0.4-1c0.1-0.3,0.1-1,0.1-2c0-0.4,0.2-0.6,0.5-0.7c0.3-0.1,0.6-0.1,0.9,0.1C211.1,101.5,211.7,101.9,212.4,102.2z
			"/>
		<path d="M269.8,116.5c0,0.4-0.2,0.8-0.5,1.2c-0.3,0.3-0.7,0.5-1.2,0.5h-3.7c0,0,0,0,0,0c0,0,0,0.1,0,0.1c2.6,1.8,4.8,3.5,6.7,5.2
			c0.3,0.3,0.4,0.6,0.4,1c0,0.5-0.2,0.9-0.6,1.2l-2.6,1.9c-0.4,0.3-0.8,0.4-1.3,0.3c-0.5,0-0.9-0.2-1.3-0.6c-1.3-1.2-3-2.7-5.2-4.6
			c-0.3-0.3-0.5-0.6-0.5-1c0-0.4,0.2-0.8,0.6-1l3.4-2.3c0,0,0-0.1,0-0.1c0,0,0,0-0.1,0h-10.2c0,0-0.1,0-0.1,0c0,0,0,0.1,0,0.1
			l3.4,2.2c0.4,0.3,0.6,0.6,0.6,1c0,0.4-0.1,0.8-0.5,1.1c-2.2,2-4.7,3.8-7.4,5.2c-0.3,0.2-0.6,0.2-1,0.2c-0.2,0-0.3,0-0.4,0
			c-0.5-0.1-0.9-0.4-1.3-0.7c-1-1.1-2.1-2.1-3.1-2.9c-0.1-0.1-0.2-0.1-0.3,0c-0.3,0.3-0.6,0.5-1.1,0.5c-0.4,0-0.8-0.1-1.1-0.4
			c-1-0.9-2.6-2.1-4.6-3.6c-0.1-0.1-0.2,0-0.3,0c-1.6,2.6-4.1,4.8-7.4,6.4c-0.4,0.2-0.9,0.3-1.3,0.1c-0.5-0.2-0.8-0.4-1.1-0.9
			c-0.5-0.9-1.2-1.7-1.8-2.5c-0.2-0.3-0.3-0.5-0.3-0.8c0-0.1,0-0.2,0-0.3c0.1-0.4,0.3-0.7,0.7-0.9c3.6-1.7,5.8-4.1,6.6-7.2
			c0-0.1,0-0.2-0.1-0.2h-4.9c-0.5,0-0.8-0.2-1.2-0.5c-0.3-0.3-0.5-0.7-0.5-1.2v-2.7c0-0.5,0.2-0.9,0.5-1.2c0.3-0.3,0.7-0.5,1.2-0.5
			h5.3c0.2,0,0.2-0.1,0.2-0.2v-1.1c0-0.5,0.2-0.9,0.5-1.2c0.3-0.3,0.7-0.5,1.2-0.5h3c0.5,0,0.9,0.2,1.2,0.5c0.3,0.3,0.5,0.7,0.5,1.2
			v1.1c0,0.2,0.1,0.2,0.2,0.2h6c0.5,0,0.9,0.2,1.2,0.5c0.3,0.3,0.5,0.7,0.5,1.2v2.7c0,0.5-0.2,0.9-0.5,1.2c-0.3,0.3-0.7,0.5-1.2,0.5
			h-6.3c-0.1,0-0.2,0-0.2,0.1c0,0.1,0,0.2,0.1,0.2c2.9,1.8,5.1,3.3,6.8,4.6c0.4,0.3,0.6,0.7,0.6,1.1c0,0.5-0.1,0.9-0.4,1.2l-1.5,1.6
			l0,0c2.9-1.4,5.4-3.2,7.6-5.3c0,0,0-0.1,0-0.1c0,0-0.1,0-0.1,0h-1.7c-0.5,0-0.9-0.2-1.2-0.5c-0.3-0.3-0.5-0.7-0.5-1.2v-23
			c0-0.5,0.2-0.9,0.5-1.2c0.3-0.3,0.7-0.5,1.2-0.5h4c0.1,0,0.2-0.1,0.2-0.2c0-0.2,0.1-0.5,0.2-1c0.1-0.4,0.2-0.7,0.2-0.9
			c0-0.2,0-0.2-0.1-0.2h-5.7c-0.5,0-0.9-0.2-1.2-0.5c-0.3-0.3-0.5-0.7-0.5-1.2v-2.6c0-0.5,0.2-0.9,0.5-1.2c0.3-0.3,0.7-0.5,1.2-0.5
			h20.2c0.4,0,0.8,0.2,1.2,0.5c0.3,0.3,0.5,0.7,0.5,1.2v2.6c0,0.5-0.2,0.8-0.5,1.2c-0.3,0.3-0.7,0.5-1.2,0.5h-6.4
			c-0.2,0-0.3,0.1-0.3,0.2c-0.4,0.8-0.6,1.5-0.9,1.9c0,0.1,0,0.2,0.1,0.2h6.3c0.5,0,0.9,0.2,1.2,0.5c0.3,0.3,0.5,0.7,0.5,1.2V116.5z
			 M234.7,104.6c-0.5,0-0.9-0.2-1.2-0.5c-0.3-0.3-0.5-0.7-0.5-1.2v-1.2c0-0.1,0-0.1,0-0.1c0,0-0.1,0-0.1,0c-1,1.3-2.1,2.3-3.1,3.2
			c-0.4,0.3-0.8,0.4-1.2,0.3c-0.5-0.1-0.8-0.3-1.1-0.6c-0.6-0.7-1.2-1.4-1.8-2.1c-0.3-0.3-0.4-0.6-0.4-1.1c0-0.4,0.2-0.8,0.6-1
			c1.9-1.3,3.6-2.9,5.1-4.7c0.1-0.1,0.1-0.2-0.1-0.2h-3.6c-0.5,0-0.8-0.2-1.2-0.5c-0.3-0.3-0.5-0.7-0.5-1.2v-2.1
			c0-0.5,0.2-0.9,0.5-1.2c0.3-0.3,0.7-0.5,1.2-0.5h0.3c0.1,0,0.2-0.1,0.1-0.2c-0.2-1.1-0.6-2.3-1.2-3.8c-0.2-0.4-0.2-0.8,0-1.3
			c0.2-0.4,0.4-0.7,0.9-0.8l1.5-0.6c0.4-0.2,0.9-0.2,1.4,0c0.5,0.2,0.8,0.5,1.1,0.9c0.4,0.9,0.8,1.7,1.1,2.5
			c0.2,0.5,0.1,0.9-0.1,1.3c-0.2,0.4-0.6,0.7-1.1,0.9l-2.4,0.9c0,0,0,0,0,0c0,0,0,0,0,0h4c0.2,0,0.2-0.1,0.2-0.2v-5.7
			c0-0.4,0.2-0.8,0.5-1.2c0.3-0.3,0.7-0.5,1.2-0.5h2.7c0.5,0,0.9,0.2,1.2,0.5c0.3,0.3,0.5,0.7,0.5,1.2v5.7c0,0.1,0.1,0.2,0.2,0.2
			h5.6c0.4,0,0.8,0.2,1.2,0.5c0.3,0.3,0.5,0.7,0.5,1.2v2.1c0,0.4-0.2,0.8-0.5,1.2c-0.3,0.3-0.7,0.5-1.2,0.5h-4.7c0,0-0.1,0-0.1,0
			c0,0,0,0,0,0c1.7,0.9,3.6,2,5.8,3.3c0.4,0.2,0.7,0.6,0.7,1c0.1,0.4,0,0.9-0.3,1.3l-1.6,2.2c-0.3,0.4-0.6,0.6-1.1,0.6
			c-0.5,0-0.9-0.1-1.2-0.4c-0.9-0.8-2-1.7-3.2-2.6c-0.1-0.1-0.1,0-0.1,0.1v2c0,0.5-0.2,0.9-0.5,1.2c-0.3,0.3-0.7,0.5-1.2,0.5H234.7z
			 M241.1,84.1c0.1-0.4,0.4-0.8,0.8-1c0.4-0.2,0.8-0.3,1.3-0.2l2.5,0.6c0.4,0.1,0.7,0.3,0.9,0.7c0.2,0.4,0.2,0.8,0,1.2
			c-0.9,1.6-1.4,2.6-1.6,3c-0.3,0.4-0.6,0.7-1.1,0.9c-0.5,0.2-0.9,0.2-1.4,0l-1.3-0.4c-0.4-0.1-0.8-0.4-1-0.8
			c-0.2-0.4-0.2-0.8,0-1.3C240.5,86,240.8,85.1,241.1,84.1z M262.8,99.1c0.1,0,0.2-0.1,0.2-0.2v-1.6c0-0.1-0.1-0.2-0.2-0.2h-7.6
			c-0.2,0-0.2,0.1-0.2,0.2v1.6c0,0.2,0.1,0.2,0.2,0.2H262.8z M262.8,106c0.1,0,0.2-0.1,0.2-0.2v-1.6c0-0.2-0.1-0.2-0.2-0.2h-7.6
			c-0.2,0-0.2,0.1-0.2,0.2v1.6c0,0.1,0.1,0.2,0.2,0.2H262.8z M262.8,113c0.1,0,0.2-0.1,0.2-0.2v-1.7c0-0.1-0.1-0.2-0.2-0.2h-7.6
			c-0.2,0-0.2,0.1-0.2,0.2v1.7c0,0.2,0.1,0.2,0.2,0.2H262.8z"/>
		<path d="M312.8,87.8c0,0,0,0.1,0,0.1c0,0,0,0.1,0.1,0.1h4.7c0.5,0,0.9,0.2,1.2,0.5c0.3,0.3,0.5,0.7,0.5,1.2v9.2
			c0,0.5-0.2,0.9-0.5,1.2c-0.3,0.3-0.7,0.5-1.2,0.5h-3.7c-0.5,0-0.9-0.2-1.2-0.5c-0.3-0.3-0.5-0.7-0.5-1.2v-4.6
			c0-0.1-0.1-0.2-0.2-0.2H283c-0.1,0-0.2,0.1-0.2,0.2v4.6c0,0.5-0.2,0.9-0.5,1.2c-0.3,0.3-0.7,0.5-1.2,0.5h-3.4
			c-0.5,0-0.9-0.2-1.2-0.5c-0.3-0.3-0.5-0.7-0.5-1.2v-9.2c0-0.5,0.2-0.9,0.5-1.2c0.3-0.3,0.7-0.5,1.2-0.5h4.1c0.1,0,0.2-0.1,0.1-0.2
			c-0.3-0.6-0.7-1.2-1.1-1.9c-0.3-0.4-0.3-0.7-0.2-1.2c0.1-0.4,0.4-0.7,0.8-0.9l3.4-1.3c0.5-0.2,1-0.2,1.5-0.1
			c0.5,0.1,0.9,0.4,1.2,0.8c0.5,0.7,1,1.4,1.4,2.2c0.2,0.4,0.2,0.8,0.1,1.3c-0.2,0.4-0.5,0.7-0.9,0.9l-0.7,0.3c0,0,0,0,0,0.1h6
			c0.1,0,0.2-0.1,0.2-0.2v-4.4c0-0.5,0.2-0.9,0.5-1.2c0.3-0.3,0.7-0.5,1.2-0.5h4c0.5,0,0.9,0.2,1.2,0.5c0.3,0.3,0.5,0.7,0.5,1.2v4.4
			c0,0.2,0.1,0.2,0.2,0.2h6.2c0,0,0,0,0-0.1l-0.7-0.2c-0.4-0.2-0.6-0.4-0.8-0.8c-0.1-0.4-0.1-0.8,0.1-1.1c0.5-0.7,1-1.5,1.4-2.2
			c0.3-0.4,0.6-0.8,1.1-1c0.5-0.2,0.9-0.2,1.4-0.1l4.5,1.3c0.4,0.1,0.6,0.3,0.7,0.7c0.1,0.4,0,0.7-0.2,1
			C314,86.5,313.3,87.3,312.8,87.8z M314.8,110.1c0.4,0,0.8,0.2,1.2,0.5c0.3,0.3,0.5,0.7,0.5,1.2v8.3c0,1.6-0.2,2.9-0.6,3.8
			c-0.4,0.9-1.2,1.6-2.2,2.1c-1.4,0.6-3.7,1-6.6,1c-0.5,0-0.9-0.1-1.3-0.4c-0.4-0.3-0.6-0.7-0.8-1.2c-0.3-1.1-0.7-2.2-1.2-3.3
			c-0.2-0.4-0.1-0.7,0.1-1.1c0.2-0.3,0.5-0.5,0.9-0.4c1,0,2.1,0,3.4,0c0.4,0,0.6,0,0.8-0.1s0.2-0.3,0.2-0.5v-3.3
			c0-0.2-0.1-0.2-0.2-0.2H302c-0.2,0-0.2,0.1-0.2,0.2v10.2c0,0.4-0.2,0.8-0.5,1.2c-0.3,0.3-0.7,0.5-1.2,0.5h-4
			c-0.5,0-0.9-0.2-1.2-0.5c-0.3-0.3-0.5-0.7-0.5-1.2v-10.2c0-0.2-0.1-0.2-0.2-0.2h-7.4c-0.1,0-0.2,0.1-0.2,0.2v8
			c0,0.4-0.2,0.8-0.5,1.2c-0.3,0.3-0.7,0.5-1.2,0.5h-3.9c-0.5,0-0.9-0.2-1.2-0.5c-0.3-0.3-0.5-0.7-0.5-1.2v-12.9
			c0-0.5,0.2-0.9,0.5-1.2c0.3-0.3,0.7-0.5,1.2-0.5h13.1c0.1,0,0.2-0.1,0.2-0.2V108c0-0.2-0.1-0.2-0.2-0.2h-8.2
			c-0.5,0-0.9-0.2-1.2-0.5c-0.3-0.3-0.5-0.7-0.5-1.2v-8.6c0-0.5,0.2-0.9,0.5-1.2c0.3-0.3,0.7-0.5,1.2-0.5h23.3
			c0.5,0,0.9,0.2,1.2,0.5c0.3,0.3,0.5,0.7,0.5,1.2v8.6c0,0.4-0.2,0.8-0.5,1.2c-0.3,0.3-0.7,0.5-1.2,0.5H302c-0.2,0-0.2,0.1-0.2,0.2
			v1.9c0,0.1,0.1,0.2,0.2,0.2H314.8z M291.2,100.8c-0.1,0-0.2,0.1-0.2,0.2v1.7c0,0.2,0.1,0.2,0.2,0.2h12c0.2,0,0.2-0.1,0.2-0.2V101
			c0-0.1-0.1-0.2-0.2-0.2H291.2z"/>
		<path d="M357.8,120.3h3.9c0.8,0,1.3-0.4,1.5-1.2c0.2-0.6,0.3-1.8,0.4-3.6c0-0.4,0.2-0.6,0.5-0.8c0.3-0.2,0.6-0.1,1,0
			c1,0.5,2.1,1,3.5,1.4c0.5,0.1,0.9,0.4,1.1,0.8c0.3,0.3,0.4,0.7,0.4,1.1c0,0.1,0,0.2,0,0.2c-0.4,3.1-1,5.3-2,6.5
			c-1.1,1.4-3,2.1-5.7,2.1h-5.7c-3.2,0-5.4-0.6-6.5-1.8c-1.1-1.2-1.7-3.5-1.7-6.8v-6.5c0-0.1-0.1-0.2-0.2-0.2h-4.2
			c-0.2,0-0.3,0.1-0.3,0.2c-0.3,2.1-0.6,3.9-1.2,5.3c-0.5,1.5-1.4,2.9-2.6,4.3c-1.2,1.4-2.8,2.6-4.9,3.6c-1.7,0.8-3.7,1.5-6.1,2.2
			c-0.2,0-0.3,0-0.5,0c-0.3,0-0.6-0.1-0.9-0.2c-0.5-0.2-0.8-0.6-1-1c-0.3-0.5-0.6-1.1-1-1.7c-0.4-0.7-0.8-1.3-1.3-1.8
			c-0.1-0.2-0.2-0.4-0.2-0.6c0-0.1,0-0.2,0-0.3c0.1-0.4,0.4-0.6,0.7-0.7c2.5-0.5,4.5-1.2,6-1.9c1.8-0.9,3.1-1.9,3.7-3
			c0.6-1.1,1.1-2.4,1.3-4.1c0-0.1,0-0.2-0.2-0.2h-3.8c-0.4,0-0.8-0.2-1.2-0.5c-0.3-0.3-0.5-0.7-0.5-1.2V83.7c0-0.4,0.2-0.8,0.5-1.2
			c0.3-0.3,0.7-0.5,1.2-0.5h29.7c0.5,0,0.9,0.2,1.2,0.5c0.3,0.3,0.5,0.7,0.5,1.2V110c0,0.5-0.2,0.9-0.5,1.2
			c-0.3,0.3-0.7,0.5-1.2,0.5h-5.7c-0.2,0-0.2,0.1-0.2,0.2v6.5c0,0.9,0.1,1.4,0.3,1.6C356.4,120.2,356.9,120.3,357.8,120.3z
			 M337.6,88.3c-0.1,0-0.2,0.1-0.2,0.2V90c0,0.1,0.1,0.2,0.2,0.2H356c0.2,0,0.2-0.1,0.2-0.2v-1.5c0-0.1-0.1-0.2-0.2-0.2H337.6z
			 M337.6,95.9c-0.1,0-0.2,0.1-0.2,0.2v1.4c0,0.2,0.1,0.2,0.2,0.2H356c0.2,0,0.2-0.1,0.2-0.2v-1.4c0-0.2-0.1-0.2-0.2-0.2H337.6z
			 M337.6,103.6c-0.1,0-0.2,0.1-0.2,0.2v1.4c0,0.2,0.1,0.2,0.2,0.2H356c0.2,0,0.2-0.1,0.2-0.2v-1.4c0-0.2-0.1-0.2-0.2-0.2H337.6z"/>
		<path d="M418.5,113.9c0,0.5-0.2,0.9-0.5,1.2c-0.3,0.3-0.7,0.5-1.2,0.5h-14.3c0,0-0.1,0-0.1,0c0,0,0,0.1,0,0.1
			c3.4,3.2,8.7,5.3,15.8,6.1c0.4,0.1,0.6,0.3,0.7,0.6c0.1,0.1,0.1,0.2,0.1,0.3c0,0.2-0.1,0.4-0.2,0.6c-0.9,1.2-1.7,2.4-2.5,3.8
			c-0.3,0.4-0.6,0.8-1.1,1c-0.3,0.2-0.7,0.2-1,0.2c-0.1,0-0.3,0-0.4,0c-3.9-0.7-7.2-1.9-10-3.4c-2.8-1.5-5.1-3.5-7.1-5.9
			c-0.1-0.1-0.2-0.1-0.3,0c-3.3,4.2-9.2,7.3-17.7,9.3c-0.5,0.1-1,0-1.4-0.2c-0.5-0.2-0.8-0.5-1.1-0.9c-0.8-1.2-1.6-2.3-2.5-3.4
			c-0.1-0.2-0.2-0.4-0.2-0.6c0-0.1,0-0.2,0-0.3c0.1-0.4,0.3-0.6,0.7-0.6c7.6-1.4,12.8-3.6,15.4-6.5c0,0,0-0.1,0-0.1c0,0-0.1,0-0.1,0
			h-14.1c-0.5,0-0.9-0.2-1.2-0.5c-0.3-0.3-0.5-0.7-0.5-1.2v-3.2c0-0.4,0.2-0.8,0.5-1.2c0.3-0.3,0.7-0.5,1.2-0.5h2.6
			c0.1,0,0.2-0.1,0.2-0.2v-9.3c0-0.5,0.2-0.9,0.5-1.2c0.3-0.3,0.7-0.5,1.2-0.5h12c0.1,0,0.2-0.1,0.2-0.2v-2.6c0-0.5,0.2-0.9,0.5-1.2
			c0.3-0.3,0.7-0.5,1.2-0.5h4.1c0.5,0,0.9,0.2,1.2,0.5c0.3,0.3,0.5,0.7,0.5,1.2v2.6c0,0.1,0.1,0.2,0.2,0.2h12.7
			c0.5,0,0.9,0.2,1.2,0.5c0.3,0.3,0.5,0.7,0.5,1.2v9.3c0,0.2,0.1,0.2,0.2,0.2h2.2c0.5,0,0.9,0.2,1.2,0.5c0.3,0.3,0.5,0.7,0.5,1.2
			V113.9z M385,95.5c-0.4,0-0.8-0.2-1.2-0.5c-0.3-0.3-0.5-0.7-0.5-1.2v-2.1c0-0.2-0.1-0.2-0.2-0.2h-7.3c-0.5,0-0.9-0.2-1.2-0.5
			c-0.3-0.3-0.5-0.7-0.5-1.2v-2.9c0-0.5,0.2-0.9,0.5-1.2c0.3-0.3,0.7-0.5,1.2-0.5h7.3c0.2,0,0.2-0.1,0.2-0.2v-1.5
			c0-0.5,0.2-0.9,0.5-1.2c0.3-0.3,0.7-0.5,1.2-0.5h3.7c0.4,0,0.8,0.2,1.2,0.5c0.3,0.3,0.5,0.7,0.5,1.2v1.5c0,0.1,0.1,0.2,0.2,0.2
			h10.7c0.2,0,0.2-0.1,0.2-0.2v-1.5c0-0.5,0.2-0.9,0.5-1.2c0.3-0.3,0.7-0.5,1.2-0.5h3.8c0.4,0,0.8,0.2,1.2,0.5
			c0.3,0.3,0.5,0.7,0.5,1.2v1.5c0,0.1,0.1,0.2,0.2,0.2h7.4c0.5,0,0.9,0.2,1.2,0.5c0.3,0.3,0.5,0.7,0.5,1.2v2.9
			c0,0.5-0.2,0.8-0.5,1.2c-0.3,0.3-0.7,0.5-1.2,0.5H409c-0.2,0-0.2,0.1-0.2,0.2v2.1c0,0.4-0.2,0.8-0.5,1.2c-0.3,0.3-0.7,0.5-1.2,0.5
			h-3.8c-0.5,0-0.9-0.2-1.2-0.5c-0.3-0.3-0.5-0.7-0.5-1.2v-2.1c0-0.2-0.1-0.2-0.2-0.2h-10.7c-0.2,0-0.2,0.1-0.2,0.2v2.1
			c0,0.4-0.2,0.8-0.5,1.2c-0.3,0.3-0.7,0.5-1.2,0.5H385z M385.1,108.8c0,0.2,0.1,0.2,0.2,0.2h6.6c0.1,0,0.2-0.1,0.2-0.2v-0.5v-4.1
			c0-0.2-0.1-0.2-0.2-0.2h-6.6c-0.1,0-0.2,0.1-0.2,0.2V108.8z M407,104.1c0-0.2-0.1-0.2-0.2-0.2h-6.9c-0.1,0-0.2,0.1-0.2,0.2v4.2
			v0.4c0,0.2,0.1,0.2,0.2,0.2h6.9c0.1,0,0.2-0.1,0.2-0.2V104.1z"/>
		<path d="M468.3,93.5c0,0.5-0.2,0.8-0.5,1.2c-0.3,0.3-0.7,0.5-1.2,0.5h-5c-0.2,0-0.3,0.1-0.3,0.2c-2.4,6.5-5.7,12.2-9.9,17
			c-0.1,0.1-0.1,0.2,0,0.3c4.5,3.3,9.9,5.7,16.3,7.3c0.4,0.1,0.6,0.3,0.7,0.7c0,0.1,0,0.2,0,0.3c0,0.2-0.1,0.4-0.2,0.6
			c-0.5,0.6-1.1,1.3-1.6,2.1c-0.6,0.8-1.1,1.6-1.6,2.3c-0.3,0.4-0.6,0.8-1.1,1c-0.3,0.1-0.6,0.1-0.8,0.1c-0.2,0-0.4,0-0.6,0
			c-6.9-2-12.6-4.9-17.3-8.7c-0.1-0.1-0.2-0.1-0.3,0c-4.8,3.7-10.5,6.6-17,8.8c-0.2,0.1-0.4,0.1-0.6,0.1c-0.3,0-0.5,0-0.8-0.1
			c-0.5-0.2-0.8-0.5-1-1c-0.4-0.6-0.8-1.2-1.3-1.9c-0.5-0.8-1-1.5-1.5-2.2c-0.2-0.2-0.2-0.4-0.2-0.7c0-0.1,0-0.3,0.1-0.4
			c0.1-0.4,0.3-0.6,0.7-0.7c6.5-1.8,11.8-4.2,16.1-7.3c0.1-0.1,0.1-0.2,0-0.3c-3.8-4.5-7-10.2-9.6-17.2c-0.1-0.1-0.2-0.2-0.3-0.2h-5
			c-0.5,0-0.9-0.2-1.2-0.5c-0.3-0.3-0.5-0.7-0.5-1.2v-3.7c0-0.4,0.2-0.8,0.5-1.2c0.3-0.3,0.7-0.5,1.2-0.5h16.9
			c0.2,0,0.2-0.1,0.2-0.2v-5.6c0-0.4,0.2-0.8,0.5-1.2c0.3-0.3,0.7-0.5,1.2-0.5h4c0.4,0,0.8,0.2,1.2,0.5c0.3,0.3,0.5,0.7,0.5,1.2v5.6
			c0,0.2,0.1,0.2,0.2,0.2h17.2c0.4,0,0.8,0.2,1.2,0.5c0.3,0.3,0.5,0.7,0.5,1.2V93.5z M452.8,95.3c0.1-0.1,0-0.2-0.1-0.2H438
			c-0.2,0-0.2,0.1-0.1,0.2c1.9,4.5,4.4,8.5,7.5,12c0.1,0.1,0.2,0.1,0.3,0C448.7,103.8,451,99.8,452.8,95.3z"/>
		<path d="M510.3,107.4c0,0.5-0.2,0.9-0.5,1.2c-0.3,0.3-0.7,0.5-1.2,0.5h-17.2c-0.2,0-0.3,0.1-0.3,0.2c-0.2,0.3-0.5,0.8-0.9,1.3
			c-0.1,0.1,0,0.2,0.1,0.2h23.2c0.5,0,0.9,0.2,1.2,0.5c0.3,0.3,0.5,0.7,0.5,1.2c0,0.3,0,0.5,0,0.7c-0.2,4-0.5,7-0.8,9
			c-0.3,2-0.8,3.3-1.4,4c-1,1.1-2.4,1.7-4.1,2c-0.9,0.2-2.2,0.2-4.1,0.2c-0.1,0-0.3,0-0.5,0c-0.5,0-0.9-0.2-1.2-0.5
			c-0.4-0.3-0.6-0.7-0.7-1.2c-0.3-1.5-0.8-2.8-1.4-4c0-0.1,0-0.2,0-0.3c0-0.1,0.1-0.1,0.3-0.1l0,0c-0.3-0.7-0.8-1.6-1.4-2.6
			c-0.3-0.4-0.3-0.8-0.2-1.2c0.1-0.4,0.4-0.7,0.8-0.9l2.6-1.1c0,0,0,0,0-0.1h-18.2c-0.2,0-0.3,0-0.4,0.1c-0.3,0.3-0.8,0.6-1.3,1
			c0,0,0,0.1,0,0.1c0,0,0,0.1,0.1,0.1l0.5,0.2c0.5,0.1,0.8,0.4,1.1,0.8c0.3,0.4,0.3,0.9,0.2,1.3c-0.6,2.8-1.5,4.9-2.6,6.5
			c-0.3,0.4-0.7,0.7-1.2,0.8c-0.5,0.1-1,0-1.4-0.2l-2.3-1.3c-0.4-0.2-0.6-0.5-0.7-0.9c-0.1-0.4,0-0.8,0.3-1.2
			c0.6-0.9,1.2-2.1,1.6-3.4c0,0,0-0.1,0-0.1s-0.1,0-0.1,0c-0.5,0.3-1,0.5-1.4,0.7c-0.5,0.2-0.9,0.3-1.4,0.1
			c-0.5-0.1-0.8-0.4-1.1-0.8c-0.7-1-1.4-2-2-2.8c-0.2-0.2-0.3-0.5-0.3-0.7c0-0.1,0-0.2,0-0.3c0.1-0.4,0.3-0.6,0.7-0.8
			c4.2-1.6,7.5-3.7,10-6.3c0,0,0-0.1,0-0.1c0,0,0,0-0.1,0h-2.3c-0.5,0-0.9-0.2-1.2-0.5c-0.3-0.3-0.5-0.7-0.5-1.2V96.1
			c0-0.2-0.1-0.2-0.2-0.2h-4c-0.5,0-0.9-0.2-1.2-0.5c-0.3-0.3-0.5-0.7-0.5-1.2v-7.6c0-0.4,0.2-0.8,0.5-1.2c0.3-0.3,0.7-0.5,1.2-0.5
			h16.1c0.1,0,0.2-0.1,0.2-0.2v-1.1c0-0.5,0.2-0.9,0.5-1.2c0.3-0.3,0.7-0.5,1.2-0.5h3.8c0.5,0,0.9,0.2,1.2,0.5
			c0.3,0.3,0.5,0.7,0.5,1.2v1.1c0,0.2,0.1,0.2,0.2,0.2h16.1c0.5,0,0.9,0.2,1.2,0.5c0.3,0.3,0.5,0.7,0.5,1.2v7.6
			c0,0.5-0.2,0.9-0.5,1.2c-0.3,0.3-0.7,0.5-1.2,0.5h-4.2c-0.1,0-0.2,0.1-0.2,0.2V107.4z M489.8,91C489.8,90.9,489.8,90.9,489.8,91
			l-10.1-0.1c-0.1,0-0.2,0.1-0.2,0.2v1.5c0,0.2,0.1,0.3,0.2,0.3l2.9,0.4c0.1,0,0.3,0,0.4,0C485.8,92.6,488.1,91.8,489.8,91z
			 M485.6,103.2c-0.2,0-0.2,0.1-0.2,0.2v0.8c0,0.1,0.1,0.2,0.2,0.2h18c0.1,0,0.2-0.1,0.2-0.2v-0.8c0-0.1-0.1-0.2-0.2-0.2h-5.4
			c-0.5,0-0.8-0.2-1.2-0.5c-0.3-0.3-0.5-0.7-0.5-1.2v-1.2c0-0.5,0.2-0.9,0.5-1.2c0.3-0.3,0.7-0.5,1.2-0.5h5.4c0.1,0,0.2-0.1,0.2-0.2
			v-0.7c0-0.2-0.1-0.2-0.2-0.2h-6.3c-0.5,0-0.9-0.2-1.2-0.5c-0.3-0.3-0.5-0.7-0.5-1.2v-1.3c0-0.4,0.2-0.8,0.5-1.2
			c0.3-0.3,0.7-0.5,1.2-0.5h12.1c0.1,0,0.2-0.1,0.2-0.2v-1.4c0-0.1-0.1-0.2-0.2-0.2h-18.8c0,0-0.1,0-0.1,0c0,0,0,0.1,0,0.1l2.6,2.7
			c0.3,0.3,0.4,0.6,0.3,1c-0.1,0.4-0.3,0.7-0.7,0.8c-2.2,0.8-4.7,1.4-7.3,1.9c-0.2,0-0.2,0.1-0.2,0.3v0.6c0,0.2,0.1,0.2,0.2,0.2h5.6
			c0.4,0,0.8,0.2,1.2,0.5c0.3,0.3,0.5,0.7,0.5,1.2v1.2c0,0.5-0.2,0.9-0.5,1.2c-0.3,0.3-0.7,0.5-1.2,0.5H485.6z M486.3,119.8
			c-0.1-0.4,0-0.9,0.3-1.2c0.3-0.4,0.6-0.6,1.1-0.6l1.9-0.2c0.5-0.1,0.9,0,1.3,0.3c0.4,0.3,0.7,0.6,0.8,1.1c0.4,1.9,0.7,3.8,0.8,5.5
			c0,0.5-0.1,0.9-0.4,1.3c-0.3,0.4-0.7,0.6-1.2,0.6l-2.3,0.2c-0.4,0.1-0.8-0.1-1.1-0.4c-0.3-0.3-0.5-0.7-0.5-1.1
			C486.9,123.5,486.7,121.7,486.3,119.8z M493.1,120c-0.1-0.4-0.1-0.9,0.1-1.3c0.2-0.4,0.5-0.6,0.9-0.7l1.6-0.4
			c0.5-0.1,0.9-0.1,1.4,0.1c0.4,0.2,0.8,0.6,1,1c0.5,1.3,0.9,2.5,1.2,3.7c0.1,0.5,0.1,0.9-0.2,1.3c-0.3,0.4-0.6,0.7-1.1,0.8
			l-1.9,0.5c-0.4,0.1-0.8,0-1.2-0.2c-0.4-0.2-0.6-0.6-0.7-1C493.9,122.6,493.6,121.3,493.1,120z M505.4,119.2
			c0.2,0.4,0.3,0.8,0.1,1.3c-0.2,0.4-0.5,0.7-0.9,0.9l-2.1,0.9c0,0,0,0.1,0,0.1c0,0,0,0,0,0c0.9,0.1,1.6,0.1,2.1,0.1
			c0.3,0,0.4,0,0.6,0c0.8,0,1.3-0.2,1.6-0.5c0.5-0.5,0.8-2.3,1-5.4c0-0.2-0.1-0.2-0.2-0.2h-4c-0.1,0-0.1,0-0.1,0.1c0,0,0,0.1,0,0.1
			C504.2,117.3,504.8,118.2,505.4,119.2z"/>
		<path d="M530.2,83.5c0.2-0.4,0.5-0.8,0.9-1c0.3-0.1,0.5-0.1,0.8-0.1c0.2,0,0.4,0,0.5,0l3.7,1.2c0.4,0.1,0.8,0.4,1,0.8
			c0.2,0.4,0.2,0.9,0,1.3c-1.1,2.8-2.4,5.5-3.8,8.2c-0.1,0.2-0.1,0.3-0.1,0.4v32.5c0,0.4-0.2,0.8-0.5,1.2c-0.3,0.3-0.7,0.5-1.2,0.5
			h-3.8c-0.5,0-0.9-0.2-1.2-0.5c-0.3-0.3-0.5-0.7-0.5-1.2v-21.4c0,0,0-0.1,0-0.1c0,0-0.1,0-0.1,0c-0.2,0.3-0.5,0.6-0.8,0.9
			c-0.3,0.3-0.6,0.4-1,0.3c-0.4-0.1-0.7-0.3-0.8-0.7c-0.7-1.7-1.5-3.3-2.3-4.7c-0.2-0.4-0.3-0.7-0.3-1.2c0-0.1,0-0.2,0-0.2
			c0-0.5,0.2-1,0.6-1.3C524.9,94.5,527.9,89.4,530.2,83.5z M567.6,94.8c0,0.5-0.2,0.9-0.5,1.2c-0.3,0.3-0.7,0.5-1.2,0.5h-11.5
			c-0.1,0-0.2,0.1-0.2,0.2v3.7c0,0.2,0.1,0.2,0.2,0.2h10.1c0.5,0,0.9,0.2,1.2,0.5c0.3,0.3,0.5,0.7,0.5,1.2v3.1
			c0,0.5-0.2,0.9-0.5,1.2c-0.3,0.3-0.7,0.5-1.2,0.5h-10.1c-0.1,0-0.2,0.1-0.2,0.2v4c0,0.2,0.1,0.2,0.2,0.2h10.8
			c0.4,0,0.8,0.2,1.2,0.5c0.3,0.3,0.5,0.7,0.5,1.2v3.3c0,0.4-0.2,0.8-0.5,1.2c-0.3,0.3-0.7,0.5-1.2,0.5h-10.8
			c-0.1,0-0.2,0.1-0.2,0.2v8.5c0,0.4-0.2,0.8-0.5,1.2c-0.3,0.3-0.7,0.5-1.2,0.5h-3.9c-0.5,0-0.9-0.2-1.2-0.5
			c-0.3-0.3-0.5-0.7-0.5-1.2V96.7c0-0.1-0.1-0.2-0.2-0.2h-0.5c-0.1,0-0.2,0.1-0.3,0.2c-1.7,3-3.4,5.5-5.1,7.7
			c-0.3,0.4-0.7,0.5-1.1,0.5c-0.5,0-0.8-0.2-1.1-0.5c-0.9-0.9-1.9-1.8-2.9-2.7c-0.4-0.3-0.6-0.7-0.6-1.3c0-0.4,0.1-0.8,0.4-1.1
			c3.6-4.1,6.5-9.3,8.6-15.6c0.2-0.4,0.4-0.8,0.9-1c0.3-0.2,0.6-0.2,0.9-0.2c0.2,0,0.3,0,0.5,0.1l3.6,0.9c0.4,0.1,0.8,0.4,1,0.8
			c0.2,0.4,0.3,0.8,0.1,1.3c-0.5,1.3-1,2.6-1.6,3.9c0,0.1,0,0.2,0.1,0.2h16.5c0.5,0,0.9,0.2,1.2,0.5c0.3,0.3,0.5,0.7,0.5,1.2V94.8z"
			/>
		<path d="M611.4,97.6c0,0.1,0.1,0.2,0.2,0.2h3.5c0.5,0,0.9,0.2,1.2,0.5c0.3,0.3,0.5,0.7,0.5,1.2v2.7c0,0.4-0.2,0.8-0.5,1.2
			c-0.3,0.3-0.7,0.5-1.2,0.5h-23.7c-0.5,0-0.9-0.2-1.2-0.5c-0.3-0.3-0.5-0.7-0.5-1.2v-2.7c0-0.5,0.2-0.9,0.5-1.2
			c0.3-0.3,0.7-0.5,1.2-0.5h3.2c0.2,0,0.2-0.1,0.2-0.2v-3.9c0-0.2-0.1-0.2-0.2-0.2h-1.9c-0.4,0-0.8-0.2-1.2-0.5
			c-0.3-0.3-0.5-0.7-0.5-1.2v-0.3c0-0.1,0-0.1,0-0.1c0,0-0.1,0-0.1,0l-2.7,3.2c-0.1,0.1-0.1,0.3-0.1,0.4v3.3c0,0.5-0.2,0.9-0.5,1.2
			c-0.3,0.3-0.7,0.5-1.2,0.5h-2.7c-0.2,0-0.2,0.1-0.2,0.2v2.3c0,0.2,0.1,0.2,0.2,0.2h4c0.4,0,0.8,0.2,1.2,0.5
			c0.3,0.3,0.5,0.7,0.5,1.2v2.6c0,0.5-0.2,0.9-0.5,1.2c-0.3,0.3-0.7,0.5-1.2,0.5h-4c-0.2,0-0.2,0.1-0.2,0.2v8c0,0,0,0,0,0
			c0,0,0,0,0,0c0.4-1.7,0.8-3.5,1.2-5.6c0.1-0.4,0.3-0.8,0.7-1.1c0.4-0.3,0.8-0.3,1.2-0.2l2,0.5c0.4,0.1,0.8,0.3,1,0.7
			c0.2,0.4,0.3,0.8,0.1,1.2c-0.2,0.5-0.4,1.3-0.7,2.4c-0.3,1.1-0.6,1.8-0.7,2.3c-0.2,0.5-0.5,0.8-0.9,1c-0.4,0.2-0.9,0.3-1.3,0.1
			l-2.3-0.6c-0.1,0-0.2,0-0.2,0.1v1.6c0,0.2,0.1,0.2,0.2,0.2c2.1-0.3,3.6-0.5,4.7-0.6c0.5-0.1,0.9,0,1.3,0.3
			c0.4,0.3,0.5,0.7,0.5,1.1l0.2,2.6c0,0.5-0.1,0.9-0.4,1.3c-0.3,0.4-0.7,0.6-1.2,0.7c-3.6,0.6-8.6,1.4-15.2,2.5c-0.1,0-0.2,0-0.3,0
			c-0.4,0-0.7-0.1-1-0.3c-0.4-0.3-0.7-0.6-0.8-1.1l-0.7-3.1c-0.1-0.4,0-0.9,0.3-1.2c0.3-0.4,0.6-0.6,1.1-0.7
			c1.8-0.2,3.4-0.4,4.9-0.6c0.1,0,0.2-0.1,0.2-0.2v-2c0-0.2-0.1-0.2-0.2-0.2l-2.8,0.8c-0.4,0.1-0.8,0.1-1.2-0.2
			c-0.4-0.3-0.6-0.6-0.7-1.1c-0.2-1.4-0.5-3.1-0.9-4.9c-0.1-0.4-0.1-0.9,0.2-1.3c0.2-0.4,0.6-0.7,1.1-0.8l1.2-0.3
			c0.4-0.1,0.9-0.1,1.3,0.2s0.7,0.6,0.8,1c0.5,1.8,0.9,3.5,1.1,5h0v-7.8c0-0.1-0.1-0.2-0.2-0.2h-4.2c-0.5,0-0.9-0.2-1.2-0.5
			c-0.3-0.3-0.5-0.7-0.5-1.2v-2.6c0-0.5,0.2-0.9,0.5-1.2c0.3-0.3,0.7-0.5,1.2-0.5h4.2c0.1,0,0.2-0.1,0.2-0.2v-2.3
			c0-0.2-0.1-0.2-0.2-0.2h-2.2c-0.5,0-0.9-0.2-1.2-0.5c-0.3-0.3-0.5-0.7-0.5-1.2v-0.4c0-0.2,0-0.3-0.1-0.4c-0.8-1.1-1.6-2.1-2.6-3
			c-0.3-0.3-0.5-0.7-0.5-1.2c0-0.4,0.2-0.8,0.5-1.1c2.6-2.5,4.6-5.5,6.2-8.9c0.2-0.5,0.6-0.9,1-1.2c0.4-0.3,0.9-0.4,1.4-0.4h2.3
			c1.2,0,2.2,0.4,3,1.1c2.8,2.4,5,4.6,6.5,6.5c0,0,0.1,0,0.1,0c0,0,0,0,0-0.1v-0.1c0-0.5,0.2-0.9,0.5-1.2c0.3-0.3,0.7-0.5,1.2-0.5
			h1.9c0.2,0,0.2-0.1,0.2-0.2v-3.8c0-0.5,0.2-0.9,0.5-1.2c0.3-0.3,0.7-0.5,1.2-0.5h3c0.5,0,0.9,0.2,1.2,0.5c0.3,0.3,0.5,0.7,0.5,1.2
			v3.8c0,0.1,0.1,0.2,0.2,0.2h3.1c0.2,0,0.2-0.1,0.2-0.2v-3.8c0-0.5,0.2-0.9,0.5-1.2c0.3-0.3,0.7-0.5,1.2-0.5h3.1
			c0.5,0,0.9,0.2,1.2,0.5c0.3,0.3,0.5,0.7,0.5,1.2v3.8c0,0.1,0.1,0.2,0.2,0.2h2.4c0.5,0,0.9,0.2,1.2,0.5c0.3,0.3,0.5,0.7,0.5,1.2
			v2.6c0,0.4-0.2,0.8-0.5,1.2c-0.3,0.3-0.7,0.5-1.2,0.5h-2.4c-0.1,0-0.2,0.1-0.2,0.2V97.6z M577.6,93.8c-0.1,0.1-0.1,0.1,0.1,0.1
			h7.9c0.1,0,0.2,0,0.1-0.1c-1.4-2-2.8-3.7-4.3-5.2c-0.1-0.1-0.2-0.1-0.2,0C580,90.6,578.8,92.3,577.6,93.8z M594.3,128.5
			c-0.5,0-0.9-0.2-1.2-0.5c-0.3-0.3-0.5-0.7-0.5-1.2v-19.1c0-0.5,0.2-0.9,0.5-1.2c0.3-0.3,0.7-0.5,1.2-0.5h18.2
			c0.4,0,0.8,0.2,1.2,0.5c0.3,0.3,0.5,0.7,0.5,1.2v19.1c0,0.4-0.2,0.8-0.5,1.2c-0.3,0.3-0.7,0.5-1.2,0.5H609c-0.5,0-0.8-0.2-1.1-0.5
			c-0.3-0.3-0.5-0.7-0.5-1.1c0-0.2-0.1-0.2-0.2-0.2h-7.9c-0.1,0-0.2,0.1-0.2,0.2c0,0.4-0.2,0.8-0.5,1.1c-0.3,0.3-0.7,0.5-1.1,0.5
			H594.3z M607.4,111.8c0-0.2-0.1-0.2-0.2-0.2h-7.8c-0.1,0-0.2,0.1-0.2,0.2v1.5c0,0.2,0.1,0.2,0.2,0.2h7.8c0.2,0,0.2-0.1,0.2-0.2
			V111.8z M599.1,120.7c0,0.2,0.1,0.2,0.2,0.2h7.8c0.2,0,0.2-0.1,0.2-0.2V119c0-0.1-0.1-0.2-0.2-0.2h-7.8c-0.1,0-0.2,0.1-0.2,0.2
			V120.7z M601.5,93.4c-0.1,0-0.2,0.1-0.2,0.2v3.9c0,0.1,0.1,0.2,0.2,0.2h3.1c0.2,0,0.2-0.1,0.2-0.2v-3.9c0-0.2-0.1-0.2-0.2-0.2
			H601.5z"/>
		<path d="M635.5,89.9c0.5,0,0.9,0.2,1.2,0.5c0.3,0.3,0.5,0.7,0.5,1.2v2.2c0,0.4-0.2,0.8-0.5,1.2c-0.3,0.3-0.7,0.5-1.2,0.5h-14.6
			c-0.5,0-0.9-0.2-1.2-0.5c-0.3-0.3-0.5-0.7-0.5-1.2v-2.2c0-0.5,0.2-0.9,0.5-1.2c0.3-0.3,0.7-0.5,1.2-0.5H635.5z M633.9,110.7
			c0.5,0,0.9,0.2,1.2,0.5c0.3,0.3,0.5,0.7,0.5,1.2v11.8c0,0.4-0.2,0.8-0.5,1.2c-0.3,0.3-0.7,0.5-1.2,0.5h-6.6
			c-0.2,0-0.2,0.1-0.2,0.2c0,0.5-0.2,0.9-0.5,1.2c-0.3,0.3-0.7,0.5-1.2,0.5H623c-0.5,0-0.9-0.2-1.2-0.5c-0.3-0.3-0.5-0.7-0.5-1.2
			v-13.7c0-0.5,0.2-0.9,0.5-1.2c0.3-0.3,0.7-0.5,1.2-0.5H633.9z M633.8,97c0.5,0,0.9,0.2,1.2,0.5c0.3,0.3,0.5,0.7,0.5,1.2v1.9
			c0,0.5-0.2,0.9-0.5,1.2c-0.3,0.3-0.7,0.5-1.2,0.5h-10.6c-0.5,0-0.9-0.2-1.2-0.5c-0.3-0.3-0.5-0.7-0.5-1.2v-1.9
			c0-0.4,0.2-0.8,0.5-1.2c0.3-0.3,0.7-0.5,1.2-0.5H633.8z M623.2,109.1c-0.5,0-0.9-0.2-1.2-0.5c-0.3-0.3-0.5-0.7-0.5-1.2v-1.9
			c0-0.5,0.2-0.9,0.5-1.2c0.3-0.3,0.7-0.5,1.2-0.5h10.6c0.5,0,0.9,0.2,1.2,0.5c0.3,0.3,0.5,0.7,0.5,1.2v1.9c0,0.5-0.2,0.9-0.5,1.2
			c-0.3,0.3-0.7,0.5-1.2,0.5H623.2z M633.6,83.2c0.5,0,0.9,0.2,1.2,0.5c0.3,0.3,0.5,0.7,0.5,1.2v1.9c0,0.5-0.2,0.9-0.5,1.2
			c-0.3,0.3-0.7,0.5-1.2,0.5h-10.2c-0.5,0-0.8-0.2-1.2-0.5c-0.3-0.3-0.5-0.7-0.5-1.2v-1.9c0-0.5,0.2-0.9,0.5-1.2
			c0.3-0.3,0.7-0.5,1.2-0.5H633.6z M629.8,116.5c0-0.2-0.1-0.2-0.2-0.2h-2.3c-0.2,0-0.2,0.1-0.2,0.2v3.8c0,0.1,0.1,0.2,0.2,0.2h2.3
			c0.2,0,0.2-0.1,0.2-0.2V116.5z M666.2,114.9c0,0.5-0.2,0.9-0.5,1.2c-0.3,0.3-0.7,0.5-1.2,0.5H660c0,0-0.1,0-0.1,0.1
			c0,0,0,0.1,0,0.1c2.5,2.5,4.5,4.8,5.9,6.7c0.3,0.4,0.4,0.8,0.3,1.3c-0.1,0.4-0.4,0.8-0.8,1l-3.4,1.9c-0.4,0.2-0.9,0.3-1.3,0.1
			c-0.5-0.1-0.8-0.4-1.1-0.8c-1.3-2-3-4.2-5.3-6.7c-0.3-0.3-0.4-0.7-0.3-1.1c0.1-0.4,0.3-0.7,0.7-0.9l2.8-1.5c0,0,0-0.1,0-0.1
			c0,0,0,0,0,0H647c0,0-0.1,0-0.1,0c0,0,0,0.1,0,0.1l2.7,1.6c0.4,0.2,0.6,0.6,0.7,1c0.1,0.5,0,0.9-0.3,1.2c-2.2,2.7-4.6,5.1-7.4,7.1
			c-0.4,0.2-0.7,0.3-1.1,0.3c-0.1,0-0.2,0-0.2,0c-0.5-0.1-0.9-0.3-1.3-0.6c-0.8-0.8-1.7-1.6-2.6-2.3c-0.3-0.3-0.4-0.6-0.4-0.9
			c0-0.4,0.2-0.8,0.5-1.1c2.4-1.6,4.6-3.7,6.5-6.3c0.1-0.1,0.1-0.2-0.1-0.2h-5c-0.5,0-0.9-0.2-1.2-0.5c-0.3-0.3-0.5-0.7-0.5-1.2
			v-2.9c0-0.5,0.2-0.9,0.5-1.2c0.3-0.3,0.7-0.5,1.2-0.5h16.6c0.1,0,0.2-0.1,0.2-0.2v-3c0-0.1-0.1-0.2-0.2-0.2h-10.1
			c-0.2,0-0.2,0.1-0.2,0.2c0,0.4-0.2,0.8-0.5,1.2c-0.3,0.3-0.7,0.5-1.1,0.5h-3.1c-0.5,0-0.9-0.2-1.2-0.5c-0.3-0.3-0.5-0.7-0.5-1.2
			V88.8c0-0.5,0.2-0.9,0.5-1.2c0.3-0.3,0.7-0.5,1.2-0.5h3c0.4,0,0.8,0.2,1.2,0.5c0.3,0.3,0.5,0.7,0.5,1.2v11.7
			c0,0.2,0.1,0.2,0.2,0.2h15.6c0.5,0,0.9,0.2,1.2,0.5c0.3,0.3,0.5,0.7,0.5,1.2v7.7c0,0.1,0.1,0.2,0.2,0.2h1.5c0.5,0,0.9,0.2,1.2,0.5
			c0.3,0.3,0.5,0.7,0.5,1.2V114.9z M662.3,83.1c0.5,0,0.9,0.2,1.2,0.5c0.3,0.3,0.5,0.7,0.5,1.2v12c0,0.5-0.2,0.9-0.5,1.2
			c-0.3,0.3-0.7,0.5-1.2,0.5h-13.2c-0.5,0-0.9-0.2-1.2-0.5c-0.3-0.3-0.5-0.7-0.5-1.2v-12c0-0.5,0.2-0.9,0.5-1.2
			c0.3-0.3,0.7-0.5,1.2-0.5H662.3z M657.3,92.7c0.1,0,0.2-0.1,0.2-0.2v-3.3c0-0.1-0.1-0.2-0.2-0.2h-3.5c-0.2,0-0.2,0.1-0.2,0.2v3.3
			c0,0.2,0.1,0.2,0.2,0.2H657.3z"/>
		<path d="M714.7,87.6c0,0.5-0.2,0.9-0.5,1.2s-0.7,0.5-1.2,0.5h-17.6c-0.1,0-0.2,0.1-0.2,0.2c-0.2,0.6-0.5,1.3-0.8,2.3
			c-0.3,0.7-0.5,1.2-0.6,1.5c-0.1,0.1,0,0.2,0.1,0.2H711c0.5,0,0.9,0.2,1.2,0.5c0.3,0.3,0.5,0.7,0.5,1.2v25.2c0,1.6-0.2,2.9-0.5,3.8
			c-0.4,0.9-1,1.6-2,2.1c-1.2,0.6-3.2,1-5.9,1.1c-0.5,0-1-0.1-1.3-0.4c-0.4-0.3-0.6-0.7-0.8-1.2c-0.3-0.9-0.6-2-1.1-3.2
			c0,0-0.1,0-0.1,0c0,0,0,0,0,0.1v1.7c0,0.4-0.2,0.8-0.5,1.2c-0.3,0.3-0.7,0.5-1.2,0.5h-3.7c-0.5,0-0.9-0.2-1.2-0.5
			c-0.3-0.3-0.5-0.7-0.5-1.2v-24.1c0-0.1-0.1-0.2-0.2-0.2h-3.6c-0.1,0-0.2,0.1-0.2,0.2v24.1c0,0.4-0.2,0.8-0.5,1.2
			c-0.3,0.3-0.7,0.5-1.2,0.5h-3.7c-0.5,0-0.9-0.2-1.2-0.5c-0.3-0.3-0.5-0.7-0.5-1.2v-24.1c0-0.1-0.1-0.2-0.2-0.2h-3.5
			c-0.1,0-0.2,0.1-0.2,0.2v25.4c0,0.5-0.2,0.9-0.5,1.2c-0.3,0.3-0.7,0.5-1.2,0.5h-3.9c-0.5,0-0.9-0.2-1.2-0.5
			c-0.3-0.3-0.5-0.7-0.5-1.2V95.2c0-0.5,0.2-0.9,0.5-1.2c0.3-0.3,0.7-0.5,1.2-0.5h12.1c0.2,0,0.3-0.1,0.3-0.2
			c0.4-1.4,0.7-2.7,0.9-3.8c0-0.1,0-0.2-0.2-0.2H671c-0.5,0-0.8-0.2-1.2-0.5s-0.5-0.7-0.5-1.2v-3.9c0-0.5,0.2-0.9,0.5-1.2
			c0.3-0.3,0.7-0.5,1.2-0.5h41.9c0.5,0,0.9,0.2,1.2,0.5c0.3,0.3,0.5,0.7,0.5,1.2V87.6z M705.5,120.3v-20c0-0.1-0.1-0.2-0.2-0.2h-4
			c-0.1,0-0.2,0.1-0.2,0.2v20.6c0,0.1,0.1,0.2,0.2,0.2h3.4C705.2,121.1,705.5,120.8,705.5,120.3z"/>
		<path d="M731.9,89.9c0.4,0,0.8,0.2,1.2,0.5c0.3,0.3,0.5,0.7,0.5,1.2v2.2c0,0.4-0.2,0.8-0.5,1.2c-0.3,0.3-0.7,0.5-1.2,0.5h-12.4
			c-0.5,0-0.9-0.2-1.2-0.5c-0.3-0.3-0.5-0.7-0.5-1.2v-2.2c0-0.5,0.2-0.9,0.5-1.2c0.3-0.3,0.7-0.5,1.2-0.5H731.9z M741.2,98.8
			c1.4,0,2.4,0,2.8,0.1l0.5,0.1c0.5,0.1,0.9,0.4,1.2,0.8c0.3,0.4,0.4,0.8,0.4,1.3c-0.5,6.4-1.6,11.7-3.1,16.1c0,0.1,0,0.2,0.1,0.3
			c1.4,1.4,3,2.5,4.8,3c1.8,0.6,3.9,0.9,6.4,0.9c4.2,0,7.3,0,9.3,0c0.4,0,0.7,0.1,0.9,0.5c0.1,0.2,0.2,0.4,0.2,0.6
			c0,0.1,0,0.3-0.1,0.4c-0.4,1-0.7,2-1,3.2c-0.1,0.5-0.4,0.9-0.8,1.2c-0.4,0.3-0.8,0.5-1.3,0.5h-7.7c-2.9,0-5.5-0.3-7.7-0.9
			c-2.2-0.6-4.1-1.7-5.9-3.3c-0.1-0.1-0.2-0.1-0.3,0c-0.9,1.5-1.9,2.7-2.9,3.8c-0.3,0.3-0.7,0.4-1.1,0.4c-0.4-0.1-0.8-0.3-1-0.7
			c-0.7-1.1-1.4-2-2.2-2.9c0,0-0.1,0-0.1,0c0,0,0,0,0,0.1v0c0,0.4-0.2,0.8-0.5,1.2c-0.3,0.3-0.7,0.5-1.2,0.5h-5.8
			c-0.1,0-0.2,0.1-0.2,0.2c0,0.5-0.2,0.9-0.5,1.2c-0.3,0.3-0.7,0.5-1.2,0.5h-2c-0.5,0-0.9-0.2-1.2-0.5c-0.3-0.3-0.5-0.7-0.5-1.2
			v-13.7c0-0.5,0.2-0.9,0.5-1.2c0.3-0.3,0.7-0.5,1.2-0.5h9.6c0.5,0,0.9,0.2,1.2,0.5c0.3,0.3,0.5,0.7,0.5,1.2v9.9c0,0,0,0.1,0,0.1
			c0,0,0.1,0,0.1,0c1.3-1.2,2.3-2.6,3.2-4.3c0.1-0.1,0.1-0.3,0-0.4c-1.1-2.2-2-4.8-2.8-7.9c-0.1-0.5-0.1-0.9,0.2-1.3
			c0.3-0.4,0.6-0.7,1.1-0.8l2-0.6c0.4-0.1,0.9-0.1,1.3,0.2c0.4,0.2,0.7,0.6,0.7,1c0.2,0.6,0.3,1.1,0.5,1.6c0,0,0,0,0,0c0,0,0,0,0,0
			c0.4-1.7,0.7-3.5,1-5.3c0-0.2-0.1-0.2-0.2-0.2h-0.6c-0.1,0-0.2,0.1-0.2,0.2c-0.2,0.4-0.4,0.7-0.7,0.9c-0.3,0.2-0.7,0.2-1.1,0.1
			l-2.6-0.5c-0.4-0.1-0.8-0.3-1-0.7c-0.2-0.4-0.3-0.8-0.1-1.2c1.4-3.8,2.8-7.8,4.1-12.3c0-0.1,0-0.2-0.1-0.2h-1.8
			c-0.5,0-0.9-0.2-1.2-0.5c-0.3-0.3-0.5-0.7-0.5-1.2V86c0-0.4,0.2-0.8,0.5-1.2c0.3-0.3,0.7-0.5,1.2-0.5h4.2c0.1,0,0.1,0,0.2,0
			c0.3-0.1,0.6-0.1,0.9-0.1c0.2,0,0.5,0,0.7,0l1.8,0.4c0.4,0.1,0.8,0.3,1,0.7c0.2,0.4,0.3,0.8,0.2,1.3c-1.1,3.9-2.4,7.9-3.8,11.9
			C741,98.7,741.1,98.8,741.2,98.8z M730.7,97c0.5,0,0.9,0.2,1.2,0.5c0.3,0.3,0.5,0.7,0.5,1.2v1.9c0,0.5-0.2,0.9-0.5,1.2
			c-0.3,0.3-0.7,0.5-1.2,0.5h-9.2c-0.5,0-0.9-0.2-1.2-0.5c-0.3-0.3-0.5-0.7-0.5-1.2v-1.9c0-0.4,0.2-0.8,0.5-1.2s0.7-0.5,1.2-0.5
			H730.7z M721.5,109.1c-0.5,0-0.9-0.2-1.2-0.5c-0.3-0.3-0.5-0.7-0.5-1.2v-1.9c0-0.5,0.2-0.9,0.5-1.2c0.3-0.3,0.7-0.5,1.2-0.5h9.2
			c0.5,0,0.9,0.2,1.2,0.5c0.3,0.3,0.5,0.7,0.5,1.2v1.9c0,0.5-0.2,0.9-0.5,1.2c-0.3,0.3-0.7,0.5-1.2,0.5H721.5z M730.7,83.2
			c0.5,0,0.9,0.2,1.2,0.5c0.3,0.3,0.5,0.7,0.5,1.2v1.9c0,0.5-0.2,0.9-0.5,1.2c-0.3,0.3-0.7,0.5-1.2,0.5h-9.1c-0.5,0-0.9-0.2-1.2-0.5
			c-0.3-0.3-0.5-0.7-0.5-1.2v-1.9c0-0.5,0.2-0.9,0.5-1.2c0.3-0.3,0.7-0.5,1.2-0.5H730.7z M726.9,120.4c0.1,0,0.2-0.1,0.2-0.2v-3.8
			c0-0.2-0.1-0.2-0.2-0.2h-1.7c-0.2,0-0.2,0.1-0.2,0.2v3.8c0,0.1,0.1,0.2,0.2,0.2H726.9z M753.8,113.4c0.1,0,0.2-0.1,0.2-0.2v-23
			c0-0.1-0.1-0.2-0.2-0.2c-1.7,0.3-3.4,0.6-5,0.8c-0.5,0.1-0.9,0-1.3-0.3c-0.4-0.3-0.7-0.7-0.8-1.1c-0.2-0.7-0.5-1.3-0.7-1.9
			c-0.2-0.4-0.1-0.8,0-1.2c0.2-0.4,0.5-0.6,0.9-0.6c4.6-0.8,8.5-1.8,11.7-3c0.4-0.1,0.7-0.2,1.1-0.2c0.6,0,1.2,0.3,1.7,0.8l2.3,2.5
			c0.3,0.3,0.4,0.6,0.3,1c-0.1,0.4-0.3,0.7-0.7,0.8c-1,0.3-1.9,0.6-2.9,0.9c-0.2,0-0.2,0.1-0.2,0.2v9.6c0,0.2,0.1,0.2,0.2,0.2h2
			c0.4,0,0.8,0.2,1.2,0.5c0.3,0.3,0.5,0.7,0.5,1.2v2.3c0,0.5-0.2,0.9-0.5,1.2c-0.3,0.3-0.7,0.5-1.2,0.5h-2c-0.2,0-0.2,0.1-0.2,0.2
			v8.7c0,0.2,0.1,0.2,0.2,0.2h2.5c0.5,0,0.9,0.2,1.2,0.5c0.3,0.3,0.5,0.7,0.5,1.2v2.3c0,0.5-0.2,0.9-0.5,1.2
			c-0.3,0.3-0.7,0.5-1.2,0.5h-15.9c-0.5,0-0.8-0.2-1.2-0.5c-0.3-0.3-0.5-0.7-0.5-1.2v-2.3c0-0.4,0.2-0.8,0.5-1.2
			c0.3-0.3,0.7-0.5,1.2-0.5c0.2,0,0.2-0.1,0.2-0.2V96.4c0-0.4,0.2-0.8,0.5-1.2c0.3-0.3,0.7-0.5,1.2-0.5h2.3c0.5,0,0.9,0.2,1.2,0.5
			c0.3,0.3,0.5,0.7,0.5,1.2v16.8c0,0.2,0.1,0.2,0.2,0.2H753.8z"/>
		<path d="M794.4,118.9c0,0.2,0.1,0.2,0.2,0.2h16.9c0.4,0,0.8,0.2,1.2,0.5c0.3,0.3,0.5,0.7,0.5,1.2v3.7c0,0.4-0.2,0.8-0.5,1.2
			c-0.3,0.3-0.7,0.5-1.2,0.5h-41.5c-0.4,0-0.8-0.2-1.2-0.5c-0.3-0.3-0.5-0.7-0.5-1.2v-3.7c0-0.4,0.2-0.8,0.5-1.2
			c0.3-0.3,0.7-0.5,1.2-0.5h16.8c0.1,0,0.2-0.1,0.2-0.2v-8c0-0.2-0.1-0.2-0.2-0.2h-10.9c-0.5,0-0.8-0.2-1.2-0.5
			c-0.3-0.3-0.5-0.7-0.5-1.2v-3.5c0-0.5,0.2-0.9,0.5-1.2c0.3-0.3,0.7-0.5,1.2-0.5h10.9c0.1,0,0.2-0.1,0.2-0.2v-7.1
			c0-0.2-0.1-0.2-0.2-0.2h-9.1c-0.1,0-0.2,0.1-0.3,0.2c-1.2,2.1-2.2,3.8-3.2,5.2c-0.3,0.4-0.6,0.6-1.1,0.6c-0.5,0.1-0.9,0-1.3-0.3
			c-1.1-0.8-2.3-1.7-3.7-2.5c-0.4-0.2-0.6-0.5-0.7-1c0-0.1,0-0.2,0-0.2c0-0.3,0.1-0.6,0.3-0.9c1.4-1.8,2.8-3.9,4-6.4
			c1.3-2.6,2.3-5.3,3.1-8.1c0.1-0.4,0.4-0.8,0.8-1c0.4-0.2,0.8-0.3,1.3-0.2l4,0.9c0.5,0.1,0.8,0.3,1.1,0.7c0.2,0.4,0.3,0.8,0.1,1.3
			c-0.4,1.3-0.9,2.8-1.6,4.6c-0.1,0.1,0,0.2,0.1,0.2h5.9c0.1,0,0.2-0.1,0.2-0.2v-6.7c0-0.5,0.2-0.9,0.5-1.2c0.3-0.3,0.7-0.5,1.2-0.5
			h4c0.5,0,0.9,0.2,1.2,0.5c0.3,0.3,0.5,0.7,0.5,1.2V89c0,0.1,0.1,0.2,0.2,0.2h14.3c0.4,0,0.8,0.2,1.2,0.5c0.3,0.3,0.5,0.7,0.5,1.2
			v3.6c0,0.4-0.2,0.8-0.5,1.2c-0.3,0.3-0.7,0.5-1.2,0.5h-14.3c-0.1,0-0.2,0.1-0.2,0.2v7.1c0,0.1,0.1,0.2,0.2,0.2h12.2
			c0.5,0,0.9,0.2,1.2,0.5c0.3,0.3,0.5,0.7,0.5,1.2v3.5c0,0.4-0.2,0.8-0.5,1.2c-0.3,0.3-0.7,0.5-1.2,0.5h-12.2
			c-0.1,0-0.2,0.1-0.2,0.2V118.9z"/>
		<path d="M848.8,89.1c-0.1,0.1,0,0.2,0.1,0.2h11.5c0.5,0,0.9,0.2,1.2,0.5c0.3,0.3,0.5,0.7,0.5,1.2c0,0.5,0,1,0,1.4
			c-0.3,11.6-0.7,19.6-1.1,24c-0.4,4.4-1.1,7.3-2.1,8.6c-0.7,1-1.5,1.7-2.2,2.1c-0.8,0.4-1.8,0.8-3,1c-1,0.2-2.5,0.3-4.5,0.3
			c-0.6,0-1.2,0-1.8,0c-0.4,0-0.9-0.2-1.2-0.5c-0.4-0.3-0.6-0.7-0.7-1.2c-0.3-1.3-0.7-2.5-1.3-3.8c-0.2-0.3-0.1-0.6,0-0.9
			c0.2-0.3,0.5-0.4,0.8-0.4c1.7,0.1,3.6,0.1,5.7,0.1c0.9,0,1.6-0.3,2.2-0.9c0.7-0.8,1.2-3,1.6-6.8c0.4-3.8,0.6-9.8,0.8-18
			c0-0.2,0-0.2-0.2-0.2h-8.9c-0.2,0-0.3,0.1-0.3,0.2c-1,2.2-2.1,4.1-3.1,5.7c-0.3,0.4-0.6,0.6-1.1,0.7c-0.5,0.1-0.9,0-1.2-0.3
			c-0.9-0.6-1.7-1.3-2.6-1.8c-0.1-0.1-0.2-0.1-0.2,0.1v21.5c0,0.5-0.2,0.9-0.5,1.2c-0.3,0.3-0.7,0.5-1.2,0.5h-11
			c-0.1,0-0.2,0.1-0.2,0.2v1.6c0,0.5-0.2,0.9-0.5,1.2c-0.3,0.3-0.7,0.5-1.2,0.5h-3c-0.5,0-0.9-0.2-1.2-0.5c-0.3-0.3-0.5-0.7-0.5-1.2
			V91.5c0-0.5,0.2-0.9,0.5-1.2c0.3-0.3,0.7-0.5,1.2-0.5h3.7c0.1,0,0.2-0.1,0.2-0.2c0.4-2.1,0.7-4.1,0.9-6.1c0-0.5,0.2-0.9,0.6-1.2
			c0.3-0.2,0.6-0.3,1-0.3c0.1,0,0.1,0,0.2,0l4.4,0.6c0.4,0.1,0.8,0.3,1,0.7c0.2,0.4,0.3,0.8,0.1,1.2c-0.8,2.3-1.4,4-1.8,5.1
			c-0.1,0.1,0,0.2,0.1,0.2h5.4c0.4,0,0.8,0.2,1.2,0.5c0.3,0.3,0.5,0.7,0.5,1.2v4.6c0,0,0,0.1,0,0.1c0,0,0,0,0,0
			c2.2-3.6,4-7.8,5.3-12.6c0.1-0.4,0.4-0.8,0.8-1.1c0.4-0.3,0.8-0.3,1.3-0.2l3.6,0.8c0.4,0.1,0.8,0.4,1,0.8c0.2,0.4,0.3,0.8,0.1,1.2
			C849.7,86.3,849.3,87.7,848.8,89.1z M831.1,102.7c0.2,0,0.2-0.1,0.2-0.2v-6.2c0-0.2-0.1-0.2-0.2-0.2h-6c-0.1,0-0.2,0.1-0.2,0.2
			v6.2c0,0.2,0.1,0.2,0.2,0.2H831.1z M824.9,117c0,0.2,0.1,0.2,0.2,0.2h6c0.2,0,0.2-0.1,0.2-0.2v-8c0-0.1-0.1-0.2-0.2-0.2h-6
			c-0.1,0-0.2,0.1-0.2,0.2V117z M852.9,110.6c0.2,0.3,0.2,0.6,0.2,0.9c0,0.2,0,0.3-0.1,0.5c-0.1,0.5-0.4,0.8-0.8,1.1l-3.1,1.9
			c-0.3,0.1-0.5,0.2-0.8,0.2c-0.2,0-0.3,0-0.4,0c-0.5-0.1-0.8-0.4-1-0.8c-0.9-1.9-2.6-4.7-4.9-8.5c-0.2-0.3-0.2-0.6-0.2-0.9
			c0-0.1,0-0.3,0-0.4c0.1-0.4,0.4-0.8,0.8-1l2.6-1.5c0.3-0.2,0.6-0.2,0.9-0.2c0.1,0,0.3,0,0.4,0c0.5,0.1,0.9,0.4,1.1,0.8
			C850.3,106.4,852,109.1,852.9,110.6z"/>
		<path d="M886.8,115.9c0.4,0.3,0.6,0.7,0.6,1.1c0,0.5-0.1,0.9-0.4,1.2l-1.9,2.4c-0.3,0.4-0.6,0.5-1.1,0.5s-0.8-0.2-1.1-0.5
			c-0.3-0.3-0.7-0.8-1.2-1.3c0,0,0,0-0.1,0c0,0-0.1,0-0.1,0.1v7.4c0,0.4-0.2,0.8-0.5,1.2c-0.3,0.3-0.7,0.5-1.2,0.5h-3.6
			c-0.5,0-0.8-0.2-1.2-0.5c-0.3-0.3-0.5-0.7-0.5-1.2v-6.3c0,0,0-0.1,0-0.1c0,0-0.1,0-0.1,0c-1.2,1.6-2.4,3-3.7,4.1
			c-0.4,0.3-0.8,0.5-1.2,0.4c-0.4,0-0.8-0.2-1.1-0.6c-0.8-1-1.5-1.8-2.3-2.6c-0.3-0.3-0.4-0.6-0.4-1c0-0.5,0.2-0.9,0.5-1.2
			c2.6-2,4.9-4.5,6.9-7.5c0.1-0.1,0-0.2-0.1-0.2h-5c-0.5,0-0.8-0.2-1.2-0.5c-0.3-0.3-0.5-0.7-0.5-1.2v-2.6c0-0.5,0.2-0.9,0.5-1.2
			c0.3-0.3,0.7-0.5,1.2-0.5h6.3c0.2,0,0.2-0.1,0.2-0.2v-2.6c0-0.1-0.1-0.2-0.2-0.2H868c-0.5,0-0.8-0.2-1.2-0.5
			c-0.3-0.3-0.5-0.7-0.5-1.2V99c0-0.5,0.2-0.9,0.5-1.2c0.3-0.3,0.7-0.5,1.2-0.5h2.1c0.2,0,0.2-0.1,0.2-0.2c-0.1-0.8-0.3-1.7-0.6-2.6
			c-0.1-0.4-0.1-0.8,0.1-1.2c0.2-0.4,0.5-0.7,1-0.8l0.7-0.1c0,0,0,0,0,0h-2.8c-0.5,0-0.9-0.2-1.2-0.5c-0.3-0.3-0.5-0.7-0.5-1.2v-2.4
			c0-0.4,0.2-0.8,0.5-1.2c0.3-0.3,0.7-0.5,1.2-0.5h5.8c0.2,0,0.2-0.1,0.2-0.2V84c0-0.4,0.2-0.8,0.5-1.2c0.3-0.3,0.7-0.5,1.2-0.5h3.6
			c0.5,0,0.9,0.2,1.2,0.5c0.3,0.3,0.5,0.7,0.5,1.2v2.3c0,0.2,0.1,0.2,0.2,0.2h5.8c0.4,0,0.8,0.2,1.2,0.5c0.3,0.3,0.5,0.7,0.5,1.2
			v2.4c0,0.5-0.2,0.9-0.5,1.2c-0.3,0.3-0.7,0.5-1.2,0.5h-2.1h0h0l0.2,0c0.4,0.1,0.8,0.3,1,0.7c0.2,0.4,0.2,0.8,0,1.2
			c-0.8,1.8-1.2,2.7-1.3,2.9c-0.1,0.1,0,0.2,0.1,0.2h2.3c0.4,0,0.8,0.2,1.2,0.5c0.3,0.3,0.5,0.7,0.5,1.2v2.4c0,0.5-0.2,0.9-0.5,1.2
			c-0.3,0.3-0.7,0.5-1.2,0.5h-6.1c-0.2,0-0.2,0.1-0.2,0.2v2.6c0,0.1,0.1,0.2,0.2,0.2h5.6c0.5,0,0.9,0.2,1.2,0.5
			c0.3,0.3,0.5,0.7,0.5,1.2v2.6c0,0.4-0.2,0.8-0.5,1.2c-0.3,0.3-0.7,0.5-1.2,0.5h-5.8c0,0,0,0,0,0s0,0,0,0.1
			C882.6,112.8,884.3,114.1,886.8,115.9z M880.9,92.4c0-0.1,0-0.2-0.1-0.2h-5.7c-0.2,0-0.2,0.1-0.1,0.2c0.4,0.9,0.7,1.7,0.9,2.6
			c0.1,0.5,0,0.9-0.2,1.3c-0.3,0.4-0.6,0.7-1.1,0.8l-0.3,0.1c0,0,0,0,0,0h8c0,0,0,0,0,0c0,0,0,0,0,0l-1.1-0.2
			c-0.5-0.1-0.8-0.3-1-0.7c-0.2-0.4-0.2-0.8-0.1-1.3C880.4,94.1,880.7,93.2,880.9,92.4z M898,92c-0.2,0-0.2,0.1-0.2,0.2v5.4
			c0,0.1,0.1,0.2,0.2,0.2h12.9c0.5,0,0.9,0.2,1.2,0.5c0.3,0.3,0.5,0.7,0.5,1.2v3.2c0,0.5-0.2,0.9-0.5,1.2c-0.3,0.3-0.7,0.5-1.2,0.5
			h-2.3c-0.2,0-0.2,0.1-0.2,0.2v22c0,0.4-0.2,0.8-0.5,1.2c-0.3,0.3-0.7,0.5-1.2,0.5h-3.6c-0.5,0-0.8-0.2-1.2-0.5
			c-0.3-0.3-0.5-0.7-0.5-1.2v-22c0-0.1-0.1-0.2-0.2-0.2H898c-0.2,0-0.2,0.1-0.2,0.2c-0.2,10-2.4,17.5-6.4,22.6
			c-0.3,0.4-0.6,0.5-1.1,0.5c-0.4,0-0.8-0.2-1.1-0.5c-0.8-0.9-1.7-1.8-2.7-2.6c-0.4-0.3-0.6-0.7-0.7-1.1c0-0.1,0-0.2,0-0.2
			c0-0.4,0.1-0.7,0.3-0.9c1-1.4,1.9-2.9,2.6-4.6c0.7-1.7,1.2-3.4,1.5-5.2c0.3-1.8,0.5-3.5,0.6-4.9c0.1-1.5,0.1-3.1,0.1-4.9V87.2
			c0-0.4,0.2-0.8,0.5-1.1c0.3-0.3,0.7-0.3,1.1-0.2l2,0.6c0.2,0,0.3,0,0.4,0c4.1-1.1,7.5-2.3,10.3-3.6c0.4-0.2,0.8-0.3,1.2-0.3
			c0.6,0,1.1,0.2,1.6,0.7l3.2,2.8c0.3,0.3,0.4,0.6,0.3,1c-0.1,0.4-0.3,0.7-0.6,0.8C907.5,89.5,903.2,90.8,898,92z"/>
		<path d="M1011.1,95.6c0,0.4-0.2,0.8-0.5,1.2c-0.3,0.3-0.7,0.5-1.2,0.5h-0.9c-0.2,0-0.3,0.1-0.3,0.2c-0.9,7-2.5,12.8-4.8,17.3
			c-0.1,0.1-0.1,0.2,0,0.3c1.9,2.7,4.2,4.8,6.7,6.5c0.4,0.2,0.6,0.5,0.6,1c0,0.4-0.1,0.8-0.4,1.1c-1,1.1-2,2.3-2.8,3.6
			c-0.3,0.4-0.6,0.7-1.1,0.8c-0.5,0.1-0.9,0-1.3-0.2c-2.3-1.6-4.4-3.6-6.2-6.1c-0.1-0.1-0.2-0.1-0.3,0c-2.2,2.5-4.9,4.6-8.2,6.4
			c-0.4,0.2-0.8,0.3-1.3,0.1c-0.4-0.1-0.8-0.4-1-0.8c-0.7-1.3-1.4-2.5-2.3-3.7c-0.2-0.4-0.3-0.7-0.2-1.2c0.1-0.4,0.3-0.7,0.7-0.9
			c3.5-1.7,6.3-3.9,8.4-6.7c0.1-0.1,0.1-0.2,0-0.4c-1-2.3-1.9-4.9-2.7-7.8c0,0,0-0.1,0-0.1c0,0-0.1,0-0.1,0
			c-0.2,0.3-0.3,0.5-0.5,0.8c-0.3,0.4-0.6,0.6-1.1,0.6c-0.5,0-0.8-0.1-1.2-0.5c-0.7-0.7-1.5-1.4-2.3-2.1c-0.1-0.1-0.2-0.1-0.3,0
			c-1.9,2.3-4,4.5-6.4,6.5c-0.1,0.1-0.2,0.2-0.2,0.4c0,0.1,0.1,0.2,0.2,0.2c0.5,0,1.5-0.1,3-0.2c1.5-0.1,2.6-0.2,3.4-0.2
			c0.4,0,0.8,0.1,1.2,0.4c0.3,0.3,0.5,0.7,0.5,1.2v2.6c0,0.5-0.2,0.9-0.5,1.3c-0.3,0.4-0.7,0.5-1.2,0.6c-1.3,0.1-3.5,0.3-6.4,0.5
			c-0.2,0-0.2,0.1-0.2,0.2v3.2c0,1.5-0.2,2.7-0.5,3.6c-0.3,0.8-1,1.5-2,1.9c-1.3,0.6-3.2,0.9-5.8,1h0c-0.4,0-0.9-0.1-1.3-0.4
			c-0.4-0.3-0.6-0.7-0.8-1.2c-0.2-0.9-0.5-1.9-0.9-2.8c-0.2-0.4-0.1-0.7,0.1-1.1c0.2-0.3,0.5-0.5,0.9-0.5c0.8,0,1.7,0,2.7,0
			c0.3,0,0.5,0,0.7-0.1c0.1-0.1,0.2-0.3,0.2-0.5v-2.5c0-0.1-0.1-0.2-0.2-0.2l-6.9,0.5c-0.5,0.1-0.9-0.1-1.3-0.4
			c-0.4-0.3-0.6-0.7-0.6-1.2l-0.3-2.9c0-0.4,0.1-0.9,0.4-1.2c0.3-0.4,0.7-0.5,1.1-0.6c0.5,0,1.6-0.1,3.4-0.2
			c1.8-0.1,3.2-0.2,4.2-0.2c0.1,0,0.2-0.1,0.2-0.2v-1.6c0-0.4,0.2-0.8,0.5-1.2c0.3-0.3,0.7-0.5,1.2-0.5h0.1c0.1,0,0.2,0,0.3-0.1
			c0.5-0.4,1-0.9,1.5-1.5c0,0,0-0.1,0-0.1c0,0,0,0-0.1,0h-2c-0.1,0-0.3,0-0.4,0.1c-1.6,1.3-3.4,2.6-5.2,3.7
			c-0.4,0.3-0.9,0.3-1.3,0.2c-0.5-0.1-0.9-0.3-1.2-0.7c-0.8-1-1.6-1.9-2.5-2.9c-0.3-0.3-0.4-0.7-0.3-1.1c0.1-0.4,0.3-0.7,0.7-0.9
			c1.2-0.7,2.4-1.4,3.6-2.2c0.1-0.1,0.1-0.2,0.1-0.3c0-0.4,0.1-0.7,0.4-1c0.3-0.3,0.6-0.5,1.1-0.5h0.6c0.2,0,0.3,0,0.4-0.1
			c0.8-0.6,1.4-1.2,1.9-1.5c0,0,0-0.1,0-0.1c0,0-0.1,0-0.1,0h-6.7c-0.4,0-0.8-0.2-1.2-0.5c-0.3-0.3-0.5-0.7-0.5-1.2V96
			c0-0.5,0.2-0.9,0.5-1.2c0.3-0.3,0.7-0.5,1.2-0.5h4.7c0.2,0,0.2-0.1,0.2-0.2v-2c0-0.2-0.1-0.2-0.2-0.2h-3.1c-0.5,0-0.9-0.2-1.2-0.5
			c-0.3-0.3-0.5-0.7-0.5-1.2v-2.6c0-0.5,0.2-0.9,0.5-1.2s0.7-0.5,1.2-0.5h3.1c0.2,0,0.2-0.1,0.2-0.2v-2.2c0-0.5,0.2-0.9,0.5-1.2
			c0.3-0.3,0.7-0.5,1.2-0.5h3.2c0.4,0,0.8,0.2,1.2,0.5c0.3,0.3,0.5,0.7,0.5,1.2v2.2c0,0.1,0.1,0.2,0.2,0.2h2.2
			c0.4,0,0.8,0.2,1.2,0.5c0.3,0.3,0.5,0.7,0.5,1.2v1.6c0,0,0,0,0,0c0,0,0,0,0,0c0.8-1.4,1.5-2.9,2.2-4.6c0.2-0.4,0.5-0.8,0.9-1
			c0.4-0.2,0.9-0.2,1.4-0.1l3.3,0.9c0.4,0.1,0.7,0.4,0.9,0.8c0.2,0.4,0.2,0.8,0,1.3c-1.1,2.7-2.4,5.2-3.9,7.7
			c-0.1,0.1,0,0.2,0.1,0.2h0.1c0.5,0,0.9,0.2,1.2,0.5c0.3,0.3,0.5,0.7,0.5,1.2v1.3c0,0,0,0,0,0c1.8-3.9,3.1-8.5,3.9-13.9
			c0.1-0.5,0.3-0.9,0.7-1.1c0.4-0.3,0.8-0.4,1.3-0.3l3.9,0.6c0.5,0.1,0.9,0.3,1.1,0.7c0.3,0.4,0.4,0.8,0.3,1.3c-0.4,2-0.8,4-1.3,5.9
			c0,0.2,0,0.2,0.2,0.2h10.5c0.5,0,0.9,0.2,1.2,0.5c0.3,0.3,0.5,0.7,0.5,1.2V95.6z M978.1,91.8c-0.2,0-0.2,0.1-0.2,0.2v2
			c0,0.2,0.1,0.2,0.2,0.2h0.5c0.2,0,0.3-0.1,0.3-0.2c0.5-0.7,1-1.4,1.5-2.1c0.1-0.1,0-0.2-0.1-0.2H978.1z M982.1,102.2
			c0.1,0,0.2,0,0.3,0c0.2-0.1,0.4-0.1,0.7-0.1c0.5,0,1,0.2,1.4,0.5l0.7,0.5c0.1,0.1,0.2,0.1,0.3,0c0.6-0.8,1.2-1.7,1.7-2.6
			c0.1-0.1,0.1-0.1-0.1-0.1h-4.5c-0.2,0-0.3,0-0.3,0.1c-0.6,0.7-1,1.2-1.3,1.5c0,0,0,0.1,0,0.1c0,0,0,0,0.1,0H982.1z M1001,97.5
			c0-0.2-0.1-0.2-0.2-0.2h-3.5c-0.1,0-0.2,0.1-0.2,0.2c0.6,3.2,1.3,6.1,2.1,8.5c0,0,0,0,0.1,0c0,0,0.1,0,0.1,0
			C1000,103.4,1000.6,100.6,1001,97.5z"/>
		<path d="M1034.9,105.3c0.4,0.3,0.6,0.7,0.6,1.2c0.1,0.5,0,1-0.3,1.4l-2.2,3.3c-0.2,0.3-0.5,0.5-0.9,0.5c-0.4,0-0.7-0.2-0.9-0.5
			c-0.6-1-1.4-2-2.3-3.2c0,0-0.1,0-0.1,0c0,0,0,0,0,0.1v18.8c0,0.4-0.2,0.8-0.5,1.2c-0.3,0.3-0.7,0.5-1.2,0.5h-3.8
			c-0.5,0-0.9-0.2-1.2-0.5c-0.3-0.3-0.5-0.7-0.5-1.2v-14.5c0,0,0,0,0,0c-1.2,2.9-2.5,5.3-3.9,7.2c-0.2,0.3-0.5,0.5-0.8,0.4
			c-0.4-0.1-0.6-0.3-0.8-0.6c-0.5-1.2-1.2-2.5-2.1-4.1c-0.2-0.4-0.3-0.8-0.3-1.3c0-0.5,0.2-1.1,0.6-1.5c2.8-3.7,5-8.2,6.6-13.7
			c0-0.1,0-0.2-0.1-0.2h-4.6c-0.5,0-0.8-0.2-1.2-0.5c-0.3-0.3-0.5-0.7-0.5-1.2v-3.4c0-0.5,0.2-0.9,0.5-1.2c0.3-0.3,0.7-0.5,1.2-0.5
			h5.3c0.1,0,0.2-0.1,0.2-0.2v-8c0-0.5,0.2-0.9,0.5-1.2c0.3-0.3,0.7-0.5,1.2-0.5h3.8c0.5,0,0.9,0.2,1.2,0.5c0.3,0.3,0.5,0.7,0.5,1.2
			v8c0,0.1,0.1,0.2,0.2,0.2h4c0.5,0,0.9,0.2,1.2,0.5c0.3,0.3,0.5,0.7,0.5,1.2v3.4c0,0.5-0.2,0.9-0.5,1.2c-0.3,0.3-0.7,0.5-1.2,0.5
			h-4c-0.1,0-0.2,0.1-0.2,0.2v0.8c0,0.1,0,0.2,0.1,0.3C1030.4,101.1,1032.5,102.9,1034.9,105.3z M1058.6,91.7c0.5,0,0.9,0.2,1.2,0.5
			c0.3,0.3,0.5,0.7,0.5,1.2v3.4c0,0.5-0.2,0.9-0.5,1.2c-0.3,0.3-0.7,0.5-1.2,0.5h-2.6c-0.2,0-0.2,0.1-0.2,0.2v21.4
			c0,1.9-0.2,3.4-0.6,4.4c-0.4,1-1.2,1.8-2.3,2.4c-1.6,0.9-4.3,1.3-8.1,1.4c-0.5,0-0.9-0.2-1.3-0.5c-0.4-0.3-0.6-0.7-0.7-1.2
			c-0.4-1.3-0.8-2.6-1.3-3.9c-0.1-0.4-0.1-0.7,0.1-1c0.2-0.3,0.5-0.5,0.9-0.5c1.3,0,2.8,0,4.6,0c0.4,0,0.8-0.1,0.9-0.3
			c0.2-0.2,0.3-0.5,0.3-0.9v-11.6c0,0,0-0.1,0-0.1c0,0,0,0,0,0c-3.3,4.9-6.9,8.9-10.7,12.1c-0.4,0.3-0.8,0.4-1.2,0.3
			c-0.5-0.1-0.8-0.3-1.1-0.7c-0.9-1.2-1.9-2.3-3-3.3c-0.3-0.3-0.4-0.6-0.4-1c0-0.5,0.2-0.9,0.6-1.1c2.6-1.9,5.2-4.2,7.6-7.1
			c2.4-2.9,4.4-5.9,6.1-9c0.1-0.1,0-0.2-0.1-0.2h-8.3c-0.5,0-0.9-0.2-1.2-0.5c-0.3-0.3-0.5-0.7-0.5-1.2v-3.4c0-0.5,0.2-0.9,0.5-1.2
			c0.3-0.3,0.7-0.5,1.2-0.5h10.4c0.1,0,0.2-0.1,0.2-0.2v-8c0-0.5,0.2-0.9,0.5-1.2c0.3-0.3,0.7-0.5,1.2-0.5h4.2
			c0.4,0,0.8,0.2,1.2,0.5s0.5,0.7,0.5,1.2v8c0,0.1,0.1,0.2,0.2,0.2H1058.6z"/>
		<path d="M1077.9,122.9c-1,1-2.3,1.5-3.8,1.5c-1.5,0-2.8-0.5-3.8-1.5c-1-1-1.5-2.3-1.5-3.9c0-1.5,0.5-2.8,1.5-3.9
			c1-1,2.3-1.6,3.8-1.6c1.5,0,2.8,0.5,3.8,1.6c1,1,1.5,2.3,1.5,3.9C1079.4,120.6,1078.9,121.9,1077.9,122.9z M1072.9,110.6
			c-0.5,0-0.9-0.2-1.3-0.5c-0.4-0.3-0.5-0.7-0.6-1.2l-1.1-15.2l-0.2-6.1c0-0.5,0.2-0.9,0.5-1.2c0.3-0.3,0.7-0.5,1.2-0.5h5.4
			c0.4,0,0.8,0.2,1.2,0.5c0.3,0.3,0.5,0.7,0.5,1.2l-0.2,6.1l-1.1,15.2c0,0.5-0.2,0.9-0.6,1.2c-0.4,0.3-0.8,0.5-1.3,0.5H1072.9z"/>
		<path d="M1102.5,122.9c-1,1-2.3,1.5-3.8,1.5c-1.5,0-2.8-0.5-3.8-1.5c-1-1-1.5-2.3-1.5-3.9c0-1.5,0.5-2.8,1.5-3.9
			c1-1,2.3-1.6,3.8-1.6c1.5,0,2.8,0.5,3.8,1.6c1,1,1.5,2.3,1.5,3.9C1104,120.6,1103.5,121.9,1102.5,122.9z M1097.5,110.6
			c-0.5,0-0.9-0.2-1.3-0.5c-0.4-0.3-0.5-0.7-0.6-1.2l-1.1-15.2l-0.2-6.1c0-0.5,0.2-0.9,0.5-1.2c0.3-0.3,0.7-0.5,1.2-0.5h5.4
			c0.4,0,0.8,0.2,1.2,0.5c0.3,0.3,0.5,0.7,0.5,1.2l-0.2,6.1l-1.1,15.2c0,0.5-0.2,0.9-0.6,1.2c-0.4,0.3-0.8,0.5-1.3,0.5H1097.5z"/>
		<path d="M1127.2,122.9c-1,1-2.3,1.5-3.8,1.5c-1.5,0-2.8-0.5-3.8-1.5c-1-1-1.5-2.3-1.5-3.9c0-1.5,0.5-2.8,1.5-3.9
			c1-1,2.3-1.6,3.8-1.6c1.5,0,2.8,0.5,3.8,1.6c1,1,1.5,2.3,1.5,3.9C1128.7,120.6,1128.2,121.9,1127.2,122.9z M1122.2,110.6
			c-0.5,0-0.9-0.2-1.3-0.5c-0.4-0.3-0.5-0.7-0.6-1.2l-1.1-15.2l-0.2-6.1c0-0.5,0.2-0.9,0.5-1.2c0.3-0.3,0.7-0.5,1.2-0.5h5.4
			c0.4,0,0.8,0.2,1.2,0.5c0.3,0.3,0.5,0.7,0.5,1.2l-0.2,6.1l-1.1,15.2c0,0.5-0.2,0.9-0.6,1.2c-0.4,0.3-0.8,0.5-1.3,0.5H1122.2z"/>
		<g>
			<g>
				<path d="M960.4,95.1c0,0.5-0.2,0.9-0.5,1.2s-0.8,0.5-1.2,0.5h-11.1c-0.1,0-0.2,0.1-0.2,0.2c0.5,6.9,1.3,12.8,2.5,17.5
					c1.2,4.7,2.5,7.1,4,7.1c0.8,0,1.4-2.4,1.6-7.1c0-0.3,0.2-0.6,0.5-0.7c0.3-0.1,0.6-0.1,0.9,0.1c1.1,0.9,2.3,1.7,3.5,2.4
					c0.5,0.2,0.9,0.6,1.1,1c0.2,0.4,0.3,0.7,0.3,1.1c0,0.1,0,0.2,0,0.3c-0.4,2.8-0.9,5-1.6,6.5s-1.6,2.6-2.7,3.1
					c-1,0.6-2.4,0.8-4.2,0.8c-1.7,0-3.2-0.6-4.6-1.7c-1.4-1.1-2.6-2.7-3.6-4.6s-1.8-4.3-2.6-7.1s-1.3-5.7-1.7-8.7
					c-0.4-3-0.7-6.4-1-10c0-0.1-0.1-0.2-0.2-0.2h-22.5c-0.5,0-0.9-0.2-1.2-0.5s-0.5-0.8-0.5-1.2v-3.6c0-0.5,0.2-0.9,0.5-1.2
					s0.8-0.5,1.2-0.5h22.2c0.2,0,0.2-0.1,0.2-0.2c-0.1-2.5-0.1-4.5-0.1-5.9c0-0.5,0.2-0.9,0.5-1.2c0.3-0.3,0.7-0.5,1.2-0.5h4.4
					c0.5,0,0.9,0.2,1.2,0.5c0.3,0.3,0.5,0.7,0.4,1.2c0,0.9,0,1.9,0,2.9c0,1,0,2,0,3c0,0.1,0.1,0.2,0.2,0.2h5.9c0,0,0.1,0,0.1,0
					c0,0,0-0.1,0-0.1c-0.9-1-2-2-3.3-3.1c-0.4-0.3-0.5-0.6-0.5-1.1c0-0.5,0.2-0.8,0.5-1.1l2.1-1.8c0.4-0.3,0.8-0.5,1.4-0.5
					c0.5,0,1,0.1,1.4,0.4c1.5,1.1,2.7,2.1,3.7,3c0.3,0.3,0.5,0.7,0.5,1.2c0,0.5-0.2,0.9-0.6,1.2l-2.1,1.7c0,0,0,0.1,0,0.1
					c0,0,0,0,0.1,0h2.4c0.5,0,0.9,0.2,1.2,0.5s0.5,0.8,0.5,1.2V95.1z M931.3,108.6c-0.1,0-0.2,0.1-0.2,0.2v9c0,0.2,0.1,0.2,0.2,0.2
					c3.2-0.5,5.5-0.8,6.7-1.1c0.5-0.1,0.9,0,1.2,0.3c0.4,0.3,0.6,0.7,0.6,1.1l0.2,3c0.1,0.5-0.1,0.9-0.4,1.3
					c-0.3,0.4-0.7,0.7-1.1,0.8c-4,0.8-10.7,2.2-19.9,4c-0.5,0.1-0.9,0-1.3-0.2c-0.4-0.3-0.7-0.6-0.8-1.1l-1.1-4
					c-0.1-0.4,0-0.8,0.2-1.2s0.6-0.6,1-0.6c1.7-0.2,4-0.6,7-1c0.1,0,0.2-0.1,0.2-0.2v-10.2c0-0.2-0.1-0.2-0.2-0.2h-4.8
					c-0.5,0-0.9-0.2-1.2-0.5c-0.3-0.3-0.5-0.7-0.5-1.2v-3.5c0-0.5,0.2-0.9,0.5-1.2s0.8-0.5,1.2-0.5h17.9c0.5,0,0.9,0.2,1.2,0.5
					c0.3,0.3,0.5,0.8,0.5,1.2v3.5c0,0.5-0.2,0.9-0.5,1.2c-0.3,0.3-0.7,0.5-1.2,0.5H931.3z"/>
			</g>
		</g>
	</g>
</g>
</svg>
