<?xml version="1.0" encoding="utf-8"?>
<!-- Generator: Adobe Illustrator 21.1.0, SVG Export Plug-In . SVG Version: 6.00 Build 0)  -->
<svg version="1.1" id="圖層_1" xmlns="http://www.w3.org/2000/svg" xmlns:xlink="http://www.w3.org/1999/xlink" x="0px" y="0px"
	 viewBox="0 0 780 959.1" style="enable-background:new 0 0 780 959.1;" xml:space="preserve">
<style type="text/css">
	.st0{fill-rule:evenodd;clip-rule:evenodd;fill:#59432B;}
	.st1{fill:#59432B;}
	.st2{fill:#352723;}
	.st3{fill-rule:evenodd;clip-rule:evenodd;fill:#352723;}
	.st4{fill:#2F6734;}
	.st5{fill-rule:evenodd;clip-rule:evenodd;fill:#78A617;}
	.st6{fill-rule:evenodd;clip-rule:evenodd;fill:#210000;}
	.st7{fill-rule:evenodd;clip-rule:evenodd;fill:#FFFFFF;}
	.st8{fill-rule:evenodd;clip-rule:evenodd;fill:#31202A;}
	.st9{fill-rule:evenodd;clip-rule:evenodd;fill:#D9BF25;}
	.st10{fill-rule:evenodd;clip-rule:evenodd;fill:#323035;}
	.st11{fill-rule:evenodd;clip-rule:evenodd;fill:#6D534F;}
	.st12{fill:#594B44;}
	.st13{fill:#6D534F;}
	.st14{fill:#BDB199;}
	.st15{fill:#FFFFFF;}
	.st16{fill:#7F6B4E;}
	.st17{fill:#A38157;}
	.st18{fill:#CA9849;}
	.st19{fill:#31332D;}
	.st20{fill:#959892;}
	.st21{fill:#A38157;stroke:#A38157;stroke-miterlimit:10;}
</style>
<g>
	<path class="st0" d="M270.1,369.6c5.5-9.2,45.2-57,37.2-104.2c-8,25.8-20.7,66.5-49.6,77C257.8,354.3,270.1,369.6,270.1,369.6z"/>
	<path class="st0" d="M241.5,316.1c6-15.5,50.7-86.5-18-171.8c4.7,15,41.7,110,1,150.4C239.8,316.7,241.5,316.1,241.5,316.1z"/>
	<path class="st1" d="M158.5,410.4c-9-8-36.8-20.6-38.8-20.2c-1.3,0.2,29.8,17.7,51.6,49.4c4.7-0.4,6-0.6,14.7-2.4
		C180.1,431.2,161,412.6,158.5,410.4z"/>
	<path class="st0" d="M430.6,212.2c1.2-4,2.7-38.8,13.3-50.7c-8.3,9.3-19,26-23.2,38.7C423.8,210.7,430.6,212.2,430.6,212.2z"/>
	<path class="st0" d="M416.6,201.3c-7.7-6-21.9-5.8-31-8c-22-5.3-40.8-22-52.2-29.4c10.2,12.2,16.5,27.9,54.3,42.1
		c19.3,7.2,28.9,12.3,29.5,20.6C422.8,207.2,416.6,201.3,416.6,201.3z"/>
	<path class="st0" d="M442.3,237.3c-1.3-6.6-4.1-16.3-11-29.8c0.1-0.9,0.2-2.1,0.3-2.9c-1.6-3-5-10.3-7-13.7
		c-0.3,0.6-0.9,1.9-1.2,2.6c-3.9-6.4-8.4-13.1-14-20.8c-24-33-36.3-70.3-33.7-83c-9.7,33.3,20.7,79.7,31,105.7
		c0.2,0.6,0.5,1.2,0.7,1.8c-0.5-0.1-1.2-0.4-2-0.5c2.8,7.4,5.3,17.1,6.8,21.4c0.6,0.6,3.6,3.6,3.8,4.4c3.4,12.4,4.9,22.6,5.3,32.4
		C437.1,240.7,442.3,237.3,442.3,237.3z"/>
	<path class="st0" d="M604,360c33.2-4.6,53-29.2,77-34.2c-17.3-3.7-50.7,16.5-58.2,14.6C617.2,346,604,360,604,360z"/>
	<path class="st0" d="M567.8,384.4c3-2.4,15.1-10.6,29.8-22.9c2.8-1.2,5.4-1.4,6.4-1.5c2.8-2.2,15.4-14.4,18.7-19.6
		c-0.9,0-1.5-0.1-2.2-0.2c22.9-23.7,44.1-54.7,42.3-87.9c-3.3,18.3-46.3,74.8-96.3,101.8C563.6,366.9,567.8,384.4,567.8,384.4z"/>
	<path class="st0" d="M549.6,305.4c-1.6-2.9-25.8-30.8-47.7-31.9c19.2,13,39.1,30.4,44.5,49.5C549,312.6,549.6,305.4,549.6,305.4z"
		/>
	<path class="st0" d="M444.3,676.7c7.1-4.8,8-5.8,12.3-11.7c3.4-4.6,16.5-13.3,20.6-14.3c-18.5,2.5-27.5,13.2-40.6,15.6
		C433.6,669.1,442.9,677.7,444.3,676.7z"/>
	<path class="st0" d="M530.2,442.6c10.8-27.5,11.6-67.8,17.9-113.9c-0.3-1.7-1.2-4.2-1.7-5.7c0.4-2.8,1.7-12.7,3.2-17.6
		c0.8,0.8,1.4,1.6,1.7,2.1c6.9-39.8,19.1-82.9,45.5-125.7c-10.2,23.6-24.9,98.1-27.3,170.7c0.8-0.5,1.8-1.2,2.8-1.6
		c-0.1,4.6,1.4,24.6,1.4,29.2c-0.6,0.4-2.8,2.1-4.7,3.4c-0.8,24.2-5.4,43.8-9,55.4C553.1,438.7,542.4,439.6,530.2,442.6z"/>
	<path class="st0" d="M479.8,499.2c2.8,10.4,8.6,40.5,0.9,50c12.3,0.6,17-6.1,17-7.1C497.7,542.1,496.8,512,479.8,499.2z"/>
	<path class="st0" d="M422.5,442.1c3.4-6.6,15.8-27.2,36.3-46.2c-10.3,2.9-31.6,13.9-37.3,18.1C420.4,423.2,421.7,443.7,422.5,442.1
		z"/>
	<path class="st0" d="M382.5,361.2c-2.9-5.1-15.7-21.1-25.6-23.1c5.5,10,10.1,23.6,11.7,32C373.5,369.2,382.5,361.2,382.5,361.2z"/>
	<path class="st0" d="M402,319.7c0.6-2.5,4.8-13.5,10.7-26.9c3.2-7.3,8.2-21.5,8.8-37.9c5.2-7.2,11.8-12.7,20.9-17.6
		c0.7,2.3,3,11.6,4.1,15.1c3.2-2.9,16.6-10,20.1-11.9c25.1-14.1,49.8-13.1,75.2-69.1c0.4,13.7-0.6,46-37.4,67.3
		c-36.8,21.3-70.3,45.2-78.7,83.1C419.1,323.7,402,319.7,402,319.7z"/>
	<path class="st0" d="M287,582.9c-3.8,0.3-51.8-13.1-76.8-32.2c11.4,4.6,42.7,12.3,65.1,15.1c10.4,1.3,37.6,5.9,40.6,6.5
		C309.3,577,287,582.9,287,582.9z"/>
	<path class="st0" d="M246.1,467.8c-22.7,2.8-58.9,26.9-68.6,42.8c7.8-4.3,50.9-24.6,77.1-21.4C255.3,483.7,249.5,467.4,246.1,467.8
		z"/>
	<path class="st0" d="M292.1,494.5c-1.8-4.1,6.2-23.8,20.8-29c-7,10.5-12.1,36.2-7.3,41.5C296.3,503,293.3,497.2,292.1,494.5z"/>
	<path class="st0" d="M289.9,489.2c-9.1-16.9-17.4-62.4-16.3-98.9c0.2-6.3-1.2-13.3-3.6-20.8c0.8-1.2,3.2-4.7,3.9-5.7
		c-2.4-6.5-7.1-17.3-10.7-24c-1.1,0.6-4.5,2.1-5.5,2.4c-5-9-10.7-18-16.3-26.2c0.5-1.2,1.9-4.2,2.6-5.9
		c-4.2-6.1-10.1-14.5-15.9-19.6c-0.7,0.8-2,2.3-2.8,3.1c-5.5-7.3-9.9-12.9-12.2-16c-10.1-13.8-43.9-79.4-45.4-95.9
		c0.5,21.5,3.2,73.6,47.4,132.1c44.1,58.4,36.4,113.4,33.8,132.4C254.3,458.8,289.9,489.2,289.9,489.2z"/>
	<path class="st1" d="M220.6,442.2c-11.8-3.3-23.1-4.2-33.2-3.5c-0.2-0.2-0.7-0.7-1.4-1.5l-14.8,2.2c0.3,0.5,0.5,0.9,0.8,1.4
		c-16.9,3.6-43,12.9-46.6,15.2c45-15,104.5,4.4,110.3,6.8v-18.3C235.8,444.5,235.1,446.3,220.6,442.2z"/>
	<path class="st0" d="M250.5,432.2c9.6,11.5,26,35.7,34.8,46c1.1,3.2,3.1,7.7,4.6,11"/>
	<path class="st0" d="M301.2,546.7c-5.7-5.4-25-28.3-46.6-57.5c-1.7-0.2-4.8-0.3-5.4-0.3c-3.8-5.2-8.7-13.4-12.6-18.9
		c1-0.4,2.5-0.7,3.4-1c-1.4-2-2.9-4.1-4.3-6.2c-0.6-0.2-3.7-1.3-4.7-1.6c-3.6-5.3-7.1-13.5-10.6-19c0.7,0.2,1.2,0.3,1.8,0.5
		c-20.3-31.5-37.5-63.7-41.5-86.7c9.3,12.8,38.8,49.4,68.8,85.5c0.2-2,0.8-7.4,1-9.3c9.6,11.5,26,35.7,34.8,46c1.1,3.2,3,7.7,4.6,11
		c0.7,0.8,1.4,1.6,2.1,2.4c0.1-0.6,0.3-1.4,0.4-2c2.9,3.3,8.8,8.5,11.4,11.4c0.3,2.5,0.7,4.8,1.8,6c8.5,9.5,15.1,16.3,18.4,18.9
		C321.9,531.6,301.2,546.7,301.2,546.7z"/>
	<path class="st0" d="M321.8,570.4c-0.8,0.2-3.1,0.8-6.4,1.8c-0.6-0.1-3.1-0.6-5-0.9c-6,2-17.8,7.2-27,11.1c1.1,0.2,2.3,0.4,2.9,0.5
		c-17.2,7.2-37.8,17.5-55.1,30.7c29-10.5,86.7-24.5,96-25.1C333.4,585.3,326,569.5,321.8,570.4z"/>
	<path class="st1" d="M540,503c1.8-6.6,33.1-54.4,98-91.3c-27.8,6-65,31-83.4,42.6c2.1-5.1,4.2-11.4,5.4-15.3
		c-15.7-1.2-29,2.2-29.7,3.7c-19.1,41.2-23.8,81.3-28.3,94c8.9-5.1,28.9-12.6,37.7-15.7C538.9,516.6,538.8,507.5,540,503z"/>
	<path class="st1" d="M539.7,521.4c0-0.1-0.4-2.5-0.4-2.5l-36.1,13.9c-0.2,0.6-1.9,5.5-2,5.6c-1.2,1-2.3,1.8-3.5,2.6
		c-0.1-0.7-0.1-1.6-0.2-2.4c-1.9,1-12.2,4.4-14.1,5.1c-0.4,1.5-1,2.9-1.3,3.6c-3.3,0.9-6.5,1.7-9.2,3c-5.7,4.8,4.2,28.2,5.2,27.8
		c4.7-1.8,19.7-6.5,33.6-18.6c19.2-16.6,68-46.9,85.2-50.5C586.8,508.5,556.4,515.4,539.7,521.4z"/>
	<path class="st0" d="M441.7,855c11.4,32.5,69,78.4,75.8,84.2c-14,5.3-42.5,2-51.5,0.2c-6.6-3-15.8-6.3-21.3-8.8c0,0,2,5.6,3.2,11.3
		c-1.1,1.1-18.3,4.1-28.7,1.2c-2.6-2.7-12.7-12.8-15.8-14.7c-4.4,1.6-15.5,11.6-18.3,15.3c-3.5,1.8-33.9,1.6-35.9-0.2
		c0.3-0.6,6.8-11.4,10.7-16.1c-8.7,9-23.4,16.4-38.1,20.1c-5.1-1.2-15.8-1.9-23.3-3.5c0.2-0.5,2.4-2.8,4.2-4.8
		c-10.6-0.2-25.4-0.3-29-1.2c67-52.7,73.2-96.3,72.3-92.5c-0.9,3.8,6.6-36.6,12.3-67.2c3.3-18,13.2-150.6,12-170
		c-3.4-15.3-24.7-21.2-43-19.8c-3.7-7.5-5.6-16.6-5.5-18.1c1.2-0.5,2.8-1,4.1-1.3c-8-6.2-22.2-19.7-24.7-22.4
		c4.9-5,22.5-21.1,22.9-20.7c4.4,3.7,32.3,26.3,48,25.1c1.5-4.2,8.2-128.3,2.7-167.5c-4.8-7.2-6-12.6-6.1-13.4
		c1.7-2.1,12.6-9.1,13.9-8.9c0.7,1.4,1.9,3.7,2.3,4.3c1.4-2.3,16.3-43.5,17.1-45.8c7.3-1.1,20.9,0,23.6,2.1
		c-1.9,7.2-7.8,74.3-6.9,83.3c0.1,1.4,0.2,5.4,0.2,11.2c0.6-0.7,1.4-1.5,2.6-2.2c0,6.2,0.9,19.5,1,28.1c-1.5,2.2-2.7,4.7-3.4,6.6
		c0.4,38.3,2.3,90.2,10.4,107.5c25.6-0.5,37.6-3.7,43.8-6.3c2.5,3.4,5.7,24.7,4.7,28c-18.2,6.1-43.6,16-49.2,32.8
		c-5.5,16.8-3.9,51.3-1.9,56.7c3.7,0.2,7.9-0.8,9.6-1.1c1.6,1,8,10.2,7.7,10.4c-4,2.3-20.1,9.8-20,16.1
		C424.3,699.1,430.2,822.5,441.7,855z"/>
	<g>
		<path class="st0" d="M498.6,561.8c0,0-42.2,20.6-49.1,21.1"/>
		<path class="st2" d="M498.6,561.8c0,0-0.7,0.5-2,1.2c-1.3,0.8-3.1,1.8-5.3,3c-2.2,1.2-4.8,2.6-7.6,3.9c-2.8,1.4-5.9,2.8-8.9,4.1
			c-1.5,0.7-3.1,1.3-4.6,2c-1.5,0.6-3,1.3-4.5,1.8c-2.9,1.2-5.7,2.2-8.1,3c-1.2,0.4-2.3,0.7-3.3,1c-1,0.3-1.9,0.5-2.6,0.6
			c-0.7,0.2-1.3,0.2-1.7,0.2c-0.4,0-0.6,0.1-0.6,0.1s0.2-0.1,0.6-0.2c0.4-0.1,0.9-0.2,1.6-0.5c0.7-0.3,1.5-0.5,2.4-1
			c0.9-0.4,2-0.8,3.1-1.4c1.1-0.5,2.4-1,3.7-1.7c1.3-0.6,2.7-1.2,4.1-1.9c2.8-1.3,5.9-2.7,8.9-4.1c1.5-0.7,3-1.4,4.5-2.1
			c1.5-0.7,3-1.3,4.4-2c2.9-1.3,5.6-2.4,7.9-3.4c2.3-0.9,4.3-1.7,5.7-2.2c0.7-0.3,1.2-0.4,1.6-0.6
			C498.4,561.9,498.6,561.8,498.6,561.8z"/>
	</g>
	<g>
		<path class="st0" d="M426.2,923c0,0-10.5-27.6-9.8-39.5"/>
		<path class="st2" d="M426.2,923c0,0-0.1-0.1-0.2-0.4c-0.2-0.3-0.4-0.7-0.6-1.2c-0.5-1-1.2-2.4-2-4.2c-0.8-1.8-1.6-3.9-2.3-6.1
			c-0.4-1.1-0.8-2.3-1.1-3.5c-0.3-1.2-0.7-2.4-1-3.7c-0.3-1.2-0.6-2.5-0.9-3.7c-0.3-1.2-0.6-2.4-0.8-3.6c-0.2-1.2-0.4-2.3-0.6-3.4
			c-0.2-1.1-0.3-2.1-0.3-3.1c0-0.5-0.1-0.9-0.1-1.4c0-0.4,0-0.9,0-1.3c0-0.8,0-1.5,0.1-2c0.1-1.1,0.2-1.8,0.2-1.8s0.1,0.6,0.2,1.8
			c0,0.6,0.2,1.2,0.3,2c0.1,0.4,0.1,0.8,0.2,1.2c0.1,0.4,0.2,0.9,0.3,1.3c0.2,0.9,0.4,1.9,0.7,3c0.2,1.1,0.5,2.2,0.8,3.3
			c0.3,1.1,0.6,2.3,1,3.5c0.3,1.2,0.7,2.4,1,3.6c0.3,1.2,0.7,2.4,1.1,3.6c0.4,1.2,0.7,2.4,1,3.5c0.7,2.3,1.3,4.4,1.8,6.3
			c0.5,1.9,0.9,3.4,1.1,4.5C426.1,922.4,426.2,923,426.2,923z"/>
	</g>
	<g>
		<path class="st0" d="M348.2,867.7c-4.7,9-16.7,26.3-23.7,29.7"/>
		<path class="st2" d="M348.2,867.7c0,0-0.2,0.6-0.5,1.6c-0.2,0.5-0.4,1.1-0.7,1.8c-0.3,0.7-0.6,1.4-1,2.2c-0.8,1.6-1.9,3.5-3.1,5.4
			c-1.3,1.9-2.7,3.8-4.1,5.8c-0.7,1-1.5,1.9-2.3,2.8c-0.8,0.9-1.5,1.8-2.3,2.6c-0.8,0.8-1.5,1.6-2.3,2.3c-0.7,0.7-1.5,1.4-2.2,2
			c-0.7,0.6-1.4,1.1-2,1.5c-0.6,0.4-1.2,0.7-1.6,1c-1,0.4-1.5,0.7-1.5,0.7s0.5-0.4,1.3-1c0.4-0.4,0.9-0.8,1.4-1.3
			c0.5-0.5,1.1-1.1,1.7-1.7c0.6-0.7,1.2-1.4,1.9-2.2c0.7-0.8,1.3-1.6,2-2.5c0.7-0.9,1.4-1.8,2.1-2.7c0.7-0.9,1.4-1.9,2.1-2.9
			c0.7-1,1.4-1.9,2.1-2.9c0.7-1,1.3-1.9,1.9-2.8c0.6-0.9,1.3-1.8,1.8-2.6c0.6-0.8,1.2-1.6,1.7-2.3c0.5-0.7,1-1.4,1.5-2
			c0.4-0.6,0.8-1.1,1.2-1.5C347.8,868.2,348.2,867.7,348.2,867.7z"/>
	</g>
	<path class="st3" d="M321.7,947.4c2.1-1.8,33.1-21,39.7-28.6c5.8-6.5,13.2-20.3,13.3-21c-7,21.7-13,27.9-14,28.7
		C359.8,927.3,349.9,939.6,321.7,947.4z"/>
	<path class="st3" d="M302.7,939.2c-1.9,3.3,10-14.6,21.9-21.2c12.2-6.8,16.8-10.9,18.7-12.9c-4.5,2.4-12.6,7.9-18.7,10.9
		C318.6,918.9,307.3,931,302.7,939.2z"/>
	<path class="st3" d="M467.7,939.7c-2.7-3-24.3-24.7-31-39.2c2.1,8.6,5.8,23.2,7.9,30.1C464.8,939.9,467.7,939.7,467.7,939.7z"/>
	<path class="st3" d="M488.7,941.9c-0.6-0.7-13.7-16.3-16.1-21.8c3.6,4.4,19,22.2,24.9,22C492.4,942.2,488.7,941.9,488.7,941.9z"/>
	<path class="st3" d="M385,943.7c1.3-4.2,8.3-11.7,12.5-14.5s5.9-4.5,6.7-5.6c1.3,1.8,6.1,6.2,14.9,19.4
		c-9.5-9.4-13.5-13.2-15.8-14.7c-1,0.3-1.8,0.9-2.5,1.3C395.9,932.7,386.6,941.4,385,943.7z"/>
	<path class="st2" d="M386.2,903.8c2.2-17.8,6.6-32.1,6.3-53.6C390.8,861.7,386.3,892.7,386.2,903.8z"/>
	<path class="st3" d="M412.7,679.2c2.4,18.5,3,66,3.8,70.8C412.5,742.2,411,682.7,412.7,679.2z"/>
	<path class="st3" d="M368.8,764.9c0.6,7.6-1.4,26.8-1.1,28.8C365.6,790.3,367.6,766.2,368.8,764.9z"/>
	<path class="st3" d="M371.6,771.1c0.2,7.6-1.8,26.8-1.7,28.7C368.4,796.5,370.6,772.4,371.6,771.1z"/>
	<path class="st3" d="M409.7,732.8c1.5,6.2,1.8,22.2,2.3,23.8C409.6,753.9,408.7,733.9,409.7,732.8z"/>
	<path class="st3" d="M389.3,578.7c-0.9-6.3-0.2-22-0.3-23.9C390.6,557.8,390.4,577.6,389.3,578.7z"/>
	<path class="st3" d="M323.7,916.4c-4,1.6-28.1,21-29.8,22.6c2.6,0,8.7,0.2,8.7,0.2C303.2,938.2,323.7,916.4,323.7,916.4z"/>
	<path class="st3" d="M387.3,473.3c-1,11.2-4.7,93.2-3.7,99C388,542.9,387.3,473.3,387.3,473.3z"/>
	<path class="st3" d="M521.9,485.1c1-5.6,3.8-19.5,7.5-24.4c3.7-5,6.2-12.9,6.4-14.9c0.1,3.6-2.8,11.9-6.4,17
		C526.8,466.4,523.8,479.6,521.9,485.1z"/>
	<path class="st2" d="M531.3,467.8c-0.8,1.1-7.1,23.4-9.4,27.3c2.1-1.4,4.6-9.9,5.9-14.1C528.4,478.7,531.3,467.8,531.3,467.8z"/>
	<g>
		<path class="st4" d="M457.3,655.8c0,0,3.7-45.2,32.5-48.4c28.8-3.2,40.7-8.1,42.2-9.9c0.9,9.5,5.9,41.2-30.8,55.4
			c-20.6,6.2-42.2,8.6-44.9,9.6C456.6,660.6,457.3,655.8,457.3,655.8z"/>
		<path class="st4" d="M578.9,514.6c2.4-14,23.6-61.4,103-38c0.7,6.7-12.5,33.2-25.5,39.8C643.3,523.1,606.6,530.8,578.9,514.6z"/>
		<path class="st4" d="M488.1,518.1c10.8-17.1,8.5-41.4-32-64.4c-7.4-3.6-8.8-5-14.3-7.8C431.4,456.2,427.5,517.3,488.1,518.1z"/>
		<path class="st4" d="M614.1,422.4c6.3-6.6,9.2-18.5,13.4-27.7s20.7-33,59.3-28.7c5.8,0.7,23.8-3.3,25-3.1
			c-0.2,14.9-13.5,54-50.6,57.1C624.2,423.2,617.2,421.4,614.1,422.4z"/>
		<path class="st4" d="M667.6,328.1c4.8-1.7,8.8-10.3,20.8-18.8c11.9-8.5,25.6-9.1,46.8-6.1c20.2,2.9,22,0,22,0
			c-0.5,5.4-12.8,34.1-48.8,35.2C692.6,338.8,677.8,335.2,667.6,328.1z"/>
		<path class="st4" d="M654.3,276.3c-4.3-9.1-36.8-35.5-14-70.4c12.5-19.1,23.1-32.1,23.9-37.6c6,3.5,40.8,42.6,30.6,68.9
			C690.2,248.6,680.3,262.8,654.3,276.3z"/>
		<path class="st4" d="M580.8,221.1c-1.5-12-3.6-61.8,18.7-69.9c22.3-8.1,41.1-14.4,41.7-19.4c2.1,7,1,40.8-3.5,47.8
			C619.1,209.1,580.8,221.1,580.8,221.1z"/>
		<path class="st4" d="M541.8,301.6c-2.5-14.3,6.5-39.5-63.5-37.8c2.4,8.4,4.5,18,7,23C489.5,295.3,515,309.6,541.8,301.6z"/>
		<path class="st4" d="M536.3,190.1c-1.3-5-12.7-36.1-14.2-46.9c-1.5-10.8,0.2-37.1,28-57.8c4,6.8,7.6,7.1,14,13.5
			c6.4,6.4,29.1,31.9-3.8,67.3C549,181.7,542,183.9,536.3,190.1z"/>
		<path class="st4" d="M429.8,190.1c-5-20.4-21.9-74.6,70.8-88.7c-0.8,10.6,2.8,23.7,2.1,30C501.2,144.1,488.3,174.1,429.8,190.1z"
			/>
		<path class="st4" d="M378.5,122.1c-2.6-4.1-30.1-47.8-14.8-74.7c15.3-26.8,41.8-22.6,44.6-30.6c1.6,7.9,23.3,38.3,11.3,58.5
			S381.9,111.9,378.5,122.1z"/>
		<path class="st4" d="M347.8,179.4c0.4-9.9-2.1-103.3-75.9-97.4c-0.4,6.9-0.4,17.2-1.1,20.8c-2.5,14.7-4.7,48.8,31.5,57.7
			C338.5,169.2,347.8,179.4,347.8,179.4z"/>
		<path class="st4" d="M446.1,404.3c1.3-10.8,0.7-47.2,25-53c24.4-5.8,56.2-4.8,62.4-8.5c-0.6,8.6-2.7,47.4-38.3,58.2
			S453.6,401.8,446.1,404.3z"/>
		<path class="st4" d="M369.4,354.2c4.5-11.6,11-33.8,9.5-47.4c-1.5-13.6-27-38.3-28.2-48.5c-13.2,17.1-42.5,48.1-15.6,79
			C346.3,350.2,368.3,352.8,369.4,354.2z"/>
		<path class="st4" d="M304.6,286.7c-7-5.8-38.9-43.2-23.3-74.6c15.6-31.4,16.6-34.9,15.8-38.4c12.3,4.8,48.1,34.4,37.3,64.7
			C323.6,268.7,306.8,284.5,304.6,286.7z"/>
		<path class="st4" d="M235.8,166.2c0,0,19.2-43.5-8.3-63.3c-27.4-19.8-33.7-23.6-33.7-26.1C190.8,85.9,165.2,149.1,235.8,166.2z"/>
		<path class="st4" d="M175.1,217.6c3.9-9.8,9.3-64.3-9.3-88s-40-24.2-41.7-28.7c-6,11.8-38.1,61.1,20.3,95.2
			C158.6,205.6,173.9,214.9,175.1,217.6z"/>
		<path class="st4" d="M197.8,386.6c17-22.5,12.3-52.7-26.7-70.7c-39-18-39-8.3-39-10.3C133.5,321.2,115.8,376.9,197.8,386.6z"/>
		<path class="st4" d="M143.2,405.7c-7.7-23.4-36.9-71-75.6-69s-42.4,0.6-44.7-0.9c1.7,15.9,9.6,53.5,55.2,66.7
			C123.7,415.7,138.9,403.3,143.2,405.7z"/>
		<path class="st4" d="M144.5,450.6c-9.7-10-41.9-23.5-69.7-14s-36.3,11-38,10.5c8,12.5,34,26.2,48.5,26.2
			C105.6,473.3,128.7,466.5,144.5,450.6z"/>
		<path class="st4" d="M302.1,480.3c-5,0.6-15.6-74.1,63.3-70.8c0.2,10.8-0.5,31.5-1.7,35.3C362.5,448.6,353.3,474.3,302.1,480.3z"
			/>
		<path class="st4" d="M194.7,498c-10.9,1.2-106.5-14.3-106.6,38c14.7,1,56.5,21,86.9-3C201.2,512.2,194.7,498,194.7,498z"/>
		<path class="st4" d="M250.5,567.6c-1.9-8.8-13.8-37.5-50.5-31.9c-15.5,1.5-22.3,2.4-25.4,2.5c4.9,7,23.6,37.8,44.1,37.8
			C239.2,576.1,248.7,566.1,250.5,567.6z"/>
		<path class="st4" d="M248.3,605.4c-12.8,0.5-32.3,3.6-48.4,5.9c-16.1,2.3-30.9,19.1-27.5,37.8c8.4-1,41.7,3,51.4-2.5
			S250.7,614.4,248.3,605.4z"/>
	</g>
	<path class="st2" d="M420.1,325.1c1.8-10.3,7.1-33.6,22.2-44.7C437.3,287.5,428.8,294.3,420.1,325.1z"/>
	<path class="st2" d="M444,259.4c2.3-5.1,22.8-15.3,27-15.3C461.3,249.6,457.5,249.9,444,259.4z"/>
	<path class="st2" d="M464.5,244.4c0,0,3.3-3.4,10.3-4C471.8,241.4,469.9,242.3,464.5,244.4z"/>
	<path class="st2" d="M248.8,470.3c-1.9-2,16.3,30.2,24.8,34.3C270,500.3,251.3,472.9,248.8,470.3z"/>
	<path class="st2" d="M249.5,463.5c1,4,6,11.8,8.4,13.4C256.5,474.5,249.1,462.1,249.5,463.5z"/>
	<path class="st3" d="M232.8,459.4c-6.4-4.6-17.3-6.3-22.1-7.1C216.5,450.6,231.5,455.4,232.8,459.4z"/>
	<path class="st3" d="M256,439.1c1-4.8,1.5-19.2,1.5-24.2c-0.1-7.7-0.8-19.7-2.8-25.8C258.9,394.8,261.5,420,256,439.1z"/>
	<path class="st3" d="M198,282.9c1.4,4.4,11.3,19,13.4,20.6C205.2,293,198,282.9,198,282.9z"/>
	<path class="st3" d="M197.1,278.6c0,0,3.8,7.1,6.9,9.7C201.8,284.8,197.8,279,197.1,278.6z"/>
	<path class="st3" d="M242.3,177.8c4.3,3.6,11.5,25.1,11.3,33.6C251.8,205.7,245.1,183.5,242.3,177.8z"/>
	<path class="st3" d="M275.8,354.9c1.4-1.6,12.8-17.5,14.1-22.1C286.8,337.2,275.8,354.9,275.8,354.9z"/>
	<path class="st3" d="M291.1,327.7c-1.8,2.6-6.4,11-8.8,13.8C285.2,338.6,288.1,334.5,291.1,327.7z"/>
	<path class="st3" d="M345.7,585.9c-11.4-0.2-14.4-2.2-36.8,3.4C322.3,583.9,334.1,583.2,345.7,585.9z"/>
	<path class="st3" d="M272.3,576.1c5.1,1.3,12.6,4.1,21,3.5C287.7,580.6,283.1,580.6,272.3,576.1z"/>
	<path class="st3" d="M320.2,584.4c-2.5,0.7-10.9,3-14.5,5C307.8,587.4,318.5,583.9,320.2,584.4z"/>
	<path class="st3" d="M371.6,196.6c1.5,1.1,14.1,6.8,23.6,10.3c-2.6,0-11.5-3.9-13.4-4.7C379.9,201.4,372.6,198.6,371.6,196.6z"/>
	<path class="st3" d="M370.7,194.5c2.5,1.5,7.1,4,8.7,4.6C376.4,198.5,372.4,196.3,370.7,194.5z"/>
	<path class="st3" d="M416,443.9c4.2-6.4,10.8-16.8,14.9-20.4C425.2,426.6,416,442.2,416,443.9z"/>
	
		<ellipse transform="matrix(4.282625e-02 -0.9991 0.9991 4.282625e-02 -362.8844 1076.6012)" class="st3" cx="380.4" cy="727.7" rx="25.6" ry="8.6"/>
	<path class="st3" d="M374.9,705.9c-0.1,0.9,2.4-6.2,7-5.9c4.6,0.3,6.6,5.6,6.6,6.5c0.1-2-1.2-7.6-6.5-7.7
		C376.7,698.6,375,705.2,374.9,705.9z"/>
	<path class="st3" d="M372.7,748.6c-0.1-0.9,1.9,6.4,6.5,6.5c4.6,0.1,7.1-5.1,7.1-5.9c-0.1,2-1.8,7.4-7.1,7.1
		C373.9,756,372.8,749.4,372.7,748.6z"/>
	<path class="st3" d="M375.5,756.9c1.8,0.9,4.5,2.1,8.4-0.2C382.5,758.2,379,761,375.5,756.9z"/>
	<path class="st3" d="M390.5,713.3c1.4,3.4,2.6,21.7-2,30.7C391.8,736.1,390.9,717.1,390.5,713.3z"/>
	<g>
		<path class="st5" d="M189.6,422.9c-0.1,0.5-0.8,1-1.6,1.7c-0.8,0.8-5.2,6.1-1.2,11c3.3,4,7.2,3.8,9.2,3.6c2-0.2,8.5-1.1,8.7-8.6
			c0.3-4.5-1.7-5.4-3.7-7.6c-0.9-0.8-1.6-3.1-2-3.6c-0.7-0.9-1.9-1.6-4.2-1.3C192.5,418.5,190.3,419.7,189.6,422.9z"/>
		<path class="st5" d="M185.7,430.3c-0.2,0.1-0.8,0.4-1.4,0.3c0-0.3,0.6-0.9,1.1-1.2"/>
		<path class="st5" d="M186.2,430.7c-0.2,0.1-0.8,0.4-1.4,0.3c0-0.3,0.6-0.9,1.1-1.2"/>
		<path class="st5" d="M186,429.7c-0.2,0-0.9,0.2-1.4,0c0.1-0.3,0.8-0.7,1.4-0.8"/>
		<path class="st5" d="M204.4,429.7c0.2,0.1,0.8,0.3,1.4,0.2c0-0.3-0.7-0.9-1.2-1.1"/>
		<path class="st6" d="M192.4,423.2c0.1,0,1.9,0.2,2.4,0.2c-0.3,0.2-0.7,0.3-0.8,0.3c-0.1,0-1.8-0.1-1.8-0.2
			C192.2,423.5,192.3,423.2,192.4,423.2z"/>
		<path class="st6" d="M197.9,423c-0.1,0-2.3,0.4-2.8,0.4c0.3,0.2,0.7,0.3,0.8,0.3c0.1,0,2.2-0.3,2.2-0.3
			C198.1,423.3,197.9,423,197.9,423z"/>
		<path class="st5" d="M203.9,430.1c0.2,0.1,0.8,0.3,1.4,0.2c0-0.3-0.7-0.9-1.2-1.1"/>
		<path class="st5" d="M204,429.1c0.2,0,0.9,0.1,1.4-0.1c-0.1-0.3-0.9-0.7-1.4-0.7"/>
		<path class="st7" d="M191.7,424.9c-0.3,0.3-1,2.4-3,3.5c-1.9,1.2-3.8,3.4-2.6,6.2c1.2,2.8,5.1,4.9,8.4,4.8c3.7-0.1,9.9,0,10.3-8.9
			c-0.2-1.8-4.4-2.5-5.3-3.5c-0.8-1.1-1.3-2.4-2.5-2.5C195.8,424.3,193.1,423.3,191.7,424.9z"/>
		
			<ellipse transform="matrix(0.9994 -3.329480e-02 3.329480e-02 0.9994 -13.9904 6.6246)" class="st8" cx="191.9" cy="423.4" rx="0.5" ry="0.9"/>
		
			<ellipse transform="matrix(0.9994 -3.417920e-02 3.417920e-02 0.9994 -14.3492 7.0271)" class="st8" cx="198.4" cy="423.2" rx="0.5" ry="0.9"/>
		
			<ellipse transform="matrix(0.9995 -3.244494e-02 3.244494e-02 0.9995 -13.6141 6.6668)" class="st7" cx="198.6" cy="422.8" rx="0.8" ry="1.3"/>
		
			<ellipse transform="matrix(0.9995 -3.227682e-02 3.227682e-02 0.9995 -13.5441 6.6311)" class="st8" cx="198.6" cy="422.8" rx="0.5" ry="0.9"/>
		
			<ellipse transform="matrix(0.9996 -2.696115e-02 2.696115e-02 0.9996 -11.3214 5.5179)" class="st7" cx="199" cy="422.6" rx="0.1" ry="0.2"/>
		
			<ellipse transform="matrix(0.9995 -3.178375e-02 3.178375e-02 0.9995 -13.3496 6.3044)" class="st7" cx="191.6" cy="423.1" rx="0.8" ry="1.3"/>
		
			<ellipse transform="matrix(0.9995 -3.125978e-02 3.125978e-02 0.9995 -13.1311 6.197)" class="st8" cx="191.6" cy="423.1" rx="0.5" ry="0.9"/>
		
			<ellipse transform="matrix(0.9996 -2.697979e-02 2.697979e-02 0.9996 -11.338 5.3333)" class="st7" cx="192" cy="422.8" rx="0.1" ry="0.2"/>
		<path class="st9" d="M189.4,427.9c-0.2,0.2,1.2,1.2,5.5,1c3.3-0.1,4.6-0.7,5.1-1.4c-0.7-0.6-0.9-1-1-1.5c-0.1-0.4-0.9-2.5-4.1-2.3
			c-0.4,0-3.1,0.1-3.9,2.2C190.1,427.2,189.5,427.8,189.4,427.9z"/>
		<path class="st10" d="M193.7,424c0,0,0.9,0.9,1.3,1.2c0.5-0.3,1-0.8,1.4-1.3c-0.6-0.5-0.7-0.9-1.4-0.9
			C194.4,423.1,193.7,424,193.7,424z"/>
		<path class="st11" d="M190.2,438.1c-0.5,0-0.6,0.1-0.8,0.8c-0.3,0.8,0.2,1.2,0.3,1.2c0.1,0,0.3,0.2,0.3,0.2c0.1-0.1,0-0.1,0-0.2
			c0-0.1-0.4-0.3-0.3-0.6c0.1-0.3,0.2-0.7,0.4-0.7c0.1,0.1,0,1.3,0.2,1.6c0.1,0.1,0.2-0.2,0.2-0.4c0-0.1,0-1.2,0.1-1.2
			c0.2,0,0.3,0.4,0.3,0.6c0,0.3-0.1,0.6-0.1,0.7c-0.1,0.1-0.1,0.1,0,0.2c0,0,0.1-0.1,0.2-0.1c0.1,0,0.5-0.6,0.3-1.1
			C191.1,438.7,191,438.1,190.2,438.1z"/>
		<path class="st11" d="M199.6,438.2c-0.5,0-0.6,0.1-0.8,0.8c-0.3,0.8,0.2,1.2,0.3,1.2c0.1,0,0.3,0.2,0.3,0.2c0.1-0.1,0-0.1,0-0.2
			c0-0.1-0.4-0.3-0.3-0.6s0.2-0.7,0.4-0.7c0.1,0.1,0,1.3,0.2,1.6c0.1,0,0.2-0.2,0.2-0.4c0-0.1,0-1.2,0.1-1.2c0.2,0,0.3,0.4,0.3,0.6
			c0,0.3-0.1,0.6-0.1,0.7c-0.1,0.1-0.1,0.1,0,0.2c0,0,0.1-0.1,0.2-0.1c0.1,0,0.5-0.6,0.3-1.1C200.4,438.8,200.3,438.2,199.6,438.2z"
			/>
	</g>
	<g>
		<path class="st12" d="M590.7,425.4c0,0,2.5,4.6,2.7,5.3c-0.8,0-1.2,0.4-1.3,0.7c0.5-0.3,1.1-0.5,1.6-0.4c0.5,0.1,1.8,0.3,2.3,0.6
			c-0.5-0.5-1.3-0.7-2.1-0.9c-0.3-0.6-1.8-4-2.3-5.3C591.1,425.2,590.8,425.1,590.7,425.4z"/>
		<path class="st12" d="M594.1,430.8c0.4-0.1,1-0.2,1.5,0.1c-0.3,0-1.1,0-1.3,0C594.2,431,594.1,430.8,594.1,430.8z"/>
		<path class="st12" d="M595.4,424.1c0,0,2.5,4.6,2.7,5.3c-0.8,0-1.2,0.4-1.3,0.7c0.5-0.3,1.1-0.5,1.6-0.4c0.5,0.1,1.8,0.3,2.3,0.6
			c-0.5-0.5-1.3-0.7-2.1-0.9c-0.3-0.6-1.8-4-2.3-5.3C595.8,423.9,595.5,423.8,595.4,424.1z"/>
		<path class="st12" d="M598.8,429.5c0.4-0.1,1-0.2,1.5,0.1c-0.3,0-1.1,0-1.3,0C598.9,429.7,598.8,429.5,598.8,429.5z"/>
		<polygon class="st13" points="608.3,404.6 610.8,404.9 606.8,406.8 		"/>
		<path class="st14" d="M607.8,408.6c0.5-0.8,0.7-1.7,0.7-2.6c0-2.8-2.3-5.1-5.1-5.1c-1.8,0-3.6,1.3-4.3,2.3
			c-3.2,5.3-20.4,9.4-16.8,17.5c2.3,3.1,6.1,5.1,10.4,5.1c7,0,12.8-5.4,12.8-12c0,0,0,0,0,0c0,0,0,0,0,0c0,0,0,0,0,0
			c0-0.1-0.3-2.9,1.2-3.9C607.1,409.5,607.5,409.1,607.8,408.6L607.8,408.6L607.8,408.6z"/>
		<path class="st13" d="M582.7,415.9c0,0-8.8,9.2-11.7,11.4c7.9-2.8,10.2-4.7,14.4-8.7C588.1,415.9,582.7,415.9,582.7,415.9z"/>
		<path class="st13" d="M606.2,405.1c-0.2,0.4-1.1,0.8-1.8,0c-0.1-0.1-0.4-0.8-0.3-0.9c0.2-0.3,1.1-0.2,1.4-0.1
			C606,404.1,606.3,404.6,606.2,405.1z"/>
		<path class="st15" d="M605.8,404.4c0,0.1-0.2,0.1-0.3,0.1c-0.1,0-0.2-0.1-0.2-0.2c0-0.1,0.1-0.2,0.2-0.2
			C605.6,404.2,605.8,404.3,605.8,404.4z"/>
		<path class="st12" d="M599.4,413.4c1-1.8,0.2-4.1-1.7-5.1c-1.5-0.8-3.2-0.3-4.3,0.2c-2.6,1.1-11.6,6.4-12.7,8.8
			c0.4,0.1,1.4-0.1,2.7-0.5c-1.5,1.1-2.6,2.2-2.9,2.9c0.6,0.2,2.6-0.4,4.9-1.2c-1,0.9-1.8,1.6-2.1,2.2c1.6,0.5,13-3.8,14.7-5.5
			C598.2,414.9,599.1,413.8,599.4,413.4z"/>
	</g>
	<g>
		<path class="st12" d="M378.6,183.4c-0.1,0.5,2.3-0.3-6.1,7.7c0.5,0,2.1-0.4,2.3,0.6c-0.5-0.2-1.7-0.4-2.7,0.1
			c-0.6,0.3-1.9,0.3-2.6,1.2c0.2-0.8,1.6-1.6,2.2-1.7c0.9-0.4,4.9-5.4,4.8-6.5C377,184.5,378.6,183.4,378.6,183.4z"/>
		<path class="st12" d="M371.3,191.3c-1,0.1-2.5,0.6-3,1.4c0.9-0.4,2.6-0.9,2.8-0.8C371.4,191.6,371.3,191.3,371.3,191.3z"/>
		<path class="st12" d="M373.6,183c-0.1,0.4,1.6-0.2-4.4,5.5c0.3,0,1.5-0.3,1.7,0.4c-0.3-0.2-1.2-0.3-1.9,0
			c-0.4,0.2-1.4,0.2-1.9,0.8c0.2-0.6,1.1-1.1,1.5-1.2c0.6-0.3,3.5-3.9,3.4-4.6C372.4,183.8,373.6,183,373.6,183z"/>
		<path class="st12" d="M368.4,188.7c-0.7,0.1-1.8,0.4-2.1,1c0.7-0.3,1.8-0.6,2-0.6C368.4,188.9,368.4,188.7,368.4,188.7z"/>
		<path class="st16" d="M354.7,177.4c0.7,0.5,2.4,1.2,3.6,2.7c1.1,1.6,6.4,8.7,14.7,6.8c8.3-1.9,7-4.5,8.2-7
			c0.8-1.4,3.8-4.2,4.5-4.5c0.7-0.3,1.3-1.5,2.2-2c-1.1,0-7.7-0.8-11.9-0.5c-4.2,0.3-8.4,1-9.3,1.3c-1.7-0.6-4.3-2.8-7.7-1.6
			c-3.3,1.2-4.4,2.5-4.4,3C354.5,176.2,354.3,177.1,354.7,177.4z"/>
		<path class="st17" d="M383,173.5c0.2-0.2,9-3.4,11.5-3.6c0.4,0,0.8,0.3,0.4,0.5c-0.4,0.2-10.3,3.1-11.2,3.3
			C382.9,173.9,382.9,173.7,383,173.5z"/>
		<path class="st17" d="M384.2,174.6c0.2-0.2,9-3.4,11.5-3.6c0.4,0,0.8,0.3,0.4,0.5c-0.4,0.2-10.3,3.1-11.2,3.3
			C384.1,175,384.1,174.8,384.2,174.6z"/>
		<path class="st17" d="M383.8,174c0.2-0.3,9.1-3.9,11.6-3.9c0.4,0.1,0.8,0.6,0.4,0.7c-0.4,0.2-10.4,3.2-11.3,3.5
			C383.7,174.6,383.7,174.2,383.8,174z"/>
		<path class="st17" d="M383.3,173.8c0.2-0.2,6.9-2.9,8.7-2.9c0.3,0.1,0.6,0.4,0.3,0.6c-0.3,0.1-7.9,2.4-8.5,2.6
			C383.2,174.2,383.2,174,383.3,173.8z"/>
		<path class="st17" d="M384,174.3c0.2-0.2,6.9-2.9,8.7-2.9c0.3,0.1,0.6,0.4,0.3,0.5c-0.3,0.1-7.9,2.4-8.5,2.6
			C383.9,174.7,383.9,174.4,384,174.3z"/>
		<path class="st18" d="M361.6,177.4c0.4,0.4,3.4,2.6,7.7,4.3c1.5,0.6,9.6-2.4,11.3-2c0.6,1.3-0.4,3.3-1,4.2
			c-2,2.3-6.8,3.6-10.8,3.3c-4-0.5-8-3.4-9.9-6.3C358.8,178.5,360.8,176.5,361.6,177.4z"/>
		<path class="st15" d="M359.2,181.3c0.1-1.1-0.5-3,1.3-3.3c1.8-0.3,1-1,0.4-1.3c-0.7-0.3-1.8-1.5-2.3-1.8c-1-0.7-4.6-0.6-3.9,1.4
			c-0.4,0.6-0.3,1,0.8,1.6C358.1,179.3,358.5,180.8,359.2,181.3z"/>
		<path class="st19" d="M354.8,175.3c0.4-0.3,1,0.2,2-0.4c0.8-0.4,2.1,0.4,2.2,0.8c-0.2,0.3-0.4,0.7-1.4,0.6c-1-0.1-1.9,0.1-2.3-0.1
			C354.9,176,354.5,175.5,354.8,175.3z"/>
		<path class="st20" d="M351.4,176.3c0.1,0.3,0.4,0.5,0.9,0.7c0.6,0.3,2.1,0.6,2.5,0.4c0.3-0.2,0.8-0.4,0.8-0.5c0-0.1,0-0.2-0.1-0.3
			C355.4,176.6,351.8,175.9,351.4,176.3z"/>
		<path class="st20" d="M355.6,176.6c-0.1-0.3-0.6-1.2-1-1.2c-0.4,0-2.8-0.2-3.4,0.9c0.5-0.2,0.8-0.2,1,0
			C352.3,176.5,353.7,177.5,355.6,176.6"/>
		<path d="M357.6,175.3c0.1,0.2-0.3,0.5-0.5,0.5c-0.2,0-0.6-0.1-0.5-0.4c0-0.1,0.2-0.4,0.4-0.5C357.2,174.9,357.5,175.1,357.6,175.3
			z"/>
		
			<ellipse transform="matrix(0.9925 -0.1226 0.1226 0.9925 -18.7896 45.1474)" class="st15" cx="357.3" cy="175.2" rx="0.1" ry="0.1"/>
		<path class="st17" d="M386.3,179.6c-0.3,0.4-9.8,1.3-12.3,0c-0.4-0.4-0.7-1.3-0.3-1.4c0.4-0.1,11,0.4,11.9,0.5
			C386.6,178.8,386.5,179.4,386.3,179.6z"/>
		<path class="st17" d="M385.3,179.9c-0.2,0.4-9.7,2.2-12.2,1.1c-0.4-0.3-0.8-1.3-0.4-1.4c0.4-0.1,10.9-0.6,11.8-0.6
			C385.6,179.1,385.5,179.6,385.3,179.9z"/>
		<path class="st17" d="M385.2,177.5c-0.2,0.2-9.7-0.2-12.2-1.5c-0.4-0.3-0.7-1.1-0.3-1.1c0.4,0,10.9,1.6,11.8,1.8
			C385.5,176.9,385.4,177.3,385.2,177.5z"/>
		<path class="st21" d="M386.9,178.5c-0.3,0.4-10,1.4-12.5-0.2c-0.4-0.4-0.6-1.6-0.2-1.7c0.4-0.1,11.1,0.7,12,0.8
			C387.2,177.5,387.1,178.2,386.9,178.5z"/>
		<path class="st12" d="M378.7,178.1c0,2.2-4.8,4.1-8.3,3.9c-3.5-0.2-4.4-2.3-4.4-4.5c0-2.2,0.8-3.6,4.3-3.4
			C373.8,174.2,378.7,175.9,378.7,178.1z"/>
	</g>
</g>
</svg>
