<?xml version="1.0" encoding="utf-8"?>
<!-- Generator: Adobe Illustrator 21.1.0, SVG Export Plug-In . SVG Version: 6.00 Build 0)  -->
<svg version="1.1" id="圖層_1" xmlns="http://www.w3.org/2000/svg" xmlns:xlink="http://www.w3.org/1999/xlink" x="0px" y="0px"
	 viewBox="0 0 624.1 65.1" style="enable-background:new 0 0 624.1 65.1;" xml:space="preserve">
<style type="text/css">
	.st0{fill:#E71F19;}
</style>
<g>
	<g>
		<path d="M31.9,13.8c0.5,0,0.9,0.2,1.2,0.5c0.3,0.3,0.5,0.7,0.5,1.2v2.2c0,0.4-0.2,0.8-0.5,1.2c-0.3,0.3-0.7,0.5-1.2,0.5H10.3
			c-0.5,0-0.9-0.2-1.2-0.5c-0.3-0.3-0.5-0.7-0.5-1.2v-2.2c0-0.5,0.2-0.9,0.5-1.2c0.3-0.3,0.7-0.5,1.2-0.5h7c0.2,0,0.2-0.1,0.2-0.2
			v-1.9c0-0.5,0.2-0.9,0.5-1.2c0.3-0.3,0.7-0.5,1.2-0.5h3.5c0.5,0,0.9,0.2,1.2,0.5c0.3,0.3,0.5,0.7,0.5,1.2v1.9
			c0,0.1,0.1,0.2,0.2,0.2H31.9z M53.6,48.1c0.5,0,0.9,0.2,1.2,0.5c0.3,0.3,0.5,0.7,0.5,1.2v3c0,0.4-0.2,0.8-0.5,1.2
			c-0.3,0.3-0.7,0.5-1.2,0.5H41.7c-0.1,0-0.2,0.1-0.2,0.2V55c0,0.5-0.2,0.9-0.5,1.2c-0.3,0.3-0.7,0.5-1.2,0.5h-3
			c-0.5,0-0.9-0.2-1.2-0.5c-0.3-0.3-0.5-0.7-0.5-1.2V32.2c0,0,0,0,0,0c-0.2,0.3-0.4,0.3-0.7,0c-0.6-0.6-1.4-1.3-2.5-2.3
			c-0.1-0.1-0.1-0.1-0.1,0.1v2.6c0,0.5-0.2,0.9-0.5,1.2c-0.3,0.3-0.7,0.5-1.2,0.5h-5.8c-0.2,0-0.3,0.1-0.3,0.2l-0.3,1.5
			c0,0.1,0,0.2,0.1,0.2H31c0.5,0,0.9,0.2,1.2,0.5c0.3,0.3,0.5,0.7,0.5,1.2v12.9c0,1.3-0.2,2.4-0.5,3.1c-0.3,0.8-0.9,1.3-1.7,1.7
			c-1.1,0.5-2.7,0.8-4.9,0.9c-0.5,0-0.9-0.2-1.3-0.5c-0.4-0.3-0.7-0.7-0.8-1.2c-0.2-0.7-0.4-1.4-0.7-2.1c-0.1-0.4-0.1-0.7,0.1-1
			c0.2-0.3,0.5-0.5,0.9-0.5c0.4,0,0.6,0,0.9,0c0.2,0,0.5,0,0.8,0s0.4,0,0.5,0c0.3,0,0.5,0,0.6-0.1c0.1-0.1,0.1-0.3,0.1-0.5v-1.1
			c0-0.1-0.1-0.2-0.2-0.1l-1.6,0.5c-0.3,0.1-0.6,0.1-0.9-0.1c-0.3-0.2-0.5-0.4-0.5-0.8c0-0.1-0.1-0.1-0.2-0.1
			c-1.4,0.1-3.3,0.3-5.7,0.5c-0.5,0-0.9-0.1-1.3-0.4c-0.4-0.3-0.6-0.7-0.6-1.1l-0.1-1.5c0-0.4,0.1-0.7,0.3-0.9
			c0.2-0.3,0.5-0.4,0.8-0.4c0.1,0,0.2-0.1,0.2-0.2c0.1-0.7,0.3-1.9,0.5-3.5c0-0.1,0-0.2-0.2-0.2h-1.7c-0.1,0-0.2,0.1-0.2,0.2v13.5
			c0,0.5-0.2,0.9-0.5,1.2c-0.3,0.3-0.7,0.5-1.2,0.5h-2.2c-0.5,0-0.9-0.2-1.2-0.5c-0.3-0.3-0.5-0.7-0.5-1.2V38c0-0.5,0.2-0.9,0.5-1.2
			c0.3-0.3,0.7-0.5,1.2-0.5h6.5c0.1,0,0.2-0.1,0.2-0.2l0.1-1.5c0-0.2-0.1-0.2-0.2-0.2h-5.6c-0.5,0-0.9-0.2-1.2-0.5
			c-0.3-0.3-0.5-0.7-0.5-1.2V21.9c0-0.5,0.2-0.9,0.5-1.2c0.3-0.3,0.7-0.5,1.2-0.5h1.4c0.5,0,0.9,0.2,1.2,0.5
			c0.3,0.3,0.5,0.7,0.5,1.2v5.2c0,0.2,0.1,0.2,0.2,0.1c0.9-0.7,1.6-1.4,2.2-2c0.1-0.1,0.1-0.2,0-0.2c-0.2-0.1-0.4-0.3-0.7-0.5
			c-0.4-0.2-0.6-0.6-0.7-1c-0.1-0.4,0-0.8,0.4-1.1l0.4-0.5c0.3-0.4,0.7-0.6,1.2-0.7c0.5-0.1,1,0,1.4,0.2c0.3,0.2,0.4,0.3,0.6,0.3
			c0.1,0.1,0.2,0,0.3-0.1c0.1-0.3,0.2-0.5,0.3-0.6c0.3-0.4,0.6-0.8,1.1-1c0.4-0.2,0.9-0.2,1.3-0.1l1.2,0.3c0.4,0.1,0.7,0.3,0.9,0.7
			c0.2,0.4,0.2,0.8,0,1.2c-0.3,0.6-0.7,1.2-1,1.8c-0.1,0.1-0.1,0.2,0,0.3c0.2,0.2,0.4,0.3,0.7,0.5c0.4,0.3,0.6,0.7,0.6,1.1
			c0,0.5-0.1,0.9-0.4,1.3L24.9,28c-0.3,0.4-0.7,0.5-1.2,0.6c-0.5,0-0.9-0.1-1.2-0.4c-0.2-0.1-0.3-0.3-0.5-0.4
			c-0.1-0.1-0.2-0.1-0.3,0c-0.4,0.5-1,1.1-1.8,1.8c0,0,0,0.1,0,0.1c0,0,0.1,0,0.1,0h6.5c0.1,0,0.2-0.1,0.2-0.2v-7.6
			c0-0.5,0.2-0.9,0.5-1.2c0.3-0.3,0.7-0.5,1.2-0.5H30c0.5,0,0.9,0.2,1.2,0.5c0.3,0.3,0.5,0.7,0.5,1.2v3.2c0,0,0,0.1,0,0.1s0,0,0,0
			c2.4-3.8,4.3-8.3,5.8-13.5c0.1-0.4,0.4-0.8,0.8-1.1c0.3-0.2,0.5-0.2,0.9-0.2c0.1,0,0.3,0,0.4,0l3.1,0.7c0.4,0.1,0.8,0.3,1,0.7
			c0.2,0.4,0.3,0.8,0.1,1.3c-0.5,1.7-1.2,3.6-2,5.7c0,0.1,0,0.2,0.1,0.2h2.2c0.1,0,0.2-0.1,0.3-0.2c0.8-2.3,1.4-4.5,1.9-6.6
			c0.1-0.5,0.3-0.8,0.7-1.1c0.4-0.3,0.8-0.3,1.3-0.2l3.3,0.7c0.4,0.1,0.8,0.3,1,0.7c0.2,0.4,0.2,0.8,0.1,1.2c-0.6,1.6-1.2,3.3-2,5.3
			c-0.1,0.1,0,0.2,0.1,0.2h2.1c0.4,0,0.8,0.2,1.2,0.5c0.3,0.3,0.5,0.7,0.5,1.2v2.9c0,0.5-0.2,0.9-0.5,1.2c-0.3,0.3-0.7,0.5-1.2,0.5
			h-2.4c-0.2,0-0.2,0.1-0.2,0.2v3c0,0.2,0.1,0.2,0.2,0.2h1.8c0.5,0,0.9,0.2,1.2,0.5c0.3,0.3,0.5,0.7,0.5,1.2v2.5
			c0,0.5-0.2,0.9-0.5,1.2c-0.3,0.3-0.7,0.5-1.2,0.5h-1.8c-0.2,0-0.2,0.1-0.2,0.2v3.2c0,0.1,0.1,0.2,0.2,0.2h1.8
			c0.5,0,0.9,0.2,1.2,0.5c0.3,0.3,0.5,0.7,0.5,1.2v2.5c0,0.4-0.2,0.8-0.5,1.2c-0.3,0.3-0.7,0.5-1.2,0.5h-1.8c-0.2,0-0.2,0.1-0.2,0.2
			v3.4c0,0.1,0.1,0.2,0.2,0.2H53.6z M15.7,27.6c-0.1-0.1-0.2-0.1-0.2,0.1v1.8c0,0.1,0.1,0.2,0.2,0.2h2.5c0,0,0.1,0,0.1,0
			c0,0,0-0.1,0-0.1C17.4,28.8,16.5,28.2,15.7,27.6z M26.8,41.5c0-0.1-0.1-0.2-0.2-0.2h-3.8c-0.2,0-0.3,0.1-0.3,0.2
			c-0.1,0.3-0.3,1.3-0.7,3.2c0,0.2,0,0.2,0.2,0.2h0.4c0.1,0,0.2-0.1,0.1-0.2c-0.1-0.4,0-0.8,0.2-1.2c0.2-0.4,0.5-0.6,0.9-0.7
			l0.4-0.1c0.4-0.1,0.9-0.1,1.3,0.1c0.4,0.2,0.7,0.6,0.8,1.1c0.2,0.5,0.3,1,0.4,1.6c0,0,0,0,0,0V41.5z M44.3,28.8
			c0.1,0,0.2-0.1,0.2-0.2v-3c0-0.1-0.1-0.2-0.2-0.2h-2.6c-0.1,0-0.2,0.1-0.2,0.2v3c0,0.2,0.1,0.2,0.2,0.2H44.3z M44.3,38.4
			c0.1,0,0.2-0.1,0.2-0.2V35c0-0.1-0.1-0.2-0.2-0.2h-2.6c-0.1,0-0.2,0.1-0.2,0.2v3.2c0,0.1,0.1,0.2,0.2,0.2H44.3z M41.7,44.3
			c-0.1,0-0.2,0.1-0.2,0.2v3.4c0,0.1,0.1,0.2,0.2,0.2h2.6c0.1,0,0.2-0.1,0.2-0.2v-3.4c0-0.2-0.1-0.2-0.2-0.2H41.7z"/>
		<path d="M97.9,35.8c0.3-0.4,0.7-0.6,1.2-0.7c0.4-0.1,0.9,0,1.2,0.3l3,2.3c0.4,0.3,0.5,0.6,0.5,1c0,0.4-0.2,0.8-0.5,1
			c-0.3,0.2-1,0.8-2.1,1.7c-1.2,0.9-2,1.6-2.6,2.1c-0.1,0.1-0.1,0.2,0,0.3c1.5,1.8,3.2,3.2,5.1,4.3c0.4,0.2,0.6,0.5,0.7,1
			c0,0.1,0,0.2,0,0.3c0,0.3-0.1,0.6-0.3,0.8c-0.8,1-1.6,2-2.2,3c-0.3,0.4-0.6,0.6-1.1,0.7c-0.4,0.1-0.9,0-1.2-0.2
			c-2.2-1.6-4.1-3.8-5.9-6.7c-0.1,0-0.1,0-0.1,0v3.1c0,1.5-0.2,2.7-0.5,3.5c-0.3,0.8-0.9,1.5-1.7,1.9c-1.2,0.6-2.9,1-5.2,1.1
			c-0.5,0-0.9-0.2-1.3-0.5c-0.4-0.3-0.6-0.7-0.7-1.2c-0.2-0.9-0.5-1.8-0.8-2.7c-0.1-0.4-0.1-0.7,0.2-1.1c0.2-0.3,0.6-0.5,0.9-0.5
			c0.6,0,1.3,0,2,0c0.3,0,0.5,0,0.6-0.1c0.1-0.1,0.1-0.2,0.1-0.5v-8.1h0c-1.7,5.1-4.2,9.1-7.6,11.8c-0.4,0.3-0.8,0.4-1.2,0.3
			c-0.5-0.1-0.9-0.3-1.2-0.7c-0.7-0.8-1.4-1.5-2.1-2.3c-0.3-0.3-0.4-0.6-0.4-1.1c0-0.4,0.2-0.7,0.5-1c0.6-0.4,1.1-0.9,1.7-1.4
			c0,0,0-0.1,0-0.1c0,0,0,0,0,0l-3,1c-0.4,0.1-0.8,0.1-1.2-0.2c-0.4-0.2-0.6-0.6-0.7-1c-0.3-1.8-0.8-3.6-1.4-5.5h0V55
			c0,0.4-0.2,0.8-0.5,1.2c-0.3,0.3-0.7,0.5-1.2,0.5h-2.7c-0.4,0-0.8-0.2-1.2-0.5c-0.3-0.3-0.5-0.7-0.5-1.2v-13h0
			c-0.4,3.7-1.1,6.9-2,9.6c-0.1,0.4-0.4,0.7-0.8,0.9c-0.4,0.2-0.8,0.1-1.2-0.1c-0.6-0.3-1.3-0.6-2.1-1c-0.4-0.2-0.7-0.5-0.9-0.9
			c-0.1-0.3-0.1-0.5-0.1-0.8c0-0.2,0-0.4,0.1-0.6c0.6-2,1.1-4.7,1.4-8.1c0.1-0.4,0.3-0.8,0.6-1.1c0.4-0.3,0.8-0.4,1.2-0.3l3.6,0.6
			c0.2,0,0.2-0.1,0.2-0.2v-2.8c0-0.1-0.1-0.2-0.2-0.2l-4.5,0.4c-0.5,0-0.9-0.1-1.3-0.4c-0.4-0.3-0.6-0.7-0.6-1.1l-0.3-2.7
			c-0.1-0.4,0-0.8,0.3-1.2c0.3-0.4,0.7-0.5,1.2-0.6l1.8-0.1c0.1,0,0.2-0.1,0.3-0.2c0.1-0.1,0.3-0.4,0.6-0.9c0.3-0.5,0.6-0.8,0.7-1.1
			c0.1-0.1,0.1-0.2,0-0.3c-1-1.6-2.3-3.3-4.1-5.3c-0.3-0.4-0.5-0.8-0.5-1.3c0-0.5,0.1-1,0.4-1.4l1.8-2.6c0.2-0.2,0.4-0.4,0.7-0.4
			c0.3,0,0.5,0.1,0.7,0.3c0.1,0,0.2,0,0.2,0c1-2.1,1.8-4.3,2.5-6.4c0.2-0.4,0.4-0.8,0.9-1c0.4-0.2,0.8-0.2,1.3-0.1l2.9,1
			c0.4,0.2,0.7,0.4,0.9,0.9c0.2,0.4,0.1,0.8,0,1.2c-2,3.8-3.5,6.6-4.7,8.4c-0.1,0.1-0.1,0.2,0,0.3c0.2,0.2,0.4,0.5,0.7,0.8
			c0,0.1,0.1,0.1,0.1,0.1c0,0,0.1,0,0.1-0.1c1.2-2,2.3-3.9,3.2-5.7c0.2-0.4,0.6-0.7,1-0.9c0.4-0.2,0.9-0.1,1.3,0l2.6,1.2
			c0.4,0.2,0.7,0.5,0.8,0.9c0.1,0.4,0.1,0.8-0.2,1.2c-1.8,2.7-3.5,5.1-5.3,7.5c0,0,0,0.1,0,0.1c0,0,0,0,0.1,0l2.2-0.9
			c0.4-0.2,0.9-0.2,1.3,0c0.4,0.2,0.8,0.5,1,0.9c1.7,3.3,2.8,6.3,3.4,8.8c0,0.1,0.1,0.2,0.2,0.2h4.5c1.4,0,2.5,0.2,3.3,0.5l1,0.4
			c0.1,0.1,0.2,0,0.2-0.1v-3.3c0-0.2-0.1-0.2-0.2-0.2h-7.4c-0.5,0-0.9-0.2-1.2-0.5c-0.3-0.3-0.5-0.7-0.5-1.2V16.5
			c0-0.4,0.2-0.8,0.5-1.2c0.3-0.3,0.7-0.5,1.2-0.5h5.6c0.1,0,0.2-0.1,0.3-0.2c0.4-1.1,0.7-2.1,1.1-3c0.1-0.5,0.4-0.8,0.8-1.1
			c0.3-0.2,0.7-0.3,1-0.3c0.1,0,0.2,0,0.3,0l4.8,0.7c0.4,0.1,0.7,0.3,0.9,0.6c0.2,0.4,0.2,0.7,0,1.1c-0.4,0.6-0.8,1.3-1.2,2.1
			c-0.1,0.1,0,0.2,0.1,0.2h7.4c0.5,0,0.9,0.2,1.2,0.5c0.3,0.3,0.5,0.7,0.5,1.2v15.7c0,0.4-0.2,0.8-0.5,1.2c-0.3,0.3-0.7,0.5-1.2,0.5
			h-7c-0.1,0-0.1,0-0.1,0.1c0,0.1,0,0.1,0,0.2c0.4,1.6,1,3,1.6,4.4c0.1,0.2,0.1,0.2,0.2,0C96.4,37.6,97.2,36.7,97.9,35.8z
			 M67.5,30.7C67.4,30.7,67.4,30.8,67.5,30.7c0,0.1,0.1,0.1,0.1,0.1l2.3-0.1c0.2,0,0.2-0.1,0.1-0.2c-0.5-1.1-0.8-1.7-0.8-1.7
			c0,0-0.1-0.1-0.1-0.1c0,0-0.1,0-0.1,0C68.3,29.6,67.8,30.3,67.5,30.7z M70.6,40.3c0,0.1,0.1,0.2,0.2,0.1l2.7-0.9
			c0.5-0.1,0.9-0.1,1.4,0.1c0.4,0.2,0.7,0.5,0.9,1c0.8,2.3,1.3,4.4,1.6,6.2c0,0.1,0,0.1,0,0.1c0,0,0.1,0,0.1,0
			c1.2-1.2,2.2-2.7,3-4.4c0.1-0.1,0-0.2-0.1-0.2h-1.6c-0.5,0-0.9-0.2-1.2-0.5c-0.3-0.3-0.5-0.7-0.5-1.2v-3.4c0-0.1-0.1-0.2-0.2-0.1
			l-2.6,1.1c-0.4,0.2-0.8,0.2-1.2,0c-0.4-0.2-0.6-0.5-0.7-0.9c0-0.1-0.1-0.2-0.1-0.4c0-0.2-0.1-0.3-0.1-0.3c0-0.2-0.1-0.2-0.3-0.2
			l-1.1,0.1c-0.1,0-0.2,0.1-0.2,0.2V40.3z M84.5,20.2c-0.1,0-0.2,0.1-0.2,0.2v1.2c0,0.1,0.1,0.2,0.2,0.2h10.9c0.1,0,0.2-0.1,0.2-0.2
			v-1.2c0-0.2-0.1-0.2-0.2-0.2H84.5z M84.5,26.8c-0.1,0-0.2,0.1-0.2,0.2v1.2c0,0.1,0.1,0.2,0.2,0.2h10.9c0.1,0,0.2-0.1,0.2-0.2V27
			c0-0.1-0.1-0.2-0.2-0.2H84.5z"/>
		<path d="M127,49.3h13.6c2,0,3.3-0.4,4-1.1c0.7-0.7,1.2-2.2,1.6-4.5c0.1-0.4,0.3-0.7,0.6-0.8c0.4-0.2,0.7-0.2,1.1,0
			c1.1,0.5,2.3,1,3.5,1.4c0.5,0.2,0.8,0.4,1.1,0.8c0.2,0.3,0.3,0.7,0.3,1c0,0.1,0,0.2,0,0.3c-0.6,3.5-1.7,5.9-3.4,7.3
			c-1.6,1.3-4.4,2-8.2,2h-14.4c-2.4,0-4.4-0.2-5.9-0.5c-1.5-0.3-2.7-0.9-3.7-1.7c-1-0.8-1.6-1.9-2-3.2c-0.4-1.3-0.6-3-0.6-5.2V33.8
			c0-0.1-0.1-0.2-0.2-0.1l-4.4,1.4c-0.4,0.2-0.9,0.1-1.3-0.1c-0.4-0.2-0.7-0.6-0.8-1l-1-3.3c0-0.2,0-0.3,0-0.5
			c0-0.3,0.1-0.5,0.2-0.8c0.2-0.4,0.6-0.7,1-0.9l6.3-2c0.1,0,0.2-0.1,0.2-0.3V15.2c0-0.5,0.2-0.9,0.5-1.2c0.3-0.3,0.7-0.5,1.2-0.5
			h3.5c0.5,0,0.9,0.2,1.2,0.5c0.3,0.3,0.5,0.7,0.5,1.2v8.9c0,0.1,0.1,0.2,0.2,0.1l5.8-1.8c0.1,0,0.2-0.1,0.2-0.3V11.8
			c0-0.5,0.2-0.9,0.5-1.2c0.3-0.3,0.7-0.5,1.2-0.5h3.7c0.5,0,0.9,0.2,1.2,0.5c0.3,0.3,0.5,0.7,0.5,1.2v8.1c0,0.1,0.1,0.2,0.2,0.1
			l7-2.2c0.1-0.1,0.3-0.1,0.4-0.2l0.7-0.4c0.6-0.4,1.2-0.5,1.8-0.5c0.4,0,0.8,0.1,1.2,0.2l2.4,1.1c0.3,0.1,0.5,0.3,0.6,0.6
			c0.1,0.3,0.2,0.6,0.1,0.9c0,0.1,0,0.2,0,0.3c-0.1,5-0.2,8.9-0.4,11.6c-0.2,2.7-0.5,4.7-0.9,6c-0.8,2.5-2.2,4-4.1,4.7
			c-1.2,0.4-2.7,0.6-4.7,0.7c-0.5,0-0.9-0.1-1.3-0.4c-0.4-0.3-0.6-0.7-0.7-1.2c-0.2-1.2-0.4-2.2-0.8-3.3c-0.1-0.4-0.1-0.7,0.1-1
			c0.2-0.3,0.5-0.5,0.9-0.4c0.5,0,1.2,0,2.1,0c0.5,0,0.9-0.1,1.2-0.4c0.3-0.3,0.6-0.8,0.9-1.6c0.3-1.2,0.5-4.4,0.6-9.5
			c0-0.1-0.1-0.2-0.2-0.1l-7,2.3c-0.2,0.1-0.2,0.2-0.2,0.3v16.3c0,0.5-0.2,0.9-0.5,1.2c-0.3,0.3-0.7,0.5-1.2,0.5h-3.7
			c-0.4,0-0.8-0.2-1.2-0.5c-0.3-0.3-0.5-0.7-0.5-1.2v-14c0-0.1-0.1-0.2-0.2-0.1l-5.8,1.9c-0.1,0-0.2,0.1-0.2,0.2v13.7
			c0,1.8,0.3,3,0.9,3.4C123.1,49.1,124.6,49.3,127,49.3z"/>
		<path d="M181.5,25.1c0-0.1-0.1-0.2-0.2-0.1l-4.7,1.9c-0.4,0.2-0.8,0.1-1.2-0.1c-0.4-0.2-0.7-0.5-0.8-0.9c-0.1-0.2-0.1-0.4-0.2-0.6
			c0-0.1-0.1-0.2-0.3-0.2c-4.5,0.3-9.8,0.7-15.9,1.1c-0.4,0-0.9-0.1-1.2-0.4c-0.4-0.3-0.6-0.7-0.6-1.2l-0.3-3.3
			c0-0.5,0.1-0.9,0.4-1.2c0.3-0.4,0.7-0.5,1.2-0.5c0.6,0,1.3-0.1,1.9-0.1c0.1,0,0.2-0.1,0.3-0.2c1.1-2.5,1.9-5.1,2.6-7.9
			c0.1-0.5,0.4-0.8,0.8-1.1c0.3-0.2,0.6-0.2,0.9-0.2c0.1,0,0.3,0,0.4,0l4.1,0.9c0.4,0.1,0.8,0.3,1,0.7c0.2,0.4,0.2,0.8,0.1,1.2
			c-0.9,2.3-1.8,4.3-2.6,6.1c-0.1,0.1,0,0.2,0.1,0.2l4.2-0.2c0.1,0,0.2-0.1,0.1-0.2c-0.4-0.8-0.7-1.4-0.9-1.8
			c-0.2-0.4-0.3-0.8-0.1-1.2c0.2-0.4,0.4-0.7,0.9-0.9l2.9-1.1c0.5-0.2,1-0.2,1.4,0c0.5,0.2,0.8,0.4,1.1,0.9c2.3,3.9,3.8,7.2,4.6,9.9
			c0,0,0,0,0,0c0,0,0,0,0,0v-0.3V12c0-0.5,0.2-0.9,0.5-1.2c0.3-0.3,0.7-0.5,1.2-0.5h3.7c0.5,0,0.9,0.2,1.2,0.5
			c0.3,0.3,0.5,0.7,0.5,1.2v4.3c0,0.2,0.1,0.2,0.2,0.1c2.1-0.9,4-1.9,5.7-2.8c0.4-0.3,0.9-0.3,1.4-0.3c0.5,0.1,0.9,0.3,1.2,0.7
			l2.3,2.6c0.3,0.3,0.4,0.7,0.3,1.1c-0.1,0.4-0.3,0.7-0.7,0.9c-2.9,1.3-6.3,2.6-10.1,3.7c-0.1,0.1-0.2,0.2-0.2,0.3v1.5
			c0,0.9,0.1,1.5,0.3,1.7c0.2,0.2,0.7,0.3,1.5,0.3h4c0.6,0,1.1-0.2,1.3-0.6c0.2-0.4,0.4-1.2,0.5-2.4c0-0.4,0.2-0.6,0.6-0.8
			c0.3-0.2,0.7-0.2,1,0c1,0.5,2,0.9,3.2,1.3c0.5,0.2,0.9,0.4,1.1,0.8c0.3,0.4,0.4,0.8,0.3,1.3c-0.4,2.6-1.2,4.3-2.3,5.3
			c-1.1,1-2.7,1.4-5,1.4h-5.8c-3,0-5.1-0.5-6.1-1.6C182.1,29.9,181.6,28,181.5,25.1z M176.3,27.9c0.5,0,0.9,0.2,1.2,0.5
			c0.3,0.3,0.5,0.7,0.5,1.2v20.1c0,1.5-0.2,2.7-0.5,3.6c-0.4,0.9-1,1.6-1.9,2.1c-1.2,0.7-3,1.1-5.4,1.2c-0.5,0-0.9-0.2-1.3-0.5
			c-0.4-0.3-0.7-0.7-0.8-1.2c-0.3-1-0.7-2.1-1.1-3.1c-0.2-0.4-0.1-0.7,0.1-1c0.2-0.3,0.5-0.5,0.9-0.5c0.4,0,0.7,0,1,0
			c0.5,0,0.9,0,1.2,0c0.3,0,0.5,0,0.6-0.1c0.1-0.1,0.2-0.3,0.2-0.6v-1.7c0-0.1-0.1-0.2-0.2-0.2h-5.1c-0.2,0-0.2,0.1-0.2,0.2v7
			c0,0.4-0.2,0.8-0.5,1.2c-0.3,0.3-0.7,0.5-1.2,0.5h-3.2c-0.5,0-0.9-0.2-1.2-0.5c-0.3-0.3-0.5-0.7-0.5-1.2V29.6
			c0-0.5,0.2-0.9,0.5-1.2c0.3-0.3,0.7-0.5,1.2-0.5H176.3z M171,33.9c0-0.2-0.1-0.2-0.2-0.2h-5.1c-0.2,0-0.2,0.1-0.2,0.2v1.2
			c0,0.2,0.1,0.2,0.2,0.2h5.1c0.2,0,0.2-0.1,0.2-0.2V33.9z M165.3,42.3c0,0.1,0.1,0.2,0.2,0.2h5.1c0.2,0,0.2-0.1,0.2-0.2v-1.5
			c0-0.2-0.1-0.2-0.2-0.2h-5.1c-0.2,0-0.2,0.1-0.2,0.2V42.3z M190.5,50.2h4.2c0.6,0,1.1-0.2,1.4-0.7c0.3-0.5,0.5-1.5,0.6-3.1
			c0-0.4,0.2-0.7,0.6-0.8c0.3-0.2,0.7-0.2,1,0c0.9,0.5,2,0.9,3.2,1.3c0.4,0.2,0.8,0.4,1.1,0.8c0.2,0.3,0.3,0.7,0.3,1.1
			c0,0.1,0,0.2,0,0.3c-0.4,2.8-1.2,4.8-2.3,5.9c-1.1,1.1-2.8,1.6-5.1,1.6h-6c-3.1,0-5.2-0.6-6.3-1.7c-1.1-1.2-1.6-3.3-1.6-6.5V35
			c0-0.4,0.2-0.8,0.5-1.2c0.3-0.3,0.7-0.5,1.2-0.5h3.6c0.5,0,0.9,0.2,1.2,0.5c0.3,0.3,0.5,0.7,0.5,1.2v3.9c0,0.2,0.1,0.2,0.2,0.1
			c2.1-1,4.2-2,6-3.2c0.4-0.3,0.9-0.4,1.4-0.3c0.5,0.1,0.9,0.3,1.2,0.6l2.4,2.7c0.3,0.3,0.4,0.7,0.3,1.1c-0.1,0.4-0.3,0.7-0.7,0.9
			c-3,1.5-6.6,2.9-10.6,4.2c-0.1,0.1-0.2,0.2-0.2,0.3v2.7c0,0.9,0.1,1.5,0.3,1.7C189.1,50.1,189.7,50.2,190.5,50.2z"/>
		<path d="M247.4,11.9c0.4,0,0.8,0.2,1.2,0.5c0.3,0.3,0.5,0.7,0.5,1.2v35.2c0,1.7-0.1,3-0.4,4c-0.3,1-0.8,1.8-1.6,2.4
			c-1.1,0.8-2.7,1.2-4.7,1.3c-0.1,0-0.1,0-0.1,0c-0.4,0-0.8-0.2-1.2-0.5c-0.4-0.3-0.6-0.7-0.7-1.2c-0.1-0.6-0.2-1.2-0.3-1.8
			c0,0,0,0-0.1,0c0,0-0.1,0-0.1,0c-0.4,0.8-0.9,1.4-1.6,1.8c-0.7,0.4-1.5,0.5-2.5,0.5h-2.4c-2,0-3.4-0.4-4.1-1.3
			c-0.7-0.9-1-2.5-1-4.8v-2.9c0-0.2-0.1-0.2-0.2-0.2h-1.3c-0.2,0-0.3,0.1-0.3,0.2c-0.3,2.1-1,3.9-2,5.2c-1,1.4-2.6,2.5-4.9,3.5
			c-0.4,0.2-0.9,0.2-1.3,0c-0.5-0.2-0.8-0.5-1.1-0.9c-0.4-0.7-0.9-1.3-1.3-1.9c-0.2-0.3-0.3-0.7-0.2-1c0.1-0.4,0.3-0.6,0.7-0.7
			c1.4-0.4,2.5-1,3.1-1.7c0.6-0.7,1.1-1.5,1.3-2.5c0-0.2,0-0.2-0.1-0.2h-0.3c-0.5,0-0.9-0.2-1.2-0.5c-0.3-0.3-0.5-0.7-0.5-1.2v-4.4
			c-0.2,0.1-0.3,0-0.4,0c-1.1-1.1-2.3-2.1-3.5-2.9c-0.1-0.1-0.2,0-0.2,0.1v17.6c0,0.4-0.2,0.8-0.5,1.2c-0.3,0.3-0.7,0.5-1.2,0.5
			h-3.7c-0.4,0-0.8-0.2-1.2-0.5c-0.3-0.3-0.5-0.7-0.5-1.2V13.6c0-0.5,0.2-0.9,0.5-1.2c0.3-0.3,0.7-0.5,1.2-0.5h16
			c0.5,0,0.9,0.2,1.2,0.5c0.3,0.3,0.5,0.7,0.5,1.2v13.4c0,0.5-0.2,0.9-0.5,1.2c-0.3,0.3-0.7,0.5-1.2,0.5h-10.4
			c-0.2,0-0.2,0.1-0.2,0.2v7.6c0,0.2,0.1,0.2,0.2,0.1c1.8-1,3.3-2.5,4.4-4.4c0.3-0.4,0.6-0.7,1.1-1c0.4-0.2,0.9-0.3,1.3-0.1l3.5,0.8
			c0.2,0,0.2,0,0.2-0.1v-0.3c0-0.5,0.2-0.9,0.5-1.2c0.3-0.3,0.7-0.5,1.2-0.5h6.7c1,0,1.8,0.5,2.4,1.5c1,1.6,2.4,2.9,4.2,4
			c0.3,0.2,0.5,0.5,0.5,0.9c0,0.4-0.1,0.7-0.4,0.9c-1.1,0.9-2,1.8-2.7,2.6c-0.1,0.1-0.1,0.2-0.1,0.4v4.3c0,0.4-0.2,0.8-0.5,1.2
			c-0.3,0.3-0.7,0.5-1.2,0.5h-1.6c-0.1,0-0.2,0.1-0.2,0.2v2.9c0,0.5,0,0.9,0.1,1c0,0.1,0.2,0.2,0.4,0.2h0.5c0.3,0,0.5-0.4,0.6-1.1
			c0.1-0.4,0.3-0.6,0.6-0.8c0.3-0.2,0.7-0.2,1,0c0.6,0.3,1.3,0.5,2,0.7c0.1,0.1,0.3,0.1,0.4,0.1c0.4,0,0.7,0,0.9,0
			c0.3,0,0.6,0,0.7,0c0.2,0,0.4,0,0.5-0.1c0.1-0.1,0.1-0.3,0.1-0.6V29c0-0.1-0.1-0.2-0.2-0.2h-10.7c-0.5,0-0.9-0.2-1.2-0.5
			c-0.3-0.3-0.5-0.7-0.5-1.2V13.6c0-0.5,0.2-0.9,0.5-1.2c0.3-0.3,0.7-0.5,1.2-0.5H247.4z M220.2,16.8c0-0.1-0.1-0.2-0.2-0.2h-5.2
			c-0.2,0-0.2,0.1-0.2,0.2v1.2c0,0.2,0.1,0.2,0.2,0.2h5.2c0.1,0,0.2-0.1,0.2-0.2V16.8z M214.5,23.9c0,0.1,0.1,0.2,0.2,0.2h5.2
			c0.1,0,0.2-0.1,0.2-0.2v-1.2c0-0.1-0.1-0.2-0.2-0.2h-5.2c-0.2,0-0.2,0.1-0.2,0.2V23.9z M232.1,34.9c-0.1-0.1-0.2-0.1-0.3-0.1H227
			c-0.5,0-0.9-0.2-1.2-0.5c-0.3-0.3-0.5-0.7-0.5-1.2v-0.6c0,0,0,0-0.1,0c-0.7,1.4-1.5,2.7-2.6,4c-0.1,0.1-0.1,0.1,0.1,0.1h10.5
			c0,0,0.1,0,0.1,0c0,0,0-0.1,0-0.1C232.8,35.9,232.4,35.4,232.1,34.9z M231.6,42.3c0.2,0,0.2-0.1,0.2-0.2v-1.4
			c0-0.2-0.1-0.2-0.2-0.2h-7.3c-0.1,0-0.2,0.1-0.2,0.2v1.4c0,0.1,0.1,0.2,0.2,0.2H231.6z M241.9,16.8c0-0.1-0.1-0.2-0.2-0.2h-5.5
			c-0.1,0-0.2,0.1-0.2,0.2v1.2c0,0.2,0.1,0.2,0.2,0.2h5.5c0.2,0,0.2-0.1,0.2-0.2V16.8z M236,23.9c0,0.1,0.1,0.2,0.2,0.2h5.5
			c0.2,0,0.2-0.1,0.2-0.2v-1.2c0-0.1-0.1-0.2-0.2-0.2h-5.5c-0.1,0-0.2,0.1-0.2,0.2V23.9z"/>
		<path d="M268.9,18.2c0.5,0,0.9,0.2,1.2,0.5c0.3,0.3,0.5,0.7,0.5,1.2V22c0,0.4-0.2,0.8-0.5,1.2c-0.3,0.3-0.7,0.5-1.2,0.5h-13.2
			c-0.5,0-0.9-0.2-1.2-0.5c-0.3-0.3-0.5-0.7-0.5-1.2v-2.2c0-0.5,0.2-0.9,0.5-1.2c0.3-0.3,0.7-0.5,1.2-0.5H268.9z M298.2,47.5
			c0,0.5-0.2,0.9-0.5,1.2c-0.3,0.3-0.7,0.5-1.2,0.5h-2.7c0,0,0,0,0,0c0.1,0.1,0.4,0.2,0.8,0.4c0.4,0.2,0.7,0.3,0.8,0.4
			c0.1,0.1,0.4,0.2,0.7,0.4c0.4,0.2,0.6,0.3,0.8,0.4c0.2,0.1,0.4,0.2,0.7,0.3c0.3,0.1,0.6,0.3,0.7,0.4c0.2,0.1,0.4,0.2,0.7,0.3
			c0.3,0.1,0.5,0.2,0.7,0.3c0.4,0.2,0.5,0.4,0.5,0.9c0,0.4-0.2,0.6-0.5,0.8l-3.1,1.8c-0.5,0.3-0.9,0.4-1.4,0.4c-0.5,0-1-0.2-1.5-0.5
			c-1.9-1.1-3.8-2.2-5.8-3.2c-0.4-0.2-0.6-0.5-0.6-0.9c0-0.4,0.1-0.7,0.4-0.9l1.5-1.2c0,0,0,0,0,0c0,0,0,0-0.1,0h-8.2c0,0,0,0,0,0
			c0,0,0,0,0,0l2,1.3c0.3,0.2,0.5,0.5,0.5,0.9c0,0.4-0.2,0.7-0.5,0.9c-2.3,1.5-4.9,2.7-7.8,3.6c-0.3,0.1-0.6,0.1-0.8,0.1
			c-0.7,0-1.4-0.3-2-0.9c-1.1-1.1-2.1-2-3.1-2.7c-0.1-0.1-0.1,0-0.1,0.1c0,0.4-0.1,0.7-0.4,0.9c-0.3,0.3-0.6,0.4-0.9,0.4h-6.4
			c-0.2,0-0.2,0.1-0.2,0.2c0,0.5-0.2,0.9-0.5,1.2c-0.3,0.3-0.7,0.5-1.2,0.5h-2.2c-0.5,0-0.9-0.2-1.2-0.5c-0.3-0.3-0.5-0.7-0.5-1.2
			V40.6c0-0.5,0.2-0.9,0.5-1.2c0.3-0.3,0.7-0.5,1.2-0.5h10c0.4,0,0.8,0.2,1.2,0.5c0.3,0.3,0.5,0.7,0.5,1.2v11.7
			c0,0.1,0.1,0.2,0.2,0.1c2.8-0.7,5.4-1.7,7.9-3.2c0,0,0-0.1,0-0.1c0,0,0,0,0,0h-2.1c-0.5,0-0.9-0.2-1.2-0.5
			c-0.3-0.3-0.5-0.7-0.5-1.2V35.9c0-0.5,0.2-0.9,0.5-1.2c0.3-0.3,0.7-0.5,1.2-0.5h21.2c0.4,0,0.8,0.2,1.2,0.5
			c0.3,0.3,0.5,0.7,0.5,1.2V47.5z M267.7,25.2c0.4,0,0.8,0.2,1.2,0.5c0.3,0.3,0.5,0.7,0.5,1.2v1.9c0,0.5-0.2,0.9-0.5,1.2
			c-0.3,0.3-0.7,0.5-1.2,0.5h-9.9c-0.5,0-0.9-0.2-1.2-0.5c-0.3-0.3-0.5-0.7-0.5-1.2v-1.9c0-0.4,0.2-0.8,0.5-1.2
			c0.3-0.3,0.7-0.5,1.2-0.5H267.7z M257.8,37.3c-0.5,0-0.9-0.2-1.2-0.5c-0.3-0.3-0.5-0.7-0.5-1.2v-1.9c0-0.5,0.2-0.9,0.5-1.2
			c0.3-0.3,0.7-0.5,1.2-0.5h9.9c0.4,0,0.8,0.2,1.2,0.5c0.3,0.3,0.5,0.7,0.5,1.2v1.9c0,0.5-0.2,0.9-0.5,1.2c-0.3,0.3-0.7,0.5-1.2,0.5
			H257.8z M267.6,11.4c0.4,0,0.8,0.2,1.2,0.5c0.3,0.3,0.5,0.7,0.5,1.2V15c0,0.5-0.2,0.9-0.5,1.2c-0.3,0.3-0.7,0.5-1.2,0.5h-9.5
			c-0.4,0-0.8-0.2-1.2-0.5c-0.3-0.3-0.5-0.7-0.5-1.2v-1.9c0-0.5,0.2-0.9,0.5-1.2c0.3-0.3,0.7-0.5,1.2-0.5H267.6z M263.5,48.5
			c0.1,0,0.2-0.1,0.2-0.2v-3.7c0-0.2-0.1-0.2-0.2-0.2h-1.8c-0.2,0-0.2,0.1-0.2,0.2v3.7c0,0.1,0.1,0.2,0.2,0.2H263.5z M281.7,17.5
			c0.1,0,0.2-0.1,0.2-0.2v-0.9c0-0.1-0.1-0.2-0.2-0.2h-8.2c-0.5,0-0.9-0.2-1.2-0.5c-0.3-0.3-0.5-0.7-0.5-1.2v-0.9
			c0-0.5,0.2-0.9,0.5-1.2c0.3-0.3,0.7-0.5,1.2-0.5h8.2c0.1,0,0.2-0.1,0.2-0.2c0-0.5,0.2-0.9,0.5-1.2c0.3-0.3,0.7-0.5,1.2-0.5h3.5
			c0.5,0,0.9,0.2,1.2,0.5c0.3,0.3,0.5,0.7,0.5,1.2c0,0.1,0.1,0.2,0.2,0.2h8.9c0.5,0,0.9,0.2,1.2,0.5c0.3,0.3,0.5,0.7,0.5,1.2v0.9
			c0,0.5-0.2,0.9-0.5,1.2c-0.3,0.3-0.7,0.5-1.2,0.5h-8.9c-0.1,0-0.2,0.1-0.2,0.2v0.9c0,0.1,0.1,0.2,0.2,0.2h7.6
			c0.5,0,0.9,0.2,1.2,0.5c0.3,0.3,0.5,0.7,0.5,1.2v0.6c0,0.4-0.2,0.8-0.5,1.2c-0.3,0.3-0.7,0.5-1.2,0.5h-21.6
			c-0.5,0-0.9-0.2-1.2-0.5c-0.3-0.3-0.5-0.7-0.5-1.2v-0.6c0-0.5,0.2-0.9,0.5-1.2c0.3-0.3,0.7-0.5,1.2-0.5H281.7z M273.6,33.3
			c-0.5,0-0.9-0.2-1.2-0.5c-0.3-0.3-0.5-0.7-0.5-1.2v-7.4c0-0.5,0.2-0.9,0.5-1.2c0.3-0.3,0.7-0.5,1.2-0.5h24.2
			c0.5,0,0.9,0.2,1.2,0.5c0.3,0.3,0.5,0.7,0.5,1.2v7.4c0,0.5-0.2,0.9-0.5,1.2c-0.3,0.3-0.7,0.5-1.2,0.5H273.6z M277.4,29.8
			c0,0.1,0.1,0.2,0.2,0.2h15.8c0.2,0,0.2-0.1,0.2-0.2v-0.5c0-0.1-0.1-0.2-0.2-0.2h-2.9c-1.6,0-2.7-0.2-3.3-0.6
			c-0.6-0.4-0.9-1.2-0.9-2.4c0-0.2-0.1-0.2-0.2-0.2h-1.3c-0.1,0-0.2,0.1-0.2,0.2c-0.2,0.9-0.7,1.7-1.3,2.2c-0.6,0.6-1.6,1-3,1.2
			c-0.2,0-0.3,0-0.4,0c-0.8,0-1.4-0.4-2-1.3c-0.1-0.1-0.2-0.2-0.2-0.3c0,0-0.1,0-0.1,0c0,0,0,0,0,0.1V29.8z M280.4,26
			c0,0,0-0.1,0-0.1c0,0-0.1-0.1-0.1-0.1h-2.7c-0.2,0-0.2,0.1-0.2,0.2v0.7c0,0.2,0.1,0.2,0.2,0.2C279.2,26.8,280.1,26.5,280.4,26z
			 M280.1,37.7c-0.2,0-0.2,0.1-0.2,0.2v0.6c0,0.2,0.1,0.2,0.2,0.2h11.3c0.2,0,0.2-0.1,0.2-0.2v-0.6c0-0.2-0.1-0.2-0.2-0.2H280.1z
			 M280.1,41.2c-0.2,0-0.2,0.1-0.2,0.2v0.7c0,0.1,0.1,0.2,0.2,0.2h11.3c0.2,0,0.2-0.1,0.2-0.2v-0.7c0-0.1-0.1-0.2-0.2-0.2H280.1z
			 M280.1,44.6c-0.2,0-0.2,0.1-0.2,0.2v0.7c0,0.2,0.1,0.2,0.2,0.2h11.3c0.2,0,0.2-0.1,0.2-0.2v-0.7c0-0.2-0.1-0.2-0.2-0.2H280.1z
			 M293.5,26.7c0.1,0,0.2-0.2,0.2-0.3v-0.3c0-0.2-0.1-0.2-0.2-0.2h-2.7c-0.2,0-0.2,0.1-0.2,0.2c0,0.3,0.1,0.5,0.2,0.6
			c0.1,0.1,0.3,0.1,0.6,0.1h1.8C293.2,26.8,293.4,26.8,293.5,26.7z"/>
		<path d="M335.4,17.3c-0.1,0.1,0,0.2,0.1,0.2H347c0.5,0,0.9,0.2,1.2,0.5c0.3,0.3,0.5,0.7,0.5,1.2c0,0.5,0,1,0,1.4
			c-0.3,11.5-0.7,19.5-1.1,23.9c-0.4,4.4-1.1,7.3-2.1,8.6c-0.7,1-1.4,1.7-2.2,2.1c-0.8,0.4-1.8,0.8-2.9,1c-1,0.2-2.5,0.3-4.5,0.3
			c-0.6,0-1.2,0-1.8,0c-0.4,0-0.9-0.2-1.2-0.5c-0.4-0.3-0.6-0.7-0.7-1.2c-0.3-1.3-0.7-2.5-1.3-3.7c-0.2-0.3-0.1-0.6,0-0.9
			c0.2-0.3,0.5-0.4,0.8-0.4c1.7,0.1,3.6,0.1,5.7,0.1c0.9,0,1.6-0.3,2.2-0.9c0.7-0.8,1.2-3,1.6-6.8c0.4-3.8,0.6-9.7,0.8-18
			c0-0.2,0-0.2-0.2-0.2h-8.9c-0.2,0-0.3,0.1-0.3,0.2c-1,2.1-2.1,4-3.1,5.7c-0.3,0.4-0.6,0.6-1.1,0.7c-0.4,0.1-0.8,0-1.2-0.3
			c-0.9-0.6-1.7-1.2-2.5-1.8c-0.1-0.1-0.2-0.1-0.2,0.1v21.4c0,0.5-0.2,0.9-0.5,1.2c-0.3,0.3-0.7,0.5-1.2,0.5h-11
			c-0.1,0-0.2,0.1-0.2,0.2v1.6c0,0.5-0.2,0.9-0.5,1.2c-0.3,0.3-0.7,0.5-1.2,0.5h-3c-0.5,0-0.9-0.2-1.2-0.5c-0.3-0.3-0.5-0.7-0.5-1.2
			V19.7c0-0.5,0.2-0.9,0.5-1.2c0.3-0.3,0.7-0.5,1.2-0.5h3.7c0.1,0,0.2-0.1,0.2-0.2c0.4-2.1,0.7-4.1,0.9-6.1c0-0.5,0.2-0.9,0.6-1.2
			c0.3-0.2,0.6-0.3,1-0.3c0.1,0,0.1,0,0.2,0l4.4,0.6c0.4,0.1,0.8,0.3,1,0.7c0.2,0.4,0.3,0.8,0.1,1.2c-0.8,2.3-1.4,4-1.8,5.1
			c-0.1,0.1,0,0.2,0.1,0.2h5.4c0.4,0,0.8,0.2,1.2,0.5c0.3,0.3,0.5,0.7,0.5,1.2v4.6c0,0,0,0.1,0,0.1c0,0,0,0,0,0
			c2.2-3.6,3.9-7.8,5.3-12.6c0.1-0.4,0.4-0.8,0.8-1.1c0.4-0.3,0.8-0.3,1.3-0.2l3.6,0.8c0.4,0.1,0.8,0.4,1,0.8
			c0.2,0.4,0.3,0.8,0.1,1.2C336.3,14.6,335.9,15.9,335.4,17.3z M317.8,30.9c0.2,0,0.2-0.1,0.2-0.2v-6.2c0-0.2-0.1-0.2-0.2-0.2h-6
			c-0.1,0-0.2,0.1-0.2,0.2v6.2c0,0.2,0.1,0.2,0.2,0.2H317.8z M311.6,45.2c0,0.2,0.1,0.2,0.2,0.2h6c0.2,0,0.2-0.1,0.2-0.2v-8
			c0-0.1-0.1-0.2-0.2-0.2h-6c-0.1,0-0.2,0.1-0.2,0.2V45.2z M339.5,38.8c0.2,0.3,0.2,0.6,0.2,0.9c0,0.2,0,0.3-0.1,0.5
			c-0.1,0.4-0.4,0.8-0.8,1.1l-3.1,1.9c-0.3,0.1-0.5,0.2-0.8,0.2c-0.2,0-0.3,0-0.4,0c-0.4-0.1-0.8-0.4-1-0.8
			c-0.9-1.9-2.5-4.7-4.8-8.4c-0.2-0.3-0.2-0.6-0.2-0.9c0-0.1,0-0.3,0-0.4c0.1-0.4,0.4-0.8,0.8-1l2.6-1.5c0.3-0.2,0.6-0.2,0.9-0.2
			c0.1,0,0.3,0,0.4,0c0.5,0.1,0.8,0.4,1.1,0.8C336.9,34.6,338.6,37.2,339.5,38.8z"/>
		<path class="st0" d="M383.9,41.2c-0.5,0-0.9-0.2-1.2-0.5c-0.3-0.3-0.5-0.7-0.5-1.2V11.7c0-0.5,0.2-0.9,0.5-1.2
			c0.3-0.3,0.7-0.5,1.2-0.5h13.3c0.5,0,0.9,0.2,1.2,0.5c0.3,0.3,0.5,0.7,0.5,1.2v3c0,0.5-0.2,0.9-0.5,1.2c-0.3,0.3-0.7,0.5-1.2,0.5
			h-7.8c-0.1,0-0.2,0.1-0.2,0.2v22.9c0,0.5-0.2,0.9-0.5,1.2c-0.3,0.3-0.7,0.5-1.2,0.5H383.9z"/>
		<path class="st0" d="M436.9,40.5c-0.1,0-0.2,0.1-0.2,0.2v1.1c0,0.1,0.1,0.2,0.2,0.2h8.7c0.4,0,0.8,0.2,1.2,0.5
			c0.3,0.3,0.5,0.7,0.5,1.2v1.9c0,0.5-0.2,0.9-0.5,1.2c-0.3,0.3-0.7,0.5-1.2,0.5h-8.7c-0.1,0-0.2,0.1-0.2,0.2v2.5
			c0,1.6-0.2,2.8-0.6,3.7c-0.4,0.8-1.1,1.5-2.2,1.9c-1.4,0.6-3.6,0.9-6.6,0.9h0c-0.4,0-0.9-0.1-1.2-0.4c-0.4-0.3-0.6-0.7-0.8-1.2
			c-0.3-1-0.7-1.9-1.1-3c-0.1-0.4-0.1-0.7,0.1-1c0.2-0.3,0.5-0.5,0.9-0.5c0.9,0,1.7,0,2.3,0c0.6,0,1,0,1.4,0c0.4,0,0.6,0,0.8-0.1
			c0.1-0.1,0.2-0.3,0.2-0.5v-2.3c0-0.1-0.1-0.2-0.2-0.2h-11.7c0,0-0.1,0-0.1,0c0,0,0,0.1,0,0.1c1.1,0.8,2,1.6,2.7,2.3
			c0.3,0.3,0.5,0.7,0.5,1.2c0,0.5-0.2,0.8-0.6,1.1l-2.6,2.2c-0.4,0.3-0.8,0.4-1.2,0.4c-0.5,0-0.9-0.2-1.2-0.6
			c-1-1.1-2.2-2.2-3.7-3.5c-0.4-0.3-0.5-0.6-0.5-1.1c0-0.4,0.2-0.8,0.5-1.1l1.2-0.9c0,0,0-0.1,0-0.1c0,0,0,0-0.1,0h-9
			c-0.4,0-0.8-0.2-1.2-0.5c-0.3-0.3-0.5-0.7-0.5-1.2v-1.9c0-0.5,0.2-0.9,0.5-1.2c0.3-0.3,0.7-0.5,1.2-0.5h25.8
			c0.2,0,0.2-0.1,0.2-0.2v-1.1c0-0.2-0.1-0.2-0.2-0.2c-3,0-5.6,0-7.6-0.1c-2.5-0.1-4.5-0.5-6.1-1.1c-1.6-0.6-2.9-1.7-4.1-3.1
			c-0.1-0.1-0.2-0.1-0.3,0c-1.4,0.9-3.4,2.2-5.9,3.7c-0.4,0.2-0.8,0.3-1.2,0.1c-0.4-0.1-0.7-0.4-0.9-0.8l-1-2.4
			c-0.2-0.4-0.2-0.9,0-1.3c0.2-0.4,0.5-0.7,0.9-0.9c1.4-0.6,2.7-1.3,4-2c0.1-0.1,0.2-0.2,0.2-0.3v-4.9c0-0.1-0.1-0.2-0.2-0.2H404
			c-0.5,0-0.9-0.2-1.2-0.5c-0.3-0.3-0.5-0.7-0.5-1.2v-1.9c0-0.5,0.2-0.9,0.5-1.2c0.3-0.3,0.7-0.5,1.2-0.5h8.2c0.5,0,0.9,0.2,1.2,0.5
			c0.3,0.3,0.5,0.7,0.5,1.2v7.8c0,0.1,0,0.3,0.1,0.4c0.7,1.2,1.7,2.1,3,2.7c1.3,0.6,2.9,0.9,4.9,1c1.8,0.1,4.1,0.1,7,0.1
			c1.4,0,3,0,4.6,0c5-0.1,9.3-0.2,12.9-0.4c0.4,0,0.7,0.1,0.9,0.4c0.2,0.2,0.2,0.4,0.2,0.6c0,0.1,0,0.3-0.1,0.4
			c-0.3,0.7-0.5,1.4-0.7,2.1c-0.1,0.5-0.4,0.9-0.8,1.2c-0.4,0.3-0.8,0.5-1.3,0.5C442.1,40.5,439.5,40.5,436.9,40.5z M413.7,15.1
			c0.3,0.4,0.5,0.8,0.4,1.2c0,0.5-0.2,0.9-0.6,1.2l-2.3,2c-0.3,0.3-0.7,0.5-1.2,0.4c-0.5,0-0.8-0.2-1.1-0.6c-1.1-1.3-2.6-2.6-4.3-4
			c-0.3-0.3-0.5-0.7-0.5-1.1c0-0.4,0.2-0.8,0.5-1.1l2-1.7c0.4-0.4,0.8-0.5,1.3-0.5c0.1,0,0.1,0,0.1,0c0.4,0,0.9,0.1,1.2,0.4
			C411,12.6,412.5,13.9,413.7,15.1z M426.9,19.5c0.1,0,0.2-0.1,0.2-0.2l0.1-0.6c0-0.1,0-0.2-0.1-0.2h-10.4c-0.5,0-0.9-0.2-1.2-0.5
			c-0.3-0.3-0.5-0.7-0.5-1.2v-1.2c0-0.5,0.2-0.9,0.5-1.2c0.3-0.3,0.7-0.5,1.2-0.5h4.8c0.2,0,0.2-0.1,0.1-0.2
			c-0.2-0.4-0.3-0.7-0.5-1.2c-0.2-0.4-0.1-0.8,0-1.2c0.2-0.4,0.5-0.6,0.9-0.7l2.4-0.4c0.5-0.1,1,0,1.5,0.2c0.5,0.2,0.8,0.5,1.1,1
			c0.4,0.8,0.8,1.5,1.1,2.2c0.1,0.1,0.2,0.2,0.3,0.2h5.4c0.2,0,0.3-0.1,0.3-0.2c0.3-0.6,0.7-1.3,1-2.1c0.2-0.5,0.5-0.8,0.9-1.1
			c0.4-0.2,0.7-0.3,1.1-0.3c0.1,0,0.2,0,0.3,0l3.4,0.5c0.4,0.1,0.7,0.3,0.8,0.6c0.2,0.4,0.2,0.7-0.1,1.1c-0.3,0.5-0.6,0.9-0.9,1.3
			c-0.1,0.1,0,0.1,0.1,0.1h4.8c0.4,0,0.8,0.2,1.2,0.5c0.3,0.3,0.5,0.7,0.5,1.2v1.2c0,0.5-0.2,0.9-0.5,1.2c-0.3,0.3-0.7,0.5-1.2,0.5
			h-11.7c-0.2,0-0.3,0.1-0.3,0.2l-0.3,0.6c-0.1,0.1,0,0.2,0.1,0.2h8.2c0.4,0,0.8,0.2,1.2,0.5c0.3,0.3,0.5,0.7,0.5,1.2v11.4
			c0,0.5-0.2,0.9-0.5,1.2c-0.3,0.3-0.7,0.5-1.2,0.5h-21.1c-0.5,0-0.9-0.2-1.2-0.5c-0.3-0.3-0.5-0.7-0.5-1.2V21.2
			c0-0.5,0.2-0.9,0.5-1.2c0.3-0.3,0.7-0.5,1.2-0.5H426.9z M436.2,23.5c0.2,0,0.2-0.1,0.2-0.2v-0.7c0-0.1-0.1-0.2-0.2-0.2h-10.6
			c-0.2,0-0.2,0.1-0.2,0.2v0.7c0,0.1,0.1,0.2,0.2,0.2H436.2z M436.2,27.5c0.2,0,0.2-0.1,0.2-0.2v-0.7c0-0.2-0.1-0.2-0.2-0.2h-10.6
			c-0.2,0-0.2,0.1-0.2,0.2v0.7c0,0.1,0.1,0.2,0.2,0.2H436.2z M436.2,31.4c0.2,0,0.2-0.1,0.2-0.2v-0.7c0-0.2-0.1-0.2-0.2-0.2h-10.6
			c-0.2,0-0.2,0.1-0.2,0.2v0.7c0,0.2,0.1,0.2,0.2,0.2H436.2z"/>
		<path class="st0" d="M492.1,50.1h0.4c0.2,0,0.3-0.1,0.4-0.2c0.1-0.1,0.2-0.6,0.3-1.5c0-0.8,0-2,0-3.6c0-0.4,0.2-0.6,0.5-0.7
			c0.3-0.1,0.6-0.1,0.9,0c0.5,0.4,1.1,0.7,1.8,1c0.5,0.2,0.8,0.6,1.1,1c0.3,0.4,0.4,0.8,0.4,1.2c0,1.9-0.2,3.6-0.5,5.2
			c-0.4,1.2-0.9,2.2-1.7,2.8c-0.7,0.5-1.7,0.8-3,0.8H490c-1.6,0-2.8-0.5-3.7-1.4c-0.5-0.5-0.8-1.2-1-2.1c-0.2-0.8-0.3-2.2-0.3-4.1
			V32.8c0-0.1-0.1-0.2-0.2-0.2h-3.1c-0.1,0-0.2,0.1-0.2,0.2v4.9c0,8-1.5,13.9-4.4,17.7c-0.3,0.4-0.7,0.6-1.1,0.6
			c-0.5,0-0.9-0.1-1.3-0.4c-1.6-1.2-2.9-2.1-4.1-2.7c-0.1-0.1-0.2,0-0.2,0.1c-0.3,1.2-0.8,2-1.7,2.6c-1,0.6-2.5,1-4.5,1.1
			c0,0-0.1,0-0.1,0c-0.4,0-0.8-0.2-1.2-0.5c-0.4-0.3-0.6-0.7-0.7-1.2c-0.2-0.8-0.4-1.5-0.7-2.3c-0.2-0.4-0.1-0.7,0.1-1
			c0.2-0.3,0.5-0.5,0.9-0.5c0.5,0,1.1,0,1.7,0c0.3,0,0.5-0.1,0.6-0.2c0.1-0.1,0.1-0.3,0.1-0.6V36.3c0-0.2-0.1-0.2-0.2-0.2l-5.5,0.6
			c-0.1,0-0.2,0.1-0.2,0.2c-0.2,8.1-1.3,14.2-3.3,18.2c-0.2,0.4-0.5,0.7-1,0.7c-0.4,0.1-0.8,0-1.2-0.3c-0.6-0.4-1.2-0.8-1.9-1.2
			c-0.4-0.2-0.7-0.6-0.8-1c-0.1-0.4-0.1-0.9,0.1-1.3c1.5-3.3,2.4-8.1,2.6-14.5c0-0.1-0.1-0.2-0.2-0.2l-0.8,0.1
			c-0.5,0.1-0.9-0.1-1.3-0.4c-0.4-0.3-0.6-0.7-0.6-1.1l-0.2-2.3c-0.1-0.4,0-0.9,0.3-1.2c0.3-0.4,0.7-0.6,1.2-0.6l1.4-0.1
			c0.1,0,0.2-0.1,0.2-0.2V18.3c0-0.4,0.2-0.8,0.5-1.2c0.3-0.3,0.7-0.5,1.2-0.5h2.7c0.1,0,0.2-0.1,0.2-0.2c0.4-1.6,0.7-3.2,0.9-4.7
			c0.1-0.5,0.3-0.8,0.6-1.1c0.3-0.3,0.7-0.4,1-0.4c0.1,0,0.1,0,0.2,0l4.1,0.6c0.4,0.1,0.8,0.3,1,0.7c0.2,0.4,0.3,0.8,0.2,1.2
			c-0.5,1.8-0.9,3-1.2,3.7c0,0.2,0,0.2,0.1,0.2h3.7c0.5,0,0.9,0.2,1.2,0.5c0.3,0.3,0.5,0.7,0.5,1.2v11.5c0,0.1,0.1,0.2,0.2,0.2
			l0.2,0c0.5,0,0.9,0.1,1.2,0.4c0.3,0.3,0.5,0.7,0.5,1.2l0.1,1.9c0,0.5-0.2,0.9-0.5,1.3c-0.3,0.4-0.7,0.6-1.2,0.6h-0.3
			c-0.2,0-0.2,0.1-0.2,0.2v15c0,0.8,0,1.4-0.1,2c0,0,0,0.1,0,0.1c0,0,0.1,0,0.1,0c0.9-1,1.7-2.2,2.3-3.4c0.6-1.2,1.1-2.6,1.3-4
			c0.3-1.4,0.4-2.7,0.5-3.8c0.1-1.1,0.1-2.4,0.1-3.9v-9.4c0-0.5,0.2-0.9,0.5-1.2c0.3-0.3,0.7-0.5,1.2-0.5H490c0.5,0,0.9,0.2,1.2,0.5
			c0.3,0.3,0.5,0.7,0.5,1.2v20c0,0.8,0,1.3,0,1.5c0,0.2,0.1,0.3,0.2,0.3C492,50.1,492.1,50.1,492.1,50.1z M459.2,22.1
			c-0.1,0-0.2,0.1-0.2,0.2V24c0,0.1,0.1,0.2,0.2,0.1l2.1-0.8c0.4-0.2,0.9-0.2,1.4,0c0.5,0.2,0.8,0.5,1,0.9c0.5,1,0.9,2,1.2,3
			c0,0,0,0,0,0v-4.8c0-0.2-0.1-0.2-0.2-0.2H459.2z M459,31c0,0.2,0.1,0.2,0.2,0.2l5.5-0.5c0.2,0,0.2-0.1,0.2-0.2v-1.6
			c0-0.1-0.1-0.2-0.2-0.1l-2.4,1c-0.4,0.2-0.8,0.1-1.2-0.1c-0.4-0.2-0.6-0.5-0.7-0.9c-0.4-1.3-0.8-2.6-1.3-3.8c0,0-0.1,0-0.1,0
			c0,0,0,0,0,0V31z M462,37.1c0.4,0,0.8,0.2,1.2,0.5c0.3,0.3,0.5,0.7,0.5,1.2v7.7c0,0.4-0.2,0.8-0.5,1.2c-0.3,0.3-0.7,0.5-1.2,0.5
			h-0.5c-0.5,0-0.9-0.2-1.2-0.5c-0.3-0.3-0.5-0.7-0.5-1.2v-7.7c0-0.5,0.2-0.9,0.5-1.2c0.3-0.3,0.7-0.5,1.2-0.5H462z M495.1,17.2
			c0.4,0,0.8,0.2,1.2,0.5c0.3,0.3,0.5,0.7,0.5,1.2v2.8c0,0.4-0.2,0.8-0.5,1.2c-0.3,0.3-0.7,0.5-1.2,0.5h-21.9
			c-0.4,0-0.8-0.2-1.2-0.5c-0.3-0.3-0.5-0.7-0.5-1.2V19c0-0.5,0.2-0.9,0.5-1.2c0.3-0.3,0.7-0.5,1.2-0.5h7c0.1,0,0.2-0.1,0.2-0.2
			v-5.4c0-0.5,0.2-0.9,0.5-1.2c0.3-0.3,0.7-0.5,1.2-0.5h3.5c0.5,0,0.9,0.2,1.2,0.5c0.3,0.3,0.5,0.7,0.5,1.2V17
			c0,0.1,0.1,0.2,0.2,0.2H495.1z"/>
		<path class="st0" d="M539.7,26.3c0,0.4-0.2,0.8-0.5,1.2c-0.3,0.3-0.7,0.5-1.2,0.5h-11.6c-0.1,0-0.2,0.1-0.2,0.2v0.7
			c0,0.2,0.1,0.2,0.2,0.2h13.2c0.4,0,0.8,0.2,1.2,0.5c0.3,0.3,0.5,0.7,0.5,1.2v0.8c0,0.5-0.2,0.9-0.5,1.2c-0.3,0.3-0.7,0.5-1.2,0.5
			h-13.2c-0.1,0-0.2,0.1-0.2,0.2v0.8c0,0.1,0.1,0.2,0.2,0.2h17c0.5,0,0.9,0.2,1.2,0.5c0.3,0.3,0.5,0.7,0.5,1.2v1.4
			c0,0.5-0.2,0.9-0.5,1.2c-0.3,0.3-0.7,0.5-1.2,0.5h-41.2c-0.5,0-0.9-0.2-1.2-0.5c-0.3-0.3-0.5-0.7-0.5-1.2v-1.4
			c0-0.5,0.2-0.9,0.5-1.2c0.3-0.3,0.7-0.5,1.2-0.5h16.6c0.1,0,0.2-0.1,0.2-0.2v-0.8c0-0.1-0.1-0.2-0.2-0.2h-13.1
			c-0.4,0-0.8-0.2-1.2-0.5c-0.3-0.3-0.5-0.7-0.5-1.2v-0.8c0-0.4,0.2-0.8,0.5-1.2c0.3-0.3,0.7-0.5,1.2-0.5h13.1
			c0.1,0,0.2-0.1,0.2-0.2v-0.7c0-0.2-0.1-0.2-0.2-0.2h-12.2c-0.5,0-0.9-0.2-1.2-0.5c-0.3-0.3-0.5-0.7-0.5-1.2v-0.6
			c0-0.5,0.2-0.9,0.5-1.2c0.3-0.3,0.7-0.5,1.2-0.5h12.2c0.1,0,0.2-0.1,0.2-0.2v-0.8c0-0.1-0.1-0.2-0.2-0.2h-16.6
			c-0.5,0-0.9-0.2-1.2-0.5c-0.3-0.3-0.5-0.7-0.5-1.2v-1.4c0-0.5,0.2-0.9,0.5-1.2c0.3-0.3,0.7-0.5,1.2-0.5h16.6
			c0.1,0,0.2-0.1,0.2-0.2V17c0-0.1-0.1-0.2-0.2-0.2h-11.6c-0.5,0-0.9-0.2-1.2-0.5c-0.3-0.3-0.5-0.7-0.5-1.2v-0.6
			c0-0.4,0.2-0.8,0.5-1.2c0.3-0.3,0.7-0.5,1.2-0.5h11.6c0.1,0,0.2-0.1,0.2-0.2v-1c0-0.5,0.2-0.9,0.5-1.2c0.3-0.3,0.7-0.5,1.2-0.5
			h3.8c0.5,0,0.9,0.2,1.2,0.5c0.3,0.3,0.5,0.7,0.5,1.2v1c0,0.2,0.1,0.2,0.2,0.2H538c0.4,0,0.8,0.2,1.2,0.5c0.3,0.3,0.5,0.7,0.5,1.2
			v3.3c0,0.1,0.1,0.2,0.2,0.2h3.5c0.5,0,0.9,0.2,1.2,0.5c0.3,0.3,0.5,0.7,0.5,1.2V21c0,0.5-0.2,0.9-0.5,1.2
			c-0.3,0.3-0.7,0.5-1.2,0.5h-3.5c-0.2,0-0.2,0.1-0.2,0.2V26.3z M508.3,56.8c-0.5,0-0.9-0.2-1.2-0.5c-0.3-0.3-0.5-0.7-0.5-1.2v-13
			c0-0.5,0.2-0.9,0.5-1.2c0.3-0.3,0.7-0.5,1.2-0.5h29.9c0.5,0,0.9,0.2,1.2,0.5c0.3,0.3,0.5,0.7,0.5,1.2v13c0,0.5-0.2,0.9-0.5,1.2
			c-0.3,0.3-0.7,0.5-1.2,0.5h-4.4c-0.3,0-0.6-0.1-0.8-0.3c-0.2-0.2-0.3-0.5-0.3-0.8c0-0.1,0-0.1-0.1-0.1h-18.9c-0.1,0-0.2,0-0.2,0.1
			c0,0.3-0.1,0.6-0.3,0.8c-0.2,0.2-0.5,0.3-0.8,0.3H508.3z M532.7,44.9c0-0.2-0.1-0.2-0.2-0.2h-18.8c-0.2,0-0.2,0.1-0.2,0.2v0.8
			c0,0.1,0.1,0.2,0.2,0.2h18.8c0.2,0,0.2-0.1,0.2-0.2V44.9z M513.4,50.9c0,0.2,0.1,0.2,0.2,0.2h18.8c0.2,0,0.2-0.1,0.2-0.2v-0.8
			c0-0.1-0.1-0.2-0.2-0.2h-18.8c-0.2,0-0.2,0.1-0.2,0.2V50.9z M526.4,16.8c-0.1,0-0.2,0.1-0.2,0.2v0.8c0,0.1,0.1,0.2,0.2,0.2h5.9
			c0.2,0,0.2-0.1,0.2-0.2V17c0-0.1-0.1-0.2-0.2-0.2H526.4z M526.4,22.8c-0.1,0-0.2,0.1-0.2,0.2v0.8c0,0.1,0.1,0.2,0.2,0.2h5.9
			c0.2,0,0.2-0.1,0.2-0.2v-0.8c0-0.1-0.1-0.2-0.2-0.2H526.4z"/>
		<path class="st0" d="M563.6,25.5c0.5,0,0.9,0.2,1.2,0.5c0.3,0.3,0.5,0.7,0.5,1.2V55c0,0.4-0.2,0.8-0.5,1.2
			c-0.3,0.3-0.7,0.5-1.2,0.5h-13.3c-0.5,0-0.9-0.2-1.2-0.5c-0.3-0.3-0.5-0.7-0.5-1.2v-3c0-0.5,0.2-0.9,0.5-1.2
			c0.3-0.3,0.7-0.5,1.2-0.5h7.8c0.1,0,0.2-0.1,0.2-0.2V27.2c0-0.5,0.2-0.9,0.5-1.2c0.3-0.3,0.7-0.5,1.2-0.5H563.6z"/>
		<path d="M612.5,51.1c-1,1-2.3,1.5-3.8,1.5c-1.5,0-2.8-0.5-3.8-1.5c-1-1-1.5-2.3-1.5-3.9c0-1.5,0.5-2.8,1.5-3.9
			c1-1,2.3-1.6,3.8-1.6c1.5,0,2.8,0.5,3.8,1.6c1,1,1.5,2.3,1.5,3.9C614.1,48.8,613.5,50.1,612.5,51.1z M607.6,38.8
			c-0.5,0-0.9-0.2-1.2-0.5c-0.4-0.3-0.5-0.7-0.6-1.2l-1.1-15.1l-0.2-6c0-0.5,0.2-0.9,0.5-1.2c0.3-0.3,0.7-0.5,1.2-0.5h5.4
			c0.4,0,0.8,0.2,1.2,0.5c0.3,0.3,0.5,0.7,0.5,1.2l-0.2,6L611.8,37c0,0.5-0.2,0.9-0.6,1.2c-0.4,0.3-0.8,0.5-1.2,0.5H607.6z"/>
	</g>
</g>
</svg>
