<?xml version="1.0" encoding="utf-8"?>
<!-- Generator: Adobe Illustrator 21.1.0, SVG Export Plug-In . SVG Version: 6.00 Build 0)  -->
<svg version="1.1" id="圖層_1" xmlns="http://www.w3.org/2000/svg" xmlns:xlink="http://www.w3.org/1999/xlink" x="0px" y="0px"
	 viewBox="0 0 451.1 65.1" style="enable-background:new 0 0 451.1 65.1;" xml:space="preserve">
<g>
	<g>
		<path d="M21.1,27.2c0.4,0.3,0.6,0.6,0.7,1.1c0.1,0.5,0,0.9-0.3,1.3l-2.1,3.1c-0.3,0.4-0.6,0.6-1.1,0.7c-0.4,0.1-0.9,0-1.2-0.3
			c-1.7-1.2-3.8-2.4-6.3-3.6c-0.4-0.2-0.7-0.5-0.8-0.9C10,28.3,10,28.1,10,28c0-0.3,0.1-0.6,0.3-0.8l1.8-2.5
			c0.3-0.4,0.7-0.7,1.2-0.8c0.5-0.1,0.9-0.1,1.4,0.1C17.1,24.9,19.3,26,21.1,27.2z M19.2,37.6c0.2-0.4,0.5-0.6,0.9-0.7
			c0.4-0.1,0.8,0,1.2,0.3l2.8,2.4c0.4,0.4,0.6,0.8,0.7,1.2c0.1,0.5,0.1,0.9-0.2,1.4c-2,4.1-4.2,8.2-6.6,12.3c-0.2,0.4-0.6,0.6-1,0.7
			c-0.4,0.1-0.8,0-1.2-0.2l-3.4-2.6c-0.4-0.3-0.6-0.7-0.7-1.2c0-0.1,0-0.2,0-0.3c0-0.4,0.1-0.7,0.3-1C14.5,46.1,16.9,41.9,19.2,37.6
			z M24.2,14c0.4,0.3,0.6,0.6,0.7,1.1c0.1,0.5,0,0.9-0.3,1.3l-2.2,3c-0.3,0.4-0.6,0.6-1.1,0.6c-0.5,0.1-0.9,0-1.2-0.3
			c-1.7-1.2-3.8-2.5-6.2-3.7c-0.4-0.2-0.6-0.5-0.7-0.9c-0.1-0.4,0-0.8,0.2-1.2l1.9-2.5c0.3-0.4,0.7-0.7,1.2-0.8c0.5-0.1,1-0.1,1.4,0
			C20.4,11.7,22.5,12.8,24.2,14z M47.9,32.7c0.3-0.1,0.5-0.1,0.8-0.1c0.5,0,1,0.1,1.4,0.3l2.1,0.8c0.4,0.2,0.8,0.5,1,0.9
			c0.2,0.4,0.2,0.9,0.1,1.3c-1.5,4.3-3.6,7.9-6.5,10.9c-0.1,0.1-0.1,0.2,0,0.2c2.6,1.1,5.3,2,8.3,2.6c0.4,0.1,0.6,0.3,0.7,0.7
			c0.1,0.1,0.1,0.2,0.1,0.3c0,0.2-0.1,0.4-0.2,0.6c-1,1.1-1.9,2.4-2.7,3.8c-0.3,0.4-0.6,0.7-1.1,0.9c-0.5,0.2-0.9,0.2-1.4,0.1
			c-3.7-1-7-2.4-9.9-4.2c-0.1-0.1-0.3-0.1-0.4,0c-3.3,1.9-7.3,3.3-12,4.4c-0.2,0-0.3,0-0.5,0c-0.3,0-0.6-0.1-0.9-0.2
			c-0.4-0.2-0.7-0.6-1-1.1c-0.6-1.2-1.2-2.4-1.9-3.5c-0.1-0.2-0.2-0.4-0.2-0.6c0-0.2,0-0.3,0.1-0.4c0.1-0.4,0.4-0.6,0.8-0.7
			c3.5-0.6,6.7-1.6,9.5-2.8c0.1,0,0.1-0.1,0-0.2c-1.4-1.4-2.7-3-3.9-4.7c-0.3-0.4-0.3-0.7-0.2-1.2c0.1-0.4,0.4-0.7,0.8-0.8l2.7-1
			c0,0,0,0,0,0c0,0,0,0,0,0h-5.1c-0.5,0-0.9-0.2-1.2-0.5c-0.3-0.3-0.5-0.7-0.5-1.2v-2.9c0-0.5,0.2-0.9,0.5-1.2
			c0.3-0.3,0.7-0.5,1.2-0.5h0.1c0,0,0.1,0,0.1-0.1c0,0,0-0.1,0-0.1c-1.1-1-2.6-2.1-4.3-3.2c-0.4-0.2-0.6-0.6-0.6-1.1
			c0-0.4,0.1-0.7,0.4-1c3.5-3.4,5.8-8.6,6.9-15.8c0.1-0.5,0.3-0.9,0.7-1.2c0.3-0.2,0.7-0.3,1.1-0.3c0.1,0,0.1,0,0.2,0l4,0.5
			c0.4,0.1,0.8,0.3,1.1,0.7c0.3,0.4,0.4,0.8,0.3,1.2c-0.1,0.4-0.1,0.9-0.2,1.3c0,0.1,0,0.2,0.1,0.2H52c0.4,0,0.8,0.2,1.2,0.5
			c0.3,0.4,0.5,0.8,0.5,1.2c0,0.4-0.1,0.6-0.1,0.9c-0.2,3.8-0.5,6.7-0.9,8.7c-0.4,2-0.9,3.3-1.5,4.1c-1.1,1.2-2.5,1.8-4.4,2.1
			c-1.1,0.1-2.7,0.2-4.7,0.2c0,0-0.1,0-0.1,0c-0.5,0-0.9-0.2-1.2-0.5c-0.4-0.3-0.6-0.7-0.7-1.2c-0.3-1.2-0.6-2.3-1.1-3.4
			c-0.1-0.3-0.1-0.6,0.1-0.9c0.2-0.3,0.5-0.4,0.8-0.4c1.2,0.1,2.4,0.1,3.5,0.1c0.7,0,1.3-0.2,1.8-0.5c0.5-0.5,0.8-1.9,1.1-4.2
			c0-0.1,0-0.2-0.2-0.2h-9.3c-0.1,0-0.2,0.1-0.3,0.2c-1.7,5-3.9,8.9-6.9,11.8c0,0,0,0.1,0,0.1c0,0,0,0.1,0.1,0.1h18
			C47.7,32.8,47.8,32.7,47.9,32.7z M43.8,39.3c0.1-0.1,0.1-0.2-0.1-0.2h-7.4c-0.1,0-0.2,0-0.1,0.1c1,1.4,2.3,2.7,3.8,3.9
			c0.1,0.1,0.2,0.1,0.3,0C41.7,41.9,42.9,40.7,43.8,39.3z"/>
		<path d="M103.9,20.6c0,0.5-0.2,0.9-0.5,1.2c-0.3,0.3-0.7,0.5-1.2,0.5H77.9c-0.2,0-0.3,0.1-0.3,0.2c-0.3,0.6-0.7,1.4-1.3,2.4
			c-0.1,0.1,0,0.2,0.1,0.2h20.4c0.4,0,0.8,0.2,1.2,0.5c0.3,0.3,0.5,0.7,0.5,1.2v22.4c0,1.7-0.2,3.1-0.6,4.1c-0.4,1-1.1,1.7-2.2,2.2
			c-1.5,0.7-3.9,1.1-7.2,1.2h0c-0.4,0-0.9-0.2-1.2-0.5c-0.4-0.3-0.6-0.7-0.7-1.2c-0.3-1.2-0.7-2.4-1.1-3.6c-0.2-0.4-0.1-0.7,0.1-1
			c0.2-0.3,0.5-0.5,0.9-0.4c1.2,0,2.5,0,4,0c0.7,0,1.1-0.3,1.1-0.9v-1.6c0-0.1-0.1-0.2-0.2-0.2H75.5c-0.1,0-0.2,0.1-0.2,0.2v7.3
			c0,0.4-0.2,0.8-0.5,1.2c-0.3,0.3-0.7,0.5-1.2,0.5H70c-0.5,0-0.9-0.2-1.2-0.5c-0.3-0.3-0.5-0.7-0.5-1.2V36.5c0,0,0-0.1,0-0.1
			c0,0-0.1,0-0.1,0c-1.2,1.3-2.6,2.5-4,3.5c-0.4,0.3-0.8,0.4-1.2,0.3c-0.5-0.1-0.9-0.3-1.2-0.7c-0.8-1-1.6-2-2.5-2.9
			c-0.3-0.3-0.4-0.6-0.4-1c0-0.5,0.2-0.9,0.6-1.2c3.9-2.8,7.2-6.9,10.1-12.1c0.1-0.1,0-0.1-0.1-0.1h-8c-0.5,0-0.9-0.2-1.2-0.5
			c-0.3-0.3-0.5-0.7-0.5-1.2v-3.3c0-0.5,0.2-0.9,0.5-1.2c0.3-0.3,0.7-0.5,1.2-0.5h11c0.2,0,0.3-0.1,0.3-0.2c0.4-1.2,0.9-2.5,1.2-3.9
			c0.1-0.5,0.4-0.8,0.8-1.1c0.3-0.2,0.6-0.3,0.9-0.3c0.1,0,0.3,0,0.4,0l4.1,0.9c0.4,0.1,0.8,0.4,1,0.8c0.2,0.4,0.3,0.8,0.1,1.2
			c-0.3,0.8-0.5,1.6-0.8,2.3c-0.1,0.1,0,0.2,0.1,0.2h21.5c0.5,0,0.9,0.2,1.2,0.5c0.3,0.3,0.5,0.7,0.5,1.2V20.6z M91.4,33.4
			c0.2,0,0.2-0.1,0.2-0.2v-1.6c0-0.1-0.1-0.2-0.2-0.2H75.5c-0.1,0-0.2,0.1-0.2,0.2v1.6c0,0.2,0.1,0.2,0.2,0.2H91.4z M75.3,41.2
			c0,0.2,0.1,0.2,0.2,0.2h15.8c0.2,0,0.2-0.1,0.2-0.2v-1.7c0-0.1-0.1-0.2-0.2-0.2H75.5c-0.1,0-0.2,0.1-0.2,0.2V41.2z"/>
		<path d="M151.3,12c0.5,0,0.9,0.2,1.2,0.5c0.3,0.3,0.5,0.7,0.5,1.2v36.2c0,1.6-0.2,2.8-0.5,3.6c-0.4,0.8-1,1.5-1.8,2
			c-1.3,0.7-3.4,1-6.3,1.1c-0.5,0-0.9-0.2-1.3-0.5c-0.4-0.3-0.6-0.7-0.7-1.2c-0.2-0.9-0.5-1.8-0.9-2.7c-0.1-0.4-0.1-0.7,0.1-1.1
			c0.2-0.3,0.5-0.5,0.9-0.4c0.9,0,2,0,3.1,0c0.4,0,0.6-0.1,0.7-0.2c0.1-0.1,0.2-0.4,0.2-0.7V18.3c0-0.2-0.1-0.2-0.2-0.2h-13.8
			c-0.1,0-0.2,0.1-0.2,0.2V55c0,0.5-0.2,0.9-0.5,1.2c-0.3,0.3-0.7,0.5-1.2,0.5h-2.9c-0.5,0-0.9-0.2-1.2-0.5
			c-0.3-0.3-0.5-0.7-0.5-1.2v-6.7c0-0.2-0.1-0.2-0.2-0.1l-2,0.7c-0.4,0.1-0.8,0.1-1.2-0.2c-0.4-0.2-0.6-0.6-0.6-1
			c-0.3-2-0.8-4-1.5-5.9h0v13.1c0,0.4-0.2,0.8-0.5,1.2c-0.3,0.3-0.7,0.5-1.2,0.5H116c-0.4,0-0.8-0.2-1.2-0.5
			c-0.3-0.3-0.5-0.7-0.5-1.2v-13h0c-0.4,3.7-1.1,6.9-2,9.6c-0.1,0.4-0.4,0.7-0.8,0.9c-0.4,0.2-0.8,0.1-1.2-0.1
			c-0.6-0.3-1.3-0.6-2.1-1c-0.4-0.2-0.7-0.5-0.9-0.9c-0.1-0.3-0.1-0.5-0.1-0.8c0-0.2,0-0.4,0.1-0.6c0.6-2,1.1-4.7,1.4-8.1
			c0.1-0.4,0.3-0.8,0.6-1.1c0.4-0.3,0.8-0.4,1.2-0.3l3.6,0.6c0.2,0,0.2-0.1,0.2-0.2v-2.8c0-0.1-0.1-0.2-0.2-0.2l-4.5,0.4
			c-0.5,0-0.9-0.1-1.3-0.4c-0.4-0.3-0.6-0.7-0.6-1.1l-0.3-2.7c-0.1-0.4,0-0.8,0.3-1.2c0.3-0.4,0.7-0.5,1.2-0.6l1.8-0.1
			c0.1,0,0.2-0.1,0.3-0.2c0.1-0.1,0.3-0.4,0.6-0.9c0.3-0.5,0.6-0.8,0.7-1.1c0.1-0.1,0.1-0.2,0-0.3c-1-1.6-2.3-3.3-4.1-5.3
			c-0.3-0.4-0.5-0.8-0.5-1.3c0-0.5,0.1-1,0.4-1.4l1.8-2.6c0.2-0.2,0.4-0.4,0.7-0.4c0.3,0,0.5,0.1,0.7,0.3c0.1,0,0.2,0,0.2,0
			c1-2.1,1.8-4.3,2.5-6.4c0.2-0.4,0.4-0.8,0.9-1c0.2-0.1,0.5-0.2,0.7-0.2c0.2,0,0.4,0,0.6,0.1l2.9,1c0.4,0.2,0.7,0.4,0.9,0.9
			c0.2,0.4,0.1,0.8,0,1.2c-2,3.8-3.5,6.6-4.6,8.4c-0.1,0.1-0.1,0.2,0,0.3c0.2,0.2,0.4,0.5,0.7,0.8c0,0.1,0.1,0.1,0.1,0.1
			c0,0,0.1,0,0.1-0.1c1.2-2,2.3-3.9,3.2-5.7c0.2-0.4,0.6-0.7,1-0.9c0.4-0.2,0.9-0.1,1.3,0l2.6,1.2c0.4,0.2,0.7,0.5,0.8,0.9
			c0.1,0.4,0.1,0.8-0.2,1.2c-1.8,2.7-3.5,5.1-5.3,7.5c0,0,0,0.1,0,0.1c0,0,0,0,0.1,0l2.2-0.9c0.4-0.2,0.9-0.2,1.3,0
			c0.4,0.2,0.8,0.5,1,0.9c0.5,1,1,2.1,1.5,3.3c0.1,0,0.1,0,0.1,0V13.7c0-0.5,0.2-0.9,0.5-1.2c0.3-0.3,0.7-0.5,1.2-0.5H151.3z
			 M117.3,30.6C117.3,30.7,117.3,30.7,117.3,30.6c0,0.1,0.1,0.1,0.1,0.1l2.3-0.1c0.2,0,0.2-0.1,0.1-0.2c-0.5-1.1-0.8-1.7-0.8-1.7
			c0,0-0.1-0.1-0.1-0.1c0,0-0.1,0-0.1,0C118.2,29.5,117.6,30.2,117.3,30.6z M120.4,40.3c0,0.1,0.1,0.2,0.2,0.1l2.7-0.9
			c0.5-0.1,0.9-0.1,1.4,0.1c0.4,0.2,0.7,0.5,0.9,1c0.1,0.4,0.2,0.7,0.3,1h0.1v-4.1c0-0.1-0.1-0.2-0.2-0.1l-1.8,0.8
			c-0.4,0.2-0.8,0.2-1.2,0c-0.4-0.2-0.6-0.5-0.7-0.9c0-0.1-0.1-0.2-0.1-0.4c0-0.2-0.1-0.3-0.1-0.3c0-0.2-0.1-0.2-0.3-0.2l-1.1,0.1
			c-0.1,0-0.2,0.1-0.2,0.2V40.3z M142.9,49.4H141c-2.6,0-4.3-0.5-5.2-1.5c-0.9-1-1.3-2.9-1.3-5.6v-2.7c0-0.1,0-0.1-0.1-0.1
			c-0.3,0-0.6-0.1-0.8-0.3c-0.2-0.2-0.4-0.5-0.4-0.9v-2.3c0-0.5,0.2-0.9,0.5-1.2c0.3-0.3,0.7-0.5,1.2-0.5h1.3c0.2,0,0.2-0.1,0.2-0.2
			v-2.7c0-0.1-0.1-0.2-0.2-0.2h-1.3c-0.5,0-0.9-0.2-1.2-0.5c-0.3-0.3-0.5-0.7-0.5-1.2V27c0-0.3,0.1-0.6,0.4-0.8
			c0.2-0.2,0.5-0.4,0.8-0.4c0.1,0,0.1,0,0.1-0.1c-0.1-1.1-0.4-2.4-0.8-3.7c-0.2-0.4-0.1-0.9,0.1-1.3c0.2-0.4,0.5-0.7,1-0.9l0.9-0.3
			c0.4-0.2,0.9-0.1,1.3,0.1c0.4,0.2,0.8,0.5,0.9,1c0.3,0.9,0.6,1.8,0.8,2.7c0.1,0.5,0,0.9-0.2,1.4c-0.3,0.4-0.6,0.7-1.1,0.9
			l-0.8,0.3c0,0,0,0,0,0h4.9c0,0,0,0,0,0l-0.2-0.1c-0.4-0.2-0.8-0.4-1-0.9c-0.2-0.4-0.3-0.8-0.1-1.3c0.3-1.1,0.5-2.1,0.7-3.2
			c0.1-0.4,0.3-0.8,0.7-1.1c0.4-0.3,0.8-0.3,1.2-0.2l2,0.6c0.4,0.1,0.8,0.4,0.9,0.8c0.2,0.4,0.2,0.8,0,1.2c-0.3,0.5-0.6,1.3-1,2.3
			c-0.4,1-0.7,1.5-0.7,1.7c-0.1,0.1,0,0.1,0.1,0.1c0.4,0,0.8,0.1,1,0.4c0.3,0.3,0.4,0.6,0.4,1v2.1c0,0.5-0.2,0.9-0.5,1.2
			c-0.3,0.3-0.7,0.5-1.2,0.5h-1.3c-0.1,0-0.2,0.1-0.2,0.2V34c0,0.1,0.1,0.2,0.2,0.2h1.3c0.4,0,0.8,0.2,1.2,0.5
			c0.3,0.3,0.5,0.7,0.5,1.2v1.8c0,0.5-0.2,0.9-0.5,1.2c-0.3,0.3-0.7,0.5-1.2,0.5h-3.3c-0.1,0-0.2,0.1-0.2,0.2v2.7c0,0.6,0,1,0.1,1.2
			c0.1,0.2,0.2,0.3,0.4,0.3h1.9c0.2,0,0.5,0,0.7,0c0.4,0,0.9,0.1,1.2,0.4c0.4,0.3,0.6,0.6,0.6,1.1c0,0.8,0.1,1.5,0.1,2.1
			c0,0.5-0.1,1-0.4,1.4c-0.3,0.4-0.6,0.6-1.1,0.7C143.8,49.4,143.4,49.4,142.9,49.4z"/>
		<path d="M195.5,14.4c0.3,0,0.5,0,0.7,0c0.5,0,0.9,0.1,1.4,0.3l2,0.8c0.4,0.2,0.8,0.5,1,0.9c0.2,0.4,0.2,0.9,0.1,1.4
			c-1.3,4.3-3.3,8.1-5.9,11.4c-0.1,0.1-0.1,0.2,0,0.3c2.4,1.7,5,3,7.7,3.9c0.4,0.1,0.6,0.4,0.7,0.7c0,0.1,0,0.2,0,0.3
			c0,0.3-0.1,0.5-0.2,0.7c-0.9,1.1-1.7,2.2-2.5,3.4c-0.1,0.1-0.1,0.2-0.1,0.4v15.7c0,0.4-0.2,0.8-0.5,1.2c-0.3,0.3-0.7,0.5-1.2,0.5
			h-3.9c-0.4,0-0.6-0.1-0.9-0.4c-0.2-0.2-0.4-0.5-0.4-0.9c0-0.1-0.1-0.2-0.2-0.2h-7.1c-0.1,0-0.2,0.1-0.2,0.2c0,0.4-0.1,0.7-0.4,1
			c-0.3,0.3-0.6,0.4-1,0.4h-3.5c-0.4,0-0.8-0.2-1.2-0.5c-0.3-0.3-0.5-0.7-0.5-1.2V40.6c-0.1,0-0.1,0-0.1,0c-0.5-1-1.3-2.2-2.3-3.5
			c0,0,0,0,0,0c0,0,0,0,0,0.1v1c0,0.4-0.2,0.8-0.5,1.2c-0.3,0.3-0.7,0.5-1.2,0.5h-3c-0.2,0-0.2,0.1-0.2,0.2v4.8
			c0,0.2,0.1,0.2,0.2,0.2c1.5-0.4,2.7-0.6,3.5-0.8c0.4-0.1,0.9,0,1.2,0.2c0.4,0.3,0.6,0.6,0.6,1.1l0.3,2.9c0.1,0.5,0,0.9-0.3,1.3
			c-0.3,0.4-0.7,0.7-1.1,0.8c-5.1,1.2-10.9,2.6-17.3,4c-0.4,0.1-0.9,0-1.3-0.2c-0.4-0.3-0.6-0.6-0.7-1.1l-0.6-3.5c0-0.1,0-0.2,0-0.3
			c0-0.4,0.1-0.7,0.3-1c0.3-0.4,0.7-0.6,1.1-0.7h0.1c0.1,0,0.2-0.1,0.2-0.2V33.2c0-0.5,0.2-0.9,0.5-1.2c0.3-0.3,0.7-0.5,1.2-0.5h2.3
			c0.4,0,0.8,0.2,1.2,0.5c0.3,0.3,0.5,0.7,0.5,1.2v13.3c0,0.1,0.1,0.2,0.2,0.2l1.2-0.3c0.1,0,0.2-0.1,0.2-0.2V28.9
			c0-0.1-0.1-0.2-0.2-0.2h-4.9c-0.4,0-0.8-0.2-1.2-0.5c-0.3-0.3-0.5-0.7-0.5-1.2V13.4c0-0.5,0.2-0.9,0.5-1.2
			c0.3-0.3,0.7-0.5,1.2-0.5h14.2c0.5,0,0.9,0.2,1.2,0.5c0.3,0.3,0.5,0.7,0.5,1.2v9.8c0,0,0,0.1,0.1,0.1c0,0,0.1,0,0.1,0
			c3-3.1,5.4-7,7-11.7c0.2-0.4,0.4-0.8,0.9-1c0.3-0.2,0.6-0.2,0.9-0.2c0.2,0,0.3,0,0.5,0l3.5,0.9c0.4,0.1,0.8,0.3,1,0.7
			c0.2,0.4,0.3,0.8,0.1,1.3c-0.1,0.4-0.3,0.7-0.4,1c-0.1,0.2,0,0.2,0.1,0.2h5.1C195.4,14.4,195.5,14.4,195.5,14.4z M165.3,17.7
			c-0.1,0-0.2,0.1-0.2,0.2v4.5c0,0.2,0.1,0.2,0.2,0.2h4.5c0.1,0,0.2-0.1,0.2-0.2v-4.5c0-0.2-0.1-0.2-0.2-0.2H165.3z M176.1,33.7
			c0.3,0,0.5,0.1,0.7,0.3c0.2,0.2,0.3,0.4,0.3,0.6c0,0.1,0,0.1,0.1,0.1c2.9-1.2,5.7-3,8.1-5.1c0.1-0.1,0.1-0.2,0-0.3
			c-0.7-0.9-1.3-1.8-1.9-2.7c-0.1-0.1-0.1-0.1-0.2,0c-0.2,0.3-0.5,0.6-0.7,0.9c-0.3,0.4-0.7,0.5-1.2,0.5c-0.5,0-0.9-0.2-1.2-0.5
			c-1.1-1-2.2-2-3.4-2.8c-0.1-0.1-0.2,0-0.2,0.1V27c0,0.5-0.2,0.9-0.5,1.2c-0.3,0.3-0.7,0.5-1.2,0.5h-2.5c-0.2,0-0.2,0.1-0.2,0.2
			v4.6c0,0.1,0.1,0.2,0.2,0.2H176.1z M184.9,37.9C184.9,37.9,184.8,37.9,184.9,37.9C184.9,38,184.9,38,184.9,37.9l10.4,0.1
			c0,0,0,0,0-0.1c-1.6-0.9-3.4-2.1-5.2-3.5c-0.1-0.1-0.2-0.1-0.3,0C188.3,35.7,186.6,36.9,184.9,37.9z M186.1,48.6
			c0,0.1,0.1,0.2,0.2,0.2h7.1c0.2,0,0.2-0.1,0.2-0.2v-4.4c0-0.2-0.1-0.2-0.2-0.2h-7.1c-0.1,0-0.2,0.1-0.2,0.2V48.6z M192.3,20.6
			c0.1-0.1,0-0.2-0.1-0.2h-4.7c-0.1,0-0.2,0-0.3,0.1l-0.1,0.2c-0.1,0.1-0.1,0.3,0,0.4c0.7,1.2,1.5,2.3,2.5,3.5
			c0.1,0.1,0.2,0.1,0.2,0C190.7,23.3,191.6,22,192.3,20.6z"/>
		<path d="M220.2,37c-0.1,0.5-0.3,0.9-0.6,1.2c-0.3,0.3-0.7,0.5-1.2,0.5h-4.3c-0.5,0-0.9-0.2-1.2-0.5c-0.4-0.3-0.5-0.7-0.5-1.2
			c0.1-1.2,0.3-2.3,0.7-3.5c0.4-1.1,0.9-2.1,1.5-2.9c0.6-0.8,1.2-1.7,1.8-2.4c0.6-0.8,1.1-1.5,1.5-2.3c0.4-0.8,0.6-1.5,0.6-2.3
			c0-1-0.2-1.7-0.7-2.3c-0.5-0.5-1.1-0.8-1.9-0.8c-1,0-2,0.4-2.9,1.3c-0.4,0.3-0.8,0.5-1.2,0.5c-0.5,0-0.9-0.1-1.2-0.4l-2.3-2.1
			c-0.4-0.4-0.6-0.8-0.6-1.3c0-0.4,0.2-0.8,0.5-1.1c2.6-2.6,5.5-3.9,8.8-3.9c2.9,0,5.3,0.8,7.2,2.4c1.8,1.6,2.8,3.9,2.8,7
			c0,1.2-0.2,2.4-0.6,3.5c-0.4,1.1-0.9,2.1-1.6,2.9c-0.6,0.8-1.2,1.7-1.9,2.4c-0.6,0.8-1.2,1.6-1.7,2.6
			C220.6,35.1,220.3,36,220.2,37z M220.1,51c-1,1-2.3,1.5-3.8,1.5c-1.5,0-2.8-0.5-3.8-1.5c-1-1-1.5-2.3-1.5-3.9
			c0-1.5,0.5-2.8,1.5-3.9c1-1,2.3-1.6,3.8-1.6c1.5,0,2.8,0.5,3.8,1.6c1,1,1.5,2.3,1.5,3.9C221.6,48.7,221.1,50,220.1,51z"/>
		<path d="M242,27.2c0.4,0.3,0.6,0.6,0.7,1.1c0.1,0.5,0,0.9-0.3,1.3l-2.1,3.1c-0.3,0.4-0.6,0.6-1.1,0.7c-0.4,0.1-0.9,0-1.2-0.3
			c-1.7-1.2-3.8-2.4-6.3-3.6c-0.4-0.2-0.7-0.5-0.8-0.9c-0.1-0.1-0.1-0.3-0.1-0.4c0-0.3,0.1-0.6,0.3-0.8l1.8-2.5
			c0.3-0.4,0.7-0.7,1.2-0.8c0.5-0.1,0.9-0.1,1.4,0.1C238,24.9,240.2,26,242,27.2z M240.1,37.6c0.2-0.4,0.5-0.6,0.9-0.7
			c0.4-0.1,0.8,0,1.2,0.3l2.8,2.4c0.4,0.4,0.6,0.8,0.7,1.2c0.1,0.5,0.1,0.9-0.2,1.4c-2,4.1-4.2,8.2-6.6,12.3c-0.2,0.4-0.6,0.6-1,0.7
			c-0.4,0.1-0.8,0-1.2-0.2l-3.4-2.6c-0.4-0.3-0.6-0.7-0.7-1.2c0-0.1,0-0.2,0-0.3c0-0.4,0.1-0.7,0.3-1
			C235.4,46.1,237.8,41.9,240.1,37.6z M245.1,14c0.4,0.3,0.6,0.6,0.7,1.1c0.1,0.5,0,0.9-0.3,1.3l-2.2,3c-0.3,0.4-0.6,0.6-1.1,0.6
			c-0.5,0.1-0.9,0-1.2-0.3c-1.7-1.2-3.8-2.5-6.2-3.7c-0.4-0.2-0.6-0.5-0.7-0.9c-0.1-0.4,0-0.8,0.2-1.2l1.9-2.5
			c0.3-0.4,0.7-0.7,1.2-0.8c0.5-0.1,1-0.1,1.4,0C241.3,11.7,243.4,12.8,245.1,14z M268.8,32.7c0.3-0.1,0.5-0.1,0.8-0.1
			c0.5,0,1,0.1,1.4,0.3l2.1,0.8c0.4,0.2,0.8,0.5,1,0.9c0.2,0.4,0.2,0.9,0.1,1.3c-1.5,4.3-3.6,7.9-6.5,10.9c-0.1,0.1-0.1,0.2,0,0.2
			c2.6,1.1,5.3,2,8.3,2.6c0.4,0.1,0.6,0.3,0.7,0.7c0.1,0.1,0.1,0.2,0.1,0.3c0,0.2-0.1,0.4-0.2,0.6c-1,1.1-1.9,2.4-2.7,3.8
			c-0.3,0.4-0.6,0.7-1.1,0.9c-0.5,0.2-0.9,0.2-1.4,0.1c-3.7-1-7-2.4-9.9-4.2c-0.1-0.1-0.3-0.1-0.4,0c-3.3,1.9-7.3,3.3-12,4.4
			c-0.2,0-0.3,0-0.5,0c-0.3,0-0.6-0.1-0.9-0.2c-0.4-0.2-0.7-0.6-1-1.1c-0.6-1.2-1.2-2.4-1.9-3.5c-0.1-0.2-0.2-0.4-0.2-0.6
			c0-0.2,0-0.3,0.1-0.4c0.1-0.4,0.4-0.6,0.8-0.7c3.5-0.6,6.7-1.6,9.5-2.8c0.1,0,0.1-0.1,0-0.2c-1.4-1.4-2.7-3-3.9-4.7
			c-0.3-0.4-0.3-0.7-0.2-1.2c0.1-0.4,0.4-0.7,0.8-0.8l2.7-1c0,0,0,0,0,0c0,0,0,0,0,0h-5.1c-0.5,0-0.9-0.2-1.2-0.5
			c-0.3-0.3-0.5-0.7-0.5-1.2v-2.9c0-0.5,0.2-0.9,0.5-1.2c0.3-0.3,0.7-0.5,1.2-0.5h0.1c0,0,0.1,0,0.1-0.1c0,0,0-0.1,0-0.1
			c-1.1-1-2.6-2.1-4.3-3.2c-0.4-0.2-0.6-0.6-0.6-1.1c0-0.4,0.1-0.7,0.4-1c3.5-3.4,5.8-8.6,6.9-15.8c0.1-0.5,0.3-0.9,0.7-1.2
			c0.3-0.2,0.7-0.3,1.1-0.3c0.1,0,0.1,0,0.2,0l4,0.5c0.4,0.1,0.8,0.3,1.1,0.7c0.3,0.4,0.4,0.8,0.3,1.2c-0.1,0.4-0.1,0.9-0.2,1.3
			c0,0.1,0,0.2,0.1,0.2h13.6c0.4,0,0.8,0.2,1.2,0.5c0.3,0.4,0.5,0.8,0.5,1.2c0,0.4-0.1,0.6-0.1,0.9c-0.2,3.8-0.5,6.7-0.9,8.7
			c-0.4,2-0.9,3.3-1.5,4.1c-1.1,1.2-2.5,1.8-4.4,2.1c-1.1,0.1-2.7,0.2-4.7,0.2c0,0-0.1,0-0.1,0c-0.5,0-0.9-0.2-1.2-0.5
			c-0.4-0.3-0.6-0.7-0.7-1.2c-0.3-1.2-0.6-2.3-1.1-3.4c-0.1-0.3-0.1-0.6,0.1-0.9c0.2-0.3,0.5-0.4,0.8-0.4c1.2,0.1,2.4,0.1,3.5,0.1
			c0.7,0,1.3-0.2,1.8-0.5c0.5-0.5,0.8-1.9,1.1-4.2c0-0.1,0-0.2-0.2-0.2h-9.3c-0.1,0-0.2,0.1-0.3,0.2c-1.7,5-3.9,8.9-6.9,11.8
			c0,0,0,0.1,0,0.1c0,0,0,0.1,0.1,0.1h18C268.6,32.8,268.7,32.7,268.8,32.7z M264.7,39.3c0.1-0.1,0.1-0.2-0.1-0.2h-7.4
			c-0.1,0-0.2,0-0.1,0.1c1,1.4,2.3,2.7,3.8,3.9c0.1,0.1,0.2,0.1,0.3,0C262.6,41.9,263.8,40.7,264.7,39.3z"/>
		<path d="M301.2,29c0,0.5-0.2,0.9-0.5,1.2c-0.3,0.3-0.7,0.5-1.2,0.5H289c-0.2,0-0.2,0.1-0.2,0.2v24c0,0.4-0.2,0.8-0.5,1.2
			c-0.3,0.3-0.7,0.5-1.2,0.5h-3.7c-0.4,0-0.8-0.2-1.2-0.5c-0.3-0.3-0.5-0.7-0.5-1.2V13.4c0-0.5,0.2-0.9,0.5-1.2
			c0.3-0.3,0.7-0.5,1.2-0.5h16.2c0.5,0,0.9,0.2,1.2,0.5c0.3,0.3,0.5,0.7,0.5,1.2V29z M294.6,17.3c0-0.1-0.1-0.2-0.2-0.2H289
			c-0.2,0-0.2,0.1-0.2,0.2v1.3c0,0.2,0.1,0.2,0.2,0.2h5.4c0.1,0,0.2-0.1,0.2-0.2V17.3z M288.8,25.2c0,0.1,0.1,0.2,0.2,0.2h5.4
			c0.1,0,0.2-0.1,0.2-0.2v-1.4c0-0.2-0.1-0.2-0.2-0.2H289c-0.2,0-0.2,0.1-0.2,0.2V25.2z M322.3,11.7c0.5,0,0.9,0.2,1.2,0.5
			c0.3,0.3,0.5,0.7,0.5,1.2v34.9c0,1.9-0.2,3.4-0.6,4.5c-0.4,1.1-1.2,1.9-2.3,2.5c-1.6,0.8-4.4,1.3-8.4,1.3h0
			c-0.5,0-0.9-0.2-1.2-0.5c-0.4-0.3-0.6-0.7-0.8-1.2c-0.4-1.9-1.1-3.5-1.8-5.1c-0.1-0.1-0.2-0.2-0.3-0.2h-8.7
			c-0.2,0-0.2,0.1-0.2,0.2v0.8c0,0.4-0.2,0.8-0.5,1.2c-0.3,0.3-0.7,0.5-1.2,0.5h-3.2c-0.5,0-0.9-0.2-1.2-0.5
			c-0.3-0.3-0.5-0.7-0.5-1.2V35.3c0-0.5,0.2-0.9,0.5-1.2c0.3-0.3,0.7-0.5,1.2-0.5h16.1c0.5,0,0.9,0.2,1.2,0.5
			c0.3,0.3,0.5,0.7,0.5,1.2v14c0,0.2,0.1,0.2,0.2,0.2h3c0.5,0,0.8-0.1,1-0.3c0.2-0.2,0.3-0.5,0.3-1V31c0-0.1-0.1-0.2-0.2-0.2h-10.9
			c-0.5,0-0.9-0.2-1.2-0.5c-0.3-0.3-0.5-0.7-0.5-1.2V13.4c0-0.5,0.2-0.9,0.5-1.2c0.3-0.3,0.7-0.5,1.2-0.5H322.3z M305.4,43.8
			c0.1,0,0.2-0.1,0.2-0.2v-4.1c0-0.1-0.1-0.2-0.2-0.2h-5.8c-0.2,0-0.2,0.1-0.2,0.2v4.1c0,0.1,0.1,0.2,0.2,0.2H305.4z M316.8,17.2
			c0-0.1-0.1-0.2-0.2-0.2h-5.6c-0.1,0-0.2,0.1-0.2,0.2v1.4c0,0.2,0.1,0.2,0.2,0.2h5.6c0.2,0,0.2-0.1,0.2-0.2V17.2z M310.7,25.3
			c0,0.1,0.1,0.2,0.2,0.2h5.6c0.2,0,0.2-0.1,0.2-0.2v-1.5c0-0.2-0.1-0.2-0.2-0.2h-5.6c-0.1,0-0.2,0.1-0.2,0.2V25.3z"/>
		<path d="M374.1,46c0.3,0.3,0.4,0.7,0.4,1.1c-0.1,0.4-0.3,0.8-0.7,1l-3.2,1.9c0,0,0,0,0,0c0,0,0,0,0.1,0c1.3,0,2.4-0.1,3.2-0.1
			c0.4,0,0.7,0.2,0.8,0.5c0.1,0.2,0.2,0.3,0.2,0.5c0,0.1,0,0.3-0.1,0.4c-0.4,0.8-0.7,1.7-1,2.7c-0.1,0.5-0.4,0.9-0.8,1.2
			c-0.4,0.3-0.8,0.5-1.3,0.5h-19c-4.6,0-8.2-0.4-10.9-1.1c-2.7-0.7-4.9-2.1-6.6-4.2c0,0-0.1,0-0.1,0c0,0-0.1,0-0.1,0.1
			c-0.6,2-1.3,3.7-2.3,5.2c-0.2,0.3-0.5,0.5-0.9,0.5c0,0-0.1,0-0.1,0c-0.4,0-0.7-0.2-1-0.5c-0.6-0.9-1.2-1.6-1.9-2.3
			c-0.3-0.4-0.5-0.8-0.6-1.2c0-0.1,0-0.1,0-0.2c0-0.4,0.1-0.7,0.3-1.1c1.2-2.3,1.9-6.1,2.1-11.5c0-0.4,0.2-0.8,0.5-1.2
			c0.3-0.3,0.7-0.5,1.2-0.5h2.3c0.5,0,0.9,0.2,1.2,0.5c0.3,0.3,0.5,0.7,0.4,1.2c0,1.3-0.1,2.5-0.1,3.4c0,0.2,0,0.3,0,0.4
			c0.4,1,1,2,1.6,2.9c0.1,0,0.1,0,0.1,0v-9.6c0-0.2-0.1-0.2-0.2-0.2h-6.9c-0.4,0-0.8-0.2-1.2-0.5c-0.3-0.3-0.5-0.7-0.5-1.2v-1.7
			c0-0.4,0.2-0.8,0.5-1.2c0.3-0.3,0.7-0.5,1.2-0.5h18.7c0.5,0,0.9,0.2,1.2,0.5c0.3,0.3,0.5,0.7,0.5,1.2v1.7c0,0.4-0.2,0.8-0.5,1.2
			c-0.3,0.3-0.7,0.5-1.2,0.5h-5.5c-0.2,0-0.2,0.1-0.2,0.2V39c0,0.2,0.1,0.2,0.2,0.2h4.6c0.5,0,0.9,0.2,1.2,0.5
			c0.3,0.3,0.5,0.7,0.5,1.2v1.7c0,0.4-0.2,0.8-0.5,1.2c-0.3,0.3-0.7,0.5-1.2,0.5h-4.6c-0.2,0-0.2,0.1-0.2,0.2v4.7
			c0,0.2,0.1,0.3,0.2,0.3c2,0.4,4.9,0.6,8.5,0.6h0.4c0,0,0.1,0,0.1,0c0,0,0-0.1,0-0.1c-0.9-0.9-1.8-1.7-2.6-2.4
			c-0.3-0.2-0.4-0.5-0.4-0.9c0-0.4,0.2-0.7,0.6-0.8c1.8-0.9,3.3-1.9,4.6-3.1c0.6-0.5,1.3-0.8,2-0.8c0.3,0,0.5,0,0.8,0.1l2.5,0.8
			c0.4,0.1,0.7,0.4,0.8,0.8c0.1,0.4,0,0.7-0.2,1c-1.8,2-3.9,3.8-6.5,5.4c0,0,0,0,0,0c0,0,0,0,0.1,0c6.7,0,11.7,0,15.1-0.1
			c0.2,0,0.2,0,0.1-0.1c-1.4-1.8-3.1-3.5-5.2-5.2c-0.3-0.3-0.4-0.6-0.4-1c0-0.4,0.2-0.7,0.6-0.8l2.4-1.2c0-0.1,0-0.1,0-0.1h-13.1
			c-0.5,0-0.9-0.2-1.2-0.5c-0.3-0.3-0.5-0.7-0.5-1.2V20.3c0-0.4,0.2-0.8,0.5-1.2c0.3-0.3,0.7-0.5,1.2-0.5h4.5c0.2,0,0.3-0.1,0.3-0.2
			l0.4-1.5c0.1-0.1,0-0.2-0.1-0.2h-6.4c-0.4,0-0.8-0.2-1.2-0.5c-0.3-0.3-0.5-0.7-0.5-1.2v-1.5c0-0.5,0.2-0.9,0.5-1.2
			c0.3-0.3,0.7-0.5,1.2-0.5h19.4c0.5,0,0.9,0.2,1.2,0.5c0.3,0.3,0.5,0.7,0.5,1.2V15c0,0.5-0.2,0.9-0.5,1.2c-0.3,0.3-0.7,0.5-1.2,0.5
			h-6.2c-0.1,0-0.2,0.1-0.3,0.2l-0.8,1.5c-0.1,0.1,0,0.2,0.1,0.2h5.9c0.5,0,0.9,0.2,1.2,0.5c0.3,0.3,0.5,0.7,0.5,1.2v19.5
			c0,0.5-0.2,0.9-0.5,1.2c-0.3,0.3-0.7,0.5-1.2,0.5h-2c0,0-0.1,0-0.1,0c0,0,0,0.1,0,0.1C370.9,43,372.6,44.4,374.1,46z M347.8,11.8
			c0.5,0,0.9,0.2,1.2,0.5c0.3,0.3,0.5,0.7,0.5,1.2v13.4c0,0.5-0.2,0.9-0.5,1.2c-0.3,0.3-0.7,0.5-1.2,0.5h-15c-0.4,0-0.8-0.2-1.2-0.5
			c-0.3-0.3-0.5-0.7-0.5-1.2V13.5c0-0.5,0.2-0.9,0.5-1.2c0.3-0.3,0.7-0.5,1.2-0.5H347.8z M342.7,17.9c0.2,0,0.2-0.1,0.2-0.2v-1.1
			c0-0.1-0.1-0.2-0.2-0.2h-5.1c-0.1,0-0.2,0.1-0.2,0.2v1.1c0,0.1,0.1,0.2,0.2,0.2H342.7z M342.7,23.9c0.2,0,0.2-0.1,0.2-0.2v-1.2
			c0-0.1-0.1-0.2-0.2-0.2h-5.1c-0.1,0-0.2,0.1-0.2,0.2v1.2c0,0.1,0.1,0.2,0.2,0.2H342.7z M366,24.9c0.1,0,0.2-0.1,0.2-0.2v-1.1
			c0-0.2-0.1-0.2-0.2-0.2h-7c-0.2,0-0.2,0.1-0.2,0.2v1.1c0,0.2,0.1,0.2,0.2,0.2H366z M366,30.8c0.1,0,0.2-0.1,0.2-0.2v-1.1
			c0-0.1-0.1-0.2-0.2-0.2h-7c-0.2,0-0.2,0.1-0.2,0.2v1.1c0,0.2,0.1,0.2,0.2,0.2H366z M366,36.8c0.1,0,0.2-0.1,0.2-0.2v-1.1
			c0-0.1-0.1-0.2-0.2-0.2h-7c-0.2,0-0.2,0.1-0.2,0.2v1.1c0,0.2,0.1,0.2,0.2,0.2H366z"/>
		<path d="M392.4,51c-1,1-2.3,1.5-3.8,1.5c-1.5,0-2.8-0.5-3.8-1.5c-1-1-1.5-2.3-1.5-3.9c0-1.5,0.5-2.8,1.5-3.9c1-1,2.3-1.6,3.8-1.6
			c1.5,0,2.8,0.5,3.8,1.6c1,1,1.5,2.3,1.5,3.9C393.9,48.7,393.4,50,392.4,51z M387.4,38.7c-0.5,0-0.9-0.2-1.2-0.5
			c-0.4-0.3-0.5-0.7-0.6-1.2l-1.1-15.1l-0.2-6c0-0.5,0.2-0.9,0.5-1.2c0.3-0.3,0.7-0.5,1.2-0.5h5.4c0.4,0,0.8,0.2,1.2,0.5
			c0.3,0.3,0.5,0.7,0.5,1.2l-0.2,6L391.6,37c0,0.5-0.2,0.9-0.6,1.2c-0.4,0.3-0.8,0.5-1.2,0.5H387.4z"/>
		<path d="M416.9,51c-1,1-2.3,1.5-3.8,1.5c-1.5,0-2.8-0.5-3.8-1.5c-1-1-1.5-2.3-1.5-3.9c0-1.5,0.5-2.8,1.5-3.9c1-1,2.3-1.6,3.8-1.6
			c1.5,0,2.8,0.5,3.8,1.6c1,1,1.5,2.3,1.5,3.9C418.4,48.7,417.9,50,416.9,51z M412,38.7c-0.5,0-0.9-0.2-1.2-0.5
			c-0.4-0.3-0.5-0.7-0.6-1.2L409,21.9l-0.2-6c0-0.5,0.2-0.9,0.5-1.2c0.3-0.3,0.7-0.5,1.2-0.5h5.4c0.4,0,0.8,0.2,1.2,0.5
			c0.3,0.3,0.5,0.7,0.5,1.2l-0.2,6L416.1,37c0,0.5-0.2,0.9-0.6,1.2c-0.4,0.3-0.8,0.5-1.2,0.5H412z"/>
		<path d="M441.5,51c-1,1-2.3,1.5-3.8,1.5c-1.5,0-2.8-0.5-3.8-1.5c-1-1-1.5-2.3-1.5-3.9c0-1.5,0.5-2.8,1.5-3.9c1-1,2.3-1.6,3.8-1.6
			c1.5,0,2.8,0.5,3.8,1.6c1,1,1.5,2.3,1.5,3.9C443,48.7,442.5,50,441.5,51z M436.5,38.7c-0.5,0-0.9-0.2-1.2-0.5
			c-0.4-0.3-0.5-0.7-0.6-1.2l-1.1-15.1l-0.2-6c0-0.5,0.2-0.9,0.5-1.2c0.3-0.3,0.7-0.5,1.2-0.5h5.4c0.4,0,0.8,0.2,1.2,0.5
			c0.3,0.3,0.5,0.7,0.5,1.2l-0.2,6L440.7,37c0,0.5-0.2,0.9-0.6,1.2c-0.4,0.3-0.8,0.5-1.2,0.5H436.5z"/>
	</g>
</g>
</svg>
