<svg id="圖層_1" data-name="圖層 1" xmlns="http://www.w3.org/2000/svg" viewBox="0 0 612 63.63"><defs><style>.cls-1{fill:#f08b68;}.cls-2{fill:#e4e539;}.cls-3{fill:#e71f19;}</style></defs><title>03_1_1</title><polygon class="cls-1" points="612 8.86 0 0 0 54.72 612 63.63 612 8.86"/><path class="cls-2" d="M49.74,527.13a1,1,0,0,1,.72.29,1,1,0,0,1,.29.69v8a.39.39,0,0,0,.06.23,4.27,4.27,0,0,0,2,1.86,8.73,8.73,0,0,0,3.32.68c1.09.06,2.47.09,4.13.09l2.38,0q4.14-.06,7.24-.28a.54.54,0,0,1,.53.25.66.66,0,0,1,.11.36.91.91,0,0,1,0,.23,18,18,0,0,0-.7,2.15,1.36,1.36,0,0,1-.44.71,1.12,1.12,0,0,1-.76.29c-2.48.12-4.82.17-7,.17-1.94,0-3.77,0-5.48-.11a12.22,12.22,0,0,1-4.12-.78,7.31,7.31,0,0,1-2.87-2.18c0-.08-.11-.09-.17,0-.83.82-1.77,1.68-2.82,2.57a.68.68,0,0,1-.64.17.78.78,0,0,1-.53-.42l-1.09-2.35a1.27,1.27,0,0,1-.09-.47.89.89,0,0,1,.06-.31,1,1,0,0,1,.48-.64q1.14-.73,2.4-1.68a.23.23,0,0,0,.08-.2v-5.36c0-.08,0-.11-.11-.11H44.77a1,1,0,0,1-.69-.3,1,1,0,0,1-.29-.71v-1.84a1,1,0,0,1,.29-.69.94.94,0,0,1,.69-.29Zm1.09-6.66a.89.89,0,0,1,.2.72,1,1,0,0,1-.39.65l-1.85,1.43a.86.86,0,0,1-.72.18.9.9,0,0,1-.62-.4,29.75,29.75,0,0,0-2.93-3.25.81.81,0,0,1,0-1.25l1.6-1.18a1.19,1.19,0,0,1,.75-.25h0a1.29,1.29,0,0,1,.78.31A26.5,26.5,0,0,1,50.83,520.47Zm1.07,5.71a1,1,0,0,1-1-1v-.81a.91.91,0,0,1,.29-.7,1,1,0,0,1,.69-.28H69.28a1,1,0,0,1,.68.28.92.92,0,0,1,.3.7v.81a.94.94,0,0,1-.3.71.91.91,0,0,1-.68.3Zm10.31,11.4a1,1,0,0,1-.29.7,1,1,0,0,1-.69.28h-2a1,1,0,0,1-1-1v-2c0-.07,0-.09-.11-.06a23.66,23.66,0,0,1-4,2.18,1.19,1.19,0,0,1-.83.05,1.24,1.24,0,0,1-.65-.47c-.4-.54-.78-1-1.15-1.48a.67.67,0,0,1,.28-1.06,19.62,19.62,0,0,0,5-2.43,0,0,0,0,0,0-.06l0,0H54.08a.91.91,0,0,1-.7-.3.93.93,0,0,1-.28-.68V527.8a.94.94,0,0,1,.28-.7.93.93,0,0,1,.7-.28H67.21a1,1,0,0,1,.69.28,1,1,0,0,1,.29.7v3.55a.24.24,0,0,0,.11.19l.84.56a.61.61,0,0,1,.27.55.66.66,0,0,1-.3.54c-1,.6-1.72,1-2.21,1.32a.08.08,0,0,0,0,0s0,0,0,0a15.26,15.26,0,0,0,2.46.61.51.51,0,0,1,.41.35.58.58,0,0,1-.1.55,18.34,18.34,0,0,0-1.09,1.51,1.59,1.59,0,0,1-.64.54,1.13,1.13,0,0,1-.81.07A14.57,14.57,0,0,1,62.32,536c-.07-.06-.11,0-.11,0Zm5.87-20.85a.94.94,0,0,1,.68.29,1,1,0,0,1,.3.72v4a1,1,0,0,1-1,1H53.26a.93.93,0,0,1-.68-.3.9.9,0,0,1-.29-.68v-4a1,1,0,0,1,.29-.72,1,1,0,0,1,.68-.29Zm-11.32,3.8c.09,0,.14,0,.14-.11v-1.34c0-.08,0-.11-.14-.11h-.9a.1.1,0,0,0-.11.11v1.34a.1.1,0,0,0,.11.11ZM57,529c-.08,0-.11,0-.11.14v.73A.1.1,0,0,0,57,530h6.9c.09,0,.14,0,.14-.11v-.73a.13.13,0,0,0-.14-.14Zm4-8.47a.1.1,0,0,0,.11-.11v-1.34A.1.1,0,0,0,61,519h-.9c-.09,0-.14,0-.14.11v1.34c0,.07.05.11.14.11Zm4.25,11.74a.14.14,0,0,0,0-.06s0,0,0,0H62.71l0,0a.07.07,0,0,0,0,.06,9.27,9.27,0,0,0,1.15.92.15.15,0,0,0,.2,0A14.9,14.9,0,0,0,65.26,532.27Zm0-11.74c.09,0,.13,0,.13-.11v-1.34c0-.08,0-.11-.13-.11h-.93a.1.1,0,0,0-.11.11v1.34a.1.1,0,0,0,.11.11Z" transform="translate(0 -495.94)"/><path class="cls-2" d="M99,533.83a1,1,0,0,1-.29.69.94.94,0,0,1-.69.29H93.65a.24.24,0,0,0-.19.11,13.51,13.51,0,0,1-2,2.94c0,.06,0,.09,0,.11,2.09.6,3.93,1.17,5.54,1.71a.64.64,0,0,1,.44.46.67.67,0,0,1-.11.65L96,542.58a1.3,1.3,0,0,1-1.51.42q-3.13-1.2-6.79-2.35a.37.37,0,0,0-.23,0q-3.82,1.82-11.82,2.55h-.11a1.22,1.22,0,0,1-.67-.2,1.37,1.37,0,0,1-.48-.67,13.65,13.65,0,0,0-.75-1.73.59.59,0,0,1,.47-.9,47.13,47.13,0,0,0,7.38-.78l0,0s0,0,0,0l-1.23-.3s0,0,0,0a.25.25,0,0,1-.33.11l-2.88-.84a.68.68,0,0,1-.45-.45.73.73,0,0,1,.09-.64c.42-.56.87-1.17,1.34-1.85,0-.07,0-.11-.06-.11H73.53a.94.94,0,0,1-.69-.29,1,1,0,0,1-.29-.69v-1.34a1,1,0,0,1,.29-.71.94.94,0,0,1,.69-.29h6.62a.27.27,0,0,0,.2-.09l.75-1.2c0-.07,0-.11,0-.11H75.26a1,1,0,0,1-.71-.29,1,1,0,0,1-.3-.69v-6.45a1,1,0,0,1,1-1h5c.1,0,.14,0,.14-.11v-.9a.12.12,0,0,0-.14-.14H74a1,1,0,0,1-.71-.29.92.92,0,0,1-.29-.69v-1.59a.94.94,0,0,1,.29-.71,1,1,0,0,1,.71-.29H97.28a1,1,0,0,1,1,1v1.59a1,1,0,0,1-.29.69,1,1,0,0,1-.72.29H90.83a.13.13,0,0,0-.14.14v.9c0,.07,0,.11.14.11h5.7a1,1,0,0,1,1,1v6.45a1,1,0,0,1-.3.69,1,1,0,0,1-.71.29H86a.2.2,0,0,0-.19.11l-.73,1.2c0,.06,0,.09.06.09H98a.94.94,0,0,1,.69.29,1,1,0,0,1,.29.71Zm-20.68-8.94a.1.1,0,0,0-.11.11v1.76c0,.1,0,.14.11.14h2c.1,0,.14,0,.14-.14V525c0-.07,0-.11-.14-.11ZM83,534.81a.24.24,0,0,0-.19.11l-.37.56c0,.08,0,.13.06.14,1.21.28,2.66.65,4.36,1.09a.26.26,0,0,0,.22-.05,8.81,8.81,0,0,0,1.71-1.74c0-.07,0-.11-.06-.11Zm1.43-14.31c-.08,0-.11,0-.11.14v.9a.1.1,0,0,0,.11.11h2.21c.09,0,.14,0,.14-.11v-.9a.13.13,0,0,0-.14-.14Zm-.11,6.26c0,.1,0,.14.11.14h2.21a.12.12,0,0,0,.14-.14V525c0-.07,0-.11-.14-.11H84.43a.1.1,0,0,0-.11.11ZM93.37,525a.1.1,0,0,0-.11-.11H90.83c-.09,0-.14,0-.14.11v1.76a.12.12,0,0,0,.14.14h2.43c.07,0,.11,0,.11-.14Z" transform="translate(0 -495.94)"/><path class="cls-2" d="M125.26,533.42a1,1,0,0,1-.29.71,1,1,0,0,1-.69.29h-7.82a.18.18,0,0,0-.17.11,9.55,9.55,0,0,1-1.7,3.3c-.06.08,0,.12,0,.14a26,26,0,0,0,5.34.73c1.1,0,2.36.08,3.78.08,1.11,0,2.32,0,3.63,0a.48.48,0,0,1,.45.28.52.52,0,0,1,.08.25.63.63,0,0,1-.08.28,10.85,10.85,0,0,0-1,2.32,1.35,1.35,0,0,1-.45.69,1.11,1.11,0,0,1-.75.28,80.07,80.07,0,0,1-8.25-.5,25.05,25.05,0,0,1-6.23-1.51.24.24,0,0,0-.23,0,23.44,23.44,0,0,1-6.37,2.24,1.27,1.27,0,0,1-.28,0,1.45,1.45,0,0,1-.56-.12,1.42,1.42,0,0,1-.61-.58,18,18,0,0,0-1.43-2.07.53.53,0,0,1-.14-.34.31.31,0,0,1,.06-.19.52.52,0,0,1,.42-.37,27.86,27.86,0,0,0,4.67-1.06c.09,0,.1-.08,0-.14a17.34,17.34,0,0,1-1.84-1.9.73.73,0,0,1-.13-.65.7.7,0,0,1,.44-.49l1.76-.7v0s0,0,0,0h-1.79a1,1,0,0,1-.71-.29,1,1,0,0,1-.3-.71V523.16a.92.92,0,0,1,.3-.7,1,1,0,0,1,.71-.28h7.21c.08,0,.11,0,.11-.14v-1a.1.1,0,0,0-.11-.11h-9.61a1,1,0,0,1-.72-.29,1,1,0,0,1-.29-.71v-1.71a1,1,0,0,1,1-1H126.1a1,1,0,0,1,1,1v1.71a1,1,0,0,1-.3.71,1,1,0,0,1-.71.29H117c-.09,0-.14,0-.14.11v1a.13.13,0,0,0,.14.14h7.32a1,1,0,0,1,.69.28,1,1,0,0,1,.29.7Zm-17.1-7.94c-.08,0-.11,0-.11.14v1c0,.08,0,.12.11.12h4.16c.08,0,.11,0,.11-.12v-1c0-.1,0-.14-.11-.14Zm0,4.33c-.08,0-.11.05-.11.14v1c0,.08,0,.12.11.12h4.16c.08,0,.11,0,.11-.12v-1c0-.09,0-.14-.11-.14Zm3.55,4.72c0-.07,0-.11-.09-.11h-3.3a.05.05,0,0,0,0,0s0,0,0,.06a11.35,11.35,0,0,0,2,1.67.14.14,0,0,0,.19,0A6.71,6.71,0,0,0,111.71,534.53Zm9.44-8.91c0-.1,0-.14-.14-.14H117a.12.12,0,0,0-.14.14v1c0,.08.05.12.14.12H121c.1,0,.14,0,.14-.12ZM121,531.1c.1,0,.14,0,.14-.12v-1a.12.12,0,0,0-.14-.14H117a.13.13,0,0,0-.14.14v1c0,.08.05.12.14.12Z" transform="translate(0 -495.94)"/><path class="cls-2" d="M152.32,528.69a2.77,2.77,0,0,1,.42,0,1.74,1.74,0,0,1,.78.2l1.31.64a1,1,0,0,1,.53.59,1.23,1.23,0,0,1,.06.36,1.35,1.35,0,0,1-.08.42,18.52,18.52,0,0,1-3.27,5,17.71,17.71,0,0,1-4.63,3.53,30.48,30.48,0,0,1-5.58,2.31,44.75,44.75,0,0,1-6.59,1.43l-.2,0a1,1,0,0,1-.58-.19,1.36,1.36,0,0,1-.54-.62,13.59,13.59,0,0,0-.92-2,.59.59,0,0,1,0-.59.62.62,0,0,1,.46-.36,36.43,36.43,0,0,0,9.36-2.1c.08,0,.09-.08,0-.14a34.61,34.61,0,0,0-3.3-2.37.22.22,0,0,0-.22,0c-.88.41-1.77.79-2.68,1.15a1.21,1.21,0,0,1-1.43-.51,14,14,0,0,0-1.31-1.67.59.59,0,0,1-.14-.58.57.57,0,0,1,.39-.43,26.65,26.65,0,0,0,9.11-4.75,0,0,0,0,0,0,0,39.37,39.37,0,0,1-10.42,3.6,1.05,1.05,0,0,1-.77-.12,1.46,1.46,0,0,1-.58-.6,14.31,14.31,0,0,0-1-1.79.81.81,0,0,1-.08-.34.74.74,0,0,1,.06-.28A.53.53,0,0,1,131,528a38.52,38.52,0,0,0,7.83-2.12s.06,0,.06,0a.08.08,0,0,0,0-.07,23.48,23.48,0,0,0-2.85-1.88.31.31,0,0,0-.23,0c-.71.34-1.32.62-1.84.84a1.39,1.39,0,0,1-.83,0,1.28,1.28,0,0,1-.65-.47,13.76,13.76,0,0,0-1.46-1.59.57.57,0,0,1-.16-.54.46.46,0,0,1,.36-.41,22,22,0,0,0,8.8-5.09,1.63,1.63,0,0,1,1.65-.53l2.55.56a.53.53,0,0,1,.43.38.51.51,0,0,1-.13.54,3,3,0,0,0-.3.34s0,0,0,.06l0,0h4.62l.16,0,.37,0a1.39,1.39,0,0,1,.72.19l1.32.76a.92.92,0,0,1,.47.6.84.84,0,0,1-.11.74,18.67,18.67,0,0,1-5.39,5.73.06.06,0,0,0,0,.07s0,0,0,0l2.49.59a.49.49,0,0,1,.43.37.56.56,0,0,1-.12.58l-.92,1a.11.11,0,0,0,0,.05s0,0,0,0h3.86A.51.51,0,0,0,152.32,528.69Zm-6.38-7.18s0,0,0-.06,0,0,0,0h-5.76a.32.32,0,0,0-.22.08c-.13.07-.29.18-.48.31s-.05,0,0,.07,0,0,0,0a25.47,25.47,0,0,1,3.13,2,.19.19,0,0,0,.22,0A18.67,18.67,0,0,0,145.94,521.51Zm3.83,10.76c.06-.07,0-.11-.05-.11h-5.65a.4.4,0,0,0-.22.08l-.64.39a.1.1,0,0,0,0,.14,24.78,24.78,0,0,1,3.43,2.35c.06.06.12.06.2,0A13.05,13.05,0,0,0,149.77,532.27Z" transform="translate(0 -495.94)"/><path class="cls-2" d="M166.43,531.79a1.23,1.23,0,0,1-.35.72.94.94,0,0,1-.68.29h-2.49a1.05,1.05,0,0,1-.73-.29,1,1,0,0,1-.3-.72,6.4,6.4,0,0,1,.43-2,8.42,8.42,0,0,1,.89-1.72c.35-.49.69-1,1-1.41a10.34,10.34,0,0,0,.88-1.35,2.86,2.86,0,0,0,.36-1.33,1.82,1.82,0,0,0-.42-1.31,1.42,1.42,0,0,0-1.09-.45,2.55,2.55,0,0,0-1.7.75,1.17,1.17,0,0,1-.72.31.94.94,0,0,1-.71-.25l-1.34-1.23a1,1,0,0,1-.34-.78.92.92,0,0,1,.28-.65,7.06,7.06,0,0,1,5.12-2.29,6.2,6.2,0,0,1,4.18,1.38,5.09,5.09,0,0,1,1.6,4.07,5.6,5.6,0,0,1-.36,2,6.65,6.65,0,0,1-.91,1.69c-.36.5-.72,1-1.09,1.42a9.64,9.64,0,0,0-1,1.49A4.94,4.94,0,0,0,166.43,531.79Zm-.05,8.18a3.23,3.23,0,0,1-4.43,0,3,3,0,0,1-.88-2.25,3.11,3.11,0,0,1,.88-2.25,3.13,3.13,0,0,1,4.41,0,3.34,3.34,0,0,1,0,4.5Z" transform="translate(0 -495.94)"/><path class="cls-3" d="M190.78,534.23a1,1,0,0,1-1-1V517a1,1,0,0,1,1-1h7.74a1,1,0,0,1,.7.29,1,1,0,0,1,.28.72v1.73a1,1,0,0,1-.28.71.92.92,0,0,1-.7.3H194a.1.1,0,0,0-.11.11v13.33a1,1,0,0,1-1,1Z" transform="translate(0 -495.94)"/><path class="cls-3" d="M228.09,522.54a1,1,0,0,1-.28.72,1,1,0,0,1-.7.29h-5.34a.1.1,0,0,0-.11.11v1.15c0,.09,0,.14.11.14h4.64a1,1,0,0,1,1,1v13.52a5.81,5.81,0,0,1-.27,2,2.44,2.44,0,0,1-.91,1.17,4.68,4.68,0,0,1-2.37.67h-.06a1.16,1.16,0,0,1-.7-.22,1.34,1.34,0,0,1-.44-.7c-.17-.56-.37-1.12-.59-1.68a.63.63,0,0,1,0-.61.57.57,0,0,1,.52-.28h.5a.43.43,0,0,0,.28-.07c.06-.05.08-.14.08-.29v-1.54c0-.07,0-.11-.14-.11h-1.59a.1.1,0,0,0-.11.11v4.22a.94.94,0,0,1-.29.68,1,1,0,0,1-.72.3h-1.93a.9.9,0,0,1-.69-.3.93.93,0,0,1-.28-.68v-4.22c0-.07-.05-.11-.14-.11h-1.48c-.1,0-.14,0-.14.11v4.33a1,1,0,0,1-.3.69.94.94,0,0,1-.68.29h-1.82a1,1,0,0,1-.71-.29,1,1,0,0,1-.3-.69V529.56s0,0,0,0a0,0,0,0,0-.06,0q-1.09,1.43-1.23,1.62a.15.15,0,0,0,0,.2l.53.7a1.17,1.17,0,0,1,.27.79,1.1,1.1,0,0,1-.3.74l-1.09,1.23a.6.6,0,0,1-.58.24.65.65,0,0,1-.53-.35c-.17-.3-.49-.82-.95-1.56l-.05,0s0,0,0,0v9.08a.94.94,0,0,1-.29.68,1,1,0,0,1-.72.3h-1.81a1,1,0,0,1-.72-.3.94.94,0,0,1-.29-.68v-7.3a.05.05,0,0,0,0,0s0,0-.05,0c-.34.39-.69.76-1.06,1.11a.6.6,0,0,1-.61.17.64.64,0,0,1-.48-.39,20,20,0,0,0-1-2.07,1.37,1.37,0,0,1-.14-.61v-.17a1.1,1.1,0,0,1,.39-.7,20.4,20.4,0,0,0,2.8-3.25,24.15,24.15,0,0,0,2.26-4c0-.07,0-.11-.06-.11h-4a.94.94,0,0,1-.69-.29,1,1,0,0,1-.29-.71v-1.71a.94.94,0,0,1,.29-.68,1,1,0,0,1,.69-.3h1.87c.07,0,.11,0,.11-.14v-3.91a1,1,0,0,1,.29-.7,1,1,0,0,1,.72-.28h1.81a1,1,0,0,1,.72.28,1,1,0,0,1,.29.7v4c0,.06,0,.08.07.08l.13,0h0a1.55,1.55,0,0,1,.31,0,1.45,1.45,0,0,1,.81.25l.76.47a1.3,1.3,0,0,1,.53,1.51,37.38,37.38,0,0,1-2.15,5,.16.16,0,0,0,0,.2l.45.56c.06.07.1.07.14,0,.32-.52.6-1,.84-1.48a.82.82,0,0,1,.56-.42.78.78,0,0,1,.67.14l.75.56c.08,0,.11,0,.11-.06v-2a1,1,0,0,1,1-1h4.42a.13.13,0,0,0,.14-.14v-1.15c0-.07-.05-.11-.14-.11h-5.29a1,1,0,0,1-1-1v-1.65a1,1,0,0,1,.29-.68,1,1,0,0,1,.71-.29h5.29a.13.13,0,0,0,.14-.14v-2.66a.94.94,0,0,1,.28-.7,1,1,0,0,1,.69-.28h1.93a1,1,0,0,1,.72.28,1,1,0,0,1,.29.7v2.66c0,.09,0,.14.11.14h2.32s0,0,0,0a0,0,0,0,0,0-.06c-.41-.35-.86-.71-1.34-1.06a.78.78,0,0,1-.34-.6.84.84,0,0,1,.25-.66l.84-.75a1.3,1.3,0,0,1,.77-.35,1.24,1.24,0,0,1,.8.18,16.93,16.93,0,0,1,2,1.48.83.83,0,0,1,.31.66,1,1,0,0,1-.28.71l-.42.39c0,.06,0,.09.05.09h.31a.91.91,0,0,1,.7.29,1,1,0,0,1,.28.68Zm-10.34,6c0-.07-.05-.11-.14-.11h-1.48c-.1,0-.14,0-.14.11v1.21c0,.07,0,.11.14.11h1.48c.09,0,.14,0,.14-.11ZM216,534.34a.12.12,0,0,0,.14.14h1.48a.13.13,0,0,0,.14-.14v-1.2c0-.08-.05-.12-.14-.12h-1.48c-.1,0-.14,0-.14.12Zm7.51-5.82c0-.07,0-.11-.14-.11h-1.59a.1.1,0,0,0-.11.11v1.21a.1.1,0,0,0,.11.11h1.59c.1,0,.14,0,.14-.11Zm-1.84,5.82c0,.09,0,.14.11.14h1.59a.12.12,0,0,0,.14-.14v-1.2c0-.08,0-.12-.14-.12h-1.59c-.07,0-.11,0-.11.12Z" transform="translate(0 -495.94)"/><path class="cls-3" d="M237,532.05a1,1,0,0,1,.34-.7,1,1,0,0,1,.73-.28h2.46a.91.91,0,0,1,.68.29.89.89,0,0,1,.24.69A25.34,25.34,0,0,1,241,535a11.57,11.57,0,0,1-.86,2.52,8.53,8.53,0,0,1-1.51,2.25,10.84,10.84,0,0,1-2.39,1.83,17.43,17.43,0,0,1-3.49,1.51,1,1,0,0,1-.77,0,1.3,1.3,0,0,1-.58-.58,13.8,13.8,0,0,0-1.34-2,.69.69,0,0,1-.14-.39.74.74,0,0,1,0-.19.58.58,0,0,1,.42-.4,14.58,14.58,0,0,0,2.74-1,8.88,8.88,0,0,0,1.84-1.2,4.54,4.54,0,0,0,1.12-1.5,7.86,7.86,0,0,0,.6-1.67A18.91,18.91,0,0,0,237,532.05Zm-4.41-1.46a.87.87,0,0,1-.71-.25,1,1,0,0,1-.33-.7l-.08-2.29a1,1,0,0,1,.28-.71,1,1,0,0,1,.7-.32l3.44-.06a.17.17,0,0,0,.16-.11,33,33,0,0,0,1.29-3.24c0-.08,0-.12-.08-.12H231.5a.94.94,0,0,1-.71-.29.91.91,0,0,1-.3-.68v-2a.91.91,0,0,1,.3-.68.94.94,0,0,1,.71-.3h9.33c.08,0,.11,0,.11-.14V517a1,1,0,0,1,1-1h2.29a1,1,0,0,1,1,1v1.7c0,.1,0,.14.11.14h9.42a.94.94,0,0,1,.71.3.91.91,0,0,1,.3.68v2a.91.91,0,0,1-.3.68.94.94,0,0,1-.71.29h-5a.05.05,0,0,0,0,0s0,0,0,.06a43.74,43.74,0,0,1,5.39,5.84.82.82,0,0,1,.17.71.87.87,0,0,1-.45.6l-2.09,1.29a1,1,0,0,1-1.37-.31c-.23-.33-.51-.72-.84-1.14a.24.24,0,0,0-.2-.12Q242.43,530.2,232.59,530.59Zm8-4.58c0,.07,0,.11.06.11l6.42-.19s0,0,0,0a.1.1,0,0,0,0-.07c-.26-.26-.57-.57-.92-.95a.7.7,0,0,1-.21-.63.64.64,0,0,1,.38-.54l1.42-.84s0,0,0,0a.05.05,0,0,0-.05,0h-5.31a.2.2,0,0,0-.19.12C241.62,524.14,241.07,525.17,240.61,526ZM250,539.23h2a.78.78,0,0,0,.78-.62,14.8,14.8,0,0,0,.31-2.79.49.49,0,0,1,.29-.48.58.58,0,0,1,.57,0,13.09,13.09,0,0,0,2,.84,1.31,1.31,0,0,1,.67.48,1.08,1.08,0,0,1,.22.67,7.31,7.31,0,0,1-1.28,4.61,3.91,3.91,0,0,1-3.16,1.17h-3c-1.77,0-3-.36-3.58-1.07s-.92-2-.92-3.93v-6.21a1,1,0,0,1,1-1H248a1,1,0,0,1,1,1v6.15a1.7,1.7,0,0,0,.16.95C249.28,539.16,249.54,539.23,250,539.23Z" transform="translate(0 -495.94)"/><path class="cls-3" d="M285.36,524.08a1,1,0,0,1-.28.69,1,1,0,0,1-.7.29h-.51a.15.15,0,0,0-.16.11,32.32,32.32,0,0,1-2.77,10,.18.18,0,0,0,0,.2,13.89,13.89,0,0,0,3.91,3.75.76.76,0,0,1,.14,1.17,19.09,19.09,0,0,0-1.65,2.1,1,1,0,0,1-1.37.3,15.57,15.57,0,0,1-3.6-3.52.12.12,0,0,0-.17,0,17.44,17.44,0,0,1-4.75,3.72.92.92,0,0,1-.74.07,1,1,0,0,1-.57-.49,17.2,17.2,0,0,0-1.35-2.15.88.88,0,0,1-.11-.67.71.71,0,0,1,.42-.51,13,13,0,0,0,4.87-3.91.19.19,0,0,0,0-.22,38.63,38.63,0,0,1-1.56-4.5.05.05,0,0,0,0,0,.07.07,0,0,0-.06,0c-.09.15-.18.3-.28.45a.73.73,0,0,1-.61.35.9.9,0,0,1-.67-.27c-.43-.43-.88-.84-1.34-1.23a.1.1,0,0,0-.17,0,30.5,30.5,0,0,1-3.69,3.77.28.28,0,0,0-.11.23c0,.07,0,.11.14.11l1.72-.11,2-.14a.91.91,0,0,1,1,.92v1.54a1,1,0,0,1-.28.72,1,1,0,0,1-.7.34c-.78.07-2,.17-3.69.28-.1,0-.14,0-.14.14v1.87a5.92,5.92,0,0,1-.29,2.07,2.15,2.15,0,0,1-1.14,1.12,8.73,8.73,0,0,1-3.35.58h0a1.19,1.19,0,0,1-.73-.25,1.3,1.3,0,0,1-.44-.7,12.59,12.59,0,0,0-.53-1.65A.58.58,0,0,1,261,540a.61.61,0,0,1,.53-.28h1.57a.69.69,0,0,0,.38-.08.43.43,0,0,0,.09-.31v-1.45c0-.08,0-.12-.11-.12l-4,.28a.88.88,0,0,1-.73-.21,1,1,0,0,1-.36-.68l-.2-1.71a.89.89,0,0,1,.24-.69.91.91,0,0,1,.66-.34l1.95-.11,2.46-.14c.08,0,.11-.05.11-.14v-.95a1,1,0,0,1,.3-.69,1,1,0,0,1,.71-.29h.08a.3.3,0,0,0,.2-.08,8.93,8.93,0,0,0,.87-.87.07.07,0,0,0,0-.06l0,0h-1.15a.33.33,0,0,0-.22.08,25.66,25.66,0,0,1-3,2.15,1,1,0,0,1-.77.14,1.1,1.1,0,0,1-.68-.42c-.45-.56-.93-1.12-1.45-1.67a.73.73,0,0,1-.2-.63.68.68,0,0,1,.39-.52q1.07-.59,2.1-1.29a.18.18,0,0,0,.08-.16.89.89,0,0,1,.87-.87H262a.39.39,0,0,0,.23-.06l1.09-.89a.07.07,0,0,0,0-.06s0,0-.07,0h-3.88a1,1,0,0,1-1-1V524.3a.88.88,0,0,1,.29-.69,1,1,0,0,1,.69-.28h2.71a.13.13,0,0,0,.14-.14V522a.13.13,0,0,0-.14-.14h-1.82a1,1,0,0,1-.71-.28.91.91,0,0,1-.3-.7v-1.48a1,1,0,0,1,.3-.71.94.94,0,0,1,.71-.29h1.82c.09,0,.14,0,.14-.12V517a1,1,0,0,1,.29-.72,1,1,0,0,1,.68-.29H265a.94.94,0,0,1,.68.29,1,1,0,0,1,.3.72v1.25c0,.08,0,.12.13.12h1.26a.94.94,0,0,1,.69.29,1,1,0,0,1,.29.71v.93s0,0,0,0,0,0,0,0c.44-.81.87-1.69,1.28-2.66a1,1,0,0,1,.52-.57,1.1,1.1,0,0,1,.8-.07l1.92.53a.86.86,0,0,1,.55.47.79.79,0,0,1,0,.73,33.05,33.05,0,0,1-2.26,4.44q-.06.12.06.12h.08a1,1,0,0,1,.71.28.89.89,0,0,1,.3.69v.76s0,0,0,0a30.65,30.65,0,0,0,2.27-8,1,1,0,0,1,.4-.66,1,1,0,0,1,.74-.18l2.24.36a.93.93,0,0,1,.66.4.88.88,0,0,1,.15.72c-.22,1.18-.48,2.32-.75,3.44,0,.09,0,.14.11.14h6.12a1,1,0,0,1,.7.29,1,1,0,0,1,.28.69Zm-19.21-2.21c-.09,0-.13,0-.13.14v1.18c0,.09,0,.14.13.14h.28a.2.2,0,0,0,.2-.12q.48-.63.87-1.23c0-.07,0-.11-.06-.11Zm2.35,6h.17a1.32,1.32,0,0,1,.39-.06,1.24,1.24,0,0,1,.81.31l.39.31a.13.13,0,0,0,.2,0c.35-.47.69-1,1-1.48,0-.06,0-.08-.06-.08h-2.6a.22.22,0,0,0-.2.08l-.75.87s0,0,0,0,0,0,0,0Zm11-2.71c0-.09,0-.14-.11-.14h-2c-.08,0-.12,0-.12.11a35.42,35.42,0,0,0,1.21,4.92s0,0,0,0,0,0,0,0A30.84,30.84,0,0,0,279.46,525.2Z" transform="translate(0 -495.94)"/><path class="cls-3" d="M299.16,529.75a1.15,1.15,0,0,1,.37.72,1.11,1.11,0,0,1-.2.79l-1.26,1.9a.67.67,0,0,1-1.09,0c-.37-.55-.82-1.18-1.34-1.87,0,0,0,0-.05,0s0,0,0,0v10.93a.91.91,0,0,1-.3.68.94.94,0,0,1-.71.3h-2.21a1,1,0,0,1-.71-.3.94.94,0,0,1-.29-.68v-8.42s0,0,0,0a21.52,21.52,0,0,1-2.24,4.19.43.43,0,0,1-.49.22.6.6,0,0,1-.46-.36,21.31,21.31,0,0,0-1.23-2.4,1.56,1.56,0,0,1-.19-.73,1.43,1.43,0,0,1,.33-.9,24.51,24.51,0,0,0,3.83-7.93c0-.08,0-.11-.08-.11h-2.66a.91.91,0,0,1-.68-.3.94.94,0,0,1-.3-.71v-2a1,1,0,0,1,.3-.71.9.9,0,0,1,.68-.29h3.11c.07,0,.11,0,.11-.12V517a1,1,0,0,1,.29-.72,1,1,0,0,1,.71-.29h2.21a1,1,0,0,1,1,1v4.66c0,.08,0,.12.11.12H298a1,1,0,0,1,1,1v2a.94.94,0,0,1-.29.71,1,1,0,0,1-.71.3h-2.35c-.08,0-.11,0-.11.11v.47a.3.3,0,0,0,.08.2C296.55,527.29,297.73,528.36,299.16,529.75Zm13.73-7.93a.91.91,0,0,1,.7.29,1,1,0,0,1,.27.71v2a1,1,0,0,1-.27.71.92.92,0,0,1-.7.3H311.4c-.09,0-.13,0-.13.11v12.41a6.92,6.92,0,0,1-.38,2.57,2.72,2.72,0,0,1-1.33,1.37,11.26,11.26,0,0,1-4.72.81,1.21,1.21,0,0,1-.76-.28,1.34,1.34,0,0,1-.42-.7,18.78,18.78,0,0,0-.78-2.29.67.67,0,0,1,.07-.6.51.51,0,0,1,.52-.27c.76,0,1.65,0,2.65,0a.79.79,0,0,0,.55-.15.75.75,0,0,0,.15-.52v-6.71s0,0,0,0,0,0,0,0a32.62,32.62,0,0,1-6.21,7,.84.84,0,0,1-.7.19.9.9,0,0,1-.64-.39,16.14,16.14,0,0,0-1.73-1.93.8.8,0,0,1-.23-.55.73.73,0,0,1,.34-.65,23.6,23.6,0,0,0,4.39-4.11,30.07,30.07,0,0,0,3.55-5.22c0-.08,0-.11-.06-.11h-4.81a1,1,0,0,1-.71-.3.94.94,0,0,1-.29-.71v-2a1,1,0,0,1,1-1h6c.07,0,.11,0,.11-.12v-4.63a.93.93,0,0,1,.29-.7,1,1,0,0,1,.72-.28h2.46a.93.93,0,0,1,.68.28.91.91,0,0,1,.3.7v4.63c0,.08,0,.12.13.12Z" transform="translate(0 -495.94)"/><path class="cls-3" d="M324.15,525.06a1,1,0,0,1,1,1v16.19a.91.91,0,0,1-.3.68.94.94,0,0,1-.71.3h-7.74a1,1,0,0,1-1-1v-1.74a1,1,0,0,1,.28-.71,1,1,0,0,1,.7-.29h4.53a.1.1,0,0,0,.11-.11V526.06a1,1,0,0,1,.29-.71,1,1,0,0,1,.71-.29Z" transform="translate(0 -495.94)"/><path class="cls-2" d="M364.2,536.63c-.09,0-.14,0-.14.11v2.38a.13.13,0,0,0,.14.14c.32,0,.8,0,1.45,0q3.3,0,4.92,0a.62.62,0,0,1,.53.28.61.61,0,0,1,.12.34.51.51,0,0,1-.06.25,15.25,15.25,0,0,0-.53,1.76,1.24,1.24,0,0,1-.42.7,1.11,1.11,0,0,1-.75.28h-4a13.69,13.69,0,0,1-5-.78,6.85,6.85,0,0,1-3.34-3s-.05-.06-.07,0-.05,0-.05,0a13.63,13.63,0,0,1-2.06,3.29,1,1,0,0,1-1.43,0c-.48-.43-1-.83-1.48-1.2a.73.73,0,0,1-.32-.6A.9.9,0,0,1,352,540a12.81,12.81,0,0,0,3-7.07,1.08,1.08,0,0,1,.4-.67.94.94,0,0,1,.72-.2l1.78.23a1,1,0,0,1,.65.37.91.91,0,0,1,.19.72c-.11.63-.22,1.21-.33,1.73a.53.53,0,0,0,0,.25,6.75,6.75,0,0,0,1.67,2.46s0,0,.06,0a.08.08,0,0,0,0-.07v-6.27c0-.09,0-.13-.11-.13h-6.35s0,0,0,0a.3.3,0,0,1-.25.39l-1.3.35-1.21.35a.16.16,0,0,0-.14.17v5.78a7.26,7.26,0,0,1-.27,2.23,2.33,2.33,0,0,1-1,1.24,6.12,6.12,0,0,1-3.19.78,1,1,0,0,1-.74-.25,1.21,1.21,0,0,1-.4-.7,16.64,16.64,0,0,0-.51-1.93.68.68,0,0,1,.09-.62.6.6,0,0,1,.53-.3q.56,0,1.23,0a.49.49,0,0,0,.35-.11.66.66,0,0,0,.09-.39V533.7c0-.1,0-.14-.11-.12l-1.2.34a1,1,0,0,1-.73-.13.93.93,0,0,1-.42-.6l-.44-2a.83.83,0,0,1,0-.22.85.85,0,0,1,.17-.51.9.9,0,0,1,.61-.44l2-.42c.08,0,.11-.08.11-.17v-4.16c0-.1,0-.14-.11-.14h-1.73a1,1,0,0,1-1-1v-1.85a.93.93,0,0,1,.28-.68.91.91,0,0,1,.7-.29h1.73c.08,0,.11,0,.11-.14v-4.08a.91.91,0,0,1,.3-.7,1,1,0,0,1,.71-.28h1.79a.93.93,0,0,1,.68.28.91.91,0,0,1,.3.7v4.08a.12.12,0,0,0,.14.14h1.56a.91.91,0,0,1,.7.29.93.93,0,0,1,.28.68v1.85a1,1,0,0,1-1,1H350.9c-.1,0-.14,0-.14.14v3.27c0,.07,0,.1.14.08l1.31-.34a.93.93,0,0,1,.71.14.88.88,0,0,1,.38.62l.2,1.23h0v-1.17a1,1,0,0,1,.28-.7.94.94,0,0,1,.7-.28h15.37a1,1,0,0,1,.69.28.9.9,0,0,1,.29.7v1.34a.91.91,0,0,1-.29.7,1,1,0,0,1-.69.28H364.2c-.09,0-.14,0-.14.13v1.79c0,.08.05.12.14.12h4.05a1,1,0,0,1,1,1v1.2a1,1,0,0,1-1,1Zm4.28-19.73a1,1,0,0,1,.71.29,1,1,0,0,1,.29.71v8.25a.94.94,0,0,1-.29.71,1,1,0,0,1-.71.29H356a.92.92,0,0,1-.68-.29.94.94,0,0,1-.29-.71V517.9a1,1,0,0,1,1-1Zm-3.1,3.8c.09,0,.13,0,.13-.11v-.7c0-.08,0-.11-.13-.11h-6.49a.1.1,0,0,0-.11.11v.7a.1.1,0,0,0,.11.11Zm0,3.55c.09,0,.13,0,.13-.11v-.7c0-.08,0-.11-.13-.11h-6.49a.1.1,0,0,0-.11.11v.7a.1.1,0,0,0,.11.11Z" transform="translate(0 -495.94)"/><path class="cls-2" d="M378.12,517a1.1,1.1,0,0,1,.53-.57,1,1,0,0,1,.76-.07l2,.64a.85.85,0,0,1,.56.47,1,1,0,0,1,0,.76,50,50,0,0,1-2.21,4.75.66.66,0,0,0-.05.25v19a.94.94,0,0,1-.29.68,1,1,0,0,1-.72.3h-2.09a1,1,0,0,1-.72-.3.94.94,0,0,1-.29-.68V529.53s0,0,0,0,0,0-.05,0c-.15.21-.31.41-.48.62a.54.54,0,0,1-.56.18.63.63,0,0,1-.47-.38c-.41-.93-.84-1.8-1.29-2.6a1.21,1.21,0,0,1-.19-.67,1.11,1.11,0,0,1,0-.17,1.18,1.18,0,0,1,.34-.75A28.66,28.66,0,0,0,378.12,517ZM385,536a1.29,1.29,0,0,1,.67-.5,1.41,1.41,0,0,1,.81,0l2,.64a.72.72,0,0,1,.49.47.78.78,0,0,1-.07.68,24.41,24.41,0,0,1-4.61,5.17,1,1,0,0,1-.74.25,1.2,1.2,0,0,1-.74-.3c-.56-.49-1.13-.95-1.71-1.37a.64.64,0,0,1-.28-.54.7.7,0,0,1,.31-.58A15.67,15.67,0,0,0,385,536Zm11.12-5.89c0,.07.05.11.14.11h2.57a1,1,0,0,1,.7.29,1,1,0,0,1,.28.71v2.07a1,1,0,0,1-.28.71.92.92,0,0,1-.7.3H382.09a.92.92,0,0,1-.7-.3,1,1,0,0,1-.28-.71v-2.07a1,1,0,0,1,.28-.71,1,1,0,0,1,.7-.29h2.43c.09,0,.14,0,.14-.11v-4.7a.13.13,0,0,0-.14-.14h-1.73a1,1,0,0,1-.72-.29,1,1,0,0,1-.29-.69v-2a1,1,0,0,1,.29-.69,1,1,0,0,1,.72-.29h1.73a.12.12,0,0,0,.14-.14v-4a.92.92,0,0,1,.28-.69.94.94,0,0,1,.7-.28h2.09a1,1,0,0,1,.69.28.89.89,0,0,1,.29.69v4a.12.12,0,0,0,.14.14h3a.12.12,0,0,0,.14-.14v-4.05a1,1,0,0,1,.29-.7,1,1,0,0,1,.69-.28h2.09a1,1,0,0,1,.69.28,1,1,0,0,1,.29.7v4.05a.12.12,0,0,0,.14.14h2.38a.94.94,0,0,1,.68.29,1,1,0,0,1,.3.69v2a1,1,0,0,1-.3.69.94.94,0,0,1-.68.29h-2.38a.13.13,0,0,0-.14.14Zm-7.24-4.84a.13.13,0,0,0-.14.14v4.7c0,.07.05.11.14.11h3c.09,0,.14,0,.14-.11v-4.7a.13.13,0,0,0-.14-.14Zm3.47,12.44a.8.8,0,0,1-.18-.69.7.7,0,0,1,.4-.54l1.57-.87a1.32,1.32,0,0,1,.82-.17,1.16,1.16,0,0,1,.74.4,34.14,34.14,0,0,1,3.5,4.24,1,1,0,0,1,.14.73.93.93,0,0,1-.45.61L397,542.61a.92.92,0,0,1-.47.14l-.25,0a.81.81,0,0,1-.59-.44A32.29,32.29,0,0,0,392.32,537.75Z" transform="translate(0 -495.94)"/><path class="cls-2" d="M425.77,533.42a1,1,0,0,1-1,1H417a.18.18,0,0,0-.17.11,9.55,9.55,0,0,1-1.7,3.3c-.06.08-.05.12,0,.14a26,26,0,0,0,5.34.73c1.1,0,2.36.08,3.78.08,1.11,0,2.33,0,3.63,0a.48.48,0,0,1,.45.28.52.52,0,0,1,.08.25.63.63,0,0,1-.08.28,10.85,10.85,0,0,0-1,2.32,1.35,1.35,0,0,1-.45.69,1.11,1.11,0,0,1-.75.28,80.07,80.07,0,0,1-8.25-.5,25.05,25.05,0,0,1-6.23-1.51.22.22,0,0,0-.22,0,23.64,23.64,0,0,1-6.38,2.24,1.27,1.27,0,0,1-.28,0,1.45,1.45,0,0,1-.56-.12,1.42,1.42,0,0,1-.61-.58,18,18,0,0,0-1.43-2.07A.53.53,0,0,1,402,540a.31.31,0,0,1,.06-.19.52.52,0,0,1,.42-.37,27.63,27.63,0,0,0,4.67-1.06c.09,0,.1-.08,0-.14a16.56,16.56,0,0,1-1.85-1.9.73.73,0,0,1-.13-.65.7.7,0,0,1,.44-.49l1.76-.7v0s0,0,0,0h-1.79a1,1,0,0,1-.71-.29,1,1,0,0,1-.29-.71V523.16a.91.91,0,0,1,.29-.7,1,1,0,0,1,.71-.28h7.21c.08,0,.11,0,.11-.14v-1a.1.1,0,0,0-.11-.11h-9.61a1,1,0,0,1-.71-.29,1,1,0,0,1-.3-.71v-1.71a1,1,0,0,1,1-1h23.39a1,1,0,0,1,1,1v1.71a1,1,0,0,1-.3.71,1,1,0,0,1-.71.29h-9.14c-.09,0-.14,0-.14.11v1a.13.13,0,0,0,.14.14h7.33a.94.94,0,0,1,.68.28.91.91,0,0,1,.29.7Zm-17.1-7.94c-.08,0-.11,0-.11.14v1c0,.08,0,.12.11.12h4.16c.08,0,.11,0,.11-.12v-1c0-.1,0-.14-.11-.14Zm0,4.33c-.08,0-.11.05-.11.14v1c0,.08,0,.12.11.12h4.16c.08,0,.11,0,.11-.12v-1c0-.09,0-.14-.11-.14Zm3.55,4.72c0-.07,0-.11-.09-.11h-3.29a.05.05,0,0,0,0,0s0,0,0,.06a11.35,11.35,0,0,0,2,1.67.14.14,0,0,0,.19,0A6.71,6.71,0,0,0,412.22,534.53Zm9.44-8.91c0-.1,0-.14-.13-.14h-4.06a.12.12,0,0,0-.14.14v1c0,.08.05.12.14.12h4.06c.09,0,.13,0,.13-.12Zm-.13,5.48c.09,0,.13,0,.13-.12v-1c0-.09,0-.14-.13-.14h-4.06a.13.13,0,0,0-.14.14v1c0,.08.05.12.14.12Z" transform="translate(0 -495.94)"/><path class="cls-2" d="M452.83,528.69a2.77,2.77,0,0,1,.42,0,1.74,1.74,0,0,1,.78.2l1.31.64a1,1,0,0,1,.53.59,1.23,1.23,0,0,1,.06.36,1.35,1.35,0,0,1-.08.42,18.52,18.52,0,0,1-3.27,5,17.71,17.71,0,0,1-4.63,3.53,30.67,30.67,0,0,1-5.57,2.31,45.18,45.18,0,0,1-6.6,1.43l-.2,0a1,1,0,0,1-.58-.19,1.28,1.28,0,0,1-.53-.62,14.74,14.74,0,0,0-.93-2,.59.59,0,0,1,0-.59.64.64,0,0,1,.46-.36,36.33,36.33,0,0,0,9.36-2.1c.08,0,.09-.08,0-.14a34.61,34.61,0,0,0-3.3-2.37.22.22,0,0,0-.22,0c-.88.41-1.77.79-2.68,1.15a1.21,1.21,0,0,1-1.43-.51,14,14,0,0,0-1.31-1.67.59.59,0,0,1-.14-.58.57.57,0,0,1,.39-.43,26.65,26.65,0,0,0,9.11-4.75,0,0,0,0,0,0,0,39.25,39.25,0,0,1-10.42,3.6,1.05,1.05,0,0,1-.77-.12,1.38,1.38,0,0,1-.57-.6,17.53,17.53,0,0,0-.95-1.79.69.69,0,0,1-.09-.34.74.74,0,0,1,.06-.28.53.53,0,0,1,.45-.36,38.6,38.6,0,0,0,7.82-2.12s.06,0,.06,0a.08.08,0,0,0,0-.07,22.72,22.72,0,0,0-2.85-1.88.31.31,0,0,0-.23,0c-.7.34-1.32.62-1.84.84a1.35,1.35,0,0,1-.82,0,1.3,1.3,0,0,1-.66-.47,14.63,14.63,0,0,0-1.45-1.59.57.57,0,0,1-.17-.54.47.47,0,0,1,.36-.41,22,22,0,0,0,8.8-5.09,1.63,1.63,0,0,1,1.65-.53l2.55.56a.51.51,0,0,1,.43.38.49.49,0,0,1-.13.54,4.53,4.53,0,0,0-.3.34s0,0,0,.06l.05,0h4.61l.16,0,.37,0a1.39,1.39,0,0,1,.72.19l1.32.76a.92.92,0,0,1,.47.6.84.84,0,0,1-.11.74,18.67,18.67,0,0,1-5.39,5.73.06.06,0,0,0,0,.07.05.05,0,0,0,.05,0l2.48.59a.52.52,0,0,1,.44.37.59.59,0,0,1-.13.58c-.32.35-.62.68-.92,1a.11.11,0,0,0,0,.05.05.05,0,0,0,0,0h3.86A.51.51,0,0,0,452.83,528.69Zm-6.37-7.18a.07.07,0,0,0,0-.06s0,0,0,0h-5.76a.33.33,0,0,0-.22.08c-.13.07-.29.18-.48.31s-.05,0,0,.07,0,0,0,0a25.47,25.47,0,0,1,3.13,2,.2.2,0,0,0,.23,0A19.09,19.09,0,0,0,446.46,521.51Zm3.82,10.76c.06-.07,0-.11,0-.11h-5.65a.4.4,0,0,0-.22.08l-.64.39a.1.1,0,0,0,0,.14,24.78,24.78,0,0,1,3.43,2.35.13.13,0,0,0,.2,0A13.05,13.05,0,0,0,450.28,532.27Z" transform="translate(0 -495.94)"/><path class="cls-2" d="M482.82,526.26a.1.1,0,0,0,.11.11h1a1,1,0,0,1,1,1v4.27a.9.9,0,0,1-.29.7,1,1,0,0,1-.71.28h-2.13a1,1,0,0,1-.71-.28.93.93,0,0,1-.29-.7v-2.2c0-.08,0-.12-.11-.12H463.45c-.08,0-.11,0-.11.12v2.2a.91.91,0,0,1-.3.7,1,1,0,0,1-.71.28H460.4a1,1,0,0,1-.71-.28.9.9,0,0,1-.29-.7v-4.27a.94.94,0,0,1,.29-.71,1,1,0,0,1,.71-.3h1a.1.1,0,0,0,.11-.11l-.45-7.94a.73.73,0,0,1,.25-.63.87.87,0,0,1,.67-.18l.93.17a.38.38,0,0,0,.25,0,24.53,24.53,0,0,0,2.82-1.12,1.59,1.59,0,0,1,.56-.11,1.33,1.33,0,0,1,.28,0,1.3,1.3,0,0,1,.73.45l.55.67a.73.73,0,0,1,.17.67.65.65,0,0,1-.42.5,24.45,24.45,0,0,1-2.76,1,.19.19,0,0,0-.12.17l0,.08a.12.12,0,0,0,.14.14h2.43a1,1,0,0,1,.69.3.94.94,0,0,1,.29.68v.5a1,1,0,0,1-.29.72,1,1,0,0,1-.69.29h-2.32c-.09,0-.13,0-.11.11l0,.42a.12.12,0,0,0,.14.14h2.32a.94.94,0,0,1,.67.27.83.83,0,0,1,.28.65c0,.08,0,.11.11.09.45-.23.86-.45,1.23-.67a.09.09,0,0,0,0-.07s0,0-.06-.07l-.19-.11-.23-.14a.64.64,0,0,1-.33-.52.72.72,0,0,1,.22-.6l.34-.28a1.55,1.55,0,0,1,.95-.36,1.51,1.51,0,0,1,.7.19,4.27,4.27,0,0,1,.56.31.14.14,0,0,0,.19,0,1,1,0,0,0,.17-.14,1.58,1.58,0,0,1,1.14-.56,1.2,1.2,0,0,1,.45.09l.73.19a.73.73,0,0,1,.46.46.58.58,0,0,1-.13.63c-.18.22-.39.45-.61.67-.06.08-.05.13,0,.17l.53.39a.75.75,0,0,1,.31.63.83.83,0,0,1-.31.66l-.5.42a1,1,0,0,1-.73.26,1.28,1.28,0,0,1-.76-.29l-.5-.39c-.07-.06-.14-.06-.19,0a19.33,19.33,0,0,1-2,1.23s0,0,0,0h8.41c.09,0,.14,0,.14-.11l.06-.42c0-.07,0-.11-.12-.11h-1.9a1,1,0,0,1-.71-.29,1,1,0,0,1-.29-.72v-.5a.91.91,0,0,1,.29-.7,1,1,0,0,1,.71-.28H479a.12.12,0,0,0,.14-.14l0-.42c0-.07,0-.11-.14-.11H477a1,1,0,0,1-1-1v-.5a.91.91,0,0,1,.3-.68.94.94,0,0,1,.71-.3h2.29c.08,0,.11,0,.11-.14l0-.39c0-.09,0-.14-.11-.14h-2.43a1,1,0,0,1-.72-.28.93.93,0,0,1-.29-.7v-.53a1,1,0,0,1,.29-.71,1,1,0,0,1,.72-.29h5.61a.93.93,0,0,1,.7.29.88.88,0,0,1,.25.71C483.24,521.11,483,523.89,482.82,526.26Zm-6.37,3.83.36,0a1.47,1.47,0,0,1,1,.39l1,.93a.78.78,0,0,1,.26.64.85.85,0,0,1-.32.64c-1,.73-2,1.46-3.13,2.21a0,0,0,0,0,0,0s0,0,0,0h8.08a1,1,0,0,1,.71.3,1,1,0,0,1,.29.71v1.26a.94.94,0,0,1-.29.68,1,1,0,0,1-.71.3h-9.39c-.08,0-.12,0-.12.14v1.2a4.69,4.69,0,0,1-.37,2.11,2.56,2.56,0,0,1-1.36,1.1,12,12,0,0,1-4.05.53h0a1.19,1.19,0,0,1-.75-.25,1.43,1.43,0,0,1-.48-.7,10.73,10.73,0,0,0-.61-1.65.58.58,0,0,1,.07-.58.48.48,0,0,1,.48-.25h2.41a.82.82,0,0,0,.46-.1.44.44,0,0,0,.13-.35v-1.06c0-.1,0-.14-.12-.14h-9.3a.91.91,0,0,1-.7-.3.93.93,0,0,1-.28-.68v-1.26a1,1,0,0,1,.28-.71.91.91,0,0,1,.7-.3h9.3c.08,0,.12,0,.12-.11v0a1,1,0,0,1,1-1h.84a.51.51,0,0,0,.25-.06c.34-.26.61-.47.81-.64,0,0,0,0,0-.06l-.05,0h-7.23a1,1,0,0,1-1-1v-.87a1,1,0,0,1,.29-.71,1,1,0,0,1,.69-.29h10.56A.64.64,0,0,0,476.45,530.09Zm-11-4.36c-.09,0-.13,0-.11.11l0,.42c0,.08,0,.11.14.11h4.36s0,0,0,0,0,0,0-.05c-.56-.52-1-.89-1.23-1.09q-.06-.06-.06,0a.54.54,0,0,1-.15.38.5.5,0,0,1-.35.15Zm9.17-6.93a.85.85,0,0,1,.32.63.81.81,0,0,1-.29.65l-.45.37a1.19,1.19,0,0,1-.76.28,1.22,1.22,0,0,1-.75-.26l-.39-.3a.16.16,0,0,0-.22,0c-.36.24-.73.47-1.12.7a1.11,1.11,0,0,1-.8.15,1.48,1.48,0,0,1-.77-.38l-.61-.5a.65.65,0,0,1-.23-.55.54.54,0,0,1,.34-.46c.33-.16.65-.33,1-.5,0,0,.06,0,.06-.07s0,0-.06-.07a3.1,3.1,0,0,1-.34-.2.61.61,0,0,1-.33-.51.7.7,0,0,1,.22-.6l.31-.25a1.52,1.52,0,0,1,1-.37,1.5,1.5,0,0,1,.7.2l.53.28a.17.17,0,0,0,.2,0,.57.57,0,0,1,.14-.11,1.56,1.56,0,0,1,1.14-.53,1.42,1.42,0,0,1,.48.08l.7.2a.65.65,0,0,1,.44.44.61.61,0,0,1-.11.62c-.19.2-.39.42-.61.64a.1.1,0,0,0,0,.17A3.44,3.44,0,0,1,474.63,518.8Z" transform="translate(0 -495.94)"/><path class="cls-2" d="M499.64,528.52c0,.08,0,.13.09.14l2.32.28a.69.69,0,0,1,.53.37.66.66,0,0,1,0,.64c-.19.35-.38.69-.59,1,0,.07,0,.11.09.11h7.79a.93.93,0,0,1,.7.29,1,1,0,0,1,.28.71V542.3a1,1,0,0,1-1,1h-2.48a.85.85,0,0,1-.87-.86c0-.06,0-.09-.11-.09H495.28c-.07,0-.11,0-.11.09a.85.85,0,0,1-.86.86H492a.93.93,0,0,1-.68-.28.91.91,0,0,1-.3-.7V532.07a1,1,0,0,1,.3-.71.94.94,0,0,1,.68-.29h5.62a.16.16,0,0,0,.17-.11c.07-.21.2-.61.39-1.21a.09.09,0,0,0,0,0,.09.09,0,0,0-.06,0,10.09,10.09,0,0,1-2.57.28,1.15,1.15,0,0,1-.75-.27,1.23,1.23,0,0,1-.45-.68,12.84,12.84,0,0,0-.61-1.57.11.11,0,0,0-.17,0c-1.25.56-2.59,1.13-4,1.7a.92.92,0,0,1-.76,0,1,1,0,0,1-.55-.55L487.6,527a1,1,0,0,1-.09-.37.92.92,0,0,1,.65-.84c1-.29,2.23-.69,3.69-1.17.09,0,.1-.07,0-.14a16.55,16.55,0,0,0-2.51-1.79.9.9,0,0,1-.41-.6.84.84,0,0,1,.18-.68l.76-.93c.06-.07,0-.11-.06-.11H489a1,1,0,0,1-.71-.29.94.94,0,0,1-.29-.69v-1.2a.94.94,0,0,1,.29-.71,1,1,0,0,1,.71-.3h9.92a.91.91,0,0,1,.7.3,1,1,0,0,1,.28.71v8.5A4.34,4.34,0,0,1,499.64,528.52ZM495,525.84a1,1,0,0,1-.1.71,1,1,0,0,1-.52.49v.06h1.4a.37.37,0,0,0,.42-.42v-6.15c0-.09,0-.14-.11-.14h-4.36s0,0,0,.06c.61.35,1.15.69,1.62,1a.91.91,0,0,1,.39.65,1,1,0,0,1-.2.75l-1.23,1.59s0,0,0,0h0l1.32-.45a.9.9,0,0,1,.72.09.81.81,0,0,1,.42.58Zm11.4,9.34a.13.13,0,0,0,.14-.14v-.76c0-.07,0-.11-.14-.11H495.31c-.09,0-.14,0-.14.11V535a.13.13,0,0,0,.14.14Zm-11.21,3.91a.13.13,0,0,0,.14.14h11.07a.13.13,0,0,0,.14-.14v-.73a.13.13,0,0,0-.14-.14H495.31a.13.13,0,0,0-.14.14ZM512,517.2a.9.9,0,0,1,.69.3,1,1,0,0,1,.28.71v8.36a4.75,4.75,0,0,1-.3,1.91,2.26,2.26,0,0,1-1.12,1,9,9,0,0,1-3.41.48,1.23,1.23,0,0,1-.77-.27,1.26,1.26,0,0,1-.46-.68,14.54,14.54,0,0,0-.7-1.88.17.17,0,0,0-.2-.08c-.42.17-1,.39-1.81.67s-1.32.47-1.6.59a1,1,0,0,1-.76,0,1,1,0,0,1-.55-.53l-.56-1.26a.81.81,0,0,1-.08-.34,1.09,1.09,0,0,1,.08-.39.84.84,0,0,1,.56-.44c1.08-.32,2.22-.68,3.41-1.09a.1.1,0,0,0,.06-.07s0-.05,0-.05a20.48,20.48,0,0,0-2.29-1.53.83.83,0,0,1-.23-1.26l.7-.87c.06-.07,0-.11-.05-.11h-.62a1,1,0,0,1-.71-.29,1,1,0,0,1-.3-.69v-1.2a1,1,0,0,1,1-1Zm-4.84,6.27a.78.78,0,0,1,.71,0,.85.85,0,0,1,.44.59l.19,1a1,1,0,0,1-.1.8,1.28,1.28,0,0,1-.6.55l-1.2.44s0,0,0,.06q.84,0,2,0a.61.61,0,0,0,.36-.13.38.38,0,0,0,.12-.32v-6c0-.09,0-.14-.12-.14h-4s0,0,0,.06c.61.33,1.14.64,1.56.92a.87.87,0,0,1,.4.64,1,1,0,0,1-.2.76l-.78,1a0,0,0,0,0,0,.06l.05,0Z" transform="translate(0 -495.94)"/><path class="cls-2" d="M539.33,537.27a1,1,0,0,1-.28.69.93.93,0,0,1-.7.29h-3.13s0,.06,0,.06c2.85,1.15,5,2.07,6.46,2.76a.43.43,0,0,1,0,.79L538.58,543a1.72,1.72,0,0,1-.7.14,2.11,2.11,0,0,1-1.06-.3,44.8,44.8,0,0,0-5.37-2.66.42.42,0,0,1-.29-.42.47.47,0,0,1,.23-.45l1.74-1s0,0,0,0,0,0,0,0h-7.41s0,.06,0,.06l1.59.72a.53.53,0,0,1,.06.93,34.3,34.3,0,0,1-7.27,3.1,2,2,0,0,1-.53.08,1.54,1.54,0,0,1-1.12-.53q-.88-.95-1.65-1.65a.47.47,0,0,1-.15-.49.45.45,0,0,1,.38-.35,30.48,30.48,0,0,0,6.17-1.81s0,0,0,0,0,0,0,0h-2.41a.94.94,0,0,1-.68-.29,1,1,0,0,1-.3-.69v-9.75a.94.94,0,0,1,.3-.71.91.91,0,0,1,.68-.3h5.12c.07,0,.09,0,.05-.11a10.72,10.72,0,0,0-1.37-2h0s0,0,0,0a.67.67,0,0,1-.1.44.65.65,0,0,1-.35.28c-1.36.39-3.26.91-5.7,1.54a1.12,1.12,0,0,1-.78-.07A1.08,1.08,0,0,1,517,526l-.76-1.79a.68.68,0,0,1-.08-.31.81.81,0,0,1,.67-.75q1.85-.35,6.4-1.29a.85.85,0,0,1,.71.15.94.94,0,0,1,.38.66l.14,1.4a.14.14,0,0,0,.14.11,14.2,14.2,0,0,0,4.39-1.3,4.29,4.29,0,0,0,1.93-2.08c0-.09,0-.14-.09-.14h-1.25a.28.28,0,0,0-.23.11,15.54,15.54,0,0,1-1.34,1.45,1.1,1.1,0,0,1-.74.28,1.31,1.31,0,0,1-.77-.25,15.46,15.46,0,0,0-1.45-.92.53.53,0,0,1-.34-.46.62.62,0,0,1,.23-.55,12.28,12.28,0,0,0,3-3.43,1.38,1.38,0,0,1,1.2-.73h.22l1.68.28a.69.69,0,0,1,.53.39.66.66,0,0,1,0,.64l-.11.23c0,.07,0,.11.06.11h7.68a1.74,1.74,0,0,1,.45-.06,3.15,3.15,0,0,1,.61.06l1.21.31a.74.74,0,0,1,.55.43.75.75,0,0,1,0,.71,24.82,24.82,0,0,1-1.59,2.77,1.23,1.23,0,0,1-.68.53,1.4,1.4,0,0,1-.86,0l-1.31-.36a.64.64,0,0,1-.46-.44.71.71,0,0,1,.07-.65,2.33,2.33,0,0,1,.2-.34c0-.07,0-.11-.09-.11h-2.15c-.08,0-.1,0-.08.11a3.51,3.51,0,0,0,1,1.38,6.75,6.75,0,0,0,2.15,1.08,18.64,18.64,0,0,0,3.8.78.59.59,0,0,1,.45.34.83.83,0,0,1,0,.22.65.65,0,0,1-.11.34,12.44,12.44,0,0,0-1,1.76,1.38,1.38,0,0,1-.57.6,1.12,1.12,0,0,1-.8.12l-.53-.11c-.09,0-.14,0-.14.09ZM524,518a.77.77,0,0,1,.5.52.84.84,0,0,1-.09.71l-.86,1.42a1.15,1.15,0,0,1-.63.47,1,1,0,0,1-.77-.05c-1.23-.54-2.62-1.06-4.16-1.56a.77.77,0,0,1-.49-.49.71.71,0,0,1,.07-.66l.72-1.12a1.41,1.41,0,0,1,.66-.55,1.3,1.3,0,0,1,.85-.06A42.29,42.29,0,0,1,524,518Zm-.09,11a.12.12,0,0,0-.14.14v.53a.13.13,0,0,0,.14.14H535a.13.13,0,0,0,.14-.14v-.53a.12.12,0,0,0-.14-.14Zm0,3.07c-.09,0-.14,0-.14.11v.56a.13.13,0,0,0,.14.14H535a.13.13,0,0,0,.14-.14v-.56c0-.07,0-.11-.14-.11Zm0,3a.12.12,0,0,0-.14.14v.58c0,.08.05.12.14.12H535c.09,0,.14,0,.14-.12v-.58A.12.12,0,0,0,535,535Zm5.06-8.56s0,0,0,0h7.69s0,0,0,0a9,9,0,0,1-3.41-2.37c-.06-.08-.11-.08-.17,0A9.37,9.37,0,0,1,529,526.48Z" transform="translate(0 -495.94)"/><path class="cls-2" d="M550.54,525.87a.89.89,0,0,1,.39.64,1,1,0,0,1-.2.76L549.45,529a.83.83,0,0,1-.62.38,1.05,1.05,0,0,1-.72-.21,18.31,18.31,0,0,0-2.91-1.79.78.78,0,0,1-.45-.56,1.12,1.12,0,0,1,0-.2.78.78,0,0,1,.16-.47l1.09-1.48a1.37,1.37,0,0,1,.7-.46,1.13,1.13,0,0,1,.81,0A19.43,19.43,0,0,1,550.54,525.87ZM548,532.35a.76.76,0,0,1,.49-.47.81.81,0,0,1,.69.08l1.73,1.18a1.22,1.22,0,0,1,.52.64,1.27,1.27,0,0,1,0,.84c-.89,2.59-1.81,5-2.74,7.35a.9.9,0,0,1-.54.49.87.87,0,0,1-.72-.07l-2.09-1.2a1.29,1.29,0,0,1-.48-.62,1.18,1.18,0,0,1,0-.31,1,1,0,0,1,.11-.47A80.07,80.07,0,0,0,548,532.35ZM552,518.24a.88.88,0,0,1,.41.66,1,1,0,0,1-.21.74l-1.29,1.73a.94.94,0,0,1-.64.35.9.9,0,0,1-.7-.21,21.89,21.89,0,0,0-3-1.87.77.77,0,0,1-.41-.55.79.79,0,0,1,.14-.68l1.11-1.46a1.27,1.27,0,0,1,.7-.47l.31,0a1.29,1.29,0,0,1,.5.11A20.14,20.14,0,0,1,552,518.24Zm18.62,14.7a1,1,0,0,1-.29.7,1,1,0,0,1-.72.28h-3.63c-.08,0-.11.05-.11.14v5.36a6.24,6.24,0,0,1-.28,2.1,2,2,0,0,1-1.12,1.12,8.08,8.08,0,0,1-3.21.56,1.15,1.15,0,0,1-.73-.25,1.42,1.42,0,0,1-.45-.73c-.15-.6-.33-1.22-.56-1.87,0,0,0,0-.05,0l-.06,0c-.17.26-.34.52-.53.78a.94.94,0,0,1-.66.38,1.2,1.2,0,0,1-.74-.18c-.46-.32-1-.66-1.53-1a.78.78,0,0,1-.37-.57.81.81,0,0,1,.17-.66,11.53,11.53,0,0,0,1.82-3.35,1.08,1.08,0,0,1,.5-.61,1,1,0,0,1,.75-.12l1.74.42a.84.84,0,0,1,.61.43.87.87,0,0,1,.06.74,19.1,19.1,0,0,1-1.34,3c0,.08,0,.12,0,.12h1.54a.6.6,0,0,0,.32-.07.35.35,0,0,0,.1-.3v-5.25c0-.09,0-.14-.11-.14h-3.11a.94.94,0,0,1-.68-.28.91.91,0,0,1-.29-.7v-8.66a.9.9,0,0,1,.29-.7.94.94,0,0,1,.68-.28h2.86c.07,0,.12,0,.14-.14.09-.62.15-1.19.19-1.73,0-.08,0-.12-.11-.12h-4.56c-.09,0-.14,0-.14.12v4.13q0,11.36-3.41,16.94a.87.87,0,0,1-.63.39.93.93,0,0,1-.71-.17,17.83,17.83,0,0,0-1.84-1.17A.78.78,0,0,1,550,541a.83.83,0,0,1,0-.22.92.92,0,0,1,.14-.48,15.61,15.61,0,0,0,1.58-3.45,21.74,21.74,0,0,0,.9-4c.17-1.39.29-2.61.34-3.67s.09-2.27.09-3.61v-7a1,1,0,0,1,.29-.68.94.94,0,0,1,.69-.29h16.26a.94.94,0,0,1,.69.29,1,1,0,0,1,.29.68v1.74a1,1,0,0,1-.29.71.94.94,0,0,1-.69.29h-3.63a.16.16,0,0,0-.17.12l-.58,1.73c0,.09,0,.14.08.14h3.63a1,1,0,0,1,.72.28.93.93,0,0,1,.29.7Zm-9.14-6.74c-.07,0-.11,0-.11.12v.78c0,.09,0,.14.11.14h5.17c.07,0,.11,0,.11-.14v-.78c0-.08,0-.12-.11-.12Zm0,3.75c-.07,0-.11,0-.11.14v.81a.1.1,0,0,0,.11.11h5.17a.1.1,0,0,0,.11-.11v-.81c0-.09,0-.14-.11-.14Zm5,6.74a1.14,1.14,0,0,1-.08-.4,1,1,0,0,1,.06-.33.82.82,0,0,1,.53-.53l1.7-.67a1,1,0,0,1,.42-.09,1.35,1.35,0,0,1,.37.06,1.18,1.18,0,0,1,.61.53,30.91,30.91,0,0,1,1.73,3.75,1,1,0,0,1,.06.33,1.2,1.2,0,0,1-.09.45,1.15,1.15,0,0,1-.58.53l-2,.84a.8.8,0,0,1-.33.08.85.85,0,0,1-.37-.11.82.82,0,0,1-.47-.53A28.42,28.42,0,0,0,566.41,536.69Z" transform="translate(0 -495.94)"/><path class="cls-2" d="M581.66,540a3,3,0,0,1-2.22.88,3,3,0,0,1-2.22-.88,3,3,0,0,1-.88-2.25,3.08,3.08,0,0,1,.89-2.25,3.14,3.14,0,0,1,4.42,0,3.12,3.12,0,0,1,.89,2.25A3,3,0,0,1,581.66,540Zm-2.89-7.17a1.06,1.06,0,0,1-1.06-1l-.65-8.8-.14-3.52a1,1,0,0,1,.28-.7.91.91,0,0,1,.67-.28H581a.89.89,0,0,1,.67.28.94.94,0,0,1,.28.7l-.14,3.52-.64,8.8a1.06,1.06,0,0,1-.34.72,1,1,0,0,1-.72.29Z" transform="translate(0 -495.94)"/></svg>