<?xml version="1.0" encoding="utf-8"?>
<!-- Generator: Adobe Illustrator 21.0.0, SVG Export Plug-In . SVG Version: 6.00 Build 0)  -->
<svg version="1.1" id="圖層_1" xmlns="http://www.w3.org/2000/svg" xmlns:xlink="http://www.w3.org/1999/xlink" x="0px" y="0px"
	 viewBox="0 0 526.7 373.4" style="enable-background:new 0 0 526.7 373.4;" xml:space="preserve">
<style type="text/css">
	.st0{fill:#BF3F3E;}
	.st1{fill:none;stroke:#F5EF64;stroke-width:6;stroke-linecap:round;stroke-linejoin:round;stroke-miterlimit:10;}
	.st2{fill:#F2C3C3;}
	.st3{fill:#56B443;}
	.st4{fill:#564398;}
</style>
<g>
	<g>
		<path class="st0" d="M215.1,156.4c0,0-7.4,8.4-19.5,27.9c-3.5,5.6-18.8,12.3-23.7,16.7c-21.8,19.7-25.1,71.6,20.9,82.6
			c46.1,11,101.9,21.3,136.8,0c34.9-21.3,70.5-66.6,49.6-102.1c-7.7-13-27.7-26.8-39.6-38.6c-20.7-20.5-42.2-36.2-44.8-37
			C290.4,104.7,215.1,156.4,215.1,156.4z"/>
		<path class="st1" d="M289.8,106c-7.5,23-24.8,21.6-24.8,31.4c0,9.8-45.7,28.1-50.9,8.6c-0.6-2.4-1.8-5.4-3.2-8.7"/>
		<g>
			<path class="st0" d="M319.1,45c0,0-18.2,40.6-26.4,61.7c-8.2,21.1-27.3,19.8-27.3,28.8c0,9-50.3,25.8-56,7.9
				c-5.7-17.9-57.6-53.8-62-57.6C142.9,81.9,322.5-10,319.1,45z"/>
			<path class="st2" d="M184.9,38.9c45.4,0.4,53.7-36.1,75.6-28.5c27.1,9.5,66.4,20.4,58,40.2c-15.2,35.8-60,15.1-60,15.1
				s-15.7-6.4-25.8,12.8c-7.3,13.8,24.2-6.8,8.9,15.2c-15.6,22.4-64,38.1-61.9,9.5c0,0,2.5-11.9,9.3-30.3
				c6.8-18.3-43.5,23.3-43.1,9.2C146.2,68.2,139.4,38.5,184.9,38.9z"/>
			<path class="st0" d="M184.9,35.2c45.4,0.4,53.7-36.1,75.6-28.5c27.1,9.5,66.4,20.4,58,40.2c-15.2,35.8-60,15.1-60,15.1
				S240,57,229.9,76.1c-10.1,19.2,21.1,0.4,9.3,17.5c-15.6,22.4-59.4,33.7-57.3,5.2c0,0,3.4-9.9,10.1-28.3
				c6.8-18.3-46.7,22.1-46.3,8C146.2,64.5,139.4,34.8,184.9,35.2z"/>
			<path class="st0" d="M183.1,115.5c0,0,18.5,15.3,22.7,25.8c2.4,6,7.2,5.5,8.6-0.9c1-4.8-1.1-15.3-1.1-15.3s12.2-11.3-12.5-4
				C196.3,122.3,191.3,120,183.1,115.5z"/>
		</g>
		<path class="st1" d="M278.3,123.7c0,0,22.7,0.5,28.6,36.1c5.9,35.6,8.7,47.5,17.7,55.8"/>
		<path class="st1" d="M270.9,123.7c0,0-36.7-27.1-33.4-3.9c3.3,23.3,25.5,31.8,40.9,34.8C293.7,157.6,270.9,123.7,270.9,123.7z"/>
		<path class="st1" d="M272.8,123.7c0,0-2.4-16,5.6-26.2c7.9-10.2,19.9,18.2,28.6,27.9C315.6,135.2,272.8,123.7,272.8,123.7z"/>
		<path class="st1" d="M278.3,129.4c0,0,15.4,17,11.5,36.5c-4,19.5-13.8,28.9-11.5,42.3c2.3,13.5,12.8,35.4,23.2,41.9"/>
	</g>
	<g>
		<path class="st3" d="M445.1,231.3c0,0,7.1,7.9,18.8,26.1c3.4,5.3,18.1,11.5,22.8,15.6c21,18.5,24.2,67.1-20.1,77.4
			c-44.3,10.3-98,19.9-131.5,0s-67.8-62.4-47.6-95.7c7.4-12.2,26.6-25.1,38.1-36.1c19.9-19.2,40.5-33.9,43.1-34.6
			C372.6,182.9,445.1,231.3,445.1,231.3z"/>
		<path class="st1" d="M373.2,184c7.2,21.6,23.8,20.3,23.8,29.4c0,9.2,43.9,26.4,48.9,8.1c0.6-2.3,1.7-5.1,3.1-8.2"/>
		<g>
			<path class="st3" d="M345.1,127c0,0,17.5,38,25.4,57.8c7.9,19.8,26.2,18.6,26.2,27c0,8.4,48.4,24.1,53.9,7.4
				c5.5-16.8,55.3-50.4,59.6-53.9C514.4,161.5,341.8,75.5,345.1,127z"/>
			<path class="st2" d="M474.1,121.3c-43.7,0.4-51.6-33.8-72.6-26.7c-26,8.9-63.8,19.1-55.7,37.7c14.6,33.5,57.7,14.2,57.7,14.2
				s15.1-6,24.8,11.9c7,12.9-23.2-6.4-8.5,14.3c15,21,61.5,35.7,59.5,8.9c0,0-2.4-11.2-8.9-28.3c-6.5-17.2,41.9,21.8,41.4,8.6
				C511.3,148.7,517.8,120.9,474.1,121.3z"/>
			<path class="st3" d="M474.1,117.8c-43.7,0.4-51.6-33.8-72.6-26.7c-26,8.9-63.8,19.1-55.7,37.7c14.6,33.5,57.7,14.2,57.7,14.2
				s17.7-4.8,27.4,13.2c9.8,18-20.3,0.4-8.9,16.4c15,21,57.1,31.6,55,4.8c0,0-3.2-9.3-9.7-26.5c-6.5-17.2,44.9,20.7,44.5,7.5
				C511.3,145.2,517.8,117.4,474.1,117.8z"/>
			<path class="st3" d="M475.8,193c0,0-17.8,14.4-21.8,24.1c-2.3,5.6-6.9,5.2-8.3-0.8c-1-4.5,1-14.4,1-14.4s-11.7-10.5,12-3.8
				C463.1,199.4,467.9,197.2,475.8,193z"/>
		</g>
		<path class="st1" d="M384.3,200.7c0,0-21.9,0.5-27.5,33.9c-5.6,33.3-8.3,44.5-17,52.3"/>
		<path class="st1" d="M391.4,200.7c0,0,35.3-25.4,32.2-3.6c-3.1,21.8-24.6,29.8-39.3,32.6C369.5,232.4,391.4,200.7,391.4,200.7z"/>
		<path class="st1" d="M389.6,200.7c0,0,2.3-15-5.3-24.6c-7.6-9.6-19.2,17-27.5,26.2C348.4,211.4,389.6,200.7,389.6,200.7z"/>
		<path class="st1" d="M384.3,206c0,0-14.8,15.9-11,34.2c3.8,18.3,13.3,27,11,39.7c-2.3,12.6-12.3,33.1-22.3,39.2"/>
	</g>
	<g>
		<path class="st4" d="M76.6,238c0,0-6.6,7.5-17.5,25c-3.1,5-16.9,11-21.3,15c-19.6,17.7-22.5,64.1,18.8,74s91.3,19.1,122.5,0
			s63.1-59.7,44.4-91.5c-6.9-11.6-24.8-24-35.5-34.5c-18.5-18.3-37.7-32.4-40.1-33.1C144.1,191.7,76.6,238,76.6,238z"/>
		<path class="st1" d="M143.5,192.8c-6.7,20.6-22.2,19.4-22.2,28.1c0,8.8-40.9,25.2-45.6,7.7c-0.6-2.2-1.6-4.8-2.9-7.8"/>
		<g>
			<path class="st4" d="M169.7,138.2c0,0-16.3,36.3-23.7,55.2c-7.4,18.9-24.4,17.8-24.4,25.8c0,8-45.1,23.1-50.2,7.1
				c-5.1-16-51.5-48.1-55.5-51.6C12,171.3,172.8,89,169.7,138.2z"/>
			<path class="st2" d="M49.5,132.8c40.7,0.4,48.1-32.4,67.7-25.5c24.2,8.5,59.4,18.3,51.9,36c-13.6,32.1-53.7,13.5-53.7,13.5
				s-14-5.8-23.1,11.4c-6.5,12.4,21.6-6.1,7.9,13.6C86.3,202,42.9,216,44.8,190.4c0,0,2.3-10.7,8.3-27.1c6.1-16.4-39,20.8-38.6,8.3
				C14.9,159,8.8,132.4,49.5,132.8z"/>
			<path class="st4" d="M49.5,129.4c40.7,0.4,48.1-32.4,67.7-25.5c24.2,8.5,59.4,18.3,51.9,36c-13.6,32.1-53.7,13.5-53.7,13.5
				s-16.5-4.6-25.5,12.6c-9.1,17.2,18.9,0.4,8.3,15.7c-13.9,20.1-53.2,30.2-51.3,4.6c0,0,3-8.9,9.1-25.3
				c6.1-16.4-41.8,19.8-41.4,7.2C14.9,155.6,8.8,129.1,49.5,129.4z"/>
			<path class="st4" d="M48,201.3c0,0,16.5,13.7,20.3,23.1c2.2,5.3,6.5,4.9,7.7-0.8c0.9-4.3-0.9-13.7-0.9-13.7s10.9-10.1-11.2-3.6
				C59.8,207.5,55.3,205.4,48,201.3z"/>
		</g>
		<path class="st1" d="M86.4,231.9c0,0-17.5,0.5-22,32.4c-4.5,31.9-6.6,42.5-13.6,50"/>
		<path class="st1" d="M92.2,231.9c0,0,28.2-24.3,25.7-3.5c-2.5,20.8-19.6,28.5-31.4,31.1C74.6,262.2,92.2,231.9,92.2,231.9z"/>
		<path class="st1" d="M90.7,231.9c0,0,1.8-14.3-4.3-23.5c-6.1-9.2-15.3,16.3-22,25C57.8,242.2,90.7,231.9,90.7,231.9z"/>
		<path class="st1" d="M86.4,237c0,0-11.9,15.2-8.8,32.7c3.1,17.5,10.6,25.8,8.8,37.9c-1.8,12.1-9.8,31.7-17.8,37.5"/>
	</g>
</g>
</svg>
