<svg xmlns="http://www.w3.org/2000/svg" viewBox="0 0 957.57 141.07"><defs><style>.a{fill:#f08b68;}.b{fill:#e71f19;}</style></defs><title>03_2_2</title><polygon class="a" points="957.57 0 0 64.58 0 141.07 957.57 76.5 957.57 0"/><path class="b" d="M380,1013.5l13.57,12.15,12.15-13.57,1.19,1.07-12.15,13.57,13.57,12.15-1.07,1.19-13.57-12.15-12.18,13.61-1.19-1.07,12.18-13.61L379,1014.69Zm2.69,16.81a2.93,2.93,0,1,1,2.76-3.08A2.95,2.95,0,0,1,382.73,1030.31Zm7.41-14.48a2.93,2.93,0,1,1,3.08,2.76A2.95,2.95,0,0,1,390.14,1015.83Zm7.07,21.89a2.93,2.93,0,1,1-3.08-2.76A2.95,2.95,0,0,1,397.21,1037.72Zm7.41-14.48a2.93,2.93,0,1,1-2.76,3.08A2.95,2.95,0,0,1,404.62,1023.24Z" transform="translate(-228.53 -938.67)"/><path class="b" d="M419.83,1034.08l-1.51-27.24,13.09-.72.15,2.69-10.36.57,1.36,24.55Z" transform="translate(-228.53 -938.67)"/><path class="b" d="M444.77,1012.85l2.38,1.24a.85.85,0,0,1-.56.46,43.6,43.6,0,0,1-3.4,8.39c.37.41.83.85,1.29,1.37a44.92,44.92,0,0,0,2.12-4l2.72,1.8a.85.85,0,0,1-.85.24,43.2,43.2,0,0,1-2.41,3.73c1,1.15,2,2.23,2.38,2.68l-2,2.61c-.77-1.13-2.2-3-3.54-4.73l.87,15.7-3.39.19-.76-13.75a37.67,37.67,0,0,1-3.78,4.39,15.55,15.55,0,0,0-2-3.17,34.18,34.18,0,0,0,8.83-13.5L434,1017l-.18-3.31,4.75-.26-.4-7.17,4.3,0c0,.31-.25.52-.82.63l.35,6.31,2.18-.12Zm25.11.37-9.47.52.18,3.23,8.14-.45,1.14,20.69c.16,3-1,3.81-5.48,4.06a12.67,12.67,0,0,0-1.35-3.21c1.29,0,2.46-.1,2.85-.12s.5-.14.48-.57l-.23-4.13-4.64.26.42,7.64-3.51.19-.42-7.64-4.44.25.43,7.79-3.43.19-1.34-24.31,7.87-.44-.18-3.24-9.47.52-.18-3.31,9.47-.52-.31-5.57,4.42,0c0,.31-.24.56-.86.67l.26,4.67,6-.33a27.41,27.41,0,0,0-5.05-3.08l1.92-2.06a24.2,24.2,0,0,1,5.57,3.17l-1.65,1.93,2.73-.15Zm-12.62,7.11-4.44.25.19,3.51,4.44-.25Zm-3.88,10.38,4.44-.24-.2-3.55-4.44.25Zm12-10.83-4.64.26.19,3.51,4.64-.26Zm-4.07,10.39L466,1030l-.2-3.55-4.64.26Z" transform="translate(-228.53 -938.67)"/><path class="b" d="M504.86,1023.16a27.87,27.87,0,0,0-2.38-2.8c-9.32,1.06-19.16,2-25.41,2.62a.79.79,0,0,1-.67.62l-1.45-4.26c1.71-.13,3.78-.25,6.07-.45a67.93,67.93,0,0,0,3-7.36l-10.83.6-.19-3.51,15.31-.85-.25-4.52h4.77c0,.31-.28.56-.9.71l.2,3.58,15.59-.86.19,3.51-19.13,1.06.24.07c-.1.28-.44.45-1,.48a73.58,73.58,0,0,1-3.14,6.78c4.48-.33,9.49-.76,14.44-1.19a62.67,62.67,0,0,0-5.11-4.09l2.94-2c3.86,2.72,8.58,6.72,10.85,9.56Zm-16.14.11c-.06.32-.32.57-.9.67-.44,7.61-1.73,13.19-11.82,16.64a10.68,10.68,0,0,0-2.28-3c9.19-2.81,10.18-7.36,10.3-14.44Zm10,10.78c.07,1.29.32,1.47,1.76,1.39l4.44-.25c1.48-.08,1.66-1,1.54-6.69a10.13,10.13,0,0,0,3.44,1.33c0,6.84-.85,8.65-4.48,8.85l-5.22.29c-3.9.22-5-.9-5.19-4.72l-.66-12H499c0,.31-.28.56-.9.68Z" transform="translate(-228.53 -938.67)"/><path class="b" d="M547.91,1010.7l-2.49.14c-.52,6.09-1.64,11.27-3.71,15.56a19,19,0,0,0,7.81,6.88,14.88,14.88,0,0,0-2.43,3.34,21.34,21.34,0,0,1-7.44-6.62,24.23,24.23,0,0,1-8.57,7.51,17.93,17.93,0,0,0-2.16-3,20,20,0,0,0,8.55-7.94,52.41,52.41,0,0,1-3.59-9.06A22.54,22.54,0,0,1,532,1021a17.8,17.8,0,0,0-2.62-2.12,1.76,1.76,0,0,1-.19,0,36.8,36.8,0,0,1-5.47,5.74l.07,1.25c2.63-.42,5.42-.89,8.09-1.35l.2,3c-2.71.54-5.49,1.09-8.12,1.58l.28,5.06c.18,3.24-1.08,3.73-7,4.06a10.87,10.87,0,0,0-1.27-3.1c4.76-.15,4.76-.22,4.72-.85l-.25-4.52c-2.4.44-4.6.84-6.35,1.13a.83.83,0,0,1-.63.66l-1.42-3.83c2.21-.32,5.08-.75,8.21-1.28l-.19-3.47h1.45a26.36,26.36,0,0,0,2.51-2.6l-4,.22a40,40,0,0,1-6,5,29.48,29.48,0,0,0-2.53-2.56,32.59,32.59,0,0,0,3.65-2.62l-.14-2.49,3-.17q1.17-1.18,2.21-2.47l-8.77.49-.18-3.23,6.51-.36-.19-3.39-4.75.26-.18-3.16,4.75-.26-.22-4h4.34c0,.31-.24.56-.86.67l.17,3.16,4.52-.25.11,1.91a45.18,45.18,0,0,0,2.1-5.12l4.13,1.14a.89.89,0,0,1-1,.48,50.65,50.65,0,0,1-3.85,8.07l3.9-.22.18,3.23-6.27.35q-.93,1.28-1.86,2.45l3.86-.22.54-.19,2.14,1.21c2.47-4.08,3.89-10.92,4.49-17.64l4.53.69c-.1.32-.36.53-.91.56-.24,2-.52,4-.92,5.91l11.07-.61ZM521.29,1012l1.52-.08c.72-1.14,1.43-2.31,2.07-3.51l-3.78.21Zm14.58-.65,0,.2a53.7,53.7,0,0,0,3.57,10.78,43.46,43.46,0,0,0,2.23-11.3Z" transform="translate(-228.53 -938.67)"/><path class="b" d="M561.28,1013.71c1.4,1.25,5.41,5.33,6.37,6.33l-2.13,3.24a50.39,50.39,0,0,0-4-5.13l1,17.57-3.59.2-1-17.73a39.1,39.1,0,0,1-5.09,11.07,17.92,17.92,0,0,0-2.1-3.4c2.7-3.43,5.19-9.32,6.35-14.58l-6.12.34-.19-3.51,6.58-.36-.46-8.3h4.49c0,.35-.24.56-.86.71l.41,7.4,5.65-.31.19,3.51-5.65.31Zm25.73-7.6.19,3.51-4.13.23,1.1,19.91c.22,3.93-.86,4.89-8.81,5.33a17.07,17.07,0,0,0-1.46-3.87c1.44,0,2.85-.08,3.94-.14,2.53-.14,2.65-.15,2.6-1.12l-.86-15.47a47.38,47.38,0,0,1-10.73,14.43,13.35,13.35,0,0,0-2.78-2.82c4.62-3.46,9.26-9.89,11.82-16l-10.21.56-.19-3.51,11.65-.65-.46-8.26,4.69,0c-.06.36-.28.6-.9.71l.41,7.36Z" transform="translate(-228.53 -938.67)"/><path class="b" d="M601.52,1006.29l1.5,27.2-13.05.72-.15-2.69,10.36-.57-1.36-24.51Z" transform="translate(-228.53 -938.67)"/><path class="b" d="M641.27,997.21c.34,6.9.64,15.87.62,21.73l4-.22.19,3.43-36.08,2-.19-3.43,3.93-.22-1.93-21.39,2.29.5a40.25,40.25,0,0,0,4.86-3.24l3.19,2.64a1,1,0,0,1-.85.2,57.24,57.24,0,0,1-5.89,3l.32,3.62,5-.28.17,3.08-4.91.27.39,4.2,4.75-.26.17,3.08-4.68.26.39,4.12,6.23-.35-.49-8.8,3.83,0c0,.27-.25.48-.79.59l.44,8,3.12-.17-.58-10.4-6.08.34L622,996.24h4.07c0,.31-.28.52-.82.63l.17,3,6.55-.36.17,3.08-6.55.36.19,3.51,6-.33.74,13.33,5.88-.33q.07-1.88,0-4.11l-4.44.25-.17-3.12,4.6-.25-.12-4.21-4.64.26-.17-3.08,4.71-.26c0-1.37-.07-2.73-.14-4l-5.26.29-.18-3.19Zm-16.39,28.62a1.7,1.7,0,0,1-.77.28,56.73,56.73,0,0,1-10.56,6.88,26.38,26.38,0,0,0-3-2.45,44.72,44.72,0,0,0,10.64-6.84Zm18,5.57a89.46,89.46,0,0,0-11.5-5.89l2.59-2.61a116.53,116.53,0,0,1,12.32,5.77Z" transform="translate(-228.53 -938.67)"/><path class="b" d="M653.62,1021.15l-1.51-27.23,13.09-.72.15,2.69-10.36.57,1.36,24.55Z" transform="translate(-228.53 -938.67)"/><path class="b" d="M684.13,1008.28l-10.95.61,1.14,20.69-3.66.2-1.93-34.91,14.61-.81ZM680,997.18l-7.44.41.16,2.81,7.44-.41Zm-7,8.83,7.44-.41-.17-3-7.44.41ZM694,1022.9l-11.57.64.13,2.3-3.43.19-.79-14.22,15-.83Zm-4-8.65-8.1.45.32,5.77,8.1-.45Zm11.45-21.19,1.67,30.2c.25,4.48-1.81,4.79-9.05,5.19a12.8,12.8,0,0,0-1.49-3.71c1.48,0,3-.09,4.21-.16,2.49-.14,2.65-.15,2.59-1.16l-.88-15.9-11.22.62-.79-14.26Zm-3.58,3.09-7.67.42.16,2.84L698,999Zm-7.21,8.92,7.67-.42-.17-3-7.67.42Z" transform="translate(-228.53 -938.67)"/><path class="b" d="M718.18,1016.79l.29,5.22c2.86.9,6.42.9,10.67.66,2.18-.12,12.35-.68,15.08-.91a9.32,9.32,0,0,0-1.08,3.15l-13.83.76c-8.1.45-13.57-.11-17.23-4.87a14.61,14.61,0,0,1-2.67,6.83,8.91,8.91,0,0,0-2.18-2c2.18-3,2.41-8.07,2.26-12.75l3.8.1c0,.31-.25.52-.75.63,0,1.09,0,2.19-.05,3.32a10.26,10.26,0,0,0,2.73,3.41l-.55-9.86-7.6.42-.16-2.81,17.73-1,.16,2.81-7,.39L718,1014l6.23-.34.15,2.77Zm3.51-24.86.7,12.62-13.52.75-.7-12.62Zm-3.15,5.25-.14-2.49-6.82.38.14,2.49Zm.28,5-.14-2.53-6.82.38.14,2.53Zm14.07,14.07a.79.79,0,0,1-.84.4,26.1,26.1,0,0,1-6.47,5.32,18.4,18.4,0,0,0-2.3-2,18.43,18.43,0,0,0,6-4.83Zm-7.4-18.58,4.48-.25c.3-1,.59-2,.85-3.06l-7.29.4-.15-2.73,18.39-1,.15,2.73-7.83.43c-.3,1-.67,2.07-1,3.07l7.13-.39,1,17.49-14.69.81Zm11.54,4.4-.13-2.42-8,.44.13,2.42Zm.27,4.91-.13-2.46-8,.44.13,2.45Zm.27,4.95-.14-2.49-8,.44.14,2.49Zm3.35,9a46.56,46.56,0,0,0-5.72-4.53l2.3-1.54a55.68,55.68,0,0,1,6.47,4.61Z" transform="translate(-228.53 -938.67)"/><path class="b" d="M745.08,998.58l-.16-3,15.74-.87.16,3Zm13.89-9,.16,2.89-12.23.68-.16-2.88Zm-11.72,14.21-.16-2.88,12.47-.69.16,2.88Zm.29,5.3-.16-2.88,12.47-.69.16,2.88Zm12.49,1.81.65,11.69-9.2.51.09,1.68-3.23.18-.74-13.37Zm-3.15,3.14-5.88.33.32,5.73,5.88-.33Zm24.71-18.25.2,3.54-4.6.26,1.07,19.33c.23,4.21-1.29,4.92-9,5.35a17,17,0,0,0-1.54-3.82c1.56,0,3-.09,4.21-.15,2.65-.15,2.77-.15,2.71-1.17l-1.07-19.33-12,.66-.2-3.54,12-.66-.48-8.77,4.57,0c0,.35-.2.6-.86.71l.44,7.87Zm-15.39,8a39.16,39.16,0,0,1,5.44,8.65l-3.14,1.93a41.07,41.07,0,0,0-5.3-8.93Z" transform="translate(-228.53 -938.67)"/><path class="b" d="M797.55,992.7l.16,3-13.68.76-.16-3Zm-1.61-5.15.16,2.88-10.4.58-.16-2.88Zm.71,10.63.16,2.88-10.75.6-.16-2.88Zm-10.3,8.78-.16-2.88,10.75-.59.16,2.88Zm10.93,1.9.64,11.61-7.83.43.1,1.75-3,.17-.74-13.37Zm-2.91,3.13-4.75.26.32,5.73,4.75-.26Zm8-14.75a36.13,36.13,0,0,1-3.69,3.25,13.94,13.94,0,0,0-2-2.9,31.85,31.85,0,0,0,9.74-12l4.34,0a.76.76,0,0,1-.59.58,34.79,34.79,0,0,0,11,9.48,19.78,19.78,0,0,0-1.85,3.38,39.72,39.72,0,0,1-10.95-9.95,36.47,36.47,0,0,1-5.81,8l12.78-.71.17,3.08-12.94.72Zm16.76,4.9.89,16.09c.15,2.77-.83,3.33-4.61,3.54a11.37,11.37,0,0,0-1.09-2.83c1,0,1.79-.06,2.1-.08s.42-.14.4-.49l-.28-5.1-2.84.16.44,8-2.53.14-.44-8-2.77.15.44,8-2.49.14-.44-8-2.65.15.47,8.42-3.12.17-1.07-19.36Zm-16,8.86,2.65-.15-.27-4.95-2.65.15Zm5.14-.28,2.77-.15-.27-4.95-2.77.15Zm5.3-.29,2.84-.16-.27-4.95-2.84.16Z" transform="translate(-228.53 -938.67)"/><path class="b" d="M835.31,993.35l1.5,27.2-13.06.72-.15-2.69L834,1018l-1.36-24.51Z" transform="translate(-228.53 -938.67)"/><path class="b" d="M854.87,984.61c-.14.32-.44.45-1,.48a71.29,71.29,0,0,1-3,7.9l1.23.28c0,.31-.28.52-.83.63l1.43,25.83-3.62.2-1.17-21.12a49.54,49.54,0,0,1-3.72,5.52,39.34,39.34,0,0,0-2-3.56c3.33-4,6.56-10.76,8.38-17.39Zm22,10.43,2,.08c0,.31,0,.78,0,1.17.09,13.56-.22,18.58-1.57,20.29-1.13,1.55-2.28,1.81-5.56,2-1,.06-2.11.08-3.28.1a8.27,8.27,0,0,0-1.37-3.52c2.31.07,4.46,0,5.31-.06a2.05,2.05,0,0,0,1.6-.64c1-1.15,1.35-5.35,1.27-15.9l-3.43.19-.18,2.51-3.56-.08c.29-3.92.52-9.06.62-12.85l-6.31.35c.34,10.3.42,23.19-6.37,31a10.7,10.7,0,0,0-3-2.41c6.07-6.78,6-18.39,5.54-28.41l-3.82.21-.19-3.35,15.12-.84.78-.12,1.93.21a5.75,5.75,0,0,1-.07.79c0,2.42-.14,6-.33,9.55l4-.22Z" transform="translate(-228.53 -938.67)"/><path class="b" d="M918.15,1001.62l-16.33.9c-.23.83-.49,1.75-.79,2.58l13.79-.76.47,8.42c.17,3.08-1.09,3.54-5.65,3.79a15.05,15.05,0,0,0-1.26-3c.78,0,1.48,0,2,0,1.21-.07,1.32-.07,1.29-.62l-.31-5.57-5,.28.49,8.81-3.35.19-.49-8.81-4.83.27.49,8.81-3.39.19-.49-8.81-4.68.26.5,9-3.51.19-.65-11.81,11-.61c.23-.83.45-1.71.6-2.58l-15.43.85-.16-2.88,35.46-2ZM886,990.11l.28,5.07-3.31.18-.42-7.64,15.08-.83-.11-1.95-12.62.7-.16-2.88,28.91-1.6.16,2.88-12.74.71.11,1.95,15.31-.85.42,7.64-3.43.19-.28-5.07-11.88.66.51,9.27-3.55.2-.51-9.27Zm1.31,8.17-.13-2.34,9.16-.51.13,2.34Zm.5-6.48,8.26-.46.13,2.34-8.26.46Zm15.35-.85,8.42-.47.13,2.34-8.42.47Zm.36,6.43-.13-2.34,9.39-.52.13,2.34Z" transform="translate(-228.53 -938.67)"/><path class="b" d="M955.13,979.22l1.71,30.82c.19,3.35-1.07,4-6.84,4.29a11,11,0,0,0-1.23-3.14c.86,0,1.72-.06,2.46-.1,2.26-.13,2.3-.13,2.26-.87L952,982.67l-13.52.75,1.74,31.48-3.31.18-.37-6.62-2.75,1.13a42,42,0,0,0-2.58-7.17l2.64-1a40.52,40.52,0,0,1,2.68,6.85l-.48-8.65-2.43,1.23c-.19-.61-.47-1.34-.78-2.15l-2.64.34.9,16.33-3.24.18-.89-16.13c-1.87.18-3.53.39-4.86.5a.71.71,0,0,1-.59.58l-1-3.78,2.65-.19c.69-1,1.41-2.07,2.13-3.21a36.77,36.77,0,0,0-5-5.39c.76-1.06,1.23-1.83,1.69-2.56.37.29.74.62,1.11,1a61.34,61.34,0,0,0,2.72-7.3l3.75,1.32a1,1,0,0,1-.91.44,60.25,60.25,0,0,1-3.45,7.5,24.53,24.53,0,0,1,1.83,2,73.2,73.2,0,0,0,3.44-7l3.64,1.44a1,1,0,0,1-.91.44,100.76,100.76,0,0,1-6.73,11.08l5-.39a31.39,31.39,0,0,0-2-3.29L932,991.4a39.23,39.23,0,0,1,3.94,6.93l-1-18Zm-28.64,23.47c-.06.28-.33.45-.79.47a34.09,34.09,0,0,1-1.75,9.4,20.6,20.6,0,0,0-2.68-1.1,33.12,33.12,0,0,0,1.51-9.42Zm24.89-12.83.16,2.84-11.49.64-.16-2.84,1.87-.1a19.18,19.18,0,0,0-1.84-5l2.25-.95a21.44,21.44,0,0,1,2,5.16l-1.79.77,5.46-.3-1.43-.51a39.43,39.43,0,0,0,1.6-5.68l3.33.95c-.06.28-.37.41-.84.44-.4,1.31-1.15,3.31-1.77,4.75Zm-6.31,14.46c.05,1,.23,1.28.85,1.24l3.74-.21a12.49,12.49,0,0,0,2.09-.27c.08.78.31,2.13.43,2.87a8.13,8.13,0,0,1-2.32.36l-3.78.21c-3.19.18-4-.88-4.13-4.07l-.26-4.67-1.48.08-.16-2.84,4.25-.24-.2-3.66h4c0,.31-.28.53-.83.63l.16,2.84,4.44-.25.16,2.84-7.25.4Z" transform="translate(-228.53 -938.67)"/><path class="b" d="M991,979.23l2.52,1a1.45,1.45,0,0,1-.44.53,29.77,29.77,0,0,1-4.86,10.35,25.26,25.26,0,0,0,8.94,4.7A14.39,14.39,0,0,0,995,999c-.32-.1-.6-.24-.92-.34l.72,13-3.55.2-.08-1.4-8.85.49.08,1.52-3.43.19-.71-12.82c-.53.3-1.06.61-1.59.87a14.31,14.31,0,0,0-1.35-1.8l-4.72.26.35,6.39,5.62-1.64.52,3.1c-5.26,1.74-10.91,3.46-14.48,4.55a.71.71,0,0,1-.51.65l-1.66-3.82,1.93-.5-.74-13.4,3.91,0c0,.31-.25.52-.82.63l.66,12,2.31-.64L966.84,991l-5.3.29-.69-12.51L974,978l.56,10.13A29.43,29.43,0,0,0,980.82,976l4.2,1c-.1.28-.41.45-.91.44-.23.79-.5,1.55-.77,2.35l7-.39Zm-26.71,2.53.34,6.12,6.47-.36-.34-6.12Zm11.44,13.87.09,1.68a27.35,27.35,0,0,0,7.71-6.09,32.45,32.45,0,0,1-3.5-4.62,26.8,26.8,0,0,1-3.17,4.16,22,22,0,0,0-2.25-1.83l.09,1.6-4.52.25.28,5.14Zm16,2a28.31,28.31,0,0,1-5.69-3.91,34.32,34.32,0,0,1-5.1,4.5Zm-10-14.06a29,29,0,0,0,3.88,5.14,26.2,26.2,0,0,0,3.11-6l-6.74.37Zm.48,24.2,8.85-.49-.36-6.43-8.85.49Z" transform="translate(-228.53 -938.67)"/><path class="b" d="M1001.26,975.88a28.56,28.56,0,0,1,6.66,6l-2.87,2.46a29.67,29.67,0,0,0-6.48-6.24Zm6,14.13.7,12.7c2.89,4.14,8.07,3.85,15,3.47,4.48-.25,9.85-.66,13.26-1.12a17.36,17.36,0,0,0-1,3.69c-2.91.28-7.35.6-11.37.82-8.49.47-13.4.74-17.28-3.69-1.58,1.73-3.21,3.42-4.58,4.75a.74.74,0,0,1-.39.77l-2.13-3.83a62,62,0,0,0,5-4.38l-.53-9.54-4.79.26-.19-3.43Zm13.1,15-.21-3.82-10.87.6-.17-3.08,10.87-.6-.13-2.34-8.46.47-.72-13.05,8.46-.47-.13-2.26-10.29.57-.17-3,10.29-.57-.2-3.55,4.5,0c0,.31-.24.56-.82.67l.15,2.65,10.79-.6.17,3-10.79.6.13,2.26,8.84-.49.72,13.05-8.84.49.13,2.34,11.38-.63.17,3.08-11.38.63.21,3.82Zm-6.11-19.32.14,2.53,5-.28-.14-2.53Zm.42,7.68,5-.28-.14-2.57-5,.28Zm13.49-8.45-5.26.29.14,2.53,5.26-.29Zm.42,7.68-.14-2.57-5.26.29.14,2.57Z" transform="translate(-228.53 -938.67)"/><path class="b" d="M1050.9,994.32a17.16,17.16,0,0,0-.82-2.1l-2.68.34.9,16.33-3.27.18-.89-16.13c-1.94.19-3.69.4-5.09.52a.74.74,0,0,1-.63.58l-1-3.78,2.72-.19c.69-.94,1.41-2,2.09-3.16a34.55,34.55,0,0,0-5.06-5.27l1.69-2.56c.37.29.74.58,1.11.92a56.13,56.13,0,0,0,2.87-7.43l3.82,1.35a1,1,0,0,1-.92.4,58.1,58.1,0,0,1-3.68,7.63,20.75,20.75,0,0,1,1.91,2c1.39-2.46,2.66-5,3.59-7.12l3.72,1.48a1.22,1.22,0,0,1-1,.41,98.34,98.34,0,0,1-6.81,11.09l5.22-.37a35.72,35.72,0,0,0-2.06-3.32l2.63-1.28a33.39,33.39,0,0,1,4.43,8Zm-7.28,1.89c-.06.39-.4.49-.79.47a33.49,33.49,0,0,1-1.94,9.45,18.53,18.53,0,0,0-2.72-1.14,34,34,0,0,0,1.71-9.43Zm7.35-1.31a39.78,39.78,0,0,1,2.8,6.76c-.8.32-1.57.67-2.87,1.21a39.59,39.59,0,0,0-2.65-6.93Zm8.42-1.87,2.07.71a.73.73,0,0,1-.33.49c-1,6.27-3.63,10.68-7.48,13.19a14.37,14.37,0,0,0-2.44-2.41,14.33,14.33,0,0,0,6.28-8.67l-4.75.26-.17-3.12,6.23-.35Zm5.44-3.39c.08,1.4,1.53,4.41,2.27,5.74a43.45,43.45,0,0,0,4.19-4.69c3.09,2.17,3.29,2.28,3.49,2.39-.14.24-.53.34-1,.29a59,59,0,0,1-5,4.5,16.34,16.34,0,0,0,7,5.24,14.48,14.48,0,0,0-2.1,3.09,18.88,18.88,0,0,1-8.35-8.29l.35,6.27c.18,3.23-1,3.77-6.38,4.07a13.59,13.59,0,0,0-1.11-3.14c.78,0,1.56,0,2.18-.08,2-.11,2-.15,2-.69l-.8-14.5-7.48.41-.79-14.26,6-.33a29.74,29.74,0,0,0,1.34-4.14l4.62.8c-.1.32-.41.45-.91.52-.31.76-.76,1.68-1.22,2.61l9-.5.79,14.26Zm-8.11-10.93.16,2.84,11.88-.66-.16-2.84Zm.31,5.57.16,2.89,11.88-.66-.16-2.88Z" transform="translate(-228.53 -938.67)"/></svg>