<svg xmlns="http://www.w3.org/2000/svg" viewBox="0 0 970.15 227.18"><defs><style>.a{fill:#f08b68;}.b{fill:#2455a5;}</style></defs><title>03_2_1</title><polygon class="a" points="970.15 227.18 0 152.25 0 0 970.15 74.84 970.15 227.18"/><path class="b" d="M288.91,752.21a1.7,1.7,0,0,1,1.25.51,1.64,1.64,0,0,1,.51,1.2V768a.69.69,0,0,0,.1.39,7.51,7.51,0,0,0,3.5,3.25,15.4,15.4,0,0,0,5.79,1.2q2.88.15,7.24.15,2,0,4.16,0,7.24-.1,12.66-.49a1,1,0,0,1,.93.44,1.12,1.12,0,0,1,.2.64,1.61,1.61,0,0,1,0,.39,31.64,31.64,0,0,0-1.22,3.76,2.47,2.47,0,0,1-.78,1.25,2,2,0,0,1-1.32.51q-6.5.29-12.32.29-5.08,0-9.58-.2a21.74,21.74,0,0,1-7.21-1.37,12.61,12.61,0,0,1-5-3.81q-.15-.2-.29,0-2.2,2.15-4.94,4.5a1.19,1.19,0,0,1-1.12.29,1.33,1.33,0,0,1-.93-.73l-1.91-4.11a2.35,2.35,0,0,1-.15-.83,1.71,1.71,0,0,1,.1-.54,1.82,1.82,0,0,1,.83-1.12q2-1.27,4.2-2.93a.38.38,0,0,0,.15-.34V759.1a.17.17,0,0,0-.2-.2h-3.28a1.64,1.64,0,0,1-1.2-.51,1.7,1.7,0,0,1-.51-1.25v-3.23a1.75,1.75,0,0,1,1.71-1.71Zm1.91-11.64a1.55,1.55,0,0,1,.34,1.25,1.67,1.67,0,0,1-.68,1.15l-3.23,2.49a1.62,1.62,0,0,1-2.35-.39,49.07,49.07,0,0,0-5.13-5.67,1.37,1.37,0,0,1-.46-1.12,1.32,1.32,0,0,1,.56-1.08l2.79-2.05a2.15,2.15,0,0,1,1.32-.44h0a2.31,2.31,0,0,1,1.37.54A47.08,47.08,0,0,1,290.82,740.57Zm1.86,10a1.64,1.64,0,0,1-1.2-.51,1.7,1.7,0,0,1-.51-1.25v-1.42a1.62,1.62,0,0,1,.51-1.22,1.68,1.68,0,0,1,1.2-.49h30.41a1.68,1.68,0,0,1,1.2.49,1.62,1.62,0,0,1,.51,1.22v1.42a1.7,1.7,0,0,1-.51,1.25,1.64,1.64,0,0,1-1.2.51Zm18,19.95a1.62,1.62,0,0,1-.51,1.22,1.68,1.68,0,0,1-1.2.49h-3.47a1.68,1.68,0,0,1-1.2-.49,1.62,1.62,0,0,1-.51-1.22v-3.57q0-.2-.2-.1a42.42,42.42,0,0,1-6.94,3.81,2.1,2.1,0,0,1-1.44.07,2.22,2.22,0,0,1-1.15-.81q-1-1.42-2-2.59a1.13,1.13,0,0,1-.22-1.08,1.11,1.11,0,0,1,.71-.78,34.54,34.54,0,0,0,8.8-4.25.08.08,0,0,0,0-.1.08.08,0,0,0-.07,0h-4.84a1.62,1.62,0,0,1-1.22-.51,1.68,1.68,0,0,1-.49-1.2v-6a1.67,1.67,0,0,1,1.71-1.71h23a1.68,1.68,0,0,1,1.2.49,1.62,1.62,0,0,1,.51,1.22v6.21a.42.42,0,0,0,.2.34l1.47,1a1,1,0,0,1,.46,1,1.16,1.16,0,0,1-.51,1q-2.59,1.56-3.86,2.3a.14.14,0,0,0,0,.1,0,0,0,0,0,0,0,27.68,27.68,0,0,0,4.3,1.08.86.86,0,0,1,.71.61,1,1,0,0,1-.17,1q-1,1.22-1.91,2.64a2.76,2.76,0,0,1-1.12,1,2,2,0,0,1-1.42.12,25.75,25.75,0,0,1-8.41-4q-.2-.15-.2.1ZM321,734a1.64,1.64,0,0,1,1.2.51,1.7,1.7,0,0,1,.51,1.25v7.09a1.75,1.75,0,0,1-1.71,1.71H295.07a1.75,1.75,0,0,1-1.71-1.71v-7.09a1.7,1.7,0,0,1,.51-1.25,1.64,1.64,0,0,1,1.2-.51Zm-19.8,6.65q.24,0,.24-.2v-2.35q0-.2-.24-.2h-1.56a.17.17,0,0,0-.2.2v2.35a.17.17,0,0,0,.2.2Zm.49,14.81q-.2,0-.2.24V757a.17.17,0,0,0,.2.2h12.08q.24,0,.24-.2v-1.27a.22.22,0,0,0-.24-.24Zm6.94-14.81a.17.17,0,0,0,.2-.2v-2.35a.17.17,0,0,0-.2-.2h-1.56q-.24,0-.24.2v2.35q0,.2.24.2ZM316,761.21a.14.14,0,0,0,0-.1s0,0-.1,0h-4.4a.08.08,0,0,0-.07,0,.08.08,0,0,0,0,.1,16.08,16.08,0,0,0,2,1.61.27.27,0,0,0,.34,0A24.42,24.42,0,0,0,316,761.21Zm0-20.53q.24,0,.24-.2v-2.35q0-.2-.24-.2h-1.61a.17.17,0,0,0-.2.2v2.35a.17.17,0,0,0,.2.2Z" transform="translate(-215.11 -696.5)"/><path class="b" d="M356.43,769.18q-.24,0-.24.2v3.28a.22.22,0,0,0,.24.24l1.3,0,1.49,0h4.55q4.79,0,10.32-.1a.87.87,0,0,1,.88.44,1.3,1.3,0,0,1,.15.59,1,1,0,0,1-.1.44,24.18,24.18,0,0,0-1.22,3.67,2.34,2.34,0,0,1-.78,1.22,2,2,0,0,1-1.32.49h-13a41.14,41.14,0,0,1-11.44-1.32,14.83,14.83,0,0,1-7.43-5q-.15-.15-.24,0a25.3,25.3,0,0,1-5.18,6,1.68,1.68,0,0,1-1.08.39h-.2a2.16,2.16,0,0,1-1.27-.64,28.64,28.64,0,0,0-2.93-2.74,1.33,1.33,0,0,1,.1-2.05q5.43-4,7.28-11.78a1.82,1.82,0,0,1,2.05-1.47l3.81.54a1.58,1.58,0,0,1,1.1.68,1.42,1.42,0,0,1,.22,1.27q-.29,1.17-.68,2.44a.67.67,0,0,0,0,.44,10.19,10.19,0,0,0,5.72,5q.24.1.24-.1v-11q0-.2-.24-.2H331.5a1.75,1.75,0,0,1-1.76-1.76v-2.88a1.62,1.62,0,0,1,.51-1.22,1.74,1.74,0,0,1,1.25-.49h40.92a1.74,1.74,0,0,1,1.25.49,1.62,1.62,0,0,1,.51,1.22v2.88a1.75,1.75,0,0,1-1.76,1.76h-16q-.24,0-.24.2v2.25a.22.22,0,0,0,.24.24h12.86a1.75,1.75,0,0,1,1.71,1.71v2.79a1.7,1.7,0,0,1-.51,1.25,1.64,1.64,0,0,1-1.2.51ZM368,734.32a1.75,1.75,0,0,1,1.76,1.76v14.47a1.75,1.75,0,0,1-1.76,1.76H335.8a1.75,1.75,0,0,1-1.76-1.76V736.08a1.75,1.75,0,0,1,1.76-1.76ZM362.15,741a.17.17,0,0,0,.2-.2v-1.22a.17.17,0,0,0-.2-.2H341.33a.17.17,0,0,0-.2.2v1.22a.17.17,0,0,0,.2.2Zm0,6.31a.17.17,0,0,0,.2-.2v-1.22a.17.17,0,0,0-.2-.2H341.33a.17.17,0,0,0-.2.2v1.22a.17.17,0,0,0,.2.2Z" transform="translate(-215.11 -696.5)"/><path class="b" d="M406,752.21q0,.24.15.1l2.25-1.86a1.86,1.86,0,0,1,1.3-.49,2.4,2.4,0,0,1,1.39.44,178.16,178.16,0,0,1,13.84,11.54,1.6,1.6,0,0,1,.49,1.17,1.67,1.67,0,0,1-.59,1.27l-3.67,3.28a1.54,1.54,0,0,1-1.25.42,1.73,1.73,0,0,1-1.15-.56,133.42,133.42,0,0,0-12.61-11.64q-.15-.15-.15.1v22.59a1.64,1.64,0,0,1-.51,1.2,1.7,1.7,0,0,1-1.25.51h-4.5a1.7,1.7,0,0,1-1.25-.51,1.64,1.64,0,0,1-.51-1.2V757.88a.08.08,0,0,0,0-.07.08.08,0,0,0-.1,0A57.9,57.9,0,0,1,384.79,768a1.75,1.75,0,0,1-1.34.15,1.87,1.87,0,0,1-1.1-.78q-1.37-2-2.93-3.91a1.36,1.36,0,0,1-.29-.83v-.29a1.33,1.33,0,0,1,.73-.93,44.88,44.88,0,0,0,10.68-7.63,51.78,51.78,0,0,0,8.24-10q.15-.15-.1-.15H381.76A1.75,1.75,0,0,1,380,741.8v-4a1.75,1.75,0,0,1,1.76-1.76h40.48a1.75,1.75,0,0,1,1.76,1.76v4a1.75,1.75,0,0,1-1.76,1.76H408.8a.38.38,0,0,0-.34.15q-1.17,2.1-2.35,3.81a.87.87,0,0,0-.1.39Z" transform="translate(-215.11 -696.5)"/><path class="b" d="M463.21,773.92q0,.2.24.2H474.6a1.75,1.75,0,0,1,1.76,1.76v1.52a1.75,1.75,0,0,1-1.76,1.76h-29a1.75,1.75,0,0,1-1.76-1.76v-1.52a1.75,1.75,0,0,1,1.76-1.76h10.81a.17.17,0,0,0,.2-.2V773a.17.17,0,0,0-.2-.2h-8.31a1.75,1.75,0,0,1-1.76-1.76v-1.27a1.75,1.75,0,0,1,1.76-1.76h8.31a.17.17,0,0,0,.2-.2v-.73a.17.17,0,0,0-.2-.2H448.5a1.75,1.75,0,0,1-1.76-1.76v-9.34a1.62,1.62,0,0,1,.51-1.22,1.74,1.74,0,0,1,1.25-.49h7.92q.2,0,.2-.24v-.54q0-.24-.2-.24H445.81a1.7,1.7,0,0,1-1.25-.51,1.64,1.64,0,0,1-.51-1.2v-2.59q0-.24-.2-.15h0a1.31,1.31,0,0,1-1.2-.1,1.47,1.47,0,0,1-.76-1,14.85,14.85,0,0,0-.39-1.52h0v32.61a1.64,1.64,0,0,1-.51,1.2,1.7,1.7,0,0,1-1.25.51h-3.37a1.62,1.62,0,0,1-1.22-.51,1.68,1.68,0,0,1-.49-1.2V750.21h0q-.34,2.93-.93,6.11a1.56,1.56,0,0,1-.73,1,1.4,1.4,0,0,1-1.27.12l-2.2-.73a1.82,1.82,0,0,1-1-.88,1.8,1.8,0,0,1-.24-.88,2.49,2.49,0,0,1,0-.49,77,77,0,0,0,1.56-9.83,1.76,1.76,0,0,1,.64-1.17,1.59,1.59,0,0,1,1.27-.34l2.69.34q.24,0,.24-.2v-8.7a1.74,1.74,0,0,1,.49-1.25,1.62,1.62,0,0,1,1.22-.51h3.37a1.75,1.75,0,0,1,1.76,1.76v6.7q0,.24.2.15l2.79-1a.31.31,0,0,0,.2-.29v-2.69a1.64,1.64,0,0,1,.51-1.2,1.7,1.7,0,0,1,1.25-.51h3.57q.2,0,.2-.24v-.93a1.75,1.75,0,0,1,1.76-1.76h2.74a1.64,1.64,0,0,1,1.2.51,1.7,1.7,0,0,1,.51,1.25v.93a.22.22,0,0,0,.24.24h6.36q.2,0,.2-.24v-.93a1.75,1.75,0,0,1,1.76-1.76h2.79a1.62,1.62,0,0,1,1.22.51,1.74,1.74,0,0,1,.49,1.25v.93a.22.22,0,0,0,.24.24h4.16a1.75,1.75,0,0,1,1.71,1.71v1.37a1.75,1.75,0,0,1-1.71,1.71h-4.16a.22.22,0,0,0-.24.24V742a.22.22,0,0,0,.24.24.92.92,0,0,0,.29,0h.24a2.67,2.67,0,0,1,2.4,1.32l1,1.52a1,1,0,0,1,0,1,1,1,0,0,1-.88.59q-3.72.34-9.24.64a.22.22,0,0,0-.24.24v.59a.22.22,0,0,0,.24.24h10.66a1.62,1.62,0,0,1,1.22.51,1.68,1.68,0,0,1,.49,1.2v1.32a1.68,1.68,0,0,1-.49,1.2,1.62,1.62,0,0,1-1.22.51H463.46a.22.22,0,0,0-.24.24v.54a.22.22,0,0,0,.24.24h8.36a1.67,1.67,0,0,1,1.71,1.71v9.34a1.74,1.74,0,0,1-.49,1.25,1.62,1.62,0,0,1-1.22.51h-8.36q-.24,0-.24.2v.73q0,.2.24.2h8.9a1.75,1.75,0,0,1,1.76,1.76v1.27a1.75,1.75,0,0,1-1.76,1.76h-8.9q-.24,0-.24.2Zm-18.48-25.67s0,.06,0,.07,0,0,0,0h11.69q.2,0,.2-.24v-.39a.17.17,0,0,0-.2-.2H450a2,2,0,0,1-1.32-.49,2.34,2.34,0,0,1-.78-1.22,7.74,7.74,0,0,0-.24-.93,1.29,1.29,0,0,1,.15-1.15,1.11,1.11,0,0,1,1-.51q12.13-.2,20.09-.93h-4.2a1.59,1.59,0,0,1-1.56-1.56.17.17,0,0,0-.2-.2h-6.36a.22.22,0,0,0-.24.24v0a1.75,1.75,0,0,1-1.71,1.71h-2.74a1.7,1.7,0,0,1-1.25-.51,1.64,1.64,0,0,1-.51-1.2v0q0-.24-.2-.24h-4.79q-.2,0-.15.2,1,2.69,1.66,4.94a2,2,0,0,1-.12,1.39,1.71,1.71,0,0,1-1,.9Zm8.65,9.39q-.2,0-.2.24v.68q0,.24.2.24h3q.2,0,.2-.24v-.68q0-.24-.2-.24Zm-.2,5.52a.17.17,0,0,0,.2.2h3a.17.17,0,0,0,.2-.2v-.78a.17.17,0,0,0-.2-.2h-3a.17.17,0,0,0-.2.2Zm13.64-5.28q0-.24-.2-.24h-3.18a.22.22,0,0,0-.24.24v.68a.22.22,0,0,0,.24.24h3.18q.2,0,.2-.24Zm-.2,5.48a.17.17,0,0,0,.2-.2v-.78a.17.17,0,0,0-.2-.2h-3.18q-.24,0-.24.2v.78q0,.2.24.2Z" transform="translate(-215.11 -696.5)"/><path class="b" d="M495,765.07a1.75,1.75,0,0,1-1.76,1.76h-6.75q-.24,0-.24.2v1.86a1.74,1.74,0,0,1-.49,1.25,1.62,1.62,0,0,1-1.22.51h-2.93a1.75,1.75,0,0,1-1.76-1.76V738.77a1.75,1.75,0,0,1,1.76-1.76h11.64a1.75,1.75,0,0,1,1.76,1.76Zm-6.55-21.12a.17.17,0,0,0-.2-.2h-1.76q-.24,0-.24.2v15.94a.22.22,0,0,0,.24.24h1.76q.2,0,.2-.24Zm9.44,33.54a1.73,1.73,0,0,1-1.05.86,1.68,1.68,0,0,1-1.34-.12l-2.1-1a1.47,1.47,0,0,1-.83-1,1.71,1.71,0,0,1-.1-.54,1.73,1.73,0,0,1,.2-.78,29.37,29.37,0,0,0,2.35-8.12,1.48,1.48,0,0,1,1.91-1.22l2,.54a1.92,1.92,0,0,1,1.15.83,2,2,0,0,1,.32,1.37A33.32,33.32,0,0,1,497.93,777.49Zm17-19.9q0,.2.24.2h8.51a1.76,1.76,0,0,1,1.66,1.66q0,.24,0,.83-.34,8.6-.83,12.54T523,778a5.38,5.38,0,0,1-3.47,2.05,18.81,18.81,0,0,1-3.32.29h0a1.6,1.6,0,0,1-1.17-.49,1.87,1.87,0,0,1-.68-1.22,18,18,0,0,0-.78-2.84,1,1,0,0,1,.15-1,1.09,1.09,0,0,1,.93-.46H516a1.55,1.55,0,0,0,1.37-.64,5.93,5.93,0,0,0,.68-2.49.14.14,0,0,0,0-.1.2.2,0,0,0-.15,0l-1.86.68a1.47,1.47,0,0,1-1.22-.15,1.66,1.66,0,0,1-.78-1,35.52,35.52,0,0,0-1.27-3.86,1.64,1.64,0,0,1,0-1.27,1.39,1.39,0,0,1,.9-.83l.54-.2a2.22,2.22,0,0,1,1.42.07,1.71,1.71,0,0,1,1,1,33,33,0,0,1,1.61,4.3s0,0,0,0,0,0,0,0q.24-2.54.39-5.77a.22.22,0,0,0-.24-.24H499.05a1.68,1.68,0,0,1-1.2-.49,1.62,1.62,0,0,1-.51-1.22V736.37a1.7,1.7,0,0,1,.51-1.25,1.64,1.64,0,0,1,1.2-.51h23.22a1.75,1.75,0,0,1,1.76,1.76v2.74a1.62,1.62,0,0,1-.51,1.22,1.74,1.74,0,0,1-1.25.49h-7.14a.22.22,0,0,0-.24.24v1.47q0,.2.24.2h5.48a1.75,1.75,0,0,1,1.76,1.76v2.05a1.75,1.75,0,0,1-1.76,1.76h-5.48q-.24,0-.24.2V750a.22.22,0,0,0,.24.24h5.48a1.7,1.7,0,0,1,1.25.51,1.64,1.64,0,0,1,.51,1.2v2.1a1.62,1.62,0,0,1-.51,1.22,1.74,1.74,0,0,1-1.25.49h-5.48a.22.22,0,0,0-.24.24ZM501.25,767.9a1.71,1.71,0,0,1,.32-1.27,1.61,1.61,0,0,1,1.15-.68l1.22-.2a1.62,1.62,0,0,1,1.3.27,1.75,1.75,0,0,1,.76,1.15,43.62,43.62,0,0,1,.68,7,1.73,1.73,0,0,1-.44,1.3,2.16,2.16,0,0,1-1.27.71l-1.47.24a1.38,1.38,0,0,1-1.17-.34,1.45,1.45,0,0,1-.49-1.12A46.14,46.14,0,0,0,501.25,767.9Zm7-26.84a.22.22,0,0,0-.24-.24h-3.67q-.2,0-.2.24v1.47a.17.17,0,0,0,.2.2H508q.24,0,.24-.2Zm-.24,9.19a.22.22,0,0,0,.24-.24v-1.52q0-.2-.24-.2h-3.67a.17.17,0,0,0-.2.2V750q0,.24.2.24Zm-3.67,5.52q-.2,0-.2.24v1.56a.17.17,0,0,0,.2.2H508q.24,0,.24-.2V756a.22.22,0,0,0-.24-.24Zm2.74,11.73a1.7,1.7,0,0,1,.12-1.3,1.56,1.56,0,0,1,1-.81l.93-.29a1.88,1.88,0,0,1,1.39.15,1.81,1.81,0,0,1,.9,1,38.67,38.67,0,0,1,1.37,5.57,1.78,1.78,0,0,1-.27,1.37,1.92,1.92,0,0,1-1.15.83l-1.22.39a1.43,1.43,0,0,1-1.17-.22,1.46,1.46,0,0,1-.64-1.05A43.11,43.11,0,0,0,507.07,767.51Z" transform="translate(-215.11 -696.5)"/><path class="b" d="M543.1,760.38a2.11,2.11,0,0,1-.61,1.25,1.64,1.64,0,0,1-1.2.51h-4.35a1.78,1.78,0,0,1-1.27-.51,1.66,1.66,0,0,1-.54-1.25,11.44,11.44,0,0,1,.76-3.52,14.09,14.09,0,0,1,1.56-3q.9-1.3,1.81-2.47A16.76,16.76,0,0,0,540.8,749a4.94,4.94,0,0,0,.64-2.32,3.24,3.24,0,0,0-.73-2.3,2.49,2.49,0,0,0-1.91-.78,4.47,4.47,0,0,0-3,1.32,2,2,0,0,1-1.25.54,1.62,1.62,0,0,1-1.25-.44L531,742.87a1.78,1.78,0,0,1-.59-1.37,1.55,1.55,0,0,1,.49-1.12,12.28,12.28,0,0,1,8.95-4,10.81,10.81,0,0,1,7.31,2.42q2.81,2.42,2.81,7.11a9.77,9.77,0,0,1-.64,3.52,12.48,12.48,0,0,1-1.59,3q-1,1.3-1.91,2.47a17,17,0,0,0-1.74,2.62A8.41,8.41,0,0,0,543.1,760.38Zm-.1,14.3a5.19,5.19,0,0,1-3.86,1.54,5.27,5.27,0,0,1-3.89-1.54,5.33,5.33,0,0,1-1.54-3.94,5.43,5.43,0,0,1,1.54-3.94,5.49,5.49,0,0,1,7.72,0,5.43,5.43,0,0,1,1.54,3.94A5.38,5.38,0,0,1,543,774.68Z" transform="translate(-215.11 -696.5)"/><path class="b" d="M300.84,799.19c-.07.16,0,.24.15.24H322.7a1.75,1.75,0,0,1,1.25.49,1.62,1.62,0,0,1,.51,1.22v3.47a1.75,1.75,0,0,1-1.76,1.76H298.06a.35.35,0,0,0-.34.2,56.94,56.94,0,0,1-5.52,9.39.65.65,0,0,0-.15.39v22.34a1.68,1.68,0,0,1-.49,1.2,1.62,1.62,0,0,1-1.22.51h-3.91a1.75,1.75,0,0,1-1.71-1.71V824.32s0-.06-.07-.07l-.12,0q-1,.88-2.1,1.71a1.26,1.26,0,0,1-1.17.2,1.32,1.32,0,0,1-.88-.83q-.88-2-2-4a1.8,1.8,0,0,1-.24-.88,1.82,1.82,0,0,1,0-.44,2.1,2.1,0,0,1,.78-1.17,36.31,36.31,0,0,0,10.41-12.22c.07-.13,0-.2-.1-.2h-8.21a1.75,1.75,0,0,1-1.76-1.76v-3.47a1.62,1.62,0,0,1,.51-1.22,1.75,1.75,0,0,1,1.25-.49h11.39a.27.27,0,0,0,.29-.24,43.13,43.13,0,0,0,1.52-4.64,1.65,1.65,0,0,1,.83-1.08,1.8,1.8,0,0,1,.88-.24,1.89,1.89,0,0,1,.44,0l4.25,1a1.48,1.48,0,0,1,1,.76,1.5,1.5,0,0,1,.1,1.3Zm12.47,23.37c-.16,0-.24.07-.24.2v9.48q0,.2.24.2h9.14a1.75,1.75,0,0,1,1.76,1.76v3.23a1.75,1.75,0,0,1-1.76,1.76H296a1.75,1.75,0,0,1-1.76-1.76v-3.23a1.75,1.75,0,0,1,1.76-1.76h9.53q.24,0,.24-.2v-9.48c0-.13-.08-.2-.24-.2h-7.63a1.75,1.75,0,0,1-1.76-1.76v-3.23a1.75,1.75,0,0,1,1.76-1.76h7.63q.24,0,.24-.2V810a1.75,1.75,0,0,1,1.71-1.71h3.91a1.62,1.62,0,0,1,1.22.51,1.68,1.68,0,0,1,.49,1.2v5.62q0,.2.24.2h7.24a1.75,1.75,0,0,1,1.76,1.76v3.23a1.75,1.75,0,0,1-1.76,1.76Z" transform="translate(-215.11 -696.5)"/><path class="b" d="M360.39,824.71a1.75,1.75,0,0,1-1.76-1.76V794.64a1.75,1.75,0,0,1,1.76-1.76h13.54a1.62,1.62,0,0,1,1.22.51,1.74,1.74,0,0,1,.49,1.25v3a1.74,1.74,0,0,1-.49,1.25,1.62,1.62,0,0,1-1.22.51H366a.17.17,0,0,0-.2.2v23.32a1.75,1.75,0,0,1-1.76,1.76Z" transform="translate(-215.11 -696.5)"/><path class="b" d="M400.48,812.34a1.74,1.74,0,0,1-.49,1.25,1.62,1.62,0,0,1-1.22.51H388c-.16,0-.24.07-.24.2v24.45a1.75,1.75,0,0,1-1.71,1.71H382.3a1.75,1.75,0,0,1-1.71-1.71V796.45a1.7,1.7,0,0,1,.51-1.25,1.64,1.64,0,0,1,1.2-.51h16.48a1.62,1.62,0,0,1,1.22.51,1.74,1.74,0,0,1,.49,1.25Zm-6.8-12a.17.17,0,0,0-.2-.2H388c-.16,0-.24.07-.24.2v1.37a.22.22,0,0,0,.24.24h5.48c.13,0,.2-.08.2-.24Zm-5.92,8.07q0,.2.24.2h5.48a.17.17,0,0,0,.2-.2V807q0-.24-.2-.24H388a.22.22,0,0,0-.24.24Zm34.18-13.74a1.62,1.62,0,0,1,1.22.51,1.74,1.74,0,0,1,.49,1.25V832a12.62,12.62,0,0,1-.66,4.57,4.81,4.81,0,0,1-2.37,2.52q-2.49,1.27-8.6,1.32h0a1.83,1.83,0,0,1-1.27-.49,2.12,2.12,0,0,1-.78-1.22,24.31,24.31,0,0,0-1.86-5.18.35.35,0,0,0-.34-.2h-8.9c-.16,0-.24.07-.24.2v.83a1.68,1.68,0,0,1-.49,1.2,1.62,1.62,0,0,1-1.22.51h-3.23a1.7,1.7,0,0,1-1.25-.51,1.64,1.64,0,0,1-.51-1.2V818.69a1.75,1.75,0,0,1,1.76-1.76H410a1.75,1.75,0,0,1,1.76,1.76V833c0,.16.07.24.2.24h3a1.43,1.43,0,0,0,1-.29,1.35,1.35,0,0,0,.29-1v-17.6c0-.13-.08-.2-.24-.2H405a1.62,1.62,0,0,1-1.22-.51,1.74,1.74,0,0,1-.49-1.25V796.45a1.74,1.74,0,0,1,.49-1.25,1.62,1.62,0,0,1,1.22-.51Zm-17.21,32.76a.17.17,0,0,0,.2-.2V823a.17.17,0,0,0-.2-.2h-5.92c-.16,0-.24.07-.24.2v4.2q0,.2.24.2Zm11.59-27.13c0-.13-.08-.2-.24-.2h-5.72a.17.17,0,0,0-.2.2v1.42c0,.16.07.24.2.24h5.72a.22.22,0,0,0,.24-.24Zm-6.16,8.21a.17.17,0,0,0,.2.2h5.72q.24,0,.24-.2V807a.22.22,0,0,0-.24-.24h-5.72q-.2,0-.2.24Z" transform="translate(-215.11 -696.5)"/><path class="b" d="M480,806.86a1.62,1.62,0,0,1-1.22-.51,1.68,1.68,0,0,1-.49-1.2V803a1.74,1.74,0,0,1,.49-1.25,1.62,1.62,0,0,1,1.22-.51h17.31A1.75,1.75,0,0,1,499.1,803v2.2a1.64,1.64,0,0,1-.51,1.2,1.7,1.7,0,0,1-1.25.51Zm15.35,15.5a1.75,1.75,0,0,1,1.25.49,1.62,1.62,0,0,1,.51,1.22V836.2a1.64,1.64,0,0,1-.51,1.2,1.7,1.7,0,0,1-1.25.51h-8.31a.17.17,0,0,0-.2.2,1.59,1.59,0,0,1-1.61,1.61h-2.93a1.64,1.64,0,0,1-1.2-.51,1.7,1.7,0,0,1-.51-1.25V824.07a1.62,1.62,0,0,1,.51-1.22,1.69,1.69,0,0,1,1.2-.49Zm-12.86-8.6a1.68,1.68,0,0,1-1.2-.49,1.62,1.62,0,0,1-.51-1.22v-2a1.75,1.75,0,0,1,1.71-1.71h13a1.7,1.7,0,0,1,1.25.51,1.64,1.64,0,0,1,.51,1.2v2a1.62,1.62,0,0,1-.51,1.22,1.74,1.74,0,0,1-1.25.49Zm0,6.94a1.64,1.64,0,0,1-1.2-.51,1.7,1.7,0,0,1-.51-1.25V817a1.7,1.7,0,0,1,.51-1.25,1.64,1.64,0,0,1,1.2-.51h13a1.75,1.75,0,0,1,1.76,1.76v1.91a1.75,1.75,0,0,1-1.76,1.76Zm13.1-26.35a1.75,1.75,0,0,1,1.76,1.76V798a1.75,1.75,0,0,1-1.76,1.76H482.82a1.64,1.64,0,0,1-1.2-.51,1.7,1.7,0,0,1-.51-1.25v-1.91a1.7,1.7,0,0,1,.51-1.25,1.64,1.64,0,0,1,1.2-.51Zm-4.84,33.88a.22.22,0,0,0-.24-.24h-3.47q-.2,0-.2.24V832a.17.17,0,0,0,.2.2h3.47q.24,0,.24-.2Zm33.34-25a1.62,1.62,0,0,1,1.22.51,1.74,1.74,0,0,1,.49,1.25v3.47a1.74,1.74,0,0,1-.49,1.25,1.62,1.62,0,0,1-1.22.51h-3.42a.17.17,0,0,0-.2.2V831.7a12.68,12.68,0,0,1-.68,4.74,5.16,5.16,0,0,1-2.4,2.54q-2.54,1.32-8.75,1.42h0a1.83,1.83,0,0,1-1.27-.49,2.1,2.1,0,0,1-.78-1.17,36,36,0,0,0-1.42-4.4,1.06,1.06,0,0,1,.15-1,1.08,1.08,0,0,1,.93-.49q2.49.1,5.72.1a1.52,1.52,0,0,0,1-.27,1.34,1.34,0,0,0,.29-1V810.38a.17.17,0,0,0-.2-.2H501.4a1.64,1.64,0,0,1-1.2-.51,1.7,1.7,0,0,1-.51-1.25V805a1.7,1.7,0,0,1,.51-1.25,1.64,1.64,0,0,1,1.2-.51h11.69a.17.17,0,0,0,.2-.2v-8.36a1.75,1.75,0,0,1,1.76-1.76h3.72a1.75,1.75,0,0,1,1.76,1.76V803a.17.17,0,0,0,.2.2Zm-12.91,19.21a2.11,2.11,0,0,1,.15.73,1.72,1.72,0,0,1-.15.68,1.79,1.79,0,0,1-.93,1L507,826.57a1.37,1.37,0,0,1-.68.2,1.68,1.68,0,0,1-.54-.1,1.64,1.64,0,0,1-.88-.93,53.09,53.09,0,0,0-4.06-8.21,1.54,1.54,0,0,1-.24-.83,2.28,2.28,0,0,1,0-.44,1.47,1.47,0,0,1,.83-1l2.88-1.37a1.8,1.8,0,0,1,.88-.24,1.72,1.72,0,0,1,.54.1,1.88,1.88,0,0,1,1.12.78A46.17,46.17,0,0,1,511.22,822.41Z" transform="translate(-215.11 -696.5)"/><path class="b" d="M553.37,812a1.64,1.64,0,0,1-1.2-.51,1.7,1.7,0,0,1-.51-1.25v-1.17q0-.24-.2-.1-1.12.88-2.15,1.61a1.47,1.47,0,0,1-1.22.15,1.63,1.63,0,0,1-1-.83q-.73-1.37-1.66-2.88a.35.35,0,0,0-.34-.2h-15a1.62,1.62,0,0,1-1.22-.51,1.68,1.68,0,0,1-.49-1.2V803a1.74,1.74,0,0,1,.49-1.25,1.62,1.62,0,0,1,1.22-.51h14.81a1.62,1.62,0,0,1,1.22.51,1.74,1.74,0,0,1,.49,1.25v1c0,.16.07.2.2.1a34.32,34.32,0,0,0,5.08-4.42,37.36,37.36,0,0,0,4.16-5.16A3,3,0,0,1,558.7,793h3a3.26,3.26,0,0,1,2.74,1.37,34.13,34.13,0,0,0,10.71,9.78,1.48,1.48,0,0,1,.73,1,1.62,1.62,0,0,1,0,.39,1.54,1.54,0,0,1-.24.83q-1,1.47-2,3.37a1.66,1.66,0,0,1-1,.78,1.42,1.42,0,0,1-1.25-.2q-.93-.63-2-1.42-.2-.15-.2.1v1.32a1.7,1.7,0,0,1-.51,1.25,1.64,1.64,0,0,1-1.2.51ZM543.3,822.36a1.75,1.75,0,0,1,1.25.49,1.62,1.62,0,0,1,.51,1.22v12a1.64,1.64,0,0,1-.51,1.2,1.7,1.7,0,0,1-1.25.51h-6.75q-.24,0-.24.2a1.66,1.66,0,0,1-.49,1.22,1.61,1.61,0,0,1-1.17.49H532.2a1.62,1.62,0,0,1-1.22-.51,1.74,1.74,0,0,1-.49-1.25V824.07a1.67,1.67,0,0,1,1.71-1.71Zm-.15-14a1.7,1.7,0,0,1,1.25.51,1.64,1.64,0,0,1,.51,1.2v2a1.62,1.62,0,0,1-.51,1.22,1.74,1.74,0,0,1-1.25.49H532.39a1.67,1.67,0,0,1-1.71-1.71v-2a1.68,1.68,0,0,1,.49-1.2,1.62,1.62,0,0,1,1.22-.51ZM532.39,820.7a1.62,1.62,0,0,1-1.22-.51,1.74,1.74,0,0,1-.49-1.25V817a1.74,1.74,0,0,1,.49-1.25,1.62,1.62,0,0,1,1.22-.51h10.76a1.75,1.75,0,0,1,1.76,1.76v1.91a1.75,1.75,0,0,1-1.76,1.76ZM543,794.35a1.62,1.62,0,0,1,1.22.51,1.74,1.74,0,0,1,.49,1.25V798a1.74,1.74,0,0,1-.49,1.25,1.62,1.62,0,0,1-1.22.51H532.69a1.64,1.64,0,0,1-1.2-.51A1.7,1.7,0,0,1,531,798v-1.91a1.7,1.7,0,0,1,.51-1.25,1.64,1.64,0,0,1,1.2-.51Zm-3.86,33.83a.22.22,0,0,0-.24-.24h-2.35a.22.22,0,0,0-.24.24V832q0,.2.24.2h2.35q.24,0,.24-.2ZM572,814.29a1.62,1.62,0,0,1,1.22.51,1.68,1.68,0,0,1,.49,1.2v18.33a11,11,0,0,1-.34,3.08,3.35,3.35,0,0,1-1.32,1.81,6.71,6.71,0,0,1-3.13.93h-.15a1.81,1.81,0,0,1-1.17-.44,2.12,2.12,0,0,1-.78-1.22,17,17,0,0,0-.83-2.59h0v2.3a1.64,1.64,0,0,1-.51,1.2,1.7,1.7,0,0,1-1.25.51H563a1.7,1.7,0,0,1-1.25-.51,1.64,1.64,0,0,1-.51-1.2v-7.77q0-.24-.2-.24H560q-.2,0-.2.24v7.77a1.64,1.64,0,0,1-.51,1.2,1.7,1.7,0,0,1-1.25.51h-1.12a1.7,1.7,0,0,1-1.25-.51,1.64,1.64,0,0,1-.51-1.2v-7.77q0-.24-.2-.24h-1q-.2,0-.2.24v7.92a1.64,1.64,0,0,1-.51,1.2,1.7,1.7,0,0,1-1.25.51h-2.54a1.75,1.75,0,0,1-1.71-1.71V816a1.75,1.75,0,0,1,1.71-1.71Zm-18.24,10c0,.16.07.24.2.24h1c.13,0,.2-.08.2-.24v-4.11q0-.24-.2-.24h-1q-.2,0-.2.24ZM555,806s0,0,0,.07,0,.07.07.07h11a.08.08,0,0,0,.07,0,.21.21,0,0,0,0-.1,38.57,38.57,0,0,1-5.57-6.45.24.24,0,0,0-.29,0A41,41,0,0,1,555,806Zm4.79,18.33c0,.16.07.24.2.24H561c.13,0,.2-.08.2-.24v-4.11q0-.24-.2-.24H560q-.2,0-.2.24Zm7.72-4.11q0-.24-.2-.24h-1.17q-.2,0-.2.24v4.11c0,.16.07.24.2.24h1.17c.13,0,.2-.08.2-.24Zm-1.37,10q-.2,0-.2.24v4.16c0,.16.07.24.2.24h.93q.44,0,.44-.59v-3.81q0-.24-.2-.24Z" transform="translate(-215.11 -696.5)"/><path class="b" d="M623.92,832.14a1.64,1.64,0,0,1,1.2.51,1.7,1.7,0,0,1,.51,1.25V837a1.62,1.62,0,0,1-.51,1.22,1.69,1.69,0,0,1-1.2.49H588.23a.17.17,0,0,0-.2.2,1.51,1.51,0,0,1-1.56,1.56h-3.81a1.75,1.75,0,0,1-1.71-1.71V796.15a1.7,1.7,0,0,1,.51-1.25,1.64,1.64,0,0,1,1.2-.51H622.5a1.75,1.75,0,0,1,1.76,1.76V799a1.64,1.64,0,0,1-.51,1.2,1.7,1.7,0,0,1-1.25.51H588.28a.22.22,0,0,0-.24.24v30.95q0,.2.24.2ZM592,830.38a1.74,1.74,0,0,1-1.25-.49,1.62,1.62,0,0,1-.51-1.22V818.2a1.64,1.64,0,0,1,.51-1.2,1.7,1.7,0,0,1,1.25-.51h10.81a1.75,1.75,0,0,1,1.71,1.71v10.46a1.62,1.62,0,0,1-.51,1.22,1.68,1.68,0,0,1-1.2.49Zm21.81-27.87a1.62,1.62,0,0,1,1.22.51,1.74,1.74,0,0,1,.49,1.25v9a1.68,1.68,0,0,1-.49,1.2,1.62,1.62,0,0,1-1.22.51H597a1.62,1.62,0,0,1-1.22-.51,1.68,1.68,0,0,1-.49-1.2v-9a1.74,1.74,0,0,1,.49-1.25,1.62,1.62,0,0,1,1.22-.51Zm-17.5,18.73a.22.22,0,0,0-.24.24v4q0,.2.24.2h1.86a.17.17,0,0,0,.2-.2v-4q0-.24-.2-.24Zm11.78-10.9a.22.22,0,0,0,.24-.24v-2.74a.22.22,0,0,0-.24-.24h-5.92q-.2,0-.2.24v2.74c0,.16.07.24.2.24Zm10.9,6.16a1.7,1.7,0,0,1,1.25.51,1.64,1.64,0,0,1,.51,1.2v10.46a1.62,1.62,0,0,1-.51,1.22,1.74,1.74,0,0,1-1.25.49H607.88a1.68,1.68,0,0,1-1.2-.49,1.62,1.62,0,0,1-.51-1.22V818.2a1.75,1.75,0,0,1,1.71-1.71Zm-4.74,9.14q.24,0,.24-.2v-4a.22.22,0,0,0-.24-.24h-2q-.2,0-.2.24v4a.17.17,0,0,0,.2.2Z" transform="translate(-215.11 -696.5)"/><path class="b" d="M643.77,808.67a1.75,1.75,0,0,1,1.76,1.76v28.31a1.64,1.64,0,0,1-.51,1.2,1.7,1.7,0,0,1-1.25.51H630.23a1.62,1.62,0,0,1-1.22-.51,1.68,1.68,0,0,1-.49-1.2v-3a1.74,1.74,0,0,1,.49-1.25,1.62,1.62,0,0,1,1.22-.51h7.92a.17.17,0,0,0,.2-.2V810.43a1.75,1.75,0,0,1,1.76-1.76Z" transform="translate(-215.11 -696.5)"/><path class="b" d="M724,822.9a1.75,1.75,0,0,1,1.71,1.71v3.28A1.75,1.75,0,0,1,724,829.6h-10a0,0,0,0,0,0,0,0,0,0,0,0,0,0q5.08,2.35,10.17,5a1,1,0,0,1,.56.88,1,1,0,0,1-.46.93l-4.5,3a2.42,2.42,0,0,1-1.42.49,2.83,2.83,0,0,1-1.47-.44q-2.2-1.42-5-3t-5.45-2.88a1,1,0,0,1-.61-.86,1.21,1.21,0,0,1,.37-1.05l2.4-2.05a.08.08,0,0,0,0-.1.08.08,0,0,0-.07,0h-13.4a.08.08,0,0,0-.07,0,.08.08,0,0,0,0,.1l2.88,2.15a1.07,1.07,0,0,1,.46,1,1.05,1.05,0,0,1-.51.93,93.9,93.9,0,0,1-11.64,6,3,3,0,0,1-1,.2,2.72,2.72,0,0,1-1.81-.78q-1.42-1.37-3-2.69a.92.92,0,0,1-.37-.9.88.88,0,0,1,.61-.76,62.31,62.31,0,0,0,10.17-5.18s0,0,0,0a.08.08,0,0,0-.07,0H680.83a1.75,1.75,0,0,1-1.71-1.71v-3.28a1.75,1.75,0,0,1,1.71-1.71h2.44a.22.22,0,0,0,.24-.24l-.68-24.79a1.17,1.17,0,0,1,.46-1.08,1.32,1.32,0,0,1,1.15-.24l2,.49a.54.54,0,0,0,.39,0q2.2-1.27,4-2.54a2,2,0,0,1,1.34-.39,2.07,2.07,0,0,1,1.3.54l2.4,2.35a.08.08,0,0,0,.15,0v-1.56a1.75,1.75,0,0,1,1.71-1.71h2.64a1.7,1.7,0,0,1,1.25.51,1.64,1.64,0,0,1,.51,1.2v2.1c0,.16.07.24.2.24h5a1.75,1.75,0,0,1,1.71,1.71v2.44a1.7,1.7,0,0,1-.51,1.25,1.64,1.64,0,0,1-1.2.51h-5a.17.17,0,0,0-.2.2v2c0,.16.07.24.2.24h5.28a1.62,1.62,0,0,1,1.22.51,1.68,1.68,0,0,1,.49,1.2v15a.22.22,0,0,0,.24.24h4.6a.22.22,0,0,0,.24-.24l.2-2.54a.22.22,0,0,0-.24-.24h-1.86a1.74,1.74,0,0,1-1.25-.49,1.62,1.62,0,0,1-.51-1.22v-2.44a1.62,1.62,0,0,1,.51-1.22,1.75,1.75,0,0,1,1.25-.49h2.1a.22.22,0,0,0,.24-.24L715,811q0-.24-.2-.24h-2.3a1.7,1.7,0,0,1-1.25-.51,1.64,1.64,0,0,1-.51-1.2v-2.44a1.75,1.75,0,0,1,1.76-1.76h2.4a.17.17,0,0,0,.2-.2l0-2.54a.17.17,0,0,0-.2-.2h-3.13a1.62,1.62,0,0,1-1.22-.51,1.74,1.74,0,0,1-.49-1.25v-2.74a1.68,1.68,0,0,1,.49-1.2,1.62,1.62,0,0,1,1.22-.51H720a1.62,1.62,0,0,1,1.22.51,1.68,1.68,0,0,1,.49,1.2q0,15.06-.64,25.23c0,.16.07.24.2.24Zm-33.88-3.08a.22.22,0,0,0-.24.24l0,2.59a.22.22,0,0,0,.24.24h5.38a.22.22,0,0,0,.24-.24v-8a1.7,1.7,0,0,1,.51-1.25,1.64,1.64,0,0,1,1.2-.51h2.25a1.75,1.75,0,0,1,1.76,1.76v8c0,.16.07.24.2.24H703c.13,0,.2-.08.2-.24v-10.9q0-.24-.2-.24H697.7a1.68,1.68,0,0,1-1.2-.49,1.62,1.62,0,0,1-.51-1.22V799.58c0-.13-.07-.16-.2-.1q-2.3,1.08-6.16,2.64a.32.32,0,0,0-.2.29l0,2.25a.17.17,0,0,0,.2.2h3.13a1.64,1.64,0,0,1,1.2.51,1.7,1.7,0,0,1,.51,1.25v2.44a1.75,1.75,0,0,1-1.71,1.71h-2.93q-.2,0-.2.24l0,2.69c0,.16.07.24.2.24h2.88a1.69,1.69,0,0,1,1.2.49,1.62,1.62,0,0,1,.51,1.22v2.44a1.62,1.62,0,0,1-.51,1.22,1.68,1.68,0,0,1-1.2.49Z" transform="translate(-215.11 -696.5)"/><path class="b" d="M774.9,810.58a1.64,1.64,0,0,1-.51,1.2,1.7,1.7,0,0,1-1.25.51H758.08c-.13,0-.16.07-.1.2q5.08,13.84,16.53,19.07a1.24,1.24,0,0,1,.39,1.91,25.72,25.72,0,0,0-3.28,4.2,2.12,2.12,0,0,1-1.08.83,1.71,1.71,0,0,1-.54.1,1.85,1.85,0,0,1-.83-.2,32.18,32.18,0,0,1-9.24-7.09,43.32,43.32,0,0,1-7.28-11.54.12.12,0,0,0-.2,0,34.14,34.14,0,0,1-16.38,18.58,2.17,2.17,0,0,1-.88.2,2.59,2.59,0,0,1-.49,0,2,2,0,0,1-1.12-.83,20.49,20.49,0,0,0-3.23-3.67,1.13,1.13,0,0,1-.34-.83,1,1,0,0,1,.59-1,29.57,29.57,0,0,0,10.22-7.92,30.8,30.8,0,0,0,5.72-11.78c0-.13,0-.2-.2-.2H731.77a1.7,1.7,0,0,1-1.25-.51,1.64,1.64,0,0,1-.51-1.2v-4.11a1.64,1.64,0,0,1,.51-1.2,1.7,1.7,0,0,1,1.25-.51h15.84c.13,0,.2-.08.2-.24q.24-2.74.34-11a1.75,1.75,0,0,1,1.71-1.71h4.6a1.64,1.64,0,0,1,1.2.51,1.7,1.7,0,0,1,.51,1.25q-.15,7.14-.49,11a.17.17,0,0,0,.2.2h17.26a1.7,1.7,0,0,1,1.25.51,1.64,1.64,0,0,1,.51,1.2Z" transform="translate(-215.11 -696.5)"/><path class="b" d="M817.58,812.14a1.94,1.94,0,0,1,1.27-.51,1.91,1.91,0,0,1,1.32.46l3.08,2.64a1.35,1.35,0,0,1,.46,1.1,1.3,1.3,0,0,1-.56,1.05,68.07,68.07,0,0,1-7,4.4q-.2.1,0,.29a24.31,24.31,0,0,0,8.56,8.36A1.36,1.36,0,0,1,825,832a27,27,0,0,0-2.88,3.67,2,2,0,0,1-1.12.76,1.53,1.53,0,0,1-1.27-.22,27.61,27.61,0,0,1-8.92-9.78,60.38,60.38,0,0,1-5.55-14.77q0-.24-.2-.1a28.17,28.17,0,0,1-3.23,2.3.18.18,0,0,0,0,.29,21.37,21.37,0,0,1,5.08,6.7,19.06,19.06,0,0,1,2,7.09V829a15.53,15.53,0,0,1-.78,5,8,8,0,0,1-2.84,4.16,8.8,8.8,0,0,1-2.93,1.83,11.22,11.22,0,0,1-3.67.51c-.33,0-.67,0-1,0s-.93,0-1.42,0a1.74,1.74,0,0,1-1.27-.54,2.44,2.44,0,0,1-.68-1.27,14.81,14.81,0,0,0-1.32-4.3.19.19,0,0,0-.29-.1,78.79,78.79,0,0,1-7.68,3.32,1.9,1.9,0,0,1-1.37,0,1.94,1.94,0,0,1-1-.9q-1-1.71-2-3.13a1,1,0,0,1-.24-.64.87.87,0,0,1,.1-.39.94.94,0,0,1,.73-.73A66.26,66.26,0,0,0,791.42,828a45.54,45.54,0,0,0,8.56-5,.25.25,0,0,0,.1-.34,5.12,5.12,0,0,0-.29-.59c-.07-.13-.16-.15-.29,0a72.18,72.18,0,0,1-12.91,6.4,2,2,0,0,1-1.39,0,1.92,1.92,0,0,1-1.05-.9,21.1,21.1,0,0,0-1.71-2.59,1.11,1.11,0,0,1-.15-1.05,1,1,0,0,1,.73-.71,63.16,63.16,0,0,0,7.16-2.37,36.53,36.53,0,0,0,6-3q.2-.15,0-.29l-.17-.15-.17-.15a.27.27,0,0,0-.34,0,80.17,80.17,0,0,1-9.78,3.47,2.25,2.25,0,0,1-2.54-1.08q-.88-1.47-1.76-2.74a1.1,1.1,0,0,1-.15-1.05.94.94,0,0,1,.78-.66A60,60,0,0,0,794,811.51s0,0,0-.1h-3a1.67,1.67,0,0,1-1.71-1.71v-2.64a1.74,1.74,0,0,1,.49-1.25,1.62,1.62,0,0,1,1.22-.51h22.93a1.62,1.62,0,0,1,1.22.51,1.74,1.74,0,0,1,.49,1.25v2.64a1.67,1.67,0,0,1-1.71,1.71h-2q-.24,0-.15.24a34.06,34.06,0,0,0,1.27,3.76.19.19,0,0,0,.29.1A48.88,48.88,0,0,0,817.58,812.14Zm-29.29-9a.22.22,0,0,0-.24.24v3.52a1.75,1.75,0,0,1-1.71,1.71h-3.67a1.62,1.62,0,0,1-1.22-.51,1.68,1.68,0,0,1-.49-1.2v-8.56a1.74,1.74,0,0,1,.49-1.25,1.62,1.62,0,0,1,1.22-.51h15.79a.17.17,0,0,0,.2-.2v-1.71a1.62,1.62,0,0,1,.51-1.22,1.75,1.75,0,0,1,1.25-.49h4a1.75,1.75,0,0,1,1.25.49,1.62,1.62,0,0,1,.51,1.22v1.71a.17.17,0,0,0,.2.2h16a1.62,1.62,0,0,1,1.22.51,1.74,1.74,0,0,1,.49,1.25v8.56a1.68,1.68,0,0,1-.49,1.2,1.62,1.62,0,0,1-1.22.51h-4a1.75,1.75,0,0,1-1.71-1.71v-3.52a.22.22,0,0,0-.24-.24ZM799,833.51a3.79,3.79,0,0,0,2-2,6.33,6.33,0,0,0,.49-2.05.08.08,0,0,0,0-.07l-.1,0a69,69,0,0,1-7.09,4.2s0,0,0,0a.08.08,0,0,0,.07,0q1.08.1,3,.1A4.86,4.86,0,0,0,799,833.51Z" transform="translate(-215.11 -696.5)"/><path class="b" d="M844.37,794.59a1.75,1.75,0,0,1,1.76,1.76v36.77a14.34,14.34,0,0,1-.39,3.74,4,4,0,0,1-1.56,2.22,8.67,8.67,0,0,1-4.64,1.27,1.86,1.86,0,0,1-1.25-.49,2.13,2.13,0,0,1-.71-1.22,30,30,0,0,0-.88-3.37,1.2,1.2,0,0,1,.2-1.05,1.14,1.14,0,0,1,1-.46h1.27a.61.61,0,0,0,.49-.17,1,1,0,0,0,.15-.61v-8.7a.22.22,0,0,0-.24-.24H837a.22.22,0,0,0-.24.24,63.53,63.53,0,0,1-2.25,14.42,1.06,1.06,0,0,1-.78.78,1.36,1.36,0,0,1-1.17-.15q-1.22-.73-2.54-1.37a1.86,1.86,0,0,1-1.12-1.81,3.27,3.27,0,0,1,0-.54q2.1-7.23,2.1-22.69V796.35a1.74,1.74,0,0,1,.49-1.25,1.62,1.62,0,0,1,1.22-.51Zm-7.24,22.54a.17.17,0,0,0,.2.2h2.2q.24,0,.24-.2v-4.5c0-.13-.08-.2-.24-.2h-2.15a.17.17,0,0,0-.2.2v.29Q837.18,815.66,837.14,817.13Zm2.64-15.74a.22.22,0,0,0-.24-.24h-2.15q-.2,0-.2.24v4.25c0,.16.07.24.2.24h2.15a.22.22,0,0,0,.24-.24Zm24.84,10s0,0,0,.1a.92.92,0,0,1,.78.51.9.9,0,0,1,0,.9,9.79,9.79,0,0,1-.68,1.32q-.1.2.1.2h8.65a1.7,1.7,0,0,1,1.25.51,1.64,1.64,0,0,1,.51,1.2v22.39a1.64,1.64,0,0,1-.51,1.2,1.7,1.7,0,0,1-1.25.51h-3.52a1.42,1.42,0,0,1-1.42-1.42.17.17,0,0,0-.2-.2H854.54c-.13,0-.2.08-.2.24a1.52,1.52,0,0,1-.49,1.15,1.64,1.64,0,0,1-1.17.46h-3a1.75,1.75,0,0,1-1.71-1.71V816.1a1.75,1.75,0,0,1,1.71-1.71h6.75a.27.27,0,0,0,.29-.24q.34-1.32.64-2.74,0-.1,0-.15s-.08,0-.15,0L854,812.58a1.82,1.82,0,0,1-1.34,0,1.73,1.73,0,0,1-1-.9,50.38,50.38,0,0,0-4.5-7.58,2.47,2.47,0,0,1-.54-1.47,2.76,2.76,0,0,1,.44-1.42,73.25,73.25,0,0,0,3.86-6.65,2.24,2.24,0,0,1,1-1,2.17,2.17,0,0,1,1-.24,2.38,2.38,0,0,1,.44,0l2.93.64a1.25,1.25,0,0,1,.9.76,1.15,1.15,0,0,1-.07,1.15q-1.56,2.74-4.06,6.55a.3.3,0,0,0,0,.39,53.26,53.26,0,0,1,5.18,7.77.43.43,0,0,0,.29.24l1.52.15a.11.11,0,0,0,.12-.07.4.4,0,0,0,0-.12,61.23,61.23,0,0,0-4.55-6.94,2.35,2.35,0,0,1-.46-1.37,2.52,2.52,0,0,1,.42-1.47,67.88,67.88,0,0,0,3.81-6.5,2.3,2.3,0,0,1,1-1,2.08,2.08,0,0,1,.93-.24,2.6,2.6,0,0,1,.49,0l2.88.64a1.25,1.25,0,0,1,.9.76,1.16,1.16,0,0,1-.07,1.15q-1.17,2-4,6.36a.24.24,0,0,0,0,.34,59.35,59.35,0,0,1,4.55,6.31,1.31,1.31,0,0,1,.15,1.25,1.47,1.47,0,0,1-.88.9Zm-2.05,9q.1-.15-.15-.15h-7.87a.17.17,0,0,0-.2.2v3.52a.08.08,0,0,0,.15,0l2.2-2.05a2.08,2.08,0,0,1,1.32-.61,2.33,2.33,0,0,1,1.44.32q.66.39,1.39.88a.22.22,0,0,0,.34,0Q861.92,821.43,862.56,820.36Zm-8,4.16c-.13-.07-.2,0-.2.1v4.3c0,.16.07.2.2.1a26.69,26.69,0,0,0,2.88-2.3.18.18,0,0,0,0-.29Q856.59,825.83,854.54,824.51Zm0,5.67a.08.08,0,0,0-.1,0s0,.06,0,.12v2.3c0,.16.07.24.2.24h2.3s.06,0,.07-.07a.11.11,0,0,0,0-.12A33.51,33.51,0,0,0,854.49,830.18Zm4,2.49v.1a0,0,0,0,0,0,0h9.73a.22.22,0,0,0,.24-.24v-3.23s0-.06-.07-.07a.11.11,0,0,0-.12,0l-2.1,2.1a1.47,1.47,0,0,1-1.2.51,1.9,1.9,0,0,1-1.25-.51,21,21,0,0,0-1.76-1.47.24.24,0,0,0-.34,0A30.46,30.46,0,0,1,858.5,832.68Zm17.06-23.91a1.47,1.47,0,0,1,.24.78,1.8,1.8,0,0,1,0,.44,1.47,1.47,0,0,1-.83,1l-2.84,1.27a1.9,1.9,0,0,1-1.37.07,1.73,1.73,0,0,1-1-.86,61,61,0,0,0-5.48-7.58,2.28,2.28,0,0,1-.54-1.34,2.14,2.14,0,0,1,.39-1.39q2.35-3.52,4.06-6.65a2,2,0,0,1,1-1,2.08,2.08,0,0,1,.93-.24,2.6,2.6,0,0,1,.49,0l3.23.73a1.25,1.25,0,0,1,.9.76,1.15,1.15,0,0,1-.07,1.15q-1.27,2.15-4.16,6.31a.27.27,0,0,0,0,.34A59.25,59.25,0,0,1,875.56,808.77ZM868.33,828a.11.11,0,0,0,.12,0s.07,0,.07-.07v-7.53c0-.13-.08-.2-.24-.2h-3.67s0,0,0,0,0,0,0,.07l1.81.88a1.55,1.55,0,0,1,.81,1,1.64,1.64,0,0,1-.17,1.27q-.73,1.13-1.47,2.05-.15.15,0,.29Q866.86,826.71,868.33,828Z" transform="translate(-215.11 -696.5)"/><path class="b" d="M903.73,801.68a.22.22,0,0,0,.24.24h18.09a1.67,1.67,0,0,1,1.66,1.66q0,.73-.1,1.71-.68,14.91-1.59,21.46t-2.57,8.6a7.88,7.88,0,0,1-2.47,2.2,10.12,10.12,0,0,1-3.15,1,30.88,30.88,0,0,1-4.89.29h-1.39a1.84,1.84,0,0,1-1.27-.51,2.25,2.25,0,0,1-.71-1.25,18,18,0,0,0-.59-2.15,14.86,14.86,0,0,0-.93-2.2,1,1,0,0,1,.07-1,.78.78,0,0,1,.81-.42q2.79.15,5.57.15a3.21,3.21,0,0,0,2.3-.88q2.1-2.1,3.08-21,0-.24-.2-.24h-12c-.16,0-.24.07-.24.2q-1.61,20-16.67,29.14a1.89,1.89,0,0,1-1,.29,1.68,1.68,0,0,1-.39,0,2.08,2.08,0,0,1-1.22-.73q-.68-.83-1.61-1.76a21,21,0,0,0-1.71-1.71,1.06,1.06,0,0,1-.44-.88,1.11,1.11,0,0,1,.59-1q12.91-7.33,14.67-23.27a.17.17,0,0,0-.2-.2H882.9a1.75,1.75,0,0,1-1.76-1.76v-4a1.75,1.75,0,0,1,1.71-1.71h12.91c.13,0,.2-.08.2-.24v-8a1.75,1.75,0,0,1,1.76-1.76H902a1.64,1.64,0,0,1,1.2.51,1.7,1.7,0,0,1,.51,1.25Z" transform="translate(-215.11 -696.5)"/><path class="b" d="M939.37,809.75a1.53,1.53,0,0,1,.68,1.12.81.81,0,0,1,0,.24,1.68,1.68,0,0,1-.39,1.08l-2.2,3a1.35,1.35,0,0,1-1.08.64h-.24a1.63,1.63,0,0,1-1-.34,33.94,33.94,0,0,0-4.74-2.88,1.33,1.33,0,0,1-.78-1,1.08,1.08,0,0,1,0-.34,1.36,1.36,0,0,1,.29-.83l1.91-2.59a2.66,2.66,0,0,1,1.22-.83,3.73,3.73,0,0,1,.59,0,2.35,2.35,0,0,1,.83.15A32.76,32.76,0,0,1,939.37,809.75Zm37.21-3.28a1.74,1.74,0,0,1-.49,1.25,1.62,1.62,0,0,1-1.22.51.23.23,0,0,0-.24.2,75.92,75.92,0,0,1-3.76,18.33.55.55,0,0,0,0,.39,22.81,22.81,0,0,0,4.94,6.45,1.7,1.7,0,0,1,.59,1.17A1.44,1.44,0,0,1,976,836q-1.22,1.47-2.3,3a1.4,1.4,0,0,1-2.15.29,27.38,27.38,0,0,1-4-5.38s0,0-.1,0-.1,0-.1,0a29.33,29.33,0,0,1-4.74,5.57,1.66,1.66,0,0,1-1.27.44,2,2,0,0,1-1.27-.54q-1-1-2-1.86-.15-.15-.24,0a4.41,4.41,0,0,1-.54.93,4.57,4.57,0,0,1-3,1.71,14,14,0,0,1-2.84.29h0a1.77,1.77,0,0,1-1.22-.49,2.44,2.44,0,0,1-.68-1.27,15.91,15.91,0,0,0-.83-3,.34.34,0,0,0-.12-.07s-.07,0-.07.07A18.22,18.22,0,0,1,944.6,840a1.83,1.83,0,0,1-1.32.37,2,2,0,0,1-1.27-.61q-1-.93-2.2-1.86a1.16,1.16,0,0,1-.51-1,1.32,1.32,0,0,1,.51-1,14,14,0,0,0,5.48-11.39v-.68q0-.24-.2-.24h-4s0,0,0,0a.67.67,0,0,1,.29.88q-2.05,6.94-4.74,13.93a1.47,1.47,0,0,1-.9.88,1.4,1.4,0,0,1-1.25-.1l-3.57-2a1.82,1.82,0,0,1-.88-1,1.68,1.68,0,0,1,.1-1.37q2.69-6.06,5-13a1.25,1.25,0,0,1,.81-.86,1.28,1.28,0,0,1,1.2.17l3.47,2.2c.1.07.15,0,.15-.1v-3.72a1.75,1.75,0,0,1,1.76-1.76h4.25a.17.17,0,0,0,.2-.2v-2.25q0-.24-.2-.24h-3.13a1.75,1.75,0,0,1-1.71-1.71V799a.08.08,0,0,0-.15,0l-2.44,3.28a1.48,1.48,0,0,1-1.1.61,1.74,1.74,0,0,1-1.25-.32,36.36,36.36,0,0,0-4.89-3.08,1.34,1.34,0,0,1-.73-1,1.43,1.43,0,0,1,.24-1.2l2-2.54a2,2,0,0,1,1.2-.83,2.19,2.19,0,0,1,1.44.1,30.24,30.24,0,0,1,5.82,3.32.71.71,0,0,0,.44.15h4c.13,0,.21-.08.24-.24q.29-1.66.44-2.64a2,2,0,0,1,.68-1.17A1.68,1.68,0,0,1,949,793h.2l4.2.39a1.38,1.38,0,0,1,1.17,1.76l-.68,2.05c0,.16,0,.24.15.24h3.52a1.69,1.69,0,0,1,1.2.49,1.62,1.62,0,0,1,.51,1.22v7.58a.06.06,0,0,0,.1,0,67.47,67.47,0,0,0,2.69-12.17,1.63,1.63,0,0,1,.66-1.15,1.72,1.72,0,0,1,1.3-.32l3.28.59a1.9,1.9,0,0,1,1.12.71,1.52,1.52,0,0,1,.29,1.3q-.54,3.23-1.08,5.72c0,.16,0,.24.2.24h7a1.67,1.67,0,0,1,1.71,1.71Zm-28.65-4.11q-.2,0-.2.24v1.08c0,.16.07.24.2.24h5.13c.13,0,.2-.08.2-.24v-1.08q0-.24-.2-.24Zm0,6.11a.17.17,0,0,0-.2.2v1.17c0,.16.07.24.2.24h5.13c.13,0,.2-.08.2-.24v-1.17a.17.17,0,0,0-.2-.2Zm4.55,22.69c0-.13-.08-.2-.24-.2h-1.52a.23.23,0,0,0-.24.2,15.41,15.41,0,0,1-1.47,3.52q-.1.2.15.2.68,0,1.56,0a1.47,1.47,0,0,0,1.22-.49A8.06,8.06,0,0,0,952.47,831.16Zm-1.17-6.06q0,.2.24.2h5.72a1.56,1.56,0,0,1,1.17.51,1.51,1.51,0,0,1,.44,1.2v.39q-.15,4.84-.39,6.8a.08.08,0,0,0,.15,0,22.76,22.76,0,0,0,5.62-7.72.52.52,0,0,0,0-.44,66.15,66.15,0,0,1-2.2-8.6q0-.1,0-.1a.15.15,0,0,0-.1,0q-.1.2-.24.44a1,1,0,0,1-.76.42.84.84,0,0,1-.76-.37h-.07s0,0,0,0v3.81a1.64,1.64,0,0,1-.51,1.2,1.7,1.7,0,0,1-1.25.51h-6.75a.22.22,0,0,0-.24.24v1.37ZM954,815q-.2,0-.2.24v2.25a.17.17,0,0,0,.2.2h5.72q.24,0,.1-.15-1.17-1.42-2.1-2.4a.47.47,0,0,0-.34-.15Zm14.28-6.55c0-.13,0-.2-.2-.2h-2.05a.26.26,0,0,0-.29.2l-.1.24a.67.67,0,0,0,0,.44q.64,4.25,1.52,7.77h.1Q968,812.68,968.31,808.43Z" transform="translate(-215.11 -696.5)"/><path class="b" d="M988.7,803.59a1.4,1.4,0,0,1,.81,1,1.64,1.64,0,0,1-.17,1.27l-1.66,2.49a1.77,1.77,0,0,1-1.1.76,1.83,1.83,0,0,1-1.34-.17,42.55,42.55,0,0,0-4.74-2.3,1.32,1.32,0,0,1-.78-.88,1.8,1.8,0,0,1,0-.44,1.24,1.24,0,0,1,.24-.73l1.52-2.1a2.28,2.28,0,0,1,1.17-.88,2.49,2.49,0,0,1,.68-.1,2.21,2.21,0,0,1,.78.15Q986.45,802.51,988.7,803.59Zm31.93,29.58c0,.16.07.24.2.24H1024a1.75,1.75,0,0,1,1.71,1.71v2.15a1.7,1.7,0,0,1-.51,1.25,1.64,1.64,0,0,1-1.2.51H981.42a1.64,1.64,0,0,1-1.2-.51,1.7,1.7,0,0,1-.51-1.25v-2.15a1.75,1.75,0,0,1,1.71-1.71h3c.13,0,.2-.08.2-.24V826a1.62,1.62,0,0,1,.51-1.22,1.75,1.75,0,0,1,1.25-.49h12s.06,0,.07-.07a.11.11,0,0,0,0-.12q-.59-.54-1.27-1.12a1.1,1.1,0,0,1-.44-1,1.09,1.09,0,0,1,.54-.9,23.24,23.24,0,0,0,4.06-3.23.11.11,0,0,0,0-.12s0-.07-.07-.07H999.6a.53.53,0,0,0-.39.15,31.31,31.31,0,0,1-3.13,2.59,1.89,1.89,0,0,1-1.37.34,2.15,2.15,0,0,1-1.27-.64q-.78-.83-1.56-1.56a1.31,1.31,0,0,1-.39-1.08,1.09,1.09,0,0,1,.59-.93,26.58,26.58,0,0,0,5.18-4.2.08.08,0,0,0,0-.1.08.08,0,0,0-.07,0H995.3a1.62,1.62,0,0,1-1.22-.51,1.74,1.74,0,0,1-.49-1.25v-1.27a1.74,1.74,0,0,1,.49-1.25,1.62,1.62,0,0,1,1.22-.51h28.55a1.75,1.75,0,0,1,1.76,1.76v1.27a1.75,1.75,0,0,1-1.76,1.76h-19.41a.47.47,0,0,0-.34.15q-.1.15-.29.39c-.13.16-.23.29-.29.39s-.07.15.1.15H1023a1.56,1.56,0,0,1,1.17.51,1.38,1.38,0,0,1,.39,1.2,1.08,1.08,0,0,1,0,.34q-.64,6.16-2.1,7.68a4.82,4.82,0,0,1-2.25,1.27v0q.49,0,.49.44Zm-31.68-24.1a1.35,1.35,0,0,1,1.1-.46,1.3,1.3,0,0,1,1.05.56l1.52,2.05a2.26,2.26,0,0,1,.42,1.39,2.15,2.15,0,0,1-.51,1.34q-3.76,4.5-7.72,8.7a1.4,1.4,0,0,1-1.15.46,1.48,1.48,0,0,1-1.15-.56l-2-2.4a1.65,1.65,0,0,1-.44-1.27,1.75,1.75,0,0,1,.59-1.22A118,118,0,0,0,988.94,809.06Zm3.86-12.76a1.26,1.26,0,0,1,.81.9,1.59,1.59,0,0,1-.17,1.25l-1.52,2.4a1.91,1.91,0,0,1-1.15.81,2,2,0,0,1-1.34-.12q-2.69-1.37-5.43-2.54a1.32,1.32,0,0,1-.78-.88,1.27,1.27,0,0,1,.2-1.17l1.37-2a2.28,2.28,0,0,1,1.17-.88,2.49,2.49,0,0,1,.68-.1,2.66,2.66,0,0,1,.73.1Q990.17,795.13,992.81,796.3Zm-1.17,33.34q-.2,0-.2.24v3.28c0,.16.07.24.2.24h2.44a.22.22,0,0,0,.24-.24v-3.28a.22.22,0,0,0-.24-.24Zm28.5-35.35a1.64,1.64,0,0,1,1.2.51,1.7,1.7,0,0,1,.51,1.25v8.51a1.7,1.7,0,0,1-.51,1.25,1.64,1.64,0,0,1-1.2.51H999a1.75,1.75,0,0,1-1.76-1.76v-8.51A1.75,1.75,0,0,1,999,794.3Zm-19,35.35a.22.22,0,0,0-.24.24v3.28a.22.22,0,0,0,.24.24h2.49a.22.22,0,0,0,.24-.24v-3.28a.22.22,0,0,0-.24-.24Zm8.36-11.83c.07-.13,0-.2-.1-.2H1008a.35.35,0,0,0-.34.2,30.93,30.93,0,0,1-6.11,6.31s0,0,0,.07,0,.07.07.07h5.92s.06,0,.07-.07,0-.07,0-.07c-.36-.29-.72-.57-1.08-.83a1.15,1.15,0,0,1-.56-1,1.32,1.32,0,0,1,.46-1.08A19.47,19.47,0,0,0,1009.53,817.81Zm4.89-19.07q.24,0,.24-.2v-.78c0-.13-.08-.2-.24-.2h-10.07a.17.17,0,0,0-.2.2v.78a.17.17,0,0,0,.2.2Zm0,4.3q.24,0,.24-.2v-.78c0-.13-.08-.2-.24-.2h-10.07a.17.17,0,0,0-.2.2v.78a.17.17,0,0,0,.2.2Zm-3.72,26.6q-.2,0-.2.24v3.28c0,.16.07.24.2.24h2.54c.13,0,.2-.08.2-.24v-3.28q0-.24-.2-.24Zm0-5.57a.11.11,0,0,0,0,.12s0,.07.07.07h4.06c.16,0,.23-.08.2-.24a10.68,10.68,0,0,0-.93-3.67q0-.1-.07-.1a.17.17,0,0,0-.12,0A27.13,27.13,0,0,1,1010.65,824.07Zm7.09-6.21q0-.24-.15-.24h-1.86a.35.35,0,0,0-.34.2q-.88,1.42-1,1.61c-.07.1,0,.16.1.2a10.25,10.25,0,0,0,1.47,0,1.59,1.59,0,0,0,1.17-.39A3.89,3.89,0,0,0,1017.74,817.86Z" transform="translate(-215.11 -696.5)"/><path class="b" d="M1029.52,812.83a1.64,1.64,0,0,1,.51-1.2,1.7,1.7,0,0,1,1.25-.51h43.12a1.7,1.7,0,0,1,1.25.51,1.64,1.64,0,0,1,.51,1.2v4.5a1.75,1.75,0,0,1-1.76,1.76h-43.12a1.75,1.75,0,0,1-1.76-1.76Z" transform="translate(-215.11 -696.5)"/><path class="b" d="M1125.45,802.17a1.75,1.75,0,0,1-1.76,1.76h-17.75c-.16,0-.24.07-.24.2v6.94s0,.06.07.07.07,0,.07,0a2.08,2.08,0,0,1,1.22-.73,2.16,2.16,0,0,1,1.42.2,111.35,111.35,0,0,1,13.84,8.21,1.46,1.46,0,0,1,.66,1.12,1.67,1.67,0,0,1-.37,1.27l-3.28,4a1.55,1.55,0,0,1-1.15.59,1.71,1.71,0,0,1-1.25-.39,90.45,90.45,0,0,0-11-7.43q-.2-.15-.2.1v20.53a1.68,1.68,0,0,1-.49,1.2,1.62,1.62,0,0,1-1.22.51h-4.4a1.62,1.62,0,0,1-1.22-.51,1.68,1.68,0,0,1-.49-1.2V804.12c0-.13-.08-.2-.24-.2h-15.55a1.75,1.75,0,0,1-1.76-1.76v-3.86a1.75,1.75,0,0,1,1.76-1.76h41.61a1.75,1.75,0,0,1,1.76,1.76Z" transform="translate(-215.11 -696.5)"/><path class="b" d="M1144.3,834.75a5.67,5.67,0,0,1-7.77,0,5.33,5.33,0,0,1-1.54-3.94,5.39,5.39,0,0,1,1.56-3.94,5.49,5.49,0,0,1,7.72,0,5.39,5.39,0,0,1,1.56,3.94A5.33,5.33,0,0,1,1144.3,834.75Zm-5.06-12.54a1.78,1.78,0,0,1-1.27-.51,1.84,1.84,0,0,1-.59-1.25l-1.12-15.4-.24-6.16a1.66,1.66,0,0,1,.49-1.22,1.61,1.61,0,0,1,1.17-.49h5.52a1.61,1.61,0,0,1,1.17.49,1.66,1.66,0,0,1,.49,1.22l-.24,6.16-1.12,15.4a1.84,1.84,0,0,1-.59,1.25,1.78,1.78,0,0,1-1.27.51Z" transform="translate(-215.11 -696.5)"/><path class="b" d="M475.19,829.91a1.2,1.2,0,0,1,.39,1.12,1.22,1.22,0,0,1-.68,1l-3.28,1.91s0,0,0,0a.08.08,0,0,0,.07,0l3.28-.1a.86.86,0,0,1,.83.49.85.85,0,0,1,.2.54.88.88,0,0,1-.15.44q-.54,1.27-1,2.74a2.26,2.26,0,0,1-2.15,1.66H453.29a44.58,44.58,0,0,1-11.1-1.1,12.51,12.51,0,0,1-6.7-4.33.17.17,0,0,0-.12,0s-.07,0-.07.1a19.7,19.7,0,0,1-2.3,5.28,1,1,0,0,1-.88.49H432a1.36,1.36,0,0,1-1-.54,20.79,20.79,0,0,0-2-2.4,2.3,2.3,0,0,1-.59-1.27v-.24a2.05,2.05,0,0,1,.29-1.08q1.91-3.52,2.15-11.69a1.64,1.64,0,0,1,.51-1.2,1.7,1.7,0,0,1,1.25-.51H435a1.62,1.62,0,0,1,1.22.51,1.52,1.52,0,0,1,.44,1.2q0,2.05-.15,3.47a.66.66,0,0,0,0,.44,13,13,0,0,0,1.66,2.93q.1,0,.1,0v-9.83c0-.16-.07-.24-.2-.24h-7a1.75,1.75,0,0,1-1.71-1.71v-1.76a1.75,1.75,0,0,1,1.71-1.71h19.12a1.7,1.7,0,0,1,1.25.51,1.64,1.64,0,0,1,.51,1.2V818a1.64,1.64,0,0,1-.51,1.2,1.7,1.7,0,0,1-1.25.51h-5.57a.22.22,0,0,0-.24.24v2.84a.22.22,0,0,0,.24.24h4.64a1.62,1.62,0,0,1,1.22.51,1.69,1.69,0,0,1,.49,1.2v1.71a1.69,1.69,0,0,1-.49,1.2,1.62,1.62,0,0,1-1.22.51h-4.64a.22.22,0,0,0-.24.24v4.84a.27.27,0,0,0,.24.29,49.5,49.5,0,0,0,8.65.59h.39a.08.08,0,0,0,.07,0,.22.22,0,0,0,0-.1q-1.42-1.37-2.69-2.49a1,1,0,0,1-.39-.93.94.94,0,0,1,.59-.83,21,21,0,0,0,4.69-3.13,3,3,0,0,1,2-.83,2.63,2.63,0,0,1,.83.15l2.59.78a1.13,1.13,0,0,1,.81.81,1.06,1.06,0,0,1-.22,1.05,29.71,29.71,0,0,1-6.6,5.48s0,0,0,0a.08.08,0,0,0,.07,0q10.22,0,15.4-.1.24,0,.1-.15a37.4,37.4,0,0,0-5.33-5.33,1.15,1.15,0,0,1-.39-1,1,1,0,0,1,.59-.86l2.49-1.27c0-.07,0-.1,0-.1H454.9a1.75,1.75,0,0,1-1.76-1.76V803.71a1.64,1.64,0,0,1,.51-1.2,1.7,1.7,0,0,1,1.25-.51h4.6a.27.27,0,0,0,.29-.24l.44-1.52q.1-.2-.15-.2h-6.55a1.64,1.64,0,0,1-1.2-.51,1.7,1.7,0,0,1-.51-1.25v-1.52a1.7,1.7,0,0,1,.51-1.25,1.64,1.64,0,0,1,1.2-.51h19.75a1.75,1.75,0,0,1,1.76,1.76v1.52a1.75,1.75,0,0,1-1.76,1.76H467a.31.31,0,0,0-.29.2l-.78,1.56q-.1.2.15.2h6.06a1.62,1.62,0,0,1,1.22.51,1.69,1.69,0,0,1,.49,1.2v19.85a1.74,1.74,0,0,1-.49,1.25,1.62,1.62,0,0,1-1.22.51h-2a.08.08,0,0,0,0,.15A36.68,36.68,0,0,1,475.19,829.91Zm-26.84-35a1.75,1.75,0,0,1,1.76,1.76v13.64a1.75,1.75,0,0,1-1.76,1.76H433a1.64,1.64,0,0,1-1.2-.51,1.7,1.7,0,0,1-.51-1.25V796.72a1.7,1.7,0,0,1,.51-1.25A1.64,1.64,0,0,1,433,795Zm-5.18,6.31q.24,0,.24-.2v-1.12q0-.2-.24-.2h-5.23a.17.17,0,0,0-.2.2v1.12a.17.17,0,0,0,.2.2Zm0,6.06q.24,0,.24-.2V806q0-.2-.24-.2h-5.23a.17.17,0,0,0-.2.2v1.17a.17.17,0,0,0,.2.2Zm23.76,1c.13,0,.2-.08.2-.24V807c0-.16-.07-.24-.2-.24h-7.14a.22.22,0,0,0-.24.24v1.08a.22.22,0,0,0,.24.24Zm0,6.06c.13,0,.2-.08.2-.24V813a.17.17,0,0,0-.2-.2h-7.14c-.16,0-.24.07-.24.2v1.12a.22.22,0,0,0,.24.24Zm0,6.06c.13,0,.2-.08.2-.24v-1.12a.17.17,0,0,0-.2-.2h-7.14c-.16,0-.24.07-.24.2v1.12a.22.22,0,0,0,.24.24Z" transform="translate(-215.11 -696.5)"/></svg>