<?xml version="1.0" encoding="utf-8"?>
<!-- Generator: Adobe Illustrator 21.0.0, SVG Export Plug-In . SVG Version: 6.00 Build 0)  -->
<svg version="1.1" id="圖層_1" xmlns="http://www.w3.org/2000/svg" xmlns:xlink="http://www.w3.org/1999/xlink" x="0px" y="0px"
	 viewBox="0 0 700.4 169" style="enable-background:new 0 0 700.4 169;" xml:space="preserve">
<style type="text/css">
	.st0{fill:#E71F19;}
</style>
<g>
	<g>
		<path d="M65.4,54c0,0.6-0.2,1.1-0.7,1.6c-0.5,0.5-1,0.7-1.6,0.7H52.9c-0.2,0-0.3,0.1-0.5,0.3c-1.4,2.6-2.9,4.9-4.7,6.9
			c-0.1,0.1-0.1,0.2,0.1,0.3c4.9,1.4,9.2,2.7,13,4c0.5,0.2,0.9,0.5,1,1.1c0.2,0.5,0.1,1.1-0.3,1.5l-3.1,4.2
			c-0.4,0.5-0.9,0.9-1.6,1.1c-0.7,0.2-1.3,0.2-2-0.1c-4.9-1.9-10.2-3.7-15.9-5.5c-0.2,0-0.4,0-0.5,0.1c-6,2.8-15.2,4.8-27.7,6
			c-0.1,0-0.2,0-0.3,0C10,76,9.5,75.8,9,75.5c-0.5-0.4-0.9-0.9-1.1-1.6c-0.5-1.4-1.1-2.8-1.8-4.1c-0.3-0.5-0.3-0.9,0-1.4
			c0.2-0.4,0.6-0.7,1.1-0.7c7.2-0.3,12.9-0.9,17.3-1.8c0,0,0.1-0.1,0.1-0.1c0,0,0,0-0.1,0l-2.9-0.7c0,0-0.1,0-0.1,0
			c-0.2,0.3-0.5,0.4-0.8,0.3l-6.7-2c-0.5-0.2-0.9-0.5-1-1c-0.2-0.5-0.1-1,0.2-1.5c1-1.3,2.1-2.7,3.1-4.3c0.1-0.2,0.1-0.3-0.1-0.3
			H5.8c-0.6,0-1.1-0.2-1.6-0.7c-0.5-0.5-0.7-1-0.7-1.6v-3.1c0-0.7,0.2-1.2,0.7-1.7c0.5-0.5,1-0.7,1.6-0.7h15.5
			c0.2,0,0.3-0.1,0.5-0.2c0.4-0.7,1-1.6,1.8-2.8c0.1-0.2,0-0.3-0.1-0.3H9.9c-0.7,0-1.2-0.2-1.7-0.7c-0.5-0.5-0.7-1-0.7-1.6V27.8
			c0-0.7,0.2-1.2,0.7-1.7c0.5-0.5,1-0.7,1.7-0.7h11.7c0.2,0,0.3-0.1,0.3-0.3v-2.1c0-0.2-0.1-0.3-0.3-0.3H6.9c-0.7,0-1.2-0.2-1.7-0.7
			c-0.5-0.5-0.7-1-0.7-1.6v-3.7c0-0.7,0.2-1.2,0.7-1.7c0.5-0.5,1-0.7,1.7-0.7h54.5c0.7,0,1.2,0.2,1.7,0.7c0.5,0.5,0.7,1,0.7,1.7v3.7
			c0,0.6-0.2,1.1-0.7,1.6c-0.5,0.5-1,0.7-1.7,0.7H46.3c-0.2,0-0.3,0.1-0.3,0.3v2.1c0,0.2,0.1,0.3,0.3,0.3h13.4
			c0.7,0,1.2,0.2,1.7,0.7c0.5,0.5,0.7,1,0.7,1.7v15.1c0,0.6-0.2,1.1-0.7,1.6c-0.5,0.5-1,0.7-1.7,0.7H35c-0.2,0-0.4,0.1-0.5,0.3
			l-1.7,2.8c-0.1,0.1-0.1,0.2,0.1,0.2h30.1c0.6,0,1.1,0.2,1.6,0.7c0.5,0.5,0.7,1,0.7,1.7V54z M16.9,33c-0.2,0-0.3,0.1-0.3,0.3v4.1
			c0,0.2,0.1,0.3,0.3,0.3h4.6c0.2,0,0.3-0.1,0.3-0.3v-4.1c0-0.2-0.1-0.3-0.3-0.3H16.9z M28,56.3c-0.2,0-0.3,0.1-0.5,0.3l-0.9,1.3
			c-0.1,0.2-0.1,0.3,0.1,0.3c2.8,0.7,6.2,1.5,10.2,2.6c0.2,0,0.3,0,0.5-0.1c1.5-1.2,2.9-2.5,4-4.1c0.1-0.2,0.1-0.3-0.1-0.3H28z
			 M31.3,22.8c-0.2,0-0.3,0.1-0.3,0.3v2.1c0,0.2,0.1,0.3,0.3,0.3h5.2c0.2,0,0.3-0.1,0.3-0.3v-2.1c0-0.2-0.1-0.3-0.3-0.3H31.3z
			 M31.1,37.4c0,0.2,0.1,0.3,0.3,0.3h5.2c0.2,0,0.3-0.1,0.3-0.3v-4.1c0-0.2-0.1-0.3-0.3-0.3h-5.2c-0.2,0-0.3,0.1-0.3,0.3V37.4z
			 M52.3,33.3c0-0.2-0.1-0.3-0.3-0.3h-5.7c-0.2,0-0.3,0.1-0.3,0.3v4.1c0,0.2,0.1,0.3,0.3,0.3H52c0.2,0,0.3-0.1,0.3-0.3V33.3z"/>
		<path d="M79,72.2c-0.5,0.5-1.1,0.8-1.7,0.8c-0.7,0.1-1.3-0.1-1.9-0.5l-4.3-2.9c-0.5-0.3-0.8-0.9-0.8-1.5c0-0.5,0.2-1,0.5-1.4
			c2.8-2.9,4.9-6.7,6.3-11.3c0.2-0.6,0.5-1.1,1.1-1.3c0.6-0.3,1.1-0.3,1.7-0.2l4.4,1.4c0.6,0.2,1.1,0.6,1.4,1.2
			c0.3,0.6,0.4,1.2,0.2,1.8C84.2,64.4,81.9,69,79,72.2z M100.5,66.3h7.1c1,0,1.6-0.2,2-0.7c0.4-0.4,0.6-1.4,0.8-2.7
			c0.1-0.5,0.4-0.9,0.8-1.1c0.5-0.2,0.9-0.2,1.4,0c1.3,0.6,2.7,1.1,4.3,1.6c0.7,0.2,1.2,0.6,1.5,1.1c0.4,0.5,0.5,1.1,0.4,1.8
			c-0.6,3.3-1.7,5.6-3.2,6.8c-1.5,1.2-3.9,1.8-7.1,1.8h-9.3c-3.2,0-5.6-0.3-7.3-1c-1.7-0.7-2.8-1.8-3.4-3.3
			c-0.6-1.5-0.9-3.6-0.9-6.4v-7.4c0-0.7,0.2-1.2,0.7-1.6c0.5-0.4,1-0.7,1.7-0.7h6.8c0,0,0.1,0,0.1-0.1c0,0,0-0.1,0-0.1l-0.1-0.1
			c-0.5-0.3-0.7-0.8-0.8-1.4c0-0.6,0.2-1,0.6-1.4l0.9-0.8c0,0,0.1-0.1,0-0.1c0,0-0.1-0.1-0.1-0.1h-0.9c-0.7,0-1.2-0.2-1.7-0.7
			c-0.5-0.5-0.7-1-0.7-1.6V27.8c0-0.2-0.1-0.3-0.3-0.3h-4.4c-0.2,0-0.3,0.1-0.5,0.3c-2.8,4.6-5.9,8.5-9.3,11.7
			c-0.5,0.4-1,0.6-1.7,0.6c-0.7,0-1.2-0.3-1.7-0.7c-1.5-1.5-3.1-2.9-4.8-4.2c-0.4-0.3-0.7-0.8-0.7-1.4c0-0.6,0.2-1,0.7-1.4
			c2.7-2.2,5.1-4.9,7.3-8.1c2.2-3.2,3.9-6.5,5.3-10.1c0.3-0.6,0.7-1.1,1.2-1.4c0.4-0.2,0.8-0.3,1.2-0.3c0.2,0,0.4,0,0.7,0.1l5.8,1.5
			c0.6,0.1,1.1,0.5,1.4,1c0.3,0.5,0.3,1.1,0.1,1.7c-0.2,0.5-0.4,1.2-0.8,2c-0.1,0.2,0,0.3,0.2,0.3h34.5c0.7,0,1.2,0.2,1.6,0.7
			c0.4,0.5,0.7,1,0.7,1.6v3.7c0,0.7-0.2,1.2-0.7,1.7c-0.4,0.5-1,0.7-1.6,0.7h-24.1c-0.2,0-0.3,0.1-0.3,0.3v1.6
			c0,0.2,0.1,0.3,0.3,0.3h20.1c0.6,0,1.1,0.2,1.6,0.7c0.5,0.4,0.7,1,0.7,1.6v2.9c0,0.7-0.2,1.2-0.7,1.6c-0.5,0.4-1,0.7-1.6,0.7
			h-20.1c-0.2,0-0.3,0.1-0.3,0.3v2c0,0.2,0.1,0.3,0.3,0.3h21.9c0.7,0,1.2,0.2,1.7,0.7c0.5,0.5,0.7,1,0.7,1.7v3.3
			c0,0.6-0.2,1.1-0.7,1.6c-0.5,0.5-1,0.7-1.7,0.7h-21.9c-0.2,0-0.3,0.1-0.3,0.3v0.9c0,0.2,0.1,0.4,0.3,0.5c2.6,1.8,4.8,3.6,6.4,5.2
			c0.4,0.4,0.6,1,0.6,1.6c0,0.6-0.3,1.2-0.8,1.6l-3.7,3c-0.5,0.4-1,0.6-1.6,0.6c-0.6-0.1-1.1-0.3-1.6-0.8c-1.7-1.8-3.7-3.7-6.2-5.6
			c-0.2-0.1-0.3,0-0.3,0.1v9.1c0,1,0.2,1.6,0.6,1.9C98.2,66.2,99.1,66.3,100.5,66.3z M116,58.2c-0.3-0.3-0.4-0.7-0.4-1.1
			c0-0.1,0-0.3,0.1-0.5c0.1-0.6,0.5-1,1-1.2l4.1-1.9c0.4-0.2,0.8-0.3,1.3-0.3c0.2,0,0.4,0,0.6,0.1c0.7,0.1,1.3,0.5,1.7,1
			c3.8,4.5,6.6,8.7,8.3,12.6c0.1,0.3,0.2,0.6,0.2,0.9c0,0.3-0.1,0.6-0.2,0.9c-0.3,0.6-0.7,1.1-1.3,1.4l-4.8,2.2
			c-0.3,0.1-0.5,0.2-0.9,0.2c-0.3,0-0.5,0-0.8-0.1c-0.6-0.3-1-0.7-1.2-1.2C122.1,66.9,119.5,62.7,116,58.2z"/>
		<path d="M159.1,25.6c0-0.2-0.1-0.3-0.3-0.3h-8.6c-0.2,0-0.3,0.1-0.3,0.3v11.9c0,16-1.7,28.2-5.2,36.6c-0.2,0.5-0.6,0.8-1.2,0.9
			c-0.6,0.1-1.1,0-1.5-0.4c-1.2-1-2.5-1.9-3.7-2.7c-0.6-0.4-0.9-0.9-1.1-1.5c-0.1-0.3-0.2-0.6-0.2-0.9c0-0.3,0.1-0.7,0.2-1
			c1.6-4.1,2.7-8.8,3.1-14c0.5-5.2,0.7-10.9,0.7-17.1V19.6c0-0.7,0.2-1.2,0.7-1.7c0.5-0.5,1-0.7,1.7-0.7h22c0.2,0,0.3-0.1,0.3-0.3
			v-2.4c0-0.7,0.2-1.2,0.7-1.7c0.5-0.5,1-0.7,1.6-0.7h5.6c0.7,0,1.2,0.2,1.7,0.7c0.5,0.5,0.7,1,0.7,1.7V17c0,0.2,0.1,0.3,0.3,0.3h21
			c0.6,0,1.1,0.2,1.6,0.7c0.5,0.5,0.7,1,0.7,1.7V23c0,0.6-0.2,1.1-0.7,1.6c-0.5,0.5-1,0.7-1.6,0.7H189c-0.2,0-0.3,0.1-0.3,0.3v2.2
			c0,0.2,0.1,0.3,0.3,0.3h6.7c0.7,0,1.2,0.2,1.7,0.7c0.5,0.5,0.7,1,0.7,1.7v1.8c0,0.7-0.2,1.2-0.7,1.6c-0.5,0.4-1,0.7-1.7,0.7H189
			c-0.2,0-0.3,0.1-0.3,0.3v11.6c0,0.7-0.2,1.2-0.7,1.7c-0.5,0.5-1,0.7-1.6,0.7h-2.5c-0.7,0-1.2-0.2-1.6-0.7c-0.4-0.5-0.7-1-0.7-1.7
			V34.9c0-0.2-0.1-0.3-0.3-0.3h-4.1c-0.7,0-1.2-0.2-1.7-0.7c-0.5-0.4-0.7-1-0.7-1.6v-1.8c0-0.7,0.2-1.2,0.7-1.7
			c0.5-0.5,1-0.7,1.7-0.7h4.1c0.2,0,0.3-0.1,0.3-0.3v-2.2c0-0.2-0.1-0.3-0.3-0.3h-14.9c-0.2,0-0.3,0.1-0.3,0.3v2.2
			c0,0.2,0.1,0.3,0.3,0.3h4.5c0.7,0,1.2,0.2,1.7,0.7c0.5,0.5,0.7,1,0.7,1.7v1.8c0,0.7-0.2,1.2-0.7,1.6c-0.5,0.4-1,0.7-1.7,0.7h-4.5
			c-0.2,0-0.3,0.1-0.3,0.3v11c0,0.7-0.2,1.2-0.7,1.6c-0.5,0.4-1,0.7-1.6,0.7h-2.4c-0.7,0-1.2-0.2-1.6-0.7c-0.4-0.4-0.7-1-0.7-1.6
			v-11c0-0.2-0.1-0.3-0.3-0.3h-4.1c-0.7,0-1.2-0.2-1.7-0.7c-0.5-0.4-0.7-1-0.7-1.6v-1.8c0-0.7,0.2-1.2,0.7-1.7
			c0.5-0.5,1-0.7,1.7-0.7h4.1c0.2,0,0.3-0.1,0.3-0.3V25.6z M182.3,63.7c-0.3-0.4-0.5-0.9-0.4-1.5c0.1-0.5,0.4-0.9,0.9-1.2l3.5-1.6
			c0.6-0.3,1.3-0.4,2-0.3c0.7,0.1,1.3,0.4,1.8,0.9c3.6,3.8,6.4,7.1,8.4,10c0.3,0.5,0.4,1.1,0.3,1.7c-0.2,0.6-0.5,1-1.1,1.3l-4.1,2
			c-0.3,0.1-0.7,0.2-1,0.2c-0.3,0-0.5,0-0.7-0.1c-0.7-0.2-1.1-0.6-1.4-1.2c-0.1-0.1-0.2-0.2-0.2-0.3c-0.1-0.2-0.2-0.2-0.5-0.2
			c-9.8,0.3-21.9,0.7-36.4,1.1c-0.7,0-1.2-0.2-1.7-0.7c-0.5-0.4-0.7-1-0.8-1.6l-0.3-3.3c0-0.6,0.2-1.1,0.6-1.6
			c0.4-0.5,1-0.7,1.6-0.7l6.8-0.1c0.2,0,0.4,0,0.6-0.1c2-1.4,3-2,3.1-2c0.2-0.1,0.2-0.3,0.1-0.4c-2.6-2-5.5-3.9-8.6-5.8
			c-0.5-0.3-0.8-0.8-0.9-1.3c-0.1-0.6,0.1-1.1,0.6-1.5l2.7-2.5c0.5-0.5,1.1-0.8,1.8-0.9c0.7-0.1,1.4,0,2,0.3c0,0,0.1,0.1,0.4,0.3
			c0.3,0.2,0.5,0.3,0.7,0.4c0.2,0.1,0.3,0.1,0.5-0.1c1.7-1.7,3.1-3.3,4.5-4.8c0.4-0.5,1-0.9,1.6-1c0.7-0.2,1.3-0.1,1.8,0.2l3.7,2
			c0.5,0.3,0.8,0.7,0.9,1.2c0.1,0.5-0.1,1-0.6,1.4c-2.4,2.1-4.4,3.7-5.8,4.9c-0.1,0.1-0.1,0.2,0.1,0.3c1.1,0.7,1.8,1.2,2,1.4
			c0.2,0.1,0.3,0.1,0.5,0c3.2-2.5,6-4.8,8.3-7c0.5-0.5,1.1-0.8,1.8-0.9c0.7-0.1,1.3,0,1.9,0.4l4,2.2c0.5,0.3,0.8,0.7,0.8,1.2
			c0.1,0.5-0.1,1-0.6,1.3c-4.4,3.6-9.1,7-14.2,10.4c0,0-0.1,0.1,0,0.1c0,0,0.1,0.1,0.1,0.1l11.3-0.1c0.2,0,0.3-0.1,0.1-0.3
			C183.8,65.4,183.1,64.5,182.3,63.7z M155.4,35.7c0.6,0,1.1,0.2,1.6,0.7c0.5,0.5,0.7,1,0.7,1.6v0.5c0,4-0.6,7.2-1.9,9.4
			c-0.3,0.5-0.7,0.8-1.3,0.9c-0.6,0-1.2-0.2-1.7-0.6c-0.2-0.2-0.5-0.4-0.7-0.6c-0.5-0.3-0.8-0.8-0.9-1.4c-0.1-0.6,0-1.2,0.3-1.7
			c0.8-1.6,1.2-3.7,1.2-6.2V38c0-0.6,0.2-1.1,0.7-1.6c0.5-0.5,1-0.7,1.7-0.7H155.4z M167.5,38.1c0-0.6,0.2-1.1,0.7-1.6
			c0.4-0.5,1-0.7,1.6-0.7h0.5c0.7,0,1.2,0.2,1.6,0.7c0.4,0.5,0.7,1,0.7,1.6v5c0,0.7-0.2,1.2-0.7,1.6c-0.4,0.4-1,0.7-1.6,0.7h-0.5
			c-0.7,0-1.2-0.2-1.6-0.7c-0.4-0.4-0.7-1-0.7-1.6V38.1z M178,35.7c0.6,0,1.1,0.2,1.6,0.7c0.5,0.5,0.7,1,0.7,1.6v0.5
			c0,4-0.7,7.1-2.1,9.4c-0.3,0.5-0.8,0.8-1.4,0.8c-0.7,0-1.2-0.2-1.6-0.6c-0.3-0.2-0.6-0.5-0.9-0.7c-0.4-0.3-0.7-0.8-0.8-1.4
			c-0.1-0.6,0-1.1,0.4-1.6c0.9-1.5,1.4-3.6,1.4-6.1V38c0-0.6,0.2-1.1,0.7-1.6c0.5-0.5,1-0.7,1.7-0.7H178z M195.9,44.2h0.3
			c0.1,0,0.2,0,0.3-0.1c0.1,0,0.1-0.1,0.2-0.2c0-0.1,0.1-0.3,0.2-0.6c0.1-0.3,0.1-0.6,0.1-1c0-0.4,0.2-0.7,0.6-0.9
			c0.3-0.2,0.7-0.2,1,0c0.1,0.1,0.3,0.2,0.4,0.3c0.7,0.3,1.2,0.7,1.5,1.3c0.3,0.5,0.4,1,0.4,1.4c0,0.1,0,0.3,0,0.5
			c-0.1,0.8-0.3,1.4-0.5,1.7c-0.4,0.7-1,1.3-1.7,1.6c-0.5,0.3-1.2,0.5-2.2,0.5h-2c-1.4,0-2.5-0.4-3.3-1.3c-0.4-0.5-0.7-1.1-0.8-1.8
			c-0.2-0.7-0.2-1.8-0.2-3.4v-4.3c0-0.6,0.2-1.1,0.7-1.6c0.5-0.5,1-0.7,1.6-0.7h0.8c0.7,0,1.2,0.2,1.7,0.7c0.5,0.5,0.7,1,0.7,1.6
			v4.6v1.2c0,0.2,0,0.4,0.1,0.5C195.7,44.2,195.8,44.2,195.9,44.2z"/>
		<path d="M260.6,36.2c0,0.2,0.1,0.3,0.3,0.3h2.3c0.7,0,1.2,0.2,1.7,0.7c0.5,0.5,0.7,1,0.7,1.7v10c0,0.7-0.2,1.2-0.7,1.6
			c-0.5,0.4-1,0.7-1.7,0.7h-5c-0.7,0-1.2-0.2-1.7-0.7c-0.5-0.4-0.7-1-0.7-1.6v-5.2c0-0.2-0.1-0.3-0.3-0.3h-40.3
			c-0.2,0-0.3,0.1-0.3,0.3v5.2c0,0.7-0.2,1.2-0.7,1.6c-0.5,0.4-1,0.7-1.7,0.7h-4.5c-0.7,0-1.2-0.2-1.7-0.7c-0.5-0.4-0.7-1-0.7-1.6
			v-10c0-0.7,0.2-1.2,0.7-1.7c0.5-0.5,1-0.7,1.7-0.7h2.4c0.2,0,0.3-0.1,0.3-0.3l-1-18.6c0-0.6,0.2-1.1,0.6-1.5
			c0.4-0.4,1-0.5,1.6-0.4l2.2,0.4c0.2,0,0.4,0,0.6-0.1c2.1-0.7,4.3-1.5,6.6-2.6c0.4-0.2,0.9-0.3,1.3-0.3c0.2,0,0.4,0,0.7,0.1
			c0.7,0.2,1.3,0.5,1.7,1l1.3,1.6c0.4,0.5,0.5,1,0.4,1.6c-0.1,0.6-0.5,1-1,1.2c-1.9,0.8-4,1.5-6.5,2.2c-0.2,0.1-0.3,0.2-0.3,0.4
			l0.1,0.2c0,0.2,0.1,0.3,0.3,0.3h5.7c0.6,0,1.1,0.2,1.6,0.7c0.5,0.5,0.7,1,0.7,1.6v1.2c0,0.7-0.2,1.2-0.7,1.7
			c-0.5,0.5-1,0.7-1.6,0.7h-5.4c-0.2,0-0.3,0.1-0.3,0.3l0.1,1c0,0.2,0.1,0.3,0.3,0.3h5.4c0.6,0,1.1,0.2,1.6,0.6
			c0.4,0.4,0.7,0.9,0.7,1.5c0,0.2,0.1,0.2,0.3,0.2c1-0.5,2-1,2.9-1.6c0,0,0.1-0.1,0.1-0.2c0-0.1,0-0.1-0.1-0.2
			c-0.1,0-0.2-0.1-0.5-0.3c-0.2-0.1-0.4-0.2-0.5-0.3c-0.5-0.3-0.7-0.7-0.8-1.2c0-0.5,0.1-1,0.5-1.4l0.8-0.7c0.7-0.6,1.5-0.9,2.2-0.9
			c0.5,0,1.1,0.2,1.6,0.5c0.5,0.2,0.9,0.5,1.3,0.7c0.2,0.1,0.3,0.1,0.5-0.1c0.1-0.1,0.3-0.2,0.4-0.3c0.8-0.9,1.7-1.3,2.7-1.3
			c0.3,0,0.7,0.1,1,0.2l1.7,0.5c0.5,0.2,0.9,0.5,1.1,1.1c0.2,0.5,0.1,1-0.3,1.5c-0.4,0.5-0.9,1-1.4,1.6c-0.1,0.2-0.1,0.3,0.1,0.4
			c0.4,0.3,0.9,0.6,1.2,0.9c0.5,0.4,0.7,0.8,0.7,1.5c0,0.6-0.2,1.1-0.7,1.5l-1.2,1c-0.5,0.4-1,0.6-1.7,0.6c-0.7,0-1.2-0.3-1.8-0.7
			c-0.4-0.3-0.8-0.6-1.2-0.9c-0.2-0.1-0.3-0.1-0.5,0c-1.4,1-2.9,2-4.6,2.9c0,0.1,0,0.1,0.1,0.1h19.7c0.2,0,0.3-0.1,0.3-0.3l0.1-1
			c0-0.2,0-0.3-0.3-0.3h-4.5c-0.7,0-1.2-0.2-1.7-0.7c-0.5-0.5-0.7-1-0.7-1.7v-1.2c0-0.7,0.2-1.2,0.7-1.6c0.5-0.4,1-0.7,1.7-0.7h5
			c0.2,0,0.3-0.1,0.3-0.3l0.1-1c0-0.2-0.1-0.3-0.3-0.3h-4.9c-0.7,0-1.2-0.2-1.7-0.7c-0.5-0.5-0.7-1-0.7-1.7v-1.2
			c0-0.6,0.2-1.1,0.7-1.6c0.5-0.5,1-0.7,1.7-0.7h5.4c0.2,0,0.3-0.1,0.3-0.3l0.1-0.9c0-0.2-0.1-0.3-0.3-0.3h-5.7
			c-0.7,0-1.2-0.2-1.7-0.7c-0.5-0.4-0.7-1-0.7-1.6v-1.2c0-0.7,0.2-1.2,0.7-1.7c0.5-0.5,1-0.7,1.7-0.7h13.2c0.7,0,1.2,0.2,1.6,0.7
			c0.4,0.5,0.6,1,0.6,1.7C261.5,24.2,261.1,30.7,260.6,36.2z M245.6,45.2c0.3,0,0.6-0.1,0.9-0.1c0.8,0,1.6,0.3,2.3,0.9l2.3,2.2
			c0.4,0.4,0.6,0.9,0.6,1.5c0,0.6-0.3,1.1-0.8,1.5c-2.3,1.7-4.7,3.4-7.3,5.2c0,0-0.1,0-0.1,0.1c0,0,0,0.1,0.1,0.1h18.9
			c0.7,0,1.2,0.2,1.7,0.7c0.5,0.5,0.7,1,0.7,1.7v2.9c0,0.6-0.2,1.1-0.7,1.6c-0.5,0.5-1,0.7-1.7,0.7h-22c-0.2,0-0.3,0.1-0.3,0.3v2.8
			c0,2.2-0.3,3.8-0.9,4.9c-0.6,1.1-1.6,2-3.2,2.6c-2,0.8-5.2,1.2-9.5,1.2h-0.1c-0.7,0-1.2-0.2-1.8-0.6c-0.5-0.4-0.9-1-1.1-1.6
			c-0.3-1.3-0.8-2.6-1.4-3.9c-0.2-0.5-0.1-0.9,0.2-1.4c0.3-0.4,0.7-0.6,1.1-0.6c1.6,0,3.5,0,5.6,0c0.5,0,0.9-0.1,1.1-0.2
			c0.2-0.2,0.3-0.4,0.3-0.8v-2.5c0-0.2-0.1-0.3-0.3-0.3h-21.8c-0.7,0-1.2-0.2-1.6-0.7c-0.4-0.5-0.7-1-0.7-1.6v-2.9
			c0-0.7,0.2-1.2,0.7-1.7c0.4-0.5,1-0.7,1.6-0.7h21.8c0.2,0,0.3-0.1,0.3-0.3v-0.1c0-0.7,0.2-1.2,0.7-1.7c0.5-0.5,1-0.7,1.7-0.7h2
			c0.2,0,0.4,0,0.6-0.1c0.8-0.6,1.4-1.1,1.9-1.5c0,0,0.1-0.1,0-0.1c0,0-0.1-0.1-0.1-0.1h-17c-0.6,0-1.1-0.2-1.6-0.7
			c-0.5-0.5-0.7-1-0.7-1.7v-2c0-0.7,0.2-1.2,0.7-1.7c0.5-0.5,1-0.7,1.6-0.7h24.7C245.4,45.3,245.5,45.2,245.6,45.2z M219.9,35
			c-0.2,0-0.3,0.1-0.3,0.3l0.1,1c0,0.2,0.1,0.3,0.3,0.3h10.2c0,0,0.1,0,0.1-0.1c0,0,0-0.1,0-0.1c-1.3-1.2-2.3-2.1-2.9-2.6
			c-0.1-0.1-0.1-0.1-0.1,0c0,0.3-0.1,0.6-0.4,0.9c-0.2,0.2-0.5,0.4-0.8,0.4H219.9z M241.4,18.8c0.5,0.4,0.7,0.9,0.8,1.5
			c0,0.6-0.2,1.1-0.7,1.5l-1,0.9c-0.5,0.4-1.1,0.7-1.8,0.7c-0.7,0-1.2-0.2-1.8-0.6c-0.2-0.2-0.5-0.4-0.9-0.7c-0.2-0.1-0.3-0.1-0.5,0
			c-0.8,0.6-1.7,1.1-2.6,1.6c-0.6,0.3-1.2,0.5-1.9,0.4c-0.7-0.1-1.3-0.4-1.8-0.9c-0.5-0.4-1-0.8-1.4-1.2c-0.4-0.3-0.6-0.8-0.5-1.3
			c0-0.5,0.3-0.9,0.8-1.1c0.8-0.4,1.5-0.8,2.2-1.2c0.1,0,0.1-0.1,0.1-0.2c0-0.1,0-0.1-0.1-0.2c-0.2-0.1-0.4-0.2-0.8-0.5
			c-0.5-0.3-0.7-0.7-0.8-1.2c0-0.5,0.1-1,0.5-1.4l0.7-0.6c0.7-0.6,1.5-0.9,2.2-0.9c0.5,0,1.1,0.2,1.6,0.5c0.3,0.2,0.7,0.4,1.2,0.7
			c0.2,0.1,0.3,0.1,0.5-0.1c0.1-0.1,0.2-0.2,0.3-0.3c0.8-0.8,1.7-1.2,2.7-1.2c0.3,0,0.7,0.1,1.1,0.2l1.6,0.5c0.5,0.2,0.9,0.5,1,1
			c0.2,0.5,0.1,1-0.3,1.4c-0.4,0.5-0.9,1-1.4,1.5c-0.1,0.1-0.1,0.3,0,0.4C240.8,18.3,241.1,18.5,241.4,18.8z"/>
		<path d="M300,41.5c-0.1,0.2,0,0.3,0.2,0.3l5.4,0.7c0.6,0.1,1,0.4,1.2,0.9c0.3,0.5,0.3,1,0,1.5c-0.4,0.8-0.9,1.6-1.4,2.4
			c-0.1,0.2,0,0.3,0.2,0.3h18.3c0.7,0,1.2,0.2,1.6,0.7c0.4,0.5,0.7,1,0.7,1.7v24c0,0.7-0.2,1.2-0.7,1.6c-0.4,0.4-1,0.7-1.6,0.7h-5.8
			c-0.6,0-1-0.2-1.4-0.6c-0.4-0.4-0.6-0.9-0.6-1.4c0-0.1-0.1-0.2-0.3-0.2h-26.1c-0.2,0-0.3,0.1-0.3,0.2c0,0.6-0.2,1-0.6,1.4
			c-0.4,0.4-0.9,0.6-1.4,0.6h-5.3c-0.6,0-1.1-0.2-1.6-0.7c-0.5-0.4-0.7-1-0.7-1.6v-24c0-0.7,0.2-1.2,0.7-1.7c0.5-0.5,1-0.7,1.6-0.7
			h13.2c0.2,0,0.3-0.1,0.4-0.3c0.2-0.5,0.5-1.4,0.9-2.8c0,0,0-0.1-0.1-0.1c0,0-0.1-0.1-0.1-0.1c-1.3,0.4-3.3,0.6-6,0.7
			c-0.7,0-1.2-0.2-1.8-0.6c-0.5-0.4-0.9-0.9-1-1.6c-0.3-1.1-0.8-2.4-1.4-3.7c-0.1-0.2-0.2-0.2-0.4-0.1c-2.9,1.3-6.1,2.6-9.4,4
			c-0.6,0.3-1.2,0.3-1.8,0c-0.6-0.2-1-0.7-1.3-1.3l-1.5-3.6c-0.1-0.3-0.2-0.6-0.2-0.9s0.1-0.5,0.2-0.9c0.3-0.6,0.7-0.9,1.3-1.1
			c2.4-0.7,5.2-1.6,8.6-2.7c0.2,0,0.2-0.2,0.1-0.3c-1.3-1.2-3.2-2.6-5.9-4.2c-0.5-0.3-0.8-0.8-0.9-1.4c-0.1-0.6,0-1.1,0.4-1.6
			l1.8-2.2c0.1-0.2,0.1-0.3-0.1-0.3h-1.9c-0.7,0-1.2-0.2-1.7-0.7c-0.5-0.5-0.7-1-0.7-1.6v-2.8c0-0.7,0.2-1.2,0.7-1.7
			c0.5-0.5,1-0.7,1.7-0.7h23.2c0.7,0,1.2,0.2,1.6,0.7c0.4,0.5,0.7,1,0.7,1.7v19.9C300.6,39.2,300.4,40.6,300,41.5z M289,35.3
			c0.1,0.6,0.1,1.1-0.2,1.7c-0.3,0.5-0.7,0.9-1.2,1.1v0.1h3.3c0.7,0,1-0.3,1-1V22.8c0-0.2-0.1-0.3-0.3-0.3h-10.2c0,0-0.1,0-0.1,0.1
			c1.4,0.8,2.7,1.6,3.8,2.4c0.5,0.3,0.8,0.9,0.9,1.5c0.1,0.7-0.1,1.2-0.5,1.8l-2.9,3.7c0,0-0.1,0.1,0,0.1c0,0,0.1,0,0.1,0l3.1-1
			c0.6-0.2,1.2-0.1,1.7,0.2c0.5,0.3,0.9,0.8,1,1.4L289,35.3z M315.7,57.1c0.2,0,0.3-0.1,0.3-0.3V55c0-0.2-0.1-0.3-0.3-0.3h-25.9
			c-0.2,0-0.3,0.1-0.3,0.3v1.8c0,0.2,0.1,0.3,0.3,0.3H315.7z M289.5,66.3c0,0.2,0.1,0.3,0.3,0.3h25.9c0.2,0,0.3-0.1,0.3-0.3v-1.7
			c0-0.2-0.1-0.3-0.3-0.3h-25.9c-0.2,0-0.3,0.1-0.3,0.3V66.3z M329,15c0.7,0,1.2,0.2,1.6,0.7c0.4,0.5,0.7,1,0.7,1.7V37
			c0,2-0.2,3.5-0.7,4.5c-0.5,1-1.4,1.8-2.6,2.5c-1.7,0.7-4.4,1.1-8,1.1c-0.7,0-1.3-0.2-1.8-0.6c-0.5-0.4-0.9-0.9-1.1-1.6
			c-0.5-1.6-1-3.1-1.6-4.4c-0.1-0.2-0.2-0.2-0.5-0.2c-1,0.4-2.4,0.9-4.3,1.6c-1.8,0.7-3.1,1.1-3.7,1.4c-0.6,0.2-1.2,0.2-1.8-0.1
			s-1-0.7-1.3-1.2l-1.3-2.9c-0.1-0.3-0.2-0.5-0.2-0.8c0-0.3,0.1-0.6,0.2-0.9c0.3-0.5,0.7-0.9,1.3-1c2.5-0.7,5.2-1.6,8-2.6
			c0.1,0,0.1-0.1,0.1-0.2c0-0.1,0-0.1-0.1-0.1c-1.4-1.1-3.1-2.3-5.4-3.6c-0.5-0.3-0.8-0.8-0.9-1.3c-0.1-0.6,0-1.1,0.4-1.6l1.6-2
			c0.1-0.2,0.1-0.3-0.1-0.3h-1.4c-0.7,0-1.2-0.2-1.7-0.7c-0.5-0.5-0.7-1-0.7-1.6v-2.8c0-0.7,0.2-1.2,0.7-1.7c0.5-0.5,1-0.7,1.7-0.7
			H329z M317.6,29.7c0.6-0.2,1.1-0.2,1.7,0.1c0.5,0.3,0.9,0.8,1,1.4l0.5,2.4c0.2,0.7,0.1,1.3-0.2,1.9c-0.3,0.6-0.8,1-1.4,1.3l-2.8,1
			c0,0,0,0,0,0.1c1.3,0,2.9,0.1,4.8,0.1c0.4,0,0.7-0.1,0.9-0.3c0.2-0.2,0.3-0.4,0.3-0.8V22.8c0-0.2-0.1-0.3-0.3-0.3h-9.4
			c0,0-0.1,0-0.1,0.1c1.4,0.8,2.7,1.5,3.7,2.2c0.5,0.3,0.8,0.9,0.9,1.5c0.1,0.7-0.1,1.2-0.5,1.8l-1.8,2.4c0,0,0,0.1,0,0.1
			c0,0,0.1,0.1,0.1,0.1C315.4,30.4,316.3,30.1,317.6,29.7z"/>
		<path d="M356.6,66.9c0.1-0.2,0-0.3-0.2-0.3h-0.2c-1.9,0-3.6-0.6-5-1.8c-1.4-1.2-2.1-2.9-2.1-4.9c0-2,0.7-3.6,2.1-4.8
			c1.4-1.2,3.2-1.9,5.3-1.9c2.6,0,4.6,0.9,6,2.7c1.4,1.8,2.1,4.3,2.1,7.4c0,3.6-1,6.8-3.1,9.7c-2.1,2.9-5,5-8.8,6.4
			c-0.3,0.1-0.5,0.1-0.8,0.1c-0.4,0-0.7-0.1-1-0.3c-0.6-0.3-1-0.7-1.2-1.4l-0.8-2.1c-0.1-0.3-0.1-0.5-0.1-0.7c0-0.3,0.1-0.7,0.2-1
			c0.3-0.6,0.7-1,1.3-1.2c1.8-0.7,3.3-1.6,4.4-2.7C355.6,69.2,356.3,68,356.6,66.9z"/>
		<path d="M439.8,19c-0.1,0.2,0,0.3,0.2,0.3h19.8c0.6,0,1.1,0.2,1.6,0.7c0.5,0.5,0.7,1,0.7,1.6V72c0,0.7-0.2,1.2-0.7,1.7
			c-0.5,0.5-1,0.7-1.6,0.7H454c-0.7,0-1.2-0.2-1.7-0.7c-0.5-0.5-0.7-1-0.7-1.7v-0.5c0-0.2-0.1-0.3-0.3-0.3h-29.2
			c-0.2,0-0.3,0.1-0.3,0.3V72c0,0.7-0.2,1.2-0.7,1.7c-0.5,0.5-1,0.7-1.6,0.7h-5.2c-0.7,0-1.2-0.2-1.7-0.7c-0.5-0.5-0.7-1-0.7-1.7
			V21.6c0-0.6,0.2-1.1,0.7-1.6c0.5-0.5,1-0.7,1.7-0.7H429c0.2,0,0.3-0.1,0.3-0.3c0.5-2.3,0.9-4.3,1.1-6c0.1-0.6,0.4-1.1,0.9-1.6
			c0.4-0.3,0.9-0.5,1.4-0.5c0.1,0,0.2,0,0.3,0.1l7.3,0.7c0.6,0.1,1,0.4,1.3,0.9c0.3,0.5,0.3,1,0.1,1.5C441.3,15.3,440.6,17,439.8,19
			z M451.6,28.9c0-0.2-0.1-0.3-0.3-0.3h-29.2c-0.2,0-0.3,0.1-0.3,0.3v4.6c0,0.2,0.1,0.3,0.3,0.3h29.2c0.2,0,0.3-0.1,0.3-0.3V28.9z
			 M451.6,43c0-0.2-0.1-0.3-0.3-0.3h-29.2c-0.2,0-0.3,0.1-0.3,0.3v4.6c0,0.2,0.1,0.3,0.3,0.3h29.2c0.2,0,0.3-0.1,0.3-0.3V43z
			 M421.8,61.9c0,0.2,0.1,0.3,0.3,0.3h29.2c0.2,0,0.3-0.1,0.3-0.3v-4.7c0-0.2-0.1-0.3-0.3-0.3h-29.2c-0.2,0-0.3,0.1-0.3,0.3V61.9z"
			/>
		<path d="M497.9,63.6H517c3.2,0,5.3-0.6,6.2-1.9c0.7-1,1.4-3.3,1.8-6.8c0.1-0.5,0.4-0.9,0.9-1.1c0.5-0.2,1-0.3,1.4,0
			c1.8,0.9,3.6,1.6,5.5,2.2c0.7,0.2,1.2,0.5,1.6,1c0.3,0.4,0.5,0.9,0.5,1.4c0,0.1,0,0.3-0.1,0.4c-0.9,5.5-2.3,9.3-4.4,11.3
			c-2.4,2.3-6.7,3.4-13.1,3.4h-19.7c-6.9,0-11.7-0.9-14.2-2.8c-2.6-1.9-3.8-5.5-3.8-10.9V38.2c0-0.6,0.2-1.1,0.7-1.6
			c0.5-0.5,1-0.7,1.6-0.7h34.8c0.2,0,0.3-0.1,0.3-0.3V24.8c0-0.2-0.1-0.3-0.3-0.3h-35.6c-0.6,0-1.1-0.2-1.6-0.7
			c-0.5-0.5-0.7-1-0.7-1.7v-5.4c0-0.6,0.2-1.1,0.7-1.6c0.5-0.5,1-0.7,1.6-0.7h43.9c0.7,0,1.2,0.2,1.7,0.7c0.5,0.5,0.7,1,0.7,1.6v30
			c0,0.6-0.2,1.1-0.7,1.6c-0.5,0.5-1,0.7-1.7,0.7h-5.6c-0.7,0-1.2-0.2-1.7-0.7c-0.5-0.5-0.7-1-0.7-1.6v-1c0-0.2-0.1-0.3-0.3-0.3H490
			c-0.2,0-0.3,0.1-0.3,0.3v13.7c0,1.8,0.5,2.9,1.4,3.4C492.1,63.4,494.3,63.6,497.9,63.6z"/>
		<path d="M554.4,35.5c0.5,0.3,0.8,0.8,0.9,1.5c0.1,0.6,0,1.2-0.4,1.7l-3,4.3c-0.3,0.5-0.8,0.8-1.4,0.9c-0.6,0.1-1.2-0.1-1.7-0.5
			c-2.2-1.6-5-3.1-8.2-4.6c-0.5-0.3-0.9-0.7-1-1.2c0-0.2-0.1-0.3-0.1-0.5c0-0.4,0.1-0.7,0.3-1l2.6-3.6c0.4-0.6,0.9-0.9,1.6-1.1
			c0.7-0.2,1.3-0.2,2,0C549.3,32.7,552.1,34.1,554.4,35.5z M551.5,49.8c0.3-0.5,0.7-0.9,1.2-1c0.6-0.1,1.1,0,1.6,0.4l3.9,3.1
			c0.5,0.4,0.9,1,1,1.6c0.2,0.7,0.1,1.3-0.2,2c-2.9,6-5.8,11.7-8.8,17.1c-0.3,0.5-0.8,0.9-1.4,1c-0.6,0.2-1.2,0-1.7-0.4l-4.7-3.4
			c-0.5-0.3-0.9-0.9-1-1.5c0-0.2,0-0.3,0-0.5c0-0.5,0.1-0.9,0.3-1.3C545.3,61.5,548.5,55.7,551.5,49.8z M558.3,17.5
			c0.6,0.3,0.9,0.9,1,1.5c0.1,0.7,0,1.2-0.4,1.8L556,25c-0.3,0.5-0.8,0.8-1.5,0.9c-0.6,0.1-1.2-0.1-1.7-0.5
			c-2.1-1.6-4.8-3.1-8.1-4.7c-0.5-0.3-0.9-0.7-1-1.2c-0.2-0.6-0.1-1.1,0.3-1.6l2.5-3.4c0.4-0.6,0.9-0.9,1.6-1.1
			c0.7-0.2,1.3-0.2,2,0.1C553.2,14.7,556,16.1,558.3,17.5z M602.4,48.8c0,0.7-0.2,1.2-0.7,1.6c-0.4,0.4-1,0.7-1.6,0.7h-12.5
			c-0.2,0-0.2,0.1-0.1,0.3c3.1,6.9,7.7,11.9,13.7,15.1c0.5,0.3,0.8,0.7,0.9,1.2c0.1,0.5-0.1,1-0.5,1.4c-1.4,1.5-2.7,3.2-3.9,5
			c-0.4,0.6-0.9,0.9-1.5,1.1c-0.6,0.2-1.2,0.1-1.8-0.2c-6.4-3.9-11.4-10.1-15.1-18.7c0,0-0.1-0.1-0.1-0.1c0,0-0.1,0-0.1,0.1
			c-2.4,7.9-7.1,14.2-14.1,18.8c-0.4,0.3-0.9,0.4-1.4,0.4c-0.1,0-0.3,0-0.4,0c-0.7-0.1-1.2-0.4-1.7-0.9c-1.5-1.5-3.1-2.8-4.6-3.9
			c-0.4-0.3-0.7-0.7-0.7-1.2c0-0.5,0.2-0.9,0.7-1.2c6.7-4.1,11.1-9.7,13.2-16.8c0-0.2,0-0.3-0.3-0.3h-8.8c-0.7,0-1.2-0.2-1.6-0.7
			c-0.4-0.4-0.7-1-0.7-1.6v-4.5c0-0.7,0.2-1.2,0.7-1.7c0.4-0.5,1-0.7,1.6-0.7h10.3c0.2,0,0.3-0.1,0.3-0.3c0.1-1.9,0.1-3.8,0.1-5.8
			v-4.2c0-0.2-0.1-0.3-0.3-0.3H564c-0.6,0-1.1-0.2-1.6-0.7c-0.5-0.4-0.7-1-0.7-1.6v-4.5c0-0.7,0.2-1.2,0.7-1.7
			c0.5-0.5,1-0.7,1.6-0.7h7.5c0.2,0,0.3-0.1,0.3-0.3v-7.5c0-0.7,0.2-1.2,0.7-1.7c0.5-0.5,1-0.7,1.7-0.7h5c0.7,0,1.2,0.2,1.7,0.7
			c0.5,0.5,0.7,1,0.7,1.7v7.5c0,0.2,0.1,0.3,0.3,0.3h13.5c0.7,0,1.2,0.2,1.7,0.7c0.5,0.5,0.7,1,0.7,1.7v17c0,0.2,0.1,0.3,0.3,0.3
			h2.2c0.7,0,1.2,0.2,1.6,0.7c0.4,0.5,0.7,1,0.7,1.7V48.8z M581.7,31.5c-0.2,0-0.3,0.1-0.3,0.3V36c0,2.5,0,4.4-0.1,5.7
			c0,0.2,0.1,0.3,0.3,0.3h6.2c0.2,0,0.3-0.1,0.3-0.3v-9.9c0-0.2-0.1-0.3-0.3-0.3H581.7z"/>
		<path d="M643,57.6c-0.2,0-0.3,0.1-0.3,0.3v7.3c0,0.2,0.1,0.3,0.3,0.3c1.6,0.2,3.5,0.3,5.6,0.3c8.2,0,14.3,0,18.1-0.1
			c0.5,0,0.9,0.2,1.2,0.6c0.1,0.3,0.2,0.5,0.2,0.8c0,0.2,0,0.4-0.1,0.6c-0.7,1.7-1.4,3.6-1.9,5.6c-0.2,0.7-0.5,1.2-1,1.6
			c-0.5,0.4-1.1,0.7-1.8,0.7H648c-6.4,0-11.6-0.7-15.8-2.2c-4.2-1.4-7.7-4.1-10.5-8.1c0,0-0.1-0.1-0.2-0.1c-0.1,0-0.1,0-0.2,0.1
			c-1.7,3.8-3.9,7.1-6.5,9.7c-0.4,0.4-1,0.7-1.6,0.7h-0.1c-0.7,0-1.2-0.2-1.7-0.7c-1.4-1.3-2.9-2.6-4.5-3.7
			c-0.4-0.4-0.7-0.8-0.7-1.4c0-0.6,0.2-1,0.6-1.4c5-4.5,8.1-11.7,9.3-21.7c0-0.6,0.3-1.1,0.8-1.5c0.5-0.4,1.1-0.6,1.7-0.6l5.6,0.6
			c0.6,0,1.1,0.3,1.5,0.8c0.4,0.5,0.6,1.1,0.4,1.7c-0.3,2-0.6,3.9-1,5.7c0,0.2,0,0.3,0,0.5c1.6,3.9,3.9,6.8,6.9,8.6
			c0.2,0.1,0.3,0.1,0.3-0.1V41.9c0-0.2-0.1-0.3-0.3-0.3h-10.4c-0.7,0-1.2-0.2-1.6-0.7c-0.4-0.5-0.7-1-0.7-1.7v-4.6
			c0-0.7,0.2-1.2,0.7-1.6c0.4-0.4,1-0.7,1.6-0.7h31.3c0.7,0,1.2,0.2,1.6,0.7c0.4,0.4,0.7,1,0.7,1.6v4.6c0,0.7-0.2,1.2-0.7,1.7
			c-0.4,0.5-1,0.7-1.6,0.7H643c-0.2,0-0.3,0.1-0.3,0.3v6.3c0,0.2,0.1,0.3,0.3,0.3h15c0.6,0,1.1,0.2,1.6,0.7c0.5,0.5,0.7,1,0.7,1.7
			v4.5c0,0.7-0.2,1.2-0.7,1.7c-0.5,0.5-1,0.7-1.6,0.7H643z M618.3,27.9c-0.2,0-0.3,0.1-0.3,0.3v6.3c0,0.6-0.2,1.1-0.7,1.6
			c-0.5,0.5-1,0.7-1.7,0.7h-4.9c-0.7,0-1.2-0.2-1.6-0.7c-0.4-0.5-0.7-1-0.7-1.6V21c0-0.6,0.2-1.1,0.7-1.6c0.4-0.5,1-0.7,1.6-0.7
			h21.3c0.2,0,0.3-0.1,0.3-0.3v-3.6c0-0.7,0.2-1.2,0.7-1.6c0.5-0.4,1-0.7,1.7-0.7h5.8c0.7,0,1.2,0.2,1.7,0.7c0.5,0.4,0.7,1,0.7,1.6
			v3.6c0,0.2,0.1,0.3,0.3,0.3h21.5c0.7,0,1.2,0.2,1.6,0.7c0.4,0.5,0.7,1,0.7,1.6v13.5c0,0.6-0.2,1.1-0.7,1.6c-0.4,0.5-1,0.7-1.6,0.7
			h-5.4c-0.6,0-1.1-0.2-1.6-0.7c-0.5-0.5-0.7-1-0.7-1.6v-6.3c0-0.2-0.1-0.3-0.3-0.3H618.3z"/>
		<path d="M693.1,68.3c-1.4,1.4-3.1,2.1-5.2,2.1c-2.1,0-3.8-0.7-5.2-2.1c-1.4-1.4-2.1-3.1-2.1-5.3c0-2.1,0.7-3.9,2.1-5.3
			c1.4-1.4,3.1-2.1,5.2-2.1c2.1,0,3.8,0.7,5.2,2.1c1.4,1.4,2.1,3.2,2.1,5.3C695.2,65.2,694.5,67,693.1,68.3z M686.3,51.6
			c-0.7,0-1.2-0.2-1.7-0.7c-0.5-0.5-0.7-1-0.8-1.7l-1.5-20.6l-0.3-8.2c0-0.7,0.2-1.2,0.7-1.6c0.4-0.4,1-0.7,1.6-0.7h7.4
			c0.6,0,1.1,0.2,1.6,0.7c0.4,0.4,0.7,1,0.7,1.6l-0.3,8.2L692,49.2c0,0.7-0.3,1.2-0.8,1.7c-0.5,0.5-1,0.7-1.7,0.7H686.3z"/>
		<path d="M11.4,152.9c-0.4,0.5-1,0.8-1.7,0.9c-0.7,0.1-1.3-0.1-1.9-0.5l-4-2.5c-0.6-0.3-0.9-0.9-0.9-1.6c0-0.5,0.2-0.9,0.5-1.3
			c2.4-2.8,4-6.5,5-10.9c0.1-0.6,0.5-1.1,1-1.4c0.5-0.3,1.1-0.4,1.6-0.3l4.1,1.2c0.6,0.2,1.1,0.5,1.4,1.1c0.3,0.5,0.5,1.1,0.3,1.8
			C15.7,145.2,13.9,149.7,11.4,152.9z M40.2,125c0,0.2,0.1,0.3,0.3,0.3h22.1c0.7,0,1.2,0.2,1.6,0.7c0.4,0.4,0.7,0.9,0.7,1.5
			c0,0.3,0,0.8-0.1,1.4c-0.3,7.2-0.8,12.5-1.3,15.9c-0.5,3.4-1.3,5.6-2.2,6.8c-1.4,1.7-3.2,2.7-5.5,3c-1.3,0.2-3.2,0.3-5.8,0.3
			c-0.6,0-1.2-0.2-1.6-0.7c-0.5-0.4-0.8-1-0.9-1.6c-0.3-2-1-4-2-6.1c0,0-0.1-0.1-0.1-0.1c-0.4,0.2-0.7,0-0.8-0.4
			c-0.6-2.1-1.5-4.5-2.8-7.1c-0.3-0.5-0.3-1.1-0.1-1.6c0.2-0.6,0.6-0.9,1.2-1.1l2.6-0.9c0.7-0.2,1.3-0.2,1.9,0
			c0.6,0.2,1.1,0.7,1.5,1.3c1,1.9,1.9,3.6,2.6,5.2c0.2,0.6,0.2,1.2-0.1,1.8c-0.3,0.6-0.8,1-1.4,1.2l-3.1,1.1c0,0,0,0.1,0.1,0.1
			c1.3,0.1,2.4,0.1,3.1,0.1c0.3,0,0.5,0,0.7,0c1,0,1.7-0.3,2.2-0.8c0.8-1,1.5-4.8,2-11.5c0-0.2-0.1-0.3-0.3-0.3H13.2
			c-0.7,0-1.2-0.2-1.7-0.7c-0.5-0.5-0.7-1-0.7-1.6V95.9c0-0.7,0.2-1.2,0.7-1.7c0.5-0.5,1-0.7,1.7-0.7h44.2c0.6,0,1.1,0.2,1.6,0.7
			c0.5,0.5,0.7,1,0.7,1.7v3.7c0,0.6-0.2,1.1-0.7,1.6c-0.5,0.5-1,0.7-1.6,0.7H40.6c-0.2,0-0.3,0.1-0.3,0.3v2.2c0,0.2,0.1,0.3,0.3,0.3
			H55c0.7,0,1.2,0.2,1.7,0.7c0.5,0.5,0.7,1,0.7,1.7v2.9c0,0.6-0.2,1.1-0.7,1.6c-0.5,0.5-1,0.7-1.7,0.7H40.6c-0.2,0-0.3,0.1-0.3,0.3
			v2.1c0,0.2,0.1,0.3,0.3,0.3H55c0.7,0,1.2,0.2,1.7,0.7c0.5,0.5,0.7,1,0.7,1.6v2.9c0,0.7-0.2,1.2-0.7,1.7c-0.5,0.5-1,0.7-1.7,0.7
			H40.6c-0.2,0-0.3,0.1-0.3,0.3V125z M19,140.4c-0.1-0.6,0-1.2,0.3-1.7c0.3-0.5,0.8-0.8,1.4-0.9l3.6-0.5c0.7-0.1,1.3,0,1.8,0.3
			c0.6,0.3,1,0.9,1.2,1.5c0.9,3.2,1.5,6.4,1.8,9.6c0.1,0.7-0.1,1.2-0.5,1.7c-0.4,0.5-0.9,0.8-1.6,0.9L23,152
			c-0.6,0.1-1.1-0.1-1.6-0.4c-0.5-0.4-0.7-0.9-0.8-1.5C20.4,147.2,19.8,144,19,140.4z M30.6,102.1c0-0.2-0.1-0.3-0.3-0.3h-9.7
			c-0.2,0-0.3,0.1-0.3,0.3v2.2c0,0.2,0.1,0.3,0.3,0.3h9.7c0.2,0,0.3-0.1,0.3-0.3V102.1z M30.4,114.9c0.2,0,0.3-0.1,0.3-0.3v-2.1
			c0-0.2-0.1-0.3-0.3-0.3h-9.7c-0.2,0-0.3,0.1-0.3,0.3v2.1c0,0.2,0.1,0.3,0.3,0.3H30.4z M20.7,122.4c-0.2,0-0.3,0.1-0.3,0.3v2.4
			c0,0.2,0.1,0.3,0.3,0.3h9.7c0.2,0,0.3-0.1,0.3-0.3v-2.4c0-0.2-0.1-0.3-0.3-0.3H20.7z M30.8,140.2c-0.2-0.6-0.2-1.1,0.1-1.7
			c0.3-0.5,0.7-0.9,1.3-1l2.9-0.7c0.7-0.1,1.4-0.1,2,0.2c0.6,0.3,1,0.7,1.3,1.3c1.2,2.9,2.1,5.6,2.6,8.1c0.2,0.7,0.1,1.3-0.3,1.8
			c-0.4,0.5-0.9,0.9-1.5,1.1l-3.6,0.9c-0.6,0.2-1.1,0.1-1.6-0.3c-0.5-0.3-0.8-0.8-0.9-1.4C32.7,145.9,31.9,143.1,30.8,140.2z"/>
		<path d="M91.3,121.2c0.6-0.1,1.1,0,1.6,0.4c0.5,0.4,0.8,0.9,0.9,1.5l0.5,4.3c0.1,0.7-0.1,1.3-0.4,1.9c-0.4,0.5-0.9,0.9-1.5,1
			c-0.5,0.2-1.3,0.4-2.4,0.7c-1.1,0.3-1.8,0.4-2.3,0.5c-0.2,0-0.3,0.2-0.3,0.4v14.7c0,2.3-0.2,4.1-0.7,5.3c-0.5,1.2-1.3,2.2-2.6,2.9
			c-1.8,1-4.6,1.6-8.6,1.7h-0.1c-0.6,0-1.2-0.2-1.6-0.7c-0.5-0.4-0.9-0.9-1-1.6c-0.4-1.4-0.8-2.9-1.4-4.4c-0.2-0.5-0.1-1,0.2-1.4
			c0.3-0.4,0.7-0.6,1.2-0.6c1.1,0,2.3,0,3.7,0c0.5,0,0.8-0.1,1-0.3c0.2-0.2,0.3-0.5,0.3-0.9v-12.4c0-0.2-0.1-0.3-0.3-0.3l-3.9,1
			c-0.7,0.1-1.3,0-1.8-0.3c-0.5-0.3-0.9-0.8-1.1-1.5l-1.2-4.8c0-0.2-0.1-0.4-0.1-0.6c0-0.4,0.1-0.8,0.3-1.1c0.3-0.5,0.8-0.9,1.4-1
			c2-0.4,4.1-0.8,6.3-1.2c0.2,0,0.3-0.2,0.3-0.4v-9.6c0-0.2-0.1-0.3-0.3-0.3h-4.7c-0.6,0-1.1-0.2-1.6-0.7c-0.5-0.5-0.7-1-0.7-1.6
			v-4.4c0-0.6,0.2-1.1,0.7-1.6c0.5-0.5,1-0.7,1.6-0.7h4.7c0.2,0,0.3-0.1,0.3-0.3v-9.7c0-0.7,0.2-1.2,0.7-1.7c0.4-0.5,1-0.7,1.6-0.7
			h4.8c0.7,0,1.2,0.2,1.7,0.7c0.5,0.5,0.7,1,0.7,1.7v9.7c0,0.2,0.1,0.3,0.3,0.3h2.6c0.7,0,1.2,0.2,1.7,0.7c0.5,0.5,0.7,1,0.7,1.6
			v4.4c0,0.6-0.2,1.1-0.7,1.6s-1,0.7-1.7,0.7h-2.6c-0.2,0-0.3,0.1-0.3,0.3v7.5c0,0.2,0.1,0.2,0.3,0.2L91.3,121.2z M122.4,143.8
			c-0.1,0.2,0,0.3,0.2,0.3h8.4c0.7,0,1.2,0.2,1.6,0.7c0.4,0.5,0.7,1,0.7,1.6v4.6c0,0.6-0.2,1.1-0.7,1.6c-0.4,0.5-1,0.7-1.6,0.7h-37
			c-0.7,0-1.2-0.2-1.7-0.7c-0.5-0.5-0.7-1-0.7-1.6v-4.6c0-0.6,0.2-1.1,0.7-1.6c0.5-0.5,1-0.7,1.7-0.7h18.7c0.2,0,0.3-0.1,0.3-0.3
			c2.1-8.1,3.7-16.9,4.8-26.6c0.1-0.7,0.4-1.2,0.9-1.6c0.4-0.3,0.9-0.5,1.4-0.5c0.1,0,0.2,0,0.3,0.1l5.5,0.8
			c0.7,0.1,1.2,0.4,1.5,0.9c0.4,0.5,0.5,1.1,0.4,1.7C126.2,127.9,124.4,136.3,122.4,143.8z M130,104.5c0.6,0,1.1,0.2,1.6,0.7
			c0.5,0.4,0.7,1,0.7,1.6v4.3c0,0.7-0.2,1.2-0.7,1.7c-0.5,0.5-1,0.7-1.6,0.7H96.9c-0.7,0-1.2-0.2-1.6-0.7c-0.4-0.5-0.7-1-0.7-1.7
			v-4.3c0-0.7,0.2-1.2,0.7-1.6c0.4-0.4,1-0.7,1.6-0.7h11c0.2,0,0.3-0.1,0.3-0.3V96c0-0.6,0.2-1.1,0.7-1.6c0.5-0.5,1-0.7,1.7-0.7h5.1
			c0.7,0,1.2,0.2,1.7,0.7c0.5,0.5,0.7,1,0.7,1.6v8.2c0,0.2,0.1,0.3,0.3,0.3H130z M111.1,138.3c0.1,0.7-0.1,1.3-0.5,1.8
			c-0.4,0.5-0.9,0.9-1.6,1l-4.8,1.1c-0.6,0.1-1.1,0-1.6-0.4c-0.5-0.4-0.7-0.9-0.8-1.5c-0.4-6.6-1.5-13.6-3.2-21.1
			c-0.1-0.6,0-1.2,0.3-1.7c0.3-0.5,0.8-0.9,1.4-0.9l3.9-0.8c0.7-0.1,1.3,0,1.8,0.3c0.6,0.3,0.9,0.9,1.1,1.5
			C109.3,125.1,110.5,132,111.1,138.3z"/>
		<path d="M162.4,127.8c0.4,0.6,0.6,1.2,0.6,1.9c0,0.7-0.2,1.4-0.6,1.9l-2.6,3.6c-0.3,0.4-0.7,0.6-1.2,0.6c-0.5-0.1-0.8-0.3-1-0.8
			c-0.7-1.4-1.4-3.1-2.3-4.8c0,0,0-0.1-0.1-0.1c0,0-0.1,0-0.1,0.1v23.9c0,0.6-0.2,1.1-0.7,1.6c-0.5,0.5-1,0.7-1.6,0.7h-4.6
			c-0.6,0-1.1-0.2-1.6-0.7c-0.5-0.5-0.7-1-0.7-1.6v-19.6c0,0,0-0.1,0-0.1c0,0-0.1,0-0.1,0.1c-1.4,3.5-2.7,6.5-4.1,8.8
			c-0.2,0.4-0.6,0.6-1,0.5c-0.5-0.1-0.8-0.3-1-0.8c-0.6-1.4-1.4-3.1-2.4-4.9c-0.4-0.6-0.5-1.2-0.5-1.8c0-0.7,0.2-1.4,0.7-2.1
			c3.3-5.1,5.8-11.3,7.7-18.7c0-0.2,0-0.3-0.3-0.3H140c-0.6,0-1.1-0.2-1.6-0.7c-0.5-0.5-0.7-1-0.7-1.7v-4.3c0-0.7,0.2-1.2,0.7-1.7
			c0.5-0.5,1-0.7,1.6-0.7h5.6c0.2,0,0.3-0.1,0.3-0.3V95.1c0-0.7,0.2-1.2,0.7-1.7c0.5-0.5,1-0.7,1.6-0.7h4.6c0.6,0,1.1,0.2,1.6,0.7
			c0.5,0.5,0.7,1,0.7,1.7V106c0,0.2,0.1,0.3,0.3,0.3h4.2c0.7,0,1.2,0.2,1.7,0.7c0.5,0.5,0.7,1,0.7,1.7v6.3c0,0,0,0.1,0,0.1
			c0,0,0.1,0,0.1,0c2.8-5.1,5-11.1,6.5-18.3c0.1-0.7,0.5-1.2,1-1.5c0.5-0.3,1.1-0.5,1.7-0.3l5.6,1.2c0.6,0.1,1.1,0.5,1.4,1
			c0.3,0.5,0.5,1.1,0.3,1.7c-2.4,10.1-5.7,18.4-9.7,24.9c-0.3,0.5-0.8,0.8-1.4,0.9c-0.6,0.1-1.1-0.1-1.6-0.5
			c-1.5-1.3-3.1-2.5-4.6-3.7c-0.5-0.4-0.8-0.9-0.9-1.5c-0.1-0.6,0-1.2,0.4-1.7c0.3-0.5,0.6-1,1-1.6c0.1-0.1,0.1-0.2-0.1-0.2h-6.2
			c-0.2,0-0.3,0.1-0.3,0.3v1.8c0,0.2,0.1,0.3,0.2,0.5C157,120.1,159.4,123.4,162.4,127.8z M184.1,136.9c-0.3-0.6-0.3-1.2-0.1-1.8
			c0.2-0.6,0.6-1,1.1-1.3l4.3-2c0.6-0.3,1.2-0.4,1.8-0.2c0.6,0.2,1.1,0.6,1.4,1.1c3.6,6.6,6.2,12.2,7.8,16.8
			c0.1,0.3,0.1,0.5,0.1,0.9c0,0.3-0.1,0.7-0.2,1c-0.3,0.7-0.7,1.1-1.3,1.4l-5.1,2.6c-0.3,0.1-0.5,0.2-0.9,0.2c-0.3,0-0.5,0-0.7-0.1
			c-0.6-0.3-0.9-0.7-1-1.2c-0.2-0.7-0.5-1.4-0.7-2.1c0-0.2-0.2-0.3-0.4-0.3c-9.1,0.8-17.7,1.6-25.9,2.2c-0.7,0-1.2-0.1-1.8-0.6
			c-0.5-0.4-0.8-0.9-0.9-1.6l-0.9-5.2c0-0.1-0.1-0.2-0.1-0.3c0-0.5,0.2-0.9,0.5-1.3c0.3-0.5,0.9-0.7,1.5-0.7c0.4,0,1.8-0.1,4.3-0.3
			c0.2,0,0.3-0.1,0.4-0.3c2.7-7.1,4.9-14.7,6.5-22.8c0.1-0.7,0.4-1.2,0.9-1.5c0.4-0.2,0.8-0.3,1.2-0.3c0.2,0,0.3,0,0.5,0.1l6.7,1.5
			c0.6,0.1,1,0.5,1.3,1c0.3,0.5,0.4,1.1,0.2,1.7c-2.5,7.4-5.1,14.1-7.6,19.9c-0.1,0.2,0,0.2,0.2,0.2l9.3-0.5c0.2,0,0.3-0.1,0.2-0.3
			C186.1,140.8,185.1,138.9,184.1,136.9z M182.9,99.1c-0.2-0.6-0.1-1.2,0.2-1.8c0.3-0.6,0.8-0.9,1.4-1.1l4.4-1.4
			c0.6-0.2,1.2-0.1,1.7,0.2c0.5,0.3,0.9,0.8,1.1,1.4c2,6.9,4.7,13,8.2,18.5c0.3,0.6,0.5,1.2,0.4,1.8c-0.1,0.6-0.4,1.2-0.9,1.6
			c-1.7,1.4-3.3,3-4.6,4.7c-0.4,0.4-0.9,0.6-1.4,0.6c-0.5,0-0.9-0.3-1.2-0.7C188.5,116.4,185.5,108.5,182.9,99.1z"/>
		<path d="M265.9,110.7c0,0.7-0.2,1.2-0.7,1.7c-0.5,0.5-1,0.7-1.7,0.7h-14.9c-0.2,0-0.3,0.1-0.3,0.3c0.7,9.3,1.8,17.1,3.4,23.4
			c1.6,6.3,3.4,9.5,5.3,9.5c1.1,0,1.8-3.2,2.2-9.5c0-0.4,0.2-0.7,0.7-0.9c0.4-0.2,0.8-0.1,1.2,0.1c1.5,1.3,3,2.3,4.6,3.2
			c0.7,0.3,1.2,0.8,1.5,1.4c0.3,0.5,0.4,1,0.4,1.5c0,0.1,0,0.3-0.1,0.4c-0.5,3.8-1.2,6.7-2.2,8.7c-1,2.1-2.2,3.4-3.6,4.2
			c-1.4,0.7-3.3,1.1-5.6,1.1c-2.3,0-4.3-0.8-6.2-2.3c-1.9-1.5-3.5-3.6-4.8-6.2s-2.5-5.8-3.4-9.5c-1-3.7-1.8-7.6-2.3-11.7
			c-0.6-4.1-1-8.5-1.3-13.4c0-0.2-0.1-0.3-0.3-0.3h-30.2c-0.7,0-1.2-0.2-1.7-0.7c-0.5-0.5-0.7-1-0.7-1.7v-4.8c0-0.7,0.2-1.2,0.7-1.7
			c0.5-0.5,1-0.7,1.7-0.7h29.7c0.2,0,0.3-0.1,0.3-0.3c-0.1-3.4-0.1-6-0.1-7.9c0-0.7,0.2-1.2,0.7-1.6c0.4-0.4,1-0.7,1.6-0.7h5.9
			c0.7,0,1.2,0.2,1.6,0.7c0.4,0.4,0.6,1,0.6,1.6c0,1.2,0,2.5,0,3.9c0,1.3,0,2.7,0,4.1c0,0.2,0.1,0.3,0.3,0.3h7.9c0,0,0.1,0,0.1-0.1
			c0,0,0-0.1,0-0.1c-1.2-1.3-2.7-2.7-4.5-4.1c-0.5-0.3-0.7-0.8-0.7-1.4c0-0.6,0.2-1.1,0.7-1.4l2.8-2.4c0.5-0.4,1.1-0.7,1.8-0.7
			c0.7,0,1.3,0.2,1.8,0.6c2,1.4,3.6,2.8,4.9,4c0.4,0.4,0.6,1,0.6,1.6c0,0.6-0.3,1.2-0.8,1.6l-2.7,2.3c0,0-0.1,0.1,0,0.1
			c0,0,0.1,0.1,0.1,0.1h3.2c0.7,0,1.2,0.2,1.7,0.7c0.5,0.5,0.7,1,0.7,1.7V110.7z M227,128.8c-0.2,0-0.3,0.1-0.3,0.3v12.1
			c0,0.2,0.1,0.3,0.3,0.3c4.3-0.7,7.3-1.1,9-1.4c0.6-0.1,1.2,0.1,1.7,0.4c0.5,0.4,0.8,0.9,0.8,1.5l0.3,4c0.1,0.7-0.1,1.3-0.5,1.8
			c-0.4,0.5-0.9,0.9-1.5,1c-5.4,1.1-14.3,2.9-26.7,5.4c-0.7,0.1-1.3,0-1.8-0.3c-0.5-0.3-0.9-0.9-1.1-1.5l-1.4-5.4
			c-0.1-0.6,0-1.1,0.3-1.6c0.3-0.5,0.8-0.8,1.4-0.9c2.3-0.3,5.4-0.8,9.4-1.4c0.2,0,0.3-0.1,0.3-0.3v-13.7c0-0.2-0.1-0.3-0.3-0.3
			h-6.5c-0.7,0-1.2-0.2-1.7-0.7c-0.5-0.4-0.7-1-0.7-1.6v-4.7c0-0.7,0.2-1.2,0.7-1.7c0.5-0.5,1-0.7,1.7-0.7h24c0.7,0,1.2,0.2,1.6,0.7
			c0.4,0.5,0.7,1,0.7,1.7v4.7c0,0.7-0.2,1.2-0.7,1.6c-0.4,0.4-1,0.7-1.6,0.7H227z"/>
		<path d="M314.7,102.7c-0.1,0.2,0,0.3,0.2,0.3h15.6c0.7,0,1.2,0.2,1.7,0.7c0.5,0.5,0.7,1,0.7,1.6c0,0.7,0,1.4-0.1,2
			c-0.4,15.7-0.9,26.6-1.5,32.6c-0.5,6-1.5,10-2.8,11.7c-1,1.4-2,2.3-3,2.9c-1.1,0.6-2.4,1-4,1.3c-1.4,0.3-3.4,0.4-6.1,0.4
			c-0.8,0-1.6,0-2.5-0.1c-0.6,0-1.2-0.2-1.7-0.7c-0.5-0.5-0.8-1-0.9-1.7c-0.4-1.7-1-3.4-1.8-5.1c-0.2-0.4-0.2-0.9,0.1-1.3
			c0.3-0.4,0.6-0.6,1.1-0.6c2.3,0.1,4.9,0.2,7.8,0.2c1.2,0,2.2-0.4,2.9-1.2c1-1,1.7-4.1,2.2-9.3c0.5-5.1,0.9-13.3,1.1-24.5
			c0-0.2,0-0.3-0.3-0.3h-12.1c-0.2,0-0.4,0.1-0.5,0.3c-1.4,2.9-2.8,5.5-4.3,7.8c-0.3,0.5-0.8,0.8-1.4,0.9c-0.6,0.1-1.2-0.1-1.6-0.5
			c-1.2-0.9-2.3-1.7-3.5-2.5c-0.2-0.1-0.3-0.1-0.3,0.1v29.3c0,0.7-0.2,1.2-0.7,1.7c-0.5,0.5-1,0.7-1.6,0.7h-15
			c-0.2,0-0.3,0.1-0.3,0.3v2.2c0,0.7-0.2,1.2-0.7,1.7c-0.5,0.5-1,0.7-1.7,0.7h-4.1c-0.7,0-1.2-0.2-1.6-0.7c-0.4-0.5-0.7-1-0.7-1.7
			v-46c0-0.7,0.2-1.2,0.7-1.7c0.4-0.5,1-0.7,1.6-0.7h5c0.2,0,0.3-0.1,0.3-0.3c0.6-2.8,1-5.6,1.2-8.3c0-0.7,0.3-1.2,0.9-1.6
			c0.4-0.3,0.8-0.5,1.3-0.5c0.1,0,0.2,0,0.3,0l6,0.9c0.6,0.1,1.1,0.4,1.4,0.9c0.3,0.5,0.4,1.1,0.2,1.6c-1.1,3.1-1.9,5.5-2.5,6.9
			c-0.1,0.2,0,0.3,0.2,0.3h7.3c0.6,0,1.1,0.2,1.6,0.7c0.5,0.5,0.7,1,0.7,1.7v6.3c0,0,0,0.1,0.1,0.1c0,0,0.1,0,0.1,0
			c3-4.9,5.4-10.6,7.3-17.1c0.2-0.6,0.5-1.1,1.1-1.4c0.5-0.3,1.1-0.4,1.7-0.3l4.9,1.1c0.6,0.2,1.1,0.5,1.4,1.1
			c0.3,0.5,0.4,1.1,0.2,1.7C316,99,315.4,100.8,314.7,102.7z M290.7,121.2c0.2,0,0.3-0.1,0.3-0.3v-8.4c0-0.2-0.1-0.3-0.3-0.3h-8.2
			c-0.2,0-0.3,0.1-0.3,0.3v8.4c0,0.2,0.1,0.3,0.3,0.3H290.7z M282.2,140.8c0,0.2,0.1,0.3,0.3,0.3h8.2c0.2,0,0.3-0.1,0.3-0.3v-10.9
			c0-0.2-0.1-0.3-0.3-0.3h-8.2c-0.2,0-0.3,0.1-0.3,0.3V140.8z M320.3,132c0.2,0.4,0.3,0.8,0.3,1.2c0,0.2,0,0.4-0.1,0.7
			c-0.2,0.6-0.5,1.1-1.1,1.4l-4.3,2.6c-0.3,0.2-0.7,0.3-1,0.3c-0.2,0-0.4,0-0.6-0.1c-0.6-0.2-1-0.5-1.3-1.1
			c-1.3-2.5-3.5-6.4-6.6-11.5c-0.2-0.4-0.3-0.8-0.3-1.2c0-0.2,0-0.4,0.1-0.6c0.2-0.6,0.5-1.1,1.1-1.4l3.5-2c0.4-0.2,0.8-0.3,1.2-0.3
			c0.2,0,0.4,0,0.6,0.1c0.7,0.2,1.2,0.5,1.5,1C316.7,126.2,319,129.9,320.3,132z"/>
		<path class="st0" d="M380.9,135.3c-0.7,0-1.2-0.2-1.7-0.7c-0.5-0.5-0.7-1-0.7-1.7V95.1c0-0.7,0.2-1.2,0.7-1.7
			c0.5-0.5,1-0.7,1.7-0.7h18.1c0.7,0,1.2,0.2,1.6,0.7c0.4,0.5,0.7,1,0.7,1.7v4.1c0,0.7-0.2,1.2-0.7,1.7c-0.4,0.5-1,0.7-1.6,0.7
			h-10.6c-0.2,0-0.3,0.1-0.3,0.3V133c0,0.7-0.2,1.2-0.7,1.7c-0.5,0.5-1,0.7-1.7,0.7H380.9z"/>
		<path class="st0" d="M466.1,131.4c0,0.6-0.2,1.1-0.7,1.6c-0.5,0.5-1,0.7-1.7,0.7h-7.2c-0.2,0-0.3,0.1-0.1,0.3
			c3.1,4.3,6.8,8,11,11.1c0.5,0.3,0.7,0.9,0.7,1.5c0,0.5-0.2,1-0.6,1.3c-1.3,1.2-2.4,2.5-3.5,3.9c-0.4,0.5-0.9,0.8-1.5,0.9
			c-0.6,0.1-1.2-0.1-1.6-0.5c-2.5-2.4-5.1-5.3-7.6-8.8c0,0-0.1-0.1-0.1,0c0,0-0.1,0.1-0.1,0.1V154c0,0.6-0.2,1.1-0.7,1.6
			c-0.5,0.5-1,0.7-1.7,0.7h-4.6c-0.7,0-1.2-0.2-1.6-0.7c-0.4-0.5-0.7-1-0.7-1.6v-10.5c0,0,0-0.1-0.1-0.1c0,0-0.1,0-0.1,0
			c-3.1,4.1-6.5,7.4-10,9.9c-0.5,0.4-1.1,0.5-1.7,0.4c-0.6-0.1-1.1-0.5-1.5-1c-1-1.4-2.2-2.6-3.3-3.9c-0.4-0.4-0.6-0.9-0.5-1.5
			c0.1-0.6,0.3-1,0.8-1.2c1.6-0.9,3-1.9,4.3-2.9c0,0,0-0.1-0.1-0.1l-4.6,1.5c-0.5,0.2-1,0.1-1.6-0.2c-0.5-0.3-0.8-0.8-0.9-1.4
			c-0.5-2.7-1.2-5.3-2.1-7.9c0,0,0-0.1,0-0.1c0,0,0,0,0,0.1v18.9c0,0.6-0.2,1.1-0.7,1.6c-0.5,0.5-1,0.7-1.7,0.7h-3.7
			c-0.6,0-1.1-0.2-1.6-0.7c-0.5-0.5-0.7-1-0.7-1.6v-17.8h-0.1c-0.6,5.1-1.5,9.4-2.7,13.1c-0.2,0.6-0.6,1-1.1,1.2
			c-0.6,0.2-1.1,0.2-1.7-0.1c-0.8-0.4-1.8-0.8-2.8-1.3c-0.6-0.3-1-0.7-1.2-1.2c-0.1-0.3-0.2-0.7-0.2-1c0-0.3,0-0.5,0.1-0.8
			c0.9-2.8,1.5-6.5,2-11c0.1-0.6,0.4-1.1,0.9-1.5c0.5-0.4,1-0.5,1.6-0.4l4.9,0.9c0.2,0,0.3-0.1,0.3-0.3v-3.9c0-0.2-0.1-0.3-0.3-0.3
			l-6.1,0.5c-0.7,0-1.2-0.1-1.7-0.6c-0.5-0.4-0.8-0.9-0.8-1.5l-0.5-3.7c-0.1-0.6,0.1-1.2,0.5-1.6c0.4-0.5,0.9-0.7,1.6-0.8l2.4-0.1
			c0.2,0,0.3-0.1,0.5-0.3c0.1-0.2,0.4-0.6,0.9-1.2c0.5-0.6,0.8-1.1,1-1.5c0.1-0.1,0.2-0.3,0.1-0.5c-1.3-2.1-3.2-4.5-5.6-7.2
			c-0.4-0.5-0.7-1.1-0.7-1.8c0-0.7,0.1-1.3,0.5-1.9l2.5-3.5c0.2-0.3,0.5-0.5,0.9-0.5c0.4,0,0.7,0.1,1,0.4c0.1,0,0.2,0,0.3-0.1
			c1.4-2.9,2.5-5.8,3.5-8.8c0.2-0.6,0.6-1.1,1.2-1.3c0.6-0.3,1.2-0.3,1.8-0.1l4,1.4c0.6,0.2,1,0.6,1.2,1.2c0.2,0.6,0.2,1.1-0.1,1.6
			c-2.7,5.1-4.8,9-6.3,11.5c-0.1,0.1-0.1,0.3,0,0.5c0.3,0.3,0.6,0.7,0.9,1.1c0,0.1,0.1,0.1,0.2,0.1s0.1,0,0.2-0.1
			c1.7-2.7,3.1-5.3,4.3-7.8c0.3-0.6,0.8-1,1.4-1.2c0.6-0.2,1.2-0.2,1.8,0.1l4.9,2.2c0.2,0.1,0.3,0,0.3-0.2v-3.3
			c0-0.7,0.2-1.2,0.7-1.7c0.5-0.5,1-0.7,1.7-0.7h11.8c0.2,0,0.3-0.1,0.3-0.3v-2.9c0-0.7,0.2-1.2,0.7-1.7c0.4-0.5,1-0.7,1.6-0.7h4.6
			c0.7,0,1.2,0.2,1.7,0.7c0.5,0.5,0.7,1,0.7,1.7V98c0,0.2,0.1,0.3,0.3,0.3h11.1c0.7,0,1.2,0.2,1.7,0.7c0.5,0.5,0.7,1,0.7,1.7v3.7
			c0,0.7-0.2,1.2-0.7,1.6c-0.5,0.4-1,0.7-1.7,0.7h-11.1c-0.2,0-0.3,0.1-0.3,0.3v2.1c0,0.2,0.1,0.3,0.3,0.3h10.4
			c0.7,0,1.2,0.2,1.7,0.7c0.5,0.5,0.7,1,0.7,1.7V131.4z M418,121c0,0,0,0.1,0,0.1c0,0,0.1,0.1,0.1,0.1l3.1-0.2
			c0.2,0,0.3-0.1,0.2-0.3c-0.7-1.5-1.1-2.3-1.1-2.3c0-0.1-0.1-0.1-0.2-0.1c-0.1,0-0.1,0-0.1,0.1C419.2,119.5,418.5,120.4,418,121z
			 M430.5,106.6c-0.4,0-0.6-0.1-0.9-0.3c-0.2-0.2-0.4-0.5-0.4-0.9h-0.1c-2.4,3.7-5.1,7.4-7.9,11.3c0,0.1,0.1,0.1,0.1,0.1l3-1.2
			c0.6-0.3,1.2-0.3,1.8-0.1c0.6,0.2,1.1,0.6,1.4,1.2c1.2,2.3,2.2,4.7,3.1,7.1c0,0,0.1,0,0.1,0c0,0,0,0,0-0.1v-12.1
			c0-0.7,0.2-1.2,0.7-1.7c0.5-0.5,1-0.7,1.6-0.7h10.3c0.2,0,0.3-0.1,0.3-0.3v-2.1c0-0.2-0.1-0.3-0.3-0.3H430.5z M422.3,134
			c0,0.2,0.1,0.2,0.3,0.2l4-1.2c0.7-0.2,1.3-0.1,1.9,0.2c0.6,0.3,1,0.7,1.2,1.3c1.1,3.1,1.8,5.8,2.2,8.2c0,0.2,0.1,0.2,0.3,0.1
			c3.3-2.7,6.1-5.6,8.3-8.9c0.1-0.2,0-0.3-0.1-0.3h-7.1c-0.6,0-1.1-0.2-1.6-0.7c-0.5-0.5-0.7-1-0.7-1.6v-1.3c0-0.2-0.1-0.2-0.3-0.1
			l-3.4,1.4c-0.5,0.3-1,0.3-1.6,0c-0.5-0.3-0.9-0.7-1-1.3c0-0.1-0.1-0.3-0.2-0.6s-0.1-0.4-0.1-0.5c0-0.2-0.2-0.3-0.4-0.3l-1.5,0.1
			c-0.2,0-0.3,0.1-0.3,0.3V134z M444.5,116.3c0-0.2-0.1-0.3-0.3-0.3h-4.5c-0.2,0-0.3,0.1-0.3,0.3v1.7c0,0.2,0.1,0.3,0.3,0.3h4.5
			c0.2,0,0.3-0.1,0.3-0.3V116.3z M444.5,124.9c0-0.2-0.1-0.3-0.3-0.3h-4.5c-0.2,0-0.3,0.1-0.3,0.3v1.7c0,0.2,0.1,0.3,0.3,0.3h4.5
			c0.2,0,0.3-0.1,0.3-0.3V124.9z M456.9,118.4c0.2,0,0.3-0.1,0.3-0.3v-1.7c0-0.2-0.1-0.3-0.3-0.3h-4.2c-0.2,0-0.3,0.1-0.3,0.3v1.7
			c0,0.2,0.1,0.3,0.3,0.3H456.9z M456.9,126.9c0.2,0,0.3-0.1,0.3-0.3v-1.7c0-0.2-0.1-0.3-0.3-0.3h-4.2c-0.2,0-0.3,0.1-0.3,0.3v1.7
			c0,0.2,0.1,0.3,0.3,0.3H456.9z"/>
		<path class="st0" d="M501,122c-0.1,0.2,0,0.3,0.2,0.3l5.4,0.7c0.6,0.1,1,0.4,1.2,0.9c0.3,0.5,0.3,1,0,1.5
			c-0.4,0.8-0.9,1.6-1.4,2.4c-0.1,0.2,0,0.3,0.2,0.3H525c0.7,0,1.2,0.2,1.6,0.7c0.4,0.5,0.7,1,0.7,1.7v24c0,0.7-0.2,1.2-0.7,1.6
			c-0.4,0.4-1,0.7-1.6,0.7h-5.8c-0.6,0-1-0.2-1.4-0.6c-0.4-0.4-0.6-0.9-0.6-1.4c0-0.1-0.1-0.2-0.3-0.2h-26.1c-0.2,0-0.3,0.1-0.3,0.2
			c0,0.6-0.2,1-0.6,1.4c-0.4,0.4-0.9,0.6-1.4,0.6h-5.3c-0.6,0-1.1-0.2-1.6-0.7c-0.5-0.4-0.7-1-0.7-1.6v-24c0-0.7,0.2-1.2,0.7-1.7
			c0.5-0.5,1-0.7,1.6-0.7h13.2c0.2,0,0.3-0.1,0.4-0.3c0.2-0.5,0.5-1.4,0.9-2.8c0,0,0-0.1-0.1-0.1c0,0-0.1-0.1-0.1-0.1
			c-1.3,0.4-3.3,0.6-6,0.7c-0.7,0-1.2-0.2-1.8-0.6c-0.5-0.4-0.9-0.9-1-1.6c-0.3-1.1-0.8-2.4-1.4-3.7c-0.1-0.2-0.2-0.2-0.4-0.1
			c-2.9,1.3-6.1,2.6-9.4,4c-0.6,0.3-1.2,0.3-1.8,0c-0.6-0.2-1-0.7-1.3-1.3l-1.5-3.6c-0.1-0.3-0.2-0.6-0.2-0.9s0.1-0.5,0.2-0.9
			c0.3-0.6,0.7-0.9,1.3-1.1c2.4-0.7,5.2-1.6,8.6-2.7c0.2,0,0.2-0.2,0.1-0.3c-1.3-1.2-3.2-2.6-5.9-4.2c-0.5-0.3-0.8-0.8-0.9-1.4
			c-0.1-0.6,0-1.1,0.4-1.6l1.8-2.2c0.1-0.2,0.1-0.3-0.1-0.3h-1.9c-0.7,0-1.2-0.2-1.7-0.7c-0.5-0.5-0.7-1-0.7-1.6v-2.8
			c0-0.7,0.2-1.2,0.7-1.7c0.5-0.5,1-0.7,1.7-0.7h23.2c0.7,0,1.2,0.2,1.6,0.7c0.4,0.5,0.7,1,0.7,1.7v19.9
			C501.7,119.6,501.5,121.1,501,122z M490.1,115.7c0.1,0.6,0.1,1.1-0.2,1.7c-0.3,0.5-0.7,0.9-1.2,1.1v0.1h3.3c0.7,0,1-0.3,1-1v-14.4
			c0-0.2-0.1-0.3-0.3-0.3h-10.2c0,0-0.1,0-0.1,0.1c1.4,0.8,2.7,1.6,3.8,2.4c0.5,0.3,0.8,0.9,0.9,1.5c0.1,0.7-0.1,1.2-0.5,1.8
			l-2.9,3.7c0,0-0.1,0.1,0,0.1c0,0,0.1,0,0.1,0l3.1-1c0.6-0.2,1.2-0.1,1.7,0.2c0.5,0.3,0.9,0.8,1,1.4L490.1,115.7z M516.8,137.5
			c0.2,0,0.3-0.1,0.3-0.3v-1.8c0-0.2-0.1-0.3-0.3-0.3h-25.9c-0.2,0-0.3,0.1-0.3,0.3v1.8c0,0.2,0.1,0.3,0.3,0.3H516.8z M490.6,146.7
			c0,0.2,0.1,0.3,0.3,0.3h25.9c0.2,0,0.3-0.1,0.3-0.3V145c0-0.2-0.1-0.3-0.3-0.3h-25.9c-0.2,0-0.3,0.1-0.3,0.3V146.7z M530,95.5
			c0.7,0,1.2,0.2,1.6,0.7c0.4,0.5,0.7,1,0.7,1.7v19.6c0,2-0.2,3.5-0.7,4.5c-0.5,1-1.4,1.8-2.6,2.5c-1.7,0.7-4.4,1.1-8,1.1
			c-0.7,0-1.3-0.2-1.8-0.6c-0.5-0.4-0.9-0.9-1.1-1.6c-0.5-1.6-1-3.1-1.6-4.4c-0.1-0.2-0.2-0.2-0.5-0.2c-1,0.4-2.4,0.9-4.3,1.6
			c-1.8,0.7-3.1,1.1-3.7,1.4c-0.6,0.2-1.2,0.2-1.8-0.1c-0.6-0.3-1-0.7-1.3-1.2l-1.3-2.9c-0.1-0.3-0.2-0.5-0.2-0.8
			c0-0.3,0.1-0.6,0.2-0.9c0.3-0.5,0.7-0.9,1.3-1c2.5-0.7,5.2-1.6,8-2.6c0.1,0,0.1-0.1,0.1-0.2c0-0.1,0-0.1-0.1-0.1
			c-1.4-1.1-3.1-2.3-5.4-3.6c-0.5-0.3-0.8-0.8-0.9-1.3c-0.1-0.6,0-1.1,0.4-1.6l1.6-2c0.1-0.2,0.1-0.3-0.1-0.3h-1.4
			c-0.7,0-1.2-0.2-1.7-0.7c-0.5-0.5-0.7-1-0.7-1.6v-2.8c0-0.7,0.2-1.2,0.7-1.7c0.5-0.5,1-0.7,1.7-0.7H530z M518.7,110.1
			c0.6-0.2,1.1-0.2,1.7,0.1c0.5,0.3,0.9,0.8,1,1.4l0.5,2.4c0.2,0.7,0.1,1.3-0.2,1.9c-0.3,0.6-0.8,1-1.4,1.3l-2.8,1c0,0,0,0,0,0.1
			c1.3,0,2.9,0.1,4.8,0.1c0.4,0,0.7-0.1,0.9-0.3c0.2-0.2,0.3-0.4,0.3-0.8v-14.1c0-0.2-0.1-0.3-0.3-0.3h-9.4c0,0-0.1,0-0.1,0.1
			c1.4,0.8,2.7,1.5,3.7,2.2c0.5,0.3,0.8,0.9,0.9,1.5c0.1,0.7-0.1,1.2-0.5,1.8l-1.8,2.4c0,0,0,0.1,0,0.1c0,0,0.1,0.1,0.1,0.1
			C516.5,110.9,517.4,110.6,518.7,110.1z"/>
		<path class="st0" d="M562.5,126c0.4,0.6,0.6,1.3,0.5,1.9c0,0.7-0.3,1.3-0.7,1.8l-2.7,3.1c-0.3,0.4-0.8,0.5-1.3,0.5
			c-0.5-0.1-0.9-0.4-1-0.9c-0.4-1-1-2.3-1.7-3.7c0,0-0.1,0-0.1,0.1v25.3c0,0.6-0.2,1.1-0.7,1.6c-0.5,0.5-1,0.7-1.7,0.7h-4.5
			c-0.7,0-1.2-0.2-1.7-0.7c-0.5-0.5-0.7-1-0.7-1.6v-16.5c0,0,0-0.1,0-0.1c0,0,0,0,0,0.1c-0.9,2.1-1.8,4-2.7,5.6
			c-0.2,0.4-0.6,0.6-1,0.5c-0.5,0-0.8-0.3-0.9-0.7c-0.7-1.9-1.6-3.8-2.6-5.8c-0.3-0.6-0.5-1.2-0.5-1.8c0-0.7,0.2-1.5,0.7-2.2
			c2.7-4.2,5.1-9.8,7-16.7c0-0.2,0.1-0.4,0.1-0.6v-1.8c0-0.2-0.1-0.3-0.3-0.3h-4.1c-0.6,0-1.1-0.2-1.6-0.7c-0.5-0.5-0.7-1-0.7-1.6
			v-4.4c0-0.6,0.2-1.1,0.7-1.6c0.5-0.5,1-0.7,1.6-0.7h4.1c0.2,0,0.3-0.1,0.3-0.3v-9.6c0-0.7,0.2-1.2,0.7-1.7c0.5-0.5,1-0.7,1.7-0.7
			h4.5c0.7,0,1.2,0.2,1.7,0.7c0.5,0.5,0.7,1,0.7,1.7v9.6c0,0.2,0.1,0.3,0.3,0.3h3c0.7,0,1.2,0.2,1.7,0.7c0.5,0.5,0.7,1,0.7,1.6v4.4
			c0,0.6-0.2,1.1-0.7,1.6c-0.5,0.5-1,0.7-1.7,0.7h-3c-0.2,0-0.3,0.1-0.3,0.3v1.4c0,0.2,0,0.4,0.1,0.5
			C557.4,118.5,559.7,121.7,562.5,126z M601.3,140.5c0,0.7-0.2,1.2-0.7,1.6c-0.5,0.4-1,0.7-1.7,0.7h-6.9c0,0-0.1,0-0.1,0.1
			c0,0.1,0,0.1,0,0.1c2.4,2.2,5.3,3.8,9,4.7c0.5,0.1,0.8,0.4,1,0.9c0,0.2,0.1,0.3,0.1,0.5c0,0.3-0.1,0.6-0.4,0.9
			c-1.1,1.4-2.2,2.8-3.1,4.3c-0.3,0.6-0.8,1-1.5,1.3c-0.6,0.2-1.3,0.3-1.9,0c-5.4-2-9.5-5.5-12.4-10.5c0,0-0.1-0.1-0.2-0.1
			c-0.1,0-0.1,0-0.2,0.1c-1.4,2.4-3.5,4.5-6.2,6.3c-2.7,1.8-6.2,3.3-10.6,4.5c-0.2,0-0.5,0.1-0.7,0.1c-0.3,0-0.7-0.1-1.1-0.3
			c-0.6-0.3-1.1-0.8-1.4-1.4c-0.7-1.4-1.5-2.6-2.5-3.9c-0.2-0.3-0.3-0.5-0.3-0.9c0-0.2,0-0.3,0.1-0.5c0.2-0.5,0.5-0.8,1-0.9
			c5.4-1.2,9.2-2.9,11.5-5.1c0,0,0.1-0.1,0-0.2c0-0.1-0.1-0.1-0.1-0.1h-8.4c-0.6,0-1.1-0.2-1.6-0.7c-0.5-0.4-0.7-1-0.7-1.6v-3.3
			c0-0.7,0.2-1.2,0.7-1.6c0.5-0.4,1-0.7,1.6-0.7h11.9c0.2,0,0.3-0.1,0.4-0.3c0-0.2,0.1-1,0.3-2.4c0-0.2,0-0.3-0.2-0.3h-9.9
			c-0.7,0-1.2-0.2-1.6-0.7c-0.4-0.5-0.7-1-0.7-1.7v-18.4c0-0.7,0.2-1.2,0.7-1.7c0.4-0.5,1-0.7,1.6-0.7h29.5c0.7,0,1.2,0.2,1.7,0.7
			c0.5,0.5,0.7,1,0.7,1.7v18.4c0,0.7-0.2,1.2-0.7,1.7c-0.5,0.5-1,0.7-1.7,0.7h-9.5c-0.2,0-0.3,0.1-0.3,0.3c0,0.3-0.1,0.7-0.1,1.2
			c0,0.5-0.1,0.9-0.1,1.2c0,0.2,0,0.3,0.3,0.3H599c0.7,0,1.2,0.2,1.7,0.7c0.5,0.4,0.7,1,0.7,1.6V140.5z M571.7,107.8
			c-0.7,0-1.2-0.2-1.6-0.7c-0.4-0.5-0.7-1-0.7-1.7V105c0-0.2-0.1-0.3-0.3-0.3h-4.1c-0.7,0-1.2-0.2-1.7-0.7c-0.5-0.5-0.7-1-0.7-1.7
			v-3.3c0-0.6,0.2-1.1,0.7-1.6c0.5-0.5,1-0.7,1.7-0.7h4.1c0.2,0,0.3-0.1,0.3-0.3v-1.4c0-0.7,0.2-1.2,0.7-1.7c0.4-0.5,1-0.7,1.6-0.7
			h4.5c0.7,0,1.2,0.2,1.7,0.7c0.5,0.5,0.7,1,0.7,1.7v1.4c0,0.2,0.1,0.3,0.3,0.3h5.8c0.2,0,0.3-0.1,0.3-0.3v-1.4
			c0-0.7,0.2-1.2,0.7-1.7c0.5-0.5,1-0.7,1.7-0.7h4.8c0.7,0,1.2,0.2,1.6,0.7c0.4,0.5,0.7,1,0.7,1.7v1.4c0,0.2,0.1,0.3,0.3,0.3h3.9
			c0.7,0,1.2,0.2,1.7,0.7c0.5,0.5,0.7,1,0.7,1.6v3.3c0,0.7-0.2,1.2-0.7,1.7c-0.5,0.5-1,0.7-1.7,0.7h-3.9c-0.2,0-0.3,0.1-0.3,0.3v0.5
			c0,0.7-0.2,1.2-0.7,1.7c-0.4,0.5-1,0.7-1.6,0.7h-4.8c-0.7,0-1.2-0.2-1.7-0.7c-0.5-0.5-0.7-1-0.7-1.7V105c0-0.2-0.1-0.3-0.3-0.3
			h-5.8c-0.2,0-0.3,0.1-0.3,0.3v0.5c0,0.7-0.2,1.2-0.7,1.7c-0.5,0.5-1,0.7-1.7,0.7H571.7z M573.2,115.6c-0.2,0-0.3,0.1-0.3,0.3v1.2
			c0,0.2,0.1,0.3,0.3,0.3h15.2c0.2,0,0.3-0.1,0.3-0.3v-1.2c0-0.2-0.1-0.3-0.3-0.3H573.2z M573.2,123.5c-0.2,0-0.3,0.1-0.3,0.3v1.2
			c0,0.2,0.1,0.3,0.3,0.3h15.2c0.2,0,0.3-0.1,0.3-0.3v-1.2c0-0.2-0.1-0.3-0.3-0.3H573.2z"/>
		<path class="st0" d="M668.1,110.7c0,0.7-0.2,1.2-0.7,1.7c-0.5,0.5-1,0.7-1.7,0.7h-14.9c-0.2,0-0.3,0.1-0.3,0.3
			c0.7,9.3,1.8,17.1,3.4,23.4c1.6,6.3,3.4,9.5,5.3,9.5c1.1,0,1.8-3.2,2.2-9.5c0-0.4,0.2-0.7,0.7-0.9c0.4-0.2,0.8-0.1,1.2,0.1
			c1.5,1.3,3,2.3,4.6,3.2c0.7,0.3,1.2,0.8,1.5,1.4c0.3,0.5,0.4,1,0.4,1.5c0,0.1,0,0.3-0.1,0.4c-0.5,3.8-1.2,6.7-2.2,8.7
			c-1,2.1-2.2,3.4-3.6,4.2c-1.4,0.7-3.3,1.1-5.6,1.1c-2.3,0-4.3-0.8-6.2-2.3c-1.9-1.5-3.5-3.6-4.8-6.2s-2.5-5.8-3.4-9.5
			c-1-3.7-1.8-7.6-2.3-11.7c-0.6-4.1-1-8.5-1.3-13.4c0-0.2-0.1-0.3-0.3-0.3h-30.2c-0.7,0-1.2-0.2-1.7-0.7c-0.5-0.5-0.7-1-0.7-1.7
			v-4.8c0-0.7,0.2-1.2,0.7-1.7c0.5-0.5,1-0.7,1.7-0.7h29.7c0.2,0,0.3-0.1,0.3-0.3c-0.1-3.4-0.1-6-0.1-7.9c0-0.7,0.2-1.2,0.7-1.6
			c0.4-0.4,1-0.7,1.6-0.7h5.9c0.7,0,1.2,0.2,1.6,0.7c0.4,0.4,0.6,1,0.6,1.6c0,1.2,0,2.5,0,3.9c0,1.3,0,2.7,0,4.1
			c0,0.2,0.1,0.3,0.3,0.3h7.9c0,0,0.1,0,0.1-0.1c0,0,0-0.1,0-0.1c-1.2-1.3-2.7-2.7-4.5-4.1c-0.5-0.3-0.7-0.8-0.7-1.4
			c0-0.6,0.2-1.1,0.7-1.4l2.8-2.4c0.5-0.4,1.1-0.7,1.8-0.7c0.7,0,1.3,0.2,1.8,0.6c2,1.4,3.6,2.8,4.9,4c0.4,0.4,0.6,1,0.6,1.6
			c0,0.6-0.3,1.2-0.8,1.6l-2.7,2.3c0,0-0.1,0.1,0,0.1c0,0,0.1,0.1,0.1,0.1h3.2c0.7,0,1.2,0.2,1.7,0.7c0.5,0.5,0.7,1,0.7,1.7V110.7z
			 M629.1,128.8c-0.2,0-0.3,0.1-0.3,0.3v12.1c0,0.2,0.1,0.3,0.3,0.3c4.3-0.7,7.3-1.1,9-1.4c0.6-0.1,1.2,0.1,1.7,0.4
			c0.5,0.4,0.8,0.9,0.8,1.5l0.3,4c0.1,0.7-0.1,1.3-0.5,1.8c-0.4,0.5-0.9,0.9-1.5,1c-5.4,1.1-14.3,2.9-26.7,5.4
			c-0.7,0.1-1.3,0-1.8-0.3c-0.5-0.3-0.9-0.9-1.1-1.5l-1.4-5.4c-0.1-0.6,0-1.1,0.3-1.6c0.3-0.5,0.8-0.8,1.4-0.9
			c2.3-0.3,5.4-0.8,9.4-1.4c0.2,0,0.3-0.1,0.3-0.3v-13.7c0-0.2-0.1-0.3-0.3-0.3h-6.5c-0.7,0-1.2-0.2-1.7-0.7c-0.5-0.4-0.7-1-0.7-1.6
			v-4.7c0-0.7,0.2-1.2,0.7-1.7s1-0.7,1.7-0.7h24c0.7,0,1.2,0.2,1.6,0.7c0.4,0.5,0.7,1,0.7,1.7v4.7c0,0.7-0.2,1.2-0.7,1.6
			c-0.4,0.4-1,0.7-1.6,0.7H629.1z"/>
		<path class="st0" d="M693.3,113.9c0.7,0,1.2,0.2,1.7,0.7c0.5,0.5,0.7,1,0.7,1.7v37.9c0,0.6-0.2,1.1-0.7,1.6
			c-0.5,0.5-1,0.7-1.7,0.7h-18.1c-0.7,0-1.2-0.2-1.6-0.7c-0.4-0.5-0.7-1-0.7-1.6V150c0-0.7,0.2-1.2,0.7-1.7c0.4-0.5,1-0.7,1.6-0.7
			h10.6c0.2,0,0.3-0.1,0.3-0.3v-31.2c0-0.7,0.2-1.2,0.7-1.7c0.5-0.5,1-0.7,1.7-0.7H693.3z"/>
	</g>
</g>
</svg>
