<?xml version="1.0" encoding="utf-8"?>
<!-- Generator: Adobe Illustrator 21.0.0, SVG Export Plug-In . SVG Version: 6.00 Build 0)  -->
<svg version="1.1" id="圖層_1" xmlns="http://www.w3.org/2000/svg" xmlns:xlink="http://www.w3.org/1999/xlink" x="0px" y="0px"
	 viewBox="0 0 679 487" style="enable-background:new 0 0 679 487;" xml:space="preserve">
<style type="text/css">
	.st0{fill:#BF3F3E;}
	.st1{fill:none;stroke:#FFFFFF;stroke-miterlimit:10;}
	.st2{fill:#FFFFFF;stroke:#BEBDBE;stroke-miterlimit:10;}
	.st3{fill:#82A188;}
	.st4{fill:#BCDBC0;}
	.st5{fill:#FFFFFF;}
	.st6{fill:#82A088;}
	.st7{fill:#C2D8BF;}
	.st8{fill:#8AAED2;stroke:#70A0D1;stroke-linecap:round;stroke-miterlimit:10;}
</style>
<g>
	<path class="st0" d="M334.5,325.9c0,0,7.7,32.7,24.1,41c16.4,8.3-7.7,2.1-23.6,21.7c-15.9,19.6,173.8,3.6,215.8-16.4
		c18.5-8.8,45.4-36.7,64.9-46.3c24.8-12.3,41.5,6.5,56,29.8c0,0-22.2,12.4-39.9,28.9c-17.7,16.5-8.1,21.2-8.1,21.2
		s-51.5-5.5-64.6,2.4c-14.3,8.6-182.1,49.5-206.3,22.4C328.5,403.5,202.4,344.8,334.5,325.9z"/>
	<path class="st1" d="M354.8,361.2"/>
	<g>
		<path class="st2" d="M511.8,371.1c0,0-49.5,9.1-69.7,7.7c-20.2-1.3,6.9,70.3,32.2,77.3C499.6,463,594.6,455.6,511.8,371.1z"/>
		<path class="st2" d="M398.8,399.3c0,0-25.7-7.1-45.3-12.5c-19.6-5.4-32,76.3-8.6,88.2C368.3,487,462.9,498.8,398.8,399.3z"/>
		<g>
			<path class="st2" d="M280.1,172.4c0,0-22.5-26-50.6-46.4c-17.9-13-28.4-22.8-50.8-7.6c0,0-64.4,46.5,5.5,85.4
				c71.7,39.9,123.5,44.7,123.5,44.7s1.5,54,9.9,87.3c1.4,5.5,13.8,39.5,28.8,48.7c0,0,88.8,63.6,142.5-6.2
				c5.1-6.6,12.6-22.4,13.6-33.2c2.9-30.9-11.7-62.2-26.4-90C439.4,185.7,362.9,125.6,280.1,172.4z"/>
			<g>
				<path class="st3" d="M480.3,171.7c0.9,14.1-30.5,32.6-52.1,42.5L391,219l-72.2,1.5c-15.5,1.5-28.8-8.8-29.7-22.9
					c0,0-61.2-141.8-60.6-142.7c-0.3-4.4,51.3-40,66.8-41.5l130.7-1c15.5-1.5,28.9,8.8,29.7,22.9L480.3,171.7z"/>
				<path class="st4" d="M271.7,216.5c2.9,10.6,124.7,5,124.7,5c12.8-3.5,40.1-4.4,37.2-15.2L410.3,64.8
					c-4.8-20.9-37.4-18.3-51.3-18.9l-122.1,4.9c-12.8,3.5-12.9,14.4-9.8,25.4L271.7,216.5z"/>
				<path class="st5" d="M381.4,121.3l12.8,77.1c0,0-48.3,10.8-49.3,16.2l-19.3-1c0,0-20.1-16.2-32.3-10.7c0,0-28.1-76.9-30.3-89
					c-0.2-0.9,3.8-12.8,22.1-10.5c7.2,0.9,19.7,3.2,30.3,10.5c0,0,23-11.8,63-10.2L381.4,121.3z"/>
				<path class="st6" d="M343.9,144.2c1.6,4.7,6,7.6,9.8,6.4c3.9-1.1,5.7-5.8,4.1-10.5c-1.6-4.7-6-7.6-9.8-6.4
					C344.1,134.8,342.3,139.5,343.9,144.2z"/>
				<path class="st6" d="M291,147.1c1.6,4.7,6,7.6,9.8,6.4c3.9-1.1,5.7-5.8,4.1-10.5c-1.6-4.7-6-7.6-9.8-6.4
					C291.2,137.8,289.4,142.5,291,147.1z"/>
				<g>
					<polygon class="st6" points="327.1,182.7 335.2,181.1 330.8,154 321.8,154.6 					"/>
					<path class="st6" d="M330.9,176.2c0,0,12.3-6.9,18.7-0.7c6.5,6.2,7.4,14,18.2,8.6c0,0-34.5,25.4-37.1-7.1"/>
					<path class="st6" d="M330.6,176.4c0,0-8.8-5.9-15.1-0.3c-6.3,5.6-8.3,12.5-16.2,7.9c0,0,23.7,22,31.2-6.8"/>
				</g>
				<path class="st5" d="M385.1,104.7c0,0,12.7-17.1-11.8-24.9c-24.4-7.7-20.6,24.5-19,25.4c1.6,0.9,25.4,6,25.4,6L385.1,104.7z"/>
				<path class="st7" d="M374.9,106.5c0,0,7.3-9.9-6.8-14.4c-14.1-4.5-11.9,14.2-11,14.7c0.9,0.5,15.5,2.4,15.5,2.4L374.9,106.5z"/>
				<path class="st5" d="M260.2,117.4c0,0-22.4-3.4-10.4-25.5c11.9-22.1,35.8,9.8,35.4,11.5c-0.5,1.7-18.4,14.6-18.4,14.6
					L260.2,117.4z"/>
				<path class="st7" d="M263.6,112.8c0,0-9.1-3.4-1.3-12.1c7.8-8.8,13.9,4.2,13.6,4.9c-0.4,0.7-9.6,8-9.6,8L263.6,112.8z"/>
			</g>
			<path class="st2" d="M451.7,262.9c0,0,42.4-6.1,66.6-64.1c24.3-57.9,32.7-147.4-42.8-122c-48.4,16.3-26.5,40.9-30.8,80
				c-2.4,21.4-4.9,43.1-17.8,55.1c-16.5,15.2-35,29.6-28,38.4C411.5,266,451.7,262.9,451.7,262.9"/>
		</g>
		<path class="st8" d="M502.4,327.8c4.1-6.2,15.8,27.6,15.8,27.6s21.3,34.3,22.6,39.8c1.3,5.5-78.4,54.4-99.6,39.5
			c-1.8-1.3-9.6-21.6-12.5-21.7c-18.3-1-8.1,10.1-6.5,21.2c0.9,6.2-96.7-52.7-99.6-61c-6.1-17.2,0.9-16.4,0.9-16.4
			s61.5,12.5,93.1,6.4C448,357,489.9,346.9,502.4,327.8z"/>
		<path class="st8" d="M322.6,372.3c0,0-2.5,29.7,0.6,64.2c3,34.5,88.5,15.9,99-2.3"/>
	</g>
	<rect x="355.3" y="232.5" class="st5" width="99.4" height="51.2"/>
	<path class="st0" d="M10.8,158.8c0,0,165,58.5,214.2,77c23.2,8.7,108,31,135.3,32c61,2.2,123.4-4.3,123.4-4.3
		c0,0,27.4,40.8,23.5,64c-0.3,1.9-8.8,8-10.3,9c-32,20.7-240.8-46.7-324.6-68.7c0,0-152.1-41.4-161.5-38.2V158.8z"/>
</g>
</svg>
