<?xml version="1.0" encoding="utf-8"?>
<!-- Generator: Adobe Illustrator 21.0.0, SVG Export Plug-In . SVG Version: 6.00 Build 0)  -->
<svg version="1.1" id="圖層_1" xmlns="http://www.w3.org/2000/svg" xmlns:xlink="http://www.w3.org/1999/xlink" x="0px" y="0px"
	 viewBox="0 0 850 167" style="enable-background:new 0 0 850 167;" xml:space="preserve">
<style type="text/css">
	.st0{fill:#E71F19;}
</style>
<g>
	<g>
		<path d="M22.3,53.9c-0.6,0-1.1-0.2-1.6-0.7c-0.5-0.5-0.7-1-0.7-1.6v-7.9c0,0,0-0.1-0.1-0.1c0,0-0.1,0-0.1,0
			c-1.3,2.1-2.7,3.9-4.1,5.5c-0.4,0.4-1,0.6-1.6,0.6c-0.6,0-1.1-0.3-1.5-0.8c-1-1.2-2-2.3-3.1-3.4c-0.4-0.4-0.7-0.9-0.7-1.4
			c0-0.6,0.2-1.1,0.7-1.6c3.4-3.1,6.3-7.1,8.8-11.9c0.1-0.2,0-0.3-0.1-0.3h-6.3c-0.7,0-1.2-0.2-1.7-0.7c-0.5-0.5-0.7-1-0.7-1.7v-3.5
			c0-0.6,0.2-1.1,0.7-1.6c0.5-0.5,1-0.7,1.7-0.7h7.7c0.2,0,0.3-0.1,0.3-0.3v-6.6c0-0.7,0.2-1.2,0.7-1.6c0.5-0.4,1-0.7,1.6-0.7h4.6
			c0.6,0,1.1,0.2,1.6,0.7c0.5,0.4,0.7,1,0.7,1.6v6.6c0,0.2,0.1,0.3,0.3,0.3h6.2c0.6,0,1.1,0.2,1.6,0.7s0.7,1,0.7,1.6V28
			c0,0.7-0.2,1.2-0.7,1.7c-0.5,0.5-1,0.7-1.6,0.7h-6.2c-0.2,0-0.3,0.1-0.3,0.3v1.2c0,0.2,0.1,0.3,0.3,0.5c2,1.2,4.8,3,8.2,5.4
			c0.5,0.4,0.9,0.9,1,1.5c0.1,0.6,0,1.2-0.4,1.8l-2.6,3.9c-0.3,0.5-0.8,0.7-1.3,0.8c-0.6,0-1.1-0.2-1.5-0.6c-1-1-2.2-2.2-3.5-3.4
			c0,0-0.1-0.1-0.1,0c0,0-0.1,0.1-0.1,0.1v9.9c0,0.6-0.2,1.1-0.7,1.6c-0.5,0.5-1,0.7-1.6,0.7H22.3z M18.1,70.6
			c-0.3,0.6-0.7,1-1.3,1.2c-0.6,0.2-1.2,0.1-1.8-0.2l-4.8-2.3c-0.5-0.3-0.9-0.7-1-1.3c-0.1-0.2-0.1-0.4-0.1-0.7c0-0.3,0.1-0.7,0.3-1
			c1.6-2.9,2.9-6.2,3.9-9.7c0.1-0.6,0.5-1.1,1-1.3c0.6-0.3,1.1-0.3,1.7-0.1l4.4,1.7c0.6,0.2,1.1,0.6,1.4,1.2
			c0.3,0.6,0.3,1.2,0.1,1.9C20.6,64.3,19.4,67.8,18.1,70.6z M71.6,65c0.2,0.3,0.3,0.7,0.3,1.1c0,0.2,0,0.4-0.1,0.7
			c-0.2,0.6-0.5,1-1.1,1.3l-5,2.6c-0.6,0.3-1.2,0.4-1.8,0.2c-0.6-0.2-1-0.6-1.3-1.1c-0.9-1.7-2.1-3.7-3.5-6.2c0,0-0.1-0.1-0.1,0
			c0,0-0.1,0.1-0.1,0.1c-0.6,4.6-1.7,7.7-3.4,9.3c-1.6,1.6-4.4,2.4-8.3,2.4H36.1c-3.4,0-6.1-0.3-7.9-1c-1.8-0.7-3.1-1.8-3.8-3.3
			c-0.7-1.5-1.1-3.6-1.1-6.4v-6.1c0-0.6,0.2-1.1,0.7-1.6c0.5-0.5,1-0.7,1.6-0.7h5c0.7,0,1.2,0.2,1.6,0.7c0.4,0.5,0.7,1,0.7,1.6v6
			c0,1,0.2,1.6,0.7,1.9c0.5,0.3,1.6,0.4,3.5,0.4h9.3c1.4,0,2.3-0.3,2.7-1c0.5-0.7,0.8-2.1,1-4.4c0-0.5,0.3-0.8,0.8-1.1
			c0.5-0.2,0.9-0.3,1.4,0c1.7,0.8,3.6,1.5,5.7,2c0,0,0.1,0,0.1-0.1c0,0,0-0.1,0-0.1l-1.4-2.3c-0.4-0.5-0.4-1.1-0.2-1.7
			c0.2-0.6,0.6-1,1.1-1.3l4.3-2c0.4-0.2,0.8-0.3,1.2-0.3c0.2,0,0.5,0,0.7,0.1c0.7,0.2,1.2,0.5,1.5,1C68.5,60.2,70.6,63.3,71.6,65z
			 M35.2,57.6c-0.4-0.4-0.6-1-0.6-1.6c0-0.6,0.3-1.1,0.8-1.5l4.5-3.7c0.2-0.2,0.4-0.2,0.7,0v-0.1V18.4c0-0.7,0.2-1.2,0.7-1.6
			c0.5-0.4,1-0.7,1.7-0.7h23.4c0.6,0,1.1,0.2,1.6,0.7c0.5,0.4,0.7,1,0.7,1.6v32.3c0,0.7-0.2,1.2-0.7,1.7c-0.5,0.5-1,0.7-1.6,0.7
			H43.4c-0.1,0-0.1,0-0.1,0.1c0,0,0,0.1,0,0.1c1.9,1.7,3.4,3,4.5,4.1c0.4,0.4,0.6,1,0.6,1.6c0,0.7-0.3,1.2-0.8,1.6l-3.5,3
			c-0.5,0.4-1,0.6-1.7,0.5c-0.6,0-1.2-0.3-1.6-0.8C39.4,61.8,37.6,59.9,35.2,57.6z M49.6,23.7c-0.2,0-0.3,0.1-0.3,0.3v2
			c0,0.2,0.1,0.3,0.3,0.3h9.3c0.2,0,0.3-0.1,0.3-0.3v-2c0-0.2-0.1-0.3-0.3-0.3H49.6z M49.6,33.3c-0.2,0-0.3,0.1-0.3,0.3v2
			c0,0.2,0.1,0.3,0.3,0.3h9.3c0.2,0,0.3-0.1,0.3-0.3v-2c0-0.2-0.1-0.3-0.3-0.3H49.6z M49.6,42.8c-0.2,0-0.3,0.1-0.3,0.3v2.1
			c0,0.2,0.1,0.3,0.3,0.3h9.3c0.2,0,0.3-0.1,0.3-0.3v-2.1c0-0.2-0.1-0.3-0.3-0.3H49.6z"/>
		<path d="M107.6,46c0,0.6-0.2,1.1-0.7,1.6s-1,0.7-1.6,0.7H97c-0.2,0-0.3,0.1-0.3,0.3c-0.1,0.5-0.2,0.9-0.2,1.1c0,0.2,0,0.4,0.1,0.5
			c2.8,2.9,6.4,6.8,10.6,11.8c0.4,0.5,0.7,1.1,0.7,1.7c0,0.7-0.2,1.3-0.7,1.8l-3.7,4.6c-0.3,0.4-0.8,0.6-1.4,0.6
			c-0.6,0-1-0.3-1.3-0.8c-2-3.1-4.3-6.3-6.9-9.8c0,0-0.1-0.1-0.2-0.1c-0.1,0-0.1,0-0.1,0.1c-2.3,5.9-5.7,10.8-10.1,14.5
			c-0.4,0.3-0.9,0.5-1.4,0.5c-0.1,0-0.2,0-0.3-0.1c-0.6-0.1-1.1-0.4-1.5-0.9c-1.2-1.4-2.4-2.7-3.8-4c-0.4-0.4-0.7-0.9-0.7-1.5
			c0-0.6,0.2-1.1,0.7-1.4c5.5-4.7,8.9-11,10.2-18.9c0-0.2,0-0.3-0.3-0.3h-8.3c-0.6,0-1.1-0.2-1.6-0.7c-0.5-0.5-0.7-1-0.7-1.6v-4.6
			c0-0.6,0.2-1.1,0.7-1.6c0.5-0.5,1-0.7,1.6-0.7h9c0.2,0,0.3-0.1,0.3-0.3v-1v-7.5c0-0.2-0.1-0.3-0.3-0.3h-0.7
			c-0.2,0-0.3,0.1-0.4,0.3c-0.9,2.1-1.9,4.1-2.8,5.8C83,36.6,82.6,36.9,82,37c-0.6,0.1-1.2,0-1.6-0.4c-1.3-1-2.6-1.9-4.1-2.9
			c-0.5-0.3-0.9-0.9-1-1.5c0-0.2-0.1-0.3-0.1-0.5c0-0.4,0.1-0.8,0.4-1.2c2.3-3.9,4.1-9.1,5.3-15.4c0.1-0.6,0.5-1.1,1-1.4
			c0.4-0.3,0.8-0.4,1.2-0.4c0.2,0,0.3,0,0.5,0.1l4.7,0.9c0.7,0.1,1.2,0.5,1.5,1c0.3,0.5,0.5,1.1,0.3,1.7c-0.3,1.4-0.6,2.6-0.9,3.7
			c0,0.2,0,0.3,0.2,0.3h14.3c0.7,0,1.2,0.2,1.7,0.7c0.5,0.5,0.7,1,0.7,1.7v4.3c0,0.7-0.2,1.2-0.7,1.7c-0.5,0.5-1,0.7-1.7,0.7h-6.1
			c-0.2,0-0.3,0.1-0.3,0.3v7.6v0.9c0,0.2,0.1,0.3,0.3,0.3h7.6c0.6,0,1.1,0.2,1.6,0.7s0.7,1,0.7,1.6V46z M109.1,20.9
			c0-0.7,0.2-1.2,0.7-1.6c0.4-0.4,1-0.7,1.6-0.7h22c0.6,0,1.1,0.2,1.6,0.7c0.5,0.4,0.7,1,0.7,1.6v50.3c0,0.6-0.2,1.1-0.7,1.6
			c-0.5,0.5-1,0.7-1.6,0.7h-5.3c-0.7,0-1.2-0.2-1.6-0.7c-0.4-0.5-0.7-1-0.7-1.6v-1c0-0.2-0.1-0.3-0.3-0.3h-6.6
			c-0.2,0-0.3,0.1-0.3,0.3v2c0,0.7-0.2,1.2-0.7,1.7s-1,0.7-1.6,0.7h-4.8c-0.7,0-1.2-0.2-1.6-0.7c-0.4-0.5-0.7-1-0.7-1.7V20.9z
			 M118.6,60.5c0,0.2,0.1,0.3,0.3,0.3h6.6c0.2,0,0.3-0.1,0.3-0.3V28c0-0.2-0.1-0.3-0.3-0.3h-6.6c-0.2,0-0.3,0.1-0.3,0.3V60.5z"/>
		<path d="M157.5,38.8c0.7,0,1.2,0.2,1.7,0.7c0.5,0.5,0.7,1,0.7,1.6v18.5c0,0.2,0,0.3,0.1,0.5c1.2,1.9,2.9,3.3,5.1,4.3
			c2.2,0.9,5,1.4,8.3,1.6c2.3,0.1,5.1,0.2,8.4,0.2c1.9,0,4,0,6.2-0.1c6.2-0.1,11.5-0.3,16.2-0.7c0.5,0,0.9,0.2,1.2,0.6
			c0.2,0.3,0.3,0.5,0.3,0.9c0,0.2,0,0.3-0.1,0.5c-0.7,1.9-1.3,3.7-1.7,5.5c-0.2,0.7-0.5,1.2-1,1.7c-0.5,0.5-1.1,0.7-1.8,0.8
			c-5.5,0.2-10.7,0.3-15.6,0.3c-4.3,0-8.4-0.1-12.2-0.3c-4.1-0.2-7.5-0.8-10.2-1.8c-2.7-1-5.2-2.7-7.3-5.1c-0.1-0.2-0.3-0.2-0.4-0.1
			c-2.6,2.3-5,4.3-7.1,6.1c-0.5,0.3-1,0.5-1.6,0.3c-0.6-0.1-1-0.5-1.2-1l-2.7-6c-0.1-0.3-0.2-0.7-0.2-1c0-0.3,0-0.5,0.1-0.8
			c0.2-0.7,0.5-1.1,1.1-1.4c2.4-1.4,4.5-2.8,6.4-4.1c0.1-0.1,0.2-0.3,0.2-0.5V48c0-0.2-0.1-0.3-0.3-0.3h-4.3c-0.6,0-1.1-0.2-1.6-0.7
			c-0.5-0.5-0.7-1-0.7-1.7v-4.3c0-0.6,0.2-1.1,0.7-1.6c0.5-0.5,1-0.7,1.6-0.7H157.5z M159.9,22.5c0.4,0.5,0.6,1,0.6,1.7
			c-0.1,0.7-0.4,1.2-0.9,1.6l-4.2,3.5c-0.5,0.4-1,0.5-1.6,0.5c-0.6-0.1-1.1-0.4-1.5-0.9c-1.8-2.2-4.3-4.6-7.3-7.2
			c-0.4-0.4-0.7-0.9-0.7-1.5c0-0.6,0.2-1.1,0.7-1.4l3.6-2.9c0.5-0.4,1.1-0.7,1.8-0.7h0.1c0.7,0,1.2,0.2,1.8,0.6
			C155.4,18.2,158,20.5,159.9,22.5z M166.5,32.1c0-0.7,0.2-1.2,0.7-1.6c0.5-0.4,1-0.7,1.7-0.7h7.3c0.2,0,0.3-0.1,0.4-0.3
			c0.1-0.5,0.2-1.2,0.3-2c0-0.2,0-0.3-0.2-0.3H164c-0.7,0-1.2-0.2-1.6-0.7c-0.4-0.5-0.7-1-0.7-1.7v-3.1c0-0.6,0.2-1.1,0.7-1.6
			c0.4-0.5,1-0.7,1.6-0.7h5.6c0.2,0,0.2-0.1,0.1-0.3c-0.3-0.6-0.6-1.2-0.9-1.6c-0.3-0.5-0.4-1-0.2-1.6c0.2-0.6,0.5-1,1.1-1.2
			l3.3-1.2c0.7-0.3,1.3-0.3,2-0.1c0.7,0.2,1.2,0.6,1.6,1.1c1.3,1.7,2.2,3.3,2.7,4.6c0,0.1,0,0.2-0.1,0.3h6.4c0.2,0,0.3-0.1,0.4-0.3
			c0.8-1.6,1.5-3,2-4.3c0.3-0.6,0.7-1.1,1.2-1.4c0.4-0.2,0.8-0.3,1.3-0.3c0.2,0,0.3,0,0.5,0.1l5.2,1c0.6,0.1,1,0.4,1.2,0.9
			c0.2,0.5,0.2,1-0.1,1.5c-0.5,0.8-1.1,1.6-1.6,2.5c-0.1,0.2,0,0.3,0.1,0.3h6.7c0.7,0,1.2,0.2,1.7,0.7c0.5,0.5,0.7,1,0.7,1.6v3.1
			c0,0.7-0.2,1.2-0.7,1.7c-0.5,0.5-1,0.7-1.7,0.7h-14.9c-0.2,0-0.3,0.1-0.4,0.3c-0.1,0.1-0.3,0.4-0.5,0.9c-0.2,0.5-0.4,0.9-0.6,1.1
			c-0.1,0.2,0,0.3,0.2,0.3h11.5c0.6,0,1.1,0.2,1.6,0.7c0.5,0.4,0.7,1,0.7,1.6v28.7c0,0.7-0.2,1.2-0.7,1.6c-0.5,0.4-1,0.7-1.6,0.7
			h-28.9c-0.7,0-1.2-0.2-1.7-0.7c-0.5-0.4-0.7-1-0.7-1.6V32.1z M190.2,39c0.2,0,0.3-0.1,0.3-0.3V37c0-0.2-0.1-0.3-0.3-0.3H176
			c-0.2,0-0.3,0.1-0.3,0.3v1.6c0,0.2,0.1,0.3,0.3,0.3H190.2z M190.2,47.5c0.2,0,0.3-0.1,0.3-0.3v-1.6c0-0.2-0.1-0.3-0.3-0.3H176
			c-0.2,0-0.3,0.1-0.3,0.3v1.6c0,0.2,0.1,0.3,0.3,0.3H190.2z M190.2,56.2c0.2,0,0.3-0.1,0.3-0.3v-1.7c0-0.2-0.1-0.3-0.3-0.3H176
			c-0.2,0-0.3,0.1-0.3,0.3v1.7c0,0.2,0.1,0.3,0.3,0.3H190.2z"/>
		<path d="M244.4,19.5c-0.1,0.2,0,0.3,0.2,0.3h19.8c0.6,0,1.1,0.2,1.6,0.7c0.5,0.5,0.7,1,0.7,1.6v50.4c0,0.7-0.2,1.2-0.7,1.7
			c-0.5,0.5-1,0.7-1.6,0.7h-5.8c-0.7,0-1.2-0.2-1.7-0.7c-0.5-0.5-0.7-1-0.7-1.7V72c0-0.2-0.1-0.3-0.3-0.3h-29.2
			c-0.2,0-0.3,0.1-0.3,0.3v0.5c0,0.7-0.2,1.2-0.7,1.7c-0.5,0.5-1,0.7-1.6,0.7H219c-0.7,0-1.2-0.2-1.7-0.7c-0.5-0.5-0.7-1-0.7-1.7
			V22.1c0-0.6,0.2-1.1,0.7-1.6c0.5-0.5,1-0.7,1.7-0.7h14.7c0.2,0,0.3-0.1,0.3-0.3c0.5-2.3,0.9-4.3,1.1-6c0.1-0.6,0.4-1.1,0.9-1.6
			c0.4-0.3,0.9-0.5,1.4-0.5c0.1,0,0.2,0,0.3,0.1l7.3,0.7c0.6,0.1,1,0.4,1.3,0.9c0.3,0.5,0.3,1,0.1,1.5
			C245.9,15.8,245.3,17.5,244.4,19.5z M256.3,29.4c0-0.2-0.1-0.3-0.3-0.3h-29.2c-0.2,0-0.3,0.1-0.3,0.3V34c0,0.2,0.1,0.3,0.3,0.3
			H256c0.2,0,0.3-0.1,0.3-0.3V29.4z M256.3,43.6c0-0.2-0.1-0.3-0.3-0.3h-29.2c-0.2,0-0.3,0.1-0.3,0.3v4.6c0,0.2,0.1,0.3,0.3,0.3H256
			c0.2,0,0.3-0.1,0.3-0.3V43.6z M226.5,62.4c0,0.2,0.1,0.3,0.3,0.3H256c0.2,0,0.3-0.1,0.3-0.3v-4.7c0-0.2-0.1-0.3-0.3-0.3h-29.2
			c-0.2,0-0.3,0.1-0.3,0.3V62.4z"/>
		<path d="M302.6,64.1h19.1c3.2,0,5.3-0.6,6.2-1.9c0.7-1,1.4-3.3,1.8-6.8c0.1-0.5,0.4-0.9,0.9-1.1c0.5-0.2,1-0.3,1.4,0
			c1.8,0.9,3.6,1.6,5.5,2.2c0.7,0.2,1.2,0.5,1.6,1c0.3,0.4,0.5,0.9,0.5,1.4c0,0.1,0,0.3-0.1,0.4c-0.9,5.5-2.3,9.3-4.4,11.3
			c-2.4,2.3-6.7,3.4-13.1,3.4h-19.7c-6.9,0-11.7-0.9-14.2-2.8c-2.6-1.9-3.8-5.5-3.8-10.9V38.7c0-0.6,0.2-1.1,0.7-1.6
			c0.5-0.5,1-0.7,1.6-0.7h34.8c0.2,0,0.3-0.1,0.3-0.3V25.4c0-0.2-0.1-0.3-0.3-0.3h-35.6c-0.6,0-1.1-0.2-1.6-0.7
			c-0.5-0.5-0.7-1-0.7-1.7v-5.4c0-0.6,0.2-1.1,0.7-1.6c0.5-0.5,1-0.7,1.6-0.7h43.9c0.7,0,1.2,0.2,1.7,0.7c0.5,0.5,0.7,1,0.7,1.6v30
			c0,0.6-0.2,1.1-0.7,1.6c-0.5,0.5-1,0.7-1.7,0.7H324c-0.7,0-1.2-0.2-1.7-0.7c-0.5-0.5-0.7-1-0.7-1.6v-1c0-0.2-0.1-0.3-0.3-0.3
			h-26.7c-0.2,0-0.3,0.1-0.3,0.3v13.7c0,1.8,0.5,2.9,1.4,3.4C296.7,63.9,299,64.1,302.6,64.1z"/>
		<path d="M387.5,22.8c-0.1,0.2,0,0.3,0.2,0.3h15.6c0.7,0,1.2,0.2,1.7,0.7c0.5,0.5,0.7,1,0.7,1.6c0,0.7,0,1.4-0.1,2
			c-0.4,15.7-0.9,26.6-1.5,32.6c-0.5,6-1.5,10-2.8,11.7c-1,1.4-2,2.3-3,2.9c-1.1,0.6-2.4,1-4,1.3c-1.4,0.3-3.4,0.4-6.1,0.4
			c-0.8,0-1.6,0-2.5-0.1c-0.6,0-1.2-0.2-1.7-0.7c-0.5-0.5-0.8-1-0.9-1.7c-0.4-1.7-1-3.4-1.8-5.1c-0.2-0.4-0.2-0.9,0.1-1.3
			c0.3-0.4,0.6-0.6,1.1-0.6c2.3,0.1,4.9,0.2,7.8,0.2c1.2,0,2.2-0.4,2.9-1.2c1-1,1.7-4.1,2.2-9.3c0.5-5.1,0.9-13.3,1.1-24.5
			c0-0.2,0-0.3-0.3-0.3H384c-0.2,0-0.4,0.1-0.5,0.3c-1.4,2.9-2.8,5.5-4.3,7.8c-0.3,0.5-0.8,0.8-1.4,0.9c-0.6,0.1-1.2-0.1-1.6-0.5
			c-1.2-0.9-2.3-1.7-3.5-2.5c-0.2-0.1-0.3-0.1-0.3,0.1v29.3c0,0.7-0.2,1.2-0.7,1.7c-0.5,0.5-1,0.7-1.6,0.7h-15
			c-0.2,0-0.3,0.1-0.3,0.3v2.2c0,0.7-0.2,1.2-0.7,1.7c-0.5,0.5-1,0.7-1.7,0.7h-4.1c-0.7,0-1.2-0.2-1.6-0.7c-0.4-0.5-0.7-1-0.7-1.7
			v-46c0-0.7,0.2-1.2,0.7-1.7c0.4-0.5,1-0.7,1.6-0.7h5c0.2,0,0.3-0.1,0.3-0.3c0.6-2.8,1-5.6,1.2-8.3c0-0.7,0.3-1.2,0.9-1.6
			c0.4-0.3,0.8-0.5,1.3-0.5c0.1,0,0.2,0,0.3,0l6,0.9c0.6,0.1,1.1,0.4,1.4,0.9c0.3,0.5,0.4,1.1,0.2,1.6c-1.1,3.1-1.9,5.5-2.5,6.9
			c-0.1,0.2,0,0.3,0.2,0.3h7.3c0.6,0,1.1,0.2,1.6,0.7c0.5,0.5,0.7,1,0.7,1.7v6.3c0,0,0,0.1,0.1,0.1c0,0,0.1,0,0.1,0
			c3-4.9,5.4-10.6,7.3-17.1c0.2-0.6,0.5-1.1,1.1-1.4c0.5-0.3,1.1-0.4,1.7-0.3l4.9,1.1c0.6,0.2,1.1,0.5,1.4,1.1
			c0.3,0.5,0.4,1.1,0.2,1.7C388.7,19.1,388.1,20.9,387.5,22.8z M363.4,41.3c0.2,0,0.3-0.1,0.3-0.3v-8.4c0-0.2-0.1-0.3-0.3-0.3h-8.2
			c-0.2,0-0.3,0.1-0.3,0.3v8.4c0,0.2,0.1,0.3,0.3,0.3H363.4z M355,60.8c0,0.2,0.1,0.3,0.3,0.3h8.2c0.2,0,0.3-0.1,0.3-0.3V49.9
			c0-0.2-0.1-0.3-0.3-0.3h-8.2c-0.2,0-0.3,0.1-0.3,0.3V60.8z M393,52.1c0.2,0.4,0.3,0.8,0.3,1.2c0,0.2,0,0.4-0.1,0.7
			c-0.2,0.6-0.5,1.1-1.1,1.4l-4.3,2.6c-0.3,0.2-0.7,0.3-1,0.3c-0.2,0-0.4,0-0.6-0.1c-0.6-0.2-1-0.5-1.3-1.1
			c-1.3-2.5-3.5-6.4-6.6-11.5c-0.2-0.4-0.3-0.8-0.3-1.2c0-0.2,0-0.4,0.1-0.6c0.2-0.6,0.5-1.1,1.1-1.4l3.5-2c0.4-0.2,0.8-0.3,1.2-0.3
			c0.2,0,0.4,0,0.6,0.1c0.7,0.2,1.2,0.5,1.5,1C389.5,46.3,391.8,50,393,52.1z"/>
		<path d="M461.3,30.4c0,0.2,0.1,0.3,0.3,0.3h8.3c0.7,0,1.2,0.2,1.7,0.7c0.5,0.5,0.7,1,0.7,1.6v2.2c0,0.7-0.2,1.2-0.7,1.6
			c-0.5,0.4-1,0.7-1.7,0.7h-9c-0.2,0-0.3,0.1-0.3,0.3l-0.2,2.4c-0.1,0.7-0.4,1.2-0.9,1.6c-0.5,0.4-1,0.7-1.7,0.7h-34.1
			c-0.6,0-1.1-0.2-1.5-0.7c-0.4-0.5-0.6-1-0.5-1.6l0.3-2.4c0-0.2,0-0.3-0.3-0.3h-6.9c-0.7,0-1.2-0.2-1.7-0.7c-0.5-0.4-0.7-1-0.7-1.6
			V33c0-0.6,0.2-1.1,0.7-1.6c0.5-0.5,1-0.7,1.7-0.7h7.9c0.2,0,0.3-0.1,0.3-0.3l0.3-2.6c0.1-0.7,0.4-1.2,0.9-1.6
			c0.5-0.4,1.1-0.7,1.7-0.7h33.6c0.6,0,1.1,0.2,1.5,0.7c0.4,0.5,0.6,1,0.5,1.6L461.3,30.4z M465.2,64.7c0,0.7-0.2,1.2-0.7,1.7
			c-0.5,0.5-1,0.7-1.6,0.7h-4.3v0.1c3.9,1.1,7.6,2.2,11,3.3c0.4,0.2,0.7,0.5,0.8,0.9s-0.1,0.8-0.5,1l-4.5,2.8
			c-0.8,0.5-1.6,0.7-2.4,0.7c-0.6,0-1.1-0.1-1.7-0.3c-4.7-1.8-9.7-3.4-14.9-5c-0.5-0.1-0.8-0.4-0.9-0.9c-0.1-0.5,0-0.9,0.4-1.2
			l1.6-1.3c0,0,0-0.1,0-0.1c0,0,0-0.1-0.1-0.1h-10.7c0,0-0.1,0-0.1,0.1c0,0,0,0.1,0.1,0.1l1.8,1.4c0.4,0.3,0.6,0.7,0.6,1.2
			c0,0.5-0.3,0.9-0.8,1.1c-5.1,2.3-11.3,4.1-18.5,5.2c-0.2,0-0.5,0.1-0.7,0.1c-1.1,0-2.1-0.5-3-1.5c-0.9-1-1.8-2-2.7-2.9
			c-0.3-0.3-0.4-0.7-0.3-1.1c0.1-0.4,0.4-0.7,0.9-0.8c4.2-0.6,8.4-1.5,12.6-2.7c0,0,0.1,0,0.1,0c0,0,0,0-0.1,0h-4.6
			c-0.6,0-1.1-0.2-1.6-0.7c-0.5-0.5-0.7-1-0.7-1.7V46.2c0-0.7,0.2-1.2,0.7-1.6c0.5-0.4,1-0.7,1.6-0.7h40.8c0.6,0,1.1,0.2,1.6,0.7
			c0.5,0.4,0.7,1,0.7,1.6V64.7z M422.3,23.9c-0.2,0-0.3,0.1-0.3,0.3v2.4c0,0.6-0.2,1.1-0.7,1.6c-0.5,0.5-1,0.7-1.7,0.7h-4.1
			c-0.7,0-1.2-0.2-1.6-0.7c-0.4-0.5-0.7-1-0.7-1.6v-7.8c0-0.6,0.2-1.1,0.7-1.6c0.4-0.5,1-0.7,1.6-0.7h21.5c0.2,0,0.3-0.1,0.3-0.3
			v-1.1c0-0.7,0.2-1.2,0.7-1.7s1-0.7,1.7-0.7h5.1c0.7,0,1.2,0.2,1.7,0.7c0.5,0.5,0.7,1,0.7,1.7v1.1c0,0.2,0.1,0.3,0.3,0.3H469
			c0.7,0,1.2,0.2,1.6,0.7c0.4,0.5,0.7,1,0.7,1.6v7.8c0,0.6-0.2,1.1-0.7,1.6c-0.4,0.5-1,0.7-1.6,0.7h-4.5c-0.7,0-1.2-0.2-1.7-0.7
			c-0.5-0.5-0.7-1-0.7-1.6v-2.4c0-0.2-0.1-0.3-0.3-0.3H422.3z M429.5,48.8c-0.2,0-0.3,0.1-0.3,0.3v0.7c0,0.2,0.1,0.3,0.3,0.3H455
			c0.2,0,0.3-0.1,0.3-0.3v-0.7c0-0.2-0.1-0.3-0.3-0.3H429.5z M429.5,54.7c-0.2,0-0.3,0.1-0.3,0.3v0.8c0,0.2,0.1,0.3,0.3,0.3H455
			c0.2,0,0.3-0.1,0.3-0.3V55c0-0.2-0.1-0.3-0.3-0.3H429.5z M429.5,60.8c-0.2,0-0.3,0.1-0.3,0.3v0.9c0,0.2,0.1,0.3,0.3,0.3H455
			c0.2,0,0.3-0.1,0.3-0.3V61c0-0.2-0.1-0.3-0.3-0.3H429.5z M431,36.6c-0.2,0-0.3,0.1-0.3,0.3l-0.1,0.8c0,0.2,0.1,0.3,0.3,0.3h5.8
			c0.2,0,0.3-0.1,0.3-0.3l0.1-0.8c0-0.2,0-0.3-0.2-0.3H431z M437.9,30.5c0-0.2-0.1-0.3-0.3-0.3h-5.7c-0.2,0-0.3,0.1-0.3,0.3
			l-0.1,0.9c0,0.2,0,0.3,0.3,0.3h5.8c0.2,0,0.3-0.1,0.3-0.3L437.9,30.5z M445,37.6c0,0.2,0,0.3,0.2,0.3h6.3c0.2,0,0.3-0.1,0.3-0.3
			l0.1-0.8c0-0.2-0.1-0.3-0.3-0.3h-6.2c-0.2,0-0.3,0.1-0.4,0.3L445,37.6z M452.1,31.6c0.2,0,0.3-0.1,0.3-0.3l0.1-0.9
			c0-0.2,0-0.3-0.3-0.3h-6c-0.2,0-0.3,0.1-0.3,0.3l-0.1,0.9c0,0.2,0,0.3,0.3,0.3H452.1z"/>
		<path d="M510.8,24.6c0,0.2,0.1,0.3,0.3,0.3h24.2c0.6,0,1.1,0.2,1.6,0.7c0.4,0.4,0.7,1,0.7,1.6c0,0.7,0,1.4-0.1,2.3
			c-0.6,13.3-1.3,22.9-2.1,28.7c-0.8,5.8-2,9.7-3.4,11.5c-1,1.4-2.1,2.3-3.3,2.9c-1.2,0.6-2.6,1-4.2,1.3c-1.5,0.3-3.7,0.4-6.5,0.4
			c-0.6,0-1.2,0-1.9,0c-0.6,0-1.2-0.2-1.7-0.7c-0.5-0.5-0.8-1-0.9-1.7c-0.2-0.9-0.4-1.8-0.8-2.9c-0.3-1-0.8-2-1.2-2.9
			c-0.2-0.4-0.1-0.9,0.1-1.3c0.2-0.4,0.6-0.6,1.1-0.6c2.5,0.1,5,0.2,7.5,0.2c1.2,0,2.2-0.4,3.1-1.2c1.9-1.9,3.3-11.2,4.1-28.1
			c0-0.2-0.1-0.3-0.3-0.3h-16.1c-0.2,0-0.3,0.1-0.3,0.3c-1.4,17.9-8.9,30.9-22.3,39c-0.4,0.3-0.9,0.4-1.3,0.4c-0.2,0-0.3,0-0.5-0.1
			c-0.7-0.1-1.2-0.5-1.6-1c-0.6-0.7-1.3-1.5-2.2-2.4c-0.8-0.9-1.5-1.6-2.3-2.3c-0.4-0.3-0.6-0.7-0.6-1.2c0-0.6,0.3-1.1,0.8-1.4
			c11.5-6.5,18.1-16.9,19.6-31.2c0-0.2-0.1-0.3-0.3-0.3h-16.8c-0.7,0-1.2-0.2-1.7-0.7c-0.5-0.5-0.7-1-0.7-1.7v-5.4
			c0-0.6,0.2-1.1,0.7-1.6c0.5-0.5,1-0.7,1.6-0.7h17.3c0.2,0,0.3-0.1,0.3-0.3V13.8c0-0.7,0.2-1.2,0.7-1.7s1-0.7,1.7-0.7h5.8
			c0.6,0,1.1,0.2,1.6,0.7c0.5,0.5,0.7,1,0.7,1.7V24.6z"/>
		<path d="M567.2,63c0,0.2,0.1,0.3,0.3,0.3l9.7-1c0.6-0.1,1.2,0.1,1.6,0.5c0.5,0.4,0.7,0.9,0.7,1.6l0.1,4.4c0,0.7-0.2,1.2-0.6,1.7
			c-0.4,0.5-1,0.8-1.6,0.9c-5.1,0.7-14.8,1.9-29.1,3.7c-0.6,0-1.2-0.1-1.7-0.5c-0.5-0.4-0.8-0.9-0.9-1.5l-0.8-5.2c0-0.1,0-0.2,0-0.3
			c0-0.5,0.2-0.9,0.5-1.3c0.4-0.5,0.9-0.7,1.5-0.8c0.8-0.1,4.3-0.4,10.3-1c0.2,0,0.3-0.1,0.3-0.3v-6.2c0-0.2-0.1-0.3-0.3-0.3h-7.6
			c-0.7,0-1.2-0.2-1.6-0.7c-0.4-0.4-0.7-1-0.7-1.6v-4c0-0.7,0.2-1.2,0.7-1.7c0.4-0.5,1-0.7,1.6-0.7h7.6c0.2,0,0.3-0.1,0.3-0.3v-3.1
			c0-0.7,0.2-1.2,0.7-1.7c0.5-0.5,1-0.7,1.7-0.7h5c0.7,0,1.2,0.2,1.7,0.7c0.5,0.5,0.7,1,0.7,1.7v3.1c0,0.2,0.1,0.3,0.3,0.3h7.4
			c0.6,0,1.1,0.2,1.6,0.7c0.5,0.5,0.7,1,0.7,1.7v4c0,0.7-0.2,1.2-0.7,1.6c-0.5,0.4-1,0.7-1.6,0.7h-7.4c-0.2,0-0.3,0.1-0.3,0.3V63z
			 M590.9,57.1c0,0.6-0.2,1.1-0.7,1.6c-0.5,0.5-1,0.7-1.6,0.7h-4.7c-0.6,0-1.1-0.2-1.6-0.7c-0.5-0.5-0.7-1-0.7-1.6V40.7
			c0-0.2-0.1-0.3-0.3-0.1l-5.4,2.9c-0.5,0.3-1.1,0.3-1.6,0.1c-0.6-0.2-1-0.6-1.2-1.1c-0.1-0.3-0.2-0.5-0.3-0.7
			c0-0.2-0.2-0.3-0.4-0.3c-5.7,0.3-13.9,0.7-24.5,1c-0.6,0-1.2-0.2-1.6-0.6c-0.5-0.4-0.7-0.9-0.8-1.6l-0.3-4.4
			c0-0.6,0.2-1.1,0.6-1.6c0.4-0.5,1-0.7,1.6-0.7l2.9-0.1c0.2,0,0.3-0.1,0.4-0.3c0.9-2.6,1.6-5.1,2.2-7.6c0-0.2,0-0.3-0.3-0.3h-5.1
			c-0.6,0-1.1-0.2-1.6-0.7c-0.5-0.5-0.7-1-0.7-1.6v-4c0-0.6,0.2-1.1,0.7-1.6c0.5-0.5,1-0.7,1.6-0.7h29.5c0.6,0,1.1,0.2,1.6,0.7
			c0.5,0.5,0.7,1,0.7,1.6v4c0,0.6-0.2,1.1-0.7,1.6c-0.5,0.5-1,0.7-1.6,0.7h-4.3c-0.2,0-0.2,0.1-0.1,0.3c4.3,5.5,7.2,10.1,8.8,14.1
			c0,0,0.1,0,0.1,0V23.4c0-0.7,0.2-1.2,0.7-1.7c0.5-0.5,1-0.7,1.6-0.7h4.7c0.6,0,1.1,0.2,1.6,0.7c0.5,0.5,0.7,1,0.7,1.7V57.1z
			 M560.5,33.3c-0.1,0.2,0,0.3,0.2,0.3l7.1-0.1c0.2,0,0.2-0.1,0.1-0.3c-0.5-0.7-0.9-1.4-1.4-2c-0.3-0.5-0.4-1-0.3-1.6
			c0.1-0.6,0.5-1,1-1.3l4.8-2.5c0-0.1,0-0.1-0.1-0.1h-8c-0.2,0-0.3,0.1-0.4,0.3C562.5,28.7,561.5,31.1,560.5,33.3z M596.5,17
			c0-0.7,0.2-1.2,0.7-1.7c0.5-0.5,1-0.7,1.7-0.7h4.8c0.7,0,1.2,0.2,1.7,0.7c0.5,0.5,0.7,1,0.7,1.7v48.2c0,2.7-0.3,4.7-0.9,6.1
			c-0.6,1.4-1.6,2.5-3,3.3c-2.2,1.1-5.8,1.7-11,1.8h-0.1c-0.6,0-1.2-0.2-1.7-0.7c-0.5-0.4-0.8-0.9-1-1.6c-0.4-1.7-1-3.6-1.7-5.4
			c-0.1-0.2-0.1-0.4-0.1-0.6c0-0.3,0.1-0.5,0.3-0.8c0.3-0.4,0.7-0.7,1.2-0.7c2,0.1,4.2,0.1,6.8,0.1c0.6,0,1-0.2,1.3-0.4
			c0.2-0.2,0.4-0.6,0.4-1.2V17z"/>
		<path d="M630.9,57.6c0,0.7-0.2,1.2-0.7,1.6c-0.5,0.4-1,0.7-1.7,0.7h-7.5c-0.2,0-0.3,0.1-0.3,0.3v2.9c0,0.7-0.2,1.2-0.7,1.6
			c-0.5,0.4-1,0.7-1.7,0.7h-2.7c-0.7,0-1.2-0.2-1.7-0.7c-0.5-0.4-0.7-1-0.7-1.6v-44c0-0.6,0.2-1.1,0.7-1.6c0.5-0.5,1-0.7,1.7-0.7
			h12.8c0.7,0,1.2,0.2,1.7,0.7c0.5,0.5,0.7,1,0.7,1.6V57.6z M623.4,25.8c0-0.2-0.1-0.3-0.3-0.3h-2c-0.2,0-0.3,0.1-0.3,0.3v25.3
			c0,0.2,0.1,0.3,0.3,0.3h2c0.2,0,0.3-0.1,0.3-0.3V25.8z M653,39.4c-0.1,0-0.2,0.1-0.2,0.2l-0.1,7.2c0,0.1,0.1,0.2,0.2,0.2
			c0.4,0,0.8,0.2,1.1,0.5c0.3,0.3,0.5,0.7,0.5,1v4.9c0,0.5-0.2,0.9-0.5,1.2c-0.3,0.3-0.7,0.5-1.1,0.5c-0.2,0-0.3,0.1-0.3,0.2
			c-0.3,9.7-0.8,15.3-1.6,16.8c-0.7,1.2-1.3,2-1.9,2.6c-0.6,0.5-1.5,0.9-2.5,1.2c-1,0.3-2.2,0.5-3.7,0.5c-0.6,0-1.2-0.2-1.7-0.7
			c-0.5-0.5-0.8-1-0.9-1.7c-0.3-1.4-0.6-2.7-1-4c-0.2-0.5-0.1-0.9,0.2-1.4c0.3-0.4,0.7-0.7,1.2-0.7c0.3,0,0.7,0,1.3,0h0.1
			c0.7,0,1.3-0.5,1.7-1.4c0.5-1.1,0.9-4.9,1-11.2c0-0.2,0-0.3-0.3-0.3h-2.3c-0.2,0-0.3,0.1-0.3,0.3c-1.5,8.2-4.1,14.7-7.9,19.6
			c-0.4,0.5-0.9,0.7-1.5,0.7c-0.6,0-1.1-0.3-1.5-0.8c-0.7-0.8-1.5-1.6-2.4-2.4c-0.5-0.5-0.8-1.2-0.8-1.9c0-0.5,0.2-1,0.5-1.5
			c2.7-3.7,4.6-8.3,5.8-13.7c0-0.1,0-0.2-0.2-0.2c-0.5,0-1-0.2-1.4-0.6c-0.4-0.4-0.6-0.9-0.6-1.4v-3.9c0-0.7,0.2-1.2,0.7-1.6
			c0.5-0.4,1-0.7,1.6-0.7h0.7c0.2,0,0.3-0.1,0.3-0.3c0.2-2.1,0.3-4.5,0.3-6.9c0-0.2-0.1-0.3-0.3-0.3H635c-0.7,0-1.2-0.2-1.7-0.7
			c-0.5-0.5-0.7-1-0.7-1.7v-3.4c0-0.7,0.2-1.2,0.7-1.7c0.5-0.5,1-0.7,1.7-0.7h0.4c0.2,0,0.3-0.1,0.3-0.3v-6.9c0-0.2-0.1-0.3-0.3-0.3
			h-1c-0.6,0-1.1-0.2-1.6-0.7c-0.5-0.4-0.7-1-0.7-1.6V18c0-0.7,0.2-1.2,0.7-1.7c0.5-0.5,1-0.7,1.6-0.7h16.3c0.7,0,1.2,0.2,1.6,0.7
			c0.4,0.5,0.7,1,0.7,1.7c0,0.8,0,1.4-0.1,1.7l-0.1,11.4c0,0.1,0.1,0.2,0.2,0.2c0.4,0,0.7,0.1,1,0.4c0.3,0.3,0.4,0.6,0.4,1v5.3
			c0,0.4-0.1,0.7-0.4,1C653.7,39.2,653.4,39.4,653,39.4z M643,46.6c0,0.2,0.1,0.3,0.3,0.3h1.4c0.2,0,0.3-0.1,0.3-0.3l0.1-7
			c0-0.2-0.1-0.3-0.3-0.3h-1.2c-0.2,0-0.3,0.1-0.3,0.3C643.4,41.6,643.3,43.9,643,46.6z M643.6,23.7c-0.2,0-0.3,0.1-0.3,0.3V31
			c0,0.2,0.1,0.3,0.3,0.3h1.3c0.2,0,0.3-0.1,0.3-0.3v-6.9c0-0.2-0.1-0.3-0.3-0.3H643.6z M668.2,15.6c0.2,0,0.4-0.1,0.6-0.1
			c0.5,0,0.9,0.1,1.3,0.3l2.9,1.7c0.6,0.3,1.1,0.8,1.4,1.4c0.2,0.4,0.3,0.9,0.3,1.4c0,0.2,0,0.4-0.1,0.7c-1.7,8.8-3,15.2-3.9,19.2
			c0,0.2,0,0.3,0.1,0.5c2,4.3,3,9.3,3,15c0,4.9-0.9,8.2-2.8,9.7c-0.9,0.7-2.1,1.3-3.5,1.6c-0.3,0-0.6,0.1-0.9,0.1
			c-0.6,0-1.2-0.2-1.6-0.6c-0.5-0.4-0.7-1-0.8-1.7c-0.1-1.1-0.3-2.2-0.6-3.2h-0.1v12.6c0,0.7-0.2,1.2-0.7,1.6
			c-0.5,0.4-1,0.7-1.6,0.7h-3.4c-0.7,0-1.2-0.2-1.7-0.7c-0.5-0.4-0.7-1-0.7-1.6V18c0-0.7,0.2-1.2,0.7-1.7c0.5-0.5,1-0.7,1.7-0.7
			h10.1C668,15.6,668.1,15.6,668.2,15.6z M663.5,58.9c0,0.2,0.1,0.3,0.3,0.3h0.3c0.5,0,0.9-0.2,1.2-0.6c0.4-0.6,0.7-2,0.7-4.3
			c0-4.3-0.5-7.9-1.6-10.9c-0.4-1.1-0.6-2.1-0.6-3.1c0-0.4,0-0.9,0.1-1.2c0.8-4.8,1.5-9.9,2.2-15.2c0-0.2-0.1-0.3-0.3-0.3h-2
			c-0.2,0-0.3,0.1-0.3,0.3V58.9z"/>
		<path d="M726.8,65.2c0,0.2,0.1,0.3,0.3,0.3h12.8c0.7,0,1.2,0.2,1.6,0.7c0.4,0.5,0.7,1,0.7,1.7v4.3c0,0.7-0.2,1.2-0.7,1.7
			c-0.4,0.5-1,0.7-1.6,0.7h-36.1c-0.6,0-1.1-0.2-1.6-0.7s-0.7-1-0.7-1.7v-4.3c0-0.7,0.2-1.2,0.7-1.7c0.5-0.5,1-0.7,1.6-0.7h13.5
			c0.2,0,0.3-0.1,0.3-0.3v-5.2c0-0.2-0.1-0.3-0.3-0.3h-9.8c-0.7,0-1.2-0.2-1.7-0.7c-0.5-0.5-0.7-1-0.7-1.6v-4.1
			c0-0.7,0.2-1.2,0.7-1.7c0.5-0.5,1-0.7,1.7-0.7h9.8c0.2,0,0.3-0.1,0.3-0.3v-3.9c0-0.2-0.1-0.3-0.3-0.3h-10.9c-0.4,0-0.7-0.1-1-0.4
			c-0.3-0.3-0.4-0.6-0.4-0.9c0,0,0-0.1,0-0.1c0,0-0.1,0-0.1,0c-1,1.3-2.1,2.6-3.1,3.9c-0.1,0.2-0.1,0.3,0,0.5l1,1.4
			c0.4,0.5,0.6,1.1,0.6,1.8c0,0.7-0.2,1.3-0.7,1.8l-2.5,2.8c-0.4,0.4-0.8,0.6-1.4,0.6c-0.6-0.1-1-0.3-1.2-0.8
			c-0.5-0.8-1.1-1.9-1.9-3.1c0,0,0-0.1-0.1,0c0,0-0.1,0.1-0.1,0.1v20.2c0,0.6-0.2,1.1-0.7,1.6c-0.5,0.5-1,0.7-1.7,0.7h-4.5
			c-0.7,0-1.2-0.2-1.7-0.7c-0.5-0.5-0.7-1-0.7-1.6V57c0-0.1,0-0.1-0.1-0.1c0,0-0.1,0-0.1,0c-0.8,1-1.6,1.8-2.4,2.5
			c-0.4,0.4-0.9,0.5-1.4,0.4c-0.5-0.2-0.9-0.5-1.1-1c-0.7-1.7-1.5-3.4-2.4-4.9c-0.2-0.4-0.3-0.8-0.3-1.3c0-0.2,0-0.3,0-0.5
			c0.1-0.7,0.4-1.2,0.9-1.6c2.3-2.1,4.5-4.6,6.7-7.6c2.2-3,4-6.2,5.6-9.4c0.1-0.2,0-0.3-0.1-0.3h-9.8c-0.6,0-1.1-0.2-1.6-0.7
			c-0.5-0.5-0.7-1-0.7-1.7v-4c0-0.7,0.2-1.2,0.7-1.6c0.5-0.4,1-0.7,1.6-0.7h4.3c0.2,0,0.3-0.1,0.3-0.3v-8.6c0-0.7,0.2-1.2,0.7-1.6
			c0.5-0.4,1-0.7,1.7-0.7h4.5c0.7,0,1.2,0.2,1.7,0.7c0.5,0.4,0.7,1,0.7,1.6v8.6c0,0.2,0.1,0.3,0.3,0.3h0.3c0.1,0,0.3,0,0.4-0.1
			c0.3,0,0.5-0.1,0.7-0.1c0.7,0,1.3,0.2,1.8,0.5l2,1.2c0.6,0.4,1,0.9,1.2,1.6c0.2,0.7,0.2,1.3,0,1.9c-1.6,4.5-3.5,8.8-5.8,12.9
			c-0.1,0.2-0.1,0.3,0.1,0.5l1.1,1.3c0.1,0.2,0.2,0.2,0.3,0c0.8-1.2,1.6-2.5,2.3-3.7c0.3-0.5,0.8-0.9,1.3-1c0.6-0.2,1.1,0,1.6,0.4
			l1.6,1.2c0.2,0.1,0.3,0.1,0.3-0.1v-23c0-0.7,0.2-1.2,0.7-1.7c0.5-0.5,1-0.7,1.7-0.7h30c0.7,0,1.2,0.2,1.7,0.7
			c0.5,0.5,0.7,1,0.7,1.7v26.3c0,0.7-0.2,1.2-0.7,1.7c-0.5,0.5-1,0.7-1.7,0.7h-10.3c-0.2,0-0.3,0.1-0.3,0.3v3.9
			c0,0.2,0.1,0.3,0.3,0.3h10.5c0.7,0,1.2,0.2,1.7,0.7c0.5,0.5,0.7,1,0.7,1.7v4.1c0,0.6-0.2,1.1-0.7,1.6c-0.5,0.5-1,0.7-1.7,0.7
			h-10.5c-0.2,0-0.3,0.1-0.3,0.3V65.2z M714.2,23.9c-0.2,0-0.3,0.1-0.3,0.3v2.6c0,0.2,0.1,0.3,0.3,0.3h3.1c0.2,0,0.3-0.1,0.3-0.3
			v-2.6c0-0.2-0.1-0.3-0.3-0.3H714.2z M713.9,37.9c0,0.2,0.1,0.3,0.3,0.3h3.1c0.2,0,0.3-0.1,0.3-0.3v-2.7c0-0.2-0.1-0.3-0.3-0.3
			h-3.1c-0.2,0-0.3,0.1-0.3,0.3V37.9z M730.2,27.2c0.2,0,0.3-0.1,0.3-0.3v-2.6c0-0.2-0.1-0.3-0.3-0.3h-3.1c-0.2,0-0.3,0.1-0.3,0.3
			v2.6c0,0.2,0.1,0.3,0.3,0.3H730.2z M730.2,38.2c0.2,0,0.3-0.1,0.3-0.3v-2.7c0-0.2-0.1-0.3-0.3-0.3h-3.1c-0.2,0-0.3,0.1-0.3,0.3
			v2.7c0,0.2,0.1,0.3,0.3,0.3H730.2z"/>
		<path d="M768,56c0,0.7-0.2,1.2-0.7,1.7c-0.5,0.5-1,0.7-1.7,0.7h-9c-0.2,0-0.3,0.1-0.3,0.3v2.5c0,0.7-0.2,1.2-0.7,1.7
			c-0.4,0.5-1,0.7-1.6,0.7h-3.9c-0.7,0-1.2-0.2-1.7-0.7c-0.5-0.5-0.7-1-0.7-1.7V20.8c0-0.7,0.2-1.2,0.7-1.7c0.5-0.5,1-0.7,1.7-0.7
			h15.6c0.7,0,1.2,0.2,1.7,0.7c0.5,0.5,0.7,1,0.7,1.7V56z M759.2,27.7c0-0.2-0.1-0.3-0.3-0.3h-2.4c-0.2,0-0.3,0.1-0.3,0.3v21.3
			c0,0.2,0.1,0.3,0.3,0.3h2.4c0.2,0,0.3-0.1,0.3-0.3V27.7z M771.9,72.6c-0.3,0.6-0.8,0.9-1.4,1.1c-0.6,0.2-1.2,0.1-1.8-0.2l-2.8-1.3
			c-0.6-0.3-0.9-0.7-1.1-1.3c-0.1-0.3-0.1-0.5-0.1-0.7c0-0.3,0.1-0.7,0.3-1c1.4-2.9,2.4-6.5,3.1-10.9c0.1-0.6,0.4-1.1,0.9-1.4
			c0.5-0.3,1.1-0.4,1.7-0.2l2.6,0.7c0.7,0.2,1.2,0.5,1.5,1.1c0.4,0.6,0.5,1.2,0.4,1.8C774.3,65.6,773.3,69.7,771.9,72.6z M794.6,46
			c0,0.2,0.1,0.3,0.3,0.3h11.4c0.6,0,1.1,0.2,1.6,0.7c0.4,0.4,0.7,0.9,0.7,1.5c0,0.2,0,0.6-0.1,1.1c-0.3,7.7-0.7,13.3-1.1,16.8
			c-0.4,3.5-1.1,5.8-1.9,7c-1.1,1.5-2.7,2.4-4.6,2.7c-1,0.2-2.5,0.3-4.5,0.4h-0.1c-0.6,0-1.1-0.2-1.6-0.7c-0.5-0.4-0.8-1-0.9-1.6
			c-0.3-1.4-0.6-2.6-1-3.8c-0.2-0.5-0.1-0.9,0.2-1.3c0.3-0.4,0.7-0.6,1.2-0.6c0.5,0,1.1,0,1.8,0c0.8,0,1.4-0.3,1.8-0.9
			c0.3-0.4,0.7-1.5,0.9-3.3c0,0,0-0.1-0.1-0.1c0,0-0.1-0.1-0.2-0.1L796,65c-0.6,0.2-1.1,0.1-1.6-0.2c-0.5-0.3-0.9-0.7-1-1.3
			c-0.4-1.7-1-3.4-1.7-5.2c-0.2-0.6-0.2-1.1,0-1.7c0.2-0.6,0.6-0.9,1.2-1.1l0.7-0.3c0.7-0.2,1.3-0.1,1.9,0.1c0.6,0.2,1,0.7,1.3,1.3
			c0.9,1.9,1.6,3.8,2.2,5.8c0,0,0,0.1,0,0.1c0,0,0,0,0-0.1c0.2-2.3,0.4-4.8,0.5-7.7c0-0.2-0.1-0.3-0.3-0.3h-25.9
			c-0.6,0-1.1-0.2-1.6-0.7c-0.5-0.4-0.7-1-0.7-1.6V17.6c0-0.7,0.2-1.2,0.7-1.7c0.5-0.5,1-0.7,1.6-0.7h31.1c0.7,0,1.2,0.2,1.7,0.7
			c0.5,0.5,0.7,1,0.7,1.7v3.7c0,0.7-0.2,1.2-0.7,1.6c-0.5,0.4-1,0.7-1.7,0.7h-9.6c-0.2,0-0.3,0.1-0.3,0.3v2c0,0.2,0.1,0.3,0.3,0.3
			h7.3c0.7,0,1.2,0.2,1.7,0.7c0.5,0.5,0.7,1,0.7,1.7v2.7c0,0.7-0.2,1.2-0.7,1.7c-0.5,0.5-1,0.7-1.7,0.7h-7.3c-0.2,0-0.3,0.1-0.3,0.3
			v2c0,0.2,0.1,0.3,0.3,0.3h7.3c0.7,0,1.2,0.2,1.7,0.7c0.5,0.5,0.7,1,0.7,1.6v2.8c0,0.7-0.2,1.2-0.7,1.6c-0.5,0.4-1,0.7-1.7,0.7
			h-7.3c-0.2,0-0.3,0.1-0.3,0.3V46z M776.3,59.8c-0.1-0.6,0.1-1.2,0.4-1.7c0.4-0.5,0.9-0.8,1.5-0.9l1.6-0.3c0.6-0.1,1.2,0,1.7,0.4
			c0.5,0.4,0.9,0.9,1,1.5c0.6,3.2,0.9,6.3,0.9,9.4c0,0.7-0.2,1.2-0.6,1.7c-0.4,0.5-1,0.8-1.7,0.9l-2,0.3c-0.6,0.1-1.1-0.1-1.6-0.5
			c-0.4-0.4-0.7-0.9-0.7-1.5C777.1,66.3,776.8,63.1,776.3,59.8z M785.7,23.9c0-0.2-0.1-0.3-0.3-0.3h-4.9c-0.2,0-0.3,0.1-0.3,0.3v2
			c0,0.2,0.1,0.3,0.3,0.3h4.9c0.2,0,0.3-0.1,0.3-0.3V23.9z M785.3,36.2c0.2,0,0.3-0.1,0.3-0.3v-2c0-0.2-0.1-0.3-0.3-0.3h-4.9
			c-0.2,0-0.3,0.1-0.3,0.3v2c0,0.2,0.1,0.3,0.3,0.3H785.3z M780.4,43.6c-0.2,0-0.3,0.1-0.3,0.3V46c0,0.2,0.1,0.3,0.3,0.3h4.9
			c0.2,0,0.3-0.1,0.3-0.3v-2.1c0-0.2-0.1-0.3-0.3-0.3H780.4z M784.1,59.3c-0.2-0.6-0.1-1.2,0.2-1.7c0.3-0.5,0.7-0.9,1.3-1.1l1.2-0.4
			c0.7-0.2,1.3-0.1,1.9,0.2c0.6,0.3,1,0.8,1.2,1.4c0.8,2.4,1.4,4.9,1.8,7.5c0.1,0.7,0,1.3-0.4,1.8c-0.4,0.6-0.9,0.9-1.5,1.1
			l-1.6,0.5c-0.6,0.1-1.1,0-1.6-0.3c-0.5-0.3-0.8-0.8-0.9-1.4C785.5,64.5,784.9,62,784.1,59.3z"/>
		<path d="M832.3,49.7c-0.1,0.7-0.4,1.2-0.8,1.7c-0.5,0.5-1,0.7-1.6,0.7h-5.8c-0.7,0-1.2-0.2-1.7-0.7c-0.5-0.5-0.7-1-0.7-1.7
			c0.1-1.6,0.4-3.2,1-4.7c0.6-1.5,1.3-2.9,2.1-4c0.8-1.2,1.6-2.3,2.4-3.3c0.8-1,1.5-2.1,2.1-3.2c0.6-1.1,0.9-2.1,0.9-3.1
			c0-1.4-0.3-2.4-1-3.1c-0.7-0.7-1.5-1-2.6-1c-1.4,0-2.7,0.6-4,1.8c-0.5,0.4-1,0.7-1.7,0.7c-0.6,0-1.2-0.2-1.7-0.6l-3.1-2.9
			c-0.5-0.5-0.8-1.1-0.8-1.8c0-0.6,0.2-1.1,0.7-1.5c3.5-3.6,7.5-5.4,12-5.4c4,0,7.3,1.1,9.8,3.2c2.5,2.2,3.8,5.3,3.8,9.5
			c0,1.7-0.3,3.2-0.9,4.7c-0.6,1.5-1.3,2.8-2.1,4c-0.9,1.2-1.7,2.3-2.6,3.3c-0.9,1-1.6,2.2-2.3,3.5C833,47.1,832.5,48.4,832.3,49.7z
			 M832.2,68.9c-1.4,1.4-3.1,2.1-5.2,2.1c-2.1,0-3.8-0.7-5.2-2.1c-1.4-1.4-2.1-3.1-2.1-5.3c0-2.1,0.7-3.9,2.1-5.3
			c1.4-1.4,3.1-2.1,5.2-2.1c2.1,0,3.8,0.7,5.2,2.1c1.4,1.4,2.1,3.2,2.1,5.3C834.2,65.7,833.6,67.5,832.2,68.9z"/>
		<path d="M30.8,104.3c0.7,0,1.2,0.2,1.6,0.7c0.4,0.5,0.7,1,0.7,1.7v2.9c0,0.6-0.2,1.1-0.7,1.6c-0.4,0.5-1,0.7-1.6,0.7H10.6
			c-0.7,0-1.2-0.2-1.6-0.7c-0.4-0.5-0.7-1-0.7-1.6v-2.9c0-0.7,0.2-1.2,0.7-1.7c0.4-0.5,1-0.7,1.6-0.7H30.8z M29.2,132.7
			c0.7,0,1.2,0.2,1.7,0.7c0.5,0.4,0.7,1,0.7,1.6v16.2c0,0.6-0.2,1.1-0.7,1.6c-0.5,0.5-1,0.7-1.7,0.7h-9.8c-0.2,0-0.3,0.1-0.3,0.3
			c0,0.6-0.2,1.1-0.6,1.5c-0.4,0.4-0.9,0.6-1.5,0.6h-3.5c-0.7,0-1.2-0.2-1.6-0.7c-0.4-0.5-0.7-1-0.7-1.7V135c0-0.7,0.2-1.2,0.7-1.6
			c0.4-0.4,1-0.7,1.6-0.7H29.2z M13.7,121.2c-0.7,0-1.2-0.2-1.6-0.7c-0.4-0.4-0.7-1-0.7-1.6v-2.6c0-0.6,0.2-1.1,0.7-1.6
			c0.4-0.5,1-0.7,1.6-0.7h15.6c0.7,0,1.2,0.2,1.7,0.7c0.5,0.5,0.7,1,0.7,1.6v2.6c0,0.7-0.2,1.2-0.7,1.6c-0.5,0.4-1,0.7-1.7,0.7H13.7
			z M13.7,130.5c-0.7,0-1.2-0.2-1.6-0.7c-0.4-0.5-0.7-1-0.7-1.7v-2.6c0-0.7,0.2-1.2,0.7-1.7c0.4-0.5,1-0.7,1.6-0.7h15.6
			c0.7,0,1.2,0.2,1.7,0.7c0.5,0.5,0.7,1,0.7,1.7v2.6c0,0.7-0.2,1.2-0.7,1.7c-0.5,0.5-1,0.7-1.7,0.7H13.7z M28.9,95.2
			c0.7,0,1.2,0.2,1.7,0.7s0.7,1,0.7,1.7v2.6c0,0.7-0.2,1.2-0.7,1.7s-1,0.7-1.7,0.7h-15c-0.6,0-1.1-0.2-1.6-0.7
			c-0.5-0.5-0.7-1-0.7-1.7v-2.6c0-0.7,0.2-1.2,0.7-1.7c0.5-0.5,1-0.7,1.6-0.7H28.9z M23.5,140.5c0-0.2-0.1-0.3-0.3-0.3h-3.8
			c-0.2,0-0.3,0.1-0.3,0.3v5.1c0,0.2,0.1,0.3,0.3,0.3h3.8c0.2,0,0.3-0.1,0.3-0.3V140.5z M47.5,142.1c0,0.2,0.1,0.2,0.3,0.2l3.3-0.5
			c0.6-0.1,1.2,0.1,1.6,0.5c0.5,0.4,0.7,0.9,0.8,1.5l0.3,3.3c0,0.7-0.1,1.3-0.5,1.8c-0.4,0.5-0.9,0.9-1.6,1c-4,0.8-9.1,1.8-15.1,3
			c-0.7,0.1-1.2,0-1.8-0.3c-0.5-0.3-0.9-0.9-1-1.5l-0.9-4.3c0-0.2-0.1-0.3-0.1-0.5c0-0.4,0.1-0.8,0.4-1.2c0.3-0.5,0.8-0.8,1.4-0.9
			c1.9-0.3,3.1-0.4,3.5-0.5c0.2,0,0.3-0.1,0.3-0.3v-14.3c0-0.2-0.1-0.3-0.3-0.3H36c-0.7,0-1.2-0.2-1.6-0.7c-0.4-0.5-0.7-1-0.7-1.6
			v-3.6c0-0.7,0.2-1.2,0.7-1.7c0.4-0.5,1-0.7,1.6-0.7h13.5c0.6,0,1.1,0.2,1.6,0.7c0.5,0.5,0.7,1,0.7,1.7v3.6c0,0.6-0.2,1.1-0.7,1.6
			c-0.5,0.5-1,0.7-1.6,0.7h-1.8c-0.2,0-0.3,0.1-0.3,0.3V142.1z M71.2,112.1c0,0.6-0.2,1.1-0.7,1.6c-0.5,0.5-1,0.7-1.6,0.7h-7
			c-0.2,0-0.3,0.1-0.3,0.3c0.2,8.8,0.7,16,1.3,21.6c0.7,5.6,1.4,8.4,2.3,8.5c0.6,0,1-1.8,1.2-5.4c0-0.4,0.2-0.7,0.6-0.8
			c0.4-0.1,0.7,0,1,0.2c0.9,0.9,2,1.8,3.3,2.8c1,0.8,1.6,1.7,1.6,2.8c0,0.3,0,0.5-0.1,0.8c-0.9,4.4-2.1,7.5-3.5,9.2
			c-1.4,1.7-2.9,2.5-4.5,2.5h-0.1c-4.1-0.1-7-3.6-8.8-10.5c-1.8-6.9-2.9-17.5-3.4-31.7c0-0.2-0.2-0.3-0.3-0.3H36.4
			c-0.6,0-1.1-0.2-1.6-0.7s-0.7-1-0.7-1.6v-4.2c0-0.6,0.2-1.1,0.7-1.6s1-0.7,1.6-0.7h15.7c0.2,0,0.3-0.1,0.3-0.3
			c0-4-0.1-7.2-0.1-9.7c0-0.7,0.2-1.2,0.7-1.7c0.5-0.5,1-0.7,1.7-0.7h4.6c0.7,0,1.2,0.2,1.6,0.7c0.4,0.5,0.7,1,0.7,1.7v1.2
			c0,0.2,0.1,0.3,0.3,0.2l3.7-1.8c0.6-0.3,1.2-0.4,1.9-0.3c0.7,0.1,1.2,0.5,1.6,1c1.1,1.5,2.1,2.9,2.7,4.1c0.3,0.6,0.4,1.2,0.2,1.8
			c-0.2,0.6-0.6,1.1-1.2,1.4l-4.2,2.3c0,0-0.1,0,0,0.1c0,0,0.1,0.1,0.1,0.1h2.5c0.6,0,1.1,0.2,1.6,0.7c0.5,0.5,0.7,1,0.7,1.6V112.1z
			 M61.4,105.3c0,0.2,0.1,0.3,0.3,0.3h3.6c0.2,0,0.2-0.1,0.1-0.3c-0.8-2-2.1-4.2-3.9-6.8c0,0,0-0.1-0.1,0c0,0-0.1,0.1-0.1,0.1V105.3
			z"/>
		<path d="M97.8,104.3c0.7,0,1.2,0.2,1.6,0.7c0.4,0.5,0.7,1,0.7,1.7v2.9c0,0.6-0.2,1.1-0.7,1.6c-0.4,0.5-1,0.7-1.6,0.7H77.7
			c-0.7,0-1.2-0.2-1.6-0.7c-0.4-0.5-0.7-1-0.7-1.6v-2.9c0-0.7,0.2-1.2,0.7-1.7c0.4-0.5,1-0.7,1.6-0.7H97.8z M96.2,132.7
			c0.7,0,1.2,0.2,1.7,0.7c0.5,0.4,0.7,1,0.7,1.6v16.2c0,0.6-0.2,1.1-0.7,1.6c-0.5,0.5-1,0.7-1.7,0.7h-9.8c-0.2,0-0.3,0.1-0.3,0.3
			c0,0.6-0.2,1.1-0.6,1.5c-0.4,0.4-0.9,0.6-1.5,0.6h-3.5c-0.7,0-1.2-0.2-1.6-0.7c-0.4-0.5-0.7-1-0.7-1.7V135c0-0.7,0.2-1.2,0.7-1.6
			c0.4-0.4,1-0.7,1.6-0.7H96.2z M80.7,121.2c-0.7,0-1.2-0.2-1.6-0.7c-0.4-0.4-0.7-1-0.7-1.6v-2.6c0-0.6,0.2-1.1,0.7-1.6
			c0.4-0.5,1-0.7,1.6-0.7h15.6c0.7,0,1.2,0.2,1.7,0.7c0.5,0.5,0.7,1,0.7,1.6v2.6c0,0.7-0.2,1.2-0.7,1.6c-0.5,0.4-1,0.7-1.7,0.7H80.7
			z M80.7,130.5c-0.7,0-1.2-0.2-1.6-0.7c-0.4-0.5-0.7-1-0.7-1.7v-2.6c0-0.7,0.2-1.2,0.7-1.7c0.4-0.5,1-0.7,1.6-0.7h15.6
			c0.7,0,1.2,0.2,1.7,0.7c0.5,0.5,0.7,1,0.7,1.7v2.6c0,0.7-0.2,1.2-0.7,1.7c-0.5,0.5-1,0.7-1.7,0.7H80.7z M95.9,95.2
			c0.7,0,1.2,0.2,1.7,0.7s0.7,1,0.7,1.7v2.6c0,0.7-0.2,1.2-0.7,1.7s-1,0.7-1.7,0.7h-15c-0.6,0-1.1-0.2-1.6-0.7
			c-0.5-0.5-0.7-1-0.7-1.7v-2.6c0-0.7,0.2-1.2,0.7-1.7c0.5-0.5,1-0.7,1.6-0.7H95.9z M90.5,140.5c0-0.2-0.1-0.3-0.3-0.3h-3.8
			c-0.2,0-0.3,0.1-0.3,0.3v5.1c0,0.2,0.1,0.3,0.3,0.3h3.8c0.2,0,0.3-0.1,0.3-0.3V140.5z M114.5,142.1c0,0.2,0.1,0.2,0.3,0.2l3.3-0.5
			c0.6-0.1,1.2,0.1,1.6,0.5c0.5,0.4,0.7,0.9,0.8,1.5l0.3,3.3c0,0.7-0.1,1.3-0.5,1.8c-0.4,0.5-0.9,0.9-1.6,1c-4,0.8-9.1,1.8-15.1,3
			c-0.7,0.1-1.2,0-1.8-0.3c-0.5-0.3-0.9-0.9-1-1.5l-0.9-4.3c0-0.2-0.1-0.3-0.1-0.5c0-0.4,0.1-0.8,0.4-1.2c0.3-0.5,0.8-0.8,1.4-0.9
			c1.9-0.3,3.1-0.4,3.5-0.5c0.2,0,0.3-0.1,0.3-0.3v-14.3c0-0.2-0.1-0.3-0.3-0.3H103c-0.7,0-1.2-0.2-1.6-0.7c-0.4-0.5-0.7-1-0.7-1.6
			v-3.6c0-0.7,0.2-1.2,0.7-1.7c0.4-0.5,1-0.7,1.6-0.7h13.5c0.6,0,1.1,0.2,1.6,0.7c0.5,0.5,0.7,1,0.7,1.7v3.6c0,0.6-0.2,1.1-0.7,1.6
			c-0.5,0.5-1,0.7-1.6,0.7h-1.8c-0.2,0-0.3,0.1-0.3,0.3V142.1z M138.2,112.1c0,0.6-0.2,1.1-0.7,1.6c-0.5,0.5-1,0.7-1.6,0.7h-7
			c-0.2,0-0.3,0.1-0.3,0.3c0.2,8.8,0.7,16,1.3,21.6c0.7,5.6,1.4,8.4,2.3,8.5c0.6,0,1-1.8,1.2-5.4c0-0.4,0.2-0.7,0.6-0.8
			c0.4-0.1,0.7,0,1,0.2c0.9,0.9,2,1.8,3.3,2.8c1,0.8,1.6,1.7,1.6,2.8c0,0.3,0,0.5-0.1,0.8c-0.9,4.4-2.1,7.5-3.5,9.2
			c-1.4,1.7-2.9,2.5-4.5,2.5h-0.1c-4.1-0.1-7-3.6-8.8-10.5c-1.8-6.9-2.9-17.5-3.4-31.7c0-0.2-0.2-0.3-0.3-0.3h-15.9
			c-0.6,0-1.1-0.2-1.6-0.7c-0.5-0.5-0.7-1-0.7-1.6v-4.2c0-0.6,0.2-1.1,0.7-1.6c0.5-0.5,1-0.7,1.6-0.7h15.7c0.2,0,0.3-0.1,0.3-0.3
			c0-4-0.1-7.2-0.1-9.7c0-0.7,0.2-1.2,0.7-1.7c0.5-0.5,1-0.7,1.7-0.7h4.6c0.7,0,1.2,0.2,1.6,0.7c0.4,0.5,0.7,1,0.7,1.7v1.2
			c0,0.2,0.1,0.3,0.3,0.2l3.7-1.8c0.6-0.3,1.2-0.4,1.9-0.3c0.7,0.1,1.2,0.5,1.6,1c1.1,1.5,2.1,2.9,2.7,4.1c0.3,0.6,0.4,1.2,0.2,1.8
			c-0.2,0.6-0.6,1.1-1.2,1.4l-4.2,2.3c0,0-0.1,0,0,0.1c0,0,0.1,0.1,0.1,0.1h2.5c0.6,0,1.1,0.2,1.6,0.7c0.5,0.5,0.7,1,0.7,1.6V112.1z
			 M128.5,105.3c0,0.2,0.1,0.3,0.3,0.3h3.6c0.2,0,0.2-0.1,0.1-0.3c-0.8-2-2.1-4.2-3.9-6.8c0,0,0-0.1-0.1,0c0,0-0.1,0.1-0.1,0.1
			V105.3z"/>
		<path class="st0" d="M185.6,135.8c-0.7,0-1.2-0.2-1.7-0.7c-0.5-0.5-0.7-1-0.7-1.7V95.6c0-0.7,0.2-1.2,0.7-1.7
			c0.5-0.5,1-0.7,1.7-0.7h18.1c0.7,0,1.2,0.2,1.6,0.7c0.4,0.5,0.7,1,0.7,1.7v4.1c0,0.7-0.2,1.2-0.7,1.7c-0.4,0.5-1,0.7-1.6,0.7
			h-10.6c-0.2,0-0.3,0.1-0.3,0.3v31.2c0,0.7-0.2,1.2-0.7,1.7c-0.5,0.5-1,0.7-1.7,0.7H185.6z"/>
		<path class="st0" d="M269.2,140.6c0.7,0,1.2,0.2,1.7,0.7c0.5,0.5,0.7,1,0.7,1.7v3.7c0,0.7-0.2,1.2-0.7,1.6c-0.5,0.4-1,0.7-1.7,0.7
			h-22.9c-0.2,0-0.3,0.1-0.3,0.3v5.4c0,0.6-0.2,1.1-0.7,1.6c-0.5,0.5-1,0.7-1.7,0.7h-5.4c-0.7,0-1.2-0.2-1.7-0.7
			c-0.5-0.5-0.7-1-0.7-1.6v-5.4c0-0.2-0.1-0.3-0.3-0.3h-22.1c-0.7,0-1.2-0.2-1.7-0.7c-0.5-0.4-0.7-1-0.7-1.6V143
			c0-0.7,0.2-1.2,0.7-1.7c0.5-0.5,1-0.7,1.7-0.7h22.1c0.2,0,0.3-0.1,0.3-0.3v-2c0-0.2-0.1-0.3-0.3-0.3h-16c-0.7,0-1.2-0.2-1.7-0.7
			c-0.5-0.5-0.7-1-0.7-1.7v-21.6c0-0.7,0.2-1.2,0.7-1.7c0.5-0.5,1-0.7,1.7-0.7h43.9c0.7,0,1.2,0.2,1.7,0.7s0.7,1,0.7,1.7v21.6
			c0,0.7-0.2,1.2-0.7,1.7c-0.5,0.5-1,0.7-1.7,0.7h-17.2c-0.2,0-0.3,0.1-0.3,0.3v2c0,0.2,0.1,0.3,0.3,0.3H269.2z M237.4,95.8
			c0.7,0,1.2,0.2,1.6,0.7c0.4,0.5,0.7,1,0.7,1.7v9.1c0,0.7-0.2,1.2-0.7,1.6c-0.4,0.4-1,0.7-1.6,0.7h-20.6c-0.7,0-1.2-0.2-1.7-0.7
			c-0.5-0.4-0.7-1-0.7-1.6v-9.1c0-0.7,0.2-1.2,0.7-1.7c0.5-0.5,1-0.7,1.7-0.7H237.4z M230.3,104c0.2,0,0.3-0.1,0.3-0.3v-1.9
			c0-0.2-0.1-0.3-0.3-0.3h-6.9c-0.2,0-0.3,0.1-0.3,0.3v1.9c0,0.2,0.1,0.3,0.3,0.3H230.3z M227,119.2c-0.2,0-0.3,0.1-0.3,0.3v1.8
			c0,0.2,0.1,0.3,0.3,0.3h8.6c0.2,0,0.3-0.1,0.3-0.3v-1.8c0-0.2-0.1-0.3-0.3-0.3H227z M226.8,130.4c0,0.2,0.1,0.3,0.3,0.3h8.6
			c0.2,0,0.3-0.1,0.3-0.3v-1.7c0-0.2-0.1-0.3-0.3-0.3H227c-0.2,0-0.3,0.1-0.3,0.3V130.4z M266,95.8c0.7,0,1.2,0.2,1.7,0.7
			s0.7,1,0.7,1.7v9.1c0,0.7-0.2,1.2-0.7,1.6c-0.5,0.4-1,0.7-1.7,0.7h-20.7c-0.7,0-1.2-0.2-1.6-0.7c-0.4-0.4-0.7-1-0.7-1.6v-9.1
			c0-0.7,0.2-1.2,0.7-1.7c0.4-0.5,1-0.7,1.6-0.7H266z M255.5,121.6c0.2,0,0.3-0.1,0.3-0.3v-1.8c0-0.2-0.1-0.3-0.3-0.3h-9.2
			c-0.2,0-0.3,0.1-0.3,0.3v1.8c0,0.2,0.1,0.3,0.3,0.3H255.5z M255.5,130.7c0.2,0,0.3-0.1,0.3-0.3v-1.7c0-0.2-0.1-0.3-0.3-0.3h-9.2
			c-0.2,0-0.3,0.1-0.3,0.3v1.7c0,0.2,0.1,0.3,0.3,0.3H255.5z M258.9,104c0.2,0,0.3-0.1,0.3-0.3v-1.9c0-0.2-0.1-0.3-0.3-0.3h-7.1
			c-0.2,0-0.3,0.1-0.3,0.3v1.9c0,0.2,0.1,0.3,0.3,0.3H258.9z"/>
		<path class="st0" d="M323.8,146.7h4.6c0.9,0,1.5-0.5,1.9-1.6c0.3-1.1,0.6-3.4,0.8-7.1c0-0.5,0.2-0.8,0.7-1.1
			c0.5-0.2,0.9-0.2,1.3,0c1.4,0.7,3,1.4,4.8,2.1c0.7,0.2,1.2,0.6,1.6,1.2c0.3,0.4,0.5,0.9,0.5,1.5c0,4.8-1,8.5-3.1,11.1
			c-1.5,2-3.9,2.9-7.4,2.9h-7.3c-4.2,0-7-0.9-8.5-2.6c-1.5-1.7-2.2-4.9-2.2-9.5v-18.5c0-0.2-0.1-0.3-0.3-0.3h-8.1
			c-0.2,0-0.3,0.1-0.3,0.3c-0.2,2.4-0.5,4.5-0.8,6.3c-0.3,1.8-0.7,3.8-1.3,5.8c-0.6,2-1.3,3.9-2.2,5.5c-0.9,1.6-2,3.2-3.2,4.8
			c-1.3,1.6-2.8,3-4.7,4.4c-1.8,1.4-3.9,2.6-6.3,3.7c-0.3,0.1-0.6,0.2-1,0.2c-0.3,0-0.5,0-0.8-0.1c-0.6-0.2-1.1-0.6-1.4-1.2
			c-0.9-1.5-2-3-3.2-4.3c-0.3-0.3-0.5-0.7-0.5-1c0-0.1,0-0.2,0.1-0.3c0.1-0.5,0.4-0.9,0.9-1.1c1.9-0.8,3.6-1.7,5.1-2.7
			c1.5-1,2.7-2.1,3.6-3.3c1-1.2,1.8-2.4,2.4-3.5c0.6-1.2,1.1-2.5,1.5-4.1c0.4-1.5,0.7-3,0.9-4.3c0.2-1.3,0.3-2.8,0.5-4.7
			c0-0.2-0.1-0.3-0.3-0.3h-11.6c-0.7,0-1.2-0.2-1.7-0.7c-0.5-0.5-0.7-1-0.7-1.7v-4.8c0-0.7,0.2-1.2,0.7-1.7c0.5-0.5,1-0.7,1.7-0.7
			h56c0.7,0,1.2,0.2,1.7,0.7c0.5,0.5,0.7,1,0.7,1.7v4.8c0,0.7-0.2,1.2-0.7,1.7c-0.5,0.5-1,0.7-1.7,0.7h-14.5c-0.2,0-0.3,0.1-0.3,0.3
			v18.4c0,1.3,0.1,2.1,0.4,2.5C322.2,146.5,322.8,146.7,323.8,146.7z M329.9,97.7c0.7,0,1.2,0.2,1.7,0.7c0.5,0.5,0.7,1,0.7,1.7v4.7
			c0,0.7-0.2,1.2-0.7,1.6c-0.5,0.4-1,0.7-1.7,0.7h-43.3c-0.7,0-1.2-0.2-1.7-0.7c-0.5-0.4-0.7-1-0.7-1.6V100c0-0.7,0.2-1.2,0.7-1.7
			c0.5-0.5,1-0.7,1.7-0.7H329.9z"/>
		<path class="st0" d="M357.3,115.9c0.5,0.3,0.8,0.9,0.9,1.5c0.1,0.7-0.1,1.2-0.5,1.8l-2.9,4.1c-0.4,0.5-0.8,0.8-1.5,0.9
			c-0.6,0.1-1.2-0.1-1.7-0.5c-1.8-1.4-3.9-2.6-6.3-3.9c-0.6-0.3-0.9-0.7-1-1.3c0-0.1-0.1-0.3-0.1-0.5c0-0.4,0.1-0.8,0.4-1.1l2.6-3.5
			c0.4-0.5,1-0.9,1.6-1.1c0.7-0.2,1.3-0.2,1.9,0.1C353.4,113.5,355.6,114.7,357.3,115.9z M352,131.8c0.2-0.6,0.5-0.9,1.1-1.1
			c0.5-0.2,1.1-0.1,1.6,0.2l4,2.5c0.6,0.4,1,0.9,1.2,1.5c0.2,0.6,0.3,1.3,0,1.9c-1.8,5.9-3.8,11.6-6,17.2c-0.2,0.6-0.6,1-1.2,1.2
			c-0.6,0.2-1.1,0.2-1.7-0.1l-4.8-2.7c-0.6-0.3-1-0.8-1.2-1.4c-0.1-0.3-0.1-0.5-0.1-0.8c0-0.3,0.1-0.7,0.3-1
			C347.6,143.8,349.9,138,352,131.8z M360,98.3c0.5,0.4,0.8,0.9,0.9,1.5c0.1,0.6-0.1,1.2-0.5,1.7l-3,4.1c-0.4,0.5-0.8,0.8-1.5,0.8
			c-0.6,0.1-1.2-0.1-1.7-0.4c-1.8-1.4-4-2.8-6.5-4.1c-0.5-0.3-0.9-0.7-1-1.3c-0.1-0.6,0-1.1,0.3-1.6l2.6-3.4
			c0.4-0.6,0.9-0.9,1.6-1.1c0.7-0.2,1.3-0.1,1.9,0.1C355.8,95.8,358.1,97.1,360,98.3z M362.5,142.8c0.3-0.6,0.7-1.1,1.3-1.3
			c0.6-0.3,1.2-0.3,1.8-0.2l4.3,1.2c0.6,0.2,1,0.5,1.3,1.1c0.3,0.5,0.3,1.1,0,1.7c-1.7,3.7-3.8,7.1-6.2,10.1
			c-0.4,0.5-0.9,0.8-1.6,0.9c-0.7,0.1-1.3-0.1-1.8-0.5c-1.2-0.8-2.4-1.6-3.7-2.4c-0.6-0.3-0.9-0.9-0.9-1.6c0-0.5,0.2-0.9,0.5-1.2
			C359.4,148.3,361.1,145.7,362.5,142.8z M383,138.7c0,0.5-0.2,0.9-0.5,1.2c-0.3,0.3-0.8,0.5-1.3,0.5c0,0.1-0.1,0.2-0.1,0.2
			c2.1,2.7,3.7,5.2,5,7.5c0.3,0.6,0.4,1.2,0.3,1.8c-0.2,0.6-0.5,1.1-1.1,1.4l-3.8,2.2c-0.5,0.3-1.1,0.4-1.7,0.2
			c-0.6-0.2-1-0.5-1.3-1.1c-1-1.8-2.3-4.1-4.1-6.7c-0.3-0.5-0.4-1.1-0.3-1.7c0.2-0.6,0.5-1.1,1-1.4l4-2.2c0,0,0-0.1,0-0.1
			c0,0,0-0.1-0.1-0.1h-14.7c-0.7,0-1.2-0.2-1.7-0.7c-0.5-0.4-0.7-1-0.7-1.6V98.1c0-0.7,0.2-1.2,0.7-1.7c0.5-0.5,1-0.7,1.7-0.7h16.2
			c0.7,0,1.2,0.2,1.7,0.7c0.5,0.5,0.7,1,0.7,1.7V138.7z M374.2,108.3c0.2,0,0.3-0.1,0.3-0.3v-3.5c0-0.2-0.1-0.3-0.3-0.3h-3.6
			c-0.2,0-0.3,0.1-0.3,0.3v3.5c0,0.2,0.1,0.3,0.3,0.3H374.2z M374.2,120.2c0.2,0,0.3-0.1,0.3-0.3v-3.7c0-0.2-0.1-0.3-0.3-0.3h-3.6
			c-0.2,0-0.3,0.1-0.3,0.3v3.7c0,0.2,0.1,0.3,0.3,0.3H374.2z M374.2,132.1c0.2,0,0.3-0.1,0.3-0.3v-3.7c0-0.2-0.1-0.3-0.3-0.3h-3.6
			c-0.2,0-0.3,0.1-0.3,0.3v3.7c0,0.2,0.1,0.3,0.3,0.3H374.2z M391.4,100.1c0.7,0,1.2,0.2,1.7,0.7c0.5,0.5,0.7,1,0.7,1.6v34.6
			c0,0.7-0.2,1.2-0.7,1.7c-0.5,0.5-1,0.7-1.7,0.7h-3.7c-0.7,0-1.2-0.2-1.6-0.7c-0.4-0.5-0.7-1-0.7-1.7v-34.6c0-0.6,0.2-1.1,0.7-1.6
			c0.4-0.5,1-0.7,1.6-0.7H391.4z M396.1,95.6c0-0.7,0.2-1.2,0.7-1.7c0.5-0.5,1-0.7,1.7-0.7h4.1c0.7,0,1.2,0.2,1.7,0.7
			c0.5,0.5,0.7,1,0.7,1.7v50.7c0,2.4-0.2,4.3-0.7,5.6c-0.5,1.3-1.4,2.3-2.6,3.1c-1.9,1.1-4.9,1.7-9.2,1.8h-0.1
			c-0.7,0-1.2-0.2-1.7-0.7c-0.5-0.4-0.8-1-1-1.6c-0.3-1.6-0.8-3.2-1.4-4.8c-0.1-0.2-0.1-0.4-0.1-0.6c0-0.3,0.1-0.6,0.3-0.9
			c0.3-0.4,0.7-0.7,1.2-0.7c1.5,0,3.1,0.1,5,0.1c0.5,0,0.9-0.1,1.1-0.3c0.2-0.2,0.3-0.6,0.3-1.1V95.6z"/>
		<path class="st0" d="M415.5,151.1c-0.3,0.6-0.7,1-1.3,1.2c-0.6,0.2-1.2,0.1-1.8-0.2l-0.6-0.3c-0.6-0.3-0.9-0.7-1.1-1.3
			c-0.1-0.3-0.1-0.6-0.1-0.9c0-0.3,0.1-0.6,0.2-1c1-2.5,1.6-6.1,1.9-10.7c0-0.6,0.3-1.1,0.8-1.5c0.5-0.4,1-0.5,1.6-0.4l0.5,0.1
			c0.7,0.1,1.2,0.4,1.6,0.9c0.4,0.5,0.6,1.1,0.6,1.8C417.3,144.4,416.6,148.4,415.5,151.1z M460.1,138.4c0.1-0.7,0.4-1.2,0.9-1.6
			c0.5-0.4,1-0.6,1.7-0.6l3.3,0.1c0.6,0,1.1,0.3,1.6,0.8c0.4,0.5,0.6,1,0.5,1.6c-0.2,1.7-0.5,3.3-0.8,4.6c0,0.2,0,0.4,0.1,0.5
			c2.4,2.5,4.2,4.6,5.6,6.5c0.3,0.4,0.5,0.8,0.5,1.3c0,0.1,0,0.3,0,0.4c-0.1,0.7-0.5,1.2-1,1.6l-2.4,1.8c-0.5,0.3-1.1,0.5-1.7,0.4
			c-0.6-0.1-1.1-0.4-1.4-0.9c-0.7-1-1.5-2.1-2.6-3.4c-0.1-0.2-0.3-0.2-0.4,0c-1,1.6-2.2,3-3.5,4.2c-0.5,0.4-1.1,0.6-1.7,0.6
			c-0.6-0.1-1.2-0.4-1.6-0.9c-1-1-2-2-2.9-2.8c-0.2-0.1-0.3-0.1-0.5,0l-1.1,1.2c-0.4,0.4-0.9,0.6-1.4,0.5c-0.6,0-1-0.3-1.4-0.8
			c-0.6-0.8-1.2-1.7-1.9-2.5c-0.1-0.2-0.2-0.2-0.3,0c-1,1.8-2.3,3.4-3.8,4.7c-0.5,0.4-1.1,0.6-1.7,0.5c-0.6-0.1-1.2-0.4-1.6-0.9
			c-1.2-1.3-2.4-2.4-3.5-3.3c-0.2-0.1-0.3-0.1-0.3,0.1c-0.2,0.8-0.4,1.5-0.8,2.1c-1,1.4-2.3,2.3-4.1,2.6c-0.8,0.2-1.9,0.3-3.3,0.3
			c0,0-0.1,0-0.1,0c-0.6,0-1.1-0.2-1.6-0.7c-0.5-0.4-0.8-1-0.9-1.6c-0.2-0.9-0.4-1.8-0.7-2.7c-0.2-0.5-0.1-1,0.2-1.4
			c0.3-0.4,0.7-0.6,1.2-0.6c0.3,0,0.6,0,1.1,0c0.7,0,1.2-0.3,1.6-0.9c0.3-0.5,0.5-2,0.7-4.6c0,0,0-0.1,0-0.1c0,0-0.1,0-0.1,0
			c-0.4,0.1-0.8,0.1-1.1-0.1c-0.3-0.2-0.5-0.5-0.6-0.9c-0.4-1.7-0.9-3.6-1.5-5.5c-0.1-0.4-0.1-0.9,0.1-1.3c0.2-0.4,0.5-0.7,1-0.9
			c0.5-0.1,0.9-0.1,1.4,0.1c0.4,0.2,0.8,0.5,1,1c0,0,0,0.1,0,0.1c0,0,0.1,0,0.1,0l0.1-3.6c0-0.2-0.1-0.3-0.3-0.3h-14.7
			c-0.7,0-1.2-0.2-1.6-0.7c-0.4-0.5-0.7-1-0.7-1.7V97.9c0-0.7,0.2-1.2,0.7-1.7c0.4-0.5,1-0.7,1.6-0.7h19.4c0.6,0,1.1,0.2,1.6,0.7
			c0.5,0.5,0.7,1,0.7,1.7v2.8c0,0.7-0.2,1.2-0.7,1.7c-0.5,0.5-1,0.7-1.6,0.7h-3.7c-0.2,0-0.3,0.1-0.3,0.3v2.4c0,0.2,0.1,0.3,0.3,0.3
			h2.5c0.7,0,1.2,0.2,1.7,0.7c0.5,0.5,0.7,1,0.7,1.7v2.4c0,0.7-0.2,1.2-0.7,1.7c-0.5,0.5-1,0.7-1.7,0.7h-2.5c-0.2,0-0.3,0.1-0.3,0.3
			v2.4c0,0.2,0.1,0.3,0.3,0.3h2.7c0.7,0,1.2,0.2,1.7,0.7c0.5,0.4,0.7,1,0.7,1.6v2.4c0,0.6-0.2,1.1-0.7,1.6s-1,0.7-1.7,0.7h-2.7
			c-0.2,0-0.3,0.1-0.3,0.3v2.5c0,0.2,0.1,0.3,0.3,0.3h4.5c0.7,0,1.2,0.2,1.6,0.7c0.4,0.5,0.7,1,0.7,1.7c0,0.3,0,0.5-0.1,0.6
			c-0.2,11.8-0.5,19.2-0.9,22.1c0,0,0,0.1,0.1,0.1c0,0,0.1,0,0.1,0c3.5-2.5,5.7-6.8,6.3-12.8c0-0.7,0.3-1.2,0.8-1.6
			c0.5-0.4,1-0.6,1.7-0.6l3.3,0.1c0.6,0,1.1,0.3,1.5,0.8c0.4,0.5,0.6,1,0.6,1.6c-0.2,1.4-0.4,2.7-0.7,4c0,0.2,0,0.3,0.1,0.5
			c2.4,2.7,4.1,4.6,4.8,5.7c0.1,0.2,0.3,0.2,0.4,0C458.3,146.6,459.6,143.1,460.1,138.4z M418.1,139.2c0-0.5,0.1-1,0.5-1.4
			c0.3-0.4,0.8-0.7,1.3-0.7c0.5,0,1,0.1,1.4,0.4c0.4,0.3,0.7,0.8,0.7,1.3c0.2,2.1,0.3,4.3,0.3,6.5c0,0.6,0,1.2,0,1.9
			c0,0.6-0.2,1.1-0.6,1.5c-0.4,0.5-0.9,0.7-1.5,0.8c-0.5,0.1-1-0.1-1.4-0.5c-0.4-0.4-0.6-0.9-0.5-1.4c0-1,0.1-2.1,0.1-3.1
			C418.3,142.8,418.2,141,418.1,139.2z M423.6,103.3c0-0.2-0.1-0.3-0.3-0.3h-2.5c-0.2,0-0.3,0.1-0.3,0.3v2.4c0,0.2,0.1,0.3,0.3,0.3
			h2.5c0.2,0,0.3-0.1,0.3-0.3V103.3z M423.4,116c0.2,0,0.3-0.1,0.3-0.3v-2.4c0-0.2-0.1-0.3-0.3-0.3h-2.5c-0.2,0-0.3,0.1-0.3,0.3v2.4
			c0,0.2,0.1,0.3,0.3,0.3H423.4z M420.9,123c-0.2,0-0.3,0.1-0.3,0.3v2.5c0,0.2,0.1,0.3,0.3,0.3h2.5c0.2,0,0.3-0.1,0.3-0.3v-2.5
			c0-0.2-0.1-0.3-0.3-0.3H420.9z M422.5,138.7c-0.1-0.5,0-0.9,0.3-1.4c0.3-0.4,0.7-0.7,1.2-0.8c0.5,0,1,0.1,1.4,0.4
			c0.4,0.3,0.7,0.7,0.8,1.2c0.6,2.5,0.9,4.9,1.1,7.1c0,0.6-0.1,1.1-0.5,1.5c-0.4,0.4-0.8,0.7-1.4,0.8c-0.5,0.1-1,0-1.4-0.4
			c-0.4-0.3-0.6-0.8-0.7-1.3C423.3,143.6,423,141.2,422.5,138.7z M449.3,116.2c-0.7,0-1.2-0.2-1.6-0.7c-0.4-0.5-0.7-1-0.7-1.7v-1.9
			c0-0.1,0-0.1-0.1-0.2c-0.1,0-0.1,0-0.2,0c-1.4,1.2-2.7,2.2-4.1,3.1c-0.5,0.3-1.1,0.4-1.6,0.2c-0.6-0.2-1-0.6-1.2-1.1
			c-0.7-1.4-1.4-2.8-2.2-4.1c-0.3-0.5-0.4-1.1-0.2-1.7c0.2-0.6,0.5-1,1-1.3c2.2-1.4,4.3-3.1,6.3-5.1c2-2.1,3.7-4.2,5-6.4
			c0.9-1.3,2.1-2,3.5-2h4c1.5,0,2.7,0.6,3.6,1.9c3.7,5.1,7.7,8.8,12.1,11.1c0.6,0.3,0.9,0.7,1,1.2c0.1,0.2,0.1,0.4,0.1,0.6
			c0,0.3-0.1,0.7-0.3,1c-0.8,1.4-1.7,2.9-2.6,4.6c-0.3,0.6-0.7,0.9-1.3,1.1c-0.6,0.2-1.1,0.1-1.7-0.3c-1.2-0.8-2.5-1.7-3.7-2.7
			c-0.1-0.1-0.2-0.1-0.2,0.1v1.6c0,0.7-0.2,1.2-0.7,1.7c-0.5,0.5-1,0.7-1.7,0.7H449.3z M442,135.4c-0.7,0-1.2-0.2-1.7-0.7
			c-0.5-0.5-0.7-1-0.7-1.7v-12.3c0-0.7,0.2-1.2,0.7-1.7c0.5-0.5,1-0.7,1.7-0.7h10.4c0.7,0,1.2,0.2,1.6,0.7c0.4,0.5,0.7,1,0.7,1.7
			V133c0,0.7-0.2,1.2-0.7,1.7c-0.4,0.5-1,0.7-1.6,0.7H442z M446.1,124.3c-0.2,0-0.3,0.1-0.3,0.3v4.5c0,0.2,0.1,0.3,0.3,0.3h1.9
			c0.2,0,0.3-0.1,0.3-0.3v-4.5c0-0.2-0.1-0.3-0.3-0.3H446.1z M449.9,108.9c0,0-0.1,0.1,0,0.1c0,0,0.1,0.1,0.1,0.1h11
			c0.1,0,0.1,0,0.2-0.1c0,0,0-0.1,0-0.1c-2.2-2.3-4.1-4.6-5.5-6.9c0,0-0.1-0.1-0.2-0.1c-0.1,0-0.1,0-0.2,0.1
			C453.9,104.3,452.1,106.6,449.9,108.9z M458.9,135.4c-0.7,0-1.2-0.2-1.7-0.7c-0.5-0.5-0.7-1-0.7-1.7v-12.3c0-0.7,0.2-1.2,0.7-1.7
			c0.5-0.5,1-0.7,1.7-0.7h10.9c0.7,0,1.2,0.2,1.7,0.7c0.5,0.5,0.7,1,0.7,1.7V133c0,0.7-0.2,1.2-0.7,1.7c-0.5,0.5-1,0.7-1.7,0.7
			H458.9z M463.1,124.3c-0.2,0-0.3,0.1-0.3,0.3v4.5c0,0.2,0.1,0.3,0.3,0.3h2.3c0.2,0,0.3-0.1,0.3-0.3v-4.5c0-0.2-0.1-0.3-0.3-0.3
			H463.1z"/>
		<path class="st0" d="M497.9,114.4c0.7,0,1.2,0.2,1.7,0.7c0.5,0.5,0.7,1,0.7,1.7v37.9c0,0.6-0.2,1.1-0.7,1.6
			c-0.5,0.5-1,0.7-1.7,0.7h-18.1c-0.7,0-1.2-0.2-1.6-0.7c-0.4-0.5-0.7-1-0.7-1.6v-4.1c0-0.7,0.2-1.2,0.7-1.7c0.4-0.5,1-0.7,1.6-0.7
			h10.6c0.2,0,0.3-0.1,0.3-0.3v-31.2c0-0.7,0.2-1.2,0.7-1.7c0.5-0.5,1-0.7,1.7-0.7H497.9z"/>
		<path d="M565.8,98.7c0.6,0,1.1,0.2,1.6,0.7c0.5,0.5,0.7,1,0.7,1.7v36.1c0,0.6-0.2,1.1-0.7,1.6c-0.5,0.5-1,0.7-1.6,0.7h-9.9
			c-0.2,0-0.3,0.1-0.3,0.3v3.1c0,0.6-0.2,1.1-0.7,1.6c-0.5,0.5-1,0.7-1.7,0.7h-4.1c-0.7,0-1.2-0.2-1.7-0.7c-0.5-0.5-0.7-1-0.7-1.6
			v-41.8c0-0.7,0.2-1.2,0.7-1.7c0.5-0.5,1-0.7,1.7-0.7H565.8z M559.2,107.9c0-0.2-0.1-0.3-0.3-0.3h-3c-0.2,0-0.3,0.1-0.3,0.3v22.3
			c0,0.2,0.1,0.3,0.3,0.3h3c0.2,0,0.3-0.1,0.3-0.3V107.9z M585.1,147.1h10.5c1.4,0,2.4-0.4,3-1.1c0.6-0.7,1-2.2,1.3-4.5
			c0-0.5,0.3-0.9,0.8-1.1c0.5-0.2,1-0.2,1.4,0c1.4,0.7,2.9,1.4,4.5,1.9c0.7,0.2,1.2,0.6,1.6,1.1c0.3,0.4,0.4,0.9,0.4,1.4
			c0,0.1,0,0.3-0.1,0.4c-0.7,4-1.9,6.8-3.6,8.4c-1.8,1.6-4.5,2.4-8.3,2.4h-12.6c-3.3,0-5.8-0.4-7.6-1.1c-1.7-0.8-3-2.1-3.8-4.1
			c-0.8-1.9-1.2-4.8-1.2-8.5V99.4c0-0.6,0.2-1.1,0.7-1.6c0.5-0.5,1-0.7,1.7-0.7h29.9c0.7,0,1.2,0.2,1.7,0.7c0.5,0.5,0.7,1,0.7,1.6
			v33.5c0,0.7-0.2,1.2-0.7,1.7c-0.5,0.5-1,0.7-1.7,0.7h-4.8c-0.7,0-1.2-0.2-1.7-0.7c-0.5-0.5-0.7-1-0.7-1.7v-1.1
			c0-0.2-0.1-0.3-0.3-0.3h-15.1c-0.2,0-0.3,0.1-0.3,0.3v10.5c0,2.1,0.2,3.5,0.7,4C582,146.8,583.2,147.1,585.1,147.1z M584.1,106.3
			c0-0.2-0.1-0.3-0.3-0.3h-2.6c-0.2,0-0.3,0.1-0.3,0.3v16.1c0,0.2,0.1,0.3,0.3,0.3h2.6c0.2,0,0.3-0.1,0.3-0.3V106.3z M596.2,122.7
			c0.2,0,0.3-0.1,0.3-0.3v-16.1c0-0.2-0.1-0.3-0.3-0.3h-3.1c-0.2,0-0.3,0.1-0.3,0.3v16.1c0,0.2,0.1,0.3,0.3,0.3H596.2z"/>
		<path d="M631.8,149.3c-1.4,1.4-3.1,2.1-5.2,2.1c-2.1,0-3.8-0.7-5.2-2.1c-1.4-1.4-2.1-3.1-2.1-5.3c0-2.1,0.7-3.9,2.1-5.3
			c1.4-1.4,3.1-2.1,5.2-2.1c2.1,0,3.8,0.7,5.2,2.1c1.4,1.4,2.1,3.2,2.1,5.3C633.9,146.2,633.2,147.9,631.8,149.3z M625,132.5
			c-0.7,0-1.2-0.2-1.7-0.7c-0.5-0.5-0.7-1-0.8-1.7l-1.5-20.6l-0.3-8.2c0-0.7,0.2-1.2,0.7-1.6c0.4-0.4,1-0.7,1.6-0.7h7.4
			c0.6,0,1.1,0.2,1.6,0.7c0.4,0.4,0.7,1,0.7,1.6l-0.3,8.2l-1.5,20.6c0,0.7-0.3,1.2-0.8,1.7c-0.5,0.5-1,0.7-1.7,0.7H625z"/>
	</g>
</g>
</svg>
