<?xml version="1.0" encoding="utf-8"?>
<!-- Generator: Adobe Illustrator 21.0.0, SVG Export Plug-In . SVG Version: 6.00 Build 0)  -->
<svg version="1.1" id="圖層_1" xmlns="http://www.w3.org/2000/svg" xmlns:xlink="http://www.w3.org/1999/xlink" x="0px" y="0px"
	 viewBox="0 0 393 215" style="enable-background:new 0 0 393 215;" xml:space="preserve">
<style type="text/css">
	.st0{fill:#475A46;}
	.st1{fill:#5B755A;}
	.st2{fill:#82AA81;}
	.st3{fill:#FFFFFF;}
	.st4{fill:#040000;}
</style>
<g>
	<g>
		<path class="st0" d="M38.5,6.7"/>
		<path class="st1" d="M372.3,42.2c0-11.3-9.2-26.1-21.6-31.9H38.5c-15,0-27.2,9.2-27.2,20.5v54.3c0,11.3,14.3,27.7,29.1,28.8
			l305.1,0.1c15,0,27.2-9.2,27.2-20.5L372.3,42.2z"/>
		<path class="st2" d="M372.7,42.2c0-9.8-12-17.7-26.8-17.7H43.2c-14.8,0-26.8,7.9-26.8,17.7v54.1c0,9.8,12,17.7,26.8,17.7h302.7
			c14.8,0,26.8-7.9,26.8-17.7V42.2z"/>
	</g>
	<g>
		<polygon class="st3" points="254.4,73.1 254.4,192 259.3,191.3 264.9,185 271,176.1 277.2,170.1 283.3,162.6 289.4,169.9 
			292,182.8 298.8,200.3 303.3,204.4 316.2,206.1 319.3,197.9 317.6,187.5 314.7,187.1 312.5,177.4 310.1,172.3 305.6,172.3 
			306.4,162.6 324.8,160.1 326.1,151.1 322.4,148.6 315.5,141 		"/>
		<g>
			<rect x="250.1" y="65.9" class="st4" width="6.1" height="129.1"/>
			<rect x="256.2" y="73.1" class="st4" width="6.1" height="7.5"/>
			<rect x="262.3" y="80.6" class="st4" width="6.1" height="7.5"/>
			<rect x="268.4" y="88.2" class="st4" width="6.1" height="7.5"/>
			<rect x="275.3" y="95.7" class="st4" width="6.1" height="7.5"/>
			<rect x="282.1" y="103.3" class="st4" width="6.1" height="7.5"/>
			<rect x="288.9" y="110.8" class="st4" width="6.1" height="7.5"/>
			<rect x="295.8" y="118.4" class="st4" width="6.1" height="7.5"/>
			<rect x="274.1" y="166.4" class="st4" width="6.1" height="7.5"/>
			<rect x="280.2" y="158.8" class="st4" width="6.1" height="7.5"/>
			<rect x="286.3" y="166.1" class="st4" width="6.1" height="7.5"/>
			<rect x="301.1" y="202.3" class="st4" width="18.2" height="7.5"/>
			<rect x="268" y="173.6" class="st4" width="6.1" height="7.5"/>
			<rect x="261.9" y="181.2" class="st4" width="6.1" height="7.5"/>
			<rect x="256.2" y="187.5" class="st4" width="6.1" height="7.5"/>
			<rect x="302.6" y="125.9" class="st4" width="6.1" height="7.5"/>
			<rect x="309.4" y="133.5" class="st4" width="6.1" height="7.5"/>
			<rect x="303.3" y="162.6" class="st4" width="6.1" height="9.7"/>
			<rect x="310.1" y="172.3" class="st4" width="6.1" height="14.8"/>
			<rect x="316.2" y="187.5" class="st4" width="6.1" height="14.8"/>
			<rect x="295" y="187.5" class="st4" width="6.1" height="14.8"/>
			<rect x="288.9" y="173.6" class="st4" width="6.1" height="18.3"/>
			<rect x="316.2" y="141" class="st4" width="6.1" height="7.5"/>
			<rect x="303.3" y="156.4" class="st4" width="22.8" height="7.5"/>
			<rect x="323.1" y="148.6" class="st4" width="6.1" height="15.4"/>
		</g>
	</g>
	<g>
		<path d="M174.2,60c0,0.4-0.2,0.8-0.5,1.2c-0.3,0.3-0.7,0.5-1.2,0.5h-10.8c-0.2,0-0.2,0.1-0.2,0.2v25c0,0.4-0.2,0.8-0.5,1.2
			c-0.3,0.3-0.7,0.5-1.2,0.5h-3.6c-0.4,0-0.8-0.2-1.2-0.5c-0.3-0.3-0.5-0.7-0.5-1.2V45.4c0-0.5,0.2-0.9,0.5-1.2
			c0.3-0.3,0.7-0.5,1.2-0.5h16.3c0.5,0,0.9,0.2,1.2,0.5c0.3,0.3,0.5,0.7,0.5,1.2V60z M167.6,48.8c0-0.1-0.1-0.2-0.2-0.2h-5.6
			c-0.2,0-0.2,0.1-0.2,0.2v1.3c0,0.2,0.1,0.2,0.2,0.2h5.6c0.1,0,0.2-0.1,0.2-0.2V48.8z M161.6,56.4c0,0.2,0.1,0.2,0.2,0.2h5.6
			c0.1,0,0.2-0.1,0.2-0.2V55c0-0.1-0.1-0.2-0.2-0.2h-5.6c-0.2,0-0.2,0.1-0.2,0.2V56.4z M188,76.3c0,0.4-0.2,0.8-0.5,1.2
			c-0.3,0.3-0.7,0.5-1.2,0.5h-2.9c-0.1,0-0.2,0.1-0.2,0.2V86c0,0.5-0.2,0.9-0.5,1.2c-0.3,0.3-0.7,0.5-1.2,0.5h-2.8
			c-0.5,0-0.9-0.2-1.2-0.5c-0.3-0.3-0.5-0.7-0.5-1.2v-7.8c0-0.2-0.1-0.2-0.2-0.2h-3c-0.2,0-0.3,0.1-0.3,0.2c-0.7,4-2.3,7.1-4.8,9.5
			c-0.4,0.3-0.8,0.5-1.3,0.4c-0.5,0-0.9-0.2-1.2-0.6c-0.6-0.6-1.3-1.2-2-1.8c-0.3-0.3-0.5-0.6-0.5-1c0-0.4,0.2-0.7,0.5-1
			c1.5-1.4,2.5-3.2,3.1-5.5c0-0.1,0-0.2-0.1-0.2h-2.4c-0.4,0-0.8-0.2-1.2-0.5c-0.3-0.3-0.5-0.7-0.5-1.2V74c0-0.5,0.2-0.9,0.5-1.2
			c0.3-0.3,0.7-0.5,1.2-0.5h2.6c0.1,0,0.2-0.1,0.2-0.2v-2.4c0-0.1-0.1-0.2-0.2-0.2h-2c-0.5,0-0.9-0.2-1.2-0.5
			c-0.3-0.3-0.5-0.7-0.5-1.2v-2.1c0-0.5,0.2-0.9,0.5-1.2c0.3-0.3,0.7-0.5,1.2-0.5h20.1c0.5,0,0.9,0.2,1.2,0.5
			c0.3,0.3,0.5,0.7,0.5,1.2v2.1c0,0.5-0.2,0.9-0.5,1.2c-0.3,0.3-0.7,0.5-1.2,0.5h-2.2c-0.1,0-0.2,0.1-0.2,0.2V72
			c0,0.1,0.1,0.2,0.2,0.2h2.9c0.4,0,0.8,0.2,1.2,0.5c0.3,0.3,0.5,0.7,0.5,1.2V76.3z M173.8,72c0,0.1,0.1,0.2,0.2,0.2h2.8
			c0.2,0,0.2-0.1,0.2-0.2v-2.4c0-0.1-0.1-0.2-0.2-0.2H174c-0.2,0-0.2,0.1-0.2,0.2V72z M195.2,43.6c0.5,0,0.9,0.2,1.2,0.5
			c0.3,0.3,0.5,0.7,0.5,1.2v35.2c0,1.8-0.2,3.2-0.5,4.2c-0.4,1-1,1.8-2,2.4c-1.4,0.8-3.7,1.3-6.7,1.3c-0.5,0-0.9-0.2-1.2-0.5
			c-0.4-0.3-0.6-0.7-0.7-1.2c-0.3-1.3-0.7-2.6-1.1-3.8c-0.1-0.4-0.1-0.7,0.1-1c0.2-0.3,0.5-0.5,0.9-0.5c0.9,0,2,0,3.2,0
			c0.4,0,0.6-0.1,0.8-0.2c0.1-0.2,0.2-0.4,0.2-0.8V62c0-0.2-0.1-0.2-0.2-0.2h-11.1c-0.5,0-0.9-0.2-1.2-0.5c-0.3-0.3-0.5-0.7-0.5-1.2
			V45.4c0-0.5,0.2-0.9,0.5-1.2c0.3-0.3,0.7-0.5,1.2-0.5H195.2z M189.8,48.8c0-0.1-0.1-0.2-0.2-0.2h-5.8c-0.1,0-0.2,0.1-0.2,0.2v1.3
			c0,0.2,0.1,0.2,0.2,0.2h5.8c0.2,0,0.2-0.1,0.2-0.2V48.8z M183.6,56.6c0,0.2,0.1,0.2,0.2,0.2h5.8c0.2,0,0.2-0.1,0.2-0.2V55
			c0-0.1-0.1-0.2-0.2-0.2h-5.8c-0.1,0-0.2,0.1-0.2,0.2V56.6z"/>
		<path d="M223.6,64.4c-0.5,0-0.9-0.1-1.3-0.4c-0.4-0.3-0.6-0.7-0.6-1.2l-0.4-3.9h0c-0.6,5.8-1.7,10.8-3.3,14.9c0,0.1,0,0.2,0.1,0.3
			c1.6,1.3,2.9,2.5,3.8,3.6c0.4,0.4,0.5,0.8,0.5,1.3c0,0.5-0.1,1-0.4,1.3l-2.3,3c-0.3,0.4-0.6,0.5-1,0.5c-0.4,0-0.8-0.2-1.1-0.5
			c-0.7-0.9-1.6-1.9-2.8-3c-0.1-0.1-0.2-0.1-0.2,0c-1.9,2.9-4.2,5.3-7.1,7.4c-0.4,0.3-0.8,0.3-1.2,0.2c-0.4-0.1-0.8-0.4-1.1-0.7
			c-0.7-1.1-1.4-2.1-2.2-3c-0.3-0.4-0.4-0.7-0.3-1.2c0-0.4,0.2-0.7,0.6-1c2.4-1.6,4.4-3.7,6-6.3c0.1-0.1,0.1-0.2,0-0.3
			c-0.2-0.1-0.4-0.3-0.7-0.6c-0.3-0.3-0.6-0.5-0.8-0.6c-0.1-0.1-0.1-0.1-0.1,0c-0.1,0.3-0.3,0.6-0.6,0.7c-0.3,0.1-0.6,0.1-0.9,0
			l-3.1-1.7c-0.4-0.2-0.8-0.6-1-1c-0.1-0.3-0.1-0.6-0.1-0.9c0-0.2,0-0.4,0-0.6c0.9-3.3,1.9-7.6,3-12.7c0-0.2,0-0.2-0.1-0.2h-1.2
			c-0.4,0-0.8-0.2-1.2-0.5c-0.3-0.3-0.5-0.7-0.5-1.2v-3.2c0-0.5,0.2-0.9,0.5-1.2c0.3-0.3,0.7-0.5,1.2-0.5h2.5c0.1,0,0.2-0.1,0.2-0.2
			c0.5-2.9,1-5.5,1.4-7.8c0.1-0.4,0.3-0.8,0.7-1.1c0.4-0.3,0.7-0.4,1.1-0.4c0.1,0,0.1,0,0.2,0l3.3,0.4c0.4,0,0.8,0.2,1.1,0.6
			c0.3,0.4,0.4,0.8,0.3,1.3c-0.5,2.6-1,5-1.4,7c0,0.1,0,0.2,0.2,0.2h2.6c1.7,0,2.9,0,3.4,0.1l0.8,0.1c0.5,0.1,0.9,0.3,1.2,0.7
			c0.3,0.4,0.4,0.8,0.4,1.3c-0.1,1.3-0.2,2.5-0.3,3.8c0,0.1,0,0.2,0.2,0.2l3.4-0.2c0.1,0,0.2-0.1,0.3-0.2c1.6-4.7,2.8-9.3,3.6-13.8
			c0.1-0.4,0.3-0.8,0.7-1.1c0.4-0.3,0.8-0.4,1.3-0.3l4.6,0.8c0.4,0.1,0.8,0.3,1,0.7c0.2,0.4,0.3,0.8,0.1,1.2
			c-1.4,4.4-2.9,8.4-4.3,12.1c0,0.1,0,0.2,0.1,0.2l6.2-0.4c0.2,0,0.2-0.1,0.1-0.2c-0.5-1-1.1-1.9-1.6-2.7c-0.3-0.4-0.3-0.8-0.2-1.2
			c0.1-0.4,0.4-0.7,0.8-0.9l2.6-1.3c0.4-0.2,0.9-0.3,1.3-0.1c0.5,0.1,0.8,0.4,1.1,0.8c2.7,4,4.6,7.5,5.8,10.5
			c0.1,0.2,0.1,0.4,0.1,0.7c0,0.2,0,0.5-0.1,0.7c-0.2,0.4-0.5,0.8-1,1l-3.2,1.7c-0.4,0.2-0.8,0.2-1.2,0c-0.4-0.2-0.7-0.5-0.8-0.9
			c-0.2-0.4-0.4-0.9-0.6-1.5c-0.1-0.1-0.2-0.2-0.3-0.2C236.4,63.5,230.4,63.9,223.6,64.4z M214.7,58.3c0-0.2-0.1-0.2-0.2-0.2h-2.7
			c-0.1,0-0.2,0.1-0.2,0.2c-0.9,3.8-1.6,6.8-2.1,9.2c-0.1,0.1,0,0.2,0.1,0.3c1.3,0.9,2.2,1.5,2.5,1.7c0.1,0.1,0.2,0.1,0.2,0
			C213.4,66.3,214.2,62.6,214.7,58.3z M225.9,88.6c-0.4,0-0.8-0.2-1.2-0.5c-0.3-0.3-0.5-0.7-0.5-1.2V69.4c0-0.5,0.2-0.9,0.5-1.2
			c0.3-0.3,0.7-0.5,1.2-0.5h18.8c0.5,0,0.9,0.2,1.2,0.5c0.3,0.3,0.5,0.7,0.5,1.2v17.4c0,0.4-0.2,0.8-0.5,1.2
			c-0.3,0.3-0.7,0.5-1.2,0.5h-4c-0.4,0-0.7-0.1-1-0.4c-0.3-0.3-0.4-0.6-0.4-1c0-0.1-0.1-0.2-0.2-0.2h-8c-0.1,0-0.2,0.1-0.2,0.2
			c0,0.4-0.2,0.8-0.5,1.1c-0.3,0.3-0.7,0.5-1.1,0.5H225.9z M239.4,74.3c0-0.2-0.1-0.2-0.2-0.2h-8c-0.1,0-0.2,0.1-0.2,0.2v5.9
			c0,0.1,0.1,0.2,0.2,0.2h8c0.1,0,0.2-0.1,0.2-0.2V74.3z"/>
	</g>
</g>
</svg>
