<svg id="圖層_1" data-name="圖層 1" xmlns="http://www.w3.org/2000/svg" viewBox="0 0 612 143.89"><defs><style>.cls-1{fill:#f08b68;}.cls-2{fill:#e4e539;}.cls-3{fill:#e71f19;}</style></defs><title>06_0_2</title><polygon class="cls-1" points="612 0 0 24.34 0 143.89 612 118.99 612 0"/><path class="cls-2" d="M68.94,589.51a1.17,1.17,0,0,1-.34.91,1.31,1.31,0,0,1-.88.4l-6.44.22c-.1,0-.12.05-.07.14a15.75,15.75,0,0,0,7.92,8,.8.8,0,0,1,.53.63,1,1,0,0,0,0,.19,1.06,1.06,0,0,1-.2.62,21.87,21.87,0,0,0-2.18,3.12,1.48,1.48,0,0,1-.77.62,1.24,1.24,0,0,1-1-.05,19,19,0,0,1-8.18-9s0,0,0,0-.06,0-.06,0a20.5,20.5,0,0,1-7.5,9.57,1.31,1.31,0,0,1-1,.22,1.53,1.53,0,0,1-.9-.51,24.4,24.4,0,0,0-2.18-2.25.78.78,0,0,1-.3-.73.85.85,0,0,1,.43-.69,14.74,14.74,0,0,0,7.07-9.37c0-.13,0-.19-.11-.18l-5.22.18a1.3,1.3,0,0,1-.93-.33,1.21,1.21,0,0,1-.41-.89l-.09-2.54a1.27,1.27,0,0,1,.35-.94,1.25,1.25,0,0,1,.91-.41l6-.2c.1,0,.15-.06.14-.15,0-.58,0-1.44,0-2.57l-.11-3q0-.18-.15-.18l-5.61.19c-.12,0-.15.06-.1.15.26.62.49,1.18.67,1.68a1.36,1.36,0,0,1,0,1,1.34,1.34,0,0,1-.71.75l-1.54.78a1,1,0,0,1-.9,0,1.08,1.08,0,0,1-.61-.66c-.19-.6-.43-1.29-.72-2.08,0,0,0,0,0,0l.75,22a1.2,1.2,0,0,1-.35.9,1.26,1.26,0,0,1-.91.42l-2.75.09a1.26,1.26,0,0,1-.94-.35,1.2,1.2,0,0,1-.41-.87l-.67-19.59c-.16,1.14-.33,2.17-.51,3.1a1.05,1.05,0,0,1-.55.76,1.29,1.29,0,0,1-1,.12l-1.5-.49a1.35,1.35,0,0,1-.79-.66,1.42,1.42,0,0,1-.16-.61,1.45,1.45,0,0,1,0-.36,52.49,52.49,0,0,0,1-7.36,1.29,1.29,0,0,1,.44-.89,1.18,1.18,0,0,1,.93-.28l1.71.19c.1,0,.15,0,.14-.15l-.22-6.44a1.27,1.27,0,0,1,.35-.94,1.25,1.25,0,0,1,.91-.41l2.75-.09a1.22,1.22,0,0,1,.94.35,1.23,1.23,0,0,1,.41.91l.19,5.64c0,.1.06.12.15.07l.68-.31a1.23,1.23,0,0,1,1-.05,1.26,1.26,0,0,1,.75.68c.39.78.82,1.68,1.29,2.71,0,0,0,0,0,0l-.12-3.41a1.23,1.23,0,0,1,.35-.93,1.26,1.26,0,0,1,.91-.42l4.52-.15c.1,0,.15,0,.14-.15l-.13-4a1.28,1.28,0,0,1,1.25-1.35l2.86-.1a1.28,1.28,0,0,1,.94.35,1.27,1.27,0,0,1,.41.91l.14,4c0,.1.05.15.15.14l6.48-.22a1.3,1.3,0,0,1,1.35,1.26l.32,9.38c0,.09.05.14.15.14l.44,0a1.23,1.23,0,0,1,.9.35,1.25,1.25,0,0,1,.41.91Zm-10-9.38c-.1,0-.14.07-.14.19l.1,3c0,.61,0,1.45,0,2.54,0,.1,0,.14.15.14l2.42-.08c.1,0,.15-.06.14-.15l-.18-5.54c0-.12-.06-.18-.16-.18Z" transform="translate(0 -508.99)"/><path class="cls-2" d="M83.24,584.66a1,1,0,0,1,.91.14,1.15,1.15,0,0,1,.54.79l.37,2.38a1.48,1.48,0,0,1-.2,1,1.29,1.29,0,0,1-.83.59c-1.34.41-2.23.67-2.66.78a.21.21,0,0,0-.14.23l.27,7.82a8,8,0,0,1-.3,2.92A3,3,0,0,1,79.85,603a10.59,10.59,0,0,1-4.71,1.14h0a1.34,1.34,0,0,1-.92-.33,1.55,1.55,0,0,1-.57-.89,21.23,21.23,0,0,0-.81-2.36.83.83,0,0,1,0-.82.71.71,0,0,1,.67-.37l2-.07a.81.81,0,0,0,.56-.18.73.73,0,0,0,.14-.53L76,592.05c0-.12-.07-.16-.19-.14l-1.94.54a1.21,1.21,0,0,1-1-.09,1.3,1.3,0,0,1-.64-.79L71.5,589a1.39,1.39,0,0,1,0-.33,1.34,1.34,0,0,1,.94-1.19c1.27-.29,2.36-.54,3.27-.77a.2.2,0,0,0,.18-.22l-.19-5.32a.16.16,0,0,0-.18-.18l-2.79.1a1.24,1.24,0,0,1-.9-.35,1.21,1.21,0,0,1-.41-.87l-.09-2.43a1.3,1.3,0,0,1,1.23-1.31l2.79-.1c.12,0,.17-.06.17-.18l-.18-5.36a1.24,1.24,0,0,1,.33-.94,1.19,1.19,0,0,1,.89-.41l2.68-.09a1.31,1.31,0,0,1,1.35,1.26l.18,5.36c0,.12,0,.18.15.17l2.28-.08a1.24,1.24,0,0,1,.92.35,1.25,1.25,0,0,1,.39.88l.09,2.42a1.23,1.23,0,0,1-.34.9,1.19,1.19,0,0,1-.89.41l-2.28.08c-.1,0-.14.07-.14.19l.15,4.16c0,.1,0,.13.14.11C81.46,585.15,82.14,585,83.24,584.66Zm16.43-1.9a1.22,1.22,0,0,1,.72-.64,1.06,1.06,0,0,1,.93.11l2.25,1.27a1.41,1.41,0,0,1,.67.79,1.32,1.32,0,0,1-.06,1,39.86,39.86,0,0,1-5.78,9,.21.21,0,0,0,0,.26,4.16,4.16,0,0,0,2.76,2.12c.21,0,.4-.13.56-.42a4.64,4.64,0,0,0,.39-1.39,20.15,20.15,0,0,0,.2-2.48.51.51,0,0,1,.33-.53.6.6,0,0,1,.64.1,21.94,21.94,0,0,0,2.52,1.58,2.27,2.27,0,0,1,.79.81,1.68,1.68,0,0,1,.2.75,1,1,0,0,1,0,.3c-.43,2.93-1.1,5-2,6.15a3.63,3.63,0,0,1-2.77,1.62,1.27,1.27,0,0,1-.33,0,9.45,9.45,0,0,1-7.33-4.39c-.08-.1-.15-.11-.22,0a35,35,0,0,1-4.81,3.43,1.6,1.6,0,0,1-1,.18,1.55,1.55,0,0,1-.92-.51,22.09,22.09,0,0,0-2.58-2.31.69.69,0,0,1-.31-.57.72.72,0,0,1,.41-.7,29.21,29.21,0,0,0,6.84-4.62.23.23,0,0,0,.06-.29A56.32,56.32,0,0,1,89.6,583.1c0-.09-.06-.14-.18-.13l-2.56.34a1.16,1.16,0,0,1-.94-.24,1.33,1.33,0,0,1-.51-.84l-.35-2.59a1.34,1.34,0,0,1,.26-1,1.31,1.31,0,0,1,.85-.5l2.67-.31a.16.16,0,0,0,.14-.18c-.22-2.17-.41-4.66-.58-7.49a1.25,1.25,0,0,1,.33-.89,1.2,1.2,0,0,1,.89-.42l2.94-.1a1.3,1.3,0,0,1,.93.33,1.21,1.21,0,0,1,.41.9q.13,3.65.46,7c0,.09,0,.14.15.14l4.73-.6q.15,0,0-.15c-.68-.89-1.93-2.31-3.73-4.26a1.06,1.06,0,0,1-.29-.87,1.12,1.12,0,0,1,.48-.8l1.91-1.3a1.47,1.47,0,0,1,1-.29,1.53,1.53,0,0,1,.94.44q2.58,2.57,3.38,3.4a1,1,0,0,1,.3.9,1.2,1.2,0,0,1-.46.81l-2.66,1.91s0,0,0,0l0,0,3.87-.46a1.15,1.15,0,0,1,.93.24,1.36,1.36,0,0,1,.52.87l.33,2.42a1.3,1.3,0,0,1-.25,1,1.16,1.16,0,0,1-.86.49l-9.63,1.31c-.12,0-.18.06-.17.18a51.36,51.36,0,0,0,1.15,6.16s0,.07.06.07a.12.12,0,0,0,.09,0A31.46,31.46,0,0,0,99.67,582.76Z" transform="translate(0 -508.99)"/><path class="cls-2" d="M140.18,568.61a1.26,1.26,0,0,1,.92.33,1.21,1.21,0,0,1,.39.89l.91,26.29a9.05,9.05,0,0,1-.35,3.22,3.48,3.48,0,0,1-1.55,1.85,12.74,12.74,0,0,1-5.5,1.2h0a1.45,1.45,0,0,1-1-.33,1.61,1.61,0,0,1-.58-.88,17.38,17.38,0,0,0-1.07-2.87.74.74,0,0,1,0-.76.66.66,0,0,1,.65-.35c.92,0,2,0,3.23-.07a1.2,1.2,0,0,0,.66-.24.87.87,0,0,0,.18-.66L136.34,574c0-.1-.06-.14-.18-.14l-21.22.73c-.12,0-.18.06-.18.15l.93,27a1.3,1.3,0,0,1-1.22,1.31l-2.68.09a1.2,1.2,0,0,1-.92-.35,1.23,1.23,0,0,1-.39-.87l-1.07-31a1.2,1.2,0,0,1,.34-.91,1.26,1.26,0,0,1,.89-.4Zm-6.75,7.23a1.21,1.21,0,0,1,.94.35,1.23,1.23,0,0,1,.41.91l.07,1.88a1.31,1.31,0,0,1-1.26,1.35l-15.79.54a1.31,1.31,0,0,1-1.35-1.26l-.06-1.88a1.3,1.3,0,0,1,1.26-1.35Zm.49,18.29a1.3,1.3,0,0,1-1.26,1.34l-8.87.31q-.18,0-.18.15l0,.9a1.3,1.3,0,0,1-1.22,1.32l-2.35.08a1.28,1.28,0,0,1-.94-.35,1.24,1.24,0,0,1-.41-.88l-.43-12.63a1.25,1.25,0,0,1,.34-.94,1.27,1.27,0,0,1,.91-.41l12.68-.44a1.3,1.3,0,0,1,1.34,1.26Zm-5.2-6.86c0-.12-.07-.18-.19-.17l-5,.17c-.13,0-.18.07-.18.19l.13,3.73a.16.16,0,0,0,.19.17l5-.17c.12,0,.18-.07.17-.19Z" transform="translate(0 -508.99)"/><path class="cls-2" d="M176.71,578.92a.13.13,0,0,0,.15.14l1.27,0a1.25,1.25,0,0,1,.94.34,1.27,1.27,0,0,1,.41.91l.19,5.54a1.18,1.18,0,0,1-.35.92,1.34,1.34,0,0,1-.91.4l-2.75.09a1.32,1.32,0,0,1-.94-.33,1.19,1.19,0,0,1-.41-.89l-.1-2.86c0-.1-.05-.15-.15-.14l-22.3.76a.13.13,0,0,0-.14.15l.1,2.86a1.24,1.24,0,0,1-.35.92,1.34,1.34,0,0,1-.91.4l-2.5.08a1.34,1.34,0,0,1-.94-.33,1.19,1.19,0,0,1-.41-.89l-.19-5.54a1.3,1.3,0,0,1,.35-.94,1.27,1.27,0,0,1,.91-.41l1.34,0a.12.12,0,0,0,.14-.14l-.93-10.27a.88.88,0,0,1,.3-.82,1,1,0,0,1,.86-.27l1.2.18a.54.54,0,0,0,.32-.05,32.2,32.2,0,0,0,3.61-1.57,1.72,1.72,0,0,1,.72-.17,1.45,1.45,0,0,1,.36,0,1.72,1.72,0,0,1,1,.55l.76.84a1,1,0,0,1,.25.86.89.89,0,0,1-.53.67,33.5,33.5,0,0,1-3.54,1.36.22.22,0,0,0-.13.22l0,.11c0,.12.06.18.18.17l3.15-.11a1.3,1.3,0,0,1,1.31,1.23l0,.65a1.31,1.31,0,0,1-.35.94,1.28,1.28,0,0,1-.88.41l-3,.1c-.12,0-.17.05-.14.15l0,.54a.17.17,0,0,0,.19.18l3-.11a1.25,1.25,0,0,1,.88.32,1.15,1.15,0,0,1,.39.83c0,.1.05.14.15.11.57-.31,1.09-.62,1.56-.92a.17.17,0,0,0,0-.1s0-.06-.07-.08l-.26-.14-.3-.17a.79.79,0,0,1-.45-.66.94.94,0,0,1,.26-.79l.42-.37a2,2,0,0,1,1.21-.51,1.8,1.8,0,0,1,.92.22,5.11,5.11,0,0,1,.74.37.2.2,0,0,0,.25,0l.21-.19a2,2,0,0,1,1.46-.78,2,2,0,0,1,.58.09l.95.22a.92.92,0,0,1,.62.58.77.77,0,0,1-.13.82c-.24.3-.49.6-.77.9-.07.09-.06.17,0,.21l.71.48a1,1,0,0,1,.42.81,1,1,0,0,1-.37.86l-.63.57a1.29,1.29,0,0,1-.93.37,1.59,1.59,0,0,1-1-.34l-.67-.49c-.1-.07-.18-.07-.25,0a25.52,25.52,0,0,1-2.48,1.68c0,.05,0,.07,0,.07l10.9-.37c.12,0,.18-.06.17-.15l.06-.55c0-.1,0-.14-.15-.14l-2.47.08a1.23,1.23,0,0,1-.93-.34,1.27,1.27,0,0,1-.41-.91l0-.66a1.21,1.21,0,0,1,.35-.91,1.34,1.34,0,0,1,.91-.4l2.76-.09a.16.16,0,0,0,.17-.19l0-.54c0-.1-.07-.15-.19-.14l-2.71.09a1.3,1.3,0,0,1-1.35-1.26l0-.65a1.16,1.16,0,0,1,.35-.9,1.23,1.23,0,0,1,.91-.41l3-.1c.1,0,.15-.07.14-.19l0-.51c0-.12-.05-.18-.15-.17l-3.15.1a1.22,1.22,0,0,1-.93-.33,1.2,1.2,0,0,1-.42-.89l0-.69a1.23,1.23,0,0,1,.35-.93,1.25,1.25,0,0,1,.91-.41l7.28-.25a1.19,1.19,0,0,1,.92.34,1.22,1.22,0,0,1,.35.92C177,572.23,176.9,575.84,176.71,578.92Zm-8.08,5.24a4.19,4.19,0,0,1,.47,0,1.87,1.87,0,0,1,1.28.46l1.31,1.16a1,1,0,0,1,.37.82,1.07,1.07,0,0,1-.38.84q-1.85,1.49-4,3a0,0,0,0,0,0,0s0,0,0,0l10.47-.35a1.2,1.2,0,0,1,.93.35,1.23,1.23,0,0,1,.41.9l.06,1.63a1.24,1.24,0,0,1-.35.9,1.28,1.28,0,0,1-.91.42l-12.17.41c-.09,0-.14.07-.13.19l.05,1.56a6,6,0,0,1-.4,2.75,3.25,3.25,0,0,1-1.7,1.49,16.16,16.16,0,0,1-5.23.87h0a1.56,1.56,0,0,1-1-.3,1.9,1.9,0,0,1-.65-.88,14.27,14.27,0,0,0-.87-2.11.79.79,0,0,1,.06-.76.66.66,0,0,1,.63-.35l3.11-.11a1.07,1.07,0,0,0,.59-.14.54.54,0,0,0,.15-.46l-.05-1.38c0-.12,0-.18-.15-.17l-12.06.41a1.18,1.18,0,0,1-.91-.35,1.29,1.29,0,0,1-.4-.87l-.05-1.63a1.31,1.31,0,0,1,.33-.94,1.19,1.19,0,0,1,.89-.41l12.06-.41a.14.14,0,0,0,.14-.15v0a1.28,1.28,0,0,1,1.25-1.35l1.09,0a.66.66,0,0,0,.32-.08c.43-.35.77-.64,1-.87a.06.06,0,0,0,0-.07s0,0-.05,0l-9.38.32a1.24,1.24,0,0,1-.9-.35,1.27,1.27,0,0,1-.41-.91l0-1.13a1.23,1.23,0,0,1,.35-.93,1.2,1.2,0,0,1,.87-.41l13.69-.47A.92.92,0,0,0,168.63,584.16ZM154.21,579c-.13,0-.17.06-.14.15l.05.54c0,.1.07.15.19.14l5.64-.19a.05.05,0,0,0,.06,0,.07.07,0,0,0,0-.07c-.75-.65-1.3-1.1-1.64-1.36,0,0-.08,0-.08,0a.65.65,0,0,1-.18.5.59.59,0,0,1-.44.21Zm11.56-9.38a1,1,0,0,1,.45.8,1.09,1.09,0,0,1-.35.86l-.57.49a1.53,1.53,0,0,1-1,.4,1.61,1.61,0,0,1-1-.3l-.52-.38a.23.23,0,0,0-.29,0c-.45.33-.92.65-1.42,1a1.45,1.45,0,0,1-1,.23,1.89,1.89,0,0,1-1-.45l-.81-.63a.79.79,0,0,1-.32-.69.68.68,0,0,1,.42-.61c.42-.24.83-.47,1.2-.7a.09.09,0,0,0,0-.18,3,3,0,0,1-.44-.24.76.76,0,0,1-.46-.65.93.93,0,0,1,.26-.79l.39-.34a2,2,0,0,1,1.21-.51,1.91,1.91,0,0,1,.92.22l.7.34a.2.2,0,0,0,.25-.05,1,1,0,0,1,.18-.15,2.08,2.08,0,0,1,1.46-.74,1.92,1.92,0,0,1,.61.09l.92.22a.89.89,0,0,1,.6.56.8.8,0,0,1-.12.8c-.23.28-.49.56-.77.86a.14.14,0,0,0,0,.22C165.46,569.39,165.62,569.5,165.77,569.62Z" transform="translate(0 -508.99)"/><path class="cls-2" d="M182.74,580.23a1.27,1.27,0,0,1,.35-.9,1.29,1.29,0,0,1,.91-.41l31.93-1.09a1.24,1.24,0,0,1,.94.35,1.2,1.2,0,0,1,.41.87l.12,3.33a1.3,1.3,0,0,1-.35.94,1.27,1.27,0,0,1-.91.41l-31.94,1.09a1.23,1.23,0,0,1-.93-.34,1.28,1.28,0,0,1-.42-.91Z" transform="translate(0 -508.99)"/><path class="cls-2" d="M232.6,587.08c-.1,0-.14,0-.14.15l.17,5a.19.19,0,0,0,.15.21,30.51,30.51,0,0,0,6.36.29l5.28-.14c3.79-.13,7.09-.3,9.88-.49a.67.67,0,0,1,.67.3,1.19,1.19,0,0,1,.12.4.88.88,0,0,1-.06.33,17.41,17.41,0,0,0-1,3,1.76,1.76,0,0,1-.57.92,1.6,1.6,0,0,1-1,.4l-13.18.45a31.54,31.54,0,0,1-8.4-.62,10.35,10.35,0,0,1-5.4-3.29.07.07,0,0,0-.08,0l-.07.06a30.42,30.42,0,0,1-.89,4.67,1,1,0,0,1-.59.67,1.27,1.27,0,0,1-.4.09,1.13,1.13,0,0,1-.54-.13c-.67-.31-1.42-.65-2.25-1a1.19,1.19,0,0,1-.71-.66,1.63,1.63,0,0,1-.13-.54,1.51,1.51,0,0,1,.06-.48c.89-3,1.26-7.63,1.11-14a1.14,1.14,0,0,1,.37-.89,1.16,1.16,0,0,1,.9-.35l2.32.1a1.28,1.28,0,0,1,.92.4,1.35,1.35,0,0,1,.39.93c0,1.28,0,2.35,0,3.19a1.14,1.14,0,0,0,0,.33,12.59,12.59,0,0,0,1.58,2.88.13.13,0,0,0,.08,0s0,0,0-.07l-.33-9.6c0-.09-.07-.14-.19-.14l-5.86.21a1.24,1.24,0,0,1-.9-.35,1.27,1.27,0,0,1-.41-.91l-.08-2.14a1.31,1.31,0,0,1,.35-.94,1.24,1.24,0,0,1,.88-.41l4.77-.16c.12,0,.18-.06.18-.15l-.08-2.43c0-.09-.07-.14-.19-.14l-3.69.13a1.2,1.2,0,0,1-.92-.35,1.27,1.27,0,0,1-.39-.91l-.07-2.06a1.17,1.17,0,0,1,.33-.92,1.21,1.21,0,0,1,.89-.39l3.69-.13a.17.17,0,0,0,.18-.19l-.07-1.81a1.24,1.24,0,0,1,.35-.92,1.25,1.25,0,0,1,.88-.39l2.5-.08a1.21,1.21,0,0,1,.9.33,1.19,1.19,0,0,1,.41.89l.06,1.81a.16.16,0,0,0,.19.17l3.73-.12a1.22,1.22,0,0,1,.93.33,1.19,1.19,0,0,1,.41.89l.07,2.06a1.25,1.25,0,0,1-.34.94,1.27,1.27,0,0,1-.91.41l-3.73.13c-.13,0-.18,0-.18.15l.08,2.43c0,.09.07.14.19.13l4.67-.16a1.24,1.24,0,0,1,.9.35,1.27,1.27,0,0,1,.41.91l.08,2.14a1.31,1.31,0,0,1-.35.94,1.28,1.28,0,0,1-.88.41l-3.73.12a.14.14,0,0,0-.14.15l.1,2.83c0,.12.06.18.15.17l3.37-.11a1.3,1.3,0,0,1,.93.33,1.2,1.2,0,0,1,.42.89l.07,2.07A1.3,1.3,0,0,1,236,587ZM247,573.71q.18,0,.18-.15l-.15-4.2c0-.12-.06-.17-.18-.17l-7.72.26a1.26,1.26,0,0,1-1.31-1.22l-.07-2.14a1.23,1.23,0,0,1,.35-.93,1.2,1.2,0,0,1,.87-.41l11.81-.41a1.27,1.27,0,0,1,.9.35,1.31,1.31,0,0,1,.41.91l.42,12.2a1.28,1.28,0,0,1-.35.94,1.24,1.24,0,0,1-.88.41l-3.11.11a.76.76,0,0,1-.57-.22.83.83,0,0,1-.26-.59.09.09,0,0,0-.11-.1l-3.4.11a.17.17,0,0,0-.18.19l.22,6.26a2,2,0,0,0,.3,1.3,1.94,1.94,0,0,0,1.24.21l3.26-.11a1.13,1.13,0,0,0,1.08-.65,8.22,8.22,0,0,0,.32-2.7.68.68,0,0,1,.36-.65.78.78,0,0,1,.78,0,13.9,13.9,0,0,0,2.35.89,1.78,1.78,0,0,1,.89.59,1.5,1.5,0,0,1,.28.82.81.81,0,0,1,0,.19c-.23,2.35-.74,4-1.51,4.87a5.1,5.1,0,0,1-3.85,1.44l-4.56.15q-3.4.12-4.69-1.18c-.85-.86-1.31-2.51-1.4-5l-.33-9.81a1.28,1.28,0,0,1,1.22-1.35Z" transform="translate(0 -508.99)"/><path class="cls-3" d="M292.89,586.6a1.23,1.23,0,0,1-.93-.35,1.25,1.25,0,0,1-.41-.91l-.72-21a1.21,1.21,0,0,1,.35-.94,1.23,1.23,0,0,1,.91-.41l10-.35a1.22,1.22,0,0,1,.92.35,1.34,1.34,0,0,1,.4.91l.07,2.25a1.22,1.22,0,0,1-.33.93,1.2,1.2,0,0,1-.89.42l-5.86.2c-.1,0-.15,0-.14.15l.59,17.27a1.23,1.23,0,0,1-.35.93,1.26,1.26,0,0,1-.91.42Z" transform="translate(0 -508.99)"/><path class="cls-3" d="M337.18,574.75a.13.13,0,0,0,.15.14l1.27,0A1.28,1.28,0,0,1,340,576.1l.19,5.54a1.24,1.24,0,0,1-.35.92,1.29,1.29,0,0,1-.91.39l-2.75.1a1.32,1.32,0,0,1-.94-.33,1.19,1.19,0,0,1-.41-.89l-.1-2.86c0-.1-.05-.15-.15-.14l-22.3.76a.13.13,0,0,0-.14.15l.1,2.86a1.24,1.24,0,0,1-.35.92,1.29,1.29,0,0,1-.91.39l-2.5.09a1.32,1.32,0,0,1-.94-.33,1.19,1.19,0,0,1-.41-.89l-.19-5.54a1.3,1.3,0,0,1,.35-.94,1.25,1.25,0,0,1,.91-.41l1.34,0c.1,0,.14-.05.14-.15l-.93-10.26a.88.88,0,0,1,.3-.82,1,1,0,0,1,.86-.27l1.2.18a.54.54,0,0,0,.32,0A32.2,32.2,0,0,0,315,562.9a1.72,1.72,0,0,1,.72-.17,1.45,1.45,0,0,1,.36,0,1.72,1.72,0,0,1,1,.55l.76.84a1,1,0,0,1,.25.86.89.89,0,0,1-.53.67A33.5,33.5,0,0,1,314,567a.22.22,0,0,0-.13.22l0,.11c0,.12.06.17.18.17l3.15-.11a1.3,1.3,0,0,1,1.31,1.23l0,.65a1.27,1.27,0,0,1-.35.93,1.2,1.2,0,0,1-.88.41l-3,.11c-.12,0-.17,0-.14.15l.05.54c0,.12.07.18.19.17l3-.1a1.2,1.2,0,0,1,.88.32,1.15,1.15,0,0,1,.39.83c0,.1.05.14.15.11q.86-.46,1.56-.93a.12.12,0,0,0,0-.09s0-.06-.07-.09a2,2,0,0,1-.26-.13l-.3-.17a.82.82,0,0,1-.46-.66,1,1,0,0,1,.27-.79l.42-.37a2,2,0,0,1,1.21-.52,1.93,1.93,0,0,1,.92.23,5.11,5.11,0,0,1,.74.37.2.2,0,0,0,.25,0l.21-.18a2,2,0,0,1,1.46-.78,1.47,1.47,0,0,1,.58.09l.95.22a.92.92,0,0,1,.62.58.77.77,0,0,1-.13.82c-.24.3-.49.59-.77.89-.07.1-.06.18,0,.22l.71.48a1,1,0,0,1,.42.81,1,1,0,0,1-.37.86l-.63.56a1.3,1.3,0,0,1-.93.38,1.54,1.54,0,0,1-1-.35l-.67-.48c-.1-.07-.18-.07-.25,0a25.52,25.52,0,0,1-2.48,1.68s0,.07,0,.07l10.9-.37c.12,0,.18-.06.17-.15l.06-.55c0-.1,0-.15-.15-.14l-2.47.08a1.23,1.23,0,0,1-.93-.34,1.27,1.27,0,0,1-.41-.92l0-.65a1.2,1.2,0,0,1,.35-.91,1.26,1.26,0,0,1,.91-.4l2.76-.09a.16.16,0,0,0,.17-.19l0-.55c0-.09-.07-.14-.19-.13l-2.71.09a1.3,1.3,0,0,1-1.35-1.26l0-.65a1.16,1.16,0,0,1,.35-.9,1.23,1.23,0,0,1,.91-.41l3-.1c.1,0,.15-.07.14-.19l0-.51c0-.12-.05-.18-.15-.17l-3.15.1a1.22,1.22,0,0,1-.93-.33,1.2,1.2,0,0,1-.42-.89l0-.69a1.23,1.23,0,0,1,.35-.93,1.26,1.26,0,0,1,.91-.42l7.28-.25a1.21,1.21,0,0,1,.91.35,1.19,1.19,0,0,1,.36.92C337.5,568.06,337.37,571.67,337.18,574.75ZM329.1,580a2.69,2.69,0,0,1,.47,0,1.87,1.87,0,0,1,1.28.46l1.31,1.15a1,1,0,0,1,.37.83,1.09,1.09,0,0,1-.38.84q-1.84,1.49-4,3a0,0,0,0,0,0,0s0,0,0,0l10.46-.35a1.23,1.23,0,0,1,.94.34,1.27,1.27,0,0,1,.41.91l.06,1.63a1.3,1.3,0,0,1-1.26,1.31l-12.17.42c-.09,0-.14.07-.14.19l.06,1.55a6,6,0,0,1-.4,2.76,3.25,3.25,0,0,1-1.7,1.49,15.94,15.94,0,0,1-5.23.86h0a1.61,1.61,0,0,1-1-.3,2,2,0,0,1-.64-.88,14.27,14.27,0,0,0-.87-2.11.79.79,0,0,1,.06-.76.64.64,0,0,1,.63-.35l3.11-.11a1.07,1.07,0,0,0,.59-.14.54.54,0,0,0,.15-.46l-.05-1.38c0-.12-.05-.18-.15-.17l-12.06.41a1.21,1.21,0,0,1-.91-.35,1.31,1.31,0,0,1-.4-.87l0-1.63a1.31,1.31,0,0,1,.33-.94,1.19,1.19,0,0,1,.89-.41l12.06-.41a.14.14,0,0,0,.14-.15v0a1.25,1.25,0,0,1,.34-.94,1.27,1.27,0,0,1,.91-.41l1.09,0a.66.66,0,0,0,.32-.08c.43-.35.77-.64,1-.87a.06.06,0,0,0,0-.07.05.05,0,0,0-.05,0l-9.38.33a1.24,1.24,0,0,1-.9-.35A1.27,1.27,0,0,1,314,583l0-1.13a1.23,1.23,0,0,1,.35-.93,1.2,1.2,0,0,1,.87-.41l13.69-.47A.92.92,0,0,0,329.1,580Zm-14.42-5.16c-.13,0-.17.06-.14.15l0,.54c0,.1.07.15.19.14l5.64-.19a.07.07,0,0,0,.06,0,.07.07,0,0,0,0-.07c-.75-.65-1.3-1.11-1.64-1.36-.05,0-.08,0-.08,0a.65.65,0,0,1-.18.5.6.6,0,0,1-.45.21Zm11.56-9.39a1.07,1.07,0,0,1,.1,1.67l-.57.49a1.46,1.46,0,0,1-1,.39,1.54,1.54,0,0,1-1-.29l-.52-.38a.23.23,0,0,0-.29,0c-.45.33-.92.65-1.42,1a1.47,1.47,0,0,1-1,.23,2,2,0,0,1-1-.45l-.81-.63a.8.8,0,0,1-.32-.69.7.7,0,0,1,.42-.62c.42-.23.83-.46,1.2-.69,0,0,.07-.06.07-.09a.09.09,0,0,0-.07-.09,4.44,4.44,0,0,1-.44-.24.76.76,0,0,1-.46-.65.92.92,0,0,1,.26-.79l.39-.34a2,2,0,0,1,1.21-.51,1.91,1.91,0,0,1,.92.22l.7.34a.2.2,0,0,0,.25,0,1.29,1.29,0,0,1,.17-.15,2.12,2.12,0,0,1,1.47-.74,1.67,1.67,0,0,1,.61.09l.92.22a.89.89,0,0,1,.6.56.8.8,0,0,1-.12.8c-.23.28-.49.56-.77.86a.14.14,0,0,0,0,.22C325.93,565.21,326.09,565.33,326.24,565.44Z" transform="translate(0 -508.99)"/><path class="cls-3" d="M362,568.93a1.46,1.46,0,0,1-.85,1.77l-2.43,1a1,1,0,0,1-.87,0,1.14,1.14,0,0,1-.6-.72,36.28,36.28,0,0,0-2.47-6.41s0,0-.06,0-.05,0-.05,0q-1,2.38-2.23,4.86a.88.88,0,0,0-.06.33l.86,25.05a1.2,1.2,0,0,1-.35.9,1.26,1.26,0,0,1-.91.42l-2.53.08a1.2,1.2,0,0,1-.92-.35,1.21,1.21,0,0,1-.39-.87l-.6-17.34s0-.08,0-.08a.13.13,0,0,0-.07,0c-.46.6-.95,1.2-1.46,1.79a.76.76,0,0,1-.75.26.82.82,0,0,1-.63-.46c-.55-1.14-1.13-2.22-1.75-3.24a1.77,1.77,0,0,1-.24-.83.89.89,0,0,1,0-.22,1.75,1.75,0,0,1,.4-1,34.41,34.41,0,0,0,3.88-5.33,40.41,40.41,0,0,0,3-6.29,1.34,1.34,0,0,1,.66-.75,1.77,1.77,0,0,1,.58-.12,1.35,1.35,0,0,1,.44,0l2.56.75a1.09,1.09,0,0,1,.75.59,1.19,1.19,0,0,1,.06.94c0,.12-.11.28-.2.48a.13.13,0,0,0,0,.07s.05,0,.07,0l3.08-1.27a1.46,1.46,0,0,1,1,0,1.3,1.3,0,0,1,.77.68A36.12,36.12,0,0,1,362,568.93Zm15.09,12a1.24,1.24,0,0,1,.92.35,1.25,1.25,0,0,1,.39.88l.08,2.42a1.26,1.26,0,0,1-.33.9,1.19,1.19,0,0,1-.89.41l-7.9.27a.16.16,0,0,0-.17.19l.28,8.08a1.22,1.22,0,0,1-.34.89,1.2,1.2,0,0,1-.89.42l-2.89.1a1.24,1.24,0,0,1-.9-.35,1.2,1.2,0,0,1-.41-.88l-.28-8.07a.17.17,0,0,0-.19-.18l-7.82.27a1.3,1.3,0,0,1-1.31-1.22l-.08-2.43a1.3,1.3,0,0,1,1.22-1.31l7.82-.27c.12,0,.18-.06.18-.19l-.13-3.76a.17.17,0,0,0-.19-.18l-6.34.22a1.21,1.21,0,0,1-.9-.35,1.2,1.2,0,0,1-.41-.87l-.08-2.39a1.27,1.27,0,0,1,.35-.94,1.2,1.2,0,0,1,.87-.41l6.34-.22q.18,0,.18-.15l-.34-9.7a1.3,1.3,0,0,1,1.23-1.31l2.89-.1a1.2,1.2,0,0,1,.92.35,1.23,1.23,0,0,1,.39.87l.34,9.71c0,.09.06.14.18.14l6.37-.22a1.15,1.15,0,0,1,.92.35,1.3,1.3,0,0,1,.4.91l.08,2.39a1.29,1.29,0,0,1-.33.9,1.24,1.24,0,0,1-.89.41l-6.38.22c-.12,0-.18.06-.17.18L369,581c0,.12.06.18.18.17Zm-5.4-17.76a1.26,1.26,0,0,1,.57-.78,1,1,0,0,1,.92-.1l3.19.9a1.16,1.16,0,0,1,.69.63,1.13,1.13,0,0,1,0,1c-1.1,2.47-1.95,4.33-2.53,5.56a1.38,1.38,0,0,1-.76.68,1.52,1.52,0,0,1-1,0l-2.05-.73a1.16,1.16,0,0,1-.7-.64,1.28,1.28,0,0,1-.05-1A41.3,41.3,0,0,0,371.69,563.12Z" transform="translate(0 -508.99)"/><path class="cls-3" d="M387.52,572.3a1.11,1.11,0,0,1,.54.81,1.29,1.29,0,0,1-.22,1l-1.55,2.3a1.11,1.11,0,0,1-.8.52,1.27,1.27,0,0,1-.93-.24,24.55,24.55,0,0,0-3.59-2,1,1,0,0,1-.6-.7.71.71,0,0,1-.05-.26,1,1,0,0,1,.2-.62l1.34-2a1.89,1.89,0,0,1,.89-.63,1.52,1.52,0,0,1,1.05,0A24,24,0,0,1,387.52,572.3Zm1.12-9.76a1.29,1.29,0,0,1,.31,1.8l-1.58,2.31a1.14,1.14,0,0,1-.8.48,1.33,1.33,0,0,1-.94-.21,27.94,27.94,0,0,0-3.69-2.15,1,1,0,0,1-.57-.69,1,1,0,0,1,.15-.89l1.38-1.94a1.52,1.52,0,0,1,.87-.64,1.63,1.63,0,0,1,1.07,0A26.33,26.33,0,0,1,388.64,562.54Zm-3.78,18.69a.91.91,0,0,1,.57-.65,1,1,0,0,1,.89.09l2.26,1.3a1.88,1.88,0,0,1,.7.83,1.57,1.57,0,0,1,.05,1.07q-1.35,4.93-3,9.64a1.1,1.1,0,0,1-.65.67,1,1,0,0,1-.93,0l-2.69-1.39a1.37,1.37,0,0,1-.68-.74,1.74,1.74,0,0,1-.09-.43,1.4,1.4,0,0,1,.13-.59Q383.29,586.43,384.86,581.23Zm6,5.89a1.49,1.49,0,0,1,1.71-.9l2.42.57a1.17,1.17,0,0,1,.72.57,1,1,0,0,1,.05.93,29.6,29.6,0,0,1-3.24,5.73,1.21,1.21,0,0,1-.88.52,1.36,1.36,0,0,1-1-.24c-.67-.41-1.37-.84-2.11-1.27a1,1,0,0,1-.54-.85,1,1,0,0,1,.23-.7A19,19,0,0,0,390.89,587.12Zm11.26-2.67a.92.92,0,0,1-.27.69,1,1,0,0,1-.71.32.3.3,0,0,0,0,.11,47.68,47.68,0,0,1,2.93,4,1.17,1.17,0,0,1,.17,1,1.34,1.34,0,0,1-.58.82l-2.06,1.3a1.11,1.11,0,0,1-.92.14,1.08,1.08,0,0,1-.73-.59c-.56-1-1.36-2.21-2.37-3.65a1.16,1.16,0,0,1-.2-.94,1.22,1.22,0,0,1,.54-.78l2.17-1.27v-.07a0,0,0,0,0,0,0l-8.11.27a1.23,1.23,0,0,1-.94-.33,1.19,1.19,0,0,1-.41-.89l-.76-22.19a1.3,1.3,0,0,1,1.26-1.35l8.94-.31a1.31,1.31,0,0,1,.94.35,1.27,1.27,0,0,1,.41.91Zm-5.47-16.67a.17.17,0,0,0,.18-.19l-.07-2c0-.12-.07-.17-.19-.17l-2,.07c-.12,0-.18.06-.17.18l.06,2a.17.17,0,0,0,.19.18Zm.23,6.59q.18,0,.18-.15l-.07-2c0-.1-.07-.15-.19-.14l-2,.07q-.18,0-.18.15l.07,2c0,.09.07.14.19.14Zm.23,6.59c.12,0,.18-.06.17-.15l-.07-2c0-.1-.06-.15-.18-.14l-2,.07c-.12,0-.17,0-.17.15l.07,2c0,.09.06.14.18.13Zm8.91-18a1.31,1.31,0,0,1,.94.35,1.24,1.24,0,0,1,.41.88l.65,19.11a1.23,1.23,0,0,1-.34.94,1.27,1.27,0,0,1-.92.41l-2,.07a1.2,1.2,0,0,1-.92-.35,1.27,1.27,0,0,1-.39-.91l-.66-19.12a1.29,1.29,0,0,1,.33-.9A1.23,1.23,0,0,1,404,563Zm2.52-2.58a1.28,1.28,0,0,1,.35-.94,1.25,1.25,0,0,1,.91-.41l2.28-.08a1.3,1.3,0,0,1,1.35,1.26l1,28.06a9.43,9.43,0,0,1-.29,3.13,3.22,3.22,0,0,1-1.39,1.75,11.37,11.37,0,0,1-5,1.19h0a1.36,1.36,0,0,1-.95-.33,1.85,1.85,0,0,1-.58-.89,22,22,0,0,0-.85-2.65.88.88,0,0,1-.08-.33.71.71,0,0,1,.16-.47.8.8,0,0,1,.68-.39c.82,0,1.74,0,2.75-.06a.84.84,0,0,0,.59-.18.81.81,0,0,0,.14-.6Z" transform="translate(0 -508.99)"/><path class="cls-3" d="M420.34,590.71a1.12,1.12,0,0,1-.7.69,1.32,1.32,0,0,1-1,0l-.34-.17a1.13,1.13,0,0,1-.64-.71,2.07,2.07,0,0,1-.09-.46,1.6,1.6,0,0,1,.1-.55,20,20,0,0,0,.84-5.94,1.08,1.08,0,0,1,.41-.83,1.1,1.1,0,0,1,.86-.26l.26.06a1.3,1.3,0,0,1,.9.48,1.37,1.37,0,0,1,.34,1A22,22,0,0,1,420.34,590.71Zm24.45-7.91a1.39,1.39,0,0,1,.45-.9,1.24,1.24,0,0,1,.93-.34H448a1.24,1.24,0,0,1,.88.4,1.07,1.07,0,0,1,.32.9c-.09.94-.2,1.8-.35,2.58a.3.3,0,0,0,.09.29,45.28,45.28,0,0,1,3.23,3.48,1.13,1.13,0,0,1,.28.71c0,.07,0,.15,0,.22a1.39,1.39,0,0,1-.52.89l-1.26,1.06a1.27,1.27,0,0,1-.94.23,1.17,1.17,0,0,1-.81-.5c-.41-.54-.9-1.15-1.48-1.84-.08-.09-.15-.09-.22,0a11.78,11.78,0,0,1-1.84,2.39,1.26,1.26,0,0,1-1,.34,1.32,1.32,0,0,1-.9-.46c-.57-.56-1.14-1.06-1.68-1.5a.18.18,0,0,0-.26,0l-.59.67a1,1,0,0,1-.78.32,1,1,0,0,1-.78-.41,16.58,16.58,0,0,0-1.1-1.34c-.07-.1-.13-.09-.18,0a10.69,10.69,0,0,1-2,2.68,1.18,1.18,0,0,1-.95.32,1.38,1.38,0,0,1-.9-.44,19.06,19.06,0,0,0-2-1.77c-.1-.07-.16,0-.18.07a3.64,3.64,0,0,1-.39,1.18,3.42,3.42,0,0,1-2.2,1.52,10.32,10.32,0,0,1-1.84.25h-.07a1.26,1.26,0,0,1-.88-.33,1.59,1.59,0,0,1-.54-.89,9.25,9.25,0,0,0-.45-1.47.8.8,0,0,1,.08-.78.71.71,0,0,1,.68-.33l.61,0a1,1,0,0,0,.86-.5,8.06,8.06,0,0,0,.31-2.58s0,0,0-.07-.05,0-.08,0a.67.67,0,0,1-.6-.05.69.69,0,0,1-.32-.5,24.47,24.47,0,0,0-.94-3,1,1,0,0,1,.05-.73.88.88,0,0,1,.53-.49,1.05,1.05,0,0,1,.76,0,1.23,1.23,0,0,1,.56.52v.07s.05,0,.07,0l0-2c0-.1-.06-.14-.18-.14l-8.15.28a1.2,1.2,0,0,1-.92-.35,1.27,1.27,0,0,1-.39-.91L418,561.28a1.34,1.34,0,0,1,.33-.94,1.23,1.23,0,0,1,.89-.41l10.76-.37a1.27,1.27,0,0,1,.9.35,1.31,1.31,0,0,1,.41.91l.05,1.56a1.27,1.27,0,0,1-.35.94,1.2,1.2,0,0,1-.87.41l-2,.07c-.1,0-.14.05-.14.15l0,1.34c0,.09.05.14.15.14l1.37,0a1.3,1.3,0,0,1,1.35,1.26l.05,1.3a1.3,1.3,0,0,1-.35.94,1.27,1.27,0,0,1-.91.41l-1.38.05c-.1,0-.14,0-.14.15l.05,1.3q0,.18.15.18l1.52-.06a1.3,1.3,0,0,1,.93.33,1.23,1.23,0,0,1,.41.9l0,1.34a1.21,1.21,0,0,1-.35.9,1.25,1.25,0,0,1-.91.41l-1.52.05c-.1,0-.14.07-.14.19l.05,1.37c0,.1,0,.15.15.14l2.5-.08a1.14,1.14,0,0,1,.91.35,1.26,1.26,0,0,1,.4.91,1.27,1.27,0,0,1,0,.32q.2,9.83-.09,12.22a.13.13,0,0,0,0,.06h.08q2.85-2.21,3.27-7.18a1.22,1.22,0,0,1,.4-.9,1.26,1.26,0,0,1,.93-.34h1.81a1.26,1.26,0,0,1,1.21,1.3c-.07.75-.17,1.49-.29,2.22a.36.36,0,0,0,.08.29,31.89,31.89,0,0,1,2.79,3.06c.08.09.15.09.22,0A10.63,10.63,0,0,0,444.79,582.8ZM421.56,584a1.12,1.12,0,0,1,.23-.8,1,1,0,0,1,.71-.43,1.18,1.18,0,0,1,.81.21,1,1,0,0,1,.42.73c.14,1.16.23,2.36.27,3.62,0,.33,0,.68,0,1a1.25,1.25,0,0,1-.32.86,1.2,1.2,0,0,1-.84.44.83.83,0,0,1-.77-.22.92.92,0,0,1-.31-.75c0-.58,0-1.16,0-1.74C421.74,586,421.67,585,421.56,584Zm2.4-19.94c0-.1,0-.15-.15-.14l-1.37,0c-.13,0-.18.06-.18.15l.05,1.34c0,.1.06.15.18.14l1.38,0a.14.14,0,0,0,.14-.15Zm.1,7c.09,0,.14-.06.14-.18l-.05-1.3c0-.1,0-.15-.15-.14l-1.37,0q-.18,0-.18.15l0,1.31c0,.12.07.18.19.17ZM422.82,575c-.13,0-.18.06-.18.18l.05,1.38c0,.1.06.14.18.14l1.38,0c.1,0,.14-.05.14-.15l-.05-1.37c0-.13,0-.18-.15-.18Zm1.2,8.66a.89.89,0,0,1,.12-.77,1,1,0,0,1,.63-.46,1.34,1.34,0,0,1,.81.17,1,1,0,0,1,.45.66,26,26,0,0,1,.76,3.92,1.16,1.16,0,0,1-.23.85,1.18,1.18,0,0,1-.74.46.88.88,0,0,1-.77-.18,1,1,0,0,1-.39-.69A30.63,30.63,0,0,0,424,583.7Zm14.38-13a1.2,1.2,0,0,1-.92-.35,1.27,1.27,0,0,1-.39-.91l0-1.05a.08.08,0,0,0-.06-.09.1.1,0,0,0-.09,0,17.14,17.14,0,0,1-2.22,1.78,1,1,0,0,1-.9.16,1.16,1.16,0,0,1-.71-.61,23.18,23.18,0,0,0-1.27-2.24,1.19,1.19,0,0,1-.16-.92,1.14,1.14,0,0,1,.54-.76,18.26,18.26,0,0,0,3.36-2.94,19.69,19.69,0,0,0,2.64-3.65A2.25,2.25,0,0,1,440.1,558l2.21-.07a2.33,2.33,0,0,1,2,1,20.64,20.64,0,0,0,6.91,5.92,1,1,0,0,1,.6.67.88.88,0,0,1,.08.32,1,1,0,0,1-.16.59c-.43.76-.88,1.64-1.36,2.62a1.08,1.08,0,0,1-.68.64,1.06,1.06,0,0,1-.93-.11c-.69-.41-1.4-.89-2.12-1.42-.07-.07-.11,0-.1.08l0,.9a1.3,1.3,0,0,1-1.26,1.35Zm-3.66,10.75a1.3,1.3,0,0,1-1.34-1.26l-.24-6.81a1.31,1.31,0,0,1,1.26-1.35l5.76-.19a1.16,1.16,0,0,1,.92.35,1.25,1.25,0,0,1,.39.91l.23,6.8a1.23,1.23,0,0,1-.33.94,1.19,1.19,0,0,1-.89.41Zm2-6.2q-.18,0-.18.15l.09,2.5c0,.1.06.14.18.14l1.05,0c.1,0,.15,0,.14-.15l-.08-2.49c0-.1-.05-.15-.15-.14Zm1.81-8.58s0,0,0,.07a.05.05,0,0,0,.06,0l6.08-.21a.1.1,0,0,0,.09,0,.07.07,0,0,0,0-.07,22,22,0,0,1-3.17-3.7l-.09,0a.1.1,0,0,0-.09,0A21.79,21.79,0,0,1,438.59,566.7Zm5.5,14.46a1.28,1.28,0,0,1-.94-.35,1.27,1.27,0,0,1-.41-.91l-.24-6.81a1.31,1.31,0,0,1,1.26-1.35l6.05-.2a1.28,1.28,0,0,1,1.35,1.25l.23,6.81a1.3,1.3,0,0,1-1.26,1.35Zm2.07-6.2q-.18,0-.18.15l.09,2.5c0,.1.06.14.18.14l1.27,0c.1,0,.14-.05.14-.15l-.09-2.49c0-.1-.05-.15-.15-.14Z" transform="translate(0 -508.99)"/><path class="cls-3" d="M465.27,568.79a1.3,1.3,0,0,1,1.34,1.26l.72,21a1.19,1.19,0,0,1-.35.9,1.23,1.23,0,0,1-.91.41l-10,.34a1.14,1.14,0,0,1-.91-.35,1.27,1.27,0,0,1-.4-.87l-.07-2.25a1.22,1.22,0,0,1,.33-.93,1.19,1.19,0,0,1,.89-.41l5.86-.2c.1,0,.15-.06.14-.15l-.59-17.27a1.28,1.28,0,0,1,.35-.94,1.27,1.27,0,0,1,.91-.41Z" transform="translate(0 -508.99)"/><path class="cls-2" d="M511,557a1.24,1.24,0,0,1,.9.35,1.27,1.27,0,0,1,.41.92l.69,20a1.24,1.24,0,0,1-.35.9,1.21,1.21,0,0,1-.87.41l-5.51.19c-.09,0-.14.07-.14.19l.06,1.7a1.2,1.2,0,0,1-.35.9,1.25,1.25,0,0,1-.91.41l-2.28.08a1.27,1.27,0,0,1-.93-.35,1.24,1.24,0,0,1-.42-.87l-.79-23.14a1.3,1.3,0,0,1,1.26-1.35Zm-3.48,5.24c0-.1-.06-.15-.19-.14l-1.66,0a.13.13,0,0,0-.14.15l.42,12.35q0,.18.15.18l1.67-.06c.12,0,.18-.07.17-.19Zm15,21.16,5.83-.2a2,2,0,0,0,1.65-.68,5.75,5.75,0,0,0,.64-2.48.69.69,0,0,1,.41-.63.93.93,0,0,1,.8,0,16.19,16.19,0,0,0,2.5,1,1.82,1.82,0,0,1,.89.59,1.51,1.51,0,0,1,.24.75.78.78,0,0,1,0,.22c-.28,2.23-.9,3.81-1.85,4.72a6.67,6.67,0,0,1-4.53,1.48l-7,.24a10.9,10.9,0,0,1-4.22-.49,3.93,3.93,0,0,1-2.18-2.17,13.13,13.13,0,0,1-.81-4.67l-.82-23.75a1.24,1.24,0,0,1,.35-.9,1.27,1.27,0,0,1,.91-.41l16.55-.57a1.27,1.27,0,0,1,.94.35,1.25,1.25,0,0,1,.41.87l.63,18.54a1.26,1.26,0,0,1-.35.94,1.23,1.23,0,0,1-.91.41l-2.64.09a1.27,1.27,0,0,1-.94-.35,1.25,1.25,0,0,1-.41-.91l0-.61q0-.18-.15-.18l-8.33.29c-.09,0-.14.06-.14.18l.2,5.83a4.12,4.12,0,0,0,.44,2.2C520.88,583.32,521.53,583.44,522.56,583.41Zm-1.28-22.54a.16.16,0,0,0-.18-.18l-1.45,0c-.1,0-.14.07-.14.19l.31,8.9c0,.1,0,.15.15.14l1.44-.05q.18,0,.18-.15Zm7,8.82c.1,0,.15-.05.14-.15l-.3-8.91c0-.12-.06-.18-.15-.17l-1.71,0c-.09,0-.14.07-.13.19l.3,8.91c0,.09,0,.14.15.14Z" transform="translate(0 -508.99)"/><path class="cls-2" d="M544.41,574.57a1.29,1.29,0,0,1-.95-.34,1.38,1.38,0,0,1-.47-.91l-1.22-11.38-.34-4.56a1.25,1.25,0,0,1,1.19-1.31l4.09-.14a1.17,1.17,0,0,1,.88.34,1.21,1.21,0,0,1,.39.89l0,4.57-.44,11.43a1.4,1.4,0,0,1-.41.94,1.29,1.29,0,0,1-.93.41Zm4.07,9.16a4.21,4.21,0,0,1-5.76.2,4.27,4.27,0,0,1-.18-5.83,4.06,4.06,0,0,1,5.72-.2,4.27,4.27,0,0,1,.22,5.83Z" transform="translate(0 -508.99)"/><path class="cls-2" d="M563,573.94a1.39,1.39,0,0,1-1.42-1.26L560.3,561.3l-.33-4.55a1.23,1.23,0,0,1,1.18-1.31l4.1-.14a1.23,1.23,0,0,1,1.27,1.22l0,4.57-.45,11.43a1.32,1.32,0,0,1-.4.94,1.34,1.34,0,0,1-.93.42ZM567,583.1a4,4,0,0,1-7-2.68,4,4,0,0,1,1.06-3,4.07,4.07,0,0,1,5.72-.19,4.26,4.26,0,0,1,.21,5.83Z" transform="translate(0 -508.99)"/><path class="cls-2" d="M581.49,573.3a1.39,1.39,0,0,1-1.42-1.26l-1.23-11.37-.34-4.56a1.23,1.23,0,0,1,.34-.92,1.19,1.19,0,0,1,.85-.39l4.09-.14a1.2,1.2,0,0,1,.88.33,1.24,1.24,0,0,1,.4.9l0,4.57-.44,11.43a1.36,1.36,0,0,1-.4.94,1.33,1.33,0,0,1-.93.41Zm4.06,9.16a4.2,4.2,0,0,1-5.75.2,4.29,4.29,0,0,1-.19-5.83,3.89,3.89,0,0,1,2.82-1.28,3.84,3.84,0,0,1,2.9,1.08,4,4,0,0,1,1.26,2.88A3.93,3.93,0,0,1,585.55,582.46Z" transform="translate(0 -508.99)"/></svg>