<svg id="圖層_1" data-name="圖層 1" xmlns="http://www.w3.org/2000/svg" viewBox="0 0 610.97 108.5"><defs><style>.cls-1{fill:#f08b68;}.cls-2{fill:#2455a5;}</style></defs><title>06_0_1</title><polygon class="cls-1" points="610.97 108.5 0 58.84 0 0 610.97 49.67 610.97 108.5"/><path class="cls-2" d="M75.74,383a.86.86,0,0,1,.32-.63,1,1,0,0,1,.7-.23l23.46,1.74a1,1,0,0,1,.66.33.91.91,0,0,1,.23.68l-.19,2.44a.88.88,0,0,1-.32.66,1,1,0,0,1-.7.23l-23.46-1.74a.92.92,0,0,1-.66-.33.93.93,0,0,1-.23-.7Z" transform="translate(-0.82 -345.36)"/><path class="cls-2" d="M108,375.4a1,1,0,0,1,1-.6.91.91,0,0,1,.29.08l1.76.69a.84.84,0,0,1,.52.49.9.9,0,0,1,0,.72,43.22,43.22,0,0,1-2,4,.52.52,0,0,0-.07.23L108,399.55a.9.9,0,0,1-.33.65.92.92,0,0,1-.67.21l-1.89-.14a.91.91,0,0,1-.63-.31.86.86,0,0,1-.23-.69l.9-12.1a0,0,0,0,0,0,0h0c-.24.29-.47.55-.7.8a.5.5,0,0,1-.52.14.52.52,0,0,1-.37-.39,27.44,27.44,0,0,0-.93-2.69,1.67,1.67,0,0,1-.11-.68,1.4,1.4,0,0,1,.42-.87A27.8,27.8,0,0,0,108,375.4Zm3.86,1.54a.88.88,0,0,1,.33-.64,1,1,0,0,1,.7-.22l14.71,1.1a1,1,0,0,1,.66.31.9.9,0,0,1,.23.69l-1.67,22.47a.89.89,0,0,1-.33.63.93.93,0,0,1-.7.23l-1.86-.14a.92.92,0,0,1-.66-.33.89.89,0,0,1-.23-.67l0-.29c0-.07,0-.11-.1-.12l-9-.67c-.09,0-.14,0-.14.1l0,.53a.89.89,0,0,1-.33.63.85.85,0,0,1-.67.23l-1.7-.12a.92.92,0,0,1-.66-.33.9.9,0,0,1-.23-.67Zm2.22,18.81c0,.09,0,.13.12.14l9,.67c.07,0,.11,0,.11-.13l1.19-15.95a.11.11,0,0,0-.1-.12l-9-.67c-.08,0-.13,0-.14.1Zm9.66-10.57a.94.94,0,0,1-.33.66.89.89,0,0,1-.67.23l-1.73-.13a.09.09,0,0,0-.11.1l-.14,1.78c0,.07,0,.11.1.11l1.28.1a1,1,0,0,1,.89,1l-.41,5.48a.92.92,0,0,1-.33.65.89.89,0,0,1-.7.23L116,395a1,1,0,0,1-.66-.33.93.93,0,0,1-.22-.7l.4-5.48a1,1,0,0,1,.33-.66.93.93,0,0,1,.7-.22l1,.07c.09,0,.14,0,.14-.09l.14-1.79c0-.07,0-.11-.13-.11l-1.49-.11a.86.86,0,0,1-.64-.33.93.93,0,0,1-.22-.7l.07-.91a.94.94,0,0,1,.31-.65.87.87,0,0,1,.69-.23l1.49.11c.09,0,.13,0,.14-.1l.12-1.57a.88.88,0,0,1,.32-.63.91.91,0,0,1,.68-.23l1.14.09a.85.85,0,0,1,.66.33.88.88,0,0,1,.23.67l-.12,1.57c0,.07,0,.1.1.11l1.73.13a.89.89,0,0,1,.63.33.92.92,0,0,1,.23.69Zm-4,7.45c.07,0,.1,0,.11-.12l.14-1.84c0-.07,0-.11-.1-.11l-1.52-.11c-.07,0-.11,0-.11.09l-.14,1.84c0,.09,0,.14.1.14Z" transform="translate(-0.82 -345.36)"/><path class="cls-2" d="M140.81,377.78a1,1,0,0,1,.35-.65.91.91,0,0,1,.7-.23l2.66.2a.89.89,0,0,1,.65.32.94.94,0,0,1,.21.68c0,.26-.07.55-.11.87,0,.69,0,1.39,0,2.1s.12,1.62.27,2.75a29.51,29.51,0,0,0,.6,3.24,23.52,23.52,0,0,0,1.15,3.4,19.87,19.87,0,0,0,1.82,3.42,19.15,19.15,0,0,0,2.67,3.14,18.71,18.71,0,0,0,2.8,2.22.61.61,0,0,1,.28.58.59.59,0,0,1-.25.44,10.48,10.48,0,0,0-2,1.86,1.2,1.2,0,0,1-.65.38.78.78,0,0,1-.71-.14q-6.45-4.31-8.72-12.92a0,0,0,0,0,0,0s0,0,0,0a24.23,24.23,0,0,1-9.76,11.49.88.88,0,0,1-.55.12h-.16a1.14,1.14,0,0,1-.63-.42,11.46,11.46,0,0,0-1.88-2,.63.63,0,0,1-.23-.55.61.61,0,0,1,.33-.51,18.13,18.13,0,0,0,2.22-1.41,22.24,22.24,0,0,0,2.51-2.1,16.19,16.19,0,0,0,2-2.37,27.36,27.36,0,0,0,1.49-2.45,18.64,18.64,0,0,0,1.12-2.53c.33-.94.59-1.75.78-2.42s.35-1.45.5-2.33.27-1.56.33-2,.13-1.07.2-1.78C140.78,378,140.8,377.89,140.81,377.78Z" transform="translate(-0.82 -345.36)"/><path class="cls-2" d="M181.75,395.72a.85.85,0,0,1-.32.63,1,1,0,0,1-.7.23l-2.93-.22c-.09,0-.11,0-.06.1a20.32,20.32,0,0,0,4.13,4.86.68.68,0,0,1,.25.63.66.66,0,0,1-.28.51,15.59,15.59,0,0,0-1.55,1.49.94.94,0,0,1-.64.33A.78.78,0,0,1,179,404a24.12,24.12,0,0,1-2.82-3.82s0,0-.05,0,0,0,0,0l-.32,4.31a.91.91,0,0,1-.33.63.93.93,0,0,1-.7.23l-1.89-.14a.88.88,0,0,1-.64-.33.94.94,0,0,1-.22-.67l.32-4.26s0,0,0,0,0,0,0,0a18.89,18.89,0,0,1-4.37,3.71.82.82,0,0,1-.71.11,1,1,0,0,1-.6-.47,16.78,16.78,0,0,0-1.24-1.67.79.79,0,0,1-.15-.63.62.62,0,0,1,.37-.48,13.44,13.44,0,0,0,1.81-1s0,0,0,0l-1.91.47a.73.73,0,0,1-.63-.12.76.76,0,0,1-.33-.59,20.17,20.17,0,0,0-.61-3.28s0,0,0,0,0,0,0,0l-.57,7.68a1,1,0,0,1-1,.86l-1.49-.11a1,1,0,0,1-.86-1l.54-7.23h0a26.7,26.7,0,0,1-1.48,5.24.74.74,0,0,1-.5.44.78.78,0,0,1-.68-.1l-1.1-.62a1,1,0,0,1-.47-.54,1.32,1.32,0,0,1-.05-.44,1.18,1.18,0,0,1,.08-.31,23.19,23.19,0,0,0,1.13-4.41.92.92,0,0,1,.39-.59.78.78,0,0,1,.68-.11l2,.5c.08,0,.13,0,.14-.1l.11-1.57c0-.07,0-.11-.12-.11l-2.49,0a1,1,0,0,1-.69-.28.84.84,0,0,1-.28-.65l-.08-1.53a.8.8,0,0,1,.24-.65.84.84,0,0,1,.66-.28l1,0A.21.21,0,0,0,159,390l.4-.46.45-.57a.14.14,0,0,0,0-.18,18.88,18.88,0,0,0-2.07-3.1,1.27,1.27,0,0,1,0-1.5l1.12-1.36a.52.52,0,0,1,.39-.18.42.42,0,0,1,.39.19.09.09,0,0,0,.11,0,35.31,35.31,0,0,0,1.67-3.46,1,1,0,0,1,.52-.51.9.9,0,0,1,.72,0l1.58.68a.82.82,0,0,1,.44.52.77.77,0,0,1-.07.66c-1.26,2-2.23,3.5-2.93,4.46a.14.14,0,0,0,0,.19c.1.13.21.29.34.48a.09.09,0,0,0,.06.06s.05,0,.07,0c.76-1.07,1.42-2.08,2-3a1,1,0,0,1,.6-.43.88.88,0,0,1,.71.08l1.93,1.05c.07,0,.1,0,.11-.07l.1-1.33a.92.92,0,0,1,.33-.66.93.93,0,0,1,.7-.23l4.81.36c.09,0,.14,0,.14-.1l.09-1.2a1,1,0,0,1,.32-.65.85.85,0,0,1,.68-.23l1.89.14a1,1,0,0,1,.66.32,1,1,0,0,1,.23.7l-.09,1.2c0,.07,0,.11.1.12l4.49.33a.92.92,0,0,1,.66.33.93.93,0,0,1,.23.7l-.11,1.49a.88.88,0,0,1-.33.64,1,1,0,0,1-.7.22l-4.49-.34c-.07,0-.11,0-.12.13l-.06.85c0,.07,0,.11.1.11l4.22.32a.92.92,0,0,1,.66.33.93.93,0,0,1,.23.7ZM162.52,390s0,0,0,0a.05.05,0,0,0,0,0l1.28,0c.09,0,.12,0,.09-.13l-.38-1a.07.07,0,0,0-.06,0s-.05,0-.05,0Zm1.34,5.42c0,.07,0,.1.1.09l1.66-.39a1.08,1.08,0,0,1,.75.12,1,1,0,0,1,.45.59,20.4,20.4,0,0,1,.66,3.41c0,.08,0,.1.1.07a17.11,17.11,0,0,0,3.65-3.37c0-.07,0-.11,0-.11l-2.87-.21a.89.89,0,0,1-.63-.33.86.86,0,0,1-.23-.67l0-.54c0-.07,0-.09-.11-.06l-1.42.49a.64.64,0,0,1-.64-.07.78.78,0,0,1-.36-.54l-.05-.25a1.88,1.88,0,0,1,0-.19.12.12,0,0,0-.15-.12h-.61c-.07,0-.11,0-.12.13Zm4.17-10.9a.48.48,0,0,1-.34-.16.38.38,0,0,1-.12-.35h0c-1.11,1.41-2.28,2.86-3.53,4.33,0,0,0,.05.05,0l1.26-.41a1,1,0,0,1,.75,0,1,1,0,0,1,.52.54,24.69,24.69,0,0,1,1,3h0s0,0,0,0l.36-4.92a1,1,0,0,1,1-.89l4.18.32c.09,0,.14,0,.14-.1l.06-.85c0-.09,0-.14-.12-.14Zm5.12,7.87c0-.07,0-.11-.13-.12l-1.81-.13c-.09,0-.13,0-.14.1l0,.69a.11.11,0,0,0,.12.14l1.81.14a.13.13,0,0,0,.15-.13Zm.26-3.48c0-.07,0-.11-.13-.12l-1.81-.13c-.09,0-.13,0-.14.09l-.05.69a.12.12,0,0,0,.12.15l1.81.13c.09,0,.14,0,.14-.12Zm4.73,4.68c.07,0,.11,0,.11-.12l.06-.7c0-.07,0-.1-.1-.11l-1.7-.13c-.08,0-.11,0-.12.1l0,.69c0,.09,0,.14.1.14Zm.26-3.48c.07,0,.11,0,.11-.13l.05-.69c0-.07,0-.11-.09-.11l-1.71-.13c-.07,0-.1,0-.11.1l-.05.69c0,.09,0,.14.1.14Z" transform="translate(-0.82 -345.36)"/><path class="cls-2" d="M196.21,392.94c0,.07,0,.11.07.14l2.19.43a.65.65,0,0,1,.48.38.63.63,0,0,1,0,.61c-.21.33-.42.63-.63.92,0,.07,0,.11.07.11l7.42.55a.88.88,0,0,1,.64.33.93.93,0,0,1,.22.7l-.72,9.73a.93.93,0,0,1-.32.65,1,1,0,0,1-.68.22l-2.37-.18a.82.82,0,0,1-.57-.28.84.84,0,0,1-.2-.61c0-.05,0-.08-.1-.08l-10.58-.79c-.07,0-.11,0-.11.07a.8.8,0,0,1-.29.57.81.81,0,0,1-.6.2l-2.15-.16a.92.92,0,0,1-.63-.32.85.85,0,0,1-.23-.68l.72-9.74a1,1,0,0,1,.33-.66.89.89,0,0,1,.67-.23l5.35.4a.14.14,0,0,0,.16-.09c.09-.19.24-.57.46-1.12a.14.14,0,0,0,0-.06l-.05,0a10,10,0,0,1-2.47.09,1.1,1.1,0,0,1-.7-.31,1.19,1.19,0,0,1-.38-.68,10.45,10.45,0,0,0-.47-1.53.11.11,0,0,0-.16-.07c-1.22.45-2.54.89-4,1.34a.92.92,0,0,1-.73,0,1,1,0,0,1-.48-.56l-.5-1.51a.92.92,0,0,1-.06-.35,1,1,0,0,1,.11-.34.79.79,0,0,1,.56-.41c1-.21,2.18-.5,3.6-.86.09,0,.1-.05,0-.13a15,15,0,0,0-2.26-1.88.89.89,0,0,1-.35-.6.79.79,0,0,1,.23-.64l.78-.82c.06-.07,0-.11-.05-.11l-.77-.06a.92.92,0,0,1-.65-.33.9.9,0,0,1-.24-.67l.09-1.14a.92.92,0,0,1,.33-.66.93.93,0,0,1,.7-.23l9.44.7a.88.88,0,0,1,.64.33.93.93,0,0,1,.22.7l-.6,8.08A4.19,4.19,0,0,1,196.21,392.94ZM192,390.06a1,1,0,0,1-.14.67,1,1,0,0,1-.53.43v0l1.33.1a.36.36,0,0,0,.43-.37l.43-5.85c0-.09,0-.14-.1-.14l-4.14-.31s0,0,0,.05c.57.38,1.06.74,1.48,1.07a.82.82,0,0,1,.32.64.92.92,0,0,1-.24.71l-1.28,1.43a0,0,0,0,0,0,0h0l1.29-.33a.85.85,0,0,1,1,.72Zm-.75,12.62c0,.09,0,.13.13.14l10.53.78c.09,0,.13,0,.14-.12l.05-.69a.12.12,0,0,0-.12-.15l-10.53-.78a.13.13,0,0,0-.15.13Zm10.94-2.93a.13.13,0,0,0,.15-.13l0-.72c0-.07,0-.1-.13-.11L191.69,398c-.09,0-.13,0-.14.09l-.05.72c0,.09,0,.14.12.14ZM208.8,383a.88.88,0,0,1,.64.33,1,1,0,0,1,.22.7l-.6,7.95a4.4,4.4,0,0,1-.42,1.8,2.18,2.18,0,0,1-1.14.92,8.66,8.66,0,0,1-3.28.21,1.22,1.22,0,0,1-.71-.3,1.21,1.21,0,0,1-.39-.69,14.85,14.85,0,0,0-.53-1.83.16.16,0,0,0-.18-.09l-1.78.51-1.56.44a.93.93,0,0,1-.73-.08,1,1,0,0,1-.48-.54l-.44-1.24a.63.63,0,0,1-.06-.32,1,1,0,0,1,.11-.37.86.86,0,0,1,.56-.39c1.05-.22,2.16-.49,3.32-.79q.06,0,.06-.06s0-.05,0-.05a19.85,19.85,0,0,0-2.07-1.62A.76.76,0,0,1,199,387a.78.78,0,0,1,.22-.63l.73-.78c.06-.07,0-.1,0-.11l-.58,0a.92.92,0,0,1-.66-.33.9.9,0,0,1-.23-.67l.09-1.15a.94.94,0,0,1,1-.89Zm-5.05,5.62a.79.79,0,0,1,.68.1.84.84,0,0,1,.37.59l.11,1a1,1,0,0,1-.15.76,1.19,1.19,0,0,1-.61.47l-1.17.34s0,0,0,.05c.53.06,1.18.12,1.94.18a.67.67,0,0,0,.36-.1.4.4,0,0,0,.13-.3l.42-5.71c0-.09,0-.14-.1-.15l-3.8-.28s0,0,0,.05c.56.37,1,.7,1.43,1a.82.82,0,0,1,.32.64.94.94,0,0,1-.24.71l-.81.9s0,0,0,.05l0,0Z" transform="translate(-0.82 -345.36)"/><path class="cls-2" d="M237.12,393.81a.92.92,0,0,1-.33.66.93.93,0,0,1-.7.23l-8.11-.6c-.07,0-.1,0-.09.1q2.24,8,8.2,11.62a.64.64,0,0,1,.33.64.69.69,0,0,1-.22.44,18,18,0,0,0-1.95,2.1,1.07,1.07,0,0,1-.64.41h-.27a.88.88,0,0,1-.44-.17,18,18,0,0,1-5.08-5.12,27.62,27.62,0,0,1-3.24-7.19l-.05,0,0,0a20.72,20.72,0,0,1-3.1,5.44l0,0,1.51-.88a1.06,1.06,0,0,1,.76-.16,1.15,1.15,0,0,1,.7.35,39.77,39.77,0,0,1,3.25,3.82.79.79,0,0,1,.15.69,1,1,0,0,1-.44.6L225,408.29a.85.85,0,0,1-.68.1,1,1,0,0,1-.58-.44,36.73,36.73,0,0,0-3.32-4.33.1.1,0,0,0-.16,0,19.67,19.67,0,0,1-6.2,4.3,1,1,0,0,1-.46.07,1.09,1.09,0,0,1-.26-.05,1,1,0,0,1-.58-.5,13.38,13.38,0,0,0-1.61-2.09.61.61,0,0,1-.18-.47.58.58,0,0,1,.36-.54,18.2,18.2,0,0,0,3.77-2,13.86,13.86,0,0,0,2.79-2.57,17.36,17.36,0,0,0,1.88-2.86,19,19,0,0,0,1.28-3.18c0-.07,0-.11-.1-.11l-7.63-.57a1,1,0,0,1-.89-1l.17-2.18a1,1,0,0,1,1-.89l8.22.61a.12.12,0,0,0,.14-.09c.16-1.11.34-3,.55-5.52a.92.92,0,0,1,.33-.66.93.93,0,0,1,.7-.23l2.47.18a.88.88,0,0,1,.64.33.93.93,0,0,1,.22.7c-.21,2.27-.41,4.1-.62,5.51q0,.11.09.12l10,.74a.92.92,0,0,1,.66.33.93.93,0,0,1,.23.7Z" transform="translate(-0.82 -345.36)"/><path class="cls-2" d="M264.76,394.34a1,1,0,0,1-.33.66.91.91,0,0,1-.68.23l-5.05-.38c-.07,0-.11,0-.11.1l-.3,4c0,.07,0,.11.1.12l4.06.3a.88.88,0,0,1,.65.33,1,1,0,0,1,.21.7l-.77,10.45a.94.94,0,0,1-1,.86l-2.29-.17a.89.89,0,0,1-.62-.31.93.93,0,0,1-.22-.66c0-.09,0-.14-.12-.14l-6.14-.46a.12.12,0,0,0-.15.12v.08a.89.89,0,0,1-.33.63.85.85,0,0,1-.67.23l-2.05-.15a.86.86,0,0,1-.64-.33.88.88,0,0,1-.22-.67l.76-10.29s0,0,0,0,0,0,0,0l-1.59,1.56a.51.51,0,0,1-.53.14.55.55,0,0,1-.39-.39c-.13-.46-.26-.9-.41-1.34l0,0,0,0-.75,10.14a.91.91,0,0,1-.33.63.93.93,0,0,1-.7.23l-1.78-.14a.85.85,0,0,1-.63-.32.91.91,0,0,1-.23-.68l.59-7.95a0,0,0,0,0,0,0l0,0a21.71,21.71,0,0,1-1.8,3.42.4.4,0,0,1-.43.18.43.43,0,0,1-.36-.32c-.25-.78-.54-1.59-.89-2.42a1.63,1.63,0,0,1-.14-.73,1.66,1.66,0,0,1,.36-.86,24.74,24.74,0,0,0,3.69-7.5c0-.09,0-.14-.1-.14l-2.05-.16a.88.88,0,0,1-.63-.32.91.91,0,0,1-.23-.68l.13-1.78a.89.89,0,0,1,.33-.63.9.9,0,0,1,.67-.23l2.27.17a.13.13,0,0,0,.14-.13l.29-3.9a.92.92,0,0,1,.33-.66.89.89,0,0,1,.67-.23l1.78.13a.92.92,0,0,1,.66.33.93.93,0,0,1,.23.7l-.29,3.91c0,.09,0,.13.09.14l1.15.08a1,1,0,0,1,.66.33.9.9,0,0,1,.23.67l-.14,1.79a.85.85,0,0,1-.32.63,1,1,0,0,1-.7.23l-1.15-.09c-.07,0-.11,0-.11.13l0,.56a.25.25,0,0,0,.06.21q1.42,2.38,2.57,4.71s0,0,0,0,0,0,0,0a.6.6,0,0,1,.2-.41.55.55,0,0,1,.43-.16l4.49.33c.07,0,.11,0,.12-.1l.3-4c0-.07,0-.11-.1-.11l-4.42-.33a.92.92,0,0,1-.65-.33.93.93,0,0,1-.23-.7l.14-1.91a.92.92,0,0,1,.33-.66.93.93,0,0,1,.7-.23l4.41.33a.11.11,0,0,0,.12-.1l.32-4.31a1,1,0,0,1,.33-.66.93.93,0,0,1,.7-.22l2.23.16a.92.92,0,0,1,.66.33.93.93,0,0,1,.23.7l-.32,4.31c0,.07,0,.11.1.11l5.05.38a.88.88,0,0,1,.63.32,1,1,0,0,1,.23.7Zm-6.19,12.4c.09,0,.13,0,.14-.12L259,403c0-.07,0-.11-.13-.12l-6.14-.45c-.09,0-.14,0-.14.09l-.27,3.59a.12.12,0,0,0,.12.15Z" transform="translate(-0.82 -345.36)"/><path class="cls-2" d="M274.23,406.43a1.19,1.19,0,0,1,.11.79,1.24,1.24,0,0,1-.38.69l-1.23,1.17a.6.6,0,0,1-.57.13.62.62,0,0,1-.43-.4q-.33-.84-.84-2s0,0,0,0,0,0-.06,0a16.71,16.71,0,0,1-2.71,4.88.66.66,0,0,1-.58.24.84.84,0,0,1-.57-.33,14.32,14.32,0,0,0-1.1-1.39,1,1,0,0,1-.29-.69c0-.05,0-.11,0-.16a1.06,1.06,0,0,1,.2-.55,13.86,13.86,0,0,0,1.62-2.78,17.51,17.51,0,0,0,1.06-3.21q.38-1.69.57-3.15c.12-1,.23-2.08.32-3.32l.64-8.59a.89.89,0,0,1,.33-.63.93.93,0,0,1,.7-.23l1.46.11a.86.86,0,0,1,.64.33.88.88,0,0,1,.22.67l-.57,7.66h0c.37-1.17.69-2.36,1-3.59a.73.73,0,0,1,.41-.51.79.79,0,0,1,.67,0l.94.42a.88.88,0,0,1,.49.53.92.92,0,0,1,0,.71c-.2.45-.48,1.11-.85,2s-.62,1.49-.78,1.86a.82.82,0,0,1-.53.48,1,1,0,0,1-.73,0l-.56-.31c-.09,0-.14,0-.14.07-.14,1.88-.34,3.52-.58,4.93a.23.23,0,0,0,0,.21C272.58,403.18,273.29,404.55,274.23,406.43Zm-7.35-13.35a.93.93,0,0,1,.35-.6.74.74,0,0,1,.67-.15l.48.08a1.06,1.06,0,0,1,.63.4,1,1,0,0,1,.22.71,30.41,30.41,0,0,1-1,5.83.68.68,0,0,1-.45.49.74.74,0,0,1-.65-.06l-.64-.37a1.08,1.08,0,0,1-.5-.57,1.57,1.57,0,0,1-.07-.51c0-.09,0-.19.05-.29A25.68,25.68,0,0,0,266.88,393.08Zm24.27,13.46a.92.92,0,0,1-.33.66.89.89,0,0,1-.67.23l-3.43-.26s0,0,0,0,0,0,0,.05a17.41,17.41,0,0,0,4,3,.63.63,0,0,1,.33.64.64.64,0,0,1-.22.41c-.5.46-1,.94-1.42,1.44a1.05,1.05,0,0,1-.65.37A1,1,0,0,1,288,413a17.59,17.59,0,0,1-3.41-3.43,0,0,0,0,0,0,0s0,0,0,0l-.22,3.06a.89.89,0,0,1-.33.63.93.93,0,0,1-.7.23l-1.86-.14a.92.92,0,0,1-.66-.33.89.89,0,0,1-.23-.67l.23-3.06s0,0,0,0,0,0,0,0a18.77,18.77,0,0,1-4.6,2.92,1,1,0,0,1-.76,0,1.08,1.08,0,0,1-.6-.49c-.37-.56-.76-1.1-1.17-1.61a.57.57,0,0,1-.15-.41.29.29,0,0,1,0-.16.51.51,0,0,1,.4-.4,17.93,17.93,0,0,0,4.89-2.5s0,0,0,0,0,0,0,0l-3.35-.25a.92.92,0,0,1-.66-.33.93.93,0,0,1-.23-.7l.1-1.33a.88.88,0,0,1,.33-.64.93.93,0,0,1,.7-.22l5.48.41c.07,0,.11,0,.11-.13l.11-1.38c0-.09,0-.14-.1-.14l-4.95-.37a1,1,0,0,1-.86-1l.36-4.79a.91.91,0,0,1,.32-.65.89.89,0,0,1,.68-.23l5.53.41a.86.86,0,0,1,.64.33.91.91,0,0,1,.22.69l-.39,5.22a.13.13,0,0,0,.12.14l.62,0c.07,0,.11,0,.11-.12l.39-5.21a.92.92,0,0,1,.33-.66.93.93,0,0,1,.7-.23l5.61.42a.92.92,0,0,1,.66.33.93.93,0,0,1,.23.7l-.36,4.78a1,1,0,0,1-1,.86l-4.94-.37c-.07,0-.11,0-.12.13l-.1,1.38c0,.09,0,.14.1.14l5.34.4a.88.88,0,0,1,.63.32.84.84,0,0,1,.23.68ZM289,388.46a.92.92,0,0,1,.65.33.85.85,0,0,1,.23.67l-.34,4.66a.92.92,0,0,1-.33.65.89.89,0,0,1-.7.23l-9.6-.71a.89.89,0,0,1-.63-.33.93.93,0,0,1-.23-.7l.35-4.65a.85.85,0,0,1,.32-.63.91.91,0,0,1,.68-.23Zm-9.49,10.69a.11.11,0,0,0,.14-.12l.1-1.25c0-.07,0-.11-.13-.12l-.77-.06c-.07,0-.11,0-.11.1l-.1,1.25c0,.09,0,.14.1.14Zm6.39-7.15c.09,0,.13,0,.14-.1l.06-.77c0-.09,0-.13-.13-.14l-4.2-.31c-.07,0-.11,0-.11.12l-.06.78c0,.07,0,.1.1.11Zm1.22,6.22c-.07,0-.11,0-.11.09l-.1,1.25c0,.09,0,.14.1.15l.85.06a.12.12,0,0,0,.15-.12l.09-1.25c0-.08,0-.11-.13-.12Z" transform="translate(-0.82 -345.36)"/><path class="cls-2" d="M301,403.85a1.11,1.11,0,0,1-.38.65.85.85,0,0,1-.67.23l-2.37-.17a1,1,0,0,1-.67-.33.9.9,0,0,1-.24-.7,6.39,6.39,0,0,1,.55-1.89,7.77,7.77,0,0,1,1-1.57c.36-.44.72-.87,1.08-1.27a8.64,8.64,0,0,0,.93-1.23,2.59,2.59,0,0,0,.44-1.23,1.79,1.79,0,0,0-.3-1.28,1.34,1.34,0,0,0-1-.5,2.35,2.35,0,0,0-1.67.59,1.08,1.08,0,0,1-.7.24.87.87,0,0,1-.66-.28l-1.19-1.27a1,1,0,0,1-.27-.77.84.84,0,0,1,.31-.59,6.71,6.71,0,0,1,5-1.82,5.9,5.9,0,0,1,3.88,1.61,4.84,4.84,0,0,1,1.24,4,5.17,5.17,0,0,1-.49,1.89,6.5,6.5,0,0,1-1,1.55c-.38.44-.76.87-1.14,1.27a9.85,9.85,0,0,0-1.05,1.35A4.58,4.58,0,0,0,301,403.85Zm-.63,7.78a2.86,2.86,0,0,1-2.16.68,2.91,2.91,0,0,1-2.05-1,2.87,2.87,0,0,1-.68-2.2,2.94,2.94,0,0,1,1-2.08,2.83,2.83,0,0,1,2.16-.71,2.89,2.89,0,0,1,2,1,3,3,0,0,1,.68,2.21A3,3,0,0,1,300.4,411.63Z" transform="translate(-0.82 -345.36)"/><path class="cls-2" d="M312.71,390.65a1,1,0,0,1,.53-.51,1,1,0,0,1,.74,0l1.9.76a.79.79,0,0,1,.49.49,1,1,0,0,1,0,.72c-.74,1.48-1.54,2.91-2.41,4.31a.43.43,0,0,0-.1.24l-1.33,18a.92.92,0,0,1-.32.63.89.89,0,0,1-.68.23l-1.87-.14a.92.92,0,0,1-.65-.33.85.85,0,0,1-.23-.67l.9-12.18a.05.05,0,0,0,0,0,0,0,0,0,0-.06,0,9,9,0,0,1-.69.69.51.51,0,0,1-.55.16.55.55,0,0,1-.4-.39,25.26,25.26,0,0,0-1.06-2.56,1.32,1.32,0,0,1-.12-.65v-.14a1.48,1.48,0,0,1,.38-.72A27,27,0,0,0,312.71,390.65ZM317,403.46a.94.94,0,0,1,.44-.56,1,1,0,0,1,.73-.08l1.94.55a.92.92,0,0,1,.58.46.84.84,0,0,1,0,.71,28,28,0,0,1-3.39,7.13.78.78,0,0,1-.6.34.88.88,0,0,1-.67-.19c-.52-.42-1.08-.83-1.7-1.25a.79.79,0,0,1-.35-.58.84.84,0,0,1,.18-.67A19.27,19.27,0,0,0,317,403.46Zm11.8-4.12c0-.07,0-.11-.1-.12l-2.57-.19c-.09,0-.14,0-.15.1l-1,13.11a6.89,6.89,0,0,1-.46,2.24,2.47,2.47,0,0,1-1.19,1.22,7.61,7.61,0,0,1-3.38.52H320a1,1,0,0,1-.65-.29,1.23,1.23,0,0,1-.37-.7,13.45,13.45,0,0,0-.59-2.26.66.66,0,0,1,.11-.57.58.58,0,0,1,.52-.24c.47.06,1,.1,1.62.15a.69.69,0,0,0,.4-.06.5.5,0,0,0,.14-.35l1-13.06q0-.1-.12-.12l-2.37-.18a.24.24,0,0,0-.19.1,23.68,23.68,0,0,1-2.11,2.89.77.77,0,0,1-.63.3.88.88,0,0,1-.66-.29c-.53-.54-1.07-1.05-1.62-1.54a.86.86,0,0,1,0-1.28,22.41,22.41,0,0,0,4.44-7.62,1,1,0,0,1,.5-.55,1,1,0,0,1,.51-.09.78.78,0,0,1,.21,0l2,.6a.89.89,0,0,1,.55.49.81.81,0,0,1,0,.68c-.38,1-.75,1.82-1.13,2.62,0,.08,0,.13,0,.13l8.33.62a.34.34,0,0,0,.13,0,3.25,3.25,0,0,1,.54,0,2.36,2.36,0,0,1,.52.09l1.32.34a1,1,0,0,1,.61.42,1,1,0,0,1,.14.6s0,.08,0,.13c-.35,1.58-.75,3.17-1.21,4.78a.9.9,0,0,1-.46.58,1.06,1.06,0,0,1-.74.11l-1.5-.38a1,1,0,0,1-.58-.45.94.94,0,0,1-.13-.73C328.62,400.49,328.74,399.9,328.83,399.34ZM326.35,405a1.32,1.32,0,0,1,0-.35.79.79,0,0,1,.1-.34.81.81,0,0,1,.54-.44l1.8-.45a.78.78,0,0,1,.35-.06,1,1,0,0,1,.42.14,1.07,1.07,0,0,1,.49.57,34.24,34.24,0,0,1,1.67,7.13,1.62,1.62,0,0,1,0,.22,1,1,0,0,1-.2.52,1.12,1.12,0,0,1-.62.46l-2.1.54a.57.57,0,0,1-.25,0,.79.79,0,0,1-.39-.13,1,1,0,0,1-.33-.59A31.65,31.65,0,0,0,326.35,405Z" transform="translate(-0.82 -345.36)"/><path class="cls-2" d="M359.76,399.09a.88.88,0,0,1-.32.66,1,1,0,0,1-.7.23l-13.46-1a.17.17,0,0,0-.19.09c-.19.31-.46.74-.82,1.3,0,.07,0,.11.07.12l11.33.84a1,1,0,0,1,.86,1l-.92,12.42a6.08,6.08,0,0,1-.5,2.22,2.39,2.39,0,0,1-1.3,1.15,9.72,9.72,0,0,1-4,.34h0a1.08,1.08,0,0,1-.67-.32,1.2,1.2,0,0,1-.35-.69,17.08,17.08,0,0,0-.46-2.07.57.57,0,0,1,.62-.76c.63.07,1.38.13,2.23.2.41,0,.62-.12.65-.44l.06-.88c0-.07,0-.11-.12-.11l-8.78-.65c-.07,0-.11,0-.11.1l-.31,4.06a.85.85,0,0,1-.32.63.91.91,0,0,1-.7.23l-2-.15a.92.92,0,0,1-.66-.33.89.89,0,0,1-.23-.67l.75-10.16s0,0,0,0a0,0,0,0,0-.06,0,16.66,16.66,0,0,1-2.35,1.8.81.81,0,0,1-.69.13,1.09,1.09,0,0,1-.62-.44c-.41-.58-.84-1.16-1.29-1.72a.83.83,0,0,1-.18-.55.79.79,0,0,1,.4-.64,20.17,20.17,0,0,0,6.08-6.29s0-.08,0-.08l-4.45-.33a.92.92,0,0,1-.65-.33.91.91,0,0,1-.23-.7l.13-1.81a.94.94,0,0,1,.33-.66,1,1,0,0,1,.7-.23l6.12.46a.13.13,0,0,0,.16-.1c.3-.65.59-1.35.86-2.1a1,1,0,0,1,1-.67.78.78,0,0,1,.21,0l2.22.67a.93.93,0,0,1,.54.47.75.75,0,0,1,0,.7c-.18.43-.35.84-.52,1.22,0,.06,0,.1.07.11l11.94.88a.92.92,0,0,1,.66.33,1,1,0,0,1,.23.7Zm-16.69,10.23q0,.14.09.15l8.78.65c.09,0,.14,0,.14-.13l.07-.93c0-.07,0-.11-.12-.11l-8.78-.65c-.07,0-.11,0-.11.09Zm9.2-3.64c.09,0,.14,0,.14-.13l.07-.9c0-.07,0-.11-.13-.12l-8.77-.65c-.07,0-.11,0-.12.1l-.06.9c0,.09,0,.14.09.14Z" transform="translate(-0.82 -345.36)"/><path class="cls-2" d="M369.49,410a.94.94,0,0,1,.66.31.9.9,0,0,1,.23.69l-.49,6.59a.89.89,0,0,1-.33.63.88.88,0,0,1-.69.23l-4-.29c-.09,0-.13,0-.14.1a.85.85,0,0,1-.3.6.78.78,0,0,1-.61.21l-1.41-.1a.88.88,0,0,1-.65-.33,1,1,0,0,1-.21-.7l.56-7.55a.9.9,0,0,1,.31-.65.93.93,0,0,1,.69-.22ZM371,398.51a.9.9,0,0,1,.65.33,1,1,0,0,1,.21.7l-.09,1.19a.87.87,0,0,1-.31.63.86.86,0,0,1-.69.23l-8.19-.6a.94.94,0,0,1-.86-1l.09-1.2a.91.91,0,0,1,.32-.66.89.89,0,0,1,.68-.23Zm-7.73,10.1a.88.88,0,0,1-.64-.33,1,1,0,0,1-.22-.7l.08-1a1,1,0,0,1,.32-.66.89.89,0,0,1,.68-.23l6.33.47a.92.92,0,0,1,.66.33,1,1,0,0,1,.23.7l-.08,1a.94.94,0,0,1-.33.66,1,1,0,0,1-.7.23Zm.28-3.78a.92.92,0,0,1-.86-1l.08-1.06a.92.92,0,0,1,.32-.64.89.89,0,0,1,.68-.23l6.33.47a1,1,0,0,1,.89,1l-.08,1.06a.86.86,0,0,1-.33.64.93.93,0,0,1-.7.22Zm7-10.1a1,1,0,0,1,.66.33.93.93,0,0,1,.22.7l-.07,1a.92.92,0,0,1-.33.66,1,1,0,0,1-.7.23l-6.09-.45a.89.89,0,0,1-.63-.33.93.93,0,0,1-.23-.7l.08-1a.92.92,0,0,1,.33-.66.89.89,0,0,1,.67-.23ZM366.94,413c0-.09,0-.14-.09-.14l-1.55-.12c-.09,0-.13,0-.14.12l-.15,2.08c0,.07,0,.11.12.11l1.54.12a.11.11,0,0,0,.12-.1Zm9.72,1.36c0,.07,0,.1.1.09l1.37-.12a.86.86,0,0,1,.65.24.85.85,0,0,1,.27.63v1.37a1.05,1.05,0,0,1-.27.71,1,1,0,0,1-.67.37c-1.65.22-3.73.47-6.23.77a.93.93,0,0,1-.71-.19.92.92,0,0,1-.35-.64l-.25-1.76a1.48,1.48,0,0,1,0-.21.84.84,0,0,1,.2-.47.82.82,0,0,1,.61-.33l1.45-.08q.1,0,.12-.12l.43-5.8c0-.09,0-.14-.1-.14l-.9-.07a.88.88,0,0,1-.65-.33,1,1,0,0,1-.22-.67l.11-1.46a1,1,0,0,1,.32-.66.89.89,0,0,1,.68-.23l5.51.41a.89.89,0,0,1,.63.33.93.93,0,0,1,.23.7l-.11,1.46a1,1,0,0,1-1,.86l-.72,0c-.07,0-.11,0-.11.12Zm10.53-11.49a.93.93,0,0,1-.33.63.89.89,0,0,1-.67.23l-2.85-.21c-.07,0-.11,0-.11.12q-.27,5.39-.12,8.82c.09,2.29.32,3.46.67,3.52s.45-.69.67-2.14a.3.3,0,0,1,.26-.31.43.43,0,0,1,.42.12,13.35,13.35,0,0,0,1.25,1.24,1.41,1.41,0,0,1,.55,1.19.89.89,0,0,1-.08.32,8.74,8.74,0,0,1-1.71,3.62,2.42,2.42,0,0,1-1.88.87h0c-1.65-.16-2.73-1.66-3.25-4.52a64.22,64.22,0,0,1-.42-13c0-.09-.06-.14-.13-.14l-6.46-.48a.89.89,0,0,1-.63-.33.9.9,0,0,1-.23-.67l.13-1.71a.88.88,0,0,1,.32-.63.91.91,0,0,1,.68-.23l6.38.48c.07,0,.11,0,.12-.13.1-1.61.18-2.93.23-3.94a1,1,0,0,1,.33-.66.94.94,0,0,1,.7-.22l1.86.13a.9.9,0,0,1,.65.33,1,1,0,0,1,.21.7l0,.48c0,.09,0,.12.1.09l1.54-.64a1.23,1.23,0,0,1,.78-.05,1,1,0,0,1,.61.48,12.51,12.51,0,0,1,1,1.75.93.93,0,0,1,0,.73,1,1,0,0,1-.54.52l-1.77.8s0,0,0,0a0,0,0,0,0,0,0l1,.07a.89.89,0,0,1,.63.33.91.91,0,0,1,.24.67Zm-3.76-3.06c0,.08,0,.13.1.14l1.46.11c.07,0,.09,0,.06-.11a17.05,17.05,0,0,0-1.36-2.88s0,0,0,0a0,0,0,0,0,0,0Z" transform="translate(-0.82 -345.36)"/><path class="cls-2" d="M399.75,416.31a1,1,0,0,1-1,.86l-2.05-.15s0,0,0,.05a7.94,7.94,0,0,0,3.17.93c1,.13,2.35.26,3.93.37.71.06,1.46.1,2.26.15,2.63.15,4.93.24,6.91.24a.52.52,0,0,1,.49.28.62.62,0,0,1,.08.35,1.55,1.55,0,0,1,0,.21,17.16,17.16,0,0,0-.82,2,1.34,1.34,0,0,1-.48.65,1,1,0,0,1-.73.22c-2.37-.06-4.61-.18-6.72-.33-1.84-.14-3.58-.3-5.2-.5a12,12,0,0,1-3.87-1,6.88,6.88,0,0,1-2.57-2.28c-.05-.07-.1-.09-.16,0-.86.72-1.81,1.47-2.87,2.25a.64.64,0,0,1-.62.11.71.71,0,0,1-.48-.43l-.87-2.31a1.18,1.18,0,0,1,0-.46.82.82,0,0,1,.07-.29,1,1,0,0,1,.5-.58c.76-.41,1.56-.88,2.4-1.42a.24.24,0,0,0,.1-.19l.38-5.1a.11.11,0,0,0-.1-.12l-1.78-.13a.94.94,0,0,1-.64-.33.93.93,0,0,1-.22-.7l.13-1.75a.85.85,0,0,1,.32-.63.91.91,0,0,1,.68-.23l4.73.35a.92.92,0,0,1,.66.33.89.89,0,0,1,.23.67L394.9,415a.38.38,0,0,0,0,.22,4,4,0,0,0,1.24,1.56c.07.06.11,0,.12,0l.79-10.75a1,1,0,0,1,.33-.66.91.91,0,0,1,.68-.23l.93.07c.08,0,.13,0,.14-.09l.54-7.26a.92.92,0,0,1,.33-.66.85.85,0,0,1,.67-.23l10.24.76a.88.88,0,0,1,.64.33.94.94,0,0,1,.22.69l-.54,7.26q0,.1.12.12l.88.07a.85.85,0,0,1,.63.32,1,1,0,0,1,.23.7l-.58,7.79a5.57,5.57,0,0,1-.37,1.8,2,2,0,0,1-1,.94,6,6,0,0,1-2.54.32,1.13,1.13,0,0,1-.7-.32,1.26,1.26,0,0,1-.37-.7c-.06-.38-.14-.77-.24-1.16a.13.13,0,0,0-.15-.12l-3.62-.27c-.05,0-.08,0-.08.07a.57.57,0,0,1-.21.41.52.52,0,0,1-.42.16l-1.25-.09a1,1,0,0,1-.86-1l.37-5a.88.88,0,0,1,.32-.63.91.91,0,0,1,.68-.23l5.34.39a.89.89,0,0,1,.63.33.85.85,0,0,1,.23.67l-.31,4.29c0,.07,0,.1.12.11l.48,0a.42.42,0,0,0,.27-.05c.06,0,.09-.12.1-.25l.42-5.64a.13.13,0,0,0-.12-.14l-8.83-.65c-.08,0-.11,0-.12.12Zm-3.66-16.23a.83.83,0,0,1,.13.69.91.91,0,0,1-.42.6L394,402.59a.88.88,0,0,1-1.26-.31,26.75,26.75,0,0,0-2.57-3.29.75.75,0,0,1-.2-.63.69.69,0,0,1,.35-.56l1.6-1a1.1,1.1,0,0,1,.76-.18,1.22,1.22,0,0,1,.72.34A26.32,26.32,0,0,1,396.09,400.08Zm7-.1c-.07,0-.1,0-.11.1l-.39,5.24c0,.07,0,.11.1.11l.82.06c.09,0,.14,0,.14-.09l.23-3.06a.92.92,0,0,1,.32-.63.85.85,0,0,1,.68-.23l3.06.22q.1,0,.12-.12l.08-1.12c0-.07,0-.11-.1-.11Zm2.13,13.16c.09,0,.14,0,.14-.1l.08-1.09c0-.07,0-.11-.12-.12l-1.39-.1c-.09,0-.13,0-.14.1l-.08,1.09c0,.07,0,.11.13.11Zm2.42-7.34c.07,0,.1,0,.11-.1l.11-1.49a.09.09,0,0,0-.1-.11L406.6,404c-.09,0-.14,0-.14.1l-.11,1.49q0,.11.12.12Z" transform="translate(-0.82 -345.36)"/><path class="cls-2" d="M441.34,403.65a.89.89,0,0,1-.33.63.93.93,0,0,1-.7.23l-9.23-.68q-.1,0-.12.12l-.11,1.49c0,.09,0,.13.1.14l8.46.63a1,1,0,0,1,.66.33.89.89,0,0,1,.23.67l-1,14a5.17,5.17,0,0,1-.47,2,2.31,2.31,0,0,1-1.23,1,9.19,9.19,0,0,1-3.6.32,1.17,1.17,0,0,1-.72-.31,1.15,1.15,0,0,1-.39-.68,13.66,13.66,0,0,0-.47-1.59.55.55,0,0,1,.08-.55.51.51,0,0,1,.51-.21l1.81.14a.63.63,0,0,0,.45-.09.58.58,0,0,0,.15-.38l.09-1.22c0-.07,0-.09-.1-.06a5,5,0,0,0-.67.38.85.85,0,0,1-.68.09.76.76,0,0,1-.53-.42,12,12,0,0,1-.47-1.59s0,0,0,0a0,0,0,0,0,0,0,12.44,12.44,0,0,1-.94,1.53.77.77,0,0,1-.6.33.84.84,0,0,1-.67-.24,8,8,0,0,0-.8-.64c-.06,0-.08,0-.09,0l-.31,4.26a.89.89,0,0,1-.33.63.93.93,0,0,1-.7.23l-1.89-.14a1,1,0,0,1-.66-.33.9.9,0,0,1-.23-.67l.28-3.67c0-.09,0-.11-.08-.06a.88.88,0,0,0-.17.12.91.91,0,0,1-.68.15.71.71,0,0,1-.53-.4,11.94,11.94,0,0,1-.64-1.89l0-.05s0,0-.05,0a11.7,11.7,0,0,1-1.19,1.89.74.74,0,0,1-.62.3,1,1,0,0,1-.69-.27l-.53-.44c-.07,0-.1,0-.11.05l-.28,3.8a.88.88,0,0,1-.32.63.84.84,0,0,1-.68.23l-1.89-.14a.94.94,0,0,1-.66-.33.89.89,0,0,1-.23-.67l1.25-16.81a.91.91,0,0,1,.33-.63.93.93,0,0,1,.7-.23l8.06.6c.07,0,.11,0,.11-.12l.11-1.49c0-.09,0-.14-.09-.14l-8.91-.66a1,1,0,0,1-.89-1l.15-2a.89.89,0,0,1,.33-.63.92.92,0,0,1,.69-.23l22.16,1.65a1,1,0,0,1,.66.33.93.93,0,0,1,.23.67Zm-19.41,6.8a.85.85,0,0,1,.32-.63.91.91,0,0,1,.7-.23l1.81.13a.89.89,0,0,1,.63.33,1,1,0,0,1,.26.67,16.74,16.74,0,0,0,.49,6h0s0,0,0,0l.57-7.63c0-.07,0-.11-.1-.12l-5.1-.38c-.09,0-.14,0-.14.1l-.67,8.91s0,0,0,0,0,0,0,0a12.44,12.44,0,0,0,2.19-5.35c0-.09,0-.14-.09-.14h-.16a.92.92,0,0,1-.66-.33,1,1,0,0,1-.23-.7Zm14.27-.68q0-.11-.12-.12l-5.4-.4c-.07,0-.11,0-.12.1l-.66,8.94s0,0,0,0,0,0,0,0a13.49,13.49,0,0,0,2.3-5.39c0-.07,0-.11-.1-.12H432a1,1,0,0,1-.66-.33.93.93,0,0,1-.22-.7l0-.61a.89.89,0,0,1,.33-.63.93.93,0,0,1,.7-.23l1.81.14a.89.89,0,0,1,.64.31,1,1,0,0,1,.24.69,15.9,15.9,0,0,0,.64,6.52,0,0,0,0,0,.06,0Z" transform="translate(-0.82 -345.36)"/><path class="cls-2" d="M448.4,400.67a1,1,0,0,1,1-.6,1.28,1.28,0,0,1,.29.08l1.76.69a.83.83,0,0,1,.51.49.89.89,0,0,1,0,.73,41.85,41.85,0,0,1-2,4,.56.56,0,0,0-.07.23l-1.37,18.51a.9.9,0,0,1-.33.65.93.93,0,0,1-.67.21l-1.89-.14a.87.87,0,0,1-.63-.31.86.86,0,0,1-.23-.69l.89-12.1s0,0,0,0h-.05c-.24.29-.47.56-.71.81a.49.49,0,0,1-.51.13.54.54,0,0,1-.38-.39,28.34,28.34,0,0,0-.92-2.69,1.65,1.65,0,0,1-.11-.67,1.39,1.39,0,0,1,.41-.88A27.33,27.33,0,0,0,448.4,400.67Zm3.87,1.55a.9.9,0,0,1,.33-.65,1,1,0,0,1,.7-.21L468,402.45a1,1,0,0,1,.66.31,1,1,0,0,1,.23.69l-1.67,22.47a1,1,0,0,1-1,.86l-1.86-.14a1,1,0,0,1-.89-1l0-.29a.09.09,0,0,0-.1-.11l-9-.67c-.09,0-.14,0-.14.09l0,.53a1,1,0,0,1-1,.87l-1.7-.13a.92.92,0,0,1-.66-.33.89.89,0,0,1-.23-.67Zm2.22,18.8c0,.09,0,.14.12.14l9,.67c.07,0,.11,0,.11-.12l1.19-16a.11.11,0,0,0-.1-.12l-9-.66c-.09,0-.13,0-.14.09Zm9.66-10.57a.92.92,0,0,1-.33.66.89.89,0,0,1-.67.23l-1.73-.13c-.07,0-.11,0-.11.1l-.14,1.78a.11.11,0,0,0,.1.12l1.28.09a1,1,0,0,1,.66.33.93.93,0,0,1,.22.7l-.4,5.48a1,1,0,0,1-.33.66.93.93,0,0,1-.7.22l-5.56-.41a1,1,0,0,1-.66-.33.93.93,0,0,1-.23-.7l.41-5.47a.92.92,0,0,1,.33-.66.89.89,0,0,1,.7-.23l1,.07c.09,0,.14,0,.14-.09l.13-1.79c0-.07,0-.1-.12-.11l-1.49-.11a.86.86,0,0,1-.64-.33.93.93,0,0,1-.22-.7l.07-.9a.94.94,0,0,1,.31-.66.9.9,0,0,1,.69-.23l1.49.11c.09,0,.13,0,.14-.1l.12-1.57a.88.88,0,0,1,.32-.63.91.91,0,0,1,.68-.23l1.14.09a1,1,0,0,1,.66.33.89.89,0,0,1,.23.67l-.12,1.57c0,.07,0,.11.1.11l1.73.13a.89.89,0,0,1,.63.33.93.93,0,0,1,.23.7Zm-4.06,7.46c.07,0,.11,0,.12-.13l.14-1.83c0-.08,0-.11-.1-.12l-1.52-.11a.09.09,0,0,0-.11.1l-.14,1.83c0,.09,0,.14.1.14Z" transform="translate(-0.82 -345.36)"/><path class="cls-2" d="M481.23,403.05a1,1,0,0,1,.35-.65,1,1,0,0,1,.7-.23l2.66.2a.86.86,0,0,1,.64.33.88.88,0,0,1,.22.67c0,.26-.07.55-.12.87,0,.7,0,1.4,0,2.1s.12,1.62.27,2.75a27.32,27.32,0,0,0,.6,3.24,22.36,22.36,0,0,0,1.15,3.4,20,20,0,0,0,1.82,3.43,19.08,19.08,0,0,0,2.67,3.14,18.64,18.64,0,0,0,2.8,2.21.61.61,0,0,1,.28.58.62.62,0,0,1-.25.44,11.17,11.17,0,0,0-2,1.86,1.18,1.18,0,0,1-.65.38.63.63,0,0,1-.27,0,.8.8,0,0,1-.44-.17q-6.45-4.29-8.72-12.92s0,0,0,0,0,0,0,0a24.15,24.15,0,0,1-9.75,11.49,1,1,0,0,1-.55.13l-.16,0a1.14,1.14,0,0,1-.63-.42,11.16,11.16,0,0,0-1.89-2,.65.65,0,0,1-.22-.55.61.61,0,0,1,.33-.51,18.13,18.13,0,0,0,2.22-1.41,23.17,23.17,0,0,0,2.51-2.1,16.19,16.19,0,0,0,1.95-2.37,27.29,27.29,0,0,0,1.49-2.44,17.62,17.62,0,0,0,1.11-2.54c.34-.94.6-1.74.78-2.42a22.51,22.51,0,0,0,.51-2.33c.16-.88.26-1.55.33-2s.13-1.07.2-1.78A3.06,3.06,0,0,0,481.23,403.05Z" transform="translate(-0.82 -345.36)"/><path class="cls-2" d="M506.19,421.65a1,1,0,0,1-.33.66,1,1,0,0,1-.7.23l-3.67-.28c-.09,0-.14,0-.14.1l-.08,1a.94.94,0,0,1-.31.66.91.91,0,0,1-.69.23l-1.6-.12a.92.92,0,0,1-.65-.33.89.89,0,0,1-.23-.7L499,406.73a.92.92,0,0,1,.33-.66,1,1,0,0,1,.7-.23l6.33.47a.92.92,0,0,1,.66.33.93.93,0,0,1,.23.7Zm-2.71-11.75c0-.08,0-.11-.1-.12l-1-.07c-.09,0-.14,0-.14.1l-.64,8.67c0,.08,0,.13.12.14l1,.07c.07,0,.11,0,.11-.12Zm3.77,18.62a1,1,0,0,1-1.33.3l-1.1-.61a.84.84,0,0,1-.42-.57,1.69,1.69,0,0,1,0-.3.91.91,0,0,1,.14-.41,16,16,0,0,0,1.61-4.32.76.76,0,0,1,.4-.55.77.77,0,0,1,.68,0l1,.37a1.09,1.09,0,0,1,.6.5,1.06,1.06,0,0,1,.11.76A17.84,17.84,0,0,1,507.25,428.52Zm10-10.14q0,.11.12.12l4.63.34a.85.85,0,0,1,.62.34.89.89,0,0,1,.22.63q0,.13-.06.45c-.36,3.11-.68,5.38-1,6.79a7,7,0,0,1-1,2.78,3,3,0,0,1-2,1,10.13,10.13,0,0,1-1.82,0h0a.88.88,0,0,1-.62-.32,1,1,0,0,1-.32-.69,9.28,9.28,0,0,0-.32-1.57.57.57,0,0,1,.13-.54.58.58,0,0,1,.52-.22l.74.06a.87.87,0,0,0,.77-.29,3.14,3.14,0,0,0,.48-1.33.09.09,0,0,0,0-.06.08.08,0,0,0-.07,0l-1,.3a.81.81,0,0,1-.66-.13,1,1,0,0,1-.39-.57,18.15,18.15,0,0,0-.53-2.15.92.92,0,0,1,.06-.69.76.76,0,0,1,.53-.41l.3-.09a1.2,1.2,0,0,1,.77.1.91.91,0,0,1,.49.56,16.71,16.71,0,0,1,.7,2.4s0,0,0,0a0,0,0,0,0,0,0q.24-1.37.45-3.12c0-.09,0-.13-.13-.14l-10.5-.78a.88.88,0,0,1-.63-.32.85.85,0,0,1-.23-.68l1-14a.94.94,0,0,1,1-.89l12.63.94a.92.92,0,0,1,.66.33.93.93,0,0,1,.23.7L523,408.7a.88.88,0,0,1-.33.64.93.93,0,0,1-.7.22l-3.88-.29a.12.12,0,0,0-.15.12l-.06.8c0,.07,0,.11.13.12l3,.22a.92.92,0,0,1,.65.33.89.89,0,0,1,.23.7l-.08,1.11a.92.92,0,0,1-.33.66.93.93,0,0,1-.7.23l-3-.22c-.08,0-.13,0-.14.09l-.06.83c0,.09,0,.13.13.14l3,.22a.92.92,0,0,1,.66.33.9.9,0,0,1,.23.67l-.08,1.15a.88.88,0,0,1-.33.64.93.93,0,0,1-.7.22l-3-.22c-.09,0-.13,0-.14.12Zm-7.84,5.06a1,1,0,0,1,.22-.68.88.88,0,0,1,.66-.32l.67-.06a.88.88,0,0,1,.69.2.94.94,0,0,1,.37.65,25.06,25.06,0,0,1,.09,3.86,1,1,0,0,1-.29.69,1.2,1.2,0,0,1-.72.33l-.81.08a.77.77,0,0,1-.63-.24.79.79,0,0,1-.22-.63A25.27,25.27,0,0,0,509.45,423.44Zm2.16-6.47c-.07,0-.11,0-.11.13l-.06.85c0,.07,0,.11.09.11l2,.15c.09,0,.13,0,.14-.1l.06-.85c0-.09,0-.13-.12-.14Zm2.22-2.86A.12.12,0,0,0,514,414l.06-.82c0-.08,0-.11-.13-.12l-2-.15a.11.11,0,0,0-.12.1l-.06.82c0,.09,0,.14.1.14Zm.51-5c0-.09,0-.13-.13-.14l-2-.15c-.07,0-.11,0-.12.13l-.06.79c0,.08,0,.11.1.12l2,.15c.08,0,.13,0,.14-.1Zm-1.71,14.34a1,1,0,0,1,.12-.7.83.83,0,0,1,.58-.39l.51-.13a1.06,1.06,0,0,1,.76.14,1,1,0,0,1,.45.59,22.14,22.14,0,0,1,.52,3.09,1,1,0,0,1-.21.74,1,1,0,0,1-.65.4l-.68.16a.75.75,0,0,1-.63-.16.81.81,0,0,1-.31-.6A23.13,23.13,0,0,0,512.63,423.46Z" transform="translate(-0.82 -345.36)"/><path class="cls-2" d="M532.52,421a1.17,1.17,0,0,1-.38.65.91.91,0,0,1-.68.23l-2.36-.18a.92.92,0,0,1-.67-.33.87.87,0,0,1-.25-.7,6.27,6.27,0,0,1,.56-1.88,7.48,7.48,0,0,1,1-1.57c.36-.45.72-.87,1.08-1.27a8.73,8.73,0,0,0,.94-1.23,2.74,2.74,0,0,0,.44-1.24,1.76,1.76,0,0,0-.31-1.28,1.35,1.35,0,0,0-1-.5,2.45,2.45,0,0,0-1.68.6,1.12,1.12,0,0,1-.7.24.88.88,0,0,1-.66-.29L526.63,411a1,1,0,0,1-.26-.77.85.85,0,0,1,.31-.6,6.69,6.69,0,0,1,5-1.81,5.83,5.83,0,0,1,3.87,1.61,4.84,4.84,0,0,1,1.25,4,5.5,5.5,0,0,1-.49,1.89,6.76,6.76,0,0,1-1,1.54c-.39.45-.76.87-1.14,1.27a9,9,0,0,0-1.05,1.35A4.62,4.62,0,0,0,532.52,421Zm-.63,7.77a2.79,2.79,0,0,1-2.16.68,2.86,2.86,0,0,1-2.06-1,3.16,3.16,0,0,1,.32-4.28,2.8,2.8,0,0,1,2.17-.71,2.77,2.77,0,0,1,2,1,3.18,3.18,0,0,1-.3,4.28Z" transform="translate(-0.82 -345.36)"/></svg>