<?xml version="1.0" encoding="utf-8"?>
<!-- Generator: Adobe Illustrator 16.0.0, SVG Export Plug-In . SVG Version: 6.00 Build 0)  -->
<!DOCTYPE svg PUBLIC "-//W3C//DTD SVG 1.1//EN" "http://www.w3.org/Graphics/SVG/1.1/DTD/svg11.dtd">
<svg version="1.1" xmlns="http://www.w3.org/2000/svg" xmlns:xlink="http://www.w3.org/1999/xlink" x="0px" y="0px"
	 width="283.46px" height="566.93px" viewBox="0 0 283.46 566.93" enable-background="new 0 0 283.46 566.93" xml:space="preserve">
<g id="圖層_1" display="none">
	<g display="inline">
		<g>
			<path fill="#FFFFFF" stroke="#BEBDBE" stroke-miterlimit="10" d="M120.203,221.097c0,0-11.594-19.012-36.504-9.916
				c0,0-12.024,7.025-6.441,30.584c0,0-20.187,34.309-28.778,54.146c-8.585,19.838-42.944,93.826-13.741,150.043
				c29.205,56.212,67.968,29.412,72.262,27.756c4.294-1.652,32.247-9.573,49.426-4.061c17.179,5.512,24.655,18.11,38.213,5.443
				c19.467-18.188,19.714-55.477,19.467-68.89c-0.176-9.548-14.205-166.685-18.357-163.595
				C176.689,256.8,121.625,218.704,120.203,221.097z"/>
			<path fill="#A58FB0" d="M97.47,239.519l14.745-8.543c0,0-3.292-9.783-12.884-7.301C89.739,226.154,97.47,239.519,97.47,239.519z"
				/>
		</g>
		<g>
			<path fill="#82A188" d="M10.917,232.741c-0.754,14.7,56.963,47.211,79.162,56.635l10.044,4.061l76.648-16.174
				c15.92,0.93,29.436-10.242,30.189-24.942l64.736-136.313c0,0-3.665-13.258-4.296-14.146c0.292-4.583-52.905-39.563-68.826-40.484
				L64.744,65.345c-15.921-0.933-29.439,10.236-30.191,24.934L10.917,232.741z"/>
			<path fill="#BCDBC0" d="M211.602,262.134c-2.803,11.088-13.875,13.974-29.101,17.162l-82.377,14.141
				c-13.125-3.13-19.805-12.701-16.883-24.034l18.482-149.407c2.922-11.332,15.927-17.98,29.047-14.85l128.074-7.197
				c13.119,3.137,21.389,14.865,18.354,26.438L211.602,262.134z"/>
			<g>
				<path fill="#FFFFFF" d="M127.059,176.878l-17.543,80.316c0,0,49.861,11.367,50.619,16.868l17.087-2.33
					c0,0,12.589-17.954,23.274-12.983c0,0,41.506-115.992,42.355-117.152c0.803-1.098-20.808-2.59-54.492,26.636
					c0,0-20.068-10.731-55.504-6.466L127.059,176.878z"/>
				<path fill="#82A088" d="M162.903,205.343c-1.49,4.928-5.444,8.182-8.837,7.277c-3.389-0.91-4.923-5.642-3.427-10.566
					c1.491-4.928,5.443-8.186,8.835-7.281C162.864,195.683,164.399,200.412,162.903,205.343z"/>
				<path fill="#82A088" d="M208.588,204.562c-1.494,4.932-5.447,8.186-8.836,7.279c-3.386-0.91-4.928-5.643-3.431-10.568
					c1.493-4.928,5.448-8.185,8.833-7.277C208.543,194.905,210.084,199.634,208.588,204.562z"/>
				<polygon fill="#82A088" points="175.292,240.886 168.383,238.78 176.771,213.481 184.906,212.534 				"/>
				<path fill="#82A088" d="M173.062,234.121c0,0-9.66-7.728-16.474-1.728c-6.808,6.002-8.952,13.838-17.639,7.781
					c0,0,26.131,27.831,34.072-5.158"/>
				<path fill="#82A088" d="M173.265,234.319c0,0,8.809-5.572,13.403,0.508c4.59,6.07,5.191,13.182,12.993,8.953
					c0,0-24.825,21.104-26.491-8.672"/>
				<path fill="#FFFFFF" d="M126.942,163.272c0,0-10.844-16.865,10.93-26.422c21.775-9.557,17.702,23.985,16.304,25.014
					c-1.408,1.034-23.831,6.086-23.831,6.086L126.942,163.272z"/>
				<path fill="#C2D8BF" d="M135.848,164.534c0,0-6.259-9.738,6.316-15.259c12.577-5.524,10.221,13.851,9.414,14.449
					c-0.813,0.591-13.763,3.509-13.763,3.509L135.848,164.534z"/>
				<path fill="#FFFFFF" d="M237.15,168.204c0,0,19.892-4.932,9.779-26.95c-10.111-22.019-30.04,5.44-29.671,7.169
					c0.366,1.723,14.075,20.875,14.075,20.875L237.15,168.204z"/>
				<path fill="#C2D8BF" d="M232.815,163.448c0,0,10.521-5.279,1.831-16.394c-8.683-11.108-16.158,6.849-15.722,7.776
					c0.444,0.924,10.767,9.965,10.767,9.965L232.815,163.448z"/>
			</g>
		</g>
		<path fill="#FFFFFF" stroke="#BEBDBE" stroke-miterlimit="10" d="M57.761,298.93c0,0-18.04,65.509,23.192,72.124
			c41.228,6.609,77.927-10.303,65.9-31.809c0,0-12.002-26.819-48.399-19.414"/>
		<g>
			<path fill="#898989" d="M165.459,341.015c-2.59,5.285-5.342,9.334-6.148,9.046l-3.678-1.313
				c-0.807-0.288,0.645-4.804,3.236-10.089l26.098-53.182c2.589-5.282,4.885-8.888,5.621-9.337l4.567,0.682
				c0.804,0.289-1.009,5.727-3.599,11.012L165.459,341.015z"/>
			<path fill="#343535" d="M197.023,341.812c-3.06,5.104-6.764,8.75-8.275,8.143l-22.764,2.154c-1.513-0.607-4.995-1.377-7.6-2.086
				l34.955-72.677c9.107-0.179,25.287,0.467,26.797,1.077l5.898,1.172c1.513,0.611,0.012,4.957-3.042,10.064L197.023,341.812z"/>
			<path fill="#898989" d="M196.332,277.369c-2.621-0.202-3.834,0.017-3.903-0.579l-1.923-0.464
				c-0.066-0.597,2.602-0.927,5.225-0.726l24.396,2.042c2.616,0.202,3.653,0.263,4.282,0.815l1.627,1.137
				c0.068,0.6-0.732,0.01-3.35-0.192L196.332,277.369z"/>
		</g>
		<path fill="#FFFFFF" stroke="#BEBDBE" stroke-miterlimit="10" d="M222.326,290.808c0,0,49.885,25.232,24.402,56.623
			c-25.48,31.394-95.857,8.266-71.307-22.533c15.982-20.049,26.569-18.9,36.744-14.035"/>
		<path fill="#FFFFFF" stroke="#BEBDBE" stroke-miterlimit="10" d="M204.451,283.653c0,0.962-0.812,1.748-1.813,1.748
			c-1.001,0-1.814-0.786-1.814-1.748s0.813-1.745,1.814-1.745C203.64,281.908,204.451,282.691,204.451,283.653z"/>
		<path fill="#FFFFFF" stroke="#BEBDBE" stroke-miterlimit="10" d="M197.953,282.821c0,0.967-0.813,1.748-1.817,1.748
			c-0.999,0-1.812-0.781-1.812-1.748c0-0.963,0.813-1.742,1.812-1.742C197.14,281.079,197.953,281.858,197.953,282.821z"/>
		<path fill="#FFFFFF" stroke="#BEBDBE" stroke-miterlimit="10" d="M210.406,284.569c0,0.965-0.812,1.748-1.814,1.748
			c-1.002,0-1.814-0.783-1.814-1.748c0-0.962,0.813-1.746,1.814-1.746C209.595,282.823,210.406,283.607,210.406,284.569z"/>
		<g>
			<g>
				<path fill="#8AAED2" stroke="#70A0D1" stroke-linecap="round" stroke-miterlimit="10" d="M213.035,458.759
					c4.291-12.307,4.939-35.275,1.214-45.842c-24.573,12.588-49.581,17.764-87.172,19.631c-41.35,2.051-79.156-4.502-106.047-16.607
					c0.117,1.973,0.211,3.935,0.375,5.934c0.589,7.148,3.777,21.908,7.479,26.983c2.041,2.806-3.692,14.567-8.239,27.249
					c6.473,9.229,21.735,13.877,36.352,18.608c13.184,4.266,36.572,6.665,54.711,5.253c-1.611-7.646-2.419-20.627,0.916-20.105
					c10.841,1.696,10.344,2.036,17.522,1.08c7.025-0.939,8.927-2.206,13.877-4.147c2.313-0.904,0.848,11.466,4.025,18.724
					c13.578-1.751,25.795,3.586,39.314-0.953c14.743-4.96,15.326-4.285,24.916-8.963
					C210.842,477.46,212.119,461.386,213.035,458.759z"/>
				<path fill="none" stroke="#70A0D1" stroke-width="2" stroke-linecap="round" stroke-miterlimit="10" d="M57.034,430.12
					c0,0-1.803,13.777,0.557,18.922"/>
				<path fill="none" stroke="#70A0D1" stroke-width="2" stroke-linecap="round" stroke-miterlimit="10" d="M59.678,458.437
					c1.8,5.486,3.65,12.604,3.65,12.604"/>
				
					<line fill="none" stroke="#70A0D1" stroke-width="2" stroke-linecap="round" stroke-miterlimit="10" x1="61.986" y1="480.864" x2="61.861" y2="498.243"/>
			</g>
		</g>
	</g>
</g>
<g id="圖層_2">
	<g>
		<g>
			<path fill="#A58FB0" d="M240.593,347.037L48.501,186.616c0,0-18.226-18.476,0-41.721c0,0,6.675,14.311,13.093,14.447
				c0,0,6.844-40.055,70.582-49.119c0,0-3.422,24.43,8.556,23.246c0,0,28.232-13.001,59.032-5.516c0,0-14.543,24.43-9.408,28.367
				c0,0,30.37-12.086,64.595,3.021c0,0-18.396,32.438-15.828,34.014c0,0,23.526,1.97,27.805,4.727
				c4.277,2.759-14.971,53.578-14.971,53.578s5.56,5.914,17.538,3.549C269.494,255.21,254.709,335.612,240.593,347.037z"/>
			<path fill="#FFFFFF" stroke="#BEBDBE" stroke-miterlimit="10" d="M144.396,171.146c0,0,11.553-18.125,36.364-9.456
				c0,0,11.978,6.699,6.415,29.155c0,0,20.105,32.698,28.66,51.609c8.556,18.91,42.779,89.434,13.691,143.016
				c-29.09,53.579-57.916,4.521-62.193,2.946c-4.275-1.575-41.903,14.386-59.013,19.64c-17.114,5.254-23.099-52.266-23.099-52.266
				s-46.485-16.022-10.979-51.874c0,0-18.395-61.07-17.114-81.159c0,0-22.242-0.397-22.242-17.338
				c0-16.938,11.548-20.879,21.387-18.119c1.696,0.473,8.739,1.402,12.877,4.346C88.133,205.171,142.983,168.86,144.396,171.146z"/>
			<path fill="none" stroke="#A58FB0" stroke-width="5" stroke-miterlimit="10" d="M48.204,244.217
				c0,12.935,10.152,23.418,22.681,23.418c12.521,0,22.674-10.483,22.674-23.418c0-12.929-10.153-23.415-22.674-23.415
				C58.356,220.802,48.204,231.288,48.204,244.217z"/>
			<path fill="none" stroke="#A58FB0" stroke-width="5" stroke-miterlimit="10" d="M108.584,231.046
				c0,14.941,10.826,27.053,24.18,27.053c13.356,0,24.178-12.111,24.178-27.053c0-14.942-10.821-27.053-24.178-27.053
				C119.41,203.993,108.584,216.104,108.584,231.046z"/>
			<g>
				<path fill="none" stroke="#A58FB0" stroke-width="5" stroke-linecap="round" stroke-miterlimit="10" d="M126.833,250.271
					c0,0,10.049,3.791,2.228,8.358c-7.823,4.571-14.678,1.255-17.695-0.05"/>
				<path fill="none" stroke="#A58FB0" stroke-width="5" stroke-linecap="round" stroke-miterlimit="10" d="M106.512,259.354
					c0,0-4.079,10.988-10.988,9.631c-0.103-0.02-0.206-0.043-0.313-0.068c-7.088-1.754-9.51-4.802-7.127-7.578"/>
				<path fill="#A58FB0" d="M111.535,257.735c0,0,3.672-7.479,1.139-9.996c-2.535-2.518-13.75,1.492-15.172,2.348
					c-1.424,0.857-0.572,6.091,7.443,9.944C104.945,260.031,110.111,261.479,111.535,257.735z"/>
			</g>
			
				<line fill="none" stroke="#A58FB0" stroke-width="5" stroke-linecap="round" stroke-miterlimit="10" x1="108.584" y1="241.331" x2="93.559" y2="244.962"/>
			<path fill="#A58FB0" d="M62.25,197.835l-7.456,14.217c0,0-10.38-2.152-8.7-11.133C47.773,191.939,62.25,197.835,62.25,197.835z"
				/>
			<path fill="#6D6275" d="M143.762,167.208c0,0,3.421,28.761-12.838,40.186c0,0,2.996-11.033-2.137-16.94
				c0,0-10.697,19.697-19.677,21.671c0,0,4.704-6.699,4.704-11.035c0,0-14.116,13.002-27.806,16.155c0,0,10.267-14.185,6.415-18.517
				c0,0-20.961,13.787-22.241,20.879c-1.288,7.09-30.8-18.123,11.548-52.398C124.084,132.931,138.626,160.511,143.762,167.208z"/>
			<path fill="#A58FB0" d="M146.021,167.208c0,0,0.595,28.761-15.097,40.186c0,0,5.602-11.033,0.646-16.94
				c0,0-13.79,19.697-22.459,21.671c0,0,8.009-6.699,8.009-11.035c0,0-17.9,13.002-31.11,16.155c0,0,14.181-14.185,10.468-18.517
				c0,0-25.056,13.787-26.294,20.879c-1.241,7.09-24.907-18.123,15.968-52.398C127.027,132.931,141.064,160.511,146.021,167.208z"/>
			<path fill="#A58FB0" d="M124.806,240.556c1.797,4.888,5.729,8.076,8.78,7.123c3.05-0.951,4.07-5.683,2.271-10.567
				c-1.797-4.885-5.728-8.075-8.776-7.122C124.026,230.942,123.007,235.671,124.806,240.556z"/>
			<path fill="#A58FB0" d="M69.928,251.995c1.795,4.889,5.727,8.074,8.777,7.123c3.053-0.953,4.072-5.686,2.275-10.57
				c-1.802-4.887-5.729-8.072-8.781-7.122C69.148,242.379,68.129,247.111,69.928,251.995z"/>
			<path fill="#A58FB0" d="M167.041,188.702l-14.686-8.143c0,0,3.279-9.326,12.834-6.961
				C174.742,175.964,167.041,188.702,167.041,188.702z"/>
		</g>
		<g>
			<polygon fill="#26262C" points="96.285,330.465 93.559,331.116 96.338,329.583 			"/>
			<polygon fill="#26262C" points="93.559,331.116 65.862,326.479 67.606,324.989 96.338,329.583 			"/>
			<g>
				<polygon fill="#CCCCCC" points="126.117,339.105 55.176,324.198 108.628,320.986 180.405,331.79 				"/>
				<polygon fill="#828282" points="180.405,331.79 126.117,339.105 125.912,342.276 181.855,334.769 				"/>
				<polygon fill="#828282" points="126.117,339.105 55.176,324.198 54.764,326.793 125.912,342.276 				"/>
				<path fill="#0C0C0C" d="M119.712,357.092"/>
			</g>
			<g>
				<polygon fill="#26262C" points="123.134,339.105 55.113,325.103 28.985,270.129 88.943,271.413 				"/>
				<polygon fill="#828282" points="88.943,271.413 123.134,339.105 126.117,339.105 92.581,272.404 				"/>
				<path fill="#0C0C0C" d="M76.985,271.664"/>
				<path fill="#0C0C0C" d="M44.332,270.129"/>
			</g>
		</g>
		<path fill="none" stroke="#BEBDBE" stroke-linecap="round" stroke-linejoin="round" stroke-miterlimit="10" d="M158.51,279.455
			c0,0-6.854-0.433-20.277,17.689c-13.422,18.122,3.913,54.371,37.008,27.58c33.094-26.79,25.607-37.427,23.638-54.155"/>
		<path fill="#FFFFFF" d="M167.334,325.146c0,4.449-6.168,8.053-13.777,8.053s-13.779-3.604-13.779-8.053
			c0-4.45,6.17-8.056,13.779-8.056S167.334,320.695,167.334,325.146z"/>
		<path fill="none" stroke="#BEBDBE" stroke-linecap="round" stroke-linejoin="round" stroke-miterlimit="10" d="M85.223,355.79
			c0,0,15.453,4.662,23.361,1.302c7.91-3.364,12.924-15.017,7.977-16.095"/>
		<g>
			<g>
				<path fill="#567351" stroke="#73B18F" stroke-miterlimit="10" d="M95.51,424.478c-3.752-18.236-5.068-23.332-5.068-23.332
					c-2.156-10.846-1.873-11.84-2.178-26.24c28.126,3.292,58.979-1.711,89.981-11.561c24.604-7.82,47.175-19.387,67.06-33.614
					c0.353,9.764,0.184,20.538,0.184,20.538s10.02,39.239,7.053,60.754c-8.727,6.41-25.648,4.236-36.07,6.278
					c-14.023,2.747-22.76,6.636-34.35,10.322c-2.167,0.694-9.349,4.202-9.408,3.948c-2.52-12.084,8.551-29.76,8.551-29.76
					l-9.387,3.307l-5.452,1.143c0,0,4.501,15.628,1.341,29.499c-11.114,2.595-24.451,3.611-34.908,4.263
					c-10.6,0.665-29.25,0.271-38.544-4.805C92.982,431.209,96.437,428.974,95.51,424.478z"/>
				<path fill="#567351" stroke="#73B18F" stroke-linecap="round" stroke-miterlimit="10" d="M103.852,420.532
					c0,0,2.344,13.563,4.752,19.761"/>
			</g>
		</g>
	</g>
</g>
</svg>
