<?xml version="1.0" encoding="utf-8"?>
<!-- Generator: Adobe Illustrator 21.0.0, SVG Export Plug-In . SVG Version: 6.00 Build 0)  -->
<svg version="1.1" id="圖層_1" xmlns="http://www.w3.org/2000/svg" xmlns:xlink="http://www.w3.org/1999/xlink" x="0px" y="0px"
	 viewBox="0 0 551 456" style="enable-background:new 0 0 551 456;" xml:space="preserve">
<style type="text/css">
	.st0{fill:#FFFFFF;stroke:#BEBDBE;stroke-miterlimit:10;}
	.st1{fill:#A58FB0;}
	.st2{fill:#82A188;}
	.st3{fill:#BCDBC0;}
	.st4{fill:#FFFFFF;}
	.st5{fill:#82A088;}
	.st6{fill:#C2D8BF;}
	.st7{fill:#898989;}
	.st8{fill:#343535;}
	.st9{fill:#8AAED2;stroke:#70A0D1;stroke-linecap:round;stroke-miterlimit:10;}
	.st10{fill:none;stroke:#70A0D1;stroke-width:2;stroke-linecap:round;stroke-miterlimit:10;}
	.st11{fill:none;stroke:#A58FB0;stroke-width:5;stroke-miterlimit:10;}
	.st12{fill:none;stroke:#A58FB0;stroke-width:5;stroke-linecap:round;stroke-miterlimit:10;}
	.st13{fill:#6D6275;}
	.st14{fill:#26262C;}
	.st15{fill:#CCCCCC;}
	.st16{fill:#828282;}
	.st17{fill:#0C0C0C;}
	.st18{fill:none;stroke:#BEBDBE;stroke-linecap:round;stroke-linejoin:round;stroke-miterlimit:10;}
	.st19{fill:#567351;stroke:#73B18F;stroke-miterlimit:10;}
	.st20{fill:#567351;stroke:#73B18F;stroke-linecap:round;stroke-miterlimit:10;}
</style>
<g>
	<g>
		<g>
			<g>
				<path class="st0" d="M138.6,172c0,0-11.6-19-36.5-9.9c0,0-12,7-6.4,30.6c0,0-20.2,34.3-28.8,54.1c-8.6,19.8-42.9,93.8-13.7,150
					c29.2,56.2,70.4,52.9,74.7,51.3c4.3-1.7,29.8-33.1,47-27.6c17.2,5.5,24.7,18.1,38.2,5.4c19.5-18.2,19.7-55.5,19.5-68.9
					c-0.2-9.5-14.2-166.7-18.4-163.6C195.1,207.7,140,169.6,138.6,172z"/>
				<path class="st1" d="M115.9,190.4l14.7-8.5c0,0-3.3-9.8-12.9-7.3C108.2,177.1,115.9,190.4,115.9,190.4z"/>
			</g>
			<g>
				<path class="st2" d="M29.3,183.6c-0.8,14.7,57,47.2,79.2,56.6l10,4.1l76.6-16.2c15.9,0.9,29.4-10.2,30.2-24.9l64.7-136.3
					c0,0-3.7-13.3-4.3-14.1c0.3-4.6-52.9-39.6-68.8-40.5l-133.8,4C67.2,15.3,53.7,26.5,53,41.2L29.3,183.6z"/>
				<path class="st3" d="M230,213c-2.8,11.1-13.9,14-29.1,17.2l-82.4,14.1c-13.1-3.1-19.8-12.7-16.9-24l18.5-149.4
					c2.9-11.3,15.9-18,29-14.8l128.1-7.2c13.1,3.1,21.4,14.9,18.4,26.4L230,213z"/>
				<g>
					<path class="st4" d="M145.5,127.8l-17.5,80.3c0,0,49.9,11.4,50.6,16.9l17.1-2.3c0,0,12.6-18,23.3-13c0,0,41.5-116,42.4-117.2
						c0.8-1.1-20.8-2.6-54.5,26.6c0,0-20.1-10.7-55.5-6.5L145.5,127.8z"/>
					<path class="st5" d="M181.3,156.2c-1.5,4.9-5.4,8.2-8.8,7.3c-3.4-0.9-4.9-5.6-3.4-10.6c1.5-4.9,5.4-8.2,8.8-7.3
						C181.3,146.6,182.8,151.3,181.3,156.2z"/>
					<path class="st5" d="M227,155.5c-1.5,4.9-5.4,8.2-8.8,7.3c-3.4-0.9-4.9-5.6-3.4-10.6c1.5-4.9,5.4-8.2,8.8-7.3
						C227,145.8,228.5,150.5,227,155.5z"/>
					<polygon class="st5" points="193.7,191.8 186.8,189.7 195.2,164.4 203.3,163.4 					"/>
					<path class="st5" d="M191.5,185c0,0-9.7-7.7-16.5-1.7c-6.8,6-9,13.8-17.6,7.8c0,0,26.1,27.8,34.1-5.2"/>
					<path class="st5" d="M191.7,185.2c0,0,8.8-5.6,13.4,0.5c4.6,6.1,5.2,13.2,13,9c0,0-24.8,21.1-26.5-8.7"/>
					<path class="st4" d="M145.4,114.2c0,0-10.8-16.9,10.9-26.4c21.8-9.6,17.7,24,16.3,25c-1.4,1-23.8,6.1-23.8,6.1L145.4,114.2z"/>
					<path class="st6" d="M154.3,115.4c0,0-6.3-9.7,6.3-15.3c12.6-5.5,10.2,13.9,9.4,14.4c-0.8,0.6-13.8,3.5-13.8,3.5L154.3,115.4z"
						/>
					<path class="st4" d="M255.6,119.1c0,0,19.9-4.9,9.8-27c-10.1-22-30,5.4-29.7,7.2c0.4,1.7,14.1,20.9,14.1,20.9L255.6,119.1z"/>
					<path class="st6" d="M251.2,114.3c0,0,10.5-5.3,1.8-16.4c-8.7-11.1-16.2,6.8-15.7,7.8c0.4,0.9,10.8,10,10.8,10L251.2,114.3z"/>
				</g>
			</g>
			<path class="st0" d="M76.2,249.8c0,0-18,65.5,23.2,72.1c41.2,6.6,77.9-10.3,65.9-31.8c0,0-12-26.8-48.4-19.4"/>
			<g>
				<path class="st7" d="M183.9,291.9c-2.6,5.3-5.3,9.3-6.1,9l-3.7-1.3c-0.8-0.3,0.6-4.8,3.2-10.1l26.1-53.2
					c2.6-5.3,4.9-8.9,5.6-9.3l4.6,0.7c0.8,0.3-1,5.7-3.6,11L183.9,291.9z"/>
				<path class="st8" d="M215.4,292.7c-3.1,5.1-6.8,8.8-8.3,8.1l-22.8,2.2c-1.5-0.6-5-1.4-7.6-2.1l35-72.7
					c9.1-0.2,25.3,0.5,26.8,1.1l5.9,1.2c1.5,0.6,0,5-3,10.1L215.4,292.7z"/>
				<path class="st7" d="M214.8,228.3c-2.6-0.2-3.8,0-3.9-0.6l-1.9-0.5c-0.1-0.6,2.6-0.9,5.2-0.7l24.4,2c2.6,0.2,3.7,0.3,4.3,0.8
					l1.6,1.1c0.1,0.6-0.7,0-3.3-0.2L214.8,228.3z"/>
			</g>
			<path class="st0" d="M240.7,241.7c0,0,49.9,25.2,24.4,56.6c-25.5,31.4-95.9,8.3-71.3-22.5c16-20,26.6-18.9,36.7-14"/>
			<ellipse class="st0" cx="221.1" cy="234.6" rx="1.8" ry="1.7"/>
			<ellipse class="st0" cx="214.6" cy="233.7" rx="1.8" ry="1.7"/>
			<ellipse class="st0" cx="227" cy="235.5" rx="1.8" ry="1.7"/>
			<g>
				<g>
					<path class="st9" d="M231.5,409.7c4.3-12.3,4.9-35.3,1.2-45.8c-24.6,12.6-49.6,17.8-87.2,19.6c-41.3,2.1-79.2-4.5-106-16.6
						c0.1,2,0.2,3.9,0.4,5.9c0.6,7.1,3.8,21.9,7.5,27c2,2.8-3.7,14.6-8.2,27.2c6.5,9.2,21.7,13.9,36.4,18.6
						c13.2,4.3,36.6,6.7,54.7,5.3c-1.6-7.6-2.4-20.6,0.9-20.1c10.8,1.7,10.3,2,17.5,1.1c7-0.9,8.9-2.2,13.9-4.1
						c2.3-0.9,0.8,11.5,4,18.7c13.6-1.8,25.8,3.6,39.3-1c14.7-5,15.3-4.3,24.9-9C229.3,428.4,230.5,412.3,231.5,409.7z"/>
					<path class="st10" d="M75.5,381c0,0-1.8,13.8,0.6,18.9"/>
					<path class="st10" d="M78.1,409.3c1.8,5.5,3.7,12.6,3.7,12.6"/>
					<line class="st10" x1="80.4" y1="431.8" x2="80.3" y2="449.1"/>
				</g>
			</g>
		</g>
		<g>
			<g>
				<path class="st1" d="M493.3,358.6L301.2,198.1c0,0-18.2-18.5,0-41.7c0,0,6.7,14.3,13.1,14.4c0,0,6.8-40.1,70.6-49.1
					c0,0-3.4,24.4,8.6,23.2c0,0,28.2-13,59-5.5c0,0-14.5,24.4-9.4,28.4c0,0,30.4-12.1,64.6,3c0,0-18.4,32.4-15.8,34
					c0,0,23.5,2,27.8,4.7c4.3,2.8-15,53.6-15,53.6s5.6,5.9,17.5,3.5C522.2,266.7,507.4,347.1,493.3,358.6z"/>
				<path class="st0" d="M397.1,182.7c0,0,11.6-18.1,36.4-9.5c0,0,12,6.7,6.4,29.2c0,0,20.1,32.7,28.7,51.6
					c8.6,18.9,42.8,89.4,13.7,143c-29.1,53.6-57.9,4.5-62.2,2.9c-4.3-1.6-41.9,14.4-59,19.6c-17.1,5.3-23.1-52.3-23.1-52.3
					s-46.5-16-11-51.9c0,0-18.4-61.1-17.1-81.2c0,0-22.2-0.4-22.2-17.3c0-16.9,11.5-20.9,21.4-18.1c1.7,0.5,8.7,1.4,12.9,4.3
					C340.8,216.7,395.6,180.4,397.1,182.7z"/>
				<path class="st11" d="M300.9,255.7c0,12.9,10.2,23.4,22.7,23.4c12.5,0,22.7-10.5,22.7-23.4c0-12.9-10.2-23.4-22.7-23.4
					C311,232.3,300.9,242.8,300.9,255.7z"/>
				<ellipse class="st11" cx="385.4" cy="242.6" rx="24.2" ry="27.1"/>
				<g>
					<path class="st12" d="M379.5,261.8c0,0,10,3.8,2.2,8.4c-7.8,4.6-14.7,1.3-17.7,0"/>
					<path class="st12" d="M359.2,270.9c0,0-4.1,11-11,9.6c-0.1,0-0.2,0-0.3-0.1c-7.1-1.8-9.5-4.8-7.1-7.6"/>
					<path class="st1" d="M364.2,269.3c0,0,3.7-7.5,1.1-10c-2.5-2.5-13.8,1.5-15.2,2.3c-1.4,0.9-0.6,6.1,7.4,9.9
						C357.6,271.6,362.8,273,364.2,269.3z"/>
				</g>
				<line class="st12" x1="361.2" y1="252.9" x2="346.2" y2="256.5"/>
				<path class="st1" d="M314.9,209.4l-7.5,14.2c0,0-10.4-2.2-8.7-11.1C300.4,203.5,314.9,209.4,314.9,209.4z"/>
				<path class="st13" d="M396.4,178.7c0,0,3.4,28.8-12.8,40.2c0,0,3-11-2.1-16.9c0,0-10.7,19.7-19.7,21.7c0,0,4.7-6.7,4.7-11
					c0,0-14.1,13-27.8,16.2c0,0,10.3-14.2,6.4-18.5c0,0-21,13.8-22.2,20.9c-1.3,7.1-30.8-18.1,11.5-52.4
					C376.7,144.5,391.3,172,396.4,178.7z"/>
				<path class="st1" d="M398.7,178.7c0,0,0.6,28.8-15.1,40.2c0,0,5.6-11,0.6-16.9c0,0-13.8,19.7-22.5,21.7c0,0,8-6.7,8-11
					c0,0-17.9,13-31.1,16.2c0,0,14.2-14.2,10.5-18.5c0,0-25.1,13.8-26.3,20.9c-1.2,7.1-24.9-18.1,16-52.4
					C379.7,144.5,393.7,172,398.7,178.7z"/>
				<path class="st1" d="M377.5,252.1c1.8,4.9,5.7,8.1,8.8,7.1c3.1-1,4.1-5.7,2.3-10.6c-1.8-4.9-5.7-8.1-8.8-7.1
					C376.7,242.5,375.7,247.2,377.5,252.1z"/>
				<path class="st1" d="M322.6,263.5c1.8,4.9,5.7,8.1,8.8,7.1c3.1-1,4.1-5.7,2.3-10.6c-1.8-4.9-5.7-8.1-8.8-7.1
					C321.8,253.9,320.8,258.6,322.6,263.5z"/>
				<path class="st1" d="M419.7,200.2l-14.7-8.1c0,0,3.3-9.3,12.8-7C427.4,187.5,419.7,200.2,419.7,200.2z"/>
			</g>
			<g>
				<polygon class="st14" points="349,342 346.2,342.6 349,341.1 				"/>
				<polygon class="st14" points="346.2,342.6 318.5,338 320.3,336.5 349,341.1 				"/>
				<g>
					<polygon class="st15" points="378.8,350.6 307.8,335.7 361.3,332.5 433.1,343.3 					"/>
					<polygon class="st16" points="433.1,343.3 378.8,350.6 378.6,353.8 434.5,346.3 					"/>
					<polygon class="st16" points="378.8,350.6 307.8,335.7 307.4,338.3 378.6,353.8 					"/>
					<path class="st17" d="M372.4,368.6"/>
				</g>
				<g>
					<polygon class="st14" points="375.8,350.6 307.8,336.6 281.7,281.7 341.6,282.9 					"/>
					<polygon class="st16" points="341.6,282.9 375.8,350.6 378.8,350.6 345.2,283.9 					"/>
					<path class="st17" d="M329.7,283.2"/>
					<path class="st17" d="M297,281.7"/>
				</g>
			</g>
			<path class="st18" d="M411.2,291c0,0-6.9-0.4-20.3,17.7c-13.4,18.1,3.9,54.4,37,27.6c33.1-26.8,25.6-37.4,23.6-54.2"/>
			<ellipse class="st4" cx="406.2" cy="336.7" rx="13.8" ry="8.1"/>
			<path class="st18" d="M337.9,367.3c0,0,15.5,4.7,23.4,1.3c7.9-3.4,12.9-15,8-16.1"/>
			<g>
				<g>
					<path class="st19" d="M348.2,436c-3.8-18.2-5.1-23.3-5.1-23.3c-2.2-10.8-1.9-11.8-2.2-26.2c28.1,3.3,59-1.7,90-11.6
						c24.6-7.8,47.2-19.4,67.1-33.6c0.4,9.8,0.2,20.5,0.2,20.5s10,39.2,7.1,60.8c-8.7,6.4-25.6,4.2-36.1,6.3
						c-14,2.7-22.8,6.6-34.3,10.3c-2.2,0.7-9.3,4.2-9.4,3.9c-2.5-12.1,8.6-29.8,8.6-29.8l-9.4,3.3l-5.5,1.1c0,0,4.5,15.6,1.3,29.5
						c-11.1,2.6-24.5,3.6-34.9,4.3c-10.6,0.7-29.2,0.3-38.5-4.8C345.6,442.7,349.1,440.5,348.2,436z"/>
					<path class="st20" d="M356.5,432.1c0,0,2.3,13.6,4.8,19.8"/>
				</g>
			</g>
		</g>
	</g>
</g>
</svg>
