<svg id="圖層_1" data-name="圖層 1" xmlns="http://www.w3.org/2000/svg" viewBox="0 0 612.65 161.46"><defs><style>.cls-1{fill:#f08b68;}.cls-2{fill:#2455a5;}.cls-3{fill:#e71f19;}</style></defs><title>07_0</title><polygon class="cls-1" points="612.65 44.54 0 0 0 116.97 612 161.46 612.65 44.54"/><path class="cls-2" d="M113.66,292.4a.83.83,0,0,1,.6.31.81.81,0,0,1,.21.63l-.09,1.09a.74.74,0,0,1-.3.57.81.81,0,0,1-.63.21l-10.88-.84a.83.83,0,0,1-.59-.3.86.86,0,0,1-.19-.61l.08-1.09a.9.9,0,0,1,.29-.6.8.8,0,0,1,.63-.21l3.52.28c.09,0,.13,0,.13-.09l.08-1a.83.83,0,0,1,.3-.59.79.79,0,0,1,.61-.21l1.79.14a.76.76,0,0,1,.59.3.88.88,0,0,1,.19.63l-.08,1c0,.06,0,.1.12.1Zm9.59,18.13a.79.79,0,0,1,.59.31.84.84,0,0,1,.19.63l-.11,1.52a.88.88,0,0,1-.29.58.83.83,0,0,1-.63.2l-6-.46c-.07,0-.1,0-.11.11v.12a.81.81,0,0,1-.3.59.84.84,0,0,1-.63.19l-1.5-.11a.86.86,0,0,1-.59-.29.8.8,0,0,1-.19-.62l.89-11.49s0,0,0,0-.22.13-.34,0c-.26-.31-.66-.72-1.19-1.23,0-.05-.07,0-.08,0l-.1,1.31a.81.81,0,0,1-.3.58.84.84,0,0,1-.63.2l-3-.23a.14.14,0,0,0-.16.11l-.2.74c0,.06,0,.09.07.1l3.67.28a.79.79,0,0,1,.58.3.88.88,0,0,1,.2.64l-.51,6.53a4.39,4.39,0,0,1-.35,1.56,1.7,1.7,0,0,1-.92.82,5.91,5.91,0,0,1-2.5.24,1.11,1.11,0,0,1-1-.9c-.07-.35-.16-.7-.26-1.07a.53.53,0,0,1,.1-.5.54.54,0,0,1,.49-.21l.44,0,.39,0,.26,0a.44.44,0,0,0,.29-.05.4.4,0,0,0,.09-.26l.05-.53c0-.07,0-.1-.1-.08l-.84.17a.52.52,0,0,1-.45-.09.57.57,0,0,1-.24-.42c0-.05,0-.08-.09-.08l-2.87,0a.85.85,0,0,1-.62-.26.75.75,0,0,1-.26-.59v-.78a.6.6,0,0,1,.6-.61.08.08,0,0,0,.11-.08c.09-.37.22-.94.4-1.72,0-.07,0-.1-.09-.11l-.87-.07a.1.1,0,0,0-.11.09l-.52,6.82a.79.79,0,0,1-.3.58.88.88,0,0,1-.64.2l-1.11-.09a.86.86,0,0,1-.6-.29.78.78,0,0,1-.21-.62l.67-8.61a.87.87,0,0,1,.94-.8l3.26.25a.11.11,0,0,0,.13-.08l.1-.75c0-.08,0-.12-.08-.13l-2.83-.22a.82.82,0,0,1-.59-.29.8.8,0,0,1-.19-.62l.42-5.41a.82.82,0,0,1,.29-.6.78.78,0,0,1,.62-.21l.7.06a.8.8,0,0,1,.6.3.84.84,0,0,1,.2.63l-.2,2.64c0,.08,0,.1.09.05a10.45,10.45,0,0,0,1.19-.9c0-.05,0-.09,0-.12l-.35-.27a.72.72,0,0,1-.31-.53.6.6,0,0,1,.23-.55l.21-.23a1,1,0,0,1,.64-.3,1.17,1.17,0,0,1,.71.16l.27.2a.14.14,0,0,0,.18,0l.19-.3a1.21,1.21,0,0,1,.57-.46.94.94,0,0,1,.68,0l.57.19a.63.63,0,0,1,.43.41.64.64,0,0,1-.07.61c-.18.3-.38.58-.58.86-.05,0,0,.09,0,.14l.32.27a.81.81,0,0,1,.28.59.91.91,0,0,1-.23.63l-.35.36a.84.84,0,0,1-.61.25.81.81,0,0,1-.6-.24l-.25-.22a.12.12,0,0,0-.17,0,11.26,11.26,0,0,1-1,.83s0,0,0,0,0,0,.06,0l3.28.26a.1.1,0,0,0,.11-.09l.29-3.82a.87.87,0,0,1,.3-.6.89.89,0,0,1,.64-.21l.8.07a.8.8,0,0,1,.6.3.84.84,0,0,1,.2.63l-.12,1.62s0,0,0,0,0,0,0,0a25.7,25.7,0,0,0,3.45-6.59.94.94,0,0,1,.46-.5.81.81,0,0,1,.44-.09l.19,0,1.52.48a.77.77,0,0,1,.48.42.75.75,0,0,1,0,.64c-.32.85-.73,1.79-1.21,2.8,0,.07,0,.1.07.11l1.08.08a.15.15,0,0,0,.16-.09c.47-1.11.88-2.2,1.22-3.26a.84.84,0,0,1,.42-.52.83.83,0,0,1,.65-.08l1.64.5a.66.66,0,0,1,.46.41.71.71,0,0,1,0,.62c-.35.77-.75,1.63-1.19,2.58,0,.06,0,.1.06.1l1.07.09a.77.77,0,0,1,.57.3.86.86,0,0,1,.21.61l-.12,1.47a.87.87,0,0,1-.3.6.83.83,0,0,1-.61.21l-1.21-.1c-.08,0-.12,0-.13.09l-.12,1.52c0,.08,0,.13.12.13l.89.07a.9.9,0,0,1,.6.29.84.84,0,0,1,.2.63l-.09,1.28a.89.89,0,0,1-.94.8l-.9-.07c-.08,0-.12,0-.12.09l-.13,1.62c0,.06,0,.1.11.1l.9.07a.89.89,0,0,1,.8.94l-.1,1.28a.86.86,0,0,1-.93.78l-.9-.07c-.08,0-.12,0-.13.11l-.13,1.7c0,.06,0,.1.11.1ZM105,298.74c-.06-.06-.1,0-.1,0l-.07.89c0,.07,0,.1.09.11l1.28.1s0,0,0,0,0,0,0-.05A14.78,14.78,0,0,0,105,298.74Zm5,7.44a.1.1,0,0,0-.09-.11l-1.91-.14a.12.12,0,0,0-.15.08c0,.14-.2.67-.47,1.57,0,.08,0,.11.09.1l.22,0c.06,0,.09,0,.08-.11a.81.81,0,0,1,.13-.59.69.69,0,0,1,.5-.31l.22,0a.86.86,0,0,1,.66.12.79.79,0,0,1,.38.56,6,6,0,0,1,.16.82s0,0,0,0Zm9.34-5.72c.06,0,.1,0,.11-.12l.11-1.52c0-.07,0-.1-.09-.11l-1.33-.1a.09.09,0,0,0-.1.09l-.12,1.52c0,.09,0,.13.09.13Zm-.37,4.81c.06,0,.1,0,.1-.09l.13-1.62a.1.1,0,0,0-.09-.11l-1.33-.1a.1.1,0,0,0-.11.09l-.12,1.62c0,.06,0,.1.09.1Zm-1.56,2.89c-.07,0-.1,0-.11.11l-.13,1.7c0,.06,0,.1.09.1l1.33.1c.06,0,.1,0,.1-.09l.13-1.69c0-.08,0-.12-.08-.13Z" transform="translate(0 -271.11)"/><path class="cls-2" d="M142.61,312.78l1.91.15a.66.66,0,0,0,.69-.32,5.11,5.11,0,0,0,.38-1.59.49.49,0,0,1,.31-.4.54.54,0,0,1,.52,0,11.74,11.74,0,0,0,1.59.8,1.12,1.12,0,0,1,.55.48,1,1,0,0,1,.13.55.74.74,0,0,1,0,.14,5.43,5.43,0,0,1-1.37,3,3.57,3.57,0,0,1-2.65.62L141.8,316c-1.58-.12-2.61-.5-3.11-1.13a4.92,4.92,0,0,1-.56-3.31l.33-4.23c0-.07,0-.1-.11-.11L136,307c-.08,0-.13,0-.13.09a15.67,15.67,0,0,1-.57,2.21,9,9,0,0,1-.93,1.9,6.46,6.46,0,0,1-1.44,1.63,9.83,9.83,0,0,1-2.14,1.26,16.55,16.55,0,0,1-3,1,.86.86,0,0,1-.27,0,.73.73,0,0,1-.4-.15,1,1,0,0,1-.47-.52,12.33,12.33,0,0,0-1-1.9.46.46,0,0,1-.1-.33.65.65,0,0,1,0-.19.47.47,0,0,1,.39-.29,13.37,13.37,0,0,0,2.79-.72,4.71,4.71,0,0,0,1.75-1.11,5.28,5.28,0,0,0,.93-1.35,8.46,8.46,0,0,0,.5-1.73c0-.06,0-.1-.09-.1l-4.64-.36a.87.87,0,0,1-.6-.3.83.83,0,0,1-.2-.64l.12-1.64a.87.87,0,0,1,.3-.6.89.89,0,0,1,.64-.21l20.57,1.6a.8.8,0,0,1,.6.3.85.85,0,0,1,.21.63l-.13,1.65a.83.83,0,0,1-.3.59.85.85,0,0,1-.64.21l-5.54-.43a.09.09,0,0,0-.1.09l-.32,4.18a1.26,1.26,0,0,0,.09.8A1.12,1.12,0,0,0,142.61,312.78ZM131.17,297.5c-.08,0-.12,0-.13.09l-.15,1.91a.87.87,0,0,1-.91.81l-2-.16a.73.73,0,0,1-.58-.3.84.84,0,0,1-.2-.63l.35-4.55a.84.84,0,0,1,.92-.78l7.8.61c.07,0,.1,0,.11-.12l.1-1.25a.81.81,0,0,1,.3-.59.84.84,0,0,1,.63-.19l2.13.16a.9.9,0,0,1,.6.29.83.83,0,0,1,.2.63l-.09,1.25c0,.08,0,.13.08.13l7.93.61a.84.84,0,0,1,.59.29.82.82,0,0,1,.19.63l-.35,4.54a.85.85,0,0,1-.91.81l-2.15-.17a.83.83,0,0,1-.59-.3.9.9,0,0,1-.19-.64l.15-1.91c0-.06,0-.1-.12-.1ZM144,302.2a.79.79,0,0,1-.31.58.84.84,0,0,1-.63.19l-10.78-.83a.84.84,0,0,1-.58-.29.81.81,0,0,1-.2-.62l.12-1.52a.77.77,0,0,1,.3-.6.78.78,0,0,1,.61-.21l10.78.83a.87.87,0,0,1,.8.94Z" transform="translate(0 -271.11)"/><path class="cls-2" d="M169.08,303.55a.94.94,0,0,1,.47-.49,1,1,0,0,1,.66-.06l1.92.64a.69.69,0,0,1,.48.41.82.82,0,0,1,0,.65,32.08,32.08,0,0,1-4.54,7.45.19.19,0,0,0,0,.2c.44,1.46,1,2.21,1.55,2.26.44,0,.82-1.08,1.14-3.34A.33.33,0,0,1,171,311a.41.41,0,0,1,.44.08,9.89,9.89,0,0,0,1.53,1.24,1.36,1.36,0,0,1,.49.57,1,1,0,0,1,.1.54v.17a11.52,11.52,0,0,1-1.06,3.06,3,3,0,0,1-1.41,1.39,4.48,4.48,0,0,1-2.07.23q-2.31-.18-3.76-3.06c0-.07-.09-.07-.14,0a21.27,21.27,0,0,1-3.06,2.15.79.79,0,0,1-.65.1.85.85,0,0,1-.54-.39c-.43-.62-.88-1.22-1.35-1.81a.57.57,0,0,1-.15-.56.61.61,0,0,1,.35-.44,17.69,17.69,0,0,0,4.14-2.94.19.19,0,0,0,.07-.19,47.4,47.4,0,0,1-.89-9.65c0-.08,0-.13-.11-.13l-6.23-.48c-.07,0-.1,0-.11.11l-.17,2.13c0,.08,0,.12.09.13l5.1.39a.82.82,0,0,1,.59.29.8.8,0,0,1,.19.62c0,.18,0,.32,0,.41-.25,2.69-.48,4.61-.66,5.78A4.94,4.94,0,0,1,161,313a3,3,0,0,1-2,1,12,12,0,0,1-2,0,.9.9,0,0,1-.61-.29,1.09,1.09,0,0,1-.29-.63,7.11,7.11,0,0,0-.57-2.38l0,0s0,0,0,0a18.73,18.73,0,0,1-2.33,6.19.58.58,0,0,1-.5.28.18.18,0,0,1-.1,0,.67.67,0,0,1-.47-.25,15.55,15.55,0,0,0-1.61-1.54.89.89,0,0,1-.34-.56,2.62,2.62,0,0,1,0-.27,1.16,1.16,0,0,1,.13-.4,12.59,12.59,0,0,0,1.27-3.14,25.27,25.27,0,0,0,.68-3.24c.12-.92.23-2,.33-3.29l.51-6.58a.85.85,0,0,1,.3-.57.86.86,0,0,1,.64-.21l9,.7c.06,0,.1,0,.1-.11,0-.81.07-1.62.12-2.45a.81.81,0,0,1,.3-.58.82.82,0,0,1,.61-.2l2.08.16a.86.86,0,0,1,.59.29.84.84,0,0,1,.19.62c0,.2,0,.38,0,.56q-.08,1-.12,1.89c0,.08,0,.12.11.13l2.58.2,0,0s0,0,0-.05c-.48-.43-1-.87-1.57-1.32a.64.64,0,0,1-.27-.52.71.71,0,0,1,.23-.55l1-.87a1.1,1.1,0,0,1,.68-.26.46.46,0,0,1,.17,0,1.08,1.08,0,0,1,.52.18,26.9,26.9,0,0,1,2.34,1.81.76.76,0,0,1,.23.59.78.78,0,0,1-.27.58l-.61.56s0,0,0,0,0,0,0,0l1.67.13a.81.81,0,0,1,.57.3.79.79,0,0,1,.21.61l-.14,1.84a.81.81,0,0,1-.3.57.79.79,0,0,1-.61.21l-6.6-.51c-.07,0-.1,0-.11.11a51.83,51.83,0,0,0,.35,5.53l0,0a0,0,0,0,0,.05,0A26,26,0,0,0,169.08,303.55Zm-10.39,3.18c0-.06,0-.1-.09-.1l-2.34-.18c-.07,0-.1,0-.11.09-.17,1.31-.37,2.57-.61,3.77,0,.08,0,.12.09.13.62.11,1.18.18,1.66.22a.91.91,0,0,0,.78-.28A11.85,11.85,0,0,0,158.69,306.73Z" transform="translate(0 -271.11)"/><path class="cls-2" d="M181,305.32a.83.83,0,0,1,.59.3.79.79,0,0,1,.21.61l-.54,7a.37.37,0,0,0,0,.2,3.66,3.66,0,0,0,1.6,1.74,7.54,7.54,0,0,0,2.82.82c1,.12,2.14.24,3.57.35l2.06.13q3.58.22,6.28.24a.49.49,0,0,1,.44.26.52.52,0,0,1,.07.32.63.63,0,0,1,0,.19,15.7,15.7,0,0,0-.75,1.81,1.23,1.23,0,0,1-.44.59.92.92,0,0,1-.67.2c-2.15-.06-4.19-.17-6.1-.32-1.68-.13-3.26-.29-4.73-.47a10.73,10.73,0,0,1-3.52-.95,6.28,6.28,0,0,1-2.33-2.07c0-.07-.09-.08-.14,0-.78.65-1.65,1.33-2.62,2a.6.6,0,0,1-.56.1.66.66,0,0,1-.43-.4l-.79-2.1a1.2,1.2,0,0,1,0-.42.92.92,0,0,1,.07-.26.91.91,0,0,1,.45-.53c.69-.37,1.43-.8,2.19-1.29a.2.2,0,0,0,.09-.16l.36-4.64a.1.1,0,0,0-.09-.11l-1.62-.12a.81.81,0,0,1-.57-.3.83.83,0,0,1-.21-.64l.12-1.59a.85.85,0,0,1,.3-.58.84.84,0,0,1,.61-.2Zm1.39-5.68a.78.78,0,0,1,.12.63.82.82,0,0,1-.39.54l-1.69,1.11a.77.77,0,0,1-.64.11.79.79,0,0,1-.5-.39,24.16,24.16,0,0,0-2.32-3,.71.71,0,0,1,.13-1.09l1.46-.91a1,1,0,0,1,.67-.16h0a1.11,1.11,0,0,1,.66.32A23.41,23.41,0,0,1,182.37,299.64Zm.53,5a.88.88,0,0,1-.78-.93l.06-.71a.81.81,0,0,1,.3-.58.85.85,0,0,1,.61-.2l15,1.17a.82.82,0,0,1,.57.28.81.81,0,0,1,.21.63l-.06.7a.87.87,0,0,1-.3.6.82.82,0,0,1-.61.2Zm8.16,10.55a.84.84,0,0,1-.91.78l-1.72-.13a.83.83,0,0,1-.57-.29.78.78,0,0,1-.21-.62l.14-1.76q0-.1-.09-.06a20.84,20.84,0,0,1-3.58,1.62,1,1,0,0,1-.72,0,1.12,1.12,0,0,1-.54-.44c-.3-.5-.6-.95-.89-1.36a.55.55,0,0,1-.07-.54.57.57,0,0,1,.38-.36,16.91,16.91,0,0,0,4.52-1.77,0,0,0,0,0,0,0,0,0,0,0,0,0,0l-2.39-.19a.75.75,0,0,1-.59-.3.8.8,0,0,1-.19-.61l.22-2.95a.84.84,0,0,1,.92-.78l11.36.88a.88.88,0,0,1,.57.29.78.78,0,0,1,.21.62l-.24,3.07a.22.22,0,0,0,.08.18l.69.54a.53.53,0,0,1,.2.49.6.6,0,0,1-.3.45l-2,1a.05.05,0,0,0,0,0,0,0,0,0,0,0,0,13.84,13.84,0,0,0,2.09.7.43.43,0,0,1,.33.33.47.47,0,0,1-.13.46c-.35.38-.7.79-1,1.23a1.31,1.31,0,0,1-.59.43,1,1,0,0,1-.71,0,12.92,12.92,0,0,1-4-2.28c-.07-.05-.1,0-.11,0Zm6.47-17.64a.81.81,0,0,1,.57.3.83.83,0,0,1,.21.64L198,302a.85.85,0,0,1-.3.58.82.82,0,0,1-.61.2l-12.81-1a.78.78,0,0,1-.58-.3.86.86,0,0,1-.21-.61l.28-3.5a.87.87,0,0,1,.91-.81Zm-10,2.53c.08,0,.12,0,.13-.08l.08-1.16c0-.07,0-.1-.11-.11l-.77-.06c-.07,0-.1,0-.11.09l-.09,1.16c0,.06,0,.1.09.1Zm-.33,7.35c-.06,0-.1,0-.1.11l-.05.63c0,.06,0,.1.09.1l6,.46c.08,0,.12,0,.13-.08l0-.63a.1.1,0,0,0-.11-.13Zm4-7.06a.1.1,0,0,0,.11-.09l.09-1.16a.1.1,0,0,0-.09-.11l-.78-.06c-.08,0-.12,0-.13.09l-.09,1.16c0,.07,0,.1.12.11Zm2.89,10.43a.05.05,0,0,0,0,0s0,0-.05,0l-2.17-.17,0,0s0,0,0,.05a7.06,7.06,0,0,0,.93.88.15.15,0,0,0,.17,0A11.11,11.11,0,0,0,194.05,310.8Zm.79-10.15q.12,0,.12-.09l.09-1.16c0-.06,0-.1-.11-.1l-.8-.06c-.06,0-.1,0-.1.09l-.09,1.16c0,.06,0,.09.09.1Z" transform="translate(0 -271.11)"/><path class="cls-2" d="M223,311.58a.8.8,0,0,1-.3.6.84.84,0,0,1-.63.2l-13.11-1a.12.12,0,0,0-.15.09c-.07.23-.16.49-.28.78,0,.06,0,.09.07.1l11.36.88a.87.87,0,0,1,.6.3.85.85,0,0,1,.2.64l-.1,1.35a.79.79,0,0,1-.3.58.87.87,0,0,1-.64.2l-4-.31c-.07,0-.1,0-.11.11l-.17,2.2c0,.08,0,.13.09.13l5.73.45a.78.78,0,0,1,.58.3.81.81,0,0,1,.2.61l-.11,1.38a.82.82,0,0,1-.29.59.78.78,0,0,1-.62.21l-15-1.16a.85.85,0,0,1-.6-.3.83.83,0,0,1-.21-.64l.15-1.86a.05.05,0,0,0,0,0s0,0,0,0a15.49,15.49,0,0,1-2.55,2.46.81.81,0,0,1-.6.19h0a1.12,1.12,0,0,1-.64-.32,18.39,18.39,0,0,0-1.63-1.56.54.54,0,0,1-.2-.5.53.53,0,0,1,.28-.46,12.79,12.79,0,0,0,4.91-6.63c0-.06,0-.1-.06-.1l-3.19-.25a.83.83,0,0,1-.6-.3.82.82,0,0,1-.21-.64l.11-1.4a.87.87,0,0,1,.94-.8l8.24.64a.1.1,0,0,0,.11-.09l0-.61c0-.06,0-.1-.09-.1l-5.9-.46a.81.81,0,0,1-.58-.3.84.84,0,0,1-.19-.63l.09-1.21a.8.8,0,0,1,.29-.57.78.78,0,0,1,.62-.21l5.9.45c.06,0,.1,0,.11-.11l0-.58c0-.08,0-.12-.09-.13l-7.22-.56a.83.83,0,0,1-.6-.3.78.78,0,0,1-.21-.61l.1-1.35a.89.89,0,0,1,.94-.81l3,.23q.09,0,.06-.09a5.13,5.13,0,0,0-.32-.68.62.62,0,0,1,0-.58.7.7,0,0,1,.43-.41l1.54-.46a1.11,1.11,0,0,1,.74,0,1,1,0,0,1,.56.47,7.06,7.06,0,0,1,.85,2,.05.05,0,0,1,0,.07l4.69.36a.15.15,0,0,0,.15-.08,17.71,17.71,0,0,0,1-1.78.94.94,0,0,1,.47-.49,1,1,0,0,1,.47-.09.93.93,0,0,1,.22,0l2.25.71a.54.54,0,0,1,.37.39.53.53,0,0,1-.1.53l-.83,1s0,.07,0,.07l3.07.24a.87.87,0,0,1,.6.3.85.85,0,0,1,.2.64l-.1,1.35a.81.81,0,0,1-.3.57.85.85,0,0,1-.64.21l-7.42-.58c-.06,0-.1,0-.11.12l0,.58c0,.08,0,.12.09.13l6.09.47a.83.83,0,0,1,.59.3.79.79,0,0,1,.21.61l-.09,1.21a.86.86,0,0,1-.94.8L214,307.8c-.06,0-.1,0-.1.09l-.05.61c0,.06,0,.09.09.1l8.29.64a.86.86,0,0,1,.8.94Zm-11,4.23c0-.08,0-.13-.08-.13l-3-.23a.84.84,0,0,1-.58-.29.82.82,0,0,1-.2-.62l.1-1.26s0,0,0,0,0,0,0,0a21.29,21.29,0,0,1-2.47,4.29c-.05.06,0,.09,0,.1l6,.46c.06,0,.1,0,.1-.11Z" transform="translate(0 -271.11)"/><path class="cls-2" d="M244.84,311.62h.36a1.56,1.56,0,0,1,.67.22l1.09.65a.87.87,0,0,1,.42.54,1.2,1.2,0,0,1,0,.32.89.89,0,0,1-.1.36,15.75,15.75,0,0,1-3.16,4.06,15.49,15.49,0,0,1-4.23,2.75,27.88,27.88,0,0,1-5,1.62,39.11,39.11,0,0,1-5.8.79H229a.85.85,0,0,1-.5-.21,1,1,0,0,1-.41-.57,11.7,11.7,0,0,0-.67-1.8.52.52,0,0,1,0-.51.53.53,0,0,1,.42-.28,31.38,31.38,0,0,0,8.24-1.19c.07,0,.08-.06,0-.12a30.3,30.3,0,0,0-2.7-2.27.21.21,0,0,0-.19,0c-.79.3-1.59.57-2.4.82a1,1,0,0,1-.69-.06,1,1,0,0,1-.51-.48,11.3,11.3,0,0,0-1-1.53.53.53,0,0,1-.09-.51.54.54,0,0,1,.37-.35,22.86,22.86,0,0,0,8.2-3.5l0,0a34.62,34.62,0,0,1-9.26,2.42,1,1,0,0,1-.66-.16,1.24,1.24,0,0,1-.45-.56,16.2,16.2,0,0,0-.7-1.61.63.63,0,0,1-.05-.3.46.46,0,0,1,.06-.23.47.47,0,0,1,.41-.29,33.74,33.74,0,0,0,6.92-1.31s0,0,0,0a.14.14,0,0,0,0-.06,20.83,20.83,0,0,0-2.34-1.81.2.2,0,0,0-.2,0q-.94.36-1.65.6a1.13,1.13,0,0,1-1.25-.49,11.14,11.14,0,0,0-1.15-1.47.51.51,0,0,1-.11-.49.4.4,0,0,1,.34-.32,19.14,19.14,0,0,0,8-3.81,1.41,1.41,0,0,1,1.12-.42,1,1,0,0,1,.34.07l2.16.65a.45.45,0,0,1,.35.36.46.46,0,0,1-.14.46,2.89,2.89,0,0,0-.29.27s0,0,0,0l0,0,4,.31a.38.38,0,0,0,.15,0,1.71,1.71,0,0,1,.32,0,1.22,1.22,0,0,1,.61.22l1.09.74a.82.82,0,0,1,.37.55.71.71,0,0,1-.15.63,16.24,16.24,0,0,1-5,4.6.06.06,0,0,0,0,.06,0,0,0,0,0,0,0l2.11.67a.45.45,0,0,1,.35.36.46.46,0,0,1-.14.48c-.3.29-.59.55-.87.79a.11.11,0,0,0,0,.05l0,0,3.33.26A.38.38,0,0,0,244.84,311.62Zm-5-6.64a0,0,0,0,0,0-.05l0,0-5-.39a.31.31,0,0,0-.2.06,3.83,3.83,0,0,0-.43.23s-.05,0,0,.06,0,0,0,0a23.29,23.29,0,0,1,2.58,1.92.16.16,0,0,0,.19,0A16.6,16.6,0,0,0,239.81,305Zm2.59,9.56c0-.06,0-.09,0-.1l-4.88-.37a.29.29,0,0,0-.2.05l-.59.3a.08.08,0,0,0,0,.06.07.07,0,0,0,0,.06,20.42,20.42,0,0,1,2.82,2.26.11.11,0,0,0,.17,0A11,11,0,0,0,242.4,314.54Z" transform="translate(0 -271.11)"/><path class="cls-2" d="M254.23,305.32a.86.86,0,0,1,.45-.52.89.89,0,0,1,.66-.05l2.33.74a.66.66,0,0,1,.46.4.73.73,0,0,1,0,.63,26.41,26.41,0,0,1-4.72,7.24.9.9,0,0,1-.62.26,1,1,0,0,1-.67-.23,17.92,17.92,0,0,0-1.74-1.35.63.63,0,0,1-.29-.61.64.64,0,0,1,.2-.42,14.3,14.3,0,0,0,2.23-2.8A22.07,22.07,0,0,0,254.23,305.32Zm19,7.6a1.08,1.08,0,0,1,.05.36.76.76,0,0,1-.1.31.91.91,0,0,1-.5.5l-2.57,1.14a.44.44,0,0,1-.39,0,.51.51,0,0,1-.24-.3s0,0,0,0,0,0,0,0a19.34,19.34,0,0,1-2.07,3.67,13.71,13.71,0,0,1-2.53,2.66,14,14,0,0,1-3.15,1.84,20.52,20.52,0,0,1-3.73,1.17,44.68,44.68,0,0,1-4.52.68h-.17a1.06,1.06,0,0,1-.5-.19,1.1,1.1,0,0,1-.41-.56,14.08,14.08,0,0,0-1-2.19.52.52,0,0,1-.08-.3.58.58,0,0,1,.07-.21.45.45,0,0,1,.43-.26,36.83,36.83,0,0,0,3.94-.37,19,19,0,0,0,3.28-.81,10.23,10.23,0,0,0,4.88-3.51,13.71,13.71,0,0,0,1.72-2.95.8.8,0,0,1,.45-.5.91.91,0,0,1,.69,0l2.27.81a0,0,0,0,0,.05,0,.24.24,0,0,0,0-.07,36.52,36.52,0,0,0-3.11-6.42.75.75,0,0,1-.06-.62.8.8,0,0,1,.41-.47l1.91-.8a1,1,0,0,1,.47-.09.73.73,0,0,1,.24.07,1.09,1.09,0,0,1,.58.41A35.3,35.3,0,0,1,273.24,312.92ZM263.36,302a.86.86,0,0,1,.8.94l-.84,10.92a5.93,5.93,0,0,1-.5,2.18,2.29,2.29,0,0,1-1.31,1.09,10.25,10.25,0,0,1-4,.37,1,1,0,0,1-.64-.29,1.05,1.05,0,0,1-.31-.63,15.87,15.87,0,0,0-.57-2.14.62.62,0,0,1,.1-.53.5.5,0,0,1,.47-.2c.69.07,1.5.14,2.44.21a.77.77,0,0,0,.47-.06.46.46,0,0,0,.14-.35l.84-10.86a.86.86,0,0,1,.94-.8Z" transform="translate(0 -271.11)"/><path class="cls-2" d="M282.52,320a.81.81,0,0,1-.3.57.83.83,0,0,1-.64.21l-3.53-.27c-.08,0-.12,0-.13.11l-.08,1.06a.8.8,0,0,1-.29.57.78.78,0,0,1-.62.21l-1.47-.11a.83.83,0,0,1-.6-.3.81.81,0,0,1-.21-.62L275.84,306a.83.83,0,0,1,.31-.6.85.85,0,0,1,.63-.21l6,.47a.87.87,0,0,1,.81.93Zm-2.27-11c0-.06,0-.1-.11-.1l-1.18-.1c-.09,0-.13,0-.13.09l-.62,7.95c0,.09,0,.13.11.13l1.19.1c.08,0,.12,0,.13-.12Zm17.14,3.61a.89.89,0,0,1-.94.81l-8.7-.68c-.09,0-.13,0-.13.09l-.06.72c-.45,5.86-1.74,10.08-3.87,12.69a.73.73,0,0,1-.57.26.93.93,0,0,1-.63-.2,14.18,14.18,0,0,0-1.33-1,.73.73,0,0,1-.32-.54.31.31,0,0,1,0-.17.71.71,0,0,1,.17-.4,10.64,10.64,0,0,0,1.5-2.44,14.74,14.74,0,0,0,1-2.9c.23-1,.41-2,.52-2.76s.2-1.73.28-2.76l.6-7.76a.87.87,0,0,1,.3-.6.85.85,0,0,1,.62-.2l11.26.87a.87.87,0,0,1,.6.3.85.85,0,0,1,.21.63Zm-3.1-3.93c0-.08,0-.13-.09-.13l-6.09-.47a.1.1,0,0,0-.13.11l-.1,1.28c0,.08,0,.12.11.13l6.09.47c.06,0,.1,0,.11-.11Zm-2.71,15.77,1.65.12a.62.62,0,0,0,.66-.43,9.53,9.53,0,0,0,.41-2.06.41.41,0,0,1,.28-.38.46.46,0,0,1,.49,0,9.61,9.61,0,0,0,1.43.74,1.12,1.12,0,0,1,.55.48.92.92,0,0,1,.12.57,5.43,5.43,0,0,1-1.31,3.45,3,3,0,0,1-2.54.75l-2.51-.19a3.61,3.61,0,0,1-2.79-1.11,5.52,5.52,0,0,1-.46-3.38l.67-8.72a.84.84,0,0,1,.91-.78l1.67.12a.83.83,0,0,1,.57.29.81.81,0,0,1,.21.63l-.2,2.63c0,.07,0,.08.09.06a20.37,20.37,0,0,0,3.15-1.71,1,1,0,0,1,.67-.15,1,1,0,0,1,.6.3l1.26,1.41a.68.68,0,0,1,.16.59.63.63,0,0,1-.37.47,34.21,34.21,0,0,1-5.71,2.23c-.07,0-.1.06-.11.14l-.21,2.73a1.87,1.87,0,0,0,.06.92A.8.8,0,0,0,291.58,324.48Z" transform="translate(0 -271.11)"/><path class="cls-2" d="M306.35,319.07a1.08,1.08,0,0,1-.35.6.87.87,0,0,1-.61.21l-2.15-.17a.87.87,0,0,1-.61-.3.82.82,0,0,1-.22-.64,5.81,5.81,0,0,1,.51-1.71,6.68,6.68,0,0,1,.89-1.43c.33-.4.66-.79,1-1.15a7.89,7.89,0,0,0,.86-1.11,2.49,2.49,0,0,0,.4-1.13,1.59,1.59,0,0,0-.27-1.16,1.25,1.25,0,0,0-.92-.46,2.18,2.18,0,0,0-1.52.54,1.08,1.08,0,0,1-.64.22.84.84,0,0,1-.6-.27L301,310a.86.86,0,0,1-.23-.7.76.76,0,0,1,.28-.54,6.08,6.08,0,0,1,4.58-1.64,5.35,5.35,0,0,1,3.52,1.48,4.4,4.4,0,0,1,1.12,3.62,5,5,0,0,1-.45,1.72,6,6,0,0,1-.9,1.4c-.35.4-.69.78-1,1.15a9.24,9.24,0,0,0-1,1.22A4.33,4.33,0,0,0,306.35,319.07Zm-.6,7.07a2.57,2.57,0,0,1-2,.62,2.61,2.61,0,0,1-2.47-2.92,2.71,2.71,0,0,1,.91-1.89,2.57,2.57,0,0,1,2-.63,2.51,2.51,0,0,1,1.85.93,2.89,2.89,0,0,1-.29,3.89Z" transform="translate(0 -271.11)"/><path class="cls-2" d="M103.86,320.46a.87.87,0,0,1,.47-.47.83.83,0,0,1,.4-.07.92.92,0,0,1,.26.07l1.6.63a.77.77,0,0,1,.47.45.8.8,0,0,1,0,.66,37.76,37.76,0,0,1-1.84,3.65.65.65,0,0,0-.06.21l-1.3,16.83a.79.79,0,0,1-.3.58.82.82,0,0,1-.61.2l-1.72-.13a.83.83,0,0,1-.57-.29.79.79,0,0,1-.21-.62l.85-11s0,0,0,0h-.05c-.21.26-.43.5-.64.72a.45.45,0,0,1-.47.13.5.5,0,0,1-.34-.36c-.24-.84-.52-1.66-.83-2.45a1.5,1.5,0,0,1-.1-.61,1.28,1.28,0,0,1,.38-.8A24.86,24.86,0,0,0,103.86,320.46Zm3.51,1.41a.81.81,0,0,1,.3-.58.86.86,0,0,1,.64-.19l13.37,1a.86.86,0,0,1,.59.29.78.78,0,0,1,.21.62l-1.58,20.43a.88.88,0,0,1-.93.78l-1.7-.13a.83.83,0,0,1-.59-.3.81.81,0,0,1-.21-.62l0-.26a.1.1,0,0,0-.09-.11l-8.19-.63c-.09,0-.13,0-.13.09l0,.48a.81.81,0,0,1-.3.57.79.79,0,0,1-.61.21l-1.55-.12a.83.83,0,0,1-.6-.3.81.81,0,0,1-.2-.61Zm2,17.11c0,.08,0,.12.11.13l8.2.63c.06,0,.1,0,.11-.11l1.12-14.51c0-.06,0-.1-.09-.1l-8.2-.64c-.08,0-.12,0-.13.09Zm8.82-9.58a.83.83,0,0,1-.3.59.81.81,0,0,1-.62.21l-1.57-.12c-.06,0-.1,0-.1.09l-.13,1.62c0,.06,0,.1.09.1l1.16.09a.87.87,0,0,1,.81.94l-.39,5a.87.87,0,0,1-.3.6.85.85,0,0,1-.64.2l-5-.39a.87.87,0,0,1-.6-.3.85.85,0,0,1-.2-.64l.38-5a.83.83,0,0,1,.3-.59.85.85,0,0,1,.64-.21l.92.07c.08,0,.12,0,.13-.09l.12-1.61c0-.07,0-.1-.11-.11l-1.35-.11a.75.75,0,0,1-.59-.3.84.84,0,0,1-.19-.63l.06-.82a.88.88,0,0,1,.29-.6.78.78,0,0,1,.62-.21l1.36.11c.08,0,.12,0,.13-.09l.11-1.43A.87.87,0,0,1,114,325l1,.08a.83.83,0,0,1,.59.3.81.81,0,0,1,.21.62l-.11,1.42a.1.1,0,0,0,.09.11l1.57.12a.86.86,0,0,1,.78.93Zm-3.71,6.76c.06,0,.1,0,.11-.11l.12-1.67c0-.06,0-.1-.09-.1l-1.37-.11c-.07,0-.1,0-.11.09l-.13,1.67q0,.12.09.12Z" transform="translate(0 -271.11)"/><path class="cls-2" d="M133.69,322.72a1,1,0,0,1,.33-.6.85.85,0,0,1,.64-.2l2.41.18a.85.85,0,0,1,.78.92c0,.24-.07.5-.11.79,0,.63,0,1.27,0,1.91s.1,1.48.24,2.5a29.67,29.67,0,0,0,.53,2.95,22,22,0,0,0,1,3.09,18.49,18.49,0,0,0,1.65,3.12,17,17,0,0,0,2.41,2.86,16.53,16.53,0,0,0,2.55,2,.58.58,0,0,1,.25.53.55.55,0,0,1-.23.4,9.57,9.57,0,0,0-1.78,1.69,1.07,1.07,0,0,1-.59.34l-.24,0a.79.79,0,0,1-.41-.15q-5.85-3.93-7.89-11.78l0,0s0,0,0,0a22,22,0,0,1-8.9,10.42.79.79,0,0,1-.5.11h-.14a1.1,1.1,0,0,1-.58-.38,9.79,9.79,0,0,0-1.7-1.86.59.59,0,0,1-.21-.5.57.57,0,0,1,.3-.47,16.18,16.18,0,0,0,2-1.28,19.76,19.76,0,0,0,2.28-1.9,14,14,0,0,0,1.79-2.15c.53-.79,1-1.53,1.36-2.21a17.78,17.78,0,0,0,1-2.31c.3-.85.54-1.58.71-2.19s.33-1.32.47-2.12.24-1.42.3-1.85.12-1,.19-1.61A1.55,1.55,0,0,0,133.69,322.72Z" transform="translate(0 -271.11)"/><path class="cls-2" d="M164.16,344.43l2.78.22a1,1,0,0,0,1-.5,9.28,9.28,0,0,0,.55-2.42.43.43,0,0,1,.28-.4.51.51,0,0,1,.52.05,17,17,0,0,0,1.71.86,1,1,0,0,1,.52.48,1,1,0,0,1,.13.57v.12a7.48,7.48,0,0,1-1.56,3.79,3.8,3.8,0,0,1-3.1.83l-3.6-.28a5,5,0,0,1-3.24-1.09,4.26,4.26,0,0,1-.81-3.16c0-.08,0-.11-.09-.08l-1.92.61a.75.75,0,0,1-.62-.08.74.74,0,0,1-.36-.51,28.81,28.81,0,0,0-.92-3.23s0,0,0,0a0,0,0,0,0,0,0l-.47,6.14a.85.85,0,0,1-.3.57.88.88,0,0,1-.64.2l-1.67-.12a.87.87,0,0,1-.6-.3.85.85,0,0,1-.2-.62l.51-6.6a21.88,21.88,0,0,1-1.63,5,.64.64,0,0,1-.48.38.83.83,0,0,1-.63-.1c-.39-.25-.82-.51-1.28-.75a.79.79,0,0,1-.4-.5.76.76,0,0,1,0-.33.84.84,0,0,1,.1-.32,18.64,18.64,0,0,0,1.23-4,.76.76,0,0,1,.35-.54.68.68,0,0,1,.62-.09l2.13.55c.06,0,.1,0,.1-.09l.11-1.45c0-.06,0-.1-.09-.1l-2.79-.05a.79.79,0,0,1-.61-.27.88.88,0,0,1-.27-.6l-.06-1.41a.78.78,0,0,1,.25-.59.74.74,0,0,1,.59-.23l.92,0a.24.24,0,0,0,.18-.09c.39-.4.7-.73.92-1a.15.15,0,0,0,0-.17,20.38,20.38,0,0,0-2-2.56,1.14,1.14,0,0,1-.27-.66.86.86,0,0,1,.2-.66l.95-1.27a.47.47,0,0,1,.35-.2.42.42,0,0,1,.36.14s.07,0,.1,0a26.83,26.83,0,0,0,1.86-3.31.83.83,0,0,1,.5-.45.74.74,0,0,1,.32,0,.66.66,0,0,1,.31.09l1.64.81a.7.7,0,0,1,.37.49.75.75,0,0,1-.11.6q-2.21,3-2.91,3.91a.14.14,0,0,0,0,.17,4.19,4.19,0,0,1,.4.54.08.08,0,0,0,.14,0c.85-1.08,1.59-2.1,2.23-3a.87.87,0,0,1,.54-.4.79.79,0,0,1,.65.1l1.47.84a.72.72,0,0,1,.34.5.63.63,0,0,1-.18.58q-2.53,2.94-4.67,5.07a0,0,0,0,0,0,.05s0,0,0,0l1.94.06c.09,0,.11,0,.09-.09s-.18-.42-.27-.66a.75.75,0,0,1,0-.64.77.77,0,0,1,.46-.44l1.12-.4a.9.9,0,0,1,.7,0,1,1,0,0,1,.51.49,37.07,37.07,0,0,1,1.47,3.59s0,0,.05,0l.18-2.4a.85.85,0,0,1,.3-.57.83.83,0,0,1,.61-.21l6,.47c.08,0,.12,0,.13-.11l.29-3.77a.1.1,0,0,0-.11-.13l-6.53-.51a.87.87,0,0,1-.6-.3.81.81,0,0,1-.2-.61l.13-1.69a.78.78,0,0,1,.3-.58.84.84,0,0,1,.63-.2l9.41.73a.8.8,0,0,1,.57.29.85.85,0,0,1,.21.62l-.81,10.46a.85.85,0,0,1-.3.6.81.81,0,0,1-.62.21l-1.91-.15a.81.81,0,0,1-.58-.3.84.84,0,0,1-.19-.63l0-.46a.1.1,0,0,0-.11-.13l-3.17-.25c-.08,0-.12,0-.13.11l-.51,6.58a1,1,0,0,0,1.16,1.35Zm-8.65-5.36c0,.08,0,.11.09.08l1.64-.46a1,1,0,0,1,.68.07.83.83,0,0,1,.44.51q.64,1.8,1,3.24l0,0s0,0,0,0l.39-4.93c0-.07,0-.09-.09-.08l-1.63.63a.71.71,0,0,1-.62,0,.73.73,0,0,1-.39-.48c0-.11-.05-.23-.07-.35s-.07-.11-.14-.1l-1.12,0a.11.11,0,0,0-.1.12Z" transform="translate(0 -271.11)"/><path class="cls-2" d="M194.43,342.66a1,1,0,0,1-.64.32,1,1,0,0,1-.68-.15l-.54-.34h0s0,0,0,0a8.78,8.78,0,0,0,3.18,3.55.62.62,0,0,1,.28.49.26.26,0,0,1,0,.12.64.64,0,0,1-.2.4,10.34,10.34,0,0,0-1.2,1.36,1,1,0,0,1-.57.35.76.76,0,0,1-.64-.15,9.88,9.88,0,0,1-2.45-2.89s0,0,0,0a0,0,0,0,0,0,0l-.07.87a5.62,5.62,0,0,1-.35,1.73,2,2,0,0,1-.93.95,5.15,5.15,0,0,1-2.31.35h0a.9.9,0,0,1-.58-.29,1,1,0,0,1-.34-.63,10.34,10.34,0,0,0-.57-2.14c0-.07-.06-.08-.12,0-.46.29-1.08.65-1.86,1.09a.78.78,0,0,1-.63.08.84.84,0,0,1-.51-.41l-.21-.4h0a.19.19,0,0,1-.17.21l-4.71.57-3.31.39a.85.85,0,0,1-.63-.17.82.82,0,0,1-.34-.59l-.19-1.57a.79.79,0,0,1,.75-.91c.85-.05,1.68-.11,2.5-.2a.11.11,0,0,0,.1-.11l.44-5.63a.1.1,0,0,0-.09-.11l-2.15-.16a.84.84,0,0,1-.6-.31.89.89,0,0,1-.21-.63l.11-1.31a.74.74,0,0,1,.3-.58.89.89,0,0,1,.63-.2l2.15.17c.07,0,.1,0,.11-.11l.09-1.11c0-.09,0-.13-.09-.13l-1-.08a.9.9,0,0,1-.6-.29.81.81,0,0,1-.21-.63l0-.21c-.09.05-.15,0-.19,0a10,10,0,0,0-1.27-1.78.77.77,0,0,1-.2-.6.82.82,0,0,1,.26-.54,14.58,14.58,0,0,0,3.49-4.23,1.4,1.4,0,0,1,.54-.54,1.25,1.25,0,0,1,.73-.16l1.13.09a2.26,2.26,0,0,1,1.48.67,26.19,26.19,0,0,1,2.75,3.18,1.13,1.13,0,0,1,.18.71,1,1,0,0,1-.31.64l-1.21,1.25,0,0-.16,2.1a.84.84,0,0,1-.29.59.82.82,0,0,1-.63.19l-1.2-.09c-.09,0-.13,0-.13.11l-.09,1.11a.11.11,0,0,0,.11.14l1.86.14a.86.86,0,0,1,.6.29.78.78,0,0,1,.21.62l-.1,1.31a.87.87,0,0,1-.94.8l-1.86-.14c-.08,0-.13,0-.13.08l-.3,3.92s0,0,0,0a0,0,0,0,0,0,0c.29-.8.55-1.67.79-2.61a.79.79,0,0,1,1-.58l.85.28a.77.77,0,0,1,.48.42.75.75,0,0,1,0,.64l-.45,1.12c-.18.48-.3.8-.36.94a.79.79,0,0,1-.47.49.87.87,0,0,1-.67,0l-1.11-.38c-.08,0-.12,0-.13.06l-.06.8c0,.08,0,.12.12.11l1.17-.12.93-.09a.61.61,0,0,1,.48.16.68.68,0,0,1,.21.46s0,.05.07,0c1.16-.55,2.44-1.19,3.84-1.94a.69.69,0,0,1,.61,0,.77.77,0,0,1,.43.44l.23.82h.05l.45-5.87c0-.08,0-.13-.09-.13l-3.84-.3a.87.87,0,0,1-.81-.91l.1-1.19a.87.87,0,0,1,.3-.6.84.84,0,0,1,.63-.2l6.24.48a.11.11,0,0,0,.13-.09l.22-1q0-.12-.09-.12l-3.09-.24c-.05,0-.07,0-.08.06a.6.6,0,0,1-.27.37.58.58,0,0,1-.44.09l-2-.3a.72.72,0,0,1-.51-.33.71.71,0,0,1-.07-.62q.93-3,1.74-6.5a1.05,1.05,0,0,1,.39-.54.81.81,0,0,1,.66-.13l1.66.27a.73.73,0,0,1,.54.35.8.8,0,0,1,.11.62l-.07.32c0,.06,0,.09.09.1l3,.23a.28.28,0,0,0,.13,0,3.1,3.1,0,0,1,.68,0,1.76,1.76,0,0,1,.31,0l1.18.22a.79.79,0,0,1,.57.35.78.78,0,0,1,.13.63c-.3,1.81-.75,3.94-1.35,6.41,0,.06,0,.1.09.1l1.67.13a.81.81,0,0,1,.57.3.83.83,0,0,1,.21.64l-.09,1.18a.85.85,0,0,1-.3.58.82.82,0,0,1-.61.2l-4.09-.31c-.08,0-.12,0-.13.11l0,.51a.41.41,0,0,0,0,.22,12.94,12.94,0,0,0,.61,2.14l.06,0,.07,0a20.43,20.43,0,0,0,1.24-1.93,1,1,0,0,1,.53-.41.73.73,0,0,1,.64.09l1.21.7a.67.67,0,0,1,.35.5.74.74,0,0,1-.17.59Zm-20.69-2a.84.84,0,0,1,.16-.63.87.87,0,0,1,.58-.36l.56-.1a.84.84,0,0,1,.65.13.78.78,0,0,1,.34.58,20.66,20.66,0,0,1,.3,2.43.87.87,0,0,1-.18.66,1,1,0,0,1-.6.37l-.72.12a.63.63,0,0,1-.57-.15.71.71,0,0,1-.27-.53A23.26,23.26,0,0,0,173.74,340.7Zm3.44-9.29c-.05,0,0,.07,0,.07l4.11.32c.06,0,.08,0,0-.07a20.64,20.64,0,0,0-2-2.85c0-.05-.08-.05-.12,0A26.77,26.77,0,0,1,177.18,331.41Zm9.94,9.3a.8.8,0,0,1,.09.42,1,1,0,0,1-.05.24.91.91,0,0,1-.45.53l-1.19.58a.56.56,0,0,1-.37.1.73.73,0,0,1-.24-.07.74.74,0,0,1-.43-.45,13.75,13.75,0,0,0-1.08-2,.69.69,0,0,1-.11-.47s0-.1,0-.15a.85.85,0,0,1,.4-.48l1-.48a.94.94,0,0,1,.55-.1l.16,0a.9.9,0,0,1,.58.39A13.32,13.32,0,0,1,187.12,340.71Zm.27,5.64.06-.82q0-.12-.09-.06l-1.59,1s0,0,0,0l0,.05,1.26.1a.4.4,0,0,0,.24,0C187.35,346.56,187.38,346.48,187.39,346.35Zm1-15c0,.08,0,.12.07.12l2.9.23c.08,0,.12,0,.13-.11l.19-.91c0-.08,0-.13-.09-.13l-2.8-.22a.14.14,0,0,0-.16.11Z" transform="translate(0 -271.11)"/><path class="cls-2" d="M211.1,332.13a.43.43,0,0,0-.19,0l-1.58.87a.68.68,0,0,1-.59,0,.72.72,0,0,1-.42-.45,14.9,14.9,0,0,0-1.22-2.23.06.06,0,0,0-.06,0s0,0,0,0c-.9,2.82-1.64,5-2.2,6.42a.33.33,0,0,0,0,.22,9.83,9.83,0,0,1,1,5.38c-.13,1.73-.59,2.84-1.37,3.35a2.81,2.81,0,0,1-1.38.48h-.44a.78.78,0,0,1-.58-.26.9.9,0,0,1-.25-.65,6.75,6.75,0,0,0-.2-1.41v0l0,0-.46,6a.83.83,0,0,1-.3.59.92.92,0,0,1-.64.19l-1.38-.11a.84.84,0,0,1-.78-.91l1.61-20.76a.8.8,0,0,1,.29-.59.85.85,0,0,1,.62-.2l4.11.32a.18.18,0,0,0,.1,0,.92.92,0,0,1,.72.15l1.45,1a.17.17,0,0,0,.17,0l1.47-.79a1,1,0,0,1,.69-.09.92.92,0,0,1,.58.39c.38.55.7,1.05.95,1.5l0,0s0,0,0,0v0a.83.83,0,0,1,.3-.59.85.85,0,0,1,.64-.21l1.09.09a.18.18,0,0,0,.15-.09c.11-.33.2-.64.29-.93a1,1,0,0,1,.43-.52.84.84,0,0,1,.49-.11h.15l1.12.26a.89.89,0,0,1,.52.39.74.74,0,0,1,.06.65c0,.16-.1.32-.16.47s0,.1.09.11l5.32.41a.81.81,0,0,1,.58.3.85.85,0,0,1,.2.64l0,.62a.86.86,0,0,1-.29.6.79.79,0,0,1-.62.21l-6-.47a.18.18,0,0,0-.15.09l-.15.3c0,.06,0,.1.07.1l5.46.43a.87.87,0,0,1,.6.3.85.85,0,0,1,.21.63l0,.32a.83.83,0,0,1-.3.57.81.81,0,0,1-.63.21L219,335.3c-.07,0-.1,0-.11.11l0,.32c0,.08,0,.12.09.13l1.95.15a.82.82,0,0,1,.78.91l0,.31a.86.86,0,0,1-.29.6.78.78,0,0,1-.62.21l-7.23-.56a.81.81,0,0,1-.57-.3.83.83,0,0,1-.21-.64l0-.58s0,0,0,0l-.05,0a7.54,7.54,0,0,1-.79.82.77.77,0,0,1-.61.21.89.89,0,0,1-.57-.3,10.31,10.31,0,0,0-.95-.93s0,0,0,0c.14.22.28.44.41.66a.83.83,0,0,1,0,.67.94.94,0,0,1-.42.54l-1.22.76a.79.79,0,0,1-1.07-.35,14.11,14.11,0,0,0-1.27-2.12.76.76,0,0,1-.12-.62.76.76,0,0,1,.35-.5l1-.61a1.15,1.15,0,0,1,.71-.11.83.83,0,0,1,.59.36c.12.14.27.34.46.6.05.06.1.08.17,0a10,10,0,0,0,2.4-2.78c0-.06,0-.09-.06-.1Zm-7.55-.44c0-.06,0-.09-.09-.1l-.82-.06c-.07,0-.1,0-.11.09l-.4,5.17v0l0,0Q202.75,334.92,203.55,331.69Zm-1.4,5.47a0,0,0,0,0,0,0l-.47,6.07c0,.06,0,.1.09.1l.31,0a.67.67,0,0,0,.52-.16,2.37,2.37,0,0,0,.43-1.49A8.46,8.46,0,0,0,202.15,337.16Zm11.95,10a.87.87,0,0,1-.94.8l-1.21-.09h0a5.84,5.84,0,0,0,1.8.56c.69.08,1.41.15,2.15.21,1.37.11,2.81.17,4.32.19a.49.49,0,0,1,.46.25.46.46,0,0,1,.1.33.7.7,0,0,1-.06.19c-.2.47-.38.93-.53,1.39a1.18,1.18,0,0,1-.42.6,1,1,0,0,1-.68.21c-1.07,0-2.09-.08-3.06-.16s-1.86-.17-2.72-.28a6.88,6.88,0,0,1-2.87-1,6.22,6.22,0,0,1-2-2.2c0-.06-.08-.07-.12,0-.76.79-1.5,1.54-2.24,2.26a.59.59,0,0,1-.55.16.56.56,0,0,1-.41-.35l-.68-1.61a1.23,1.23,0,0,1-.08-.49,1.09,1.09,0,0,1,0-.22,1.21,1.21,0,0,1,.39-.6q1.11-.8,2.07-1.62a.26.26,0,0,0,.09-.19l.23-3c0-.06,0-.1-.11-.1l-.29,0a.78.78,0,0,1-.59-.3.84.84,0,0,1-.19-.63l.09-1.19a.83.83,0,0,1,.29-.57.78.78,0,0,1,.62-.21l2.54.2a.87.87,0,0,1,.6.3.82.82,0,0,1,.2.61L210,345.5a.41.41,0,0,0,0,.22,4.11,4.11,0,0,0,1,1.53,0,0,0,0,0,.05,0l0,0,.66-8.49a.87.87,0,0,1,.91-.81l7.11.55a.87.87,0,0,1,.8.94l-.51,6.65a3.69,3.69,0,0,1-.31,1.37,1.64,1.64,0,0,1-.78.71,4.82,4.82,0,0,1-1.94.24.89.89,0,0,1-.63-.26,1,1,0,0,1-.34-.64c0-.22-.11-.45-.17-.7a.46.46,0,0,1,.09-.5.54.54,0,0,1,.5-.2h.17a.26.26,0,0,0,.31-.27l0-.22c0-.08,0-.12-.11-.13l-2.54-.19c-.06,0-.1,0-.11.11Zm1.78-12c0-.08,0-.13-.11-.13l-.83-.07a.77.77,0,0,1-.57-.3.82.82,0,0,1-.21-.61s0,0,0,0a14.85,14.85,0,0,1-.86,1.28c0,.06,0,.09.05.1l2.41.18a.1.1,0,0,0,.13-.11Zm1.5,5.37a.1.1,0,0,0-.11-.13l-2.54-.2c-.06,0-.1,0-.1.11l0,.34c0,.08,0,.13.09.13l2.54.2c.08,0,.12,0,.13-.11Zm-3,2.61c0,.07,0,.1.09.11l2.54.19q.12,0,.12-.09l0-.31c0-.06,0-.1-.11-.1l-2.54-.2c-.07,0-.1,0-.11.09Z" transform="translate(0 -271.11)"/><path class="cls-2" d="M231.53,330.94a.85.85,0,0,1,.57.3.87.87,0,0,1,.21.61l-1.21,15.59a.85.85,0,0,1-.3.6.79.79,0,0,1-.61.21l-3.89-.3c-.07,0-.1,0-.11.09l-.1,1.33a.83.83,0,0,1-.3.59.85.85,0,0,1-.64.21l-1.59-.12a.89.89,0,0,1-.81-.94l1.39-17.89a.74.74,0,0,1,.3-.57.81.81,0,0,1,.63-.21Zm-2.75,3.1c0-.07,0-.1-.09-.11l-1.3-.1a.1.1,0,0,0-.11.09l-.27,3.53c0,.08,0,.12.09.13l1.3.1c.07,0,.1,0,.11-.12Zm-2.33,10.59c0,.08,0,.12.09.13l1.31.1c.06,0,.1,0,.1-.12l.3-3.84c0-.06,0-.1-.09-.1l-1.3-.1a.08.08,0,0,0-.11.08Zm19.81-4.5a.82.82,0,0,1-.29.58.81.81,0,0,1-.62.2l-1.26-.1c-.08,0-.12,0-.13.11l-.12,1.5c0,.07,0,.1.12.11l1.13.09a.78.78,0,0,1,.58.3.84.84,0,0,1,.2.63l-.11,1.4a.78.78,0,0,1-.3.58.86.86,0,0,1-.61.21l-1.13-.09c-.09,0-.13,0-.13.11l-.36,4.59a5.45,5.45,0,0,1-.44,1.94,2.13,2.13,0,0,1-1.17,1,8.92,8.92,0,0,1-3.46.32h0a1,1,0,0,1-.61-.29,1.12,1.12,0,0,1-.32-.64,12.77,12.77,0,0,0-.47-1.78.58.58,0,0,1,.1-.51.51.51,0,0,1,.47-.2l1.88.17a.73.73,0,0,0,.41-.06.38.38,0,0,0,.13-.29l.35-4.52a.1.1,0,0,0-.11-.13l-7.35-.57a.83.83,0,0,1-.59-.3.86.86,0,0,1-.19-.61l.11-1.4a.82.82,0,0,1,.29-.6.78.78,0,0,1,.62-.21l7.35.57c.08,0,.12,0,.13-.09l.11-1.5c0-.08,0-.12-.11-.13L233,340a.79.79,0,0,1-.58-.28.84.84,0,0,1-.2-.63l.11-1.42a.88.88,0,0,1,.29-.6.8.8,0,0,1,.63-.21l4.27.33c.09,0,.13,0,.13-.09l.11-1.42c0-.07,0-.1-.11-.11l-3.58-.27a.89.89,0,0,1-.8-.94l.11-1.38a.74.74,0,0,1,.3-.57.81.81,0,0,1,.63-.21l3.58.28c.08,0,.12,0,.13-.11l.12-1.5a.8.8,0,0,1,.3-.6A.82.82,0,0,1,239,330l1.84.14a.82.82,0,0,1,.57.31.8.8,0,0,1,.2.63l-.11,1.5c0,.08,0,.12.11.13l3.75.29a.83.83,0,0,1,.59.3.79.79,0,0,1,.21.61l-.1,1.38a.87.87,0,0,1-.94.8l-3.75-.29c-.08,0-.12,0-.13.09l-.11,1.43c0,.06,0,.1.12.1l4.3.34a.79.79,0,0,1,.58.3.84.84,0,0,1,.2.63Zm-8.69,8.25a.77.77,0,0,1,0,.66.94.94,0,0,1-.46.5l-1.67.8a.77.77,0,0,1-.63,0,.88.88,0,0,1-.45-.46,17.19,17.19,0,0,0-1.56-2.77.7.7,0,0,1-.11-.61.68.68,0,0,1,.39-.47l1.43-.66a1,1,0,0,1,.73-.08,1.05,1.05,0,0,1,.59.37A18.72,18.72,0,0,1,237.57,348.38Z" transform="translate(0 -271.11)"/><path class="cls-2" d="M253.53,339.86a.82.82,0,0,1,.31.59.78.78,0,0,1-.19.64l-1.16,1.49a.83.83,0,0,1-.56.29.81.81,0,0,1-.62-.21,24,24,0,0,0-3.07-2,.64.64,0,0,1-.35-.49.4.4,0,0,1,0-.22.6.6,0,0,1,.17-.37l1-1.24a1,1,0,0,1,.61-.38,1.22,1.22,0,0,1,.73.07A24.71,24.71,0,0,1,253.53,339.86Zm-.94,5.16a.67.67,0,0,1,1-.09l1.28,1.36a1.06,1.06,0,0,1,.32.65,1.14,1.14,0,0,1-.16.7c-1.26,2.05-2.58,4-4,6a.66.66,0,0,1-.54.3.34.34,0,0,1-.14,0,.73.73,0,0,1-.45-.21l-1.61-1.48a.85.85,0,0,1-.27-.61.34.34,0,0,1,0-.14.76.76,0,0,1,.21-.5A73.46,73.46,0,0,0,252.59,345Zm3.23-11.59a.72.72,0,0,1,.32.58.83.83,0,0,1-.22.64l-1.23,1.44a.73.73,0,0,1-.55.27.81.81,0,0,1-.62-.22,20.92,20.92,0,0,0-3-2.1.72.72,0,0,1-.34-.49.64.64,0,0,1,.16-.57l1-1.21a1,1,0,0,1,.62-.37,1.3,1.3,0,0,1,.71.08A19.6,19.6,0,0,1,255.82,333.43Zm8.54,17.87a.1.1,0,0,0,.09.11l5.05.39a.81.81,0,0,1,.59.3.85.85,0,0,1,.19.64l-.13,1.69a.84.84,0,0,1-.91.78L255,354.11a.88.88,0,0,1-.57-.29.78.78,0,0,1-.21-.62l.13-1.7a.83.83,0,0,1,.3-.59.81.81,0,0,1,.62-.21l5.19.4c.08,0,.13,0,.13-.09l.27-3.45c0-.07,0-.1-.11-.11l-3.41-.26a.81.81,0,0,1-.59-.3.87.87,0,0,1-.19-.64l.13-1.69a.86.86,0,0,1,.29-.6.81.81,0,0,1,.62-.21L261,344c.08,0,.12,0,.13-.09l.24-3.14a.1.1,0,0,0-.11-.13l-4.28-.33a.85.85,0,0,1-.57-.3.81.81,0,0,1-.21-.62l.13-1.71a.87.87,0,0,1,.91-.78l5.52.42s0,0,0,0v-.05a30.3,30.3,0,0,0-3.31-2.47.68.68,0,0,1-.32-.51.7.7,0,0,1,.2-.56l1.38-1.41a1,1,0,0,1,.65-.31h.25a1.06,1.06,0,0,1,.45.16,25.38,25.38,0,0,1,4.33,3,.85.85,0,0,1,0,1.21l-1,1c0,.06,0,.1,0,.1l4.57.36a.85.85,0,0,1,.6.3.78.78,0,0,1,.21.61l-.13,1.72a.85.85,0,0,1-.3.57.89.89,0,0,1-.64.21l-4.52-.35c-.07,0-.1,0-.11.11l-.24,3.14c0,.07,0,.1.09.11l3.63.28a.77.77,0,0,1,.57.3.84.84,0,0,1,.2.63l-.13,1.69a.85.85,0,0,1-.3.6.78.78,0,0,1-.61.21l-3.63-.28c-.06,0-.1,0-.1.09Z" transform="translate(0 -271.11)"/><path class="cls-2" d="M274.64,355.48a1.06,1.06,0,0,1-.69.2,1.15,1.15,0,0,1-.69-.26l-1.3-1.05a.55.55,0,0,1-.23-.53.59.59,0,0,1,.28-.46,8.24,8.24,0,0,0,2.35-2.71.9.9,0,0,1,.49-.45.84.84,0,0,1,.66,0l1.36.61a.81.81,0,0,1,.45.49.83.83,0,0,1,0,.64A10.12,10.12,0,0,1,274.64,355.48Zm19.78-16.08a.83.83,0,0,1,.59.3.85.85,0,0,1,.21.64l-.08,1a.81.81,0,0,1-.3.57.82.82,0,0,1-.64.21l-19.92-1.54a.81.81,0,0,1-.58-.3.87.87,0,0,1-.2-.61l.08-1a.9.9,0,0,1,.29-.6.81.81,0,0,1,.63-.21l4,.31c.07,0,.1,0,.08-.09q-.18-.76-.21-1a.15.15,0,0,0-.14-.1l-2.44-.19a.87.87,0,0,1-.78-.91l.08-1a.81.81,0,0,1,.3-.59.8.8,0,0,1,.61-.19l6.77.52c.06,0,.1,0,.11-.11v-.17a.85.85,0,0,1,.3-.6.82.82,0,0,1,.64-.21l1.88.15a.87.87,0,0,1,.6.3.86.86,0,0,1,.21.64l0,.17q0,.12.09.12l6.77.53a.81.81,0,0,1,.57.29.78.78,0,0,1,.21.62l-.08,1a.83.83,0,0,1-.3.57.79.79,0,0,1-.61.21l-2-.15a.18.18,0,0,0-.18.08,10.46,10.46,0,0,1-.78.94s0,.07.05.07Zm-11.9,14.52,2.85.23a1.14,1.14,0,0,0,.73-.13,1.26,1.26,0,0,0,.36-.71.61.61,0,0,1,.35-.42.58.58,0,0,1,.53,0,9.2,9.2,0,0,0,1.41.62,1,1,0,0,1,.52.44.89.89,0,0,1,.08.68,3.25,3.25,0,0,1-1.29,2,4.42,4.42,0,0,1-2.57.37l-3.63-.28a8.22,8.22,0,0,1-2.65-.54A2.18,2.18,0,0,1,278,355a5.11,5.11,0,0,1-.18-2.16l.11-1.43a.86.86,0,0,1,.29-.6.81.81,0,0,1,.62-.2l1.52.11a.2.2,0,0,0,.18-.06l.93-.75a0,0,0,0,0,0-.06s0,0,0,0l-5.37-.41a.88.88,0,0,1-.58-.29.81.81,0,0,1-.2-.62l.47-6.07a.78.78,0,0,1,.3-.58.81.81,0,0,1,.61-.2l15.2,1.17a.81.81,0,0,1,.59.3.87.87,0,0,1,.2.61l-.47,6.07a.86.86,0,0,1-.29.59.82.82,0,0,1-.63.19l-6.43-.5,0,0s0,0,0,0c.37.24.69.46,1,.66a.63.63,0,0,1,.28.53.67.67,0,0,1-.25.57l-1,.89a1,1,0,0,1-.65.24,1,1,0,0,1-.66-.24,16.81,16.81,0,0,0-2-1.35c-.07,0-.1,0-.1,0l-.13,1.6c0,.34,0,.55.18.65A2.84,2.84,0,0,0,282.52,353.92ZM279.2,344c-.08,0-.12,0-.13.09l0,.53c0,.08,0,.12.12.13l9.71.75a.1.1,0,0,0,.13-.11l0-.53c0-.07,0-.1-.11-.11Zm-.21,2.76c-.08,0-.12,0-.13.08l0,.56c0,.06,0,.1.11.11l9.72.75c.08,0,.12,0,.13-.09l0-.56c0-.06,0-.1-.11-.1Zm8.11-9c0-.07,0-.1-.06-.11l-5-.38c-.08,0-.11,0-.08.11l.24,1a.12.12,0,0,0,.12.11l4.42.34c-.08,0-.1-.07-.06-.13S286.87,338.22,287.1,337.77Zm2.07,15a.61.61,0,0,1-.16-.45.62.62,0,0,1,.39-.55l1.36-.6a1.1,1.1,0,0,1,.56-.11h.15a1.29,1.29,0,0,1,.65.37,19.54,19.54,0,0,1,2.53,3.48.67.67,0,0,1,.11.42.55.55,0,0,1-.06.22.84.84,0,0,1-.43.5l-1.59.73a.75.75,0,0,1-.4.09.62.62,0,0,1-.23-.07.94.94,0,0,1-.51-.43A20.57,20.57,0,0,0,289.17,352.81Z" transform="translate(0 -271.11)"/><path class="cls-2" d="M310.57,338.07c0,.07,0,.1.07.11l7.3.56a.85.85,0,0,1,.57.3.83.83,0,0,1,.21.61l-1.44,18.62a.83.83,0,0,1-.3.59.81.81,0,0,1-.62.21l-2.12-.16a.87.87,0,0,1-.81-.94l0-.19a.1.1,0,0,0-.09-.11l-10.78-.83c-.08,0-.13,0-.13.09l0,.19a.8.8,0,0,1-.3.6.81.81,0,0,1-.61.2l-1.93-.15a.83.83,0,0,1-.6-.3.85.85,0,0,1-.21-.63l1.44-18.62a.88.88,0,0,1,.94-.78l5.41.42a.11.11,0,0,0,.13-.09c.24-.82.44-1.55.59-2.19a.91.91,0,0,1,.35-.55.88.88,0,0,1,.55-.16l.1,0,2.68.47a.67.67,0,0,1,.46.36.63.63,0,0,1,0,.58C311.22,336.75,310.93,337.34,310.57,338.07Zm4.09,4c0-.08,0-.12-.08-.13l-10.79-.83c-.08,0-.12,0-.13.11l-.13,1.69c0,.07,0,.1.12.11l10.78.83c.06,0,.1,0,.1-.09Zm-.4,5.22q0-.12-.09-.12l-10.78-.84c-.08,0-.12,0-.13.11l-.13,1.7c0,.08,0,.12.11.13l10.78.83c.07,0,.1,0,.11-.11Zm-11.54,6.12c0,.08,0,.12.11.13l10.79.83c.06,0,.1,0,.1-.11l.14-1.74a.1.1,0,0,0-.09-.11L303,351.57c-.09,0-.13,0-.13.08Z" transform="translate(0 -271.11)"/><path class="cls-2" d="M330.76,356.2l7.06.54c1.2.09,2-.08,2.35-.52a6.54,6.54,0,0,0,.88-2.46.53.53,0,0,1,.34-.4.57.57,0,0,1,.54,0,11.05,11.05,0,0,0,2,.95,1.08,1.08,0,0,1,.55.43.84.84,0,0,1,.13.52.4.4,0,0,1,0,.15,7.6,7.6,0,0,1-1.94,4c-.94.77-2.58,1.07-4.93.88l-7.28-.56q-3.84-.3-5.18-1.45c-.89-.76-1.26-2.13-1.1-4.12l.61-7.93a.85.85,0,0,1,.3-.57.83.83,0,0,1,.61-.21l12.86,1c.07,0,.1,0,.11-.12l.31-4c0-.06,0-.1-.09-.1l-13.15-1a.85.85,0,0,1-.58-.3.87.87,0,0,1-.2-.64l.15-2a.81.81,0,0,1,.3-.57.79.79,0,0,1,.61-.21l16.2,1.25a.87.87,0,0,1,.6.3.85.85,0,0,1,.2.62l-.85,11.07a.85.85,0,0,1-.3.57.87.87,0,0,1-.64.21l-2.08-.17a.76.76,0,0,1-.59-.3.78.78,0,0,1-.21-.61l0-.38a.1.1,0,0,0-.09-.11l-9.86-.76c-.07,0-.1,0-.11.09l-.39,5.07q-.08,1,.42,1.29A7.45,7.45,0,0,0,330.76,356.2Z" transform="translate(0 -271.11)"/><path class="cls-2" d="M363.3,343.37c0,.06,0,.09.06.1l5.78.45a.83.83,0,0,1,.6.3.86.86,0,0,1,.21.61c0,.26-.05.5-.08.72q-.92,8.68-1.48,12c-.37,2.22-.84,3.64-1.39,4.26a3.55,3.55,0,0,1-1.2,1,5.11,5.11,0,0,1-1.53.38,12.45,12.45,0,0,1-2.26,0c-.29,0-.59-.05-.92-.1a.83.83,0,0,1-.59-.3,1,1,0,0,1-.31-.64,8.93,8.93,0,0,0-.5-1.94.45.45,0,0,1,.06-.47.41.41,0,0,1,.42-.17q1.26.16,2.88.3a1.49,1.49,0,0,0,1.12-.35c.38-.36.74-1.48,1.06-3.36s.69-4.89,1.11-9c0-.07,0-.12-.09-.12l-4.47-.35a.18.18,0,0,0-.18.08,25.93,25.93,0,0,1-1.79,2.76.77.77,0,0,1-1.15.08c-.41-.36-.81-.69-1.21-1-.06,0-.09,0-.1,0l-.83,10.81a.84.84,0,0,1-.31.6.81.81,0,0,1-.61.2l-5.53-.42c-.07,0-.1,0-.11.09l-.06.79a.87.87,0,0,1-.94.81l-1.52-.12a.83.83,0,0,1-.59-.3.9.9,0,0,1-.19-.64l1.31-17a.9.9,0,0,1,.29-.6.81.81,0,0,1,.63-.21l1.86.15a.13.13,0,0,0,.13-.09,29.78,29.78,0,0,0,.69-3,.78.78,0,0,1,.36-.56.76.76,0,0,1,.5-.13h.12l2.2.48a.7.7,0,0,1,.49.38.66.66,0,0,1,0,.61c-.49,1.13-.87,2-1.12,2.49,0,.06,0,.1.07.1l2.7.21a.85.85,0,0,1,.58.3.88.88,0,0,1,.2.64l-.18,2.32a.05.05,0,0,0,0,0s0,0,0,0a25.74,25.74,0,0,0,3.17-6.13.9.9,0,0,1,.44-.5.78.78,0,0,1,.65-.05l1.78.55a.87.87,0,0,1,.48.44.75.75,0,0,1,0,.62C363.88,342,363.61,342.68,363.3,343.37Zm-9.4,6.13c.08,0,.12,0,.13-.11l.24-3.12a.1.1,0,0,0-.11-.13l-3-.24c-.07,0-.1,0-.11.12l-.24,3.12q0,.12.09.12Zm-3.68,7c0,.08,0,.12.09.12l3,.24c.08,0,.12,0,.13-.11l.31-4c0-.07,0-.1-.11-.11l-3-.23c-.07,0-.1,0-.11.09Zm14.3-2.16a.8.8,0,0,1,.08.45.46.46,0,0,1-.06.23.85.85,0,0,1-.45.5l-1.65.85a.92.92,0,0,1-.39.07l-.22,0a.77.77,0,0,1-.45-.45q-.6-1.45-2.11-4.45a.89.89,0,0,1-.09-.44,1,1,0,0,1,0-.22.77.77,0,0,1,.45-.47l1.36-.65a1,1,0,0,1,.47-.09,1,1,0,0,1,.22.05.91.91,0,0,1,.52.42Q363.94,353.12,364.52,354.33Z" transform="translate(0 -271.11)"/><path class="cls-2" d="M392.42,350.8c0,.06,0,.1.09.1l.84.07a.87.87,0,0,1,.6.3.86.86,0,0,1,.21.64l-.29,3.69a.81.81,0,0,1-.3.59.85.85,0,0,1-.64.19l-1.83-.14a.84.84,0,0,1-.6-.29.78.78,0,0,1-.21-.62l.15-1.91a.1.1,0,0,0-.09-.11l-14.89-1.15a.1.1,0,0,0-.11.09l-.14,1.91a.83.83,0,0,1-.3.59.92.92,0,0,1-.64.19l-1.67-.13a.82.82,0,0,1-.59-.29.78.78,0,0,1-.21-.62l.28-3.7a.87.87,0,0,1,.94-.8l.9.07c.06,0,.1,0,.1-.09l.14-6.9a.65.65,0,0,1,.26-.53.74.74,0,0,1,.6-.11l.78.21a.34.34,0,0,0,.22,0,19.74,19.74,0,0,0,2.52-.78,1.38,1.38,0,0,1,.49-.06,1,1,0,0,1,.24.05,1.19,1.19,0,0,1,.6.43l.44.62a.66.66,0,0,1,.1.59.61.61,0,0,1-.4.41,20.81,20.81,0,0,1-2.46.63.16.16,0,0,0-.1.14v.08a.12.12,0,0,0,.12.13l2.1.16a.81.81,0,0,1,.57.3.78.78,0,0,1,.21.61l0,.44a.81.81,0,0,1-.31.59.78.78,0,0,1-.61.21l-2-.15c-.08,0-.12,0-.11.08v.37c0,.08,0,.12.11.13l2,.15a.82.82,0,0,1,.56.28.79.79,0,0,1,.2.59c0,.06,0,.09.09.08.4-.17.77-.33,1.11-.5l0-.06a.07.07,0,0,0-.05-.06l-.16-.11-.18-.14a.54.54,0,0,1-.26-.47.68.68,0,0,1,.23-.51l.31-.21a1.36,1.36,0,0,1,.85-.26,1.34,1.34,0,0,1,.59.22,4.6,4.6,0,0,1,.46.3.12.12,0,0,0,.17,0,.76.76,0,0,0,.16-.11,1.33,1.33,0,0,1,1-.4,1.07,1.07,0,0,1,.38.1l.61.22a.62.62,0,0,1,.37.43.49.49,0,0,1-.15.53c-.18.18-.37.36-.58.54a.09.09,0,0,0,0,.15l.43.37a.63.63,0,0,1,.22.57.67.67,0,0,1-.31.54l-.46.33a.84.84,0,0,1-.65.18,1,1,0,0,1-.63-.3l-.41-.37a.12.12,0,0,0-.17,0,14.71,14.71,0,0,1-1.77.94s0,.05,0,.05l7.28.56q.12,0,.12-.09l.08-.36c0-.06,0-.09-.09-.1l-1.64-.13a.87.87,0,0,1-.6-.3.85.85,0,0,1-.21-.63l0-.44a.79.79,0,0,1,.3-.58.84.84,0,0,1,.63-.2l1.84.14a.1.1,0,0,0,.13-.11l.05-.36c0-.06,0-.1-.11-.1l-1.81-.14a.89.89,0,0,1-.81-.94l0-.44a.85.85,0,0,1,.3-.57.81.81,0,0,1,.63-.21l2,.16c.06,0,.1,0,.1-.12l.05-.33c0-.08,0-.13-.09-.13l-2.1-.16a.9.9,0,0,1-.6-.29.84.84,0,0,1-.2-.63l0-.46a.83.83,0,0,1,.3-.59.85.85,0,0,1,.64-.21l4.86.38a.73.73,0,0,1,.58.3.75.75,0,0,1,.17.63Q392.94,347.75,392.42,350.8Zm-5.77,2.88H387a1.32,1.32,0,0,1,.82.41l.78.86a.7.7,0,0,1,.19.57.76.76,0,0,1-.32.54c-.89.56-1.84,1.13-2.86,1.7,0,0,0,0,0,0a0,0,0,0,0,0,0l7,.54a.87.87,0,0,1,.6.3.86.86,0,0,1,.21.64l-.09,1.08a.86.86,0,0,1-.93.78l-8.13-.62c-.06,0-.1,0-.1.11l-.08,1a4.17,4.17,0,0,1-.47,1.8,2.19,2.19,0,0,1-1.25.86,10.64,10.64,0,0,1-3.54.19h0a1.08,1.08,0,0,1-.64-.27,1.32,1.32,0,0,1-.36-.64,9.85,9.85,0,0,0-.42-1.46.55.55,0,0,1,.1-.51.43.43,0,0,1,.44-.18l2.07.16a.75.75,0,0,0,.41-.05.37.37,0,0,0,.13-.3l.07-.92c0-.08,0-.12-.08-.12l-8.05-.63a.81.81,0,0,1-.59-.3.8.8,0,0,1-.19-.61l.08-1.09A.82.82,0,0,1,372,357a.78.78,0,0,1,.62-.21l8.05.62c.07,0,.1,0,.11-.09v0a.87.87,0,0,1,.3-.6.86.86,0,0,1,.64-.21l.72.06a.4.4,0,0,0,.22,0l.75-.5s0,0,0-.05a0,0,0,0,0,0,0l-6.26-.48a.85.85,0,0,1-.58-.3.87.87,0,0,1-.2-.64l.06-.75a.83.83,0,0,1,.3-.59.78.78,0,0,1,.61-.21l9.14.71A.47.47,0,0,0,386.65,353.68Zm-9.21-4.5c-.08,0-.12,0-.1.09v.36c0,.07,0,.1.12.11l3.77.29,0,0a0,0,0,0,0,0-.05c-.45-.49-.78-.83-1-1,0,0-.05,0-.05,0a.46.46,0,0,1-.47.43Zm8.39-5.38a.69.69,0,0,1,.24.56.72.72,0,0,1-.3.55l-.41.28a1,1,0,0,1-.67.2,1.11,1.11,0,0,1-.64-.27l-.31-.29a.15.15,0,0,0-.2,0c-.32.19-.66.36-1,.53a1,1,0,0,1-.7.08,1.28,1.28,0,0,1-.64-.38l-.5-.47a.57.57,0,0,1-.16-.49.48.48,0,0,1,.32-.38c.31-.12.59-.24.86-.37a.06.06,0,0,0,.05-.06s0,0,0-.06l-.28-.19a.53.53,0,0,1-.25-.47.64.64,0,0,1,.23-.51l.28-.19a1.37,1.37,0,0,1,.85-.25,1.21,1.21,0,0,1,.59.21l.44.28a.14.14,0,0,0,.17,0l.13-.09a1.39,1.39,0,0,1,1-.38,1.24,1.24,0,0,1,.4.1l.59.22a.59.59,0,0,1,.36.42.53.53,0,0,1-.14.52c-.17.17-.36.34-.57.52a.08.08,0,0,0,0,.14Z" transform="translate(0 -271.11)"/><path class="cls-2" d="M406.82,353.88c0,.06,0,.11.06.13l2,.4a.55.55,0,0,1,.43.35.55.55,0,0,1,0,.55c-.18.29-.37.57-.57.83,0,.06,0,.1.06.1l6.75.53a.78.78,0,0,1,.58.3.89.89,0,0,1,.2.63l-.69,8.85a.82.82,0,0,1-.29.59.84.84,0,0,1-.62.19l-2.15-.17a.74.74,0,0,1-.52-.25.73.73,0,0,1-.17-.55c0-.05,0-.08-.09-.08l-9.63-.75c-.06,0-.09,0-.1.07a.67.67,0,0,1-.26.51.69.69,0,0,1-.55.18l-1.95-.15a.88.88,0,0,1-.58-.29.81.81,0,0,1-.2-.62l.68-8.85a.87.87,0,0,1,.91-.81l4.86.38a.12.12,0,0,0,.15-.09c.08-.17.22-.51.42-1a.06.06,0,0,0,0-.05.05.05,0,0,0,0,0,8.9,8.9,0,0,1-2.25.07,1,1,0,0,1-.63-.28,1.06,1.06,0,0,1-.34-.62,11.41,11.41,0,0,0-.43-1.4.09.09,0,0,0-.14-.05q-1.68.6-3.6,1.2a.8.8,0,0,1-.66,0,.83.83,0,0,1-.44-.51l-.45-1.37a.76.76,0,0,1-.05-.32.8.8,0,0,1,.1-.31.73.73,0,0,1,.51-.37c.89-.19,2-.45,3.27-.77.09,0,.1-.05,0-.12a14.17,14.17,0,0,0-2.06-1.71.8.8,0,0,1-.31-.55.71.71,0,0,1,.2-.58l.72-.75c.05-.06,0-.09,0-.1l-.7-.05a.85.85,0,0,1-.6-.3.81.81,0,0,1-.21-.62l.08-1a.83.83,0,0,1,.3-.59.85.85,0,0,1,.64-.21L407,344a.81.81,0,0,1,.59.31.88.88,0,0,1,.19.63l-.57,7.35A3.7,3.7,0,0,1,406.82,353.88ZM403,351.25a.89.89,0,0,1-.13.61.91.91,0,0,1-.48.39v.05l1.2.09a.31.31,0,0,0,.39-.34l.42-5.31c0-.08,0-.13-.09-.13l-3.77-.29s0,0,0,0c.51.35.95.68,1.33,1a.74.74,0,0,1,.3.58.87.87,0,0,1-.22.64l-1.17,1.3a0,0,0,0,0,0,0,.05.05,0,0,0,0,0l1.17-.3a.77.77,0,0,1,.94.66Zm9.24,8.84c.08,0,.12,0,.13-.12l.05-.65c0-.06,0-.1-.11-.1l-9.58-.74c-.08,0-.12,0-.12.08l-.05.66c0,.08,0,.12.11.13Zm-10,2.63a.12.12,0,0,0,.12.13l9.57.74c.08,0,.12,0,.13-.11l.05-.63c0-.08,0-.12-.11-.13l-9.58-.74c-.08,0-.12,0-.13.11Zm16.05-17.8a.81.81,0,0,1,.58.3.85.85,0,0,1,.19.64l-.55,7.22a4.08,4.08,0,0,1-.4,1.64,2,2,0,0,1-1,.83,7.65,7.65,0,0,1-3,.18,1.06,1.06,0,0,1-.64-.28,1.09,1.09,0,0,1-.36-.62,11.43,11.43,0,0,0-.48-1.67.14.14,0,0,0-.16-.08l-1.62.46-1.41.4a.91.91,0,0,1-.67-.08.9.9,0,0,1-.43-.49l-.4-1.13a.63.63,0,0,1-.05-.3.84.84,0,0,1,.1-.33.76.76,0,0,1,.51-.35c1-.2,2-.44,3-.71,0,0,.05,0,.06-.06s0,0,0,0a16.07,16.07,0,0,0-1.88-1.48.73.73,0,0,1-.31-.52.7.7,0,0,1,.21-.58l.66-.71c.05-.06,0-.09,0-.1l-.53,0a.83.83,0,0,1-.6-.3.78.78,0,0,1-.21-.61l.08-1a.86.86,0,0,1,.94-.8ZM413.68,350a.76.76,0,0,1,.95.63l.1.89a.91.91,0,0,1-.13.68,1.08,1.08,0,0,1-.56.43L413,353s0,0,0,.05l1.76.16a.61.61,0,0,0,.32-.09.35.35,0,0,0,.12-.27l.4-5.2c0-.08,0-.12-.08-.13l-3.46-.26s0,0,0,0c.51.34.94.64,1.29.91a.74.74,0,0,1,.3.58.88.88,0,0,1-.22.64l-.75.82a0,0,0,0,0,0,0s0,0,.05,0Z" transform="translate(0 -271.11)"/><path class="cls-2" d="M444.34,355.45a.79.79,0,0,1-.28.58.84.84,0,0,1-.63.2l-4-.32c-.06,0-.09,0-.1.12q.25,6.39,4,9.84a.66.66,0,0,1,.21.54.63.63,0,0,1-.27.52,11.55,11.55,0,0,0-1.63,1.58.78.78,0,0,1-.56.31.64.64,0,0,1-.56-.2,14.09,14.09,0,0,1-3.57-6.38s0,0,0,0,0,0,0,0a13.71,13.71,0,0,1-5.28,5.94.77.77,0,0,1-.64.1.93.93,0,0,1-.53-.41,16.92,16.92,0,0,0-1.05-1.46h-.05s0,0,0,0l-.08,1.11a.81.81,0,0,1-.3.57.85.85,0,0,1-.64.21l-1.64-.13a.87.87,0,0,1-.6-.3.79.79,0,0,1-.21-.61l.57-7.3c0-.08,0-.13-.09-.13l-1.14-.09c-.08,0-.12,0-.13.11v.22a11.91,11.91,0,0,1-2.19,6.62.77.77,0,0,1-.59.29.91.91,0,0,1-.66-.22q-.55-.44-1.17-.84a.69.69,0,0,1-.33-.52.46.46,0,0,1,0-.17.69.69,0,0,1,.18-.4,10,10,0,0,0,1.56-5.13v-.1c0-.08,0-.12-.11-.13l-.32,0a.81.81,0,0,1-.58-.3.82.82,0,0,1-.2-.61l.12-1.48a.84.84,0,0,1,.91-.8l4.91.38c.06,0,.1,0,.1-.09l.16-2c0-.08,0-.12-.09-.13l-3.48-.26s0,0,0,0l-.58,0a.8.8,0,0,1-.59-.3.81.81,0,0,1-.21-.63l.54-7a.81.81,0,0,1,.3-.58.85.85,0,0,1,.64-.19l1.52.11a.9.9,0,0,1,.6.29.83.83,0,0,1,.2.63l-.35,4.54c0,.08,0,.12.09.13l1.6.12c.06,0,.09,0,.1-.11l.44-5.66a.83.83,0,0,1,.3-.59.82.82,0,0,1,.64-.21l1.64.13a.87.87,0,0,1,.6.3.84.84,0,0,1,.2.63l-1.49,19.37c0,.06,0,.08.06.05,3.11-2,5-5.12,5.7-9.46,0-.07,0-.12-.09-.12l-3.26-.26a.79.79,0,0,1-.6-.29.78.78,0,0,1-.21-.62l.14-1.84a.83.83,0,0,1,.3-.59.85.85,0,0,1,.64-.21l3.36.26c.08,0,.12,0,.13-.09l.45-5.78a.79.79,0,0,1,.28-.58.89.89,0,0,1,.63-.2l1.71.14a.84.84,0,0,1,.6.29.78.78,0,0,1,.21.62l-.45,5.78c0,.06,0,.1.09.1l4.67.36a.81.81,0,0,1,.58.3.93.93,0,0,1,.2.64Zm0-5.38a.8.8,0,0,1,0,.66.78.78,0,0,1-.51.44l-1.58.61a.7.7,0,0,1-.6,0,.79.79,0,0,1-.4-.48,22.88,22.88,0,0,0-1.32-3.15.78.78,0,0,1,0-.62.64.64,0,0,1,.42-.41l1.35-.48a1,1,0,0,1,.71,0,.89.89,0,0,1,.52.45A22.31,22.31,0,0,1,444.37,350.07Z" transform="translate(0 -271.11)"/><path class="cls-2" d="M451.59,355.18a.85.85,0,0,1,.12,1.22l-1.18,1.47a.74.74,0,0,1-.56.29,1,1,0,0,1-.62-.21,21.49,21.49,0,0,0-3-2.08.67.67,0,0,1-.35-.49.48.48,0,0,1,0-.2.73.73,0,0,1,.18-.4l1-1.21a1,1,0,0,1,.61-.38,1.05,1.05,0,0,1,.7.09A22,22,0,0,1,451.59,355.18Zm-.85,5a.72.72,0,0,1,1.1-.11l1.22,1.19a.93.93,0,0,1,.33.62,1,1,0,0,1-.16.71q-2.16,3.44-4.26,6.33a.73.73,0,0,1-.55.32.68.68,0,0,1-.6-.19l-1.6-1.31a.8.8,0,0,1-.3-.59.5.5,0,0,1,0-.17.75.75,0,0,1,.21-.47A69.89,69.89,0,0,0,450.74,360.17Zm2.77-11.6a.75.75,0,0,1,.29.58.9.9,0,0,1-.19.64l-1.23,1.44a.74.74,0,0,1-.57.27.76.76,0,0,1-.6-.22,17.62,17.62,0,0,0-2.82-2,.74.74,0,0,1-.34-.49.65.65,0,0,1,.16-.58l1-1.2a1,1,0,0,1,.61-.37,1.2,1.2,0,0,1,.32,0,1.07,1.07,0,0,1,.4.1A19.13,19.13,0,0,1,453.51,348.57Zm10.75,19.09.58,0c.17,0,.29-.14.38-.46a17.6,17.6,0,0,0,.33-2,.41.41,0,0,1,.27-.38.44.44,0,0,1,.48.05,12.7,12.7,0,0,0,1.57.8,1.06,1.06,0,0,1,.52.48.9.9,0,0,1,.15.59,5.54,5.54,0,0,1-1.26,3.43A2.67,2.67,0,0,1,465,371l-1.62-.12a3.11,3.11,0,0,1-2.54-1.1,5.89,5.89,0,0,1-.4-3.32l.54-7.05a.1.1,0,0,0-.11-.13l-1.11-.09c-.08,0-.12,0-.13.11-.09.95-.19,1.78-.31,2.48s-.28,1.43-.46,2.18a10,10,0,0,1-.69,1.95,9.66,9.66,0,0,1-1,1.63,7,7,0,0,1-1.42,1.41A9.94,9.94,0,0,1,453.8,370a.89.89,0,0,1-.66,0,.84.84,0,0,1-.47-.47,14.22,14.22,0,0,0-1-1.63.63.63,0,0,1-.13-.42.27.27,0,0,1,0-.12.53.53,0,0,1,.35-.41,8.27,8.27,0,0,0,1.43-.78,4.2,4.2,0,0,0,1-1,8.13,8.13,0,0,0,.7-1.16,7,7,0,0,0,.48-1.47c.13-.61.23-1.14.29-1.62s.14-1.1.23-1.89c0-.08,0-.12-.11-.13l-.8-.06a.83.83,0,0,1-.59-.3.8.8,0,0,1-.21-.62l.71-9.18a.83.83,0,0,1,.3-.59.89.89,0,0,1,.64-.19l11.6.9a.79.79,0,0,1,.57.28.81.81,0,0,1,.21.63l-.71,9.18a.85.85,0,0,1-.3.58.87.87,0,0,1-.61.21l-2.1-.17c-.09,0-.13,0-.13.11l-.55,7a3.46,3.46,0,0,0,0,.83A.26.26,0,0,0,464.26,367.66Zm-5.77-16.23c-.06,0-.1,0-.1.09l-.32,4c0,.08,0,.12.09.13l5.9.45a.1.1,0,0,0,.13-.11l.31-4c0-.07,0-.1-.11-.11Z" transform="translate(0 -271.11)"/><path class="cls-3" d="M98.7,367.74l5.87,6.85,6.84-5.87.52.61-6.85,5.86,5.86,6.84-.6.52-5.86-6.85-6.87,5.88-.51-.6L104,375.1l-5.87-6.84Zm.22,8.43a1.45,1.45,0,1,1,.23-2.89,1.45,1.45,0,0,1-.23,2.89Zm4.58-6.62a1.45,1.45,0,1,1,2.89.22,1.45,1.45,0,0,1-2.89-.22Zm2,11.19a1.45,1.45,0,1,1-1.33-1.55A1.46,1.46,0,0,1,105.54,380.74Zm4.58-6.61a1.44,1.44,0,1,1-1.55,1.33A1.44,1.44,0,0,1,110.12,374.13Z" transform="translate(0 -271.11)"/><path class="cls-3" d="M119.11,374.88l-.49,6.28c1.15,2.21,3.71,2.41,7.12,2.68,2.21.17,4.87.32,6.58.31a8.56,8.56,0,0,0-.72,1.75c-1.45-.06-3.64-.19-5.63-.34-4.19-.33-6.62-.51-8.23-2.94-.89.74-1.8,1.47-2.56,2a.38.38,0,0,1-.24.35l-.8-2a28.84,28.84,0,0,0,2.72-1.83l.37-4.71-2.37-.19.13-1.69Zm-2-7.32a14.34,14.34,0,0,1,2.88,3.37l-1.57,1a14.55,14.55,0,0,0-2.78-3.49Zm15.52,5.38a.56.56,0,0,1-.51.1,34.33,34.33,0,0,1-3.39,2.5,20.79,20.79,0,0,1,3.87,4.29l-1.46,1a19.48,19.48,0,0,0-2.69-3.36,7.67,7.67,0,0,1,0,1.51,4.48,4.48,0,0,1-1.29,3.17,2.93,2.93,0,0,1-2.53.62c-.34,0-.73-.07-1.13-.12a3.44,3.44,0,0,0-.3-1.67,12.7,12.7,0,0,0,1.55.21,1.29,1.29,0,0,0,1.21-.35,3.2,3.2,0,0,0,.81-2.12,6.17,6.17,0,0,0,0-.86,17.39,17.39,0,0,1-6.47,3.38,7.43,7.43,0,0,0-1-1.41,14.88,14.88,0,0,0,7.2-3.73,9.71,9.71,0,0,0-.39-1.19,18,18,0,0,1-4.89,2.68,7.14,7.14,0,0,0-1-1.29,16.15,16.15,0,0,0,5.2-2.64,10.31,10.31,0,0,0-.68-.95,19.06,19.06,0,0,1-4,2,10.85,10.85,0,0,0-1-1.32,15.45,15.45,0,0,0,5.58-3l-5-.39.11-1.52,12.67,1-.11,1.52-5.45-.42a14.13,14.13,0,0,1-1.5,1.36,8.28,8.28,0,0,1,1.73,2.67,24.28,24.28,0,0,0,3.2-2.82Z" transform="translate(0 -271.11)"/><path class="cls-3" d="M139.2,381.78l-.2,2.58a15.38,15.38,0,0,0,5.19,1c1.08.08,6.11.47,7.46.54a4.73,4.73,0,0,0-.74,1.47l-6.83-.53c-4-.31-6.65-.94-8.14-3.51a7.07,7.07,0,0,1-1.75,3.17,4.39,4.39,0,0,0-.94-1.13c1.26-1.32,1.71-3.8,1.94-6.11l1.86.3c0,.15-.15.24-.41.26-.06.54-.14,1.07-.24,1.62a5,5,0,0,0,1.12,1.85l.37-4.87-3.75-.29.11-1.38,8.76.67-.11,1.39-3.45-.27-.14,1.85,3.08.24-.11,1.37Zm3.35-12-.48,6.23-6.68-.51.48-6.24Zm-1.89,2.37.1-1.23-3.37-.26-.1,1.23Zm-.19,2.46.1-1.25-3.37-.26-.1,1.25Zm6,7.83a.41.41,0,0,1-.44.14,12.63,12.63,0,0,1-3.52,2.18,9.35,9.35,0,0,0-1-1.12,9,9,0,0,0,3.25-2ZM144,372.87l2.21.18c.21-.45.42-1,.62-1.45l-3.6-.28.1-1.34,9.09.7-.11,1.35-3.87-.3c-.21.45-.46,1-.71,1.43l3.53.28-.67,8.64-7.26-.56Zm5.37,2.92.09-1.2-3.95-.3-.09,1.19Zm-.19,2.42.1-1.21-3.95-.3-.1,1.21Zm-.19,2.45.1-1.23-3.95-.31-.09,1.23Zm1.06,4.63a23.87,23.87,0,0,0-2.51-2.59l1.23-.6a27.26,27.26,0,0,1,2.87,2.68Z" transform="translate(0 -271.11)"/><path class="cls-3" d="M154.88,371.14,171,372.39l-1.3,16.73L167.8,389l.1-1.29-12.38-1-.1,1.29-1.83-.14Zm.78,13.79,12.38,1L169,374l-12.38-1Zm3.18-9.07,7.35.57-.51,6.58-7.35-.57Zm5.26,5.52.28-3.56-4-.31-.28,3.56Z" transform="translate(0 -271.11)"/><path class="cls-3" d="M181.42,387.83l-.07,1a10.23,10.23,0,0,0,2.82-2l1.51,1a.55.55,0,0,1-.36.11,10.81,10.81,0,0,1-3.35,2.22,9.74,9.74,0,0,0-1.09-1.19l0,0-4.48-.34-.07.86-1.33-.1.44-5.62-.4.43-.46-.56a18.14,18.14,0,0,1-1.69,5.51,5,5,0,0,0-1.24-1c1.25-2.38,1.61-5.78,1.8-8.22l.39-5.07,8.07.63-.32,4.15-6.51-.5-.07.91c-.06.77-.15,1.65-.28,2.57a12.42,12.42,0,0,0,1.79-3.31l1.56.61c-.07.13-.21.17-.4.16-.14.34-.3.67-.48,1l1.29.1a13.82,13.82,0,0,0,.7-1.61l1.56.66c0,.13-.21.18-.42.16-.14.26-.32.58-.51.89l1.88.15-.09,1.19-2.06-.16-.08,1,1.85.14-.08,1-1.85-.14-.08,1,1.85.14-.08,1-1.85-.14-.08,1Zm.94-14.86-.12,1.52-8.91-.69.12-1.52Zm-2.15,3.73-4.87-.38-.12,1.56,4.87.38Zm-1.91,6.73.08-1-1.45-.12-.08,1Zm-.16,2.06.08-1-1.45-.12-.08,1Zm-1.53.93-.08,1,1.45.12.08-1Zm6.81-10.13,2.16.17c.13-.52.28-1.11.38-1.64l-3.07-.24L183,373l8.16.63-.12,1.56-3.37-.26c-.14.5-.32,1.08-.5,1.63l3.28.25-.79,10.25-7.05-.55Zm5.24,3.41.12-1.58-4-.31-.12,1.58Zm-.23,2.92.13-1.6-4-.3-.12,1.6Zm-.22,2.93.12-1.6-4-.31-.12,1.6Zm.54,5.21a20.37,20.37,0,0,0-2.26-2.79l1.37-.72a19.26,19.26,0,0,1,2.35,2.68Z" transform="translate(0 -271.11)"/><path class="cls-3" d="M199.5,384.21l.11,1.64c-2.66.61-5.48,1.22-7.31,1.58a.4.4,0,0,1-.29.33l-.65-2.12c.86-.13,1.94-.32,3.14-.53l.62-8.07-2.77-.22.13-1.73,7.51.58-.13,1.73-3-.22-.59,7.6Zm9.37-5.41,1,.15c0,.16-.05.39-.09.6-.87,8-1.31,10.74-2.09,11.55s-1.21.84-3,.7l-1.48-.15a4.58,4.58,0,0,0-.42-1.86c1.11.19,2.15.29,2.59.32a.84.84,0,0,0,.8-.25c.56-.52,1-3,1.71-9.36l-3.8-.29c-.68,4.85-2.11,9-6.31,11.25a5.84,5.84,0,0,0-1.22-1.55c3.75-1.9,5-5.44,5.67-9.84l-3.39-.27.13-1.75,3.47.27c.16-1.38.28-2.83.39-4.33l2.38.32c0,.21-.2.31-.53.33-.12,1.29-.22,2.58-.35,3.82l4.16.33Z" transform="translate(0 -271.11)"/><path class="cls-3" d="M217,375.3a.55.55,0,0,1-.51.21,33.69,33.69,0,0,1-1.83,3.39l3.6.14c-.32-.68-.69-1.37-1.05-2l1.59-.52a19.52,19.52,0,0,1,2.16,4.59l-1.69.6a9.65,9.65,0,0,0-.34-1.11c-2.6,0-5.23-.07-6.95-.09a.34.34,0,0,1-.33.25l-.4-2.07,1.54.08a28.75,28.75,0,0,0,2.11-4.23Zm2.49,7.05-.68,8.78c-.12,1.6-.8,1.87-3.53,1.66a6,6,0,0,0-.47-1.7l1.3.14c.77.06.87.07.89-.26l.13-1.56-3.62-.28-.28,3.52-1.69-.13.83-10.72Zm-1.93,1.38-3.62-.28-.1,1.39,3.62.28Zm-4,4,3.62.28.12-1.5-3.62-.28Zm13-5.19c.7.06.85-.24,1.07-2.06a4.76,4.76,0,0,0,1.59.8c-.38,2.43-1,3-2.63,2.91l-3-.23c-2.06-.16-2.54-.72-2.4-2.57l.48-6.22,2.26.31c0,.17-.15.26-.47.29l-.2,2.6a30.05,30.05,0,0,0,4.22-1.41l1.16,1.5c-.08,0-.12,0-.41,0a38.54,38.54,0,0,1-5.08,1.39l-.13,1.63c-.05.66.08.76.91.83Zm-4.31,8.21c0,.68.09.8,1,.87l2.77.22c.77,0,.93-.3,1.17-2.41a5.57,5.57,0,0,0,1.59.82c-.44,2.66-1,3.33-2.73,3.19l-3.16-.24c-2.06-.16-2.56-.74-2.41-2.57l.49-6.39,2.26.31c0,.15-.17.26-.49.29l-.18,2.45a20.74,20.74,0,0,0,4.44-1.64l1.2,1.55a.64.64,0,0,1-.43,0,28.41,28.41,0,0,1-5.33,1.57Z" transform="translate(0 -271.11)"/><path class="cls-3" d="M232.72,384.48a18,18,0,0,1-1.6,2.1,13,13,0,0,0-1-1.6,29,29,0,0,0,4.73-8.82l2.09.78c-.07.15-.25.23-.52.19a41.14,41.14,0,0,1-2,4.4l.72.25c-.05.13-.2.24-.49.25l-.94,12.19-1.77-.13Zm9.64,8.65,5.39.41-.11,1.39-12.59-1,.11-1.38,5.41.42.09-1.2-4.22-.32.1-1.33,4.22.33.09-1.12-4.64-.36.1-1.37L241,388l.08-1-4.08-.32.31-4,4.08.31.06-.77L239,382l.19-2.41-2.62-.2.11-1.39,2.61.2.14-1.73,2.09.28c0,.17-.16.26-.47.29l-.1,1.29,3.31.26.14-1.74,2.16.29c0,.17-.15.26-.45.29l-.1,1.29,2.72.21-.11,1.39-2.71-.21-.19,2.41-2.5-.2-.06.77,4.18.33-.31,4-4.18-.32-.08,1,4.76.37-.11,1.36-4.75-.36-.09,1.11,4.31.34-.1,1.33-4.31-.34Zm-3.6-7.6,2.37.18.11-1.44-2.37-.19Zm2.05-5.77-.09,1.17,3.31.26.09-1.18Zm4.59,4.83L243,384.4l-.11,1.45,2.37.18Z" transform="translate(0 -271.11)"/><path class="cls-3" d="M256.13,378.58l1.14.75a.54.54,0,0,1-.19.23c-.62,1.49-1.51,3.45-2.3,5,1.36,1.65,1.77,2.94,1.67,4.16-.23,3-2.21,2.81-3.75,2.63a4.27,4.27,0,0,0-.3-1.63,7,7,0,0,0,.79.12c1,.07,1.46-.1,1.56-1.41a5.45,5.45,0,0,0-1.64-3.79c.64-1.3,1.32-3.05,1.83-4.39l-2.35-.18-1.21,15.56-1.71-.14L251,378.24l4.84.37Zm6.41,9.5a16,16,0,0,0,.73,2.54,21.42,21.42,0,0,0,2.33-2l1.54,1.36a.54.54,0,0,1-.49.06,27.75,27.75,0,0,1-2.73,2,8,8,0,0,0,3.16,3.19,7.53,7.53,0,0,0-1.33,1.43c-2.75-1.71-4.18-4.8-4.79-8.66l-1.81-.14-.43,5.52L262,393l0,1.61c-2.35.36-4.8.71-6.35.92a.35.35,0,0,1-.31.28l-.58-2c.62-.06,1.35-.12,2.17-.22l1.14-14.72,8.87.68-.68,8.86ZM265,381l-5.32-.41-.15,2,5.31.41Zm-5.59,3.13-.17,2.14,5.32.41.16-2.14Z" transform="translate(0 -271.11)"/><path class="cls-3" d="M270.91,392.35l1-13.46,6.47.5-.11,1.33-5.12-.39-.93,12.12Z" transform="translate(0 -271.11)"/><path class="cls-3" d="M295.75,394.76l-.13,1.59-7.81-.6-.21,2.62-1.87-.15.21-2.62-7.63-.59.13-1.59,7.62.59.09-1.16-5.72-.44.55-7.05,13.63,1.06-.55,7-6-.46-.09,1.15Zm-8.34-13.7-.3,3.85-6.66-.52.3-3.85Zm-1.94,2.56.12-1.52-3.29-.26-.12,1.52Zm-2.81,3.32-.11,1.39,3.93.31.1-1.39Zm-.33,4.16,3.93.31.11-1.41-3.93-.3Zm13.19-9.42-.3,3.85L288.5,385l.3-3.85Zm-3,7.42.11-1.38-4.18-.33-.11,1.39Zm-.21,2.78.11-1.41-4.18-.32-.11,1.4Zm1.27-7.64.11-1.52-3.35-.26-.11,1.53Z" transform="translate(0 -271.11)"/><path class="cls-3" d="M305.19,390.66c-.06.17-.22.28-.51.29-.72,3.57-1.71,6.82-6.53,8.25a4.65,4.65,0,0,0-1-1.59c4.35-1.15,5.11-4,5.65-7.35Zm4.45,6.74c-.05.71.05.84.77.89l2.21.17c.73.06.89-.45,1.21-3.35a5.11,5.11,0,0,0,1.59.9c-.45,3.37-1,4.28-2.8,4.14L310,400c-1.93-.15-2.39-.77-2.24-2.68l.53-6.77-10.21-.79.14-1.77,17.27,1.33-.14,1.77-5.22-.4Zm4.58-13.83-.14,1.78-13.82-1.07.13-1.77Z" transform="translate(0 -271.11)"/><path class="cls-3" d="M320,391.42a14.34,14.34,0,0,0-3-2.15l1.12-1.25a12,12,0,0,1,3,2Zm-3.41,8a54.28,54.28,0,0,0,3.12-6l1.41,1.07c-.87,2-2,4.17-2.76,5.58a.62.62,0,0,1,.13.38.48.48,0,0,1-.07.21Zm4.51-13a12.79,12.79,0,0,0-2.88-2.3l1.14-1.23a12.92,12.92,0,0,1,3,2.15Zm3.36,10.93a.47.47,0,0,1-.45.14,14.3,14.3,0,0,1-2.93,3.51,8.55,8.55,0,0,0-1.26-1,11.13,11.13,0,0,0,2.73-3.41Zm-1.62-13.55,5.77.45-1,12.45-5.78-.44Zm1.43,1.72-.16,2.08,2.6.2.16-2.08Zm-.27,3.56-.17,2.1,2.6.2.17-2.1Zm-.28,3.58-.16,2.12,2.6.2.16-2.12Zm3.29,8.08a20.36,20.36,0,0,0-1.83-3.12l1.41-.71a22.43,22.43,0,0,1,1.9,3Zm2.76-15.22,2,.27c0,.15-.16.26-.45.27l-.84,10.79-1.59-.13Zm3.47-1.75,2.11.28c-.05.17-.16.26-.47.27l-1.19,15.44c-.15,1.93-1,2.1-4.14,1.85a7.16,7.16,0,0,0-.4-1.79c.63.07,1.25.14,1.71.17,1,.08,1.12.09,1.15-.33Z" transform="translate(0 -271.11)"/><path class="cls-3" d="M337.66,396.45c-.21,1.74-.52,3.58-1.34,4.62l-.92-.61a9.56,9.56,0,0,0,1.24-4.29Zm5.33-2.28.81.12c0,.13-.05.32-.06.5-.56,4.95-.85,6.69-1.35,7.23s-.85.61-2.77.41a3.9,3.9,0,0,0-.25-1.44,9.37,9.37,0,0,0,1.32.16c.67.06.78-.53,1.05-2.26l-.58.17a11.41,11.41,0,0,0-.8-2.62l.77-.19a12.61,12.61,0,0,1,.7,1.95h0c.09-.71.2-1.59.32-2.64l-3.87-.3,0,.56-1.45-.12.84-10.84,6.62.52-.11,1.46-2.25-.17-.12,1.52,1.89.14-.11,1.39-1.89-.15-.12,1.54,1.95.15-.11,1.39-1.94-.15-.12,1.56,1.32.1Zm-5.13,6.07c0-.21.05-.44.07-.71a21.14,21.14,0,0,0,0-2.87l.87,0a20.88,20.88,0,0,1,0,3.56Zm2.64-13.68-1.52-.12-.12,1.52,1.52.12Zm-.34,4.44.12-1.54-1.52-.11-.12,1.54Zm-1.63,1.27-.12,1.56,1.52.12.12-1.56Zm1.44,4.22a13.17,13.17,0,0,1,.47,3.19l-.86.11a15,15,0,0,0-.43-3.21Zm6.55-5.63.1-1.26A12.74,12.74,0,0,1,344.4,391a7.66,7.66,0,0,0-.75-1.55,12.44,12.44,0,0,0,5-4.49l2.07.24a.41.41,0,0,1-.33.24,13.27,13.27,0,0,0,4.41,4.68,9.57,9.57,0,0,0-1.09,1.55,17.29,17.29,0,0,1-1.87-1.64l-.09,1.19Zm.94,6.46c0,.15-.18.22-.39.22a12,12,0,0,1-.45,1.54,14.66,14.66,0,0,1,1.6,1.94l-1.16.86A16.92,16.92,0,0,0,346,400.4a6,6,0,0,1-2.26,2.35,6.86,6.86,0,0,0-.94-1.1c1.52-.81,2.41-2.53,2.82-4.7Zm-3.19-.92.36-4.62,4,.31-.35,4.62Zm1.5-3.32-.17,2.22,1.5.11.17-2.21Zm5.9-3.22a14,14,0,0,1-2.27-3.16,12.3,12.3,0,0,1-2.62,2.78Zm.78,13.52a21.61,21.61,0,0,0-1.69-2.47,5.75,5.75,0,0,1-2.18,2.17,8.36,8.36,0,0,0-1-1.12c1.53-.79,2.44-2.5,2.88-4.66l1.85.38c0,.15-.17.22-.41.24a11.47,11.47,0,0,1-.49,1.63,25.08,25.08,0,0,1,2.26,3Zm-3.29-6.6.36-4.63,4.18.33-.36,4.62Zm1.52-3.32-.17,2.22,1.61.12.18-2.21Z" transform="translate(0 -271.11)"/><path class="cls-3" d="M361.84,390.59l-1,13.44-6.45-.5.1-1.33,5.12.4.94-12.11Z" transform="translate(0 -271.11)"/><path class="cls-3" d="M365.82,398.76a40.93,40.93,0,0,1,3.91,4.51L368,404.59a39.66,39.66,0,0,0-3.76-4.67Z" transform="translate(0 -271.11)"/><path class="cls-3" d="M376.8,400.54l1-13.46,6.47.5-.1,1.33-5.12-.4-.94,12.13Z" transform="translate(0 -271.11)"/><path class="cls-3" d="M391.7,391.54l-.12,1.46-6.95-.53.11-1.47Zm-1.1,7.92-.45,5.77-4.1-.32-.06.83-1.52-.11L385,399Zm.39-5.28-.11,1.42-5.59-.43.11-1.42Zm-5.9,3.61.11-1.42,5.59.43-.11,1.42Zm6.25-8.87-.11,1.42-5.45-.42.11-1.42ZM389,400.8l-2.57-.2-.21,2.83,2.56.2Zm13,0-3.58-.28A14.08,14.08,0,0,0,402,405a7.12,7.12,0,0,0-1.36,1.27,16.26,16.26,0,0,1-3.29-4.48l-.4,5.09-1.77-.14.38-4.89a13.37,13.37,0,0,1-4.19,3.78,7.42,7.42,0,0,0-1.12-1.5,12,12,0,0,0,4.58-3.83l-3.53-.27.13-1.64,4.37.34.12-1.48-3.7-.29.6-7.76,9.28.72-.6,7.76-3.81-.3-.12,1.49,4.49.34Zm-7.59-10-.13,1.68,2.16.16.13-1.67Zm-.24,3.1-.13,1.69,2.16.17.13-1.69Zm6.06-1,.13-1.68-2.21-.17-.13,1.67ZM400,396l.13-1.69-2.21-.17-.14,1.69Z" transform="translate(0 -271.11)"/><path class="cls-3" d="M412.92,405.89l7.87.61-.12,1.63-17.45-1.34.13-1.64,7.76.6.15-2-5.85-.46.12-1.61,5.86.45.11-1.5-4.44-.35.37-4.87,10.88.84-.38,4.87-4.16-.32c0,.15-.19.22-.48.25l-.09,1.22,6.16.47-.13,1.62-6.16-.47ZM406.25,394l-.22,2.79-1.68-.13.34-4.4,3.05.23a15.47,15.47,0,0,0-1.19-2.22l1.65-.51a10.45,10.45,0,0,1,1.47,2.59l-.68.24,3.08.24.23-2.95,2.28.29c0,.17-.16.26-.49.3l-.19,2.5,3.14.24-.56-.29a17.39,17.39,0,0,0,1.77-2.42l2,1c-.07.13-.25.15-.48.13a18.74,18.74,0,0,1-1.52,1.71l3.25.25L421.2,398l-1.75-.14.21-2.79Zm2.79,3-.16,2,7.37.57.16-2Z" transform="translate(0 -271.11)"/><path class="cls-3" d="M425.94,399.61a14.07,14.07,0,0,0-3-2.15l1.13-1.25a12.14,12.14,0,0,1,3,2Zm-3.41,8a55.34,55.34,0,0,0,3.12-6l1.41,1.08c-.88,2-1.95,4.17-2.76,5.58a.69.69,0,0,1,.13.38.49.49,0,0,1-.08.21Zm4.51-13a13.55,13.55,0,0,0-2.88-2.29l1.14-1.23a12.9,12.9,0,0,1,2.95,2.14Zm3.36,10.94a.47.47,0,0,1-.46.13,13.92,13.92,0,0,1-2.92,3.52,9.74,9.74,0,0,0-1.26-1,11.23,11.23,0,0,0,2.72-3.41ZM428.77,392l5.78.44-1,12.46-5.77-.45Zm1.44,1.72-.16,2.08,2.6.2.16-2.08Zm-.28,3.56-.16,2.1,2.6.2.16-2.1Zm-.28,3.58-.16,2.12,2.6.2.16-2.12Zm3.29,8.08a20.08,20.08,0,0,0-1.83-3.13l1.41-.7a20.52,20.52,0,0,1,1.9,3Zm2.77-15.22,2,.27c0,.15-.15.26-.45.27L436.44,405l-1.6-.12Zm3.46-1.75,2.11.28c0,.17-.15.26-.46.27L439.62,408c-.15,1.93-1,2.1-4.13,1.85a7.16,7.16,0,0,0-.4-1.79l1.71.17c1,.08,1.11.09,1.15-.34Z" transform="translate(0 -271.11)"/><path class="cls-3" d="M443.56,404.64c-.21,1.74-.53,3.58-1.35,4.62l-.92-.62a9.39,9.39,0,0,0,1.24-4.28Zm5.33-2.28.8.12c0,.13,0,.32-.06.49-.55,5-.84,6.7-1.35,7.24s-.84.61-2.76.41a4.08,4.08,0,0,0-.26-1.44,11.08,11.08,0,0,0,1.33.16c.67.06.77-.54,1-2.26l-.57.17a11.47,11.47,0,0,0-.81-2.62l.77-.19a10.82,10.82,0,0,1,.7,1.95h0c.1-.71.2-1.59.32-2.65l-3.87-.29,0,.55-1.44-.11.83-10.84,6.63.51-.11,1.47-2.26-.18-.12,1.53,1.89.14-.11,1.39-1.88-.15-.12,1.54,1.94.15-.1,1.39-1.95-.15-.12,1.56,1.33.1Zm-5.14,6.07a6.56,6.56,0,0,0,.07-.71,19.63,19.63,0,0,0,0-2.87l.88,0a20.82,20.82,0,0,1,0,3.56Zm2.65-13.68-1.52-.12-.12,1.52,1.52.12Zm-.35,4.44.12-1.54-1.52-.12-.12,1.54Zm-1.63,1.27L444.3,402l1.53.12.12-1.56Zm1.44,4.22a12.7,12.7,0,0,1,.47,3.19l-.86.11a13.8,13.8,0,0,0-.43-3.21Zm6.56-5.64.09-1.25a12.38,12.38,0,0,1-2.22,1.44,7.16,7.16,0,0,0-.75-1.55,12.38,12.38,0,0,0,5-4.49l2.08.24a.43.43,0,0,1-.33.24,13.24,13.24,0,0,0,4.4,4.68,9.94,9.94,0,0,0-1.09,1.54,16.07,16.07,0,0,1-1.86-1.63l-.1,1.19Zm.93,6.47c0,.15-.17.22-.38.22a14.32,14.32,0,0,1-.45,1.53,15.2,15.2,0,0,1,1.59,1.95l-1.15.86a14.19,14.19,0,0,0-1.07-1.48,6.07,6.07,0,0,1-2.25,2.35,6.86,6.86,0,0,0-.94-1.1c1.51-.82,2.4-2.53,2.82-4.71Zm-3.18-.92.36-4.63,4,.32-.36,4.62Zm1.49-3.32-.17,2.22,1.5.11.18-2.21Zm5.91-3.22a13.68,13.68,0,0,1-2.27-3.16,13,13,0,0,1-2.62,2.78Zm.77,13.52a20.17,20.17,0,0,0-1.68-2.47,5.84,5.84,0,0,1-2.19,2.17,7.7,7.7,0,0,0-1-1.12c1.53-.79,2.44-2.5,2.87-4.66l1.85.38c0,.15-.17.22-.4.24a9.88,9.88,0,0,1-.5,1.62,25,25,0,0,1,2.27,3ZM455.06,405l.36-4.62,4.17.33-.35,4.62Zm1.51-3.31-.17,2.22L458,404l.17-2.21Z" transform="translate(0 -271.11)"/><path class="cls-3" d="M467.74,398.78l-1,13.44-6.45-.5.1-1.33,5.12.4.94-12.12Z" transform="translate(0 -271.11)"/><path class="cls-3" d="M471.72,407a40.87,40.87,0,0,1,3.91,4.5l-1.69,1.33a40.7,40.7,0,0,0-3.76-4.67Z" transform="translate(0 -271.11)"/><path class="cls-3" d="M482.7,408.73l1-13.46,6.47.5-.11,1.33-5.12-.4-.93,12.13Z" transform="translate(0 -271.11)"/><path class="cls-3" d="M507.44,410.14l-.12,1.48L499.7,411l-.15,1.93c-.13,1.63-.83,1.75-4.26,1.49a5.84,5.84,0,0,0-.48-1.61c1.1.12,2.23.21,2.52.23s.41-.06.43-.29l.15-1.89-7.59-.59.12-1.48,7.58.59.08-1,1.08.12a13,13,0,0,0,1.87-.92l-7-.54.11-1.33,8.81.68.28-.08,1.28,1a.55.55,0,0,1-.42.17,25.3,25.3,0,0,1-4.17,2.09Zm-14.79-5.66-.18,2.39-1.74-.14L491,403l1.53.12.1-6.15,1.18.36c.92-.22,2-.55,2.63-.79l1,1.26a.33.33,0,0,1-.26.08l-.17-.05c-.67.18-1.77.4-2.68.57V399l2.74.21-.09,1.18-2.68-.21v.91l2.69.21-.09,1.19-2.64-.2v.91l10.32.8.17-.9-2.64-.2.09-1.2,2.73.21.15-.9-2.73-.21.09-1.17,2.81.22.11-.91-2.93-.22.09-1.2,4.72.37c-.25,2-.62,4.48-.93,6.24l1.51.12-.3,3.75-1.81-.14.19-2.39Zm9.47-7c-.05.12-.19.16-.4.13a5.46,5.46,0,0,1-.91.78,8.31,8.31,0,0,1,.94.89l-1,.73a8.87,8.87,0,0,0-1-.94A12.54,12.54,0,0,1,498,400a7,7,0,0,0-.85-.88,10.66,10.66,0,0,0,1.73-.79,12.17,12.17,0,0,0-1.12-.79l.92-.66a11.89,11.89,0,0,1,1.18.77,7.57,7.57,0,0,0,.88-.79Zm-.06,3.25a.37.37,0,0,1-.42.15,8.41,8.41,0,0,1-1,.85,9.59,9.59,0,0,1,1,1l-1,.76a8.88,8.88,0,0,0-1-1,13.84,13.84,0,0,1-1.92,1,8,8,0,0,0-.86-.9,9,9,0,0,0,1.81-.86c-.37-.28-.75-.55-1.12-.79l.94-.66a10.86,10.86,0,0,1,1.16.79,7.27,7.27,0,0,0,.94-.88Z" transform="translate(0 -271.11)"/><path class="cls-3" d="M512.08,405.27a25.6,25.6,0,0,1-2.19,2.46c-.14-.45-.53-1.42-.74-1.88a24.91,24.91,0,0,0,5.24-8l2,.87c-.09.15-.25.2-.52.18a35.34,35.34,0,0,1-2,3.68l.58.22c0,.15-.17.24-.44.26l-1,12.76-1.79-.14Zm15.29,4.66-.14,1.7-5.54-.43-.41,5.26-1.85-.15.41-5.25-5.39-.42.13-1.69,5.39.41.24-3.12-4.6-.35.13-1.7,4.6.36.47-6.05,2.28.32c0,.17-.15.25-.47.29l-.43,5.58,4.8.37-.13,1.7-4.8-.37-.24,3.12Zm-9.53-10.86a17.34,17.34,0,0,1,1.42,4.2l-1.69.56a19.84,19.84,0,0,0-1.29-4.3Zm5.54,4.53a24.84,24.84,0,0,0,2.18-4.09l2,1a.5.5,0,0,1-.5.13,29.85,29.85,0,0,1-2.28,3.72Z" transform="translate(0 -271.11)"/><path class="cls-3" d="M531.83,407.8a14,14,0,0,0-3-2.15L530,404.4a11.78,11.78,0,0,1,3,2Zm-3.41,8a53.63,53.63,0,0,0,3.12-6l1.41,1.08c-.87,2-2,4.17-2.76,5.58a.62.62,0,0,1,.13.38.43.43,0,0,1-.07.2Zm4.51-13a13.06,13.06,0,0,0-2.88-2.29l1.14-1.23a12.9,12.9,0,0,1,2.95,2.14Zm3.36,10.93a.43.43,0,0,1-.45.14,14.12,14.12,0,0,1-2.93,3.51,9.19,9.19,0,0,0-1.26-1,11.25,11.25,0,0,0,2.73-3.41Zm-1.62-13.54,5.77.44-1,12.46-5.78-.45Zm1.43,1.71-.16,2.08,2.6.2.16-2.07Zm-.27,3.57-.17,2.09,2.6.21.17-2.1Zm-.28,3.58-.16,2.11,2.6.21.16-2.12Zm3.29,8.08A20.91,20.91,0,0,0,537,414l1.41-.7a22.38,22.38,0,0,1,1.9,3Zm2.76-15.23,2,.28c0,.15-.16.25-.45.27l-.84,10.78-1.59-.12Zm3.47-1.74,2.11.28c0,.17-.16.26-.47.27l-1.19,15.44c-.15,1.93-1,2.1-4.13,1.85a7.67,7.67,0,0,0-.41-1.79l1.71.17c1,.08,1.12.08,1.15-.34Z" transform="translate(0 -271.11)"/><path class="cls-3" d="M549.45,412.82c-.21,1.75-.52,3.59-1.34,4.63l-.92-.62a9.51,9.51,0,0,0,1.24-4.28Zm5.33-2.28.81.12c0,.14-.05.33-.06.5-.56,5-.85,6.7-1.35,7.24s-.85.61-2.77.41a3.86,3.86,0,0,0-.25-1.44c.57.1,1.07.14,1.32.16.67.05.78-.54,1-2.26l-.58.17a11.27,11.27,0,0,0-.8-2.62l.77-.19a12.61,12.61,0,0,1,.7,1.95h0c.09-.71.2-1.59.32-2.65l-3.87-.3,0,.56-1.45-.11.84-10.84,6.62.51-.11,1.47L553.7,403l-.12,1.52,1.89.15-.11,1.39-1.89-.15-.12,1.54,1.95.15-.11,1.39-1.94-.15-.12,1.56,1.32.1Zm-5.13,6.08c0-.21.05-.44.07-.72a19.49,19.49,0,0,0,0-2.86l.87,0a20.88,20.88,0,0,1,0,3.56Zm2.64-13.69-1.52-.11-.12,1.52,1.52.11Zm-.34,4.45.12-1.54-1.52-.12-.12,1.54Zm-1.63,1.27-.12,1.56,1.52.12.12-1.56Zm1.44,4.22a13.17,13.17,0,0,1,.47,3.19l-.86.11a14.36,14.36,0,0,0-.43-3.21Zm6.55-5.64.1-1.25a12.74,12.74,0,0,1-2.22,1.44,7.66,7.66,0,0,0-.75-1.55,12.44,12.44,0,0,0,5-4.49l2.07.23a.42.42,0,0,1-.33.25,13.27,13.27,0,0,0,4.41,4.68,9.94,9.94,0,0,0-1.09,1.54,16.14,16.14,0,0,1-1.87-1.63l-.09,1.19Zm.94,6.47c0,.15-.18.22-.39.22a12.33,12.33,0,0,1-.45,1.53,15.36,15.36,0,0,1,1.6,1.95l-1.16.86a15.53,15.53,0,0,0-1.06-1.48,5.93,5.93,0,0,1-2.26,2.34,7.85,7.85,0,0,0-.94-1.1c1.52-.81,2.41-2.52,2.83-4.7Zm-3.19-.93.36-4.62,4,.32-.35,4.62Zm1.5-3.31-.17,2.21,1.5.12.17-2.21Zm5.9-3.22a14,14,0,0,1-2.27-3.16,12.51,12.51,0,0,1-2.62,2.78Zm.78,13.52a21.61,21.61,0,0,0-1.69-2.47,5.75,5.75,0,0,1-2.18,2.17,7.28,7.28,0,0,0-1-1.12c1.53-.79,2.44-2.51,2.88-4.66l1.85.38c0,.15-.17.21-.41.23a11.09,11.09,0,0,1-.49,1.63,25.11,25.11,0,0,1,2.26,3ZM561,413.15l.36-4.62,4.18.32-.36,4.63Zm1.52-3.31-.17,2.21,1.62.13.17-2.21Z" transform="translate(0 -271.11)"/><path class="cls-3" d="M573.64,407l-1,13.43-6.45-.49.1-1.33,5.12.39.94-12.11Z" transform="translate(0 -271.11)"/></svg>