<svg id="6c1544bb-9860-4103-951f-54a047cc625e" data-name="圖層 1" xmlns="http://www.w3.org/2000/svg" viewBox="0 0 612.39 143.98"><defs><style>.e742cf7f-d199-46e7-8c9e-ae7c84132c7f{fill:#f08b68;}.\31 9b9c4ca-03c9-4e01-adc8-4acec441366d{fill:#2455a5;}</style></defs><title>07_1_2</title><polygon class="e742cf7f-d199-46e7-8c9e-ae7c84132c7f" points="612.39 0 0 24.92 0 143.98 612.39 119.06 612.39 0"/><path class="19b9c4ca-03c9-4e01-adc8-4acec441366d" d="M80.74,413.7a2,2,0,0,1,.45,1.11A2,2,0,0,1,80.8,416l-1.28,2a.7.7,0,0,1-.69.35.74.74,0,0,1-.68-.45c-.27-.58-.65-1.38-1.15-2.4a.09.09,0,0,0-.06,0s0,0,0,0l.63,14.91a1.35,1.35,0,0,1-.38,1,1.4,1.4,0,0,1-1,.47l-2.52.1a1.32,1.32,0,0,1-1-.38,1.35,1.35,0,0,1-.44-1l-.5-11.83a0,0,0,0,0,0,0s0,0,0,.05a32.28,32.28,0,0,1-2,5,.67.67,0,0,1-.65.35.77.77,0,0,1-.64-.42c-.38-.79-.86-1.68-1.43-2.67a2.26,2.26,0,0,1-.37-1.11,2.61,2.61,0,0,1,.35-1.34,37.2,37.2,0,0,0,3.85-11.6c0-.11,0-.16-.13-.16l-2.53.11a1.43,1.43,0,0,1-1-.38,1.41,1.41,0,0,1-.46-1L66.44,403a1.38,1.38,0,0,1,.38-1,1.41,1.41,0,0,1,1-.47l2.93-.12c.13,0,.2-.06.19-.17l-.28-6.69a1.4,1.4,0,0,1,.36-1,1.29,1.29,0,0,1,1-.46l2.53-.11a1.44,1.44,0,0,1,1.5,1.38l.28,6.7c0,.11.06.16.17.15l2.37-.1a1,1,0,0,1,1.08,1,.07.07,0,0,0,0,.06.06.06,0,0,0,.08,0,27.7,27.7,0,0,0,4.28-3.92,31.42,31.42,0,0,0,3.44-4.6,2.52,2.52,0,0,1,2.15-1.29l2.61-.11a2.8,2.8,0,0,1,2.33,1.06,29.74,29.74,0,0,0,9.23,7.57,1.09,1.09,0,0,1,.64.73,1.25,1.25,0,0,1,0,.32,1.12,1.12,0,0,1-.21.69,28.5,28.5,0,0,0-1.64,3,1.43,1.43,0,0,1-.84.69,1.19,1.19,0,0,1-1-.14,27.12,27.12,0,0,1-2.65-1.85c-.08-.05-.12,0-.11.08l0,.52a1.36,1.36,0,0,1-.38,1,1.38,1.38,0,0,1-1,.47l-9.75.41a1.45,1.45,0,0,1-1.5-1.39l0-.4a.07.07,0,0,0,0-.06s0,0-.08,0c-.93.84-1.86,1.62-2.79,2.32a1.26,1.26,0,0,1-1,.17,1.39,1.39,0,0,1-.85-.61,12.38,12.38,0,0,0-.77-1.21s0,0,0,0,0,0,0,0a.91.91,0,0,1-.25.69.92.92,0,0,1-.67.31l-2.45.1a.15.15,0,0,0-.15.17l0,1a.73.73,0,0,0,.09.32Q77.85,409.57,80.74,413.7Zm15,5.84a1.57,1.57,0,0,1,.6-1,1.32,1.32,0,0,1,.75-.27h.28l2.47.38a1.2,1.2,0,0,1,.94.54,1.38,1.38,0,0,1,.25,1c-.11.57-.25,1.15-.41,1.75a.19.19,0,0,0,.09.27q3.06,2.2,4.56,3.51a1.29,1.29,0,0,1,.49,1,1.45,1.45,0,0,1-.4,1.06l-1.73,1.92a1.22,1.22,0,0,1-.94.42,1.37,1.37,0,0,1-1-.38,37.44,37.44,0,0,0-3.09-2.72c-.08-.08-.15-.06-.2.05a12.44,12.44,0,0,1-2.88,3.13,1.31,1.31,0,0,1-1,.25,1.58,1.58,0,0,1-1-.57,22.3,22.3,0,0,0-2.27-2.35.15.15,0,0,0-.24,0l-.76.83a1.1,1.1,0,0,1-.93.38,1.35,1.35,0,0,1-.93-.46c-.28-.31-.58-.63-.92-1a.15.15,0,0,0-.24,0,14.06,14.06,0,0,1-3.42,3.71,1.32,1.32,0,0,1-.75.27,1.15,1.15,0,0,1-.32,0,1.7,1.7,0,0,1-1-.6,18.76,18.76,0,0,0-1.64-1.7,1.15,1.15,0,0,1-.31-.75,1.13,1.13,0,0,1,.44-1,12.05,12.05,0,0,0,4.27-7.41,1.54,1.54,0,0,1,.6-.91,1.37,1.37,0,0,1,.75-.27,1,1,0,0,1,.29,0l2.62.42a1.35,1.35,0,0,1,.91.58,1.26,1.26,0,0,1,.21,1.06c-.17.59-.34,1.23-.53,1.91a.26.26,0,0,0,.1.27c1,.79,1.76,1.5,2.37,2.11a1,1,0,0,1,.32.77,1.4,1.4,0,0,1-.29.76v0A11,11,0,0,0,95.73,419.54Zm-3.67-3a1.37,1.37,0,0,1-.37,1,1.44,1.44,0,0,1-1,.47l-7.53.31a1.29,1.29,0,0,1-1-.38,1.43,1.43,0,0,1-.45-1l-.3-7.22a1.37,1.37,0,0,1,1.34-1.46l7.54-.32a1.49,1.49,0,0,1,1,.36,1.31,1.31,0,0,1,.46,1ZM85.93,412c-.13,0-.19.06-.19.17l.08,1.92q0,.17.21.15l1.28,0c.11,0,.16-.06.15-.17l-.08-1.92c0-.11-.06-.16-.16-.15ZM88.36,402s0,0,0,.08a.05.05,0,0,0,.06,0l7-.3a.05.05,0,0,0,.06,0,.07.07,0,0,0,0-.08,33.34,33.34,0,0,1-3.7-4,.16.16,0,0,0-.12,0c-.06,0-.1,0-.12,0A32.24,32.24,0,0,1,88.36,402Zm6.41,15.87a1.37,1.37,0,0,1-1-.37,1.39,1.39,0,0,1-.46-1L93,409.26a1.34,1.34,0,0,1,.38-1,1.46,1.46,0,0,1,1-.45l7.82-.32a1.45,1.45,0,0,1,1,.35,1.36,1.36,0,0,1,.46,1L104,416a1.45,1.45,0,0,1-1.38,1.51Zm2.83-6.3c-.11,0-.16.06-.15.17l.08,1.92a.14.14,0,0,0,.16.16l1.41-.06c.13,0,.19-.06.19-.17l-.08-1.93c0-.1-.07-.15-.21-.15Z" transform="translate(0 -330.99)"/><path class="19b9c4ca-03c9-4e01-adc8-4acec441366d" d="M140.88,423.79l.76,0c.24,0,.41-.2.5-.56a13.13,13.13,0,0,0,.14-2.44.72.72,0,0,1,.39-.68.8.8,0,0,1,.82,0,14.41,14.41,0,0,0,2.21.79,2,2,0,0,1,1,.68,1.76,1.76,0,0,1,.32.91v.2a9.34,9.34,0,0,1-1.33,4.7,4,4,0,0,1-3.16,1.39l-2.4.11q-2.93.12-3.93-1.17T135,422.79l-.28-6.65a.18.18,0,0,0-.21-.19l-1,0c-.11,0-.18.07-.2.21a26.74,26.74,0,0,1-.52,3.91,15.8,15.8,0,0,1-1.16,3.41,11,11,0,0,1-2.22,3.12A15.62,15.62,0,0,1,126,429.2a1.35,1.35,0,0,1-1.1.12,1.62,1.62,0,0,1-.89-.68,15.63,15.63,0,0,0-1.79-2.3.93.93,0,0,1-.25-.85.89.89,0,0,1,.51-.72,8.86,8.86,0,0,0,3.87-3.42,12.54,12.54,0,0,0,1.36-4.92c0-.13-.06-.19-.17-.19l-.68,0a1.4,1.4,0,0,1-1-.36,1.33,1.33,0,0,1-.46-1l0-1.05s0,0-.05,0h-.08l-2.41,3.63a1,1,0,0,1-.81.44,1,1,0,0,1-.84-.41q-.85-1.12-1.95-2.4s0,0-.06,0-.06,0-.06.06l.57,13.55a1.34,1.34,0,0,1-.36,1,1.31,1.31,0,0,1-1,.44l-3,.13a1.49,1.49,0,0,1-1-.36,1.36,1.36,0,0,1-.46-1l-.48-11.38a.05.05,0,0,0,0-.06.08.08,0,0,0-.08,0,23.81,23.81,0,0,1-2.44,2.15,1,1,0,0,1-.94.18,1.12,1.12,0,0,1-.73-.63,26.75,26.75,0,0,0-1.61-3.1,1.76,1.76,0,0,1-.19-.72,1.4,1.4,0,0,1,0-.36,1.36,1.36,0,0,1,.61-.91,26.39,26.39,0,0,0,4.63-4.39,28.88,28.88,0,0,0,3.67-5.51c.05-.11,0-.17-.09-.16l-6.9.29a1.43,1.43,0,0,1-1-.38,1.37,1.37,0,0,1-.46-1l-.1-2.52a1.33,1.33,0,0,1,.38-1,1.37,1.37,0,0,1,1-.46l3.37-.15c.1,0,.16-.07.15-.2l-.25-5.9a1.32,1.32,0,0,1,.38-1,1.46,1.46,0,0,1,1-.45l3-.12a1.39,1.39,0,0,1,1.47,1.34l.24,5.89a.19.19,0,0,0,.21.2l.44,0a1,1,0,0,0,.24-.05,1.85,1.85,0,0,1,.44-.06,2,2,0,0,1,1.18.31l1.4.83a1.67,1.67,0,0,1,.76.89,1.6,1.6,0,0,1,0,1.16,38.62,38.62,0,0,1-3.13,6.92.22.22,0,0,0,.06.28c1.66,1.29,3.39,2.78,5.2,4.44l.08,0a.08.08,0,0,0,0-.07l-.8-19a1.32,1.32,0,0,1,.38-1,1.38,1.38,0,0,1,1-.44l15.92-.67a1.44,1.44,0,0,1,1,.36,1.35,1.35,0,0,1,.46,1l.87,20.72a1.32,1.32,0,0,1-.38,1,1.35,1.35,0,0,1-1,.44l-2.49.11c-.11,0-.16.07-.15.2l.27,6.58a6.69,6.69,0,0,0,.11,1.12Q140.57,423.81,140.88,423.79Zm-10.67-26.58c-.14,0-.2.08-.19.21l.06,1.45c0,.1.07.15.2.15l7.26-.31c.13,0,.2-.06.19-.17l-.06-1.44a.17.17,0,0,0-.21-.19Zm.26,6.18c-.14,0-.2.06-.2.17l.07,1.52c0,.11.07.16.2.15l7.26-.3c.13,0,.2-.06.19-.17l-.06-1.53q0-.15-.21-.15Zm.26,6.21c-.14,0-.2.06-.2.17l.07,1.48c0,.14.07.2.2.19l7.26-.3a.17.17,0,0,0,.19-.21l-.06-1.48q0-.17-.21-.15Z" transform="translate(0 -330.99)"/><path class="19b9c4ca-03c9-4e01-adc8-4acec441366d" d="M169.07,393.06c0,.1,0,.16.12.15l12.11-.51a1.37,1.37,0,0,1,1,.38,1.34,1.34,0,0,1,.46,1l1.3,30.86a1.4,1.4,0,0,1-.38,1,1.35,1.35,0,0,1-1,.47l-3.52.14a1.43,1.43,0,0,1-1.51-1.38v-.32c0-.11-.06-.16-.17-.15l-17.88.75c-.13,0-.2.06-.19.17V426a1.39,1.39,0,0,1-.38,1,1.35,1.35,0,0,1-1,.46l-3.21.13a1.44,1.44,0,0,1-1.5-1.38l-1.29-30.87a1.33,1.33,0,0,1,.38-1,1.39,1.39,0,0,1,1-.46l9-.38a.18.18,0,0,0,.19-.17c.24-1.4.41-2.64.53-3.71a1.6,1.6,0,0,1,.48-1,1.39,1.39,0,0,1,.87-.35.23.23,0,0,1,.16,0l4.51.25a1.09,1.09,0,0,1,.82.51,1,1,0,0,1,.12.94C169.88,390.76,169.52,391.78,169.07,393.06Zm7.51,5.74c0-.13-.07-.19-.17-.19l-17.88.75a.18.18,0,0,0-.19.21l.11,2.8c0,.11.08.16.21.16l17.88-.75c.11,0,.16-.06.15-.17Zm.36,8.66c0-.13-.06-.2-.17-.19l-17.88.75a.17.17,0,0,0-.19.21l.12,2.8c0,.14.07.2.21.2l17.88-.75q.15,0,.15-.21Zm-17.76,12.31c0,.14.08.2.21.19l17.88-.75c.11,0,.16-.07.15-.2l-.12-2.89c0-.11-.06-.16-.16-.15l-17.88.75c-.14,0-.2.06-.2.17Z" transform="translate(0 -330.99)"/><path class="19b9c4ca-03c9-4e01-adc8-4acec441366d" d="M205.81,418.86l11.7-.49c2-.08,3.24-.52,3.76-1.32a10.75,10.75,0,0,0,.95-4.22.93.93,0,0,1,.49-.72,1,1,0,0,1,.88-.06,17.4,17.4,0,0,0,3.43,1.18,1.78,1.78,0,0,1,1,.61,1.47,1.47,0,0,1,.31.83.5.5,0,0,1,0,.24c-.39,3.39-1.19,5.72-2.39,7q-2.09,2.16-7.93,2.42l-12.07.5q-6.37.27-8.79-1.36c-1.61-1.08-2.49-3.27-2.63-6.55l-.55-13.15a1.37,1.37,0,0,1,.38-1,1.34,1.34,0,0,1,1-.46l21.32-.9c.11,0,.16-.07.16-.2l-.28-6.58a.14.14,0,0,0-.17-.15l-21.8.91a1.32,1.32,0,0,1-1-.38,1.38,1.38,0,0,1-.47-1l-.14-3.29a1.37,1.37,0,0,1,.38-1,1.34,1.34,0,0,1,1-.46l26.86-1.13a1.43,1.43,0,0,1,1,.38,1.37,1.37,0,0,1,.46,1l.77,18.36a1.35,1.35,0,0,1-.38,1,1.4,1.4,0,0,1-1,.47l-3.44.14a1.38,1.38,0,0,1-1-.38,1.31,1.31,0,0,1-.47-1l0-.64c0-.11-.06-.16-.17-.15l-16.36.68a.15.15,0,0,0-.15.17l.35,8.42c.05,1.09.37,1.77.95,2A12.49,12.49,0,0,0,205.81,418.86Z" transform="translate(0 -330.99)"/><path class="19b9c4ca-03c9-4e01-adc8-4acec441366d" d="M256.74,391.39c-.05.11,0,.16.13.15l9.58-.4a1.38,1.38,0,0,1,1,.38,1.33,1.33,0,0,1,.46,1c0,.43,0,.83,0,1.21q.21,14.44-.06,20T266.46,421a5.93,5.93,0,0,1-1.79,1.86,8.33,8.33,0,0,1-2.43.93,22.73,22.73,0,0,1-3.72.39q-.72,0-1.53,0a1.51,1.51,0,0,1-1-.38,1.85,1.85,0,0,1-.62-1,14.74,14.74,0,0,0-1.22-3.08.77.77,0,0,1,0-.79.67.67,0,0,1,.67-.36c1.39,0,3,0,4.77-.08a2.42,2.42,0,0,0,1.78-.8q.84-1,1.08-5.73c.17-3.15.18-8.17.06-15,0-.13,0-.2-.17-.19l-7.42.31a.28.28,0,0,0-.27.17,44.43,44.43,0,0,1-2.41,4.88,1.24,1.24,0,0,1-.86.6,1.22,1.22,0,0,1-1-.24c-.75-.51-1.47-1-2.19-1.44-.11-.07-.16,0-.16.09l.75,17.92a1.37,1.37,0,0,1-.37,1,1.34,1.34,0,0,1-1,.46l-9.18.39a.14.14,0,0,0-.15.16l.05,1.33a1.42,1.42,0,0,1-1.38,1.5l-2.52.11a1.34,1.34,0,0,1-1-.38,1.46,1.46,0,0,1-.45-1l-1.18-28.18a1.4,1.4,0,0,1,.36-1,1.33,1.33,0,0,1,1-.46l3.09-.13a.18.18,0,0,0,.19-.17,49.32,49.32,0,0,0,.55-5.12,1.28,1.28,0,0,1,.48-1,1.33,1.33,0,0,1,.79-.31h.2l3.71.37a1.17,1.17,0,0,1,.89.52,1.09,1.09,0,0,1,.14,1c-.59,1.95-1,3.39-1.34,4.31-.05.11,0,.16.12.16l4.49-.19a1.35,1.35,0,0,1,1,.38,1.42,1.42,0,0,1,.47,1l.16,3.84a.05.05,0,0,0,0,.06s0,0,0,0a43,43,0,0,0,4-10.69,1.52,1.52,0,0,1,.62-.91,1.23,1.23,0,0,1,1.06-.2l3,.55a1.34,1.34,0,0,1,.87.63,1.26,1.26,0,0,1,.17,1C257.44,389.08,257.12,390.19,256.74,391.39ZM242.5,403.31a.19.19,0,0,0,.2-.21l-.22-5.17a.18.18,0,0,0-.21-.19l-5,.21c-.11,0-.16.07-.15.2l.21,5.18c0,.13.07.19.17.19Zm-4.66,12.2c0,.14.06.2.16.2l5-.22a.18.18,0,0,0,.2-.2l-.28-6.7c0-.1-.08-.16-.21-.15l-5,.21c-.11,0-.16.06-.16.17Zm23.06-6.35a1.56,1.56,0,0,1,.23.72.93.93,0,0,1-.06.4,1.49,1.49,0,0,1-.65.91l-2.54,1.71a1.35,1.35,0,0,1-.63.19,1.4,1.4,0,0,1-.36,0,1.2,1.2,0,0,1-.83-.65c-.84-1.52-2.29-3.81-4.35-6.89a1.49,1.49,0,0,1-.23-.71,2.38,2.38,0,0,1,0-.36,1.32,1.32,0,0,1,.64-.87l2.12-1.34A1.53,1.53,0,0,1,255,402l.36,0a1.54,1.54,0,0,1,.95.6Q259.71,407.29,260.9,409.16Z" transform="translate(0 -330.99)"/><path class="19b9c4ca-03c9-4e01-adc8-4acec441366d" d="M300.69,416.57l3.16-.13a1.1,1.1,0,0,0,1.08-.67,8.56,8.56,0,0,0,.31-2.68.83.83,0,0,1,.43-.72.93.93,0,0,1,.86-.06,18.69,18.69,0,0,0,2.77,1,1.88,1.88,0,0,1,1,.68,1.53,1.53,0,0,1,.31.87.5.5,0,0,1,0,.24q-.36,3.72-1.67,5.13a5.88,5.88,0,0,1-4.23,1.55L300,422q-3.93.16-5.33-1.24t-1.57-5.34l-.3-7c0-.11-.07-.16-.2-.15l-3.93.16c-.14,0-.2.06-.2.17a27.53,27.53,0,0,1-.5,3.76,15.65,15.65,0,0,1-1.15,3.3,11,11,0,0,1-2,3,16.79,16.79,0,0,1-3.27,2.48,26,26,0,0,1-4.75,2.17,1.54,1.54,0,0,1-.44.1,1.23,1.23,0,0,1-.69-.18,1.62,1.62,0,0,1-.87-.76,21,21,0,0,0-2.05-2.93.74.74,0,0,1-.22-.51,1.13,1.13,0,0,1,0-.32.77.77,0,0,1,.58-.55,24.22,24.22,0,0,0,4.45-1.73,7.9,7.9,0,0,0,2.66-2.18,8.44,8.44,0,0,0,1.26-2.4,13.13,13.13,0,0,0,.48-2.94c0-.1,0-.16-.17-.15l-7.69.32a1.43,1.43,0,0,1-1.51-1.38l-.11-2.73a1.39,1.39,0,0,1,.38-1,1.4,1.4,0,0,1,1-.46L308,402a1.35,1.35,0,0,1,1,.38,1.38,1.38,0,0,1,.47,1l.11,2.73a1.38,1.38,0,0,1-.38,1,1.35,1.35,0,0,1-1,.46L299,408c-.11,0-.16.06-.15.17l.29,6.93c0,.7.13,1.13.31,1.29A1.85,1.85,0,0,0,300.69,416.57Zm-21.8-22.86c-.14,0-.2.06-.2.17l.14,3.17a1.42,1.42,0,0,1-.38,1,1.37,1.37,0,0,1-1,.46l-3.24.14a1.33,1.33,0,0,1-1-.38,1.46,1.46,0,0,1-.45-1l-.31-7.53a1.36,1.36,0,0,1,.35-1,1.39,1.39,0,0,1,1-.45l12.95-.54q.17,0,.15-.21l-.09-2.08a1.35,1.35,0,0,1,.38-1,1.41,1.41,0,0,1,1-.44l3.53-.15a1.38,1.38,0,0,1,1,.36,1.3,1.3,0,0,1,.47,1l.08,2.09c0,.13.07.19.17.19l13.15-.55a1.34,1.34,0,0,1,1,.36,1.31,1.31,0,0,1,.44,1l.32,7.54a1.4,1.4,0,0,1-.36,1,1.33,1.33,0,0,1-1,.46l-3.57.15a1.32,1.32,0,0,1-1-.38,1.39,1.39,0,0,1-.44-1l-.14-3.16c0-.11-.07-.16-.2-.15ZM301,398.89a1.32,1.32,0,0,1-.38,1,1.44,1.44,0,0,1-1,.45l-17.87.74a1.34,1.34,0,0,1-1-.36,1.3,1.3,0,0,1-.47-1l-.1-2.53a1.35,1.35,0,0,1,.38-1,1.33,1.33,0,0,1,1-.47l17.88-.75a1.42,1.42,0,0,1,1,.38,1.39,1.39,0,0,1,.46,1Z" transform="translate(0 -330.99)"/><path class="19b9c4ca-03c9-4e01-adc8-4acec441366d" d="M342.36,396.19a1.63,1.63,0,0,1,.68-.89,1.49,1.49,0,0,1,1.08-.23l3.28.67a1.2,1.2,0,0,1,.87.59,1.33,1.33,0,0,1,.16,1.05,52.28,52.28,0,0,1-6,13.14.35.35,0,0,0,0,.33c1,2.31,2,3.45,3,3.4q1.1,0,1.21-5.71A.58.58,0,0,1,347,408a.71.71,0,0,1,.72.05,15.35,15.35,0,0,0,2.77,1.73,2.35,2.35,0,0,1,.92.85,1.65,1.65,0,0,1,.27.87,2.44,2.44,0,0,1,0,.28,18.48,18.48,0,0,1-1.14,5.23,5.21,5.21,0,0,1-2,2.58,7.63,7.63,0,0,1-3.36.78c-2.54.11-4.8-1.33-6.77-4.3-.08-.1-.16-.1-.24,0a34.69,34.69,0,0,1-4.6,4.13,1.34,1.34,0,0,1-1.06.31,1.43,1.43,0,0,1-1-.54c-.82-.93-1.67-1.83-2.57-2.71a1,1,0,0,1-.35-.89,1,1,0,0,1,.48-.8,28.79,28.79,0,0,0,6.23-5.64.34.34,0,0,0,.07-.33,78.68,78.68,0,0,1-3.35-15.68c0-.13-.1-.19-.21-.19l-10.34.43q-.17,0-.15.21l.15,3.53c0,.13.06.2.17.19l8.45-.35a1.39,1.39,0,0,1,1.47,1.34c0,.3,0,.52,0,.68q.17,6.7.05,9.62a8.28,8.28,0,0,1-.8,3.91,4.9,4.9,0,0,1-3,2,21.34,21.34,0,0,1-3.28.38,1.48,1.48,0,0,1-1.06-.36,1.76,1.76,0,0,1-.6-1,12.14,12.14,0,0,0-1.41-3.79.09.09,0,0,0-.08,0,0,0,0,0,0,0,0,30.91,30.91,0,0,1-2.6,10.63,1,1,0,0,1-.78.56.58.58,0,0,1-.16.05,1.12,1.12,0,0,1-.82-.33,25.66,25.66,0,0,0-2.94-2.21,1.51,1.51,0,0,1-.68-.85,4.16,4.16,0,0,1-.06-.44,1.79,1.79,0,0,1,.13-.69,21.1,21.1,0,0,0,1.46-5.4,40.25,40.25,0,0,0,.5-5.46c0-1.54,0-3.37-.11-5.48l-.46-10.9a1.32,1.32,0,0,1,.38-1,1.38,1.38,0,0,1,1-.47l15-.63c.1,0,.16-.07.15-.2-.11-1.34-.21-2.69-.29-4.05a1.32,1.32,0,0,1,.38-1,1.39,1.39,0,0,1,1-.44l3.45-.14a1.37,1.37,0,0,1,1,.35,1.35,1.35,0,0,1,.44,1c0,.32,0,.63,0,.92.05,1.1.1,2.14.17,3.13,0,.13.1.19.21.19l4.29-.18a.07.07,0,0,0,.06,0,.08.08,0,0,0,0-.08c-.89-.61-1.84-1.22-2.85-1.85a1.09,1.09,0,0,1-.54-.8,1.19,1.19,0,0,1,.26-1l1.54-1.63a1.83,1.83,0,0,1,1.06-.56,1.06,1.06,0,0,1,.28-.06,1.84,1.84,0,0,1,.89.21,40.46,40.46,0,0,1,4.2,2.51,1.21,1.21,0,0,1,.5.93,1.26,1.26,0,0,1-.33,1l-.88,1s0,0,0,.07a.06.06,0,0,0,.06.05l2.77-.11a1.44,1.44,0,0,1,1.46,1.34l.13,3.05a1.44,1.44,0,0,1-1.35,1.46l-10.94.46q-.17,0-.15.21a83.36,83.36,0,0,0,1.66,9,.05.05,0,0,0,0,.06.07.07,0,0,0,.08,0A43.31,43.31,0,0,0,342.36,396.19Zm-16.44,7.28c0-.11-.06-.16-.17-.16l-3.89.17a.14.14,0,0,0-.15.16c0,2.2-.1,4.3-.26,6.32,0,.13.06.2.17.19a26.69,26.69,0,0,0,2.77.05,1.5,1.5,0,0,0,1.22-.62C325.91,409.12,326,407.08,325.92,403.47Z" transform="translate(0 -330.99)"/><path class="19b9c4ca-03c9-4e01-adc8-4acec441366d" d="M374.72,404.71a1.42,1.42,0,0,1,1,.38,1.34,1.34,0,0,1,.46,1l0,.76c0,.11.06.16.16.15l14.15-.59a1.45,1.45,0,0,1,1.51,1.38l.11,2.65a1.35,1.35,0,0,1-.38,1,1.45,1.45,0,0,1-1,.44l-14.15.59q-.15,0-.15.21l.22,5.17a1.35,1.35,0,0,1-.38,1,1.44,1.44,0,0,1-1,.47l-3.28.13a1.41,1.41,0,0,1-1-.37,1.35,1.35,0,0,1-.47-1l-.21-5.17c0-.13-.06-.2-.17-.19l-13.83.58a1.49,1.49,0,0,1-1-.36,1.33,1.33,0,0,1-.46-1l-.11-2.64a1.37,1.37,0,0,1,.37-1,1.44,1.44,0,0,1,1-.47l13.83-.58c.11,0,.16-.05.15-.16l-.08-1.93a.14.14,0,0,0-.17-.15l-3.87.44a1.52,1.52,0,0,1-1.08-.27,1.58,1.58,0,0,1-.62-.94l-.25-1.07c0-.14-.06-.18-.16-.12-1.65.9-3.58,1.91-5.78,3a1.56,1.56,0,0,1-1.14.11,1.39,1.39,0,0,1-.89-.66l-1.46-2.31a1,1,0,0,1-.19-.56,1.16,1.16,0,0,1,.07-.4,1.09,1.09,0,0,1,.69-.71q2.57-1,7.59-3a1.27,1.27,0,0,1,1.06,0,1.17,1.17,0,0,1,.66.79l.37,1.31a.21.21,0,0,0,.25.15l2.16-.17a.49.49,0,0,0,.32-.13c.33-.34.82-.85,1.46-1.55.07-.08.06-.16,0-.24q-2.4-1.71-4.88-3.21a.26.26,0,0,0-.32,0l-1.89,1.73a1.52,1.52,0,0,1-1,.38,1.72,1.72,0,0,1-1.1-.37,32.15,32.15,0,0,0-3.93-2.65.93.93,0,0,1-.49-.78,1,1,0,0,1,.35-.86l1.66-1.47a2.27,2.27,0,0,1,1.14-.51,2,2,0,0,1,1.22.21,41.65,41.65,0,0,1,4.53,2.78.15.15,0,0,0,.24,0l1.14-1.57a1,1,0,0,1,.61-.37,1,1,0,0,1,.7.11c.09,0,.14,0,.16-.05.33-.55.73-1.3,1.19-2.26.08-.11.05-.16-.08-.15l-11.43.48a1.41,1.41,0,0,1-1-.38,1.43,1.43,0,0,1-.46-1l-.11-2.52a1.4,1.4,0,0,1,1.35-1.46l12.42-.53c.11,0,.16-.07.16-.2l-.09-2a1.32,1.32,0,0,1,.38-1,1.45,1.45,0,0,1,1-.44l3.28-.14a1.4,1.4,0,0,1,1,.36,1.35,1.35,0,0,1,.47,1l.08,2c0,.13.06.2.17.19l12.83-.54a1.45,1.45,0,0,1,1,.36,1.36,1.36,0,0,1,.46,1l.1,2.52a1.39,1.39,0,0,1-.37,1,1.35,1.35,0,0,1-1,.47l-15,.62h0a.47.47,0,0,1,.33.3.46.46,0,0,1-.06.45q-1.86,2.52-3,4c-.08.11-.06.19,0,.24s.55.36,1.15.79c.11.05.19,0,.24-.05.89-1.13,1.7-2.23,2.44-3.27a1.72,1.72,0,0,1,.93-.69,1.74,1.74,0,0,1,1.17,0l2,.79a1.1,1.1,0,0,1,.63.72,1,1,0,0,1-.2.91c-1.1,1.33-2.32,2.74-3.68,4.21,0,0,0,0,0,0s0,0,.06,0l2.13-1a1.72,1.72,0,0,1,1.16-.13,1.67,1.67,0,0,1,1,.64c.42.6.78,1.12,1.07,1.56.06.11.12.12.2,0l1.36-1.18a2.08,2.08,0,0,1,1.3-.53,2.33,2.33,0,0,1,1.09.23,57.53,57.53,0,0,1,6,3.33,1,1,0,0,1,.48.84,1.15,1.15,0,0,1-.36.92l-2.05,1.81a1.82,1.82,0,0,1-1.07.41,1.66,1.66,0,0,1-1.1-.36,43.9,43.9,0,0,0-4-2.52s0,0,0,0a.05.05,0,0,0,0,.06l.18.36a1.32,1.32,0,0,1,0,1.1,1.59,1.59,0,0,1-.81.85l-1.81.88a1.19,1.19,0,0,1-1,.05,1.22,1.22,0,0,1-.71-.73c-.06-.14-.12-.28-.18-.44a.2.2,0,0,0-.25-.11q-4.71.55-7,.86v0Zm-1.2-4.72a.06.06,0,0,0,0,.08s0,0,.06,0l2.28-.21c.14,0,.18-.06.12-.17q-.43-.66-.81-1.17c-.09-.1-.17-.11-.25,0s-.38.41-.69.73ZM386,395.73a2.16,2.16,0,0,1-1.3.53,2.39,2.39,0,0,1-1.1-.23l-1.88-.89a1,1,0,0,1-.27-1.55,38.38,38.38,0,0,0,3-3.34,2.13,2.13,0,0,1,1-.68l.44-.06a1.84,1.84,0,0,1,.77.13l2.82,1.17a.93.93,0,0,1,.6.85.88.88,0,0,1-.3.7Q387.82,394.2,386,395.73Z" transform="translate(0 -330.99)"/><path class="19b9c4ca-03c9-4e01-adc8-4acec441366d" d="M425.94,389.84a3,3,0,0,1,.72-.11,3.18,3.18,0,0,1,1.13.15l2,.68a1.77,1.77,0,0,1,.89.75,1.45,1.45,0,0,1,.19,1.13,34.59,34.59,0,0,1-6.67,15.14c-.08.11-.06.19,0,.24a35.81,35.81,0,0,0,8.87,2.92.86.86,0,0,1,.63.54,1.08,1.08,0,0,1,.05.28.79.79,0,0,1-.18.53,28.8,28.8,0,0,0-2.41,3.67,1.92,1.92,0,0,1-.85.84,1.48,1.48,0,0,1-.68.19,1.32,1.32,0,0,1-.48-.06,34.93,34.93,0,0,1-10-4,.19.19,0,0,0-.28,0,37.92,37.92,0,0,1-8,4.6,1.55,1.55,0,0,1-1.12,0,1.61,1.61,0,0,1-.88-.7,27.13,27.13,0,0,0-2-2.89.88.88,0,0,1-.22-.85.92.92,0,0,1,.59-.65,29.64,29.64,0,0,0,6.64-3.49c.11-.06.12-.13,0-.2a32.9,32.9,0,0,1-5.62-7.44.08.08,0,0,0-.08,0l-.07.07a29.35,29.35,0,0,1-7.66,15.58,1.05,1.05,0,0,1-.93.36,1.36,1.36,0,0,1-.93-.52,28.45,28.45,0,0,0-2.61-2.91,1.26,1.26,0,0,1-.4-.9,1.21,1.21,0,0,1,.36-1q7.39-7.5,6.77-22.49l-.09-2.17a.18.18,0,0,0-.21-.19l-4.57.19a1.44,1.44,0,0,1-1.46-1.34l-.13-3a1.32,1.32,0,0,1,.38-1,1.35,1.35,0,0,1,1-.44l19.36-.81a1,1,0,0,0,.24-.05,4.62,4.62,0,0,1,1-.17,4.41,4.41,0,0,1,.81.05l2.34.26a1.33,1.33,0,0,1,1,.52,1.28,1.28,0,0,1,.27,1c-.28,2.21-.7,4.77-1.24,7.68,0,.11,0,.16.16.15l4.21-.17Zm-10.46-3.26c0-.11,0-.16-.12-.15l-6.46.27c-.13,0-.19.07-.19.21l.06,1.36a1.19,1.19,0,0,0,.05.32q3.29,10.1,9.77,15.61a.18.18,0,0,0,.28-.05,25.08,25.08,0,0,0,4.67-8.39c0-.11,0-.16-.13-.15l-3,.12a.2.2,0,0,0-.2.17,1.6,1.6,0,0,1-.62,1,1.41,1.41,0,0,1-1.09.27L415,396.8a1.24,1.24,0,0,1-.91-.52,1.17,1.17,0,0,1-.2-1Q414.89,390.39,415.48,386.58Z" transform="translate(0 -330.99)"/><path class="19b9c4ca-03c9-4e01-adc8-4acec441366d" d="M444.36,393.32a1.38,1.38,0,0,1,1,.38,1.33,1.33,0,0,1,.46,1l.49,11.55a.53.53,0,0,0,.09.32,6.16,6.16,0,0,0,3,2.54,12.45,12.45,0,0,0,4.79.79q2.37,0,5.94-.13c1.07-.05,2.2-.11,3.4-.19,4-.21,7.41-.49,10.37-.83a.78.78,0,0,1,.77.33.87.87,0,0,1,.19.51,1.66,1.66,0,0,1,0,.32A25.6,25.6,0,0,0,474,413a2,2,0,0,1-.6,1.05,1.59,1.59,0,0,1-1.07.47c-3.54.31-6.91.53-10.09.66-2.78.12-5.4.17-7.86.17a18.09,18.09,0,0,1-6-.87,10.3,10.3,0,0,1-4.24-3q-.14-.15-.24,0c-1.16,1.23-2.45,2.51-3.9,3.86a1,1,0,0,1-.91.28,1.13,1.13,0,0,1-.79-.57l-1.7-3.3a1.93,1.93,0,0,1-.15-.68,1.19,1.19,0,0,1,.06-.44,1.49,1.49,0,0,1,.64-.95c1.07-.74,2.19-1.59,3.35-2.55a.3.3,0,0,0,.11-.29l-.32-7.7a.15.15,0,0,0-.17-.15l-2.69.11a1.34,1.34,0,0,1-1-.38,1.4,1.4,0,0,1-.46-1l-.11-2.65a1.34,1.34,0,0,1,.38-1,1.37,1.37,0,0,1,1-.46Zm1.16-9.6a1.27,1.27,0,0,1,.33,1,1.38,1.38,0,0,1-.53,1l-2.55,2.16a1.34,1.34,0,0,1-1,.3,1.28,1.28,0,0,1-.9-.54,41.17,41.17,0,0,0-4.41-4.48,1.17,1.17,0,0,1-.42-.9,1.06,1.06,0,0,1,.43-.9l2.21-1.78a1.76,1.76,0,0,1,1.07-.41h0a1.91,1.91,0,0,1,1.14.39A38.35,38.35,0,0,1,445.52,383.72Zm1.89,9.47a1.36,1.36,0,0,1,.36-1,1.33,1.33,0,0,1,1-.46l3.45-.14c.13,0,.17-.06.11-.17a17.6,17.6,0,0,0-.86-2.37.24.24,0,0,0-.25-.15l-3,.12a1.42,1.42,0,0,1-1-.35,1.34,1.34,0,0,1-.47-1l-.06-1.4a1.41,1.41,0,0,1,.38-1,1.39,1.39,0,0,1,1-.46l8.82-.37c.1,0,.16-.08.15-.21l-.05-1.08c0-.14-.06-.2-.16-.2l-6.1.26a1.44,1.44,0,0,1-1.46-1.35l-.05-1.24a1.32,1.32,0,0,1,.38-1,1.35,1.35,0,0,1,1-.44l6.1-.26c.1,0,.15-.07.15-.2l0-.4a1.45,1.45,0,0,1,1.38-1.51l3.05-.13a1.42,1.42,0,0,1,1,.38,1.39,1.39,0,0,1,.46,1l0,.4c0,.13.06.2.17.19l6.45-.27a1.4,1.4,0,0,1,1,.36,1.35,1.35,0,0,1,.47,1l.05,1.25a1.38,1.38,0,0,1-.38,1,1.43,1.43,0,0,1-1,.46l-6.45.27q-.16,0-.15.21l0,1.08c0,.13.06.2.17.19l8.86-.37a1.42,1.42,0,0,1,1,.38,1.33,1.33,0,0,1,.46,1l.06,1.41a1.32,1.32,0,0,1-.38,1,1.42,1.42,0,0,1-1,.44l-3.17.13v0a.22.22,0,0,1,.19.12.23.23,0,0,1,0,.24l-1.23,2.22c-.05.11,0,.16.08.16l3.81-.16a1.41,1.41,0,0,1,1,.37,1.35,1.35,0,0,1,.46,1l.06,1.32a1.35,1.35,0,0,1-.38,1,1.46,1.46,0,0,1-1,.45l-8.41.35c-.11,0-.16.07-.16.21l0,1c0,.11.06.16.17.15l7-.29a1.39,1.39,0,0,1,1,.38,1.4,1.4,0,0,1,.46,1l.05,1.16a1.32,1.32,0,0,1-.38,1,1.44,1.44,0,0,1-1,.45l-7,.29q-.16,0-.15.21l0,1c0,.11.06.16.16.15l8.42-.35a1.45,1.45,0,0,1,1.51,1.38l.05,1.37a1.43,1.43,0,0,1-1.38,1.5l-8.42.35c-.11,0-.16.06-.15.17l0,.48a1.44,1.44,0,0,1-1.38,1.5l-3.05.13a1.44,1.44,0,0,1-1.5-1.38l0-.48c0-.11-.06-.16-.17-.16l-8.18.35a1.35,1.35,0,0,1-1-.38,1.41,1.41,0,0,1-.44-1l-.06-1.36a1.4,1.4,0,0,1,.36-1,1.29,1.29,0,0,1,1-.46l8.18-.35c.11,0,.16-.05.15-.16l0-1c0-.14-.06-.2-.17-.2l-6.65.28a1.37,1.37,0,0,1-1.46-1.34l-.05-1.17a1.41,1.41,0,0,1,.36-1,1.33,1.33,0,0,1,1-.46l6.66-.28a.14.14,0,0,0,.15-.16l0-1c0-.13-.06-.19-.17-.19l-8.38.35a1.34,1.34,0,0,1-1-.36,1.38,1.38,0,0,1-.44-1Zm15.49-2.05v0a.46.46,0,0,1-.37-.25.4.4,0,0,1,0-.42l.57-1.83c0-.13,0-.2-.17-.19l-5.69.24c-.14,0-.18.07-.12.2.33.68.56,1.24.72,1.66a.64.64,0,0,1-.49.82v0Z" transform="translate(0 -330.99)"/><path class="19b9c4ca-03c9-4e01-adc8-4acec441366d" d="M506.56,389.31a1.52,1.52,0,0,1,.68-.89,1.49,1.49,0,0,1,1.08-.23l3.28.67a1.25,1.25,0,0,1,.87.58,1.36,1.36,0,0,1,.16,1.06,52.44,52.44,0,0,1-6,13.14.31.31,0,0,0,0,.32c1,2.32,2,3.45,3,3.41.72,0,1.13-1.93,1.21-5.71a.57.57,0,0,1,.38-.58.69.69,0,0,1,.72.05,16.24,16.24,0,0,0,2.76,1.73,2.28,2.28,0,0,1,.92.85,1.66,1.66,0,0,1,.28.87c0,.08,0,.17,0,.28a18.92,18.92,0,0,1-1.14,5.23,5.14,5.14,0,0,1-2,2.57,7.49,7.49,0,0,1-3.36.79q-3.81.15-6.77-4.3c-.09-.1-.17-.1-.24,0a35.49,35.49,0,0,1-4.61,4.13,1.35,1.35,0,0,1-1.05.31,1.44,1.44,0,0,1-1-.55c-.82-.93-1.67-1.83-2.57-2.7a1,1,0,0,1-.36-.89,1,1,0,0,1,.49-.8,28.79,28.79,0,0,0,6.23-5.64.34.34,0,0,0,.07-.33A78.68,78.68,0,0,1,496.26,387c0-.13-.1-.2-.21-.19l-10.34.43q-.16,0-.15.21l.14,3.53c0,.13.07.2.17.19l8.46-.35a1.37,1.37,0,0,1,1,.35,1.35,1.35,0,0,1,.44,1c0,.29,0,.52,0,.68.11,4.47.12,7.67,0,9.62a8.19,8.19,0,0,1-.8,3.91,4.87,4.87,0,0,1-3,2,22.34,22.34,0,0,1-3.27.38,1.51,1.51,0,0,1-1.06-.36,1.77,1.77,0,0,1-.61-1,12.29,12.29,0,0,0-1.4-3.79.1.1,0,0,0-.08,0s0,0,0,0A31,31,0,0,1,483,414.23a1,1,0,0,1-.78.56.28.28,0,0,1-.15,0,1.07,1.07,0,0,1-.82-.32,25.47,25.47,0,0,0-3-2.21,1.54,1.54,0,0,1-.67-.85,1.85,1.85,0,0,1-.06-.44,1.59,1.59,0,0,1,.13-.69,21.1,21.1,0,0,0,1.46-5.4,40.33,40.33,0,0,0,.49-5.47c0-1.54,0-3.36-.11-5.47l-.45-10.91a1.33,1.33,0,0,1,.38-1,1.4,1.4,0,0,1,1-.46l15-.63q.15,0,.15-.21c-.11-1.33-.21-2.68-.29-4a1.32,1.32,0,0,1,.38-1,1.35,1.35,0,0,1,1-.44l3.45-.15a1.42,1.42,0,0,1,1,.36,1.38,1.38,0,0,1,.44,1c0,.32,0,.63,0,.92,0,1.1.1,2.14.17,3.12,0,.14.1.2.21.2l4.29-.18s0,0,.06,0a.06.06,0,0,0,0-.07c-.88-.61-1.83-1.23-2.84-1.85a1.07,1.07,0,0,1-.54-.8,1.15,1.15,0,0,1,.26-1l1.54-1.63a1.87,1.87,0,0,1,1.06-.57,1.08,1.08,0,0,1,.28-.05,1.84,1.84,0,0,1,.89.21,39.11,39.11,0,0,1,4.2,2.51,1.21,1.21,0,0,1,.5.92,1.26,1.26,0,0,1-.34,1l-.88,1s0,0,0,.06,0,.06.06.06l2.76-.12a1.39,1.39,0,0,1,1,.38,1.36,1.36,0,0,1,.47,1l.12,3.05a1.31,1.31,0,0,1-.38,1,1.34,1.34,0,0,1-1,.47l-10.94.46c-.11,0-.16.07-.16.2a83.48,83.48,0,0,0,1.67,9,.05.05,0,0,0,0,.06s0,0,.08,0A43.89,43.89,0,0,0,506.56,389.31Zm-16.44,7.27a.15.15,0,0,0-.17-.15l-3.89.16c-.11,0-.16.06-.15.17,0,2.2-.1,4.3-.26,6.32,0,.13.06.19.17.19,1,.06,2,.08,2.77.05a1.52,1.52,0,0,0,1.22-.62Q490.26,402,490.12,396.58Z" transform="translate(0 -330.99)"/><path class="19b9c4ca-03c9-4e01-adc8-4acec441366d" d="M538.92,397.83a1.42,1.42,0,0,1,1,.38,1.33,1.33,0,0,1,.46,1l0,.77a.15.15,0,0,0,.17.15l14.15-.59a1.41,1.41,0,0,1,1,.37,1.39,1.39,0,0,1,.46,1l.12,2.64a1.33,1.33,0,0,1-.38,1,1.46,1.46,0,0,1-1,.45l-14.15.59q-.17,0-.15.21l.22,5.17a1.41,1.41,0,0,1-.38,1,1.39,1.39,0,0,1-1,.46l-3.29.14a1.39,1.39,0,0,1-1-.38,1.37,1.37,0,0,1-.46-1l-.21-5.17c0-.14-.07-.2-.17-.2l-13.83.58a1.42,1.42,0,0,1-1-.35,1.37,1.37,0,0,1-.47-1l-.11-2.64a1.44,1.44,0,0,1,.38-1.05,1.41,1.41,0,0,1,1-.46l13.83-.58c.1,0,.15-.06.15-.17l-.08-1.92c0-.11-.06-.16-.17-.15l-3.87.44a1.53,1.53,0,0,1-1.08-.28,1.55,1.55,0,0,1-.62-.93l-.25-1.08c0-.13-.06-.17-.16-.11q-2.47,1.35-5.78,3a1.61,1.61,0,0,1-1.14.11,1.41,1.41,0,0,1-.89-.67l-1.46-2.3a1,1,0,0,1-.19-.56,1.12,1.12,0,0,1,.07-.4,1.09,1.09,0,0,1,.69-.71q2.56-1,7.58-3a1.29,1.29,0,0,1,1.07,0,1.15,1.15,0,0,1,.65.8l.38,1.31c0,.11.11.15.25.15l2.16-.17a.41.41,0,0,0,.31-.14c.34-.33.82-.85,1.47-1.54.07-.09.06-.17-.06-.24q-2.4-1.71-4.87-3.21a.24.24,0,0,0-.32,0l-1.89,1.73a1.52,1.52,0,0,1-1,.38,1.72,1.72,0,0,1-1.1-.37A32.15,32.15,0,0,0,520,387.7a.91.91,0,0,1-.49-.78,1,1,0,0,1,.34-.86l1.67-1.47a2.08,2.08,0,0,1,1.14-.51,2,2,0,0,1,1.21.21,40.91,40.91,0,0,1,4.54,2.78.16.16,0,0,0,.24,0l1.14-1.58a1,1,0,0,1,.61-.36,1,1,0,0,1,.7.11c.08,0,.14,0,.16-.05.33-.55.72-1.3,1.19-2.26.08-.11,0-.16-.09-.16l-11.42.48a1.33,1.33,0,0,1-1-.38,1.35,1.35,0,0,1-.46-1l-.11-2.53a1.32,1.32,0,0,1,.38-1,1.43,1.43,0,0,1,1-.44l12.43-.52q.17,0,.15-.21l-.08-2a1.32,1.32,0,0,1,.38-1,1.38,1.38,0,0,1,1-.44l3.29-.14a1.4,1.4,0,0,1,1,.36,1.29,1.29,0,0,1,.46,1l.09,2c0,.13.06.19.17.19l12.82-.54a1.42,1.42,0,0,1,1,.36,1.36,1.36,0,0,1,.47,1l.1,2.52a1.38,1.38,0,0,1-.38,1,1.33,1.33,0,0,1-1,.46l-15,.63h0a.49.49,0,0,1,.33.31.43.43,0,0,1-.06.44q-1.86,2.54-3,4c-.07.12-.06.2,0,.24s.55.37,1.16.8c.11.05.19,0,.24-.05.89-1.14,1.7-2.23,2.43-3.28a1.81,1.81,0,0,1,2.1-.65l2,.8a1.13,1.13,0,0,1,.63.72,1,1,0,0,1-.21.91c-1.09,1.33-2.32,2.73-3.67,4.21,0,0,0,0,0,0l.06,0,2.13-1a1.69,1.69,0,0,1,1.15-.13,1.67,1.67,0,0,1,1,.64c.42.6.78,1.12,1.06,1.56q.09.15.21,0L546.7,391a2.21,2.21,0,0,1,1.31-.54,2.51,2.51,0,0,1,1.09.24,59.57,59.57,0,0,1,6,3.32,1,1,0,0,1,.48.85,1.18,1.18,0,0,1-.36.91l-2.06,1.82a1.72,1.72,0,0,1-1.06.4,1.65,1.65,0,0,1-1.1-.35,45.34,45.34,0,0,0-4-2.52s0,0,0,0a.05.05,0,0,0,0,.06,3.84,3.84,0,0,0,.17.35,1.35,1.35,0,0,1,.05,1.11,1.63,1.63,0,0,1-.81.85l-1.81.88a1.19,1.19,0,0,1-1,.05,1.21,1.21,0,0,1-.71-.74c-.06-.13-.12-.27-.18-.43a.2.2,0,0,0-.25-.11l-7,.85v0Zm-1.2-4.73a.07.07,0,0,0,0,.08.06.06,0,0,0,.06,0L540,393c.14,0,.17-.06.12-.17-.29-.44-.56-.83-.82-1.17q-.12-.15-.24,0c-.15.17-.38.41-.69.73Zm12.51-4.26a2.2,2.2,0,0,1-1.3.54,2.37,2.37,0,0,1-1.1-.23l-1.88-.89a.88.88,0,0,1-.56-.86.84.84,0,0,1,.29-.69,36.62,36.62,0,0,0,3-3.34,2.16,2.16,0,0,1,1-.68,1.78,1.78,0,0,1,.44-.06,1.84,1.84,0,0,1,.77.13l2.82,1.16a.91.91,0,0,1,.59.86.84.84,0,0,1-.29.7Q552,387.32,550.23,388.84Z" transform="translate(0 -330.99)"/><path class="19b9c4ca-03c9-4e01-adc8-4acec441366d" d="M567.21,396.32a1.43,1.43,0,0,1-1.06-.37,1.52,1.52,0,0,1-.53-1l-1.45-12.59-.41-5.05a1.37,1.37,0,0,1,1.3-1.46l4.53-.19a1.36,1.36,0,0,1,1,.36,1.39,1.39,0,0,1,.45,1v5.06l-.4,12.67a1.52,1.52,0,0,1-.43,1,1.47,1.47,0,0,1-1,.46Zm4.58,10.11a4.66,4.66,0,0,1-6.38.27,4.75,4.75,0,0,1-.25-6.45,4.51,4.51,0,0,1,6.34-.27,4.75,4.75,0,0,1,.29,6.45Z" transform="translate(0 -330.99)"/></svg>