<svg id="圖層_1" data-name="圖層 1" xmlns="http://www.w3.org/2000/svg" viewBox="0 0 612 172.01"><defs><style>.cls-1{fill:#f08b68;}.cls-2{fill:#231815;}</style></defs><title>08_2</title><polygon class="cls-1" points="612 0 0 58.37 0 172.01 612 114.18 612 0"/><path class="cls-2" d="M90.14,461.87h.06s0,0,0,0l-.59-6a1.28,1.28,0,0,1,.31-1,1.3,1.3,0,0,1,.92-.49l2.46-.24a1.26,1.26,0,0,1,1,.31,1.31,1.31,0,0,1,.47.89l1.53,15.56q.24,2.5.3,4.41a31.24,31.24,0,0,1-.19,4.11,18.7,18.7,0,0,1-.86,4,15.15,15.15,0,0,1-4.78,6.78,1.23,1.23,0,0,1-1,.33,1.67,1.67,0,0,1-1-.44,23.83,23.83,0,0,0-2.33-1.87.89.89,0,0,1-.37-.75.92.92,0,0,1,.34-.78,12.67,12.67,0,0,0,4.71-7.76s0-.05,0-.06a.06.06,0,0,0-.07,0q-.45.47-2.1,2a1.09,1.09,0,0,1-.9.34,1.23,1.23,0,0,1-.87-.47l-1.67-2.28a1.41,1.41,0,0,1-.24-1,1.28,1.28,0,0,1,.51-.86q2-1.49,4.89-3.92a.41.41,0,0,1,.36-.09.55.55,0,0,1,.31.22l-.15-1.48-.34-3.48c0-.1-.06-.12-.16-.07l-.82.62a1.12,1.12,0,0,1-.93.21,1,1,0,0,1-.75-.58,55.34,55.34,0,0,0-3-4.87s0,0,0,0,0,0,0,0l.22,2.23a1.25,1.25,0,0,1-.3,1,1.28,1.28,0,0,1-.89.49l-1.37.13a.18.18,0,0,0-.17.21l.34,3.41c0,.1.06.13.16.1l1.21-.58a1,1,0,0,1,1,0,1.15,1.15,0,0,1,.65.74l.71,2.22a1.63,1.63,0,0,1,0,1.09,1.6,1.6,0,0,1-.76.82l-2.19,1.14a.25.25,0,0,0-.13.24l.93,9.47a9.4,9.4,0,0,1-.08,3,3.42,3.42,0,0,1-1.16,1.87,8.43,8.43,0,0,1-4.21,1.48h0a1.42,1.42,0,0,1-1-.29,1.59,1.59,0,0,1-.66-.89,21.38,21.38,0,0,0-1-2.58.86.86,0,0,1,.06-.85.78.78,0,0,1,.7-.41l.76-.08a6.6,6.6,0,0,0,.9-.12.51.51,0,0,0,.55-.67l-.74-7.54c0-.1-.06-.12-.16-.06l-1.53.73a1.14,1.14,0,0,1-1,0,1.12,1.12,0,0,1-.67-.72l-1-2.66a3,3,0,0,1-.07-.34,1.28,1.28,0,0,1,.13-.7,1.35,1.35,0,0,1,.76-.76c.86-.34,1.78-.74,2.75-1.19a.24.24,0,0,0,.13-.24l-.51-5.19c0-.13-.07-.19-.17-.18l-2.31.23a1.28,1.28,0,0,1-1-.31,1.22,1.22,0,0,1-.49-.89l-.25-2.5a1.28,1.28,0,0,1,.31-1,1.26,1.26,0,0,1,.89-.49l2.31-.23c.1,0,.14-.08.13-.2l-.54-5.53a1.26,1.26,0,0,1,.3-1,1.36,1.36,0,0,1,.93-.47L80,455a1.31,1.31,0,0,1,1,.28,1.28,1.28,0,0,1,.49.91l.54,5.53a.16.16,0,0,0,.21.17l2.08-.2a.76.76,0,0,0,.34-.11l2.4-1.65a1.25,1.25,0,0,1,1-.25,1.4,1.4,0,0,1,.92.56Zm15.24,22.41,1.48-.15c.28,0,.45-.28.53-.78a14.94,14.94,0,0,0,0-2.75.82.82,0,0,1,1.15-.73,13.23,13.23,0,0,0,2.38.84,2.17,2.17,0,0,1,.94.6,1.51,1.51,0,0,1,.34.81l0,.22a10.34,10.34,0,0,1-1.12,5,4.08,4.08,0,0,1-3.27,1.79l-3,.3c-2,.19-3.35-.19-4.15-1.13s-1.32-2.81-1.6-5.61l-2.69-27.46a1.29,1.29,0,0,1,.3-1,1.3,1.3,0,0,1,.93-.49l2.61-.26a1.4,1.4,0,0,1,1,.3,1.32,1.32,0,0,1,.49.89l.8,8.22s0,0,0,0h0a45.86,45.86,0,0,0,1.24-4.55,1.08,1.08,0,0,1,.56-.77,1.11,1.11,0,0,1,1-.07l2.75,1.11a1.22,1.22,0,0,1,.7.69,1.27,1.27,0,0,1,0,1c-.19.4-.61,1.36-1.25,2.86s-1.13,2.6-1.44,3.3a1.33,1.33,0,0,1-.79.7,1.39,1.39,0,0,1-1.06,0l-1.24-.56c-.1,0-.15,0-.14.09l.37,3.75a.05.05,0,0,0,0,.05s0,0,.08,0l.2-.25a1.43,1.43,0,0,1,.94-.53,1.37,1.37,0,0,1,1,.26,46.47,46.47,0,0,1,5.29,4.38,1.44,1.44,0,0,1,.44,1,1.59,1.59,0,0,1-.32,1l-1.55,2.07a1.11,1.11,0,0,1-.86.43,1.07,1.07,0,0,1-.86-.38,51,51,0,0,0-3.88-3.71s-.06,0-.08,0a.13.13,0,0,0,0,.1l.72,7.27a8.44,8.44,0,0,0,.29,1.81A.56.56,0,0,0,105.38,484.28Z" transform="translate(0 -367.25)"/><path class="cls-2" d="M119.84,452a1.29,1.29,0,0,1,1,.3,1.31,1.31,0,0,1,.5.93l.58,5.95a1.23,1.23,0,0,1-.3,1,1.39,1.39,0,0,1-.93.48l-6.44.63a1.39,1.39,0,0,1-1-.29,1.29,1.29,0,0,1-.49-.9l-.58-6a1.33,1.33,0,0,1,.3-1,1.34,1.34,0,0,1,.93-.49Zm25,11.81s0,0,0,0v.08l3,1.28a1.65,1.65,0,0,1,.82.76,1.49,1.49,0,0,1,.09,1.1,40,40,0,0,1-3.87,9.63.42.42,0,0,0,0,.31c.55,1.25,1.07,1.84,1.55,1.8s.62-1.26.56-3.65a.57.57,0,0,1,.33-.55.6.6,0,0,1,.66.07A17,17,0,0,0,150,476a1.91,1.91,0,0,1,1.11,1.54,2.93,2.93,0,0,1,0,.42q-.69,7.29-4.07,7.62H147q-3.19.17-5.6-3.62c-.06-.09-.12-.1-.19,0a23.16,23.16,0,0,1-3.49,3.44,1.35,1.35,0,0,1-1,.31,1.61,1.61,0,0,1-1-.42,20,20,0,0,0-2.36-1.87.8.8,0,0,1-.39-.73.88.88,0,0,1,.36-.72l.15-.09s0,0,0,0a.06.06,0,0,0-.06,0l-5.83.57c-.1,0-.15.08-.13.2l.35,3.57a1.28,1.28,0,0,1-.31,1,1.3,1.3,0,0,1-.93.49l-2.69.27a1.35,1.35,0,0,1-1-.31,1.27,1.27,0,0,1-.49-.88l-.35-3.56c0-.13-.07-.19-.17-.18l-6.51.64a1.26,1.26,0,0,1-1-.3,1.33,1.33,0,0,1-.47-.9l-.22-2.23a1.32,1.32,0,0,1,.29-1,1.22,1.22,0,0,1,.9-.49l6.52-.64c.1,0,.14-.07.13-.17l-.11-1.14c0-.12-.07-.18-.17-.17l-5,.49a1.36,1.36,0,0,1-1.49-1.19l-1.17-12a1.29,1.29,0,0,1,.3-1,1.31,1.31,0,0,1,.93-.5l16.05-1.57a1.37,1.37,0,0,1,1.46,1.23l1.18,12a1.32,1.32,0,0,1-.31,1,1.29,1.29,0,0,1-.89.49l-5.34.52c-.1,0-.14.08-.13.2l.11,1.14a.14.14,0,0,0,.17.14l6.21-.61a1.29,1.29,0,0,1,1,.3,1.35,1.35,0,0,1,.5.93l.23,2.42c0,.13.06.15.12.07a24.19,24.19,0,0,0,3.67-4,.36.36,0,0,0,.05-.31,83.94,83.94,0,0,1-2.48-10.42c0-.13-.11-.17-.2-.14L135,466a1.28,1.28,0,0,1-1-.17,1.21,1.21,0,0,1-.57-.86l-.59-2.54a1.46,1.46,0,0,1,.21-1,1.33,1.33,0,0,1,.85-.6l1.43-.29a.17.17,0,0,0,.13-.2q-.6-3.84-1.23-9.06a1.14,1.14,0,0,1,.27-1,1.26,1.26,0,0,1,.89-.49l2.65-.26a1.27,1.27,0,0,1,1,.29,1.22,1.22,0,0,1,.49.9c.28,2.55.64,5.36,1.1,8.42,0,.13.08.18.2.14l6.29-1.39a1.36,1.36,0,0,1,1,.21,1.34,1.34,0,0,1,.58.82l.55,2.51a1.4,1.4,0,0,1-.2,1,1.35,1.35,0,0,1-.86.6Zm-27.35-6.34c.1,0,.15-.06.14-.16l-.14-1.44c0-.13-.07-.19-.17-.18l-.88.09c-.1,0-.14.08-.13.2l.14,1.44a.14.14,0,0,0,.17.14Zm1.12,8.65c-.13,0-.19.07-.18.17l.1,1c0,.1.08.15.21.14l1.93-.19c.12,0,.18-.07.17-.17l-.1-1c0-.1-.08-.14-.2-.13Zm.5,5.15c-.13,0-.18.07-.17.17l.1,1a.16.16,0,0,0,.21.17l1.93-.19a.17.17,0,0,0,.17-.2l-.1-1c0-.1-.08-.14-.21-.13ZM130.18,451a1.26,1.26,0,0,1,1,.3,1.34,1.34,0,0,1,.49.93l.58,5.95a1.23,1.23,0,0,1-.3,1,1.29,1.29,0,0,1-.89.47l-6.48.64a1.32,1.32,0,0,1-1.46-1.2l-.58-5.94a1.38,1.38,0,0,1,.28-1,1.28,1.28,0,0,1,.91-.49Zm-2.45,15.57a.14.14,0,0,0,.14-.17l-.1-1a.14.14,0,0,0-.17-.14l-2,.21a.13.13,0,0,0-.13.16l.1,1c0,.11.06.15.16.14Zm.51,5.19c.1,0,.14-.08.13-.21l-.1-1a.13.13,0,0,0-.16-.13l-2.05.2c-.1,0-.15.06-.14.16l.1,1c0,.12.07.18.17.17Zm-.47-15.29c.13,0,.19-.07.18-.17l-.14-1.44a.18.18,0,0,0-.21-.17l-.87.09c-.1,0-.15.08-.14.2l.14,1.44a.14.14,0,0,0,.17.14Zm20-2.27a1.4,1.4,0,0,1,.12,1.06,1.6,1.6,0,0,1-.66.9l-2,1.39a1.15,1.15,0,0,1-.94.13,1.1,1.1,0,0,1-.75-.61,29.77,29.77,0,0,0-2.52-4.23,1.26,1.26,0,0,1-.21-1,1.24,1.24,0,0,1,.56-.84l1.8-1.14a1.41,1.41,0,0,1,1-.21,1.38,1.38,0,0,1,.91.56A34.57,34.57,0,0,1,147.82,454.15ZM144.46,464a.06.06,0,0,0,0-.09.11.11,0,0,0-.12-.05l-2.65.6a.22.22,0,0,0-.13.25q.49,2.78,1,5s0,0,.06,0a0,0,0,0,0,.05,0A34.63,34.63,0,0,0,144.46,464Z" transform="translate(0 -367.25)"/><path class="cls-2" d="M219.67,473.3c0,.1.07.14.17.13l7.42-.73a1.3,1.3,0,0,1,1,.31,1.36,1.36,0,0,1,.47.93l.16,1.66a1.34,1.34,0,0,1-.28,1,1.28,1.28,0,0,1-.91.49l-21.09,2.07a1.37,1.37,0,0,1-1.46-1.24l-.17-1.66a1.36,1.36,0,0,1,.31-1,1.29,1.29,0,0,1,.89-.49l8-.78c.13,0,.18-.07.17-.17l-.07-.72c0-.1-.08-.14-.2-.13l-5.76.56a1.29,1.29,0,0,1-1-.3,1.35,1.35,0,0,1-.5-.93l-.15-1.55a1.28,1.28,0,0,1,.31-1,1.31,1.31,0,0,1,.93-.5l5.75-.56a.16.16,0,0,0,.17-.21l-.07-.79q0-.19-.21-.18l-5.61.55a1.29,1.29,0,0,1-1-.3,1.28,1.28,0,0,1-.49-.89L206.2,465s0,0,0-.06,0,0,0,0l-1.67,2.84a.77.77,0,0,1-.69.37.72.72,0,0,1-.68-.35c-.37-.6-.74-1.18-1.13-1.73a.13.13,0,0,0-.08,0s0,0,0,0l1.23,12.58a1.27,1.27,0,0,1-.29,1,1.22,1.22,0,0,1-.9.49l-2.77.28a1.34,1.34,0,0,1-1-.31,1.22,1.22,0,0,1-.49-.89l-1-10.49a.05.05,0,0,0-.08,0,31.82,31.82,0,0,1-2.09,5.14.63.63,0,0,1-.62.35.67.67,0,0,1-.61-.42q-.7-1.31-1.74-2.85a2,2,0,0,1-.36-1,2.19,2.19,0,0,1,.3-1.29,37.86,37.86,0,0,0,3.55-8.61c0-.13,0-.19-.13-.18l-2.92.29a1.31,1.31,0,0,1-1-.29,1.29,1.29,0,0,1-.5-.91l-.24-2.54a1.36,1.36,0,0,1,1.19-1.49l3.67-.36a.14.14,0,0,0,.14-.17l-.33-3.37c0-.1-.07-.13-.17-.1-1.24.33-2.12.56-2.64.68a1.47,1.47,0,0,1-1.07-.14,1.5,1.5,0,0,1-.71-.83c-.26-.58-.55-1.16-.86-1.71a1.09,1.09,0,0,1,0-.93.93.93,0,0,1,.67-.59,54,54,0,0,0,9.15-3.42,1.88,1.88,0,0,1,1.14-.19,1.85,1.85,0,0,1,1,.52l2.19,2.08a.91.91,0,0,1-.23,1.51c-.71.32-1.69.73-2.94,1.21a.2.2,0,0,0-.17.24l.44,4.51c0,.1.08.14.21.13l3-.29c.12,0,.18-.07.17-.17l-.26-2.65a1.31,1.31,0,0,1,1.2-1.46l6.7-.66c.13,0,.19-.08.17-.2l-.07-.76c0-.1-.08-.15-.21-.14-1.63.24-3.38.46-5.24.67a1.48,1.48,0,0,1-1.05-.28,1.89,1.89,0,0,1-.68-.89c-.17-.49-.38-1-.61-1.54a.9.9,0,0,1,.71-1.33,140.91,140.91,0,0,0,15.45-2.74,1.75,1.75,0,0,1,.41-.08,2.12,2.12,0,0,1,1.84.74l1.71,1.86a.78.78,0,0,1-.37,1.33c-1.86.47-4,.92-6.48,1.36a.19.19,0,0,0-.13.21l.1,1.06c0,.12.07.18.17.17l6.55-.64a1.38,1.38,0,0,1,1,.28,1.28,1.28,0,0,1,.49.91l.16,1.63a1.3,1.3,0,0,1-.31,1,1.4,1.4,0,0,1-.93.47l-6.55.64c-.1,0-.14.08-.13.21l.06.64c0,.13.07.19.17.18l6-.6a1.36,1.36,0,0,1,1,.31,1.29,1.29,0,0,1,.49.89l1.05,10.75a1.29,1.29,0,0,1-.3,1,1.3,1.3,0,0,1-.93.49l-6,.59c-.1,0-.15.08-.14.21l.08.79c0,.13.07.19.17.18l5.91-.58a1.33,1.33,0,0,1,1,.3,1.26,1.26,0,0,1,.48.89l.16,1.55a1.36,1.36,0,0,1-.31,1,1.34,1.34,0,0,1-.92.49l-5.91.58a.14.14,0,0,0-.14.17Zm-18.31-14c-.13,0-.18.08-.17.21v.11a.35.35,0,0,0,.18.29A58.15,58.15,0,0,1,206,463.7a.07.07,0,0,0,.08,0,.09.09,0,0,0,0-.07l-.74-7.49a1.37,1.37,0,0,1,1.24-1.46l5.6-.55c.13,0,.19-.09.17-.21l-.06-.65a.17.17,0,0,0-.21-.17l-7.5.74c-.1,0-.14.08-.13.2l.35,3.56a1.26,1.26,0,0,1-.31,1,1.32,1.32,0,0,1-.92.47Zm11.31,0c.13,0,.19-.07.18-.17l-.1-1a.17.17,0,0,0-.21-.17l-1.93.19a.17.17,0,0,0-.17.21l.1,1c0,.1.08.14.2.13ZM211,463.79a.17.17,0,0,0,.2.17l1.94-.19a.17.17,0,0,0,.17-.21l-.1-.95a.17.17,0,0,0-.2-.17l-1.94.19a.17.17,0,0,0-.17.21Zm9.57-6.45c0-.13-.07-.19-.17-.18l-2.12.21c-.1,0-.14.08-.13.21l.1,1c0,.1.06.15.16.14l2.12-.21a.14.14,0,0,0,.14-.17ZM221,463c.1,0,.14-.08.13-.21l-.09-.94c0-.13-.07-.19-.17-.18l-2.12.21c-.11,0-.15.08-.14.2l.09.95c0,.13.07.19.18.17Z" transform="translate(0 -367.25)"/><path class="cls-2" d="M265.83,457a1.36,1.36,0,0,1-1.19,1.5l-7.54.73a.14.14,0,0,0-.14.17l.84,8.48c0,.11.06.15.16.14l7.24-.71a1.28,1.28,0,0,1,1,.31,1.35,1.35,0,0,1,.5.92l.26,2.69a1.36,1.36,0,0,1-1.19,1.5l-20.23,2a1.24,1.24,0,0,1-1-.31,1.27,1.27,0,0,1-.5-.92l-.26-2.69a1.33,1.33,0,0,1,.3-1,1.26,1.26,0,0,1,.89-.48l6.93-.68a.14.14,0,0,0,.14-.17l-.83-8.49c0-.1-.07-.14-.17-.13l-8.56.84a1.31,1.31,0,0,1-1-.31,1.34,1.34,0,0,1-.49-.93l-.27-2.72a1.36,1.36,0,0,1,.31-1,1.29,1.29,0,0,1,.89-.49l8.56-.84a.13.13,0,0,0,.13-.16l-.72-7.35c0-.1-.06-.15-.16-.14q-2.81.74-5.8,1.37a1.45,1.45,0,0,1-1.05-.2,1.79,1.79,0,0,1-.73-.81,26.68,26.68,0,0,0-1.25-2.63s0,0-.06,0-.06,0-.05.07c-.69,1.85-1.29,3.38-1.81,4.61a.67.67,0,0,0,0,.31l2.51,25.53a1.28,1.28,0,0,1-.31,1,1.26,1.26,0,0,1-.89.49l-2.91.29a1.37,1.37,0,0,1-1.46-1.2l-1.68-17.19a.1.1,0,0,0-.05-.06.06.06,0,0,0-.07,0c-.38.57-.78,1.15-1.21,1.72a.92.92,0,0,1-1.5-.12,39.31,39.31,0,0,0-2.37-3.47,1.62,1.62,0,0,1-.31-.85c0-.05,0-.11,0-.19a1.65,1.65,0,0,1,.39-1,34.49,34.49,0,0,0,3.81-6.06,44,44,0,0,0,2.82-7.06,1.62,1.62,0,0,1,.64-.87,1.94,1.94,0,0,1,.6-.17,3.49,3.49,0,0,1,.46,0l3.12.69a1.23,1.23,0,0,1,.81.57,1.18,1.18,0,0,1,.13,1c-.1.36-.21.68-.3,1,0,0,0,.06,0,.1s.06,0,.09,0A90.9,90.9,0,0,0,258,438.22a2.78,2.78,0,0,1,.71-.19,1.81,1.81,0,0,1,1.47.59l2.65,2.49a.81.81,0,0,1,.25.8.75.75,0,0,1-.53.64,69.16,69.16,0,0,1-6.83,2.43.19.19,0,0,0-.14.21l.83,8.4c0,.11.06.15.17.14l7.53-.74a1.29,1.29,0,0,1,1,.31,1.34,1.34,0,0,1,.49.92Z" transform="translate(0 -367.25)"/><path class="cls-2" d="M303,440.23a1.35,1.35,0,0,1-1.23,1.49l-.38,0a.24.24,0,0,0-.21.18,20,20,0,0,1-2.67,5.08c-.07.08-.05.14.05.18a28.88,28.88,0,0,0,5,1,.73.73,0,0,1,.58.44,1.85,1.85,0,0,1,.06.26.74.74,0,0,1-.14.51,27.45,27.45,0,0,0-1.68,2.81,1.7,1.7,0,0,1-.77.84,1.65,1.65,0,0,1-1.11.18,27.76,27.76,0,0,1-6.24-2,.27.27,0,0,0-.3,0c-.86.56-1.68,1.07-2.46,1.5,0,.05,0,.07.05.07l2.8-.28a1.24,1.24,0,0,1,1,.31,1.19,1.19,0,0,1,.41.9c0,.48,0,1.07,0,1.76,0,.12.07.18.17.17l6.9-.67a1.23,1.23,0,0,1,1,.3,1.09,1.09,0,0,1,.4.9,4.88,4.88,0,0,1,0,.72c0,2.19,0,4-.12,5.44a23.28,23.28,0,0,1-.42,3.49,5.46,5.46,0,0,1-.8,2,5,5,0,0,1-2.91,1.89,23,23,0,0,1-3,.45,1.43,1.43,0,0,1-1-.29,1.68,1.68,0,0,1-.63-.89,12.63,12.63,0,0,0-1-2.58.7.7,0,0,1,0-.75.78.78,0,0,1,.63-.42q1,0,1.71-.09a1.61,1.61,0,0,0,1.16-.58c.44-.52.7-2,.8-4.39a.14.14,0,0,0-.17-.14l-3,.29q-.19,0-.21.18a15.84,15.84,0,0,1-2.57,6,17.13,17.13,0,0,1-5.44,4.74,1.3,1.3,0,0,1-1,.14,1.54,1.54,0,0,1-.9-.6,21.77,21.77,0,0,0-1.89-2.07.92.92,0,0,1-.29-.79.79.79,0,0,1,.49-.68,11.94,11.94,0,0,0,5.71-6.14c0-.11,0-.15-.13-.14l-2.31.22a1.33,1.33,0,0,1-1-.3,1.34,1.34,0,0,1-.49-.93l-.3-3.06h0c-.1.75-.22,1.4-.34,1.94a1.13,1.13,0,0,1-.57.81,1.18,1.18,0,0,1-1,.07l-1.35-.48a1.63,1.63,0,0,1-.85-.7,1.71,1.71,0,0,1-.24-1.1c.1-1.08.16-2.22.2-3.42,0-.11,0-.15-.17-.14l-.87.09c-.1,0-.15.06-.14.16L281,466.44a9.67,9.67,0,0,1-.1,3.09,3.29,3.29,0,0,1-1.32,1.91,10.74,10.74,0,0,1-4.42,1.39H275a1.43,1.43,0,0,1-1-.29,2,2,0,0,1-.66-.89,21,21,0,0,0-1.11-2.72.82.82,0,0,1,0-.84.89.89,0,0,1,.72-.46c.61,0,1.29-.08,2.05-.16a1,1,0,0,0,.49-.2.55.55,0,0,0,.09-.43l-.58-6s0,0,0,0,0,0,0,0a22.56,22.56,0,0,1-2.86,5.18.75.75,0,0,1-.74.3.94.94,0,0,1-.7-.51c-.44-.82-1-1.8-1.74-2.92a1.65,1.65,0,0,1-.26-.74,2,2,0,0,1,0-.35,2,2,0,0,1,.44-1,21,21,0,0,0,3.47-6c0-.1,0-.15-.13-.14l-2.77.27a1.27,1.27,0,0,1-1-.3,1.34,1.34,0,0,1-.49-.93l-.21-2.2a1.24,1.24,0,0,1,.3-1,1.28,1.28,0,0,1,.89-.49l6.29-.62s0,0,0-.08q-2.43-1-5.38-1.88a.9.9,0,0,1-.49-1.4l1.5-1.87a2,2,0,0,1,1.38-.79,2.87,2.87,0,0,1,.77,0c.44.11.86.22,1.25.34a.36.36,0,0,0,.3-.11c.55-.61,1-1.11,1.27-1.5l0-.09s0-.05-.06-.05l-6.9.67a1.32,1.32,0,0,1-1-.28,1.28,1.28,0,0,1-.49-.91l-.2-2a1.29,1.29,0,0,1,.31-1,1.37,1.37,0,0,1,.93-.48l10.79-1.05a.47.47,0,0,0,.19-.06,2.23,2.23,0,0,1,.45-.08,1.85,1.85,0,0,1,1,.17L283,438a1.38,1.38,0,0,1,.71.79,1.21,1.21,0,0,1-.11,1,28.32,28.32,0,0,1-4,5.47c-.09.09-.09.15,0,.19L281,446a.92.92,0,0,1,.6.69,1,1,0,0,1-.21.92l-.95,1.28a.06.06,0,0,0,0,.07s0,0,.06,0l1.06-.1a.45.45,0,0,0,.19-.06,3,3,0,0,1,.62-.13,3,3,0,0,1,.67,0l2.57.55c.16,0,.23.14.23.32h0a20.72,20.72,0,0,0,3.23-1.43c.1-.06.1-.12,0-.19a24.14,24.14,0,0,1-1.94-1.88c-.09-.09-.17-.08-.23,0h0a1.41,1.41,0,0,1-1,.53,1.53,1.53,0,0,1-1.07-.22c-.84-.5-1.68-1-2.51-1.39a.81.81,0,0,1-.51-.68,1,1,0,0,1,.25-.83,23.21,23.21,0,0,0,5.12-7.77,1.86,1.86,0,0,1,.72-.83,1.64,1.64,0,0,1,.63-.22,1.33,1.33,0,0,1,.43,0l2.72.5a1.14,1.14,0,0,1,.78.55.94.94,0,0,1,.06.93,10.46,10.46,0,0,1-.47,1.12c-.06.11,0,.16.09.14l9.17-.9a1.34,1.34,0,0,1,1,.31,1.26,1.26,0,0,1,.49.89Zm-17.9,16.36c0,.1,0,.15.17.14l4.74-.47c.1,0,.15-.08.17-.21,0-.56,0-1.36,0-2.4a.16.16,0,0,0-.05-.11s-.07,0-.11,0c-.76.35-1.42.63-2,.84a1.44,1.44,0,0,1-1.08.07,2.07,2.07,0,0,1-1-.63,3.62,3.62,0,0,0-.34-.39l-.08,0a0,0,0,0,0,0,0C285.43,454.3,285.29,455.35,285.1,456.59Zm9.76-14c0-.11,0-.16-.13-.14l-3.94.38c-.13,0-.15.05-.07.12a13.06,13.06,0,0,0,2.44,1.87.2.2,0,0,0,.27,0A14.47,14.47,0,0,0,294.86,442.56Z" transform="translate(0 -367.25)"/><path class="cls-2" d="M318.92,463.37c0-.11,0-.15-.13-.14h-.11a4.3,4.3,0,0,1-3-.78,3.84,3.84,0,0,1-.55-5.62,4.48,4.48,0,0,1,2.94-1.38,4.19,4.19,0,0,1,3.64,1.21,6.83,6.83,0,0,1,1.63,4.16,9.31,9.31,0,0,1-1.27,5.77,11,11,0,0,1-4.75,4.23,1.69,1.69,0,0,1-.44.12,1.44,1.44,0,0,1-1.42-.82l-.58-1.16a1.48,1.48,0,0,1-.11-.41,1.57,1.57,0,0,1,.05-.58,1.25,1.25,0,0,1,.7-.76,7.88,7.88,0,0,0,2.38-1.78A3.87,3.87,0,0,0,318.92,463.37Z" transform="translate(0 -367.25)"/><path class="cls-2" d="M375.19,430.78a11.57,11.57,0,0,1,2.67-.08l1.08.17a1.38,1.38,0,0,1,1,.5,1.57,1.57,0,0,1,.41,1q0,11.85-3.12,19.73a.24.24,0,0,0,0,.26,21.89,21.89,0,0,0,5.75,4.48,1,1,0,0,1,.58.83,1.08,1.08,0,0,1-.23.78,20.22,20.22,0,0,0-1.9,2.83,1.48,1.48,0,0,1-.81.65,1.27,1.27,0,0,1-1-.09,24.8,24.8,0,0,1-5.29-4,.14.14,0,0,0-.22,0,27.05,27.05,0,0,1-4.63,5.08,1.25,1.25,0,0,1-1,.29,1.42,1.42,0,0,1-.93-.52,18,18,0,0,0-2.3-2.42.08.08,0,0,0-.08,0,.09.09,0,0,0,0,.06l.25,2.5a1.3,1.3,0,0,1-.31,1,1.32,1.32,0,0,1-.93.47l-2.72.27a1.29,1.29,0,0,1-1-.29,1.27,1.27,0,0,1-.47-.9l-.41-4.25q0-.15-.21-.09l-3.42.91L352,461l-3.11.81a1.3,1.3,0,0,1-1-.11,1.27,1.27,0,0,1-.62-.84l-.86-2.94a.43.43,0,0,1-.06-.22,1.17,1.17,0,0,1,.19-.75,1.08,1.08,0,0,1,.82-.57l1.91-.42a.18.18,0,0,0,.14-.2l-1.92-19.55c0-.1-.07-.14-.17-.13l-1,.09a1.29,1.29,0,0,1-1-.3,1.34,1.34,0,0,1-.49-.93l-.25-2.5a1.37,1.37,0,0,1,1.2-1.46l17.27-1.69a1.26,1.26,0,0,1,1,.3,1.37,1.37,0,0,1,.47.9l.11,1.21c0,.1.08.14.21.13Zm-18,4.43c0-.1-.08-.14-.2-.13l-4.06.4a.13.13,0,0,0-.13.16l.25,2.54c0,.13.06.19.17.18l4.05-.4a.17.17,0,0,0,.17-.21Zm-3.48,8.15c-.1,0-.15.06-.14.16l.27,2.73c0,.13.07.18.17.17l4.05-.39c.13,0,.18-.08.17-.21l-.27-2.73c0-.1-.08-.14-.2-.13Zm.94,11.15c0,.12.06.17.16.13l4-.92q.19-.06.18-.21l-.24-2.35c0-.1-.07-.15-.2-.13l-4,.39a.14.14,0,0,0-.14.17Zm8.09-20a.13.13,0,0,0-.13.16L365,458.85c0,.1.06.12.16.06a20.07,20.07,0,0,0,5.08-5.85.19.19,0,0,0,0-.27,55.45,55.45,0,0,1-5.94-12.92,1.21,1.21,0,0,1,.1-1,1.3,1.3,0,0,1,.77-.65l2.72-.8a1.35,1.35,0,0,1,1.69.9,46.37,46.37,0,0,0,3.35,8s0,0,.06,0,.05,0,.05,0a47.79,47.79,0,0,0,1.57-9.75c0-.11,0-.15-.13-.14l-9.09.89a1.23,1.23,0,0,1-1-.31,1.37,1.37,0,0,1-.48-.92l-.15-1.52c0-.1-.08-.14-.2-.13Z" transform="translate(0 -367.25)"/><path class="cls-2" d="M389.38,425.71a1.91,1.91,0,0,1,1.37-.82,1.88,1.88,0,0,1,.62.05l3,.9a1,1,0,0,1,.65.6,1,1,0,0,1-.08.91,41.48,41.48,0,0,1-7.91,9.07,1,1,0,0,1-.91.26,1.17,1.17,0,0,1-.84-.55c-.53-.78-1.08-1.56-1.64-2.32a1.37,1.37,0,0,1-.29-1,1.27,1.27,0,0,1,.49-.89A28,28,0,0,0,389.38,425.71Zm2.08,8.4a1.85,1.85,0,0,1,.85-.73,1.16,1.16,0,0,1,.44-.12,1.47,1.47,0,0,1,.66.09l2.53.78a1.2,1.2,0,0,1,.73.66,1,1,0,0,1,0,1q-1.12,2.13-2.29,4a.45.45,0,0,0-.08.31l1.94,19.74a1.28,1.28,0,0,1-.31,1,1.3,1.3,0,0,1-.93.49l-2.76.28a1.3,1.3,0,0,1-1-.31,1.33,1.33,0,0,1-.47-.89l-1.35-13.75s0,0-.06-.05a.08.08,0,0,0-.09,0c-.55.64-1.08,1.21-1.59,1.72a.9.9,0,0,1-.82.26,1,1,0,0,1-.7-.53c-.6-1.16-1.2-2.26-1.82-3.3a1.5,1.5,0,0,1-.25-.66,2.54,2.54,0,0,1,0-.39,1.58,1.58,0,0,1,.52-1A35.24,35.24,0,0,0,391.46,434.11Zm28,10a1.33,1.33,0,0,1,1,.3,1.35,1.35,0,0,1,.5.93l.2,2.05a1.28,1.28,0,0,1-.31,1,1.31,1.31,0,0,1-.93.5l-3.52.34c-.1,0-.15.08-.13.21l.42,4.28a7.51,7.51,0,0,1-.17,3,3.15,3.15,0,0,1-1.47,1.77,12,12,0,0,1-4.73,1.27h0a1.65,1.65,0,0,1-1-.25,1.81,1.81,0,0,1-.7-.89,18.88,18.88,0,0,0-1.53-3.17c-.06-.1-.14-.1-.23,0l-1.63,1.38a1.26,1.26,0,0,1-1,.31,1.39,1.39,0,0,1-.93-.46,33.34,33.34,0,0,0-2.92-2.93,1,1,0,0,1-.41-.88,1,1,0,0,1,.43-.84l1.45-1.21a.16.16,0,0,0,0-.08,0,0,0,0,0,0,0l-3.49.34a1.24,1.24,0,0,1-1-.3,1.28,1.28,0,0,1-.49-.89l-.2-2.05a1.29,1.29,0,0,1,.3-1,1.28,1.28,0,0,1,.89-.49l12-1.18a.14.14,0,0,0,.14-.17l-.12-1.21c0-.13-.07-.18-.17-.17l-11,1.07a1.26,1.26,0,0,1-1-.3,1.33,1.33,0,0,1-.47-.89l-.18-1.9a1.32,1.32,0,0,1,.28-1,1.28,1.28,0,0,1,.91-.49L418,438.05a1.26,1.26,0,0,1,1,.3,1.32,1.32,0,0,1,.47.93l.19,1.89a1.32,1.32,0,0,1-.29,1,1.28,1.28,0,0,1-.91.49l-2.69.26c-.1,0-.14.08-.13.21l.12,1.21a.14.14,0,0,0,.17.14Zm-3.86-21a1.37,1.37,0,0,1,1,.31,1.32,1.32,0,0,1,.49.92l1.09,11.18A1.36,1.36,0,0,1,417,437l-17.05,1.68a1.3,1.3,0,0,1-1-.31,1.4,1.4,0,0,1-.47-.93l-1.09-11.17a1.32,1.32,0,0,1,.28-1,1.24,1.24,0,0,1,.91-.49Zm-4,5.56c.1,0,.14-.07.13-.17l-.09-.91a.13.13,0,0,0-.16-.13l-8.26.81c-.13,0-.18.07-.17.17l.08.91c0,.1.08.14.21.13Zm.48,4.89c.1,0,.14-.07.13-.17l-.09-.95c0-.1-.07-.14-.17-.13l-8.25.81c-.13,0-.19.06-.18.17l.09.94c0,.1.08.15.21.14Zm-1.13,20.52-.4-4.12c0-.13-.07-.19-.17-.18l-6.36.63c-.06,0-.08,0-.08,0a.22.22,0,0,1,0,.08,41.85,41.85,0,0,1,3.48,3.06.89.89,0,0,1,.23.66.9.9,0,0,1-.3.65,0,0,0,0,0,0,.07c.78,0,1.77-.13,3-.25a1,1,0,0,0,.53-.21A.52.52,0,0,0,410.93,454.07Z" transform="translate(0 -367.25)"/><path class="cls-2" d="M460.21,445.76a1.36,1.36,0,0,1-1.19,1.5l-10.45,1s0,0,0,0v.06q3.69,1.81,12,1.2a.56.56,0,0,1,.6.3.65.65,0,0,1,0,.67,18.23,18.23,0,0,0-1.46,3.05,2.46,2.46,0,0,1-.73.93,1.87,1.87,0,0,1-1.09.4,32,32,0,0,1-8.84-.84,14.19,14.19,0,0,1-5.94-3.22.14.14,0,0,0-.22,0q-3.36,4.45-13.93,6.95l-.26,0a2.06,2.06,0,0,1-.89-.11,2.51,2.51,0,0,1-1-.75c-.53-.73-1.12-1.48-1.78-2.23a.75.75,0,0,1,0-.95.75.75,0,0,1,.45-.28q7.75-1.66,11-4l0-.06,0,0-10.38,1a1.27,1.27,0,0,1-1-.31,1.32,1.32,0,0,1-.49-.92l-.18-1.9a1.24,1.24,0,0,1,.3-1,1.28,1.28,0,0,1,.89-.49l13.14-1.29c.1,0,.15-.08.14-.21l-.2-2a1.3,1.3,0,0,1,.31-1,1.32,1.32,0,0,1,.93-.47l2.87-.29a1.33,1.33,0,0,1,1,.29,1.29,1.29,0,0,1,.47.91l.19,2a.17.17,0,0,0,.21.17l5.11-.5s0,0,0,0v-.05l-1.64-.34a1,1,0,0,1-.69-.54.84.84,0,0,1,.05-.85l.66-1.1s0,0,0,0a.69.69,0,0,1-.78-.5,15.1,15.1,0,0,0-.79-1.87.15.15,0,0,0-.24-.05l-2.21,1.59a1.26,1.26,0,0,1-1,.21,1.62,1.62,0,0,1-.92-.52,13.77,13.77,0,0,0-1.71-1.86,1,1,0,0,1-.35-.86,1.06,1.06,0,0,1,.45-.83l.68-.49s0,0,0,0,0,0,0,0l-2.58.25a1.26,1.26,0,0,1-1-.31,1.35,1.35,0,0,1-.47-.89l-.11-1.13a1.32,1.32,0,0,1,.29-1,1.28,1.28,0,0,1,.91-.49l.38,0c.12,0,.16-.06.1-.16-.34-.53-.72-1.08-1.16-1.64a.67.67,0,0,1-.15-.74.72.72,0,0,1,.56-.49c.88-.19,1.71-.38,2.51-.59.1,0,.11-.06,0-.16-.3-.25-.76-.58-1.36-1a.35.35,0,0,0-.31,0,.44.44,0,0,1-.15.05,2.46,2.46,0,0,1-.52.13,1.9,1.9,0,0,1-1.6-.73c-.4-.42-.79-.8-1.18-1.14,0,0-.06,0-.08,0a0,0,0,0,0,0,.06l1.58,16.13a1.23,1.23,0,0,1-.31,1,1.35,1.35,0,0,1-.92.47l-2.39.23a1.33,1.33,0,0,1-1-.28,1.28,1.28,0,0,1-.49-.91l-.54-5.53c0-.13-.08-.18-.21-.17l-1.1.11c-.1,0-.14.07-.13.2a15.92,15.92,0,0,1-.17,3.5,9,9,0,0,1-1.25,3.48,1.4,1.4,0,0,1-.93.61,1.71,1.71,0,0,1-1.12-.14c-.62-.29-1.27-.57-2-.84a1,1,0,0,1-.58-.65,1,1,0,0,1,.13-.87,8.6,8.6,0,0,0,1-4.61.17.17,0,0,0-.21-.17l-.64.07a1.3,1.3,0,0,1-1-.31,1.33,1.33,0,0,1-.47-.89l-.16-1.63a1.32,1.32,0,0,1,.29-1,1.21,1.21,0,0,1,.9-.49l7-.69c.13,0,.18-.07.17-.17l-.12-1.25c0-.13-.08-.18-.21-.17l-5.3.52a1.25,1.25,0,0,1-1-.29,1.24,1.24,0,0,1-.47-.91l-.59-5.94a1.35,1.35,0,0,1,.29-1,1.23,1.23,0,0,1,.9-.5l2-.19a1.35,1.35,0,0,1,1,.3,1.34,1.34,0,0,1,.49.93l.28,2.88c0,.13.07.18.17.17l1.82-.17a.17.17,0,0,0,.17-.21l-.39-4a1.34,1.34,0,0,1,.31-1,1.2,1.2,0,0,1,.88-.49l2.39-.24a1.34,1.34,0,0,1,1,.31,1.27,1.27,0,0,1,.5.92l.27,2.73c0,.1.06.13.16.1q6.32-1.89,9.36-4.32a3.14,3.14,0,0,1,1.72-.78,2.57,2.57,0,0,1,.62,0l2.12.25a.66.66,0,0,1,.49.41.54.54,0,0,1-.12.59s0,.05,0,.08a.06.06,0,0,0,.06,0l3.6-.35.18-.06a2.37,2.37,0,0,1,.42-.08,2.47,2.47,0,0,1,1,.13l1.07.39a1.16,1.16,0,0,1,.72.7,1,1,0,0,1-.06,1,16.28,16.28,0,0,1-6.22,6s0,0,0,0L453,428a1.3,1.3,0,0,1,1,.31,1.36,1.36,0,0,1,.47.93l.08.79c0,.13.08.18.21.17l3.29-.32a1.26,1.26,0,0,1,1,.3,1.33,1.33,0,0,1,.47.9l.11,1.13a1.28,1.28,0,0,1-.29,1,1.26,1.26,0,0,1-.91.49l-3.29.32c-.13,0-.18.08-.17.21l.13,1.32a5.85,5.85,0,0,1-.17,2.54,2.69,2.69,0,0,1-1.43,1.41,5.88,5.88,0,0,1-1.37.51s0,0,0,.08c1.41.27,2.6.54,3.6.8a1.08,1.08,0,0,1,.65,1.58l-.2.32q-.06.17.09.15l2.39-.24a1.37,1.37,0,0,1,1.46,1.2Zm-18-20.26s0,0-.05.06,0,.07.07.09c.54.36,1.12.79,1.73,1.29a.3.3,0,0,0,.31,0c.32-.11.75-.27,1.29-.51,0,0,0,0,.05-.06a.08.08,0,0,0,0-.09c-.71-.47-1.43-.89-2.15-1.28a.32.32,0,0,0-.3,0Zm6.86,5.26c.11,0,.15-.08.14-.21l-.15-1.48c0-.1-.06-.13-.16-.09a36.47,36.47,0,0,1-6.5,2.39v0Zm.55,4c0-.13-.07-.19-.17-.18l-5.23.52s0,0,0,.06,0,.06,0,.05a17.76,17.76,0,0,1,1.52,1.46.38.38,0,0,0,.28.09l3.15-.27a.9.9,0,0,0,.48-.16.52.52,0,0,0,.11-.44Zm.8-11.25a.06.06,0,0,0,0-.08l-.06,0-3.79.37s0,0,0,0a.15.15,0,0,0,0,.07c.7.39,1.28.73,1.74,1a.2.2,0,0,0,.27,0A14,14,0,0,0,450.41,423.47Z" transform="translate(0 -367.25)"/><path class="cls-2" d="M495.49,423a1.33,1.33,0,0,1,1,.3,1.28,1.28,0,0,1,.49.89l.17,1.71a1.39,1.39,0,0,1-1.23,1.5l-32.39,3.17a1.35,1.35,0,0,1-1.49-1.23l-.17-1.7a1.31,1.31,0,0,1,.31-1,1.34,1.34,0,0,1,.92-.49l6.48-.64c.1,0,.13-.06.1-.16q-.26-.58-.54-1.17a.5.5,0,0,1,0-.47.49.49,0,0,1,.35-.29l-4.16.41a1.26,1.26,0,0,1-1-.3,1.32,1.32,0,0,1-.47-.93l-.17-1.67a1.31,1.31,0,0,1,.29-1,1.24,1.24,0,0,1,.91-.49l10.57-1c.1,0,.14-.08.13-.21l-.07-.71a1.36,1.36,0,0,1,1.23-1.5l3.25-.32a1.31,1.31,0,0,1,1,.3,1.34,1.34,0,0,1,.49.93l.07.72c0,.12.07.18.17.17l11-1.08a1.35,1.35,0,0,1,1,.3,1.32,1.32,0,0,1,.49.89l.16,1.67a1.29,1.29,0,0,1-.3,1,1.31,1.31,0,0,1-.93.5l-3.14.31a.25.25,0,0,0-.22.17c-.06.13-.3.76-.73,1.87,0,.1,0,.15.09.14Zm2.35,20.11a1.29,1.29,0,0,1,1,.31,1.34,1.34,0,0,1,.49.93l.17,1.74a1.3,1.3,0,0,1-.3,1,1.32,1.32,0,0,1-.89.49l-13.53,1.32c-.1,0-.14.08-.13.21l.2,2a1.3,1.3,0,0,1-.3,1,1.34,1.34,0,0,1-.93.49l-3.26.32a1.29,1.29,0,0,1-1-.3,1.28,1.28,0,0,1-.49-.89l-.2-2.05c0-.12-.07-.18-.17-.17l-13.14,1.29a1.35,1.35,0,0,1-1-.3,1.32,1.32,0,0,1-.49-.89l-.17-1.75a1.35,1.35,0,0,1,1.23-1.49L478,445a.14.14,0,0,0,.14-.17l-.09-.91c0-.1-.06-.14-.17-.13l-9.2.9a1.33,1.33,0,0,1-1-.3,1.31,1.31,0,0,1-.5-.93l-1-10.57a1.29,1.29,0,0,1,.3-1,1.35,1.35,0,0,1,.93-.5l25-2.44a1.35,1.35,0,0,1,1.49,1.23l1,10.56a1.31,1.31,0,0,1-.3,1,1.34,1.34,0,0,1-.93.49l-9.47.93a.14.14,0,0,0-.14.17l.09.9a.14.14,0,0,0,.17.14Zm-25.76-8.41c-.1,0-.14.07-.13.17l.09.95c0,.1.07.14.17.13l16-1.57c.12,0,.18-.07.17-.17l-.09-.94c0-.1-.08-.15-.2-.14Zm.47,4.7a.14.14,0,0,0-.14.17l.09.94a.14.14,0,0,0,.17.14l16-1.57c.13,0,.18-.07.17-.17l-.09-.95c0-.1-.08-.14-.2-.13Zm11-17.18c0-.1,0-.15-.17-.13l-8.48.83c-.13,0-.16.06-.1.16a14.71,14.71,0,0,1,.85,1.68c0,.12.11.18.21.17l7-.69a.24.24,0,0,0,.21-.18C483.32,423.15,483.46,422.54,483.56,422.17Z" transform="translate(0 -367.25)"/><path class="cls-2" d="M511.46,415.8a1.28,1.28,0,0,1,1,.31,1.31,1.31,0,0,1,.5.93l2.05,20.9a1.37,1.37,0,0,1-1.2,1.46L508,440c-.11,0-.15.08-.14.21l.18,1.78a1.32,1.32,0,0,1-.31,1,1.34,1.34,0,0,1-.93.49l-2.38.23a1.36,1.36,0,0,1-1.5-1.19l-2.37-24.2a1.31,1.31,0,0,1,.3-1,1.34,1.34,0,0,1,.93-.49Zm-3.3,5.72c0-.1-.08-.15-.21-.13l-1.74.17c-.1,0-.15.06-.14.16l1.27,12.92c0,.12.07.18.17.17l1.74-.17a.16.16,0,0,0,.17-.21Zm17.18,21.18,6.1-.6a2.09,2.09,0,0,0,1.68-.81,6.13,6.13,0,0,0,.5-2.65A.74.74,0,0,1,534,438a1,1,0,0,1,.83-.08,16.53,16.53,0,0,0,2.69.84,1.86,1.86,0,0,1,1,.56,1.52,1.52,0,0,1,.31.77.9.9,0,0,1,0,.23q-.22,3.54-1.62,5.07a7.07,7.07,0,0,1-4.66,1.86l-7.31.71a11.46,11.46,0,0,1-4.46-.23,4.15,4.15,0,0,1-2.43-2.13,13.82,13.82,0,0,1-1.16-4.84l-2.44-24.84a1.37,1.37,0,0,1,1.24-1.46l17.31-1.7a1.29,1.29,0,0,1,1,.3,1.28,1.28,0,0,1,.49.89l1.9,19.39a1.31,1.31,0,0,1-.3,1,1.34,1.34,0,0,1-.93.49l-2.76.27a1.31,1.31,0,0,1-1-.3,1.34,1.34,0,0,1-.49-.93l-.06-.64c0-.13-.07-.19-.17-.18l-8.71.86c-.11,0-.15.08-.14.2l.6,6.1a4.19,4.19,0,0,0,.61,2.27C523.57,442.72,524.25,442.81,525.34,442.7Zm-2.85-23.54c0-.13-.08-.19-.2-.17l-1.52.14c-.1,0-.14.08-.13.21l.91,9.31a.14.14,0,0,0,.17.14l1.51-.15c.13,0,.19-.07.18-.17Zm7.94,8.78a.14.14,0,0,0,.14-.17l-.92-9.32c0-.12-.07-.18-.17-.17l-1.78.17c-.1,0-.14.08-.13.21l.91,9.31a.14.14,0,0,0,.17.14Z" transform="translate(0 -367.25)"/><path class="cls-2" d="M547.65,432a1.35,1.35,0,0,1-1-.3,1.39,1.39,0,0,1-.55-.92l-2-11.84-.66-4.76a1.27,1.27,0,0,1,.29-1,1.23,1.23,0,0,1,.87-.47l4.28-.42a1.24,1.24,0,0,1,.94.29,1.26,1.26,0,0,1,.47.91l.28,4.79.3,12a1.46,1.46,0,0,1-.36,1,1.38,1.38,0,0,1-.94.49Zm4.87,9.33a4.41,4.41,0,0,1-6,.59A4.13,4.13,0,0,1,545,439a4.24,4.24,0,0,1,.91-3.17,4.11,4.11,0,0,1,2.87-1.52,4.06,4.06,0,0,1,3.12.94,4.19,4.19,0,0,1,1.51,2.93A4.13,4.13,0,0,1,552.52,441.31Z" transform="translate(0 -367.25)"/><path class="cls-2" d="M179.21,449.19a1.87,1.87,0,0,1,.52-.12,1.89,1.89,0,0,1,1,.19l2.29,1.16a1.21,1.21,0,0,1,.68.77,1.31,1.31,0,0,1-.08,1,30.94,30.94,0,0,1-6.76,8.19s-.06.06,0,.09,0,.06.06,0a56,56,0,0,0,11.44,1.78.7.7,0,0,1,.6.42.89.89,0,0,1,.07.26.72.72,0,0,1-.15.46,27.85,27.85,0,0,0-1.73,3.29,2.22,2.22,0,0,1-.78.83,1.61,1.61,0,0,1-1.06.26l-1.52-.18c-.1,0-.14,0-.13.16l1.25,12.37a1.35,1.35,0,0,1-1.21,1.44L180,482a.89.89,0,0,1-.67-.22.88.88,0,0,1-.35-.62c0-.07-.05-.11-.12-.1l-12,1.21c-.1,0-.15.06-.14.13a1.1,1.1,0,0,1-1,1.19l-3.23.32a1.25,1.25,0,0,1-1-.29,1.3,1.3,0,0,1-.46-.88l-1.27-12.55c0-.13-.08-.16-.2-.09l-2.35.83a1.45,1.45,0,0,1-1.08-.06,1.83,1.83,0,0,1-.84-.72,18,18,0,0,0-1.68-2.49.86.86,0,0,1-.15-.81.79.79,0,0,1,.58-.55,60.81,60.81,0,0,0,11.35-4.64s0,0,0-.06a.18.18,0,0,0,0-.09,29.91,29.91,0,0,1-3.52-2.53.21.21,0,0,0-.27,0,42,42,0,0,1-3.46,3.24,1.47,1.47,0,0,1-1,.31,1.73,1.73,0,0,1-1-.41,28.89,28.89,0,0,0-2.46-2,1,1,0,0,1-.36-.77.86.86,0,0,1,.4-.73,30.17,30.17,0,0,0,5.41-4.79,27.93,27.93,0,0,0,4-5.74,1.66,1.66,0,0,1,.78-.79,1.5,1.5,0,0,1,.54-.16,1.44,1.44,0,0,1,.54.05l2.84.69a1,1,0,0,1,.74.57,1,1,0,0,1,0,.94l-.44.87c-.06.1,0,.15.09.14L179,449.25A.42.42,0,0,0,179.21,449.19Zm-17.12,19.93s0,0,0,0l18.76-1.9v0a47.08,47.08,0,0,1-9.43-2.69.32.32,0,0,0-.3,0A62.43,62.43,0,0,1,162.09,469.12Zm13-14.6a0,0,0,0,0,0-.07,0,0,0,0,0-.06,0l-9.43.95c-.05,0-.08,0-.08.05v.07a30.26,30.26,0,0,0,5,2.87.32.32,0,0,0,.3,0A29.11,29.11,0,0,0,175.1,454.52Zm-8.89,22.74c0,.1.08.15.2.13l11.89-1.2c.13,0,.18-.07.17-.16l-.33-3.27a.16.16,0,0,0-.2-.17l-11.89,1.2a.17.17,0,0,0-.17.21Z" transform="translate(0 -367.25)"/></svg>