<svg xmlns="http://www.w3.org/2000/svg" xmlns:xlink="http://www.w3.org/1999/xlink" viewBox="0 0 942.15 614.96"><defs><style>.\30 164fae5-2371-443f-8633-1f9ef0933fc9,.\35 514a755-c5ae-48a9-a4f0-d1afdb2502ab{fill:none;}.e27543cf-06d5-4201-8957-fcc091bca3af{clip-path:url(#c4fc8c2c-ba4e-4adc-994b-320d5a662bc3);}.\30 f3bece8-25e8-4578-996c-cae55c449562,.a8aa84b8-774e-45e6-972c-e6a9d0035830{fill:#c7e3c0;}.\30 f3bece8-25e8-4578-996c-cae55c449562,.\35 514a755-c5ae-48a9-a4f0-d1afdb2502ab{stroke:#304634;}.\30 f3bece8-25e8-4578-996c-cae55c449562,.\35 514a755-c5ae-48a9-a4f0-d1afdb2502ab,.\38 59dcb15-20bb-48ae-a565-30517dad22ad{stroke-miterlimit:10;}.\31 4292e24-5921-465b-bf69-1122f7ff9761,.\38 59dcb15-20bb-48ae-a565-30517dad22ad{fill:#fff;}.\38 59dcb15-20bb-48ae-a565-30517dad22ad{stroke:#d2cecc;}.fd561dd8-df52-45c1-a9ec-00b635b54933{fill:#82a188;}.\37 d970217-490f-4bf2-8214-f72eb7795409{fill:#bcdbc0;}.\31 b0d25e6-2036-4a31-9d50-66d66d029a3e{fill:#82a088;}.\39 4af0bc7-205a-4d77-a6df-fb755e7b75ed{fill:#c2d8bf;}</style><clipPath id="c4fc8c2c-ba4e-4adc-994b-320d5a662bc3" transform="translate(0 -88.9)"><rect class="0164fae5-2371-443f-8633-1f9ef0933fc9" x="123.78" width="612" height="643.97"/></clipPath></defs><title>資產 1</title><g id="8a743aa3-be49-46fc-bf2e-dd17499ce7da" data-name="圖層 2"><g id="632c867d-3f0a-4ca9-8880-e51a7f0d9dbe" data-name="圖層 1"><g class="e27543cf-06d5-4201-8957-fcc091bca3af"><polygon class="0f3bece8-25e8-4578-996c-cae55c449562" points="941.37 280.74 765.54 614.39 263.03 509.56 426.12 362.52 570.23 232.56 941.37 280.74"/><path class="859dcb15-20bb-48ae-a565-30517dad22ad" d="M411,350.44l-254.43-40c-62.6-13.33-79.73,14.13-79.73,14.13S-45.61,484.36,19.66,497.92s187.19,44.26,315.39-14.41c30.28-13.86,41.4-24.61,53.38-49.71,6.37-13.35,40.74,18.83,71.54,15.6,18.21-1.91,64.19-83.09,43.53-131.35-2.77-6.48-45.75-18.49-59.42,0-6.84,9.26-9.67,57.11-12.18,54.28-8.34-9.38-11.69-8.82-11.33-10.94,1.13-6.66-4.64-10.95-4.64-10.95Z" transform="translate(0 -88.9)"/><path class="fd561dd8-df52-45c1-a9ec-00b635b54933" d="M203.86,373.14c5,18.39,86.45,36.09,116.54,39.11l13.52,1.12,84.32-49.55c19.23-5,30.75-24,25.74-42.38l21.93-192.83s-9.67-14.9-10.78-15.75c-1.5-5.77-78.57-28.25-97.8-23.23l-157,56.63c-19.23,5-30.76,24-25.75,42.38Z" transform="translate(0 -88.9)"/><path class="7d970217-490f-4bf2-8214-f72eb7795409" d="M453.42,331.72c1.13,14.74-10.82,22.57-27.58,32.39l-91.92,49.26c-16.8,1.22-28.56-8-29.65-23.07L266.14,199.24c-1.09-15.08,11.65-28.29,28.44-29.51l148.85-58.38c16.8-1.21,31.3,10,32.36,25.44Z" transform="translate(0 -88.9)"/><path class="14292e24-5921-465b-bf69-1122f7ff9761" d="M319,259.47l11.49,105.65s63.64-5.29,66.75,1.19l19.3-9.48s7.71-27,22.36-25c0,0,2.58-158.83,3.12-160.59s-25.7,4.86-53.86,53.86c0,0-28.09-5.44-68.36,13.5Z" transform="translate(0 -88.9)"/><path class="1b0d25e6-2036-4a31-9d50-66d66d029a3e" d="M372.91,280.64c.21,6.64-3.16,12.18-7.54,12.38s-8.1-5-8.31-11.68,3.16-12.19,7.54-12.38S372.7,274,372.91,280.64Z" transform="translate(0 -88.9)"/><path class="1b0d25e6-2036-4a31-9d50-66d66d029a3e" d="M426.72,262c.2,6.65-3.17,12.18-7.55,12.37s-8.1-5-8.31-11.68,3.17-12.18,7.55-12.37S426.51,255.37,426.72,262Z" transform="translate(0 -88.9)"/><polygon class="1b0d25e6-2036-4a31-9d50-66d66d029a3e" points="401.87 230.71 392.84 230.78 392.61 196.4 401.87 192.08 401.87 230.71"/><path class="1b0d25e6-2036-4a31-9d50-66d66d029a3e" d="M396.5,312.14s-14.54-5.78-20.2,4.25-5.05,20.49-17.78,16.4c0,0,42.14,24.15,38.3-19.53" transform="translate(0 -88.9)"/><path class="1b0d25e6-2036-4a31-9d50-66d66d029a3e" d="M396.82,312.31S405,302,412.9,307.75s11.45,14.23,19,6c0,0-20.93,35.58-34.87-.44" transform="translate(0 -88.9)"/><path class="14292e24-5921-465b-bf69-1122f7ff9761" d="M313.4,242.77S293.78,226.2,315.74,206s30.61,22.68,29.36,24.49-25.79,16.7-25.79,16.7Z" transform="translate(0 -88.9)"/><path class="94af0bc7-205a-4d77-a6df-fb755e7b75ed" d="M324.46,240.87s-11.33-9.56,1.35-21.22,17.68,13.09,17,14.14-14.89,9.64-14.89,9.64Z" transform="translate(0 -88.9)"/><path class="14292e24-5921-465b-bf69-1122f7ff9761" d="M446,206.22s21.59-13.76.76-36.95-33.41,18.31-32.28,20.29,25.06,20.26,25.06,20.26Z" transform="translate(0 -88.9)"/><path class="94af0bc7-205a-4d77-a6df-fb755e7b75ed" d="M438.9,202s10.34-10.57-4.41-20.88S418.1,195.83,419,196.8s16.75,8.11,16.75,8.11Z" transform="translate(0 -88.9)"/><path class="859dcb15-20bb-48ae-a565-30517dad22ad" d="M242,417s-54.31,66.62-11.33,97.46c35.51,25.48,101.22,40,142.18,30.72,8.62-1.95,16.14-5,22.05-9.15,34-24.08,31.5-88.78-53.41-85.73S242,417,242,417Z" transform="translate(0 -88.9)"/><path class="14292e24-5921-465b-bf69-1122f7ff9761" d="M281.44,455.62c-2.84,25.59-30.23,43.54-61.18,40.1s-53.74-27-50.9-52.55,30.25-43.53,61.19-40.09S284.28,430,281.44,455.62Z" transform="translate(0 -88.9)"/><path class="14292e24-5921-465b-bf69-1122f7ff9761" d="M436.65,357.16c1.35,29.53,34.1-34.55,19.11-45.78,0,0-6.1,2-9.24,6.35C440.47,326,436,341.63,436.65,357.16Z" transform="translate(0 -88.9)"/><path class="0f3bece8-25e8-4578-996c-cae55c449562" d="M500,392.43,523,396.38s-16.52,10.66-4,19c14.3,9.53,26-5.2,26-14.94l28,5.4,26.53-28.58s-9,.3-10.64-9,20.33-8.47,23.73-4.24l26.79-29" transform="translate(0 -88.9)"/><path class="0f3bece8-25e8-4578-996c-cae55c449562" d="M573.09,405.87l49.25,9.22s-4.66-11.35,8.9-11.78,24.22,8.4,14,15.18l26.4,5.17,21.61-24s-22-2.55-18.65-8.48c0,0,15-16.84,28.5-2.43l32.73-39.41" transform="translate(0 -88.9)"/><path class="0f3bece8-25e8-4578-996c-cae55c449562" d="M421.2,455.54l38,8.18s-1.46-19.61,17.61-13.68,4.67,18.27-.64,17.16l33.34,7,15.92-14.83s8.47,11.44,18.64.42.9-14.4-7-14.4l35.35-37.92" transform="translate(0 -88.9)"/><path class="0f3bece8-25e8-4578-996c-cae55c449562" d="M510.21,475.16,551.8,484s-15.36,8.47-6,15.25,20.54,8,25-11.62l43,9.71,11.52-15.14s-16-2.11-13.43-13.13,20-10.91,24.15-1.6l35.59-43.85" transform="translate(0 -88.9)"/><path class="0f3bece8-25e8-4578-996c-cae55c449562" d="M671.59,423.66,711,431.3s-21.18,10.9-1.27,18.11,16.42-8.69,16.84-15.26l52,9.75-26,37.18s18.07,2,6.21,16-14.65-.53-15.28-2.22S724.85,521,724.85,521l-44-10.22s6-10.7-.74-14.5c-11.11-6.26-22.46-1.38-17.92,11.06l-48.39-9.91Z" transform="translate(0 -88.9)"/><path class="5514a755-c5ae-48a9-a4f0-d1afdb2502ab" d="M378.44,543.7s-31.38,6.76-14,18.61,28.81-9.53,27.54-17.58l45.47,9.51,20.62-23.7s-16.1-3.39-13.13-8.48,13.56-19.91,24.57-3.81l40-44.06" transform="translate(0 -88.9)"/><path class="5514a755-c5ae-48a9-a4f0-d1afdb2502ab" d="M611.43,497.92,590.9,523.85c3,1.28,17.14,3.3,8.88,16.11-13,20.07-23.09,1.17-23.09,1.17l-29,36.17S498,567,500.27,567.22s21-7.88,0-14.23-18.06,10.6-18.06,10.6l-44.77-9.35-23.86,24.81s16.84,2.22,7.62,14.3-21.29,6-21.29,1.27l-24.15,25.73" transform="translate(0 -88.9)"/><path class="0f3bece8-25e8-4578-996c-cae55c449562" d="M547.67,577.3l50.84,10.17s-22.37,7.38-3,14.58,21.41.51,22.25-10.93l52,10.64,21.39-28s8,16.94,19.91-1.28-4.4-19.49-9.06-17.37L724.85,521" transform="translate(0 -88.9)"/><polygon class="a8aa84b8-774e-45e6-972c-e6a9d0035830" points="631.24 395.24 623.72 391.11 629.01 376.67 638.17 381.64 631.24 395.24"/><path class="5514a755-c5ae-48a9-a4f0-d1afdb2502ab" d="M547.67,577.3l-25.74,30s-11.72-14-21.61-2.14c-12.43,14.89,8.7,14.21,12.61,15.16L493.6,644" transform="translate(0 -88.9)"/><polyline class="0f3bece8-25e8-4578-996c-cae55c449562" points="757.6 531.45 670.02 513.38 640.14 555.07"/></g></g></g></svg>