<?xml version="1.0" encoding="utf-8"?>
<!-- Generator: Adobe Illustrator 21.0.0, SVG Export Plug-In . SVG Version: 6.00 Build 0)  -->
<svg version="1.1" id="圖層_1" xmlns="http://www.w3.org/2000/svg" xmlns:xlink="http://www.w3.org/1999/xlink" x="0px" y="0px"
	 viewBox="0 0 370 346.6" style="enable-background:new 0 0 370 346.6;" xml:space="preserve">
<style type="text/css">
	.st0{clip-path:url(#SVGID_2_);}
	.st1{fill:#A58FB0;}
	.st2{fill:#FFFFFF;stroke:#BEBDBE;stroke-miterlimit:10;}
	.st3{fill:none;stroke:#A58FB0;stroke-width:5;stroke-miterlimit:10;}
	.st4{fill:none;stroke:#A58FB0;stroke-width:5;stroke-linecap:round;stroke-miterlimit:10;}
	.st5{fill:none;stroke:#A58FB0;stroke-width:2;stroke-linecap:round;stroke-miterlimit:10;}
	.st6{fill:#6D6275;}
	.st7{fill:none;stroke:#BEBDBE;stroke-linecap:round;stroke-linejoin:round;stroke-miterlimit:10;}
	.st8{fill:#FFFFFF;}
	.st9{fill:#373838;}
	.st10{fill:#2F3030;}
	.st11{fill:#3F3F3F;}
	.st12{fill:none;stroke:#504E4C;stroke-width:5;stroke-miterlimit:10;}
	.st13{fill:none;stroke:#88807E;stroke-miterlimit:10;}
	.st14{fill:#201E1E;}
	.st15{opacity:0.5;fill:url(#SVGID_3_);}
	.st16{opacity:0.4;fill:url(#SVGID_4_);}
	.st17{opacity:0.5;fill:url(#SVGID_5_);}
	.st18{opacity:0.4;fill:url(#SVGID_6_);}
	.st19{fill:#EFEAB1;stroke:#BEBDBE;stroke-miterlimit:10;}
	.st20{fill:none;stroke:#BEBDBE;stroke-miterlimit:10;}
	.st21{fill:#567351;stroke:#73B18F;stroke-miterlimit:10;}
	.st22{fill:#567351;stroke:#73B18F;stroke-linecap:round;stroke-miterlimit:10;}
</style>
<g>
	<defs>
		<polyline id="SVGID_1_" points="-17.9,346.6 -17.9,-53.2 382.8,-53.2 382.8,346.6 		"/>
	</defs>
	<clipPath id="SVGID_2_">
		<use xlink:href="#SVGID_1_"  style="overflow:visible;"/>
	</clipPath>
	<g class="st0">
		<g>
			<path class="st1" d="M133,325l85.9-275.4c0,0,6.2-29.5-25.6-43.4c0,0,2.4,18.7-3.7,22.4c0,0-31.1-37.8-97.8-11.3
				c0,0,18.2,23.5,6,29c0,0-35,2.4-60,27.6c0,0,28.9,17.2,26.4,24.2c0,0-36.5,4.6-60.1,39.6c0,0,37.5,23.4,36,26.5
				c0,0-21.4,15.3-23.8,20.6c-2.4,5.3,47.2,47.3,47.2,47.3S62,241.5,49,245.7C49,245.7,112.5,321.1,133,325z"/>
			<path class="st2" d="M117,87.7c0,0-22.2-12.3-40.7,10.7c0,0-7.4,13.7,11.7,34c0,0,0.8,45.4,4.1,69.9
				c2.5,18.1-13.2,95.3-3.4,140.8c3.7,17.2,120.6,32.3,123.8,28.3c1.7-2.3,32.4,13.3,49.9-24.6c0.8-1.6,17.5-9.7,20.3-29.3
				c5.4-37.2-3.2-43.8-6.7-67.8c-3.6-24.6-3.4-41.7-9.7-57.4c0,0-20.5-79.7-34.1-99.9c0,0,21.1-13,10.7-30.6
				c-10.4-17.6-23.9-15.2-31.6-6.8c-1.3,1.5-7.5,6.4-9.7,11.8C191.8,91.3,117,84.5,117,87.7z"/>
			
				<ellipse transform="matrix(0.8619 -0.507 0.507 0.8619 -30.0074 134.7386)" class="st3" cx="232.4" cy="122.5" rx="28.3" ry="28.3"/>
			
				<ellipse transform="matrix(0.8619 -0.507 0.507 0.8619 -52.0833 101.512)" class="st3" cx="160.4" cy="146.4" rx="32.7" ry="32.7"/>
			<g>
				<path class="st4" d="M182.8,160.1c0,0-7.3,9.6,3,10c10.3,0.3,14.8-7,16.9-10"/>
				<path class="st4" d="M207.8,158.1c0,0,10.6,9.1,16.4,3.8c0.1-0.1,0.2-0.2,0.3-0.2c5.7-5.8,6.2-10.4,2.2-11.9"/>
				<path class="st1" d="M202,159.3c0,0-8.1-5.7-7.2-9.8c0.9-4.1,14.1-6.2,16-6.1c1.9,0.1,4.3,6-1,14.6
					C209.8,157.9,205.7,162.4,202,159.3z"/>
			</g>
			<line class="st5" x1="193.8" y1="141.1" x2="208.1" y2="137.8"/>
			<path class="st1" d="M212.6,69.1l15.9,10.6c0,0,8.6-8.1,1.5-16.5C222.9,54.8,212.6,69.1,212.6,69.1z"/>
			<path class="st6" d="M115.7,83.2c0,0,14.3,31.9,36.9,34.6c0,0-9.6-9.8-8.3-18.8c0,0,22.3,14.5,32.1,11.5c0,0-8.6-4.3-11.3-8.8
				c0,0,21.5,5.6,36.6,1.1c0,0-18.5-9-17.5-15.7c0,0,28.5,2.5,34.1,9.2c5.6,6.7,18.4-36.2-43.2-48C113.6,36.4,116.5,73.3,115.7,83.2
				z"/>
			<path class="st1" d="M113.5,84.5c0,0,17,30.3,39.1,33.3c0,0-12.1-8.3-11-17.3c0,0,25.3,12.7,34.8,9.9c0,0-11.8-2.5-14.4-7
				c0,0,25.1,3.4,39.7-0.7c0,0-22.3-6.8-21.4-13.4c0,0,32.5,0.2,38,6.9c5.5,6.7,12.8-32.9-47.4-45.5
				C110.7,38.1,114.2,74.7,113.5,84.5z"/>
			<path class="st1" d="M164.1,144.9c1.3,6.1-0.5,11.6-4.1,12.4c-3.5,0.7-7.4-3.6-8.7-9.7c-1.3-6.1,0.5-11.6,4.1-12.4
				C159,134.4,162.8,138.8,164.1,144.9z"/>
			<path class="st1" d="M230.8,125.8c1.3,6.1-0.5,11.6-4.1,12.4c-3.5,0.7-7.4-3.6-8.7-9.7c-1.3-6.1,0.5-11.6,4.1-12.4
				C225.6,115.4,229.5,119.7,230.8,125.8z"/>
			<path class="st1" d="M106.5,118.7l9.1-16.8c0,0-8.9-7.9-16.6,0C91.4,109.8,106.5,118.7,106.5,118.7z"/>
		</g>
		<path class="st7" d="M283.9,236.4c-1.7,6.2-9.1,14.6-14.6,21.5c-5.5,6.9-14.6,12.1-33,18.2l-18-3.9c-11.8-8.4-18.5-21.1-7.5-43.6
			c11.1-22.5,46.9-39.4,46.9-39.4s9.6-4.8,22,5.1C286.9,200.1,285.6,230.2,283.9,236.4z"/>
		<path class="st8" d="M284.8,218.3c0,0,0.6,11.3-1.2,19.3c-4.7,13.3-34.1,33.9-47.5,36.3l-16.6-10.7c9.3-1.7,38-73.1,38-73.1
			s7.1-2.8,14.1-0.2C281.7,193.7,285.3,201,284.8,218.3z"/>
		<g>
			<path class="st9" d="M264.6,94.3c0,0-73.4-1.5-90.1,28c0,0,51.4-7.9,52.1-5.2C227.4,119.8,264.6,94.3,264.6,94.3z"/>
			<path class="st10" d="M264.7,94.3c0,0-28.3,0.5-41,20.3c0,0,31.9-3.4,41.1,1.4L264.7,94.3z"/>
			<g>
				<polygon class="st11" points="319.2,186.9 230.3,164 234,117.5 325.2,106.2 				"/>
				<g>
					<ellipse class="st11" cx="325.2" cy="146.5" rx="37.9" ry="40.8"/>
					<ellipse class="st12" cx="323.4" cy="146.9" rx="30.5" ry="32.3"/>
					<path class="st13" d="M358.5,151.7c0,19.1-13.6,34.7-30.3,34.7c-16.7,0-30.3-15.5-30.3-34.7c0-19.2,13.6-34.7,30.3-34.7
						C344.9,117.1,358.5,132.6,358.5,151.7z"/>
				</g>
				<path class="st11" d="M257.4,141c0,13.2-10.4,24-23.3,24c-12.8,0-23.3-10.7-23.3-24c0-13.2,10.4-23.9,23.3-23.9
					C247,117.1,257.4,127.8,257.4,141z"/>
			</g>
			<path class="st10" d="M264.6,94.3c0,0,23.7,3.2,29.2,16c-5.3,1.9-15,5.1-22.9,10.1l-6.2-13.3V94.3z"/>
			<circle class="st14" cx="264.8" cy="110.9" r="9.5"/>
			<g>
				<polygon class="st11" points="243.1,192.1 154.2,169.2 157.9,122.7 249.1,111.4 				"/>
				<ellipse class="st11" cx="158" cy="146.2" rx="23.3" ry="23.9"/>
				<g>
					<ellipse class="st11" cx="249.1" cy="151.7" rx="37.9" ry="40.8"/>
					<path class="st12" d="M277.8,152c0,17.8-13.7,32.3-30.5,32.3c-16.8,0-30.5-14.5-30.5-32.3c0-17.8,13.7-32.3,30.5-32.3
						C264.1,119.8,277.8,134.2,277.8,152z"/>
					<path class="st13" d="M282.4,156.9c0,19.1-13.6,34.7-30.3,34.7c-16.8,0-30.3-15.5-30.3-34.7c0-19.1,13.6-34.7,30.3-34.7
						C268.8,122.3,282.4,137.8,282.4,156.9z"/>
				</g>
			</g>
			<linearGradient id="SVGID_3_" gradientUnits="userSpaceOnUse" x1="247.2811" y1="119.6671" x2="246.1182" y2="170.835">
				<stop  offset="0.3122" style="stop-color:#0A2F50"/>
				<stop  offset="0.408" style="stop-color:#03434E"/>
				<stop  offset="0.5205" style="stop-color:#02564A"/>
				<stop  offset="0.6354" style="stop-color:#036645"/>
				<stop  offset="0.7523" style="stop-color:#087240"/>
				<stop  offset="0.8722" style="stop-color:#0D783C"/>
				<stop  offset="1" style="stop-color:#0F7B3B"/>
			</linearGradient>
			<ellipse class="st15" cx="246.5" cy="152.3" rx="22.9" ry="24.2"/>
			<linearGradient id="SVGID_4_" gradientUnits="userSpaceOnUse" x1="252.1135" y1="118.9441" x2="250.9248" y2="171.2458">
				<stop  offset="0.3122" style="stop-color:#0A2F50"/>
				<stop  offset="0.408" style="stop-color:#03434E"/>
				<stop  offset="0.5205" style="stop-color:#02564A"/>
				<stop  offset="0.6354" style="stop-color:#036645"/>
				<stop  offset="0.7523" style="stop-color:#087240"/>
				<stop  offset="0.8722" style="stop-color:#0D783C"/>
				<stop  offset="1" style="stop-color:#0F7B3B"/>
			</linearGradient>
			<ellipse class="st16" cx="251.4" cy="152.3" rx="22.9" ry="24.7"/>
			<linearGradient id="SVGID_5_" gradientUnits="userSpaceOnUse" x1="323.3907" y1="113.8523" x2="322.2159" y2="165.5493">
				<stop  offset="0.3122" style="stop-color:#0A2F50"/>
				<stop  offset="0.408" style="stop-color:#03434E"/>
				<stop  offset="0.5205" style="stop-color:#02564A"/>
				<stop  offset="0.6354" style="stop-color:#036645"/>
				<stop  offset="0.7523" style="stop-color:#087240"/>
				<stop  offset="0.8722" style="stop-color:#0D783C"/>
				<stop  offset="1" style="stop-color:#0F7B3B"/>
			</linearGradient>
			<ellipse class="st17" cx="322.6" cy="146.8" rx="22.9" ry="24.4"/>
			<linearGradient id="SVGID_6_" gradientUnits="userSpaceOnUse" x1="327.3441" y1="113.184" x2="326.1433" y2="166.0211">
				<stop  offset="0.3122" style="stop-color:#0A2F50"/>
				<stop  offset="0.408" style="stop-color:#03434E"/>
				<stop  offset="0.5205" style="stop-color:#02564A"/>
				<stop  offset="0.6354" style="stop-color:#036645"/>
				<stop  offset="0.7523" style="stop-color:#087240"/>
				<stop  offset="0.8722" style="stop-color:#0D783C"/>
				<stop  offset="1" style="stop-color:#0F7B3B"/>
			</linearGradient>
			<path class="st18" d="M349.4,146.9c0,13.8-10.2,24.9-22.9,24.9c-12.6,0-22.9-11.2-22.9-24.9c0-13.8,10.2-25,22.9-25
				C339.2,121.9,349.4,133.1,349.4,146.9z"/>
		</g>
		<path class="st8" d="M131,193.4l13.4-24.7c27.8-17,38.6-5.1,47.1,4.8l6.2,8.4c3.9,6.4-5,35.3-24.3,43.6
			c-19.4,8.3-43.3,3.8-43.3,3.8"/>
		<path class="st7" d="M122.2,194c13.8-13.3,25.7-28.7,32.1-30.6c6.4-1.9,18.7-7.8,31.7,2.9l9.8,12.8c8,6.6-3.1,32.4-20.3,45
			c-17.2,12.5-44.2,10-44.2,10"/>
		<path class="st19" d="M225.9,234.3c-6.2,6.1-1.7,50.7-1.7,50.7s-14.3,2.4-29.5,2c-15.3-0.4-34.6,15.6-34.6,15.6l20.9-87.5
			c0,0,17.2-8.3,33.9-10.4c16.7-2.1,28.4-7.6,28.4-7.6s-4.1,1.6-5.9,5.1C232.8,211.3,231.8,228.5,225.9,234.3z"/>
		<path class="st8" d="M240,200.6c0,0-21.9,10.8-31.6,27c-5.9,9.8-8.2,22.4,2.4,34.9c2.9,3.4,8.4,6.6,13.3,10.1
			C224,272.5,251.9,206.7,240,200.6z"/>
		<path class="st20" d="M241.9,198.2c0,0-74.6,37.5-18.4,75.1"/>
		<g>
			<g>
				<path class="st21" d="M291.9,376.8c-6.8-25.4-9.6-37.3-9.6-37.3s2.8-13.8,4.9-35.3c-33.8,14.6-72.2,21.8-112.9,19.6
					c-32.3-1.8-63.1-9.3-91.2-21.4c2.1,13.3,2.5,28,2.5,28s0.3,56.6,9.5,84.7c12.4,5.5,32.7-3.5,46-4.4c18-1.3,29.7,0.8,44.9,1.6
					c2.8,0.2,12.6,2.3,12.6,2c0-17.3-18.2-37.2-18.2-37.2l12.4,1.1l7-0.4c0,0-1.5,22.8,6,40.4c14.4-0.5,31-3.9,44.1-6.8
					c13.2-2.9,36.1-10.1,46.2-20.4C296.7,385.1,293.5,382.9,291.9,376.8z"/>
				<path class="st21" d="M131.1,317.9"/>
				<path class="st21" d="M90.2,341.9"/>
				<path class="st21" d="M281.9,334.6"/>
				<path class="st21" d="M248.2,317.1"/>
				<path class="st22" d="M112.3,388.4c0,0,3.1,21.6,6.1,27.8"/>
				<path class="st22" d="M270,377.6c0,0,0.6,19.2-0.8,28.5"/>
			</g>
		</g>
	</g>
</g>
</svg>
