<?xml version="1.0" encoding="utf-8"?>
<!-- Generator: Adobe Illustrator 16.0.0, SVG Export Plug-In . SVG Version: 6.00 Build 0)  -->
<!DOCTYPE svg PUBLIC "-//W3C//DTD SVG 1.1//EN" "http://www.w3.org/Graphics/SVG/1.1/DTD/svg11.dtd">
<svg version="1.1" id="圖層_1" xmlns="http://www.w3.org/2000/svg" xmlns:xlink="http://www.w3.org/1999/xlink" x="0px" y="0px"
	 width="137.957px" height="137.957px" viewBox="0 0 137.957 137.957" enable-background="new 0 0 137.957 137.957"
	 xml:space="preserve">
<g>
	<g>
		<circle fill="#93C2A3" cx="69.446" cy="69.449" r="67.324"/>
	</g>
	<polygon fill="#6C9D7A" points="47.67,115.48 69.192,137.063 78.577,135.99 99.27,130.673 115.038,118.986 126.351,105.995 
		134.408,88.27 135.547,79.689 114.07,58.196 	"/>
	<g>
		<path fill="#FFFFFF" d="M69.447,137.957c-37.776,0-68.509-30.732-68.509-68.508c0-37.776,30.732-68.508,68.509-68.508
			s68.51,30.731,68.51,68.508C137.957,107.224,107.223,137.957,69.447,137.957z M69.447,3.31c-36.47,0-66.139,29.669-66.139,66.139
			c0,36.467,29.669,66.139,66.139,66.139c36.469,0,66.141-29.672,66.141-66.139C135.587,32.979,105.916,3.31,69.447,3.31z"/>
	</g>
	<g>
		
			<rect x="45.358" y="29.734" transform="matrix(0.7071 0.7071 -0.7071 0.7071 71.7169 -26.2093)" fill="#EBE8D9" width="44.275" height="87.459"/>
		
			<rect x="45.359" y="29.674" transform="matrix(0.7071 0.7071 -0.7071 0.7071 71.6685 -26.227)" fill="#EBE8D9" width="44.272" height="87.459"/>
		
			<rect x="45.358" y="29.617" transform="matrix(0.7071 0.7071 -0.7071 0.7071 71.6337 -26.2437)" fill="#EBE8D9" width="44.275" height="87.457"/>
		
			<rect x="45.358" y="29.558" transform="matrix(0.7071 0.7071 -0.7071 0.7071 71.5907 -26.261)" fill="#EBE8D9" width="44.274" height="87.458"/>
		
			<rect x="45.358" y="29.498" transform="matrix(0.7071 0.7071 -0.7071 0.7071 71.5486 -26.2784)" fill="#EBE8D9" width="44.274" height="87.459"/>
		
			<rect x="45.358" y="29.44" transform="matrix(0.7071 0.7071 -0.7071 0.7071 71.5071 -26.2956)" fill="#EBE8D9" width="44.274" height="87.459"/>
		
			<rect x="45.358" y="29.382" transform="matrix(0.7071 0.7071 -0.7071 0.7071 71.4679 -26.3124)" fill="#EBE8D9" width="44.275" height="87.458"/>
		
			<rect x="45.358" y="29.323" transform="matrix(0.7071 0.7071 -0.7071 0.7071 71.4249 -26.3296)" fill="#EBE8D9" width="44.274" height="87.459"/>
		
			<rect x="45.358" y="29.265" transform="matrix(0.7071 0.7071 -0.7071 0.7071 71.3835 -26.3468)" fill="#EBE8D9" width="44.274" height="87.459"/>
		
			<rect x="45.358" y="29.207" transform="matrix(0.7071 0.7071 -0.7071 0.7071 71.344 -26.3637)" fill="#EBE8D9" width="44.275" height="87.459"/>
		
			<rect x="45.358" y="29.148" transform="matrix(0.7071 0.7071 -0.7071 0.7071 71.3013 -26.3808)" fill="#EBE8D9" width="44.274" height="87.459"/>
		
			<rect x="45.358" y="29.09" transform="matrix(0.7071 0.7071 -0.7071 0.7071 71.2599 -26.398)" fill="#EBE8D9" width="44.274" height="87.459"/>
		
			<rect x="45.358" y="29.031" transform="matrix(0.7071 0.7071 -0.7071 0.7071 71.2185 -26.4151)" fill="#EBE8D9" width="44.274" height="87.459"/>
		
			<rect x="45.358" y="28.974" transform="matrix(0.7071 0.7071 -0.7071 0.7071 71.1793 -26.4319)" fill="#EBE8D9" width="44.275" height="87.458"/>
		
			<rect x="45.358" y="28.915" transform="matrix(0.7071 0.7071 -0.7071 0.7071 71.1363 -26.4492)" fill="#EBE8D9" width="44.274" height="87.459"/>
		
			<rect x="45.358" y="28.857" transform="matrix(0.7071 0.7071 -0.7071 0.7071 71.0968 -26.4661)" fill="#EBE8D9" width="44.275" height="87.459"/>
		
			<rect x="45.358" y="28.798" transform="matrix(0.7071 0.7071 -0.7071 0.7071 71.0553 -26.4833)" fill="#EBE8D9" width="44.275" height="87.459"/>
		
			<rect x="45.358" y="28.74" transform="matrix(0.7071 0.7071 -0.7071 0.7071 71.0127 -26.5004)" fill="#EBE8D9" width="44.274" height="87.459"/>
		
			<rect x="45.358" y="28.682" transform="matrix(0.7071 0.7071 -0.7071 0.7071 70.9713 -26.5175)" fill="#EBE8D9" width="44.274" height="87.459"/>
		
			<rect x="45.358" y="28.624" transform="matrix(0.7071 0.7071 -0.7071 0.7071 70.9317 -26.5345)" fill="#EBE8D9" width="44.275" height="87.459"/>
		
			<rect x="45.358" y="28.565" transform="matrix(0.7071 0.7071 -0.7071 0.7071 70.8891 -26.5516)" fill="#EBE8D9" width="44.274" height="87.459"/>
		
			<rect x="45.358" y="28.507" transform="matrix(0.7071 0.7071 -0.7071 0.7071 70.8477 -26.5687)" fill="#EBE8D9" width="44.274" height="87.459"/>
		
			<rect x="45.358" y="28.449" transform="matrix(0.7071 0.7071 -0.7071 0.7071 70.8081 -26.5857)" fill="#EBE8D9" width="44.275" height="87.459"/>
		
			<rect x="45.358" y="28.391" transform="matrix(0.7071 0.7071 -0.7071 0.7071 70.7655 -26.6028)" fill="#EBE8D9" width="44.274" height="87.459"/>
		
			<rect x="45.358" y="28.332" transform="matrix(0.7071 0.7071 -0.7071 0.7071 70.7241 -26.6199)" fill="#EBE8D9" width="44.274" height="87.459"/>
		
			<rect x="45.359" y="28.273" transform="matrix(0.7071 0.7071 -0.7071 0.7071 70.6789 -26.6375)" fill="#EBE8D9" width="44.273" height="87.459"/>
		
			<rect x="45.358" y="28.215" transform="matrix(0.7071 0.7071 -0.7071 0.7071 70.6408 -26.6544)" fill="#EBE8D9" width="44.274" height="87.457"/>
		
			<rect x="45.358" y="28.157" transform="matrix(0.7071 0.7071 -0.7071 0.7071 70.5994 -26.6716)" fill="#EBE8D9" width="44.274" height="87.457"/>
		
			<rect x="45.358" y="28.096" transform="matrix(0.7071 0.7071 -0.7071 0.7071 70.5588 -26.6889)" fill="#EBE8D9" width="44.275" height="87.459"/>
		
			<rect x="45.358" y="28.038" transform="matrix(0.7071 0.7071 -0.7071 0.7071 70.5162 -26.706)" fill="#EBE8D9" width="44.274" height="87.459"/>
		
			<rect x="45.358" y="27.98" transform="matrix(0.7071 0.7071 -0.7071 0.7071 70.4748 -26.7232)" fill="#EBE8D9" width="44.274" height="87.459"/>
		
			<rect x="45.358" y="27.921" transform="matrix(0.7071 0.7071 -0.7071 0.7071 70.4352 -26.7402)" fill="#EBE8D9" width="44.275" height="87.459"/>
		
			<rect x="45.358" y="27.862" transform="matrix(0.7071 0.7071 -0.7071 0.7071 70.3923 -26.7574)" fill="#EBE8D9" width="44.274" height="87.46"/>
		
			<rect x="45.358" y="27.805" transform="matrix(0.7071 0.7071 -0.7071 0.7071 70.3512 -26.7744)" fill="#EBE8D9" width="44.274" height="87.459"/>
		
			<rect x="45.358" y="27.746" transform="matrix(0.7071 0.7071 -0.7071 0.7071 70.3097 -26.7915)" fill="#EBE8D9" width="44.274" height="87.459"/>
		
			<rect x="45.358" y="27.689" transform="matrix(0.7071 0.7071 -0.7071 0.7071 70.2705 -26.8084)" fill="#EBE8D9" width="44.275" height="87.458"/>
		
			<rect x="45.358" y="27.63" transform="matrix(0.7071 0.7071 -0.7071 0.7071 70.2276 -26.8256)" fill="#EBE8D9" width="44.274" height="87.459"/>
		
			<rect x="45.358" y="27.571" transform="matrix(0.7071 0.7071 -0.7071 0.7071 70.1861 -26.8427)" fill="#EBE8D9" width="44.274" height="87.459"/>
		
			<rect x="45.358" y="27.513" transform="matrix(0.7071 0.7071 -0.7071 0.7071 70.1466 -26.8597)" fill="#EBE8D9" width="44.275" height="87.459"/>
		
			<rect x="45.358" y="27.455" transform="matrix(0.7071 0.7071 -0.7071 0.7071 70.104 -26.8768)" fill="#EBE8D9" width="44.274" height="87.459"/>
		
			<rect x="45.358" y="27.397" transform="matrix(0.7071 0.7071 -0.7071 0.7071 70.0625 -26.8939)" fill="#EBE8D9" width="44.274" height="87.459"/>
		
			<rect x="45.358" y="27.338" transform="matrix(0.7071 0.7071 -0.7071 0.7071 70.0211 -26.9111)" fill="#EBE8D9" width="44.274" height="87.459"/>
		
			<rect x="45.358" y="27.281" transform="matrix(0.7071 0.7071 -0.7071 0.7071 69.9819 -26.9279)" fill="#EBE8D9" width="44.275" height="87.458"/>
		
			<rect x="45.358" y="27.222" transform="matrix(0.7071 0.7071 -0.7071 0.7071 69.9389 -26.9451)" fill="#EBE8D9" width="44.274" height="87.459"/>
		
			<rect x="45.358" y="27.163" transform="matrix(0.7071 0.7071 -0.7071 0.7071 69.8975 -26.9623)" fill="#EBE8D9" width="44.274" height="87.459"/>
		
			<rect x="45.358" y="27.105" transform="matrix(0.7071 0.7071 -0.7071 0.7071 69.8579 -26.9793)" fill="#EBE8D9" width="44.275" height="87.459"/>
		
			<rect x="45.358" y="27.047" transform="matrix(0.7071 0.7071 -0.7071 0.7071 69.8153 -26.9963)" fill="#EBE8D9" width="44.274" height="87.459"/>
		
			<rect x="45.358" y="26.988" transform="matrix(0.7071 0.7071 -0.7071 0.7071 69.7739 -27.0135)" fill="#EBE8D9" width="44.274" height="87.459"/>
		
			<rect x="45.358" y="26.93" transform="matrix(0.7071 0.7071 -0.7071 0.7071 69.7325 -27.0307)" fill="#EBE8D9" width="44.274" height="87.459"/>
		
			<rect x="45.359" y="26.871" transform="matrix(0.7071 0.7071 -0.7071 0.7071 69.6876 -27.048)" fill="#EBE8D9" width="44.273" height="87.458"/>
		
			<rect x="45.359" y="26.812" transform="matrix(0.7071 0.7071 -0.7071 0.7071 69.6447 -27.0652)" fill="#EBE8D9" width="44.272" height="87.459"/>
		
			<rect x="45.359" y="26.754" transform="matrix(0.7071 0.7071 -0.7071 0.7071 69.6051 -27.0822)" fill="#EBE8D9" width="44.273" height="87.459"/>
		
			<rect x="45.358" y="26.694" transform="matrix(0.7071 0.7071 -0.7071 0.7071 69.566 -27.0996)" fill="#EBE8D9" width="44.274" height="87.459"/>
		
			<rect x="45.358" y="26.636" transform="matrix(0.7071 0.7071 -0.7071 0.7071 69.5246 -27.1168)" fill="#EBE8D9" width="44.274" height="87.459"/>
		
			<rect x="45.358" y="26.578" transform="matrix(0.7071 0.7071 -0.7071 0.7071 69.485 -27.1337)" fill="#EBE8D9" width="44.275" height="87.459"/>
		
			<rect x="45.358" y="26.52" transform="matrix(0.7071 0.7071 -0.7071 0.7071 69.4424 -27.1508)" fill="#EBE8D9" width="44.274" height="87.459"/>
		
			<rect x="45.358" y="26.461" transform="matrix(0.7071 0.7071 -0.7071 0.7071 69.401 -27.168)" fill="#EBE8D9" width="44.274" height="87.459"/>
		
			<rect x="45.358" y="26.402" transform="matrix(0.7071 0.7071 -0.7071 0.7071 69.3596 -27.1851)" fill="#EBE8D9" width="44.274" height="87.459"/>
		
			<rect x="45.358" y="26.345" transform="matrix(0.7071 0.7071 -0.7071 0.7071 69.3203 -27.202)" fill="#EBE8D9" width="44.275" height="87.458"/>
		
			<rect x="45.358" y="26.286" transform="matrix(0.7071 0.7071 -0.7071 0.7071 69.2774 -27.2191)" fill="#EBE8D9" width="44.274" height="87.459"/>
		
			<rect x="45.358" y="26.228" transform="matrix(0.7071 0.7071 -0.7071 0.7071 69.236 -27.2363)" fill="#EBE8D9" width="44.274" height="87.459"/>
		
			<rect x="45.358" y="26.169" transform="matrix(0.7071 0.7071 -0.7071 0.7071 69.1964 -27.2533)" fill="#EBE8D9" width="44.275" height="87.459"/>
		
			<rect x="45.358" y="26.111" transform="matrix(0.7071 0.7071 -0.7071 0.7071 69.1538 -27.2704)" fill="#EBE8D9" width="44.274" height="87.459"/>
		
			<rect x="45.358" y="26.053" transform="matrix(0.7071 0.7071 -0.7071 0.7071 69.1124 -27.2875)" fill="#EBE8D9" width="44.274" height="87.459"/>
		
			<rect x="45.358" y="25.994" transform="matrix(0.7071 0.7071 -0.7071 0.7071 69.0709 -27.3047)" fill="#EBE8D9" width="44.274" height="87.459"/>
		
			<rect x="45.358" y="25.937" transform="matrix(0.7071 0.7071 -0.7071 0.7071 69.0317 -27.3215)" fill="#EBE8D9" width="44.275" height="87.458"/>
		
			<rect x="45.358" y="25.878" transform="matrix(0.7071 0.7071 -0.7071 0.7071 68.9887 -27.3387)" fill="#EBE8D9" width="44.274" height="87.459"/>
		
			<rect x="45.358" y="25.819" transform="matrix(0.7071 0.7071 -0.7071 0.7071 68.9473 -27.3559)" fill="#EBE8D9" width="44.274" height="87.459"/>
		
			<rect x="45.358" y="25.761" transform="matrix(0.7071 0.7071 -0.7071 0.7071 68.9077 -27.3729)" fill="#EBE8D9" width="44.275" height="87.459"/>
		
			<rect x="45.358" y="25.703" transform="matrix(0.7071 0.7071 -0.7071 0.7071 68.8651 -27.3899)" fill="#EBE8D9" width="44.274" height="87.459"/>
		
			<rect x="45.358" y="25.645" transform="matrix(0.7071 0.7071 -0.7071 0.7071 68.8237 -27.4071)" fill="#EBE8D9" width="44.274" height="87.459"/>
		
			<rect x="45.358" y="25.586" transform="matrix(0.7071 0.7071 -0.7071 0.7071 68.7841 -27.4241)" fill="#EBE8D9" width="44.275" height="87.459"/>
		
			<rect x="45.358" y="25.528" transform="matrix(0.7071 0.7071 -0.7071 0.7071 68.7415 -27.4411)" fill="#EBE8D9" width="44.274" height="87.459"/>
		
			<rect x="45.358" y="25.47" transform="matrix(0.7071 0.7071 -0.7071 0.7071 68.7001 -27.4583)" fill="#EBE8D9" width="44.274" height="87.459"/>
		
			<rect x="45.358" y="25.411" transform="matrix(0.7071 0.7071 -0.7071 0.7071 68.6595 -27.4757)" fill="#EBE8D9" width="44.275" height="87.457"/>
		
			<rect x="45.358" y="25.353" transform="matrix(0.7071 0.7071 -0.7071 0.7071 68.6169 -27.4927)" fill="#EBE8D9" width="44.274" height="87.457"/>
		
			<rect x="45.358" y="25.292" transform="matrix(0.7071 0.7071 -0.7071 0.7071 68.5744 -27.5103)" fill="#EBE8D9" width="44.274" height="87.459"/>
		
			<rect x="45.358" y="25.234" transform="matrix(0.7071 0.7071 -0.7071 0.7071 68.5348 -27.5273)" fill="#EBE8D9" width="44.275" height="87.459"/>
		
			<rect x="45.358" y="25.176" transform="matrix(0.7071 0.7071 -0.7071 0.7071 68.4922 -27.5444)" fill="#EBE8D9" width="44.274" height="87.459"/>
		
			<rect x="45.358" y="25.117" transform="matrix(0.7071 0.7071 -0.7071 0.7071 68.4508 -27.5615)" fill="#EBE8D9" width="44.274" height="87.459"/>
		
			<rect x="45.358" y="25.059" transform="matrix(0.7071 0.7071 -0.7071 0.7071 68.4094 -27.5787)" fill="#EBE8D9" width="44.274" height="87.459"/>
		
			<rect x="45.358" y="25.001" transform="matrix(0.7071 0.7071 -0.7071 0.7071 68.3701 -27.5956)" fill="#EBE8D9" width="44.275" height="87.458"/>
		
			<rect x="45.358" y="24.942" transform="matrix(0.7071 0.7071 -0.7071 0.7071 68.3272 -27.6127)" fill="#EBE8D9" width="44.274" height="87.459"/>
		
			<rect x="45.358" y="24.884" transform="matrix(0.7071 0.7071 -0.7071 0.7071 68.2858 -27.6299)" fill="#EBE8D9" width="44.274" height="87.459"/>
		
			<rect x="45.358" y="24.826" transform="matrix(0.7071 0.7071 -0.7071 0.7071 68.2462 -27.6469)" fill="#EBE8D9" width="44.275" height="87.459"/>
		
			<rect x="45.358" y="24.768" transform="matrix(0.7071 0.7071 -0.7071 0.7071 68.2036 -27.6639)" fill="#EBE8D9" width="44.274" height="87.459"/>
		
			<rect x="45.358" y="24.709" transform="matrix(0.7071 0.7071 -0.7071 0.7071 68.1622 -27.6811)" fill="#EBE8D9" width="44.274" height="87.459"/>
		
			<rect x="45.358" y="24.651" transform="matrix(0.7071 0.7071 -0.7071 0.7071 68.1226 -27.6981)" fill="#EBE8D9" width="44.275" height="87.459"/>
		
			<rect x="45.358" y="24.593" transform="matrix(0.7071 0.7071 -0.7071 0.7071 68.08 -27.7151)" fill="#EBE8D9" width="44.274" height="87.459"/>
		
			<rect x="45.358" y="24.534" transform="matrix(0.7071 0.7071 -0.7071 0.7071 68.0386 -27.7323)" fill="#EBE8D9" width="44.274" height="87.459"/>
		
			<rect x="45.358" y="24.476" transform="matrix(0.7071 0.7071 -0.7071 0.7071 67.999 -27.7493)" fill="#EBE8D9" width="44.275" height="87.459"/>
		
			<rect x="45.358" y="24.418" transform="matrix(0.7071 0.7071 -0.7071 0.7071 67.9564 -27.7663)" fill="#EBE8D9" width="44.274" height="87.459"/>
		
			<rect x="45.358" y="24.359" transform="matrix(0.7071 0.7071 -0.7071 0.7071 67.915 -27.7835)" fill="#EBE8D9" width="44.274" height="87.459"/>
		
			<rect x="45.358" y="24.301" transform="matrix(0.7071 0.7071 -0.7071 0.7071 67.8735 -27.8006)" fill="#EBE8D9" width="44.274" height="87.459"/>
		
			<rect x="45.358" y="24.244" transform="matrix(0.7071 0.7071 -0.7071 0.7071 67.8343 -27.8175)" fill="#EBE8D9" width="44.275" height="87.458"/>
		
			<rect x="45.358" y="24.185" transform="matrix(0.7071 0.7071 -0.7071 0.7071 67.7914 -27.8347)" fill="#EBE8D9" width="44.274" height="87.459"/>
		
			<rect x="45.359" y="24.125" transform="matrix(0.7071 0.7071 -0.7071 0.7071 67.7462 -27.8521)" fill="#EBE8D9" width="44.273" height="87.459"/>
		
			<rect x="45.359" y="24.066" transform="matrix(0.7071 0.7071 -0.7071 0.7071 67.7048 -27.8693)" fill="#EBE8D9" width="44.273" height="87.459"/>
		
			<rect x="45.358" y="24.009" transform="matrix(0.7071 0.7071 -0.7071 0.7071 67.6667 -27.8863)" fill="#EBE8D9" width="44.274" height="87.457"/>
		
			<rect x="45.358" y="23.949" transform="matrix(0.7071 0.7071 -0.7071 0.7071 67.6261 -27.9038)" fill="#EBE8D9" width="44.275" height="87.459"/>
		
			<rect x="45.358" y="23.89" transform="matrix(0.7071 0.7071 -0.7071 0.7071 67.5832 -27.9209)" fill="#EBE8D9" width="44.274" height="87.46"/>
		
			<rect x="45.358" y="23.832" transform="matrix(0.7071 0.7071 -0.7071 0.7071 67.5421 -27.9379)" fill="#EBE8D9" width="44.274" height="87.459"/>
	</g>
	<g>
		<path fill="#FFFFFF" d="M96.145,53.094c-0.554,0-1.093-0.021-1.615-0.069c-3.771-0.336-6.334-1.868-7.219-4.317l0,0
			c-0.89-2.462-0.66-6.235,5.488-10.224c3.192-2.07,6.612-3.318,6.758-3.369c8.653-3.127,16.436-2.001,18.109,2.621
			c1.669,4.622-3.596,10.469-12.247,13.596C102.229,52.484,98.999,53.094,96.145,53.094z M108.825,37.527
			c-2.157,0-4.872,0.427-7.853,1.505c-3.524,1.277-10.874,5.137-9.744,8.261l0,0c0.286,0.79,1.725,1.41,3.67,1.585
			c2.583,0.226,5.901-0.305,9.106-1.463c6.769-2.446,10.348-6.594,9.745-8.264C113.412,38.218,111.568,37.527,108.825,37.527z"/>
	</g>
	<g>
		<path fill="none" stroke="#FFFFFF" stroke-width="3" stroke-linecap="round" stroke-linejoin="round" stroke-miterlimit="10" d="
			M93.653,42.548"/>
	</g>
	<g>
		
			<rect x="45.358" y="23.702" transform="matrix(0.7071 0.7071 -0.7071 0.7071 67.4502 -27.976)" fill="#5D9874" width="44.274" height="87.459"/>
	</g>
	<g>
		<path fill="#FFFFFF" d="M96.145,53.094c-0.554,0-1.093-0.021-1.615-0.069c-3.771-0.336-6.334-1.868-7.219-4.317
			c-0.39-1.081,0.17-2.273,1.25-2.666c1.082-0.39,2.275,0.17,2.667,1.251c0.286,0.79,1.725,1.41,3.67,1.585
			c2.582,0.23,5.901-0.305,9.106-1.463c6.769-2.446,10.348-6.594,9.745-8.264c-0.392-1.081,0.169-2.273,1.251-2.666
			c1.078-0.39,2.273,0.17,2.666,1.251c1.669,4.622-3.596,10.469-12.247,13.596C102.229,52.484,98.999,53.094,96.145,53.094z"/>
	</g>
	<g>
		<path fill="#FFFFFF" d="M62.915,76.121l-9.121-11.246l9.728-9.728l2.656,2.656l-7.172,7.173l4.062,5.175
			c0.092-0.634,0.289-1.274,0.594-1.923c0.304-0.649,0.746-1.282,1.328-1.898c1.712-1.745,3.613-2.551,5.705-2.416
			c2.092,0.136,4.103,1.169,6.033,3.1c1.805,1.805,2.767,3.795,2.884,5.97c0.119,2.177-0.796,4.238-2.744,6.186
			c-1.619,1.619-3.432,2.544-5.44,2.771c-2.006,0.229-3.807-0.497-5.4-2.176l-0.038-0.089l2.771-2.972
			c0.89,0.89,1.844,1.32,2.862,1.294c1.019-0.027,1.944-0.46,2.779-1.295c0.952-0.952,1.345-2.015,1.176-3.188
			c-0.168-1.172-0.805-2.311-1.909-3.415c-1.113-1.113-2.275-1.76-3.485-1.941s-2.291,0.205-3.244,1.157
			c-0.844,0.844-1.332,1.607-1.465,2.293s-0.032,1.38,0.301,2.084L62.915,76.121z"/>
	</g>
</g>
</svg>
