<?xml version="1.0" encoding="utf-8"?>
<!-- Generator: Adobe Illustrator 16.0.0, SVG Export Plug-In . SVG Version: 6.00 Build 0)  -->
<!DOCTYPE svg PUBLIC "-//W3C//DTD SVG 1.1//EN" "http://www.w3.org/Graphics/SVG/1.1/DTD/svg11.dtd">
<svg version="1.1" id="圖層_1" xmlns="http://www.w3.org/2000/svg" xmlns:xlink="http://www.w3.org/1999/xlink" x="0px" y="0px"
	 width="137.957px" height="137.957px" viewBox="0 0 137.957 137.957" enable-background="new 0 0 137.957 137.957"
	 xml:space="preserve">
<g>
	<path fill="#EDD77C" d="M135.382,68.977c0,36.677-29.731,66.405-66.405,66.405c-36.67,0-66.399-29.729-66.399-66.405
		c0-36.674,29.729-66.402,66.399-66.402C105.651,2.575,135.382,32.303,135.382,68.977z"/>
	<polygon fill="#B99F4B" points="45.391,125.852 58.366,135.057 60.305,135.023 63.356,134.53 68.98,136.062 74.787,135.111 
		84.225,134.642 102.938,126.052 119.125,112.655 76.137,78.69 62.104,96.472 60.031,97.149 	"/>
	<polyline fill="#B99F4B" points="28.019,64.96 61.223,97.155 76.563,106.915 87.788,105.624 119.125,112.655 130.433,95.187 
		136.368,63.986 131.666,47.946 111.69,27.661 37.716,61.285 	"/>
	<g>
		<ellipse fill="#C7C4BA" cx="68.816" cy="86.374" rx="10.719" ry="11.156"/>
		<path fill="#FFFFFF" stroke="#FFFFFF" stroke-width="0.5" stroke-miterlimit="10" d="M68.816,98.138
			c-6.245,0-11.328-5.278-11.328-11.765c0-6.487,5.083-11.766,11.328-11.766s11.325,5.278,11.325,11.766
			C80.141,92.86,75.061,98.138,68.816,98.138z M68.816,75.819c-5.577,0-10.113,4.735-10.113,10.555
			c0,5.815,4.536,10.553,10.113,10.553c5.574,0,10.115-4.737,10.115-10.553C78.931,80.554,74.39,75.819,68.816,75.819z"/>
		<path fill="#C7C4BA" d="M77.453,97.012c-2.097,2.979-5.266,4.145-8.808,4.145c-3.543,0-6.709-1.165-8.807-4.142
			c-19.607,6.379-15.721,33.576-15.721,33.576l24.699,5.471l24.762-5.471C93.578,130.591,97.146,103.383,77.453,97.012z"/>
		<path fill="#FFFFFF" stroke="#FFFFFF" stroke-width="0.5" stroke-miterlimit="10" d="M93.578,131.325l-25.58,4.792l-23.881-4.792
			c-0.316,0-0.587-0.259-0.637-0.613c-0.041-0.282-0.976-7.028,0.514-14.673c1.987-10.218,7.408-17.04,15.667-19.728
			c0.25-0.08,0.522,0.017,0.683,0.249c1.809,2.564,4.603,3.868,8.302,3.868c3.701,0,6.495-1.304,8.301-3.871
			c0.165-0.232,0.433-0.328,0.687-0.247c8.288,2.683,13.786,9.5,15.897,19.715c1.577,7.646,0.724,14.392,0.685,14.677
			C94.171,131.062,93.897,131.325,93.578,131.325z M44.579,130.637l23.916,5.707l24.799-5.868c0.168-1.837,0.229-8.081-1.032-14.161
			c-1.997-9.615-6.902-15.826-14.586-18.467c-2.063,2.682-5.099,4.04-9.031,4.04c-3.931,0-6.965-1.356-9.029-4.033
			c-7.653,2.645-12.481,8.865-14.36,18.498C44.074,122.436,44.391,128.822,44.579,130.637z"/>
		<g>
			<polygon fill="#C7C4BA" points="72.903,117.301 72.625,121.75 76.832,119.637 			"/>
			<path fill="#FFFFFF" stroke="#FFFFFF" stroke-width="0.25" stroke-miterlimit="10" d="M72.634,122.061
				c-0.087,0.015-0.178,0.001-0.253-0.051c-0.103-0.064-0.159-0.181-0.154-0.302l0.279-4.725c0.006-0.118,0.075-0.226,0.186-0.282
				c0.105-0.055,0.237-0.047,0.337,0.021l3.952,2.602c0.101,0.064,0.159,0.182,0.151,0.3c-0.005,0.12-0.076,0.231-0.185,0.282
				l-4.227,2.124C72.691,122.045,72.662,122.054,72.634,122.061z M73.145,117.606l-0.207,3.56l3.183-1.6L73.145,117.606z"/>
			<path fill="#C7C4BA" d="M78.201,117.969c-0.302,0.46-0.918,0.587-1.377,0.283l-2.75-1.809c-0.461-0.304-0.585-0.92-0.286-1.379
				L81.728,103c0.303-0.456,0.922-0.581,1.381-0.28l2.747,1.809c0.461,0.303,0.587,0.92,0.284,1.378L78.201,117.969z"/>
			<path fill="#FFFFFF" stroke="#FFFFFF" stroke-width="0.25" stroke-miterlimit="10" d="M77.638,118.729
				c-0.349,0.07-0.703,0.004-1.001-0.193l-2.749-1.808c-0.614-0.404-0.786-1.234-0.38-1.849l7.938-12.063
				c0.197-0.297,0.499-0.499,0.845-0.572c0.35-0.072,0.706-0.001,1.002,0.193l2.75,1.808c0.614,0.406,0.782,1.235,0.38,1.849
				l-7.938,12.061C78.288,118.454,77.988,118.657,77.638,118.729z M82.427,102.909c-0.171,0.033-0.319,0.133-0.416,0.279
				l-7.94,12.063c-0.198,0.303-0.115,0.713,0.187,0.912l2.75,1.808c0.148,0.097,0.321,0.13,0.497,0.095
				c0.17-0.036,0.317-0.135,0.415-0.283l7.938-12.061c0.202-0.304,0.115-0.712-0.187-0.912L82.922,103
				C82.777,102.905,82.598,102.871,82.427,102.909z"/>
		</g>
		<path fill="#C7C4BA" d="M85.444,108.843c-0.33,0-0.646,0.029-0.959,0.079c-0.825-0.397-1.863-0.743-2.926-0.702
			c-2.319,0.089-5.684,1.702-5.786,2.857c-0.132,1.484,0.521,1.482,3.892,1.859c-0.301,0.773-0.467,1.62-0.467,2.512
			c0,3.645,2.792,6.604,6.247,6.604c3.447,0,6.243-2.96,6.243-6.604C91.687,111.801,88.891,108.843,85.444,108.843z"/>
		<path fill="#FFFFFF" stroke="#FFFFFF" stroke-width="0.5" stroke-miterlimit="10" d="M85.444,122.557
			c-3.725,0-6.753-3.188-6.753-7.108c0-0.711,0.099-1.407,0.295-2.079c-2.825-0.312-3.883-0.467-3.717-2.338
			c0.145-1.642,4.012-3.23,6.27-3.315c0.064-0.003,0.129-0.005,0.192-0.005c0.886,0,1.836,0.233,2.831,0.688
			c0.29-0.036,0.587-0.059,0.882-0.059c3.72,0,6.748,3.189,6.748,7.108C92.192,119.369,89.164,122.557,85.444,122.557z
			 M81.731,108.724c-0.05,0-0.103,0-0.153,0.003c-2.296,0.088-5.237,1.666-5.302,2.393c-0.077,0.873-0.082,0.925,2.995,1.265
			l1.104,0.123l-0.24,0.611c-0.289,0.739-0.436,1.523-0.436,2.33c0,3.364,2.576,6.098,5.744,6.098c3.162,0,5.737-2.733,5.737-6.098
			c0-3.36-2.576-6.1-5.737-6.1c-0.294,0-0.591,0.025-0.876,0.071l-0.159,0.027l-0.141-0.07
			C83.361,108.941,82.505,108.724,81.731,108.724z"/>
	</g>
	<path fill="#FFFFFF" d="M68.977,136.549c-37.257,0-67.57-30.314-67.57-67.572c0-37.258,30.313-67.57,67.57-67.57
		c37.263,0,67.573,30.312,67.573,67.57C136.55,106.235,106.24,136.549,68.977,136.549z M68.977,3.743
		c-35.966,0-65.231,29.262-65.231,65.234c0,35.97,29.265,65.235,65.231,65.235c35.974,0,65.239-29.266,65.239-65.235
		C134.215,33.005,104.951,3.743,68.977,3.743z"/>
	<g>
		<path fill="#609071" d="M108.086,27.661H31.878c-2.133,0-3.859,1.727-3.859,3.858v29.583c0,2.134,1.727,3.859,3.859,3.859h46.487
			l4.853,9.9l12.141-9.9h12.727c2.131,0,3.858-1.726,3.858-3.859V31.519C111.944,29.388,110.217,27.661,108.086,27.661z"/>
		<path fill="#FFFFFF" d="M83.22,76.47c-0.115,0-0.23-0.013-0.344-0.038c-0.479-0.104-0.884-0.422-1.1-0.864l-4.413-8.999H31.878
			c-3.015,0-5.467-2.451-5.467-5.465V31.521c0-3.015,2.453-5.467,5.467-5.467h76.208c3.014,0,5.466,2.452,5.466,5.467v29.583
			c0,3.014-2.452,5.465-5.466,5.465H95.931l-11.696,9.538C83.946,76.344,83.587,76.47,83.22,76.47z M31.878,29.27
			c-1.242,0-2.251,1.01-2.251,2.251v29.583c0,1.24,1.009,2.249,2.251,2.249h46.487c0.614,0,1.174,0.351,1.443,0.901l3.965,8.083
			l10.57-8.622c0.287-0.233,0.646-0.362,1.016-0.362h12.727c1.24,0,2.25-1.009,2.25-2.249V31.521c0-1.242-1.01-2.251-2.25-2.251
			H31.878z"/>
	</g>
	<g>
		<path fill="#FFFFFF" d="M94.419,38.594H45.546c-0.711,0-1.286-0.576-1.286-1.288c0-0.711,0.575-1.285,1.286-1.285h48.873
			c0.711,0,1.286,0.574,1.286,1.285C95.705,38.018,95.13,38.594,94.419,38.594z"/>
	</g>
	<g>
		<path fill="#FFFFFF" d="M94.419,47.597H45.546c-0.711,0-1.286-0.575-1.286-1.286s0.575-1.286,1.286-1.286h48.873
			c0.711,0,1.286,0.575,1.286,1.286S95.13,47.597,94.419,47.597z"/>
	</g>
	<g>
		<path fill="#FFFFFF" d="M94.419,56.6H45.546c-0.711,0-1.286-0.575-1.286-1.286s0.575-1.287,1.286-1.287h48.873
			c0.711,0,1.286,0.576,1.286,1.287S95.13,56.6,94.419,56.6z"/>
	</g>
</g>
</svg>
