<?xml version="1.0" encoding="utf-8"?>
<!-- Generator: Adobe Illustrator 16.0.0, SVG Export Plug-In . SVG Version: 6.00 Build 0)  -->
<!DOCTYPE svg PUBLIC "-//W3C//DTD SVG 1.1//EN" "http://www.w3.org/Graphics/SVG/1.1/DTD/svg11.dtd">
<svg version="1.1" id="圖層_1" xmlns="http://www.w3.org/2000/svg" xmlns:xlink="http://www.w3.org/1999/xlink" x="0px" y="0px"
	 width="137.957px" height="137.957px" viewBox="0 0 137.957 137.957" enable-background="new 0 0 137.957 137.957"
	 xml:space="preserve">
<g>
	<g>
		<g>
			<circle fill="#EDD77C" cx="68.979" cy="68.98" r="66.9"/>
		</g>
		<g>
			<polyline fill="#B99F4B" points="40.258,107.68 61.726,135.882 73.564,135.266 86.773,133.169 101.232,128.662 113.216,120.235 
				125.378,105.297 134.623,82.807 97.117,30.37 39.001,102.995 			"/>
		</g>
		<g>
			<path fill="#FFFFFF" d="M68.98,137.057c-37.54,0-68.08-30.54-68.08-68.076C0.9,31.443,31.44,0.9,68.98,0.9
				c37.539,0,68.077,30.543,68.077,68.08C137.057,106.517,106.519,137.057,68.98,137.057z M68.98,3.254
				C32.739,3.254,3.255,32.74,3.255,68.98c0,36.24,29.484,65.723,65.725,65.723c36.239,0,65.723-29.482,65.723-65.723
				C134.703,32.74,105.219,3.254,68.98,3.254z"/>
		</g>
		<g>
			<g>
				<path fill="#609071" d="M98.036,103.011c0,3.166-2.569,5.74-5.74,5.74H45.662c-3.171,0-5.741-2.574-5.741-5.74V34.949
					c0-3.168,2.57-5.741,5.741-5.741h46.634c3.171,0,5.74,2.573,5.74,5.741V103.011z"/>
			</g>
			<g>
				<path fill="#FFFFFF" d="M92.296,109.667H45.662c-3.673,0-6.661-2.987-6.661-6.656V34.949c0-3.67,2.987-6.659,6.661-6.659h46.634
					c3.672,0,6.661,2.988,6.661,6.659v68.062C98.957,106.68,95.968,109.667,92.296,109.667z M45.662,30.126
					c-2.659,0-4.822,2.164-4.822,4.822v68.062c0,2.657,2.164,4.819,4.822,4.819h46.634c2.658,0,4.821-2.162,4.821-4.819V34.949
					c0-2.659-2.164-4.822-4.821-4.822H45.662z"/>
			</g>
		</g>
		<g>
			<g>
				<path fill="#FFFFFF" d="M95.202,97.268c0,2.638-2.135,4.775-4.772,4.775H51.662c-2.637,0-4.772-2.138-4.772-4.775V40.689
					c0-2.637,2.135-4.776,4.772-4.776H90.43c2.637,0,4.772,2.139,4.772,4.776V97.268z"/>
			</g>
			<g>
				<path fill="#6D6C6C" d="M90.43,102.389H51.662c-2.821,0-5.119-2.297-5.119-5.121V40.689c0-2.823,2.297-5.119,5.119-5.119H90.43
					c2.823,0,5.118,2.295,5.118,5.119v56.578C95.548,100.092,93.252,102.389,90.43,102.389z M51.662,36.259
					c-2.443,0-4.431,1.99-4.431,4.431v56.578c0,2.444,1.987,4.432,4.431,4.432H90.43c2.443,0,4.431-1.987,4.431-4.432V40.689
					c0-2.44-1.987-4.431-4.431-4.431H51.662z"/>
			</g>
		</g>
		<g>
			<g>
				<path fill="#FFFFFF" d="M93.596,97.268c0,2.638-2.136,4.775-4.773,4.775H50.055c-2.637,0-4.775-2.138-4.775-4.775V40.689
					c0-2.637,2.138-4.776,4.775-4.776h38.768c2.637,0,4.773,2.139,4.773,4.776V97.268z"/>
			</g>
			<g>
				<path fill="#6D6C6C" d="M88.823,102.389H50.055c-2.824,0-5.121-2.297-5.121-5.121V40.689c0-2.823,2.297-5.119,5.121-5.119
					h38.768c2.82,0,5.118,2.295,5.118,5.119v56.578C93.94,100.092,91.643,102.389,88.823,102.389z M50.055,36.259
					c-2.443,0-4.431,1.99-4.431,4.431v56.578c0,2.444,1.987,4.432,4.431,4.432h38.768c2.442,0,4.428-1.987,4.428-4.432V40.689
					c0-2.44-1.985-4.431-4.428-4.431H50.055z"/>
			</g>
		</g>
		<g>
			<g>
				<path fill="#FFFFFF" d="M91.989,97.268c0,2.638-2.137,4.775-4.774,4.775H48.448c-2.637,0-4.776-2.138-4.776-4.775V40.689
					c0-2.637,2.139-4.776,4.776-4.776h38.767c2.637,0,4.774,2.139,4.774,4.776V97.268z"/>
			</g>
			<g>
				<path fill="#6D6C6C" d="M87.215,102.389H48.448c-2.823,0-5.118-2.297-5.118-5.121V40.689c0-2.823,2.294-5.119,5.118-5.119
					h38.767c2.82,0,5.119,2.295,5.119,5.119v56.578C92.333,100.092,90.035,102.389,87.215,102.389z M48.448,36.259
					c-2.443,0-4.43,1.99-4.43,4.431v56.578c0,2.444,1.987,4.432,4.43,4.432h38.767c2.441,0,4.428-1.987,4.428-4.432V40.689
					c0-2.44-1.987-4.431-4.428-4.431H48.448z"/>
			</g>
		</g>
		<g>
			<path fill="#6D6C6C" d="M86.05,48.516H52.828c-0.229,0-0.416-0.186-0.416-0.413c0-0.229,0.186-0.415,0.416-0.415H86.05
				c0.229,0,0.416,0.186,0.416,0.415C86.466,48.33,86.279,48.516,86.05,48.516z"/>
		</g>
		<g>
			<path fill="#6D6C6C" d="M86.05,86.979H52.828c-0.229,0-0.416-0.185-0.416-0.411c0-0.231,0.186-0.414,0.416-0.414H86.05
				c0.229,0,0.416,0.183,0.416,0.414C86.466,86.794,86.279,86.979,86.05,86.979z"/>
		</g>
		<g>
			<path fill="#6D6C6C" d="M86.05,74.158H52.828c-0.229,0-0.416-0.183-0.416-0.413s0.186-0.415,0.416-0.415H86.05
				c0.229,0,0.416,0.186,0.416,0.415S86.279,74.158,86.05,74.158z"/>
		</g>
		<g>
			<path fill="#6D6C6C" d="M86.05,61.338H52.828c-0.229,0-0.416-0.186-0.416-0.415c0-0.227,0.186-0.413,0.416-0.413H86.05
				c0.229,0,0.416,0.186,0.416,0.413C86.466,61.152,86.279,61.338,86.05,61.338z"/>
		</g>
		<g>
			<g>
				<path fill="#609071" d="M75.754,111.457c0,3.959-1.465,7.171-3.268,7.171l-29.011-9.877c-1.963,0-3.554-2.574-3.554-5.74V34.949
					c0-3.168,1.591-5.741,3.554-5.741l29.011-9.878c1.803,0,3.268,3.212,3.268,7.17V111.457z"/>
			</g>
			<g>
				<path fill="#FFFFFF" d="M72.486,119.546h-0.154l-0.143-0.05l-28.878-9.831c-2.429-0.128-4.309-3.005-4.309-6.654V34.949
					c0-3.652,1.879-6.529,4.309-6.656l29.021-9.881h0.154c2.39,0,4.188,3.476,4.188,8.087v84.958
					C76.674,116.07,74.875,119.546,72.486,119.546z M43.475,30.126c-1.246,0-2.635,1.982-2.635,4.822v68.062
					c0,2.838,1.389,4.819,2.635,4.819l29.127,9.867c0.952-0.187,2.236-2.577,2.236-6.24V26.5c0-3.66-1.284-6.051-2.236-6.24
					L43.475,30.126z"/>
			</g>
		</g>
	</g>
	<g>
		<g>
			<path fill="#FFFFFF" d="M55.156,82.502c-4.635,0-8.266-5.94-8.266-13.525c0-7.583,3.631-13.524,8.266-13.524
				c4.637,0,8.267,5.941,8.267,13.524C63.422,76.563,59.792,82.502,55.156,82.502z M55.156,57.345
				c-3.521,0-6.493,5.327-6.493,11.633c0,6.308,2.972,11.635,6.493,11.635c3.521,0,6.492-5.327,6.492-11.635
				C61.647,62.672,58.677,57.345,55.156,57.345z"/>
		</g>
		<g>
			<path fill="#FFFFFF" d="M54.098,67.172l-2.121,7.222l4.237-3.611l2.119-7.222L54.098,67.172z M55.156,70.064
				c-0.353,0-0.638-0.487-0.638-1.085c0-0.6,0.285-1.087,0.638-1.087c0.352,0,0.637,0.487,0.637,1.087
				C55.793,69.578,55.508,70.064,55.156,70.064z"/>
		</g>
	</g>
</g>
</svg>
