<?xml version="1.0" encoding="utf-8"?>
<!-- Generator: Adobe Illustrator 16.0.0, SVG Export Plug-In . SVG Version: 6.00 Build 0)  -->
<!DOCTYPE svg PUBLIC "-//W3C//DTD SVG 1.1//EN" "http://www.w3.org/Graphics/SVG/1.1/DTD/svg11.dtd">
<svg version="1.1" id="圖層_1" xmlns="http://www.w3.org/2000/svg" xmlns:xlink="http://www.w3.org/1999/xlink" x="0px" y="0px"
	 width="137.957px" height="137.957px" viewBox="0 0 137.957 137.957" enable-background="new 0 0 137.957 137.957"
	 xml:space="preserve">
<g>
	<g>
		<circle fill="#C38C52" cx="69.35" cy="69.092" r="67.104"/>
	</g>
	<g>
		<path fill="#FFFFFF" d="M99.194,50.208c0,0.831-0.675,1.505-1.505,1.505h-3.014c-0.832,0-1.505-0.674-1.505-1.505V38.914
			c0-0.832,0.673-1.507,1.505-1.507h3.014c0.83,0,1.505,0.675,1.505,1.507V50.208z"/>
	</g>
	<g>
		<polygon fill="#976D3C" points="34.474,102.466 55.773,134.826 67.821,136.197 75.517,136.197 93.17,131.847 107.646,124.617 
			118.716,114.543 126.25,104.682 131.071,95.47 132.314,91.773 134.063,85.599 106.236,44.561 		"/>
	</g>
	<g>
		<path fill="#FFFFFF" d="M69.35,137.377c-37.651,0-68.282-30.634-68.282-68.285c0-37.65,30.631-68.285,68.282-68.285
			c37.653,0,68.285,30.635,68.285,68.285C137.635,106.744,107.003,137.377,69.35,137.377z M69.35,3.172
			c-36.348,0-65.924,29.571-65.924,65.92c0,36.352,29.576,65.923,65.924,65.923c36.351,0,65.924-29.571,65.924-65.923
			C135.274,32.744,105.701,3.172,69.35,3.172z"/>
	</g>
	<g>
		<path fill="#FFFFFF" d="M106.236,100.529c0,1.249-1.013,2.26-2.26,2.26H36.734c-1.247,0-2.26-1.011-2.26-2.26V46.756
			c0-1.247,1.013-2.259,2.26-2.259h67.242c1.247,0,2.26,1.012,2.26,2.259V100.529z"/>
		<path fill="#FFFFFF" d="M103.975,103.667H36.734c-1.729,0-3.137-1.407-3.137-3.139V46.756c0-1.73,1.407-3.138,3.137-3.138h67.241
			c1.73,0,3.138,1.407,3.138,3.138v53.772C107.113,102.26,105.706,103.667,103.975,103.667z M36.734,45.375
			c-0.761,0-1.381,0.62-1.381,1.381v53.772c0,0.761,0.62,1.381,1.381,1.381h67.241c0.762,0,1.381-0.62,1.381-1.381V46.756
			c0-0.761-0.619-1.381-1.381-1.381H36.734z"/>
	</g>
	<g>
		<path fill="#DB5444" d="M106.236,46.756c0-1.247-1.013-2.259-2.26-2.259H36.734c-1.247,0-2.26,1.012-2.26,2.259V64.64h71.762
			V46.756z"/>
		<path fill="#FFFFFF" d="M107.113,65.519H33.597V46.756c0-1.73,1.407-3.138,3.137-3.138h67.241c1.73,0,3.138,1.407,3.138,3.138
			V65.519z M35.353,63.761h70.003V46.756c0-0.761-0.619-1.381-1.381-1.381H36.734c-0.761,0-1.381,0.62-1.381,1.381V63.761z"/>
	</g>
	<g>
		<path fill="#FFFFFF" d="M48.366,50.208c0,0.831-0.673,1.505-1.507,1.505h-3.012c-0.831,0-1.506-0.674-1.506-1.505V38.914
			c0-0.832,0.675-1.507,1.506-1.507h3.012c0.834,0,1.507,0.675,1.507,1.507V50.208z"/>
	</g>
	<g>
		<g>
			<path fill="#221714" d="M73.186,94.857h-3.42V72.189l-6.856,2.518v-3.088l9.742-3.658h0.534V94.857z"/>
			<path fill="#221714" d="M73.939,95.609h-4.926V73.268l-6.857,2.518v-4.688l10.361-3.889h1.422V95.609z M70.519,94.103h1.913
				V68.847l-8.77,3.293v1.488l6.856-2.52V94.103z"/>
		</g>
	</g>
</g>
</svg>
