<?xml version="1.0" encoding="utf-8"?>
<!-- Generator: Adobe Illustrator 16.0.0, SVG Export Plug-In . SVG Version: 6.00 Build 0)  -->
<!DOCTYPE svg PUBLIC "-//W3C//DTD SVG 1.1//EN" "http://www.w3.org/Graphics/SVG/1.1/DTD/svg11.dtd">
<svg version="1.1" id="圖層_1" xmlns="http://www.w3.org/2000/svg" xmlns:xlink="http://www.w3.org/1999/xlink" x="0px" y="0px"
	 width="137.957px" height="137.957px" viewBox="0 0 137.957 137.957" enable-background="new 0 0 137.957 137.957"
	 xml:space="preserve">
<g>
	<path fill="#93C2A3" d="M135.51,68.978c0,36.746-29.788,66.536-66.532,66.536c-36.744,0-66.533-29.79-66.533-66.536
		c0-36.744,29.79-66.534,66.533-66.534C105.722,2.444,135.51,32.234,135.51,68.978z"/>
	<polygon fill="#6C9D7A" points="37.195,116.109 54.96,133.231 73.389,135.514 91.896,130.896 109.973,121.716 126.114,102.72 
		134.753,80.376 102.929,43.064 	"/>
	<g>
		<path fill="#FFFFFF" d="M80.228,21.863H41.475c-2.448,0-4.435,1.986-4.435,4.431v86.003c0,2.445,1.986,4.432,4.435,4.432h55.632
			c2.447,0,4.433-1.986,4.433-4.432V43.176L80.228,21.863z"/>
		<path fill="#757575" d="M97.106,118.067H41.475c-3.184,0-5.771-2.587-5.771-5.77V26.294c0-3.182,2.588-5.77,5.771-5.77h38.753
			c0.354,0,0.692,0.139,0.945,0.396l21.313,21.311c0.25,0.251,0.39,0.589,0.39,0.945v69.122
			C102.877,115.48,100.289,118.067,97.106,118.067z M41.475,23.2c-1.708,0-3.096,1.39-3.096,3.094v86.003
			c0,1.707,1.389,3.092,3.096,3.092h55.632c1.706,0,3.094-1.385,3.094-3.092V43.729L79.674,23.2H41.475z"/>
		<g>
			<g>
				<path fill="#757575" d="M101.539,44.514H84.661c-3.182,0-5.771-2.589-5.771-5.773V21.863c0-0.542,0.325-1.028,0.825-1.235
					c0.5-0.208,1.077-0.095,1.458,0.292l21.313,21.311c0.381,0.381,0.496,0.958,0.29,1.457
					C102.569,44.186,102.08,44.514,101.539,44.514z M81.566,25.094v13.647c0,1.71,1.388,3.097,3.095,3.097h13.647L81.566,25.094z"/>
			</g>
		</g>
		<g>
			<path fill="#8B8B8B" d="M68.106,57.856h0.008l0,0h1.823h1.826l0,0h0.005c0.726-0.971,7.713-1.828,14.928-1.278l3.658-3.326
				l-1.645-0.166c-2.464-0.248-14.463-1.266-18.772,1.617c-4.307-2.883-16.308-1.865-18.769-1.617l-1.646,0.166l3.655,3.326
				C60.395,56.028,67.383,56.885,68.106,57.856z"/>
			<path fill="#93C2A3" d="M90.59,58.412l-3.894,26.455c-4.325-0.312-13.178-0.606-16.759,1.775
				c-3.58-2.381-12.433-2.087-16.76-1.775l-3.893-26.455l-4.503-3.326l4.741,33.791l2.008-0.2c7.761-0.776,15.821-0.2,16.576,1.137
				h0.008h3.649h0.005c0.755-1.337,8.818-1.913,16.578-1.137l2.008,0.2l4.74-33.791L90.59,58.412z"/>
			<g>
				<rect x="68.106" y="61.104" fill="#93C2A3" width="3.659" height="13.709"/>
			</g>
			<g>
				<circle fill="#8B8B8B" cx="58.492" cy="64.557" r="1.523"/>
				<path fill="#8B8B8B" d="M58.491,66.322c-0.974,0-1.766-0.792-1.766-1.765c0-0.975,0.792-1.768,1.766-1.768
					c0.975,0,1.768,0.793,1.768,1.768C60.259,65.53,59.466,66.322,58.491,66.322z M58.491,63.276c-0.705,0-1.278,0.574-1.278,1.28
					c0,0.705,0.573,1.278,1.278,1.278c0.706,0,1.28-0.573,1.28-1.278C59.771,63.85,59.197,63.276,58.491,63.276z"/>
			</g>
			<g>
				<path fill="#8B8B8B" d="M83.067,64.557c0,0.842-0.682,1.521-1.522,1.521c-0.845,0-1.524-0.679-1.524-1.521
					s0.68-1.524,1.524-1.524C82.385,63.032,83.067,63.714,83.067,64.557z"/>
				<path fill="#8B8B8B" d="M81.545,66.322c-0.975,0-1.768-0.792-1.768-1.765c0-0.975,0.793-1.768,1.768-1.768
					c0.974,0,1.766,0.793,1.766,1.768C83.312,65.53,82.519,66.322,81.545,66.322z M81.545,63.276c-0.707,0-1.28,0.574-1.28,1.28
					c0,0.705,0.574,1.278,1.28,1.278c0.705,0,1.279-0.573,1.279-1.278C82.824,63.85,82.25,63.276,81.545,63.276z"/>
			</g>
			<path fill="#8B8B8B" d="M69.938,74.813c0,0-3.59-2.72-7.884-0.36c-3.395,1.867-3.563,3.679-7.349,2.615
				C55.717,79.301,63.439,84.459,69.938,74.813z"/>
			<path fill="#8B8B8B" d="M69.938,74.813c0,0,3.59-2.72,7.883-0.36c3.396,1.867,3.564,3.679,7.351,2.615
				C84.157,79.301,76.437,84.459,69.938,74.813z"/>
		</g>
		<path fill="#757575" d="M81.16,111.907c-0.205,0.039-0.418,0.003-0.596-0.116c-0.239-0.157-0.374-0.429-0.357-0.71l0.651-11.108
			c0.018-0.287,0.184-0.535,0.439-0.664c0.25-0.129,0.555-0.111,0.793,0.044l9.295,6.119c0.235,0.157,0.372,0.428,0.356,0.713
			c-0.018,0.28-0.185,0.534-0.438,0.663l-9.945,4.99C81.294,111.866,81.23,111.891,81.16,111.907z M82.365,101.437l-0.489,8.362
			l7.487-3.758L82.365,101.437z"/>
		<path fill="#FFFFFF" d="M94.256,102.286c-0.711,1.08-2.164,1.381-3.246,0.669l-6.463-4.253c-1.08-0.713-1.38-2.164-0.668-3.242
			l18.672-28.37c0.71-1.082,2.162-1.379,3.244-0.667l6.462,4.251c1.08,0.713,1.379,2.165,0.669,3.244L94.256,102.286z"/>
		<path fill="#757575" d="M92.931,104.068c-0.82,0.17-1.657,0.011-2.356-0.454l-6.461-4.249c-1.447-0.95-1.849-2.903-0.897-4.342
			l18.671-28.369c0.459-0.701,1.165-1.178,1.986-1.346c0.823-0.17,1.659-0.011,2.359,0.449l6.462,4.254
			c1.445,0.953,1.846,2.9,0.896,4.346l-18.671,28.364C94.459,103.422,93.754,103.901,92.931,104.068z M104.194,66.862
			c-0.405,0.081-0.752,0.318-0.98,0.665l-18.67,28.367c-0.47,0.713-0.271,1.673,0.442,2.143l6.462,4.252
			c0.345,0.23,0.759,0.311,1.165,0.225c0.402-0.083,0.751-0.317,0.98-0.666l18.67-28.365c0.469-0.712,0.27-1.674-0.442-2.143
			l-6.464-4.254C105.013,66.858,104.6,66.777,104.194,66.862z"/>
	</g>
	<path fill="#FFFFFF" d="M68.978,136.681c-37.332,0-67.704-30.37-67.704-67.703c0-37.331,30.372-67.703,67.704-67.703
		c37.332,0,67.706,30.372,67.706,67.703C136.684,106.311,106.309,136.681,68.978,136.681z M68.978,3.614
		c-36.041,0-65.364,29.323-65.364,65.364s29.323,65.365,65.364,65.365c36.042,0,65.363-29.324,65.363-65.365
		S105.02,3.614,68.978,3.614z"/>
</g>
</svg>
