<?xml version="1.0" encoding="utf-8"?>
<!-- Generator: Adobe Illustrator 16.0.0, SVG Export Plug-In . SVG Version: 6.00 Build 0)  -->
<!DOCTYPE svg PUBLIC "-//W3C//DTD SVG 1.1//EN" "http://www.w3.org/Graphics/SVG/1.1/DTD/svg11.dtd">
<svg version="1.1" id="圖層_1" xmlns="http://www.w3.org/2000/svg" xmlns:xlink="http://www.w3.org/1999/xlink" x="0px" y="0px"
	 width="137.957px" height="137.957px" viewBox="0 0 137.957 137.957" enable-background="new 0 0 137.957 137.957"
	 xml:space="preserve">
<g>
	<g>
		<g>
			<path fill="#A3A2A2" d="M68.926,1.551C31.662,1.551,1.45,31.76,1.45,69.024c0,16.602,5.997,31.801,15.94,43.554l95.087-95.088
				C100.724,7.548,85.527,1.551,68.926,1.551z"/>
			<path fill="#7E7D80" d="M112.477,17.49L17.39,112.578c12.379,14.632,30.871,23.924,51.536,23.924
				c37.268,0,67.478-30.207,67.478-67.478C136.404,48.361,127.109,29.868,112.477,17.49z"/>
		</g>
		<g>
			<path fill="#FFFFFF" d="M63.809,83.625c0.029-4.275,0.387-7.225,1.075-8.852c0.689-1.628,2.526-3.787,5.516-6.482
				c2.899-3.427,4.965-6.063,6.195-7.911c1.23-1.842,1.846-4.068,1.846-6.679c0-3.104-0.828-5.491-2.483-7.161
				c-1.655-1.669-4.021-2.504-7.096-2.504c-2.665,0-4.929,0.725-6.79,2.176c-1.859,1.447-2.789,3.58-2.789,6.393h-8.261
				l-0.132-0.263c-0.089-4.718,1.566-8.497,4.966-11.338c3.397-2.841,7.733-4.263,13.006-4.263c5.771,0,10.252,1.473,13.445,4.418
				c3.191,2.943,4.789,7.051,4.789,12.324c0,3.777-1.033,7.238-3.098,10.371c-2.065,3.133-4.797,6.339-8.194,9.623
				c-1.554,1.579-2.497,3-2.834,4.259c-0.338,1.261-0.506,3.225-0.506,5.889H63.809z M72.727,101.641h-9.006v-9.138h9.006V101.641z"
				/>
		</g>
	</g>
	<g>
		<path fill="#FFFFFF" d="M68.978,137.665c-37.776,0-68.509-30.731-68.509-68.508S31.202,0.649,68.978,0.649
			s68.51,30.731,68.51,68.508S106.754,137.665,68.978,137.665z M68.978,3.019c-36.47,0-66.139,29.669-66.139,66.139
			c0,36.467,29.669,66.139,66.139,66.139c36.469,0,66.14-29.672,66.14-66.139C135.118,32.688,105.447,3.019,68.978,3.019z"/>
	</g>
</g>
</svg>
